<?xml version="1.0" encoding="us-ascii" standalone="no"?><svg xmlns="http://www.w3.org/2000/svg" xmlns:xlink="http://www.w3.org/1999/xlink" contentStyleType="text/css" height="343px" preserveAspectRatio="none" style="width:456px;height:343px;background:#FFFFFF;" version="1.1" viewBox="0 0 456 343" width="456px" zoomAndPan="magnify"><defs/><g><!--class ApplicationSession--><g id="elem_ApplicationSession"><rect codeLine="3" fill="#F1F1F1" height="80.9766" id="ApplicationSession" rx="2.5" ry="2.5" style="stroke:#181818;stroke-width:0.5;" width="162" x="7" y="256"/><ellipse cx="22" cy="272" fill="#ADD1B2" rx="11" ry="11" style="stroke:#181818;stroke-width:1.0;"/><path d="M24.9731,277.6431 Q24.3921,277.9419 23.7529,278.0913 Q23.1138,278.2407 22.4082,278.2407 Q19.9014,278.2407 18.5815,276.5889 Q17.2617,274.937 17.2617,271.8159 Q17.2617,268.6865 18.5815,267.0347 Q19.9014,265.3828 22.4082,265.3828 Q23.1138,265.3828 23.7612,265.5322 Q24.4087,265.6816 24.9731,265.9805 L24.9731,268.7031 Q24.3423,268.1221 23.7488,267.8523 Q23.1553,267.5825 22.5244,267.5825 Q21.1797,267.5825 20.4949,268.6492 Q19.8101,269.7158 19.8101,271.8159 Q19.8101,273.9077 20.4949,274.9744 Q21.1797,276.041 22.5244,276.041 Q23.1553,276.041 23.7488,275.7712 Q24.3423,275.5015 24.9731,274.9204 Z " fill="#000000"/><text fill="#000000" font-family="sans-serif" font-size="14" lengthAdjust="spacing" textLength="130" x="36" y="277.291">ApplicationSession</text><line style="stroke:#181818;stroke-width:0.5;" x1="8" x2="168" y1="288" y2="288"/><line style="stroke:#181818;stroke-width:0.5;" x1="8" x2="168" y1="296" y2="296"/><text fill="#000000" font-family="sans-serif" font-size="14" lengthAdjust="spacing" textLength="140" x="13" y="313.5352">+static getInstance()</text><text fill="#000000" font-family="sans-serif" font-size="14" lengthAdjust="spacing" textLength="148" x="13" y="330.0234">+getCurrentSession()</text></g><!--class UserSession--><g id="elem_UserSession"><rect codeLine="9" fill="#F1F1F1" height="64.4883" id="UserSession" rx="2.5" ry="2.5" style="stroke:#181818;stroke-width:0.5;" width="245" x="204.5" y="264.5"/><ellipse cx="281.25" cy="280.5" fill="#ADD1B2" rx="11" ry="11" style="stroke:#181818;stroke-width:1.0;"/><path d="M284.2231,286.1431 Q283.6421,286.4419 283.0029,286.5913 Q282.3638,286.7407 281.6582,286.7407 Q279.1514,286.7407 277.8315,285.0889 Q276.5117,283.437 276.5117,280.3159 Q276.5117,277.1865 277.8315,275.5347 Q279.1514,273.8828 281.6582,273.8828 Q282.3638,273.8828 283.0112,274.0322 Q283.6587,274.1816 284.2231,274.4805 L284.2231,277.2031 Q283.5923,276.6221 282.9988,276.3523 Q282.4053,276.0825 281.7744,276.0825 Q280.4297,276.0825 279.7449,277.1492 Q279.0601,278.2158 279.0601,280.3159 Q279.0601,282.4077 279.7449,283.4744 Q280.4297,284.541 281.7744,284.541 Q282.4053,284.541 282.9988,284.2712 Q283.5923,284.0015 284.2231,283.4204 Z " fill="#000000"/><text fill="#000000" font-family="sans-serif" font-size="14" lengthAdjust="spacing" textLength="83" x="301.75" y="285.791">UserSession</text><line style="stroke:#181818;stroke-width:0.5;" x1="205.5" x2="448.5" y1="296.5" y2="296.5"/><line style="stroke:#181818;stroke-width:0.5;" x1="205.5" x2="448.5" y1="304.5" y2="304.5"/><text fill="#000000" font-family="sans-serif" font-size="14" lengthAdjust="spacing" textLength="233" x="210.5" y="322.0352">+isLoggedInWithRole(USER_ROLE)</text></g><!--class {NameOfUC}Controller--><g id="elem_{NameOfUC}Controller"><rect codeLine="14" fill="#F1F1F1" height="80.9766" id="{NameOfUC}Controller" rx="2.5" ry="2.5" style="stroke:#181818;stroke-width:0.5;" width="188" x="113" y="115"/><ellipse cx="128.45" cy="131" fill="#ADD1B2" rx="11" ry="11" style="stroke:#181818;stroke-width:1.0;"/><path d="M131.4231,136.6431 Q130.8421,136.9419 130.2029,137.0913 Q129.5638,137.2407 128.8582,137.2407 Q126.3514,137.2407 125.0315,135.5889 Q123.7117,133.937 123.7117,130.8159 Q123.7117,127.6865 125.0315,126.0347 Q126.3514,124.3828 128.8582,124.3828 Q129.5638,124.3828 130.2112,124.5322 Q130.8587,124.6816 131.4231,124.9805 L131.4231,127.7031 Q130.7923,127.1221 130.1988,126.8523 Q129.6053,126.5825 128.9744,126.5825 Q127.6297,126.5825 126.9449,127.6492 Q126.2601,128.7158 126.2601,130.8159 Q126.2601,132.9077 126.9449,133.9744 Q127.6297,135.041 128.9744,135.041 Q129.6053,135.041 130.1988,134.7712 Q130.7923,134.5015 131.4231,133.9204 Z " fill="#000000"/><text fill="#000000" font-family="sans-serif" font-size="14" lengthAdjust="spacing" textLength="155" x="142.55" y="136.291">{NameOfUC}Controller</text><line style="stroke:#181818;stroke-width:0.5;" x1="114" x2="300" y1="147" y2="147"/><line style="stroke:#181818;stroke-width:0.5;" x1="114" x2="300" y1="155" y2="155"/><text fill="#000000" font-family="sans-serif" font-size="14" lengthAdjust="spacing" textLength="176" x="119" y="172.5352">+{NameOfUC}Controller()</text><text fill="#000000" font-family="sans-serif" font-size="14" lengthAdjust="spacing" textLength="95" x="119" y="189.0234">+methodX(...)</text></g><!--class {NameOfUC}UI--><g id="elem_{NameOfUC}UI"><rect codeLine="19" fill="#F1F1F1" height="48" id="{NameOfUC}UI" rx="2.5" ry="2.5" style="stroke:#181818;stroke-width:0.5;" width="131" x="141.5" y="7"/><ellipse cx="156.5" cy="23" fill="#ADD1B2" rx="11" ry="11" style="stroke:#181818;stroke-width:1.0;"/><path d="M159.4731,28.6431 Q158.8921,28.9419 158.2529,29.0913 Q157.6138,29.2407 156.9082,29.2407 Q154.4014,29.2407 153.0815,27.5889 Q151.7617,25.937 151.7617,22.8159 Q151.7617,19.6865 153.0815,18.0347 Q154.4014,16.3828 156.9082,16.3828 Q157.6138,16.3828 158.2612,16.5322 Q158.9087,16.6816 159.4731,16.9805 L159.4731,19.7031 Q158.8423,19.1221 158.2488,18.8523 Q157.6553,18.5825 157.0244,18.5825 Q155.6797,18.5825 154.9949,19.6492 Q154.3101,20.7158 154.3101,22.8159 Q154.3101,24.9077 154.9949,25.9744 Q155.6797,27.041 157.0244,27.041 Q157.6553,27.041 158.2488,26.7712 Q158.8423,26.5015 159.4731,25.9204 Z " fill="#000000"/><text fill="#000000" font-family="sans-serif" font-size="14" lengthAdjust="spacing" textLength="99" x="170.5" y="28.291">{NameOfUC}UI</text><line style="stroke:#181818;stroke-width:0.5;" x1="142.5" x2="271.5" y1="39" y2="39"/><line style="stroke:#181818;stroke-width:0.5;" x1="142.5" x2="271.5" y1="47" y2="47"/></g><!--link {NameOfUC}UI to {NameOfUC}Controller--><g id="link_{NameOfUC}UI_{NameOfUC}Controller"><path codeLine="22" d="M207,55.04 C207,70.37 207,91.02 207,109.53 " fill="none" id="{NameOfUC}UI-to-{NameOfUC}Controller" style="stroke:#181818;stroke-width:1.0;stroke-dasharray:7.0,7.0;"/><polygon fill="#181818" points="207,114.69,211,105.69,207,109.69,203,105.69,207,114.69" style="stroke:#181818;stroke-width:1.0;"/></g><!--link {NameOfUC}Controller to ApplicationSession--><g id="link_{NameOfUC}Controller_ApplicationSession"><path codeLine="23" d="M172.9,196.33 C158.09,213.63 140.69,233.96 125.51,251.69 " fill="none" id="{NameOfUC}Controller-to-ApplicationSession" style="stroke:#181818;stroke-width:1.0;stroke-dasharray:7.0,7.0;"/><polygon fill="#181818" points="122.11,255.66,130.9949,251.4106,125.3557,251.8567,124.9096,246.2174,122.11,255.66" style="stroke:#181818;stroke-width:1.0;"/></g><!--link {NameOfUC}Controller to UserSession--><g id="link_{NameOfUC}Controller_UserSession"><path codeLine="24" d="M241.39,196.33 C258.92,216.64 280.04,241.1 296.92,260.65 " fill="none" id="{NameOfUC}Controller-to-UserSession" style="stroke:#181818;stroke-width:1.0;stroke-dasharray:7.0,7.0;"/><polygon fill="#181818" points="300.23,264.5,297.3719,255.075,296.9608,260.7168,291.3189,260.3057,300.23,264.5" style="stroke:#181818;stroke-width:1.0;"/></g><!--SRC=[VP312i8m38RlVOgoqqGeFe4mnWw3uM1Zw4rg5xTYruuskoY-kwqeg6oUMlul-HBYBbAFtFA12iMTIn2jF4q8kJ2wbbUW6qAUX2RZgAJWA3q0v_n3ReJIjKEV2Te1vjh_jO1u5N8Vf9EreF5LxkFxMzOui5yMwGhJTT3cUY-nhuo2kAcpwbYLHVRH5zrsV83otAJtr6YqHYcm4GqABw5pzBbDW0DWRzf3p1YRDpPvC7doap6sNHXC5lO97JFt-bFzUP07]--></g></svg>