<?xml version="1.0" encoding="us-ascii" standalone="no"?><svg xmlns="http://www.w3.org/2000/svg" xmlns:xlink="http://www.w3.org/1999/xlink" contentStyleType="text/css" height="837px" preserveAspectRatio="none" style="width:1034px;height:837px;background:#FFFFFF;" version="1.1" viewBox="0 0 1034 837" width="1034px" zoomAndPan="magnify"><defs/><g><rect fill="#FFFFFF" height="655.2109" style="stroke:#181818;stroke-width:1.0;" width="10" x="33.5" y="91.4883"/><rect fill="#FFFFFF" height="280.8398" style="stroke:#181818;stroke-width:1.0;" width="10" x="183.5" y="112.7988"/><rect fill="#FFFFFF" height="31.4883" style="stroke:#181818;stroke-width:1.0;" width="10" x="322" y="152.1094"/><rect fill="#FFFFFF" height="59.3105" style="stroke:#181818;stroke-width:1.0;" width="10" x="322" y="363.6387"/><rect fill="#FFFFFF" height="205.1289" style="stroke:#181818;stroke-width:1.0;" width="10" x="322" y="501.5703"/><rect fill="#FFFFFF" height="140.7305" style="stroke:#181818;stroke-width:1.0;" width="10" x="488.5" y="193.5977"/><rect fill="#FFFFFF" height="146.5078" style="stroke:#181818;stroke-width:1.0;" width="10" x="488.5" y="530.8809"/><rect fill="#FFFFFF" height="39.9658" style="stroke:#181818;stroke-width:1.0;" width="10" x="657" y="235.7412"/><rect fill="#FFFFFF" height="87.8867" style="stroke:#181818;stroke-width:1.0;" width="10" x="657" y="560.1914"/><rect fill="#FFFFFF" height="29.3105" style="stroke:#181818;stroke-width:1.0;" width="10" x="813" y="305.0176"/><rect fill="none" height="276.75" style="stroke:#000000;stroke-width:1.5;" width="1018" x="10" y="462.9492"/><line style="stroke:#181818;stroke-width:0.5;stroke-dasharray:5.0,5.0;" x1="38" x2="38" y1="81.4883" y2="756.6992"/><line style="stroke:#181818;stroke-width:0.5;stroke-dasharray:5.0,5.0;" x1="188" x2="188" y1="81.4883" y2="756.6992"/><line style="stroke:#181818;stroke-width:0.5;stroke-dasharray:5.0,5.0;" x1="326.5" x2="326.5" y1="151.543" y2="756.6992"/><line style="stroke:#181818;stroke-width:0.5;stroke-dasharray:5.0,5.0;" x1="493" x2="493" y1="193.0313" y2="756.6992"/><line style="stroke:#181818;stroke-width:0.5;stroke-dasharray:5.0,5.0;" x1="662" x2="662" y1="81.4883" y2="756.6992"/><line style="stroke:#181818;stroke-width:0.5;stroke-dasharray:5.0,5.0;" x1="818" x2="818" y1="81.4883" y2="756.6992"/><line style="stroke:#181818;stroke-width:0.5;stroke-dasharray:5.0,5.0;" x1="960" x2="960" y1="81.4883" y2="756.6992"/><text fill="#000000" font-family="sans-serif" font-size="14" lengthAdjust="spacing" textLength="31" x="20" y="78.5352">User</text><ellipse cx="38.5" cy="13.5" fill="#E3E3E3" rx="8" ry="8" style="stroke:#181818;stroke-width:0.5;"/><path d="M38.5,21.5 L38.5,48.5 M25.5,29.5 L51.5,29.5 M38.5,48.5 L25.5,63.5 M38.5,48.5 L51.5,63.5 " fill="none" style="stroke:#181818;stroke-width:0.5;"/><text fill="#000000" font-family="sans-serif" font-size="14" lengthAdjust="spacing" textLength="31" x="20" y="769.2344">User</text><ellipse cx="38.5" cy="780.6875" fill="#E3E3E3" rx="8" ry="8" style="stroke:#181818;stroke-width:0.5;"/><path d="M38.5,788.6875 L38.5,815.6875 M25.5,796.6875 L51.5,796.6875 M38.5,815.6875 L25.5,830.6875 M38.5,815.6875 L51.5,830.6875 " fill="none" style="stroke:#181818;stroke-width:0.5;"/><rect fill="#E3E3E3" height="30.4883" rx="2.5" ry="2.5" style="stroke:#181818;stroke-width:0.5;" width="89" x="144" y="50"/><text fill="#000000" font-family="sans-serif" font-size="14" lengthAdjust="spacing" textLength="75" x="151" y="70.5352">:{MenuX}UI</text><rect fill="#E3E3E3" height="30.4883" rx="2.5" ry="2.5" style="stroke:#181818;stroke-width:0.5;" width="89" x="144" y="755.6992"/><text fill="#000000" font-family="sans-serif" font-size="14" lengthAdjust="spacing" textLength="75" x="151" y="776.2344">:{MenuX}UI</text><rect fill="#E3E3E3" height="30.4883" rx="2.5" ry="2.5" style="stroke:#181818;stroke-width:0.5;" width="117" x="268.5" y="755.6992"/><text fill="#000000" font-family="sans-serif" font-size="14" lengthAdjust="spacing" textLength="103" x="275.5" y="776.2344">:{NameOfUC}UI</text><rect fill="#E3E3E3" height="30.4883" rx="2.5" ry="2.5" style="stroke:#181818;stroke-width:0.5;" width="173" x="407" y="755.6992"/><text fill="#000000" font-family="sans-serif" font-size="14" lengthAdjust="spacing" textLength="159" x="414" y="776.2344">:{NameOfUC}Controller</text><rect fill="#E3E3E3" height="30.4883" rx="2.5" ry="2.5" style="stroke:#181818;stroke-width:0.5;" width="144" x="590" y="50"/><text fill="#000000" font-family="sans-serif" font-size="14" lengthAdjust="spacing" textLength="130" x="597" y="70.5352">ApplicationSession</text><rect fill="#E3E3E3" height="30.4883" rx="2.5" ry="2.5" style="stroke:#181818;stroke-width:0.5;" width="144" x="590" y="755.6992"/><text fill="#000000" font-family="sans-serif" font-size="14" lengthAdjust="spacing" textLength="130" x="597" y="776.2344">ApplicationSession</text><rect fill="#E3E3E3" height="46.9766" rx="2.5" ry="2.5" style="stroke:#181818;stroke-width:0.5;" width="148" x="744" y="33.5117"/><text fill="#000000" font-family="sans-serif" font-size="14" lengthAdjust="spacing" textLength="78" x="779" y="54.0469">appSession</text><text fill="#000000" font-family="sans-serif" font-size="14" lengthAdjust="spacing" textLength="134" x="751" y="70.5352">:ApplicationSession</text><rect fill="#E3E3E3" height="46.9766" rx="2.5" ry="2.5" style="stroke:#181818;stroke-width:0.5;" width="148" x="744" y="755.6992"/><text fill="#000000" font-family="sans-serif" font-size="14" lengthAdjust="spacing" textLength="78" x="779" y="776.2344">appSession</text><text fill="#000000" font-family="sans-serif" font-size="14" lengthAdjust="spacing" textLength="134" x="751" y="792.7227">:ApplicationSession</text><rect fill="#E3E3E3" height="46.9766" rx="2.5" ry="2.5" style="stroke:#181818;stroke-width:0.5;" width="116" x="902" y="33.5117"/><text fill="#000000" font-family="sans-serif" font-size="14" lengthAdjust="spacing" textLength="102" x="909" y="54.0469">currentSession</text><text fill="#000000" font-family="sans-serif" font-size="14" lengthAdjust="spacing" textLength="87" x="916.5" y="70.5352">:UserSession</text><rect fill="#E3E3E3" height="46.9766" rx="2.5" ry="2.5" style="stroke:#181818;stroke-width:0.5;" width="116" x="902" y="755.6992"/><text fill="#000000" font-family="sans-serif" font-size="14" lengthAdjust="spacing" textLength="102" x="909" y="776.2344">currentSession</text><text fill="#000000" font-family="sans-serif" font-size="14" lengthAdjust="spacing" textLength="87" x="916.5" y="792.7227">:UserSession</text><rect fill="#FFFFFF" height="655.2109" style="stroke:#181818;stroke-width:1.0;" width="10" x="33.5" y="91.4883"/><rect fill="#FFFFFF" height="280.8398" style="stroke:#181818;stroke-width:1.0;" width="10" x="183.5" y="112.7988"/><rect fill="#FFFFFF" height="31.4883" style="stroke:#181818;stroke-width:1.0;" width="10" x="322" y="152.1094"/><rect fill="#FFFFFF" height="59.3105" style="stroke:#181818;stroke-width:1.0;" width="10" x="322" y="363.6387"/><rect fill="#FFFFFF" height="205.1289" style="stroke:#181818;stroke-width:1.0;" width="10" x="322" y="501.5703"/><rect fill="#FFFFFF" height="140.7305" style="stroke:#181818;stroke-width:1.0;" width="10" x="488.5" y="193.5977"/><rect fill="#FFFFFF" height="146.5078" style="stroke:#181818;stroke-width:1.0;" width="10" x="488.5" y="530.8809"/><rect fill="#FFFFFF" height="39.9658" style="stroke:#181818;stroke-width:1.0;" width="10" x="657" y="235.7412"/><rect fill="#FFFFFF" height="87.8867" style="stroke:#181818;stroke-width:1.0;" width="10" x="657" y="560.1914"/><rect fill="#FFFFFF" height="29.3105" style="stroke:#181818;stroke-width:1.0;" width="10" x="813" y="305.0176"/><polygon fill="#181818" points="171.5,108.7988,181.5,112.7988,171.5,116.7988,175.5,112.7988" style="stroke:#181818;stroke-width:1.0;"/><line style="stroke:#181818;stroke-width:1.0;" x1="43.5" x2="177.5" y1="112.7988" y2="112.7988"/><text fill="#000000" font-family="sans-serif" font-size="13" font-weight="bold" lengthAdjust="spacing" textLength="9" x="50.5" y="108.0566">1</text><text fill="#000000" font-family="sans-serif" font-size="13" lengthAdjust="spacing" textLength="108" x="63.5" y="108.0566">selects an option</text><polygon fill="#181818" points="256.5,138.1094,266.5,142.1094,256.5,146.1094,260.5,142.1094" style="stroke:#181818;stroke-width:1.0;"/><line style="stroke:#181818;stroke-width:1.0;stroke-dasharray:2.0,2.0;" x1="193.5" x2="262.5" y1="142.1094" y2="142.1094"/><text fill="#000000" font-family="sans-serif" font-size="13" font-weight="bold" lengthAdjust="spacing" textLength="9" x="200.5" y="137.3672">2</text><text fill="#000000" font-family="sans-serif" font-size="13" lengthAdjust="spacing" textLength="38" x="213.5" y="137.3672">create</text><rect fill="#E3E3E3" height="30.4883" rx="2.5" ry="2.5" style="stroke:#181818;stroke-width:0.5;" width="117" x="268.5" y="120.7988"/><text fill="#000000" font-family="sans-serif" font-size="14" lengthAdjust="spacing" textLength="103" x="275.5" y="141.334">:{NameOfUC}UI</text><polygon fill="#181818" points="395,179.5977,405,183.5977,395,187.5977,399,183.5977" style="stroke:#181818;stroke-width:1.0;"/><line style="stroke:#181818;stroke-width:1.0;stroke-dasharray:2.0,2.0;" x1="327" x2="401" y1="183.5977" y2="183.5977"/><text fill="#000000" font-family="sans-serif" font-size="13" font-weight="bold" lengthAdjust="spacing" textLength="9" x="334" y="178.8555">3</text><text fill="#000000" font-family="sans-serif" font-size="13" lengthAdjust="spacing" textLength="38" x="347" y="178.8555">create</text><rect fill="#E3E3E3" height="30.4883" rx="2.5" ry="2.5" style="stroke:#181818;stroke-width:0.5;" width="173" x="407" y="162.2871"/><text fill="#000000" font-family="sans-serif" font-size="14" lengthAdjust="spacing" textLength="159" x="414" y="182.8223">:{NameOfUC}Controller</text><polygon fill="#181818" points="645,231.7412,655,235.7412,645,239.7412,649,235.7412" style="stroke:#181818;stroke-width:1.0;"/><line style="stroke:#181818;stroke-width:1.0;" x1="498.5" x2="651" y1="235.7412" y2="235.7412"/><text fill="#000000" font-family="sans-serif" font-size="13" font-weight="bold" lengthAdjust="spacing" textLength="9" x="505.5" y="230.999">4</text><text fill="#000000" font-family="sans-serif" font-size="13" lengthAdjust="spacing" textLength="81" x="518.5" y="230.999">getinstance()</text><path d="M672,208.7754 L672,248.7754 L809,248.7754 L809,218.7754 L799,208.7754 L672,208.7754 " fill="#FAFAFA" style="stroke:#181818;stroke-width:0.5;"/><path d="M799,208.7754 L799,218.7754 L809,218.7754 L799,208.7754 " fill="#FAFAFA" style="stroke:#181818;stroke-width:0.5;"/><text fill="#000000" font-family="sans-serif" font-size="13" lengthAdjust="spacing" textLength="87" x="678" y="226.3438">static method</text><text fill="#000000" font-family="sans-serif" font-size="13" lengthAdjust="spacing" textLength="116" x="678" y="241.6543">(Singleton pattern)</text><polygon fill="#181818" points="509.5,271.707,499.5,275.707,509.5,279.707,505.5,275.707" style="stroke:#181818;stroke-width:1.0;"/><line style="stroke:#181818;stroke-width:1.0;stroke-dasharray:2.0,2.0;" x1="503.5" x2="661" y1="275.707" y2="275.707"/><text fill="#000000" font-family="sans-serif" font-size="13" font-weight="bold" lengthAdjust="spacing" textLength="9" x="515.5" y="270.9648">5</text><text fill="#000000" font-family="sans-serif" font-size="13" lengthAdjust="spacing" textLength="71" x="528.5" y="270.9648">appSession</text><polygon fill="#181818" points="801,301.0176,811,305.0176,801,309.0176,805,305.0176" style="stroke:#181818;stroke-width:1.0;"/><line style="stroke:#181818;stroke-width:1.0;" x1="498.5" x2="807" y1="305.0176" y2="305.0176"/><text fill="#000000" font-family="sans-serif" font-size="13" font-weight="bold" lengthAdjust="spacing" textLength="9" x="505.5" y="300.2754">6</text><text fill="#000000" font-family="sans-serif" font-size="13" lengthAdjust="spacing" textLength="123" x="518.5" y="300.2754">getCurrentSession()</text><polygon fill="#181818" points="504.5,330.3281,494.5,334.3281,504.5,338.3281,500.5,334.3281" style="stroke:#181818;stroke-width:1.0;"/><line style="stroke:#181818;stroke-width:1.0;stroke-dasharray:2.0,2.0;" x1="498.5" x2="817" y1="334.3281" y2="334.3281"/><text fill="#000000" font-family="sans-serif" font-size="13" font-weight="bold" lengthAdjust="spacing" textLength="9" x="510.5" y="329.5859">7</text><text fill="#000000" font-family="sans-serif" font-size="13" lengthAdjust="spacing" textLength="93" x="523.5" y="329.5859">currentSession</text><polygon fill="#181818" points="310,359.6387,320,363.6387,310,367.6387,314,363.6387" style="stroke:#181818;stroke-width:1.0;"/><line style="stroke:#181818;stroke-width:1.0;" x1="193.5" x2="316" y1="363.6387" y2="363.6387"/><text fill="#000000" font-family="sans-serif" font-size="13" font-weight="bold" lengthAdjust="spacing" textLength="9" x="200.5" y="358.8965">8</text><text fill="#000000" font-family="sans-serif" font-size="13" lengthAdjust="spacing" textLength="29" x="213.5" y="358.8965">run()</text><polygon fill="#181818" points="54.5,418.9492,44.5,422.9492,54.5,426.9492,50.5,422.9492" style="stroke:#181818;stroke-width:1.0;"/><line style="stroke:#181818;stroke-width:1.0;stroke-dasharray:2.0,2.0;" x1="48.5" x2="326" y1="422.9492" y2="422.9492"/><text fill="#000000" font-family="sans-serif" font-size="13" font-weight="bold" lengthAdjust="spacing" textLength="9" x="60.5" y="418.207">9</text><text fill="#000000" font-family="sans-serif" font-size="13" lengthAdjust="spacing" textLength="125" x="73.5" y="418.207">requests something</text><path d="M10,462.9492 L84,462.9492 L84,470.2598 L74,480.2598 L10,480.2598 L10,462.9492 " fill="#EEEEEE" style="stroke:#000000;stroke-width:1.5;"/><rect fill="none" height="276.75" style="stroke:#000000;stroke-width:1.5;" width="1018" x="10" y="462.9492"/><text fill="#000000" font-family="sans-serif" font-size="13" font-weight="bold" lengthAdjust="spacing" textLength="29" x="25" y="476.5176">loop</text><polygon fill="#181818" points="310,497.5703,320,501.5703,310,505.5703,314,501.5703" style="stroke:#181818;stroke-width:1.0;"/><line style="stroke:#181818;stroke-width:1.0;" x1="43.5" x2="316" y1="501.5703" y2="501.5703"/><text fill="#000000" font-family="sans-serif" font-size="13" font-weight="bold" lengthAdjust="spacing" textLength="18" x="50.5" y="496.8281">10</text><text fill="#000000" font-family="sans-serif" font-size="13" lengthAdjust="spacing" textLength="101" x="72.5" y="496.8281">does something</text><polygon fill="#181818" points="476.5,526.8809,486.5,530.8809,476.5,534.8809,480.5,530.8809" style="stroke:#181818;stroke-width:1.0;"/><line style="stroke:#181818;stroke-width:1.0;" x1="332" x2="482.5" y1="530.8809" y2="530.8809"/><text fill="#000000" font-family="sans-serif" font-size="13" font-weight="bold" lengthAdjust="spacing" textLength="18" x="339" y="526.1387">11</text><text fill="#000000" font-family="sans-serif" font-size="13" lengthAdjust="spacing" textLength="76" x="361" y="526.1387">methodX(...)</text><polygon fill="#181818" points="645,556.1914,655,560.1914,645,564.1914,649,560.1914" style="stroke:#181818;stroke-width:1.0;"/><line style="stroke:#181818;stroke-width:1.0;" x1="498.5" x2="651" y1="560.1914" y2="560.1914"/><text fill="#000000" font-family="sans-serif" font-size="13" font-weight="bold" lengthAdjust="spacing" textLength="18" x="505.5" y="555.4492">12</text><text fill="#000000" font-family="sans-serif" font-size="13" lengthAdjust="spacing" textLength="76" x="527.5" y="555.4492">methodY(...)</text><rect fill="none" height="53.5762" style="stroke:#000000;stroke-width:1.5;" width="434" x="587" y="568.1914"/><path d="M587,568.1914 L651,568.1914 L651,575.1914 L641,585.1914 L587,585.1914 L587,568.1914 " fill="#EEEEEE" style="stroke:#000000;stroke-width:2.0;"/><text fill="#000000" font-family="sans-serif" font-size="13" font-weight="bold" lengthAdjust="spacing" textLength="19" x="600" y="582.7598">ref</text><text fill="#000000" font-family="sans-serif" font-size="12" lengthAdjust="spacing" textLength="4" x="802" y="600.793">&#160;</text><text fill="#000000" font-family="sans-serif" font-size="12" lengthAdjust="spacing" textLength="4" x="802" y="614.9258">&#160;</text><polygon fill="#181818" points="509.5,644.0781,499.5,648.0781,509.5,652.0781,505.5,648.0781" style="stroke:#181818;stroke-width:1.0;"/><line style="stroke:#181818;stroke-width:1.0;stroke-dasharray:2.0,2.0;" x1="503.5" x2="661" y1="648.0781" y2="648.0781"/><text fill="#000000" font-family="sans-serif" font-size="13" font-weight="bold" lengthAdjust="spacing" textLength="18" x="515.5" y="643.3359">13</text><text fill="#000000" font-family="sans-serif" font-size="13" lengthAdjust="spacing" textLength="44" x="537.5" y="643.3359">answer</text><polygon fill="#181818" points="343,673.3887,333,677.3887,343,681.3887,339,677.3887" style="stroke:#181818;stroke-width:1.0;"/><line style="stroke:#181818;stroke-width:1.0;stroke-dasharray:2.0,2.0;" x1="337" x2="492.5" y1="677.3887" y2="677.3887"/><text fill="#000000" font-family="sans-serif" font-size="13" font-weight="bold" lengthAdjust="spacing" textLength="18" x="349" y="672.6465">14</text><text fill="#000000" font-family="sans-serif" font-size="13" lengthAdjust="spacing" textLength="44" x="371" y="672.6465">answer</text><polygon fill="#181818" points="54.5,702.6992,44.5,706.6992,54.5,710.6992,50.5,706.6992" style="stroke:#181818;stroke-width:1.0;"/><line style="stroke:#181818;stroke-width:1.0;stroke-dasharray:2.0,2.0;" x1="48.5" x2="326" y1="706.6992" y2="706.6992"/><text fill="#000000" font-family="sans-serif" font-size="13" font-weight="bold" lengthAdjust="spacing" textLength="18" x="60.5" y="701.957">15</text><text fill="#000000" font-family="sans-serif" font-size="13" lengthAdjust="spacing" textLength="201" x="82.5" y="701.957">answers/requests another thing</text><!--SRC=[bLNBRjim4BphAmXVwWQ9U_UXW27u8A1s0gi2Kg0NHbfBH2HI9QcaHTr_xvAs95AFEE751dTsk9oTfTGpupMLj2ALu28jfAY0QDb0eBf8JTDdcaEi_vH09AIQyhnq0QgWcNXbF2T7MYe80jfemPlg2MGGV2fO1kGeX7uIlmEQQY798b4W5uGgaiJRGu0icgMifboJnVhl3dZp-2-9B62ttIT3m9vMS7zCmXQJXFlDRfj4ixXGS2r5MLuE3RyVlldOJLsNBAMQ2Hw3KlXZWPk7XtWRnz7zFlJnjAulk9zyVJLvK5ZQI0bSzmH63JSpJ0wNpC08nbweXhDI0S5b_f6xhrOQiYOAIko98fGJKPiYBAZBimAIox8fTvZRIdPpWmof14HseFx8LjSkP8-_x5eU8-KKHmPli7GXsmYNssoOgpd28tSEcd65jajX-Td3Su4iakM5zhRDGZnAJYhGXSX6qMNCZ8dHfcXlhK5odnXuPiczpQvkrnT3PhVqLY6yG-yOugKuGhciLrI9pgg4dfC6sapmHczK6xdL-XQzNd0qrNZRtO7rUkVXAR9nQnuRPi1ddJnlHJiMI0g_6b0u3qgOtcERlPJJwNJTfAKGTOTgnyqfF1CmnJzzWt6ndSndSpukLwlLJEz64p8_9MUo7sEoTrlNB0b78bv0ki1Rfz6txkCqoM161racOtF3mTKhVYk6wFVCHg-7tw89obbhpbdfpA6-T9QY-2GKgCt7RTKAOvqLk0ZphFy7]--></g></svg>