<?xml version="1.0" encoding="us-ascii" standalone="no"?><svg xmlns="http://www.w3.org/2000/svg" xmlns:xlink="http://www.w3.org/1999/xlink" contentStyleType="text/css" height="528px" preserveAspectRatio="none" style="width:840px;height:528px;background:#FFFFFF;" version="1.1" viewBox="0 0 840 528" width="840px" zoomAndPan="magnify"><defs/><g><rect fill="#FFFFFF" height="403.416" style="stroke:#181818;stroke-width:1.0;" width="10" x="294" y="62.9766"/><rect fill="#FFFFFF" height="34.3105" style="stroke:#181818;stroke-width:1.0;" width="10" x="299" y="321.7715"/><rect fill="#FFFFFF" height="29.3105" style="stroke:#181818;stroke-width:1.0;" width="10" x="462.5" y="113.5977"/><rect fill="#FFFFFF" height="29.3105" style="stroke:#181818;stroke-width:1.0;" width="10" x="618.5" y="172.2188"/><rect fill="#FFFFFF" height="29.3105" style="stroke:#181818;stroke-width:1.0;" width="10" x="760.5" y="230.8398"/><rect fill="none" height="184.2422" style="stroke:#000000;stroke-width:1.5;" width="822.5" x="11" y="275.1504"/><line style="stroke:#181818;stroke-width:0.5;stroke-dasharray:5.0,5.0;" x1="298.5" x2="298.5" y1="52.9766" y2="476.3926"/><line style="stroke:#181818;stroke-width:0.5;stroke-dasharray:5.0,5.0;" x1="467.5" x2="467.5" y1="52.9766" y2="476.3926"/><line style="stroke:#181818;stroke-width:0.5;stroke-dasharray:5.0,5.0;" x1="623.5" x2="623.5" y1="52.9766" y2="476.3926"/><line style="stroke:#181818;stroke-width:0.5;stroke-dasharray:5.0,5.0;" x1="765.5" x2="765.5" y1="52.9766" y2="476.3926"/><rect fill="#E3E3E3" height="30.4883" rx="2.5" ry="2.5" style="stroke:#181818;stroke-width:0.5;" width="173" x="212.5" y="21.4883"/><text fill="#000000" font-family="sans-serif" font-size="14" lengthAdjust="spacing" textLength="159" x="219.5" y="42.0234">:{NameOfUC}Controller</text><rect fill="#E3E3E3" height="30.4883" rx="2.5" ry="2.5" style="stroke:#181818;stroke-width:0.5;" width="173" x="212.5" y="475.3926"/><text fill="#000000" font-family="sans-serif" font-size="14" lengthAdjust="spacing" textLength="159" x="219.5" y="495.9277">:{NameOfUC}Controller</text><rect fill="#E3E3E3" height="30.4883" rx="2.5" ry="2.5" style="stroke:#181818;stroke-width:0.5;" width="144" x="395.5" y="21.4883"/><text fill="#000000" font-family="sans-serif" font-size="14" lengthAdjust="spacing" textLength="130" x="402.5" y="42.0234">ApplicationSession</text><rect fill="#E3E3E3" height="30.4883" rx="2.5" ry="2.5" style="stroke:#181818;stroke-width:0.5;" width="144" x="395.5" y="475.3926"/><text fill="#000000" font-family="sans-serif" font-size="14" lengthAdjust="spacing" textLength="130" x="402.5" y="495.9277">ApplicationSession</text><rect fill="#E3E3E3" height="46.9766" rx="2.5" ry="2.5" style="stroke:#181818;stroke-width:0.5;" width="148" x="549.5" y="5"/><text fill="#000000" font-family="sans-serif" font-size="14" lengthAdjust="spacing" textLength="78" x="584.5" y="25.5352">appSession</text><text fill="#000000" font-family="sans-serif" font-size="14" lengthAdjust="spacing" textLength="134" x="556.5" y="42.0234">:ApplicationSession</text><rect fill="#E3E3E3" height="46.9766" rx="2.5" ry="2.5" style="stroke:#181818;stroke-width:0.5;" width="148" x="549.5" y="475.3926"/><text fill="#000000" font-family="sans-serif" font-size="14" lengthAdjust="spacing" textLength="78" x="584.5" y="495.9277">appSession</text><text fill="#000000" font-family="sans-serif" font-size="14" lengthAdjust="spacing" textLength="134" x="556.5" y="512.416">:ApplicationSession</text><rect fill="#E3E3E3" height="46.9766" rx="2.5" ry="2.5" style="stroke:#181818;stroke-width:0.5;" width="116" x="707.5" y="5"/><text fill="#000000" font-family="sans-serif" font-size="14" lengthAdjust="spacing" textLength="102" x="714.5" y="25.5352">currentSession</text><text fill="#000000" font-family="sans-serif" font-size="14" lengthAdjust="spacing" textLength="87" x="722" y="42.0234">:UserSession</text><rect fill="#E3E3E3" height="46.9766" rx="2.5" ry="2.5" style="stroke:#181818;stroke-width:0.5;" width="116" x="707.5" y="475.3926"/><text fill="#000000" font-family="sans-serif" font-size="14" lengthAdjust="spacing" textLength="102" x="714.5" y="495.9277">currentSession</text><text fill="#000000" font-family="sans-serif" font-size="14" lengthAdjust="spacing" textLength="87" x="722" y="512.416">:UserSession</text><rect fill="#FFFFFF" height="403.416" style="stroke:#181818;stroke-width:1.0;" width="10" x="294" y="62.9766"/><rect fill="#FFFFFF" height="34.3105" style="stroke:#181818;stroke-width:1.0;" width="10" x="299" y="321.7715"/><rect fill="#FFFFFF" height="29.3105" style="stroke:#181818;stroke-width:1.0;" width="10" x="462.5" y="113.5977"/><rect fill="#FFFFFF" height="29.3105" style="stroke:#181818;stroke-width:1.0;" width="10" x="618.5" y="172.2188"/><rect fill="#FFFFFF" height="29.3105" style="stroke:#181818;stroke-width:1.0;" width="10" x="760.5" y="230.8398"/><ellipse cx="7.5" cy="83.5371" fill="none" rx="4" ry="4" style="stroke:#181818;stroke-width:1.5;"/><polygon fill="#181818" points="282,80.2871,292,84.2871,282,88.2871,286,84.2871" style="stroke:#181818;stroke-width:1.0;"/><line style="stroke:#181818;stroke-width:1.0;" x1="12" x2="288" y1="84.2871" y2="84.2871"/><text fill="#000000" font-family="sans-serif" font-size="13" font-weight="bold" lengthAdjust="spacing" textLength="9" x="15" y="79.5449">1</text><text fill="#000000" font-family="sans-serif" font-size="13" lengthAdjust="spacing" textLength="46" x="28" y="79.5449">create()</text><polygon fill="#181818" points="450.5,109.5977,460.5,113.5977,450.5,117.5977,454.5,113.5977" style="stroke:#181818;stroke-width:1.0;"/><line style="stroke:#181818;stroke-width:1.0;" x1="304" x2="456.5" y1="113.5977" y2="113.5977"/><text fill="#000000" font-family="sans-serif" font-size="13" font-weight="bold" lengthAdjust="spacing" textLength="9" x="311" y="108.8555">2</text><text fill="#000000" font-family="sans-serif" font-size="13" lengthAdjust="spacing" textLength="81" x="324" y="108.8555">getinstance()</text><polygon fill="#181818" points="315,138.9082,305,142.9082,315,146.9082,311,142.9082" style="stroke:#181818;stroke-width:1.0;"/><line style="stroke:#181818;stroke-width:1.0;stroke-dasharray:2.0,2.0;" x1="309" x2="466.5" y1="142.9082" y2="142.9082"/><text fill="#000000" font-family="sans-serif" font-size="13" font-weight="bold" lengthAdjust="spacing" textLength="9" x="321" y="138.166">3</text><text fill="#000000" font-family="sans-serif" font-size="13" lengthAdjust="spacing" textLength="71" x="334" y="138.166">appSession</text><polygon fill="#181818" points="606.5,168.2188,616.5,172.2188,606.5,176.2188,610.5,172.2188" style="stroke:#181818;stroke-width:1.0;"/><line style="stroke:#181818;stroke-width:1.0;" x1="304" x2="612.5" y1="172.2188" y2="172.2188"/><text fill="#000000" font-family="sans-serif" font-size="13" font-weight="bold" lengthAdjust="spacing" textLength="9" x="311" y="167.4766">4</text><text fill="#000000" font-family="sans-serif" font-size="13" lengthAdjust="spacing" textLength="123" x="324" y="167.4766">getCurrentSession()</text><polygon fill="#181818" points="315,197.5293,305,201.5293,315,205.5293,311,201.5293" style="stroke:#181818;stroke-width:1.0;"/><line style="stroke:#181818;stroke-width:1.0;stroke-dasharray:2.0,2.0;" x1="309" x2="622.5" y1="201.5293" y2="201.5293"/><text fill="#000000" font-family="sans-serif" font-size="13" font-weight="bold" lengthAdjust="spacing" textLength="9" x="321" y="196.7871">5</text><text fill="#000000" font-family="sans-serif" font-size="13" lengthAdjust="spacing" textLength="93" x="334" y="196.7871">currentSession</text><polygon fill="#181818" points="748.5,226.8398,758.5,230.8398,748.5,234.8398,752.5,230.8398" style="stroke:#181818;stroke-width:1.0;"/><line style="stroke:#181818;stroke-width:1.0;" x1="304" x2="754.5" y1="230.8398" y2="230.8398"/><text fill="#000000" font-family="sans-serif" font-size="13" font-weight="bold" lengthAdjust="spacing" textLength="9" x="311" y="226.0977">6</text><text fill="#000000" font-family="sans-serif" font-size="13" lengthAdjust="spacing" textLength="202" x="324" y="226.0977">isLoggedInWithRole(USER_ROLE)</text><polygon fill="#181818" points="315,256.1504,305,260.1504,315,264.1504,311,260.1504" style="stroke:#181818;stroke-width:1.0;"/><line style="stroke:#181818;stroke-width:1.0;stroke-dasharray:2.0,2.0;" x1="309" x2="764.5" y1="260.1504" y2="260.1504"/><text fill="#000000" font-family="sans-serif" font-size="13" font-weight="bold" lengthAdjust="spacing" textLength="9" x="321" y="255.4082">7</text><text fill="#000000" font-family="sans-serif" font-size="13" lengthAdjust="spacing" textLength="44" x="334" y="255.4082">answer</text><path d="M11,275.1504 L73,275.1504 L73,282.4609 L63,292.4609 L11,292.4609 L11,275.1504 " fill="#EEEEEE" style="stroke:#000000;stroke-width:1.5;"/><rect fill="none" height="184.2422" style="stroke:#000000;stroke-width:1.5;" width="822.5" x="11" y="275.1504"/><text fill="#000000" font-family="sans-serif" font-size="13" font-weight="bold" lengthAdjust="spacing" textLength="17" x="26" y="288.7188">alt</text><text fill="#000000" font-family="sans-serif" font-size="11" font-weight="bold" lengthAdjust="spacing" textLength="86" x="88" y="287.7852">[answer = true]</text><line style="stroke:#181818;stroke-width:1.0;" x1="304" x2="351" y1="308.7715" y2="308.7715"/><line style="stroke:#181818;stroke-width:1.0;" x1="351" x2="351" y1="308.7715" y2="321.7715"/><line style="stroke:#181818;stroke-width:1.0;" x1="310" x2="351" y1="321.7715" y2="321.7715"/><polygon fill="#181818" points="320,317.7715,310,321.7715,320,325.7715,316,321.7715" style="stroke:#181818;stroke-width:1.0;"/><text fill="#000000" font-family="sans-serif" font-size="13" font-weight="bold" lengthAdjust="spacing" textLength="9" x="316" y="304.0293">8</text><text fill="#000000" font-family="sans-serif" font-size="13" lengthAdjust="spacing" textLength="109" x="329" y="304.0293">doesOtherThing()</text><ellipse cx="7.5" cy="355.332" fill="none" rx="4" ry="4" style="stroke:#181818;stroke-width:1.5;"/><polygon fill="#181818" points="24.5,352.082,14.5,356.082,24.5,360.082,20.5,356.082" style="stroke:#181818;stroke-width:1.0;"/><line style="stroke:#181818;stroke-width:1.0;stroke-dasharray:2.0,2.0;" x1="22.5" x2="293" y1="356.082" y2="356.082"/><text fill="#000000" font-family="sans-serif" font-size="13" font-weight="bold" lengthAdjust="spacing" textLength="9" x="25" y="351.3398">9</text><text fill="#000000" font-family="sans-serif" font-size="13" lengthAdjust="spacing" textLength="16" x="38" y="351.3398">ok</text><polygon fill="#FFFFFF" points="753.5,366.082,763.5,370.082,753.5,374.082,757.5,370.082" style="stroke:#FFFFFF;stroke-width:1.0;"/><line style="stroke:#FFFFFF;stroke-width:1.0;" x1="304" x2="759.5" y1="370.082" y2="370.082"/><line style="stroke:#000000;stroke-width:1.0;stroke-dasharray:2.0,2.0;" x1="11" x2="833.5" y1="379.082" y2="379.082"/><ellipse cx="7.5" cy="425.6426" fill="none" rx="4" ry="4" style="stroke:#181818;stroke-width:1.5;"/><polygon fill="#181818" points="24.5,422.3926,14.5,426.3926,24.5,430.3926,20.5,426.3926" style="stroke:#181818;stroke-width:1.0;"/><line style="stroke:#181818;stroke-width:1.0;stroke-dasharray:2.0,2.0;" x1="22.5" x2="293" y1="426.3926" y2="426.3926"/><text fill="#000000" font-family="sans-serif" font-size="13" font-weight="bold" lengthAdjust="spacing" textLength="18" x="25" y="421.6504">10</text><text fill="#000000" font-family="sans-serif" font-size="13" lengthAdjust="spacing" textLength="245" x="47" y="421.6504">illegalStateException("Not Authorized")</text><!--SRC=[XPFFZjem4CRlVWgBFPGzy09eknAAE4H2i4eMzK2hokiCYONZYUn9sRRqtUlyWJWqg_gIoFw-Bx-PUDn9cKfOKV8I3Sh2OWcSR0tCtKug8KyYXvH-Qk0M90cJwr3W2f7XMPcS7uLsm9Ye2KrTle5bx5EXCk17H7h3T-ODfAIgX24-M_xUYX9snttq9q935hK6E-F2yUWrsOorgwhIIWfIQ59mpZzQuUhb9LsdQRpRHcEzgAfUzzKi_skEnsPPMmk6Xe2z0niwettIEtsnajGFGT117t3ntBxn9PSM_FxyaN6_sZr_5X1xIGwaZFCTbOsk5TxomjfulqBtOlZIK6shp60ov0EEkEE8HaNtr1CvyGHC7CACk_SnK3m66dhgCvJRO9v35filYee4DSptwJhvdkmswpkou5zSmOAei4d6dVsDlEC9VsMRgwbNyi_T9DnIhw1TN8RWTbI0VItyrU_xDIPhBWGFrW6V5ekh7q-tin0dz0npn1rXTKToU3WNYk3RyrGB0gi5LvTT6T2CvrLokLpO99doSvWBdP87MhzBg9h1cS-sI7nLKu5M_O9izlXF49YiQHzZz_Ny1G00]--></g></svg>