<?xml version="1.0" encoding="us-ascii" standalone="no"?><svg xmlns="http://www.w3.org/2000/svg" xmlns:xlink="http://www.w3.org/1999/xlink" contentStyleType="text/css" height="851px" preserveAspectRatio="none" style="width:1591px;height:851px;background:#FFFFFF;" version="1.1" viewBox="0 0 1591 851" width="1591px" zoomAndPan="magnify"><defs/><g><text fill="#000000" font-family="sans-serif" font-size="14" font-weight="bold" lengthAdjust="spacing" textLength="212" x="688.75" y="30.1074">Sequence Diagram (SD) US027</text><rect fill="#FFFFFF" height="670.4512" style="stroke:#181818;stroke-width:1.0;" width="10" x="22.5" y="106.8633"/><rect fill="#FFFFFF" height="582.9473" style="stroke:#181818;stroke-width:1.0;" width="10" x="325.5" y="194.3672"/><rect fill="#FFFFFF" height="520.3652" style="stroke:#181818;stroke-width:1.0;" width="10" x="556.5" y="225.6582"/><rect fill="#FFFFFF" height="230.0371" style="stroke:#181818;stroke-width:1.0;" width="10" x="561.5" y="264.9492"/><rect fill="#FFFFFF" height="31.291" style="stroke:#181818;stroke-width:1.0;" width="10" x="767.5" y="301.2402"/><rect fill="#FFFFFF" height="31.291" style="stroke:#181818;stroke-width:1.0;" width="10" x="874.5" y="363.8223"/><rect fill="#FFFFFF" height="31.291" style="stroke:#181818;stroke-width:1.0;" width="10" x="1006.5" y="426.4043"/><rect fill="#FFFFFF" height="156.4551" style="stroke:#181818;stroke-width:1.0;" width="10" x="1127.5" y="558.2773"/><rect fill="#FFFFFF" height="93.873" style="stroke:#181818;stroke-width:1.0;" width="10" x="1388.5" y="589.5684"/><rect fill="#FFFFFF" height="31.291" style="stroke:#181818;stroke-width:1.0;" width="10" x="1533.5" y="620.8594"/><line style="stroke:#181818;stroke-width:0.5;stroke-dasharray:5.0,5.0;" x1="27" x2="27" y1="96.8633" y2="795.3145"/><line style="stroke:#181818;stroke-width:0.5;stroke-dasharray:5.0,5.0;" x1="330.5" x2="330.5" y1="96.8633" y2="795.3145"/><line style="stroke:#181818;stroke-width:0.5;stroke-dasharray:5.0,5.0;" x1="561.5" x2="561.5" y1="96.8633" y2="795.3145"/><line style="stroke:#181818;stroke-width:0.5;stroke-dasharray:5.0,5.0;" x1="772" x2="772" y1="96.8633" y2="795.3145"/><line style="stroke:#181818;stroke-width:0.5;stroke-dasharray:5.0,5.0;" x1="879" x2="879" y1="96.8633" y2="795.3145"/><line style="stroke:#181818;stroke-width:0.5;stroke-dasharray:5.0,5.0;" x1="1011" x2="1011" y1="96.8633" y2="795.3145"/><line style="stroke:#181818;stroke-width:0.5;stroke-dasharray:5.0,5.0;" x1="1132" x2="1132" y1="96.8633" y2="795.3145"/><line style="stroke:#181818;stroke-width:0.5;stroke-dasharray:5.0,5.0;" x1="1393" x2="1393" y1="96.8633" y2="795.3145"/><line style="stroke:#181818;stroke-width:0.5;stroke-dasharray:5.0,5.0;" x1="1538.5" x2="1538.5" y1="96.8633" y2="795.3145"/><rect fill="#E3E3E3" height="32.6211" rx="2.5" ry="2.5" style="stroke:#181818;stroke-width:0.5;" width="45" x="5" y="63.2422"/><text fill="#000000" font-family="sans-serif" font-size="14" lengthAdjust="spacing" textLength="31" x="12" y="85.3496">GSM</text><rect fill="#E3E3E3" height="32.6211" rx="2.5" ry="2.5" style="stroke:#181818;stroke-width:0.5;" width="45" x="5" y="794.3145"/><text fill="#000000" font-family="sans-serif" font-size="14" lengthAdjust="spacing" textLength="31" x="12" y="816.4219">GSM</text><rect fill="#E3E3E3" height="32.6211" rx="2.5" ry="2.5" style="stroke:#181818;stroke-width:0.5;" width="26" x="317.5" y="63.2422"/><text fill="#000000" font-family="sans-serif" font-size="14" lengthAdjust="spacing" textLength="12" x="324.5" y="85.3496">UI</text><rect fill="#E3E3E3" height="32.6211" rx="2.5" ry="2.5" style="stroke:#181818;stroke-width:0.5;" width="26" x="317.5" y="794.3145"/><text fill="#000000" font-family="sans-serif" font-size="14" lengthAdjust="spacing" textLength="12" x="324.5" y="816.4219">UI</text><rect fill="#E3E3E3" height="32.6211" rx="2.5" ry="2.5" style="stroke:#181818;stroke-width:0.5;" width="248" x="437.5" y="63.2422"/><text fill="#000000" font-family="sans-serif" font-size="14" lengthAdjust="spacing" textLength="234" x="444.5" y="85.3496">:ListGreenSpacesManagedController</text><rect fill="#E3E3E3" height="32.6211" rx="2.5" ry="2.5" style="stroke:#181818;stroke-width:0.5;" width="248" x="437.5" y="794.3145"/><text fill="#000000" font-family="sans-serif" font-size="14" lengthAdjust="spacing" textLength="234" x="444.5" y="816.4219">:ListGreenSpacesManagedController</text><rect fill="#E3E3E3" height="32.6211" rx="2.5" ry="2.5" style="stroke:#181818;stroke-width:0.5;" width="97" x="724" y="63.2422"/><text fill="#000000" font-family="sans-serif" font-size="14" lengthAdjust="spacing" textLength="83" x="731" y="85.3496">:Repositories</text><rect fill="#E3E3E3" height="32.6211" rx="2.5" ry="2.5" style="stroke:#181818;stroke-width:0.5;" width="97" x="724" y="794.3145"/><text fill="#000000" font-family="sans-serif" font-size="14" lengthAdjust="spacing" textLength="83" x="731" y="816.4219">:Repositories</text><rect fill="#E3E3E3" height="51.2422" rx="2.5" ry="2.5" style="stroke:#181818;stroke-width:0.5;" width="97" x="831" y="44.6211"/><text fill="#000000" font-family="sans-serif" font-size="14" lengthAdjust="spacing" textLength="74" x="842.5" y="66.7285">repositories</text><text fill="#000000" font-family="sans-serif" font-size="14" lengthAdjust="spacing" textLength="83" x="838" y="85.3496">:Repositories</text><rect fill="#E3E3E3" height="51.2422" rx="2.5" ry="2.5" style="stroke:#181818;stroke-width:0.5;" width="97" x="831" y="794.3145"/><text fill="#000000" font-family="sans-serif" font-size="14" lengthAdjust="spacing" textLength="74" x="842.5" y="816.4219">repositories</text><text fill="#000000" font-family="sans-serif" font-size="14" lengthAdjust="spacing" textLength="83" x="838" y="835.043">:Repositories</text><rect fill="#E3E3E3" height="51.2422" rx="2.5" ry="2.5" style="stroke:#181818;stroke-width:0.5;" width="147" x="938" y="44.6211"/><text fill="#000000" font-family="sans-serif" font-size="14" lengthAdjust="spacing" textLength="133" x="945" y="66.7285">employeeRepository:</text><text fill="#000000" font-family="sans-serif" font-size="14" lengthAdjust="spacing" textLength="130" x="946.5" y="85.3496">EmployeeRepository</text><rect fill="#E3E3E3" height="51.2422" rx="2.5" ry="2.5" style="stroke:#181818;stroke-width:0.5;" width="147" x="938" y="794.3145"/><text fill="#000000" font-family="sans-serif" font-size="14" lengthAdjust="spacing" textLength="133" x="945" y="816.4219">employeeRepository:</text><text fill="#000000" font-family="sans-serif" font-size="14" lengthAdjust="spacing" textLength="130" x="946.5" y="835.043">EmployeeRepository</text><rect fill="#E3E3E3" height="32.6211" rx="2.5" ry="2.5" style="stroke:#181818;stroke-width:0.5;" width="75" x="1095" y="63.2422"/><text fill="#000000" font-family="sans-serif" font-size="14" lengthAdjust="spacing" textLength="61" x="1102" y="85.3496">employee</text><rect fill="#E3E3E3" height="32.6211" rx="2.5" ry="2.5" style="stroke:#181818;stroke-width:0.5;" width="75" x="1095" y="794.3145"/><text fill="#000000" font-family="sans-serif" font-size="14" lengthAdjust="spacing" textLength="61" x="1102" y="816.4219">employee</text><rect fill="#E3E3E3" height="32.6211" rx="2.5" ry="2.5" style="stroke:#181818;stroke-width:0.5;" width="101" x="1343" y="63.2422"/><text fill="#000000" font-family="sans-serif" font-size="14" lengthAdjust="spacing" textLength="87" x="1350" y="85.3496">GreenSpaces</text><rect fill="#E3E3E3" height="32.6211" rx="2.5" ry="2.5" style="stroke:#181818;stroke-width:0.5;" width="101" x="1343" y="794.3145"/><text fill="#000000" font-family="sans-serif" font-size="14" lengthAdjust="spacing" textLength="87" x="1350" y="816.4219">GreenSpaces</text><rect fill="#E3E3E3" height="32.6211" rx="2.5" ry="2.5" style="stroke:#181818;stroke-width:0.5;" width="94" x="1491.5" y="63.2422"/><text fill="#000000" font-family="sans-serif" font-size="14" lengthAdjust="spacing" textLength="80" x="1498.5" y="85.3496">GreenSpace</text><rect fill="#E3E3E3" height="32.6211" rx="2.5" ry="2.5" style="stroke:#181818;stroke-width:0.5;" width="94" x="1491.5" y="794.3145"/><text fill="#000000" font-family="sans-serif" font-size="14" lengthAdjust="spacing" textLength="80" x="1498.5" y="816.4219">GreenSpace</text><rect fill="#FFFFFF" height="670.4512" style="stroke:#181818;stroke-width:1.0;" width="10" x="22.5" y="106.8633"/><rect fill="#FFFFFF" height="582.9473" style="stroke:#181818;stroke-width:1.0;" width="10" x="325.5" y="194.3672"/><rect fill="#FFFFFF" height="520.3652" style="stroke:#181818;stroke-width:1.0;" width="10" x="556.5" y="225.6582"/><rect fill="#FFFFFF" height="230.0371" style="stroke:#181818;stroke-width:1.0;" width="10" x="561.5" y="264.9492"/><rect fill="#FFFFFF" height="31.291" style="stroke:#181818;stroke-width:1.0;" width="10" x="767.5" y="301.2402"/><rect fill="#FFFFFF" height="31.291" style="stroke:#181818;stroke-width:1.0;" width="10" x="874.5" y="363.8223"/><rect fill="#FFFFFF" height="31.291" style="stroke:#181818;stroke-width:1.0;" width="10" x="1006.5" y="426.4043"/><rect fill="#FFFFFF" height="156.4551" style="stroke:#181818;stroke-width:1.0;" width="10" x="1127.5" y="558.2773"/><rect fill="#FFFFFF" height="93.873" style="stroke:#181818;stroke-width:1.0;" width="10" x="1388.5" y="589.5684"/><rect fill="#FFFFFF" height="31.291" style="stroke:#181818;stroke-width:1.0;" width="10" x="1533.5" y="620.8594"/><rect fill="none" height="59.2129" style="stroke:#000000;stroke-width:1.5;" width="344.5" x="2" y="106.8633"/><path d="M2,106.8633 L64,106.8633 L64,115.8633 L54,125.8633 L2,125.8633 L2,106.8633 " fill="#EEEEEE" style="stroke:#000000;stroke-width:2.0;"/><text fill="#000000" font-family="sans-serif" font-size="13" font-weight="bold" lengthAdjust="spacing" textLength="17" x="15" y="122.8916">ref</text><text fill="#000000" font-family="sans-serif" font-size="12" lengthAdjust="spacing" textLength="139" x="103.25" y="142.8125">This action assumes that</text><text fill="#000000" font-family="sans-serif" font-size="12" lengthAdjust="spacing" textLength="166" x="91.25" y="158.7734">the user has already logged in</text><polygon fill="#181818" points="313.5,190.3672,323.5,194.3672,313.5,198.3672,317.5,194.3672" style="stroke:#181818;stroke-width:1.0;"/><line style="stroke:#181818;stroke-width:1.0;" x1="32.5" x2="319.5" y1="194.3672" y2="194.3672"/><text fill="#000000" font-family="sans-serif" font-size="13" font-weight="bold" lengthAdjust="spacing" textLength="7" x="39.5" y="189.1045">1</text><text fill="#000000" font-family="sans-serif" font-size="13" lengthAdjust="spacing" textLength="263" x="50.5" y="189.1045">asks to list all green spaces managed by him</text><polygon fill="#181818" points="544.5,221.6582,554.5,225.6582,544.5,229.6582,548.5,225.6582" style="stroke:#181818;stroke-width:1.0;"/><line style="stroke:#181818;stroke-width:1.0;" x1="335.5" x2="550.5" y1="225.6582" y2="225.6582"/><text fill="#000000" font-family="sans-serif" font-size="13" font-weight="bold" lengthAdjust="spacing" textLength="7" x="342.5" y="220.3955">2</text><text fill="#000000" font-family="sans-serif" font-size="13" lengthAdjust="spacing" textLength="191" x="353.5" y="220.3955">listGreenSpacesManagedByMe()</text><line style="stroke:#181818;stroke-width:1.0;" x1="566.5" x2="613.5" y1="251.9492" y2="251.9492"/><line style="stroke:#181818;stroke-width:1.0;" x1="613.5" x2="613.5" y1="251.9492" y2="264.9492"/><line style="stroke:#181818;stroke-width:1.0;" x1="572.5" x2="613.5" y1="264.9492" y2="264.9492"/><polygon fill="#181818" points="582.5,260.9492,572.5,264.9492,582.5,268.9492,578.5,264.9492" style="stroke:#181818;stroke-width:1.0;"/><text fill="#000000" font-family="sans-serif" font-size="13" font-weight="bold" lengthAdjust="spacing" textLength="7" x="578.5" y="246.6865">3</text><text fill="#000000" font-family="sans-serif" font-size="13" lengthAdjust="spacing" textLength="176" x="589.5" y="246.6865">getEmployeeFromRepository()</text><polygon fill="#181818" points="755.5,297.2402,765.5,301.2402,755.5,305.2402,759.5,301.2402" style="stroke:#181818;stroke-width:1.0;"/><line style="stroke:#181818;stroke-width:1.0;" x1="571.5" x2="761.5" y1="301.2402" y2="301.2402"/><text fill="#000000" font-family="sans-serif" font-size="13" font-weight="bold" lengthAdjust="spacing" textLength="7" x="578.5" y="295.9775">4</text><text fill="#000000" font-family="sans-serif" font-size="13" lengthAdjust="spacing" textLength="75" x="589.5" y="295.9775">getInstance()</text><polygon fill="#181818" points="582.5,328.5313,572.5,332.5313,582.5,336.5313,578.5,332.5313" style="stroke:#181818;stroke-width:1.0;"/><line style="stroke:#181818;stroke-width:1.0;stroke-dasharray:2.0,2.0;" x1="576.5" x2="771.5" y1="332.5313" y2="332.5313"/><text fill="#000000" font-family="sans-serif" font-size="13" font-weight="bold" lengthAdjust="spacing" textLength="7" x="588.5" y="327.2686">5</text><text fill="#000000" font-family="sans-serif" font-size="13" lengthAdjust="spacing" textLength="67" x="599.5" y="327.2686">repositories</text><polygon fill="#181818" points="862.5,359.8223,872.5,363.8223,862.5,367.8223,866.5,363.8223" style="stroke:#181818;stroke-width:1.0;"/><line style="stroke:#181818;stroke-width:1.0;" x1="571.5" x2="868.5" y1="363.8223" y2="363.8223"/><text fill="#000000" font-family="sans-serif" font-size="13" font-weight="bold" lengthAdjust="spacing" textLength="7" x="578.5" y="358.5596">6</text><text fill="#000000" font-family="sans-serif" font-size="13" lengthAdjust="spacing" textLength="156" x="589.5" y="358.5596">getEmployeeRepositories()</text><polygon fill="#181818" points="582.5,391.1133,572.5,395.1133,582.5,399.1133,578.5,395.1133" style="stroke:#181818;stroke-width:1.0;"/><line style="stroke:#181818;stroke-width:1.0;stroke-dasharray:2.0,2.0;" x1="576.5" x2="878.5" y1="395.1133" y2="395.1133"/><text fill="#000000" font-family="sans-serif" font-size="13" font-weight="bold" lengthAdjust="spacing" textLength="7" x="588.5" y="389.8506">7</text><text fill="#000000" font-family="sans-serif" font-size="13" lengthAdjust="spacing" textLength="130" x="599.5" y="389.8506">EmployeeRepositories</text><polygon fill="#181818" points="994.5,422.4043,1004.5,426.4043,994.5,430.4043,998.5,426.4043" style="stroke:#181818;stroke-width:1.0;"/><line style="stroke:#181818;stroke-width:1.0;" x1="571.5" x2="1000.5" y1="426.4043" y2="426.4043"/><text fill="#000000" font-family="sans-serif" font-size="13" font-weight="bold" lengthAdjust="spacing" textLength="7" x="578.5" y="421.1416">8</text><text fill="#000000" font-family="sans-serif" font-size="13" lengthAdjust="spacing" textLength="84" x="589.5" y="421.1416">getEmployee()</text><polygon fill="#181818" points="582.5,453.6953,572.5,457.6953,582.5,461.6953,578.5,457.6953" style="stroke:#181818;stroke-width:1.0;"/><line style="stroke:#181818;stroke-width:1.0;stroke-dasharray:2.0,2.0;" x1="576.5" x2="1010.5" y1="457.6953" y2="457.6953"/><text fill="#000000" font-family="sans-serif" font-size="13" font-weight="bold" lengthAdjust="spacing" textLength="7" x="588.5" y="452.4326">9</text><text fill="#000000" font-family="sans-serif" font-size="13" lengthAdjust="spacing" textLength="56" x="599.5" y="452.4326">employee</text><line style="stroke:#181818;stroke-width:1.0;stroke-dasharray:2.0,2.0;" x1="571.5" x2="613.5" y1="493.9863" y2="493.9863"/><line style="stroke:#181818;stroke-width:1.0;stroke-dasharray:2.0,2.0;" x1="613.5" x2="613.5" y1="493.9863" y2="506.9863"/><line style="stroke:#181818;stroke-width:1.0;stroke-dasharray:2.0,2.0;" x1="566.5" x2="613.5" y1="506.9863" y2="506.9863"/><polygon fill="#181818" points="576.5,502.9863,566.5,506.9863,576.5,510.9863,572.5,506.9863" style="stroke:#181818;stroke-width:1.0;"/><text fill="#000000" font-family="sans-serif" font-size="13" font-weight="bold" lengthAdjust="spacing" textLength="14" x="578.5" y="488.7236">10</text><text fill="#000000" font-family="sans-serif" font-size="13" lengthAdjust="spacing" textLength="56" x="596.5" y="488.7236">employee</text><polygon fill="#181818" points="1115.5,554.2773,1125.5,558.2773,1115.5,562.2773,1119.5,558.2773" style="stroke:#181818;stroke-width:1.0;"/><line style="stroke:#181818;stroke-width:1.0;" x1="566.5" x2="1121.5" y1="558.2773" y2="558.2773"/><text fill="#000000" font-family="sans-serif" font-size="13" font-weight="bold" lengthAdjust="spacing" textLength="14" x="573.5" y="553.0146">11</text><text fill="#000000" font-family="sans-serif" font-size="13" lengthAdjust="spacing" textLength="247" x="591.5" y="553.0146">listGreenSpacesManagedByMe(employee)</text><polygon fill="#181818" points="1376.5,585.5684,1386.5,589.5684,1376.5,593.5684,1380.5,589.5684" style="stroke:#181818;stroke-width:1.0;"/><line style="stroke:#181818;stroke-width:1.0;" x1="1137.5" x2="1382.5" y1="589.5684" y2="589.5684"/><text fill="#000000" font-family="sans-serif" font-size="13" font-weight="bold" lengthAdjust="spacing" textLength="14" x="1144.5" y="584.3057">12</text><text fill="#000000" font-family="sans-serif" font-size="13" lengthAdjust="spacing" textLength="214" x="1162.5" y="584.3057">getGreenSpacesManaged(employee)</text><polygon fill="#181818" points="1521.5,616.8594,1531.5,620.8594,1521.5,624.8594,1525.5,620.8594" style="stroke:#181818;stroke-width:1.0;"/><line style="stroke:#181818;stroke-width:1.0;" x1="1398.5" x2="1527.5" y1="620.8594" y2="620.8594"/><text fill="#000000" font-family="sans-serif" font-size="13" font-weight="bold" lengthAdjust="spacing" textLength="14" x="1405.5" y="615.5967">13</text><text fill="#000000" font-family="sans-serif" font-size="13" lengthAdjust="spacing" textLength="98" x="1423.5" y="615.5967">getGreenSpace()</text><polygon fill="#181818" points="1409.5,648.1504,1399.5,652.1504,1409.5,656.1504,1405.5,652.1504" style="stroke:#181818;stroke-width:1.0;"/><line style="stroke:#181818;stroke-width:1.0;stroke-dasharray:2.0,2.0;" x1="1403.5" x2="1537.5" y1="652.1504" y2="652.1504"/><text fill="#000000" font-family="sans-serif" font-size="13" font-weight="bold" lengthAdjust="spacing" textLength="14" x="1415.5" y="646.8877">14</text><text fill="#000000" font-family="sans-serif" font-size="13" lengthAdjust="spacing" textLength="69" x="1433.5" y="646.8877">greenSpace</text><polygon fill="#181818" points="1148.5,679.4414,1138.5,683.4414,1148.5,687.4414,1144.5,683.4414" style="stroke:#181818;stroke-width:1.0;"/><line style="stroke:#181818;stroke-width:1.0;stroke-dasharray:2.0,2.0;" x1="1142.5" x2="1392.5" y1="683.4414" y2="683.4414"/><text fill="#000000" font-family="sans-serif" font-size="13" font-weight="bold" lengthAdjust="spacing" textLength="14" x="1154.5" y="678.1787">15</text><text fill="#000000" font-family="sans-serif" font-size="13" lengthAdjust="spacing" textLength="76" x="1172.5" y="678.1787">greenSpaces</text><polygon fill="#181818" points="577.5,710.7324,567.5,714.7324,577.5,718.7324,573.5,714.7324" style="stroke:#181818;stroke-width:1.0;"/><line style="stroke:#181818;stroke-width:1.0;stroke-dasharray:2.0,2.0;" x1="571.5" x2="1131.5" y1="714.7324" y2="714.7324"/><text fill="#000000" font-family="sans-serif" font-size="13" font-weight="bold" lengthAdjust="spacing" textLength="14" x="583.5" y="709.4697">16</text><text fill="#000000" font-family="sans-serif" font-size="13" lengthAdjust="spacing" textLength="76" x="601.5" y="709.4697">greenSpaces</text><polygon fill="#181818" points="346.5,742.0234,336.5,746.0234,346.5,750.0234,342.5,746.0234" style="stroke:#181818;stroke-width:1.0;"/><line style="stroke:#181818;stroke-width:1.0;stroke-dasharray:2.0,2.0;" x1="340.5" x2="560.5" y1="746.0234" y2="746.0234"/><text fill="#000000" font-family="sans-serif" font-size="13" font-weight="bold" lengthAdjust="spacing" textLength="14" x="352.5" y="740.7607">17</text><text fill="#000000" font-family="sans-serif" font-size="13" lengthAdjust="spacing" textLength="76" x="370.5" y="740.7607">greenSpaces</text><polygon fill="#181818" points="38.5,773.3145,28.5,777.3145,38.5,781.3145,34.5,777.3145" style="stroke:#181818;stroke-width:1.0;"/><line style="stroke:#181818;stroke-width:1.0;stroke-dasharray:2.0,2.0;" x1="32.5" x2="329.5" y1="777.3145" y2="777.3145"/><text fill="#000000" font-family="sans-serif" font-size="13" font-weight="bold" lengthAdjust="spacing" textLength="14" x="44.5" y="772.0518">18</text><text fill="#000000" font-family="sans-serif" font-size="13" lengthAdjust="spacing" textLength="128" x="62.5" y="772.0518">displays greenSpaces</text><!--SRC=[bLLDJ-Cm4BtxLuou01ALLdjPgOTABB2e4fLMXDwuc6IQM2HsrdROZSIFtx5B6oTn6l2XgfsPz-RZZMrUXQovvXLKIggqqAf2iBf1PevVQfw-yXmJsvO86bFBPLw61gRWcVehP0uxNXfaZ3TMoQPwGSsO5PRS4lpJe4mHRWNFdSz5Sdi9s-JRznzCumxK6sguJpPNi5t34fuAOO2dLYW9t9YcGWEsu1QUfIqG6aFM1IUJKYFFMYXLdcC6GZB6pWkH8UoKiY_g7oCGfU6CeCy8oL4m2jgALDHSMZXRFWXZxpMYJ2XFD1ikATTik_Rcs_Mdh6-Kj5gL9MhlTVFq-33mUyHQ6K6X23JUvdZG9iALamhMTz61nxCS0_n-k7xgUs1Lbwf5xA2Np_9kTEYznyTnB6zysFHDWZBiIzljfmm7TinrHxnnYxul33uMRM2nsYk1crTglOAI2a_jBY5txc0y3rJx-iDB2uMeEeGZBZMGdKEm27H1sDUt6mBNJfN66iYuvN11GaJjL7e56PfKYze9y0f8LpkbArwI_FfVBAQ552bzwHrdZURxVwaozfA50Pod95cAp8k4iM5iA_-1OYkZIllPRl2Y3tZCTOy8W-LE5oltkuGSxQ7nlsZIk-OJvCXnZ1spyD5Ir14zWoTSIqCNHZgCUiGG6uYeHunfqTKjd9keVuPVvpnawOOEUdKCvt8kHJ-oSG8F76GHWv_BvWJy8VxnsFUIcKiWScl4xCTcBhMz18ztoKmo4Qguj6U10z3uXBo_lxDWJTKkk1DFJkV1RAQM7LoyPG7TOjM_R7tFnkm1ysdgyAQ6gHKOkUoxxO1zGZDJZ9yXz8CGy2_tb_wCVz3dhz4PntUeNSXb9gOfocJcs_WntWEA6OPG9nCAxLJgNyq-_gbHY3oCzFOk8HEcBdbhHa01W7jPmqBG0_uV]--></g></svg>