<?xml version="1.0" encoding="us-ascii" standalone="no"?><svg xmlns="http://www.w3.org/2000/svg" xmlns:xlink="http://www.w3.org/1999/xlink" contentStyleType="text/css" height="846px" preserveAspectRatio="none" style="width:465px;height:846px;background:#FFFFFF;" version="1.1" viewBox="0 0 465 846" width="465px" zoomAndPan="magnify"><defs/><g><!--class ListGreenSpacesManagedUI--><g id="elem_ListGreenSpacesManagedUI"><rect codeLine="11" fill="#F1F1F1" height="48" id="ListGreenSpacesManagedUI" rx="2.5" ry="2.5" style="stroke:#181818;stroke-width:0.5;" width="212" x="38.5" y="7"/><ellipse cx="53.5" cy="23" fill="#ADD1B2" rx="11" ry="11" style="stroke:#181818;stroke-width:1.0;"/><path d="M56.2656,18.875 Q56.4219,18.6563 56.6094,18.5469 Q56.7969,18.4375 57.0156,18.4375 Q57.3906,18.4375 57.625,18.7031 Q57.8594,18.9531 57.8594,19.5625 L57.8594,21.0156 Q57.8594,21.625 57.625,21.8906 Q57.3906,22.1563 57.0156,22.1563 Q56.6719,22.1563 56.4688,21.9531 Q56.2656,21.7656 56.1563,21.25 Q56.1094,20.8906 55.9219,20.7031 Q55.5938,20.3281 54.9844,20.1094 Q54.375,19.8906 53.75,19.8906 Q52.9844,19.8906 52.3438,20.2188 Q51.7188,20.5469 51.2188,21.2969 Q50.7344,22.0469 50.7344,23.0781 L50.7344,24.1719 Q50.7344,25.4063 51.625,26.2344 Q52.5156,27.0469 54.1094,27.0469 Q55.0469,27.0469 55.7031,26.7969 Q56.0938,26.6406 56.5156,26.2031 Q56.7813,25.9375 56.9219,25.8594 Q57.0781,25.7813 57.2813,25.7813 Q57.6094,25.7813 57.8594,26.0469 Q58.125,26.2969 58.125,26.6406 Q58.125,26.9844 57.7813,27.3906 Q57.2813,27.9688 56.4844,28.2969 Q55.4063,28.75 54.1094,28.75 Q52.5938,28.75 51.3906,28.125 Q50.4063,27.625 49.7188,26.5625 Q49.0313,25.4844 49.0313,24.2031 L49.0313,23.0469 Q49.0313,21.7188 49.6406,20.5781 Q50.2656,19.4219 51.3594,18.8125 Q52.4531,18.1875 53.6875,18.1875 Q54.4219,18.1875 55.0625,18.3594 Q55.7188,18.5156 56.2656,18.875 Z " fill="#000000"/><text fill="#000000" font-family="sans-serif" font-size="14" lengthAdjust="spacing" textLength="180" x="67.5" y="28.7969">ListGreenSpacesManagedUI</text><line style="stroke:#181818;stroke-width:0.5;" x1="39.5" x2="249.5" y1="39" y2="39"/><line style="stroke:#181818;stroke-width:0.5;" x1="39.5" x2="249.5" y1="47" y2="47"/></g><!--class ListGreenSpacesManagedController--><g id="elem_ListGreenSpacesManagedController"><rect codeLine="14" fill="#F1F1F1" height="48" id="ListGreenSpacesManagedController" rx="2.5" ry="2.5" style="stroke:#181818;stroke-width:0.5;" width="262" x="13.5" y="116"/><ellipse cx="28.5" cy="132" fill="#ADD1B2" rx="11" ry="11" style="stroke:#181818;stroke-width:1.0;"/><path d="M31.2656,127.875 Q31.4219,127.6563 31.6094,127.5469 Q31.7969,127.4375 32.0156,127.4375 Q32.3906,127.4375 32.625,127.7031 Q32.8594,127.9531 32.8594,128.5625 L32.8594,130.0156 Q32.8594,130.625 32.625,130.8906 Q32.3906,131.1563 32.0156,131.1563 Q31.6719,131.1563 31.4688,130.9531 Q31.2656,130.7656 31.1563,130.25 Q31.1094,129.8906 30.9219,129.7031 Q30.5938,129.3281 29.9844,129.1094 Q29.375,128.8906 28.75,128.8906 Q27.9844,128.8906 27.3438,129.2188 Q26.7188,129.5469 26.2188,130.2969 Q25.7344,131.0469 25.7344,132.0781 L25.7344,133.1719 Q25.7344,134.4063 26.625,135.2344 Q27.5156,136.0469 29.1094,136.0469 Q30.0469,136.0469 30.7031,135.7969 Q31.0938,135.6406 31.5156,135.2031 Q31.7813,134.9375 31.9219,134.8594 Q32.0781,134.7813 32.2813,134.7813 Q32.6094,134.7813 32.8594,135.0469 Q33.125,135.2969 33.125,135.6406 Q33.125,135.9844 32.7813,136.3906 Q32.2813,136.9688 31.4844,137.2969 Q30.4063,137.75 29.1094,137.75 Q27.5938,137.75 26.3906,137.125 Q25.4063,136.625 24.7188,135.5625 Q24.0313,134.4844 24.0313,133.2031 L24.0313,132.0469 Q24.0313,130.7188 24.6406,129.5781 Q25.2656,128.4219 26.3594,127.8125 Q27.4531,127.1875 28.6875,127.1875 Q29.4219,127.1875 30.0625,127.3594 Q30.7188,127.5156 31.2656,127.875 Z " fill="#000000"/><text fill="#000000" font-family="sans-serif" font-size="14" lengthAdjust="spacing" textLength="230" x="42.5" y="137.7969">ListGreenSpacesManagedController</text><line style="stroke:#181818;stroke-width:0.5;" x1="14.5" x2="274.5" y1="148" y2="148"/><line style="stroke:#181818;stroke-width:0.5;" x1="14.5" x2="274.5" y1="156" y2="156"/></g><!--class Employee--><g id="elem_Employee"><rect codeLine="17" fill="#F1F1F1" height="66.6211" id="Employee" rx="2.5" ry="2.5" style="stroke:#181818;stroke-width:0.5;" width="196" x="37.5" y="517"/><ellipse cx="100.25" cy="533" fill="#ADD1B2" rx="11" ry="11" style="stroke:#181818;stroke-width:1.0;"/><path d="M103.0156,528.875 Q103.1719,528.6563 103.3594,528.5469 Q103.5469,528.4375 103.7656,528.4375 Q104.1406,528.4375 104.375,528.7031 Q104.6094,528.9531 104.6094,529.5625 L104.6094,531.0156 Q104.6094,531.625 104.375,531.8906 Q104.1406,532.1563 103.7656,532.1563 Q103.4219,532.1563 103.2188,531.9531 Q103.0156,531.7656 102.9063,531.25 Q102.8594,530.8906 102.6719,530.7031 Q102.3438,530.3281 101.7344,530.1094 Q101.125,529.8906 100.5,529.8906 Q99.7344,529.8906 99.0938,530.2188 Q98.4688,530.5469 97.9688,531.2969 Q97.4844,532.0469 97.4844,533.0781 L97.4844,534.1719 Q97.4844,535.4063 98.375,536.2344 Q99.2656,537.0469 100.8594,537.0469 Q101.7969,537.0469 102.4531,536.7969 Q102.8438,536.6406 103.2656,536.2031 Q103.5313,535.9375 103.6719,535.8594 Q103.8281,535.7813 104.0313,535.7813 Q104.3594,535.7813 104.6094,536.0469 Q104.875,536.2969 104.875,536.6406 Q104.875,536.9844 104.5313,537.3906 Q104.0313,537.9688 103.2344,538.2969 Q102.1563,538.75 100.8594,538.75 Q99.3438,538.75 98.1406,538.125 Q97.1563,537.625 96.4688,536.5625 Q95.7813,535.4844 95.7813,534.2031 L95.7813,533.0469 Q95.7813,531.7188 96.3906,530.5781 Q97.0156,529.4219 98.1094,528.8125 Q99.2031,528.1875 100.4375,528.1875 Q101.1719,528.1875 101.8125,528.3594 Q102.4688,528.5156 103.0156,528.875 Z " fill="#000000"/><text fill="#000000" font-family="sans-serif" font-size="14" lengthAdjust="spacing" textLength="62" x="120.75" y="538.7969">Employee</text><line style="stroke:#181818;stroke-width:0.5;" x1="38.5" x2="232.5" y1="549" y2="549"/><line style="stroke:#181818;stroke-width:0.5;" x1="38.5" x2="232.5" y1="557" y2="557"/><text fill="#000000" font-family="sans-serif" font-size="14" lengthAdjust="spacing" textLength="184" x="43.5" y="576.1074">+getGreenSpacesManaged()</text></g><!--class GreenSpaces--><g id="elem_GreenSpaces"><rect codeLine="21" fill="#F1F1F1" height="66.6211" id="GreenSpaces" rx="2.5" ry="2.5" style="stroke:#181818;stroke-width:0.5;" width="257" x="7" y="663"/><ellipse cx="87.75" cy="679" fill="#ADD1B2" rx="11" ry="11" style="stroke:#181818;stroke-width:1.0;"/><path d="M90.5156,674.875 Q90.6719,674.6563 90.8594,674.5469 Q91.0469,674.4375 91.2656,674.4375 Q91.6406,674.4375 91.875,674.7031 Q92.1094,674.9531 92.1094,675.5625 L92.1094,677.0156 Q92.1094,677.625 91.875,677.8906 Q91.6406,678.1563 91.2656,678.1563 Q90.9219,678.1563 90.7188,677.9531 Q90.5156,677.7656 90.4063,677.25 Q90.3594,676.8906 90.1719,676.7031 Q89.8438,676.3281 89.2344,676.1094 Q88.625,675.8906 88,675.8906 Q87.2344,675.8906 86.5938,676.2188 Q85.9688,676.5469 85.4688,677.2969 Q84.9844,678.0469 84.9844,679.0781 L84.9844,680.1719 Q84.9844,681.4063 85.875,682.2344 Q86.7656,683.0469 88.3594,683.0469 Q89.2969,683.0469 89.9531,682.7969 Q90.3438,682.6406 90.7656,682.2031 Q91.0313,681.9375 91.1719,681.8594 Q91.3281,681.7813 91.5313,681.7813 Q91.8594,681.7813 92.1094,682.0469 Q92.375,682.2969 92.375,682.6406 Q92.375,682.9844 92.0313,683.3906 Q91.5313,683.9688 90.7344,684.2969 Q89.6563,684.75 88.3594,684.75 Q86.8438,684.75 85.6406,684.125 Q84.6563,683.625 83.9688,682.5625 Q83.2813,681.4844 83.2813,680.2031 L83.2813,679.0469 Q83.2813,677.7188 83.8906,676.5781 Q84.5156,675.4219 85.6094,674.8125 Q86.7031,674.1875 87.9375,674.1875 Q88.6719,674.1875 89.3125,674.3594 Q89.9688,674.5156 90.5156,674.875 Z " fill="#000000"/><text fill="#000000" font-family="sans-serif" font-size="14" lengthAdjust="spacing" textLength="87" x="108.25" y="684.7969">GreenSpaces</text><line style="stroke:#181818;stroke-width:0.5;" x1="8" x2="263" y1="695" y2="695"/><text fill="#000000" font-family="sans-serif" font-size="14" lengthAdjust="spacing" textLength="245" x="13" y="714.1074">-ArrayList&lt;GreenSpace&gt; greenSpaces</text><line style="stroke:#181818;stroke-width:0.5;" x1="8" x2="263" y1="721.6211" y2="721.6211"/></g><!--class GreenSpace--><g id="elem_GreenSpace"><rect codeLine="25" fill="#F1F1F1" height="48" id="GreenSpace" rx="2.5" ry="2.5" style="stroke:#181818;stroke-width:0.5;" width="112" x="79.5" y="791"/><ellipse cx="94.5" cy="807" fill="#ADD1B2" rx="11" ry="11" style="stroke:#181818;stroke-width:1.0;"/><path d="M97.2656,802.875 Q97.4219,802.6563 97.6094,802.5469 Q97.7969,802.4375 98.0156,802.4375 Q98.3906,802.4375 98.625,802.7031 Q98.8594,802.9531 98.8594,803.5625 L98.8594,805.0156 Q98.8594,805.625 98.625,805.8906 Q98.3906,806.1563 98.0156,806.1563 Q97.6719,806.1563 97.4688,805.9531 Q97.2656,805.7656 97.1563,805.25 Q97.1094,804.8906 96.9219,804.7031 Q96.5938,804.3281 95.9844,804.1094 Q95.375,803.8906 94.75,803.8906 Q93.9844,803.8906 93.3438,804.2188 Q92.7188,804.5469 92.2188,805.2969 Q91.7344,806.0469 91.7344,807.0781 L91.7344,808.1719 Q91.7344,809.4063 92.625,810.2344 Q93.5156,811.0469 95.1094,811.0469 Q96.0469,811.0469 96.7031,810.7969 Q97.0938,810.6406 97.5156,810.2031 Q97.7813,809.9375 97.9219,809.8594 Q98.0781,809.7813 98.2813,809.7813 Q98.6094,809.7813 98.8594,810.0469 Q99.125,810.2969 99.125,810.6406 Q99.125,810.9844 98.7813,811.3906 Q98.2813,811.9688 97.4844,812.2969 Q96.4063,812.75 95.1094,812.75 Q93.5938,812.75 92.3906,812.125 Q91.4063,811.625 90.7188,810.5625 Q90.0313,809.4844 90.0313,808.2031 L90.0313,807.0469 Q90.0313,805.7188 90.6406,804.5781 Q91.2656,803.4219 92.3594,802.8125 Q93.4531,802.1875 94.6875,802.1875 Q95.4219,802.1875 96.0625,802.3594 Q96.7188,802.5156 97.2656,802.875 Z " fill="#000000"/><text fill="#000000" font-family="sans-serif" font-size="14" lengthAdjust="spacing" textLength="80" x="108.5" y="812.7969">GreenSpace</text><line style="stroke:#181818;stroke-width:0.5;" x1="80.5" x2="190.5" y1="823" y2="823"/><line style="stroke:#181818;stroke-width:0.5;" x1="80.5" x2="190.5" y1="831" y2="831"/></g><!--class EmployeeRepository--><g id="elem_EmployeeRepository"><rect codeLine="29" fill="#F1F1F1" height="48" id="EmployeeRepository" rx="2.5" ry="2.5" style="stroke:#181818;stroke-width:0.5;" width="162" x="176.5" y="408"/><ellipse cx="191.5" cy="424" fill="#ADD1B2" rx="11" ry="11" style="stroke:#181818;stroke-width:1.0;"/><path d="M194.2656,419.875 Q194.4219,419.6563 194.6094,419.5469 Q194.7969,419.4375 195.0156,419.4375 Q195.3906,419.4375 195.625,419.7031 Q195.8594,419.9531 195.8594,420.5625 L195.8594,422.0156 Q195.8594,422.625 195.625,422.8906 Q195.3906,423.1563 195.0156,423.1563 Q194.6719,423.1563 194.4688,422.9531 Q194.2656,422.7656 194.1563,422.25 Q194.1094,421.8906 193.9219,421.7031 Q193.5938,421.3281 192.9844,421.1094 Q192.375,420.8906 191.75,420.8906 Q190.9844,420.8906 190.3438,421.2188 Q189.7188,421.5469 189.2188,422.2969 Q188.7344,423.0469 188.7344,424.0781 L188.7344,425.1719 Q188.7344,426.4063 189.625,427.2344 Q190.5156,428.0469 192.1094,428.0469 Q193.0469,428.0469 193.7031,427.7969 Q194.0938,427.6406 194.5156,427.2031 Q194.7813,426.9375 194.9219,426.8594 Q195.0781,426.7813 195.2813,426.7813 Q195.6094,426.7813 195.8594,427.0469 Q196.125,427.2969 196.125,427.6406 Q196.125,427.9844 195.7813,428.3906 Q195.2813,428.9688 194.4844,429.2969 Q193.4063,429.75 192.1094,429.75 Q190.5938,429.75 189.3906,429.125 Q188.4063,428.625 187.7188,427.5625 Q187.0313,426.4844 187.0313,425.2031 L187.0313,424.0469 Q187.0313,422.7188 187.6406,421.5781 Q188.2656,420.4219 189.3594,419.8125 Q190.4531,419.1875 191.6875,419.1875 Q192.4219,419.1875 193.0625,419.3594 Q193.7188,419.5156 194.2656,419.875 Z " fill="#000000"/><text fill="#000000" font-family="sans-serif" font-size="14" lengthAdjust="spacing" textLength="130" x="205.5" y="429.7969">EmployeeRepository</text><line style="stroke:#181818;stroke-width:0.5;" x1="177.5" x2="337.5" y1="440" y2="440"/><line style="stroke:#181818;stroke-width:0.5;" x1="177.5" x2="337.5" y1="448" y2="448"/></g><!--class Repositories--><g id="elem_Repositories"><rect codeLine="35" fill="#F1F1F1" height="103.8633" id="Repositories" rx="2.5" ry="2.5" style="stroke:#181818;stroke-width:0.5;" width="194" x="168.5" y="243"/><ellipse cx="221.75" cy="259" fill="#ADD1B2" rx="11" ry="11" style="stroke:#181818;stroke-width:1.0;"/><path d="M224.5156,254.875 Q224.6719,254.6563 224.8594,254.5469 Q225.0469,254.4375 225.2656,254.4375 Q225.6406,254.4375 225.875,254.7031 Q226.1094,254.9531 226.1094,255.5625 L226.1094,257.0156 Q226.1094,257.625 225.875,257.8906 Q225.6406,258.1563 225.2656,258.1563 Q224.9219,258.1563 224.7188,257.9531 Q224.5156,257.7656 224.4063,257.25 Q224.3594,256.8906 224.1719,256.7031 Q223.8438,256.3281 223.2344,256.1094 Q222.625,255.8906 222,255.8906 Q221.2344,255.8906 220.5938,256.2188 Q219.9688,256.5469 219.4688,257.2969 Q218.9844,258.0469 218.9844,259.0781 L218.9844,260.1719 Q218.9844,261.4063 219.875,262.2344 Q220.7656,263.0469 222.3594,263.0469 Q223.2969,263.0469 223.9531,262.7969 Q224.3438,262.6406 224.7656,262.2031 Q225.0313,261.9375 225.1719,261.8594 Q225.3281,261.7813 225.5313,261.7813 Q225.8594,261.7813 226.1094,262.0469 Q226.375,262.2969 226.375,262.6406 Q226.375,262.9844 226.0313,263.3906 Q225.5313,263.9688 224.7344,264.2969 Q223.6563,264.75 222.3594,264.75 Q220.8438,264.75 219.6406,264.125 Q218.6563,263.625 217.9688,262.5625 Q217.2813,261.4844 217.2813,260.2031 L217.2813,259.0469 Q217.2813,257.7188 217.8906,256.5781 Q218.5156,255.4219 219.6094,254.8125 Q220.7031,254.1875 221.9375,254.1875 Q222.6719,254.1875 223.3125,254.3594 Q223.9688,254.5156 224.5156,254.875 Z " fill="#000000"/><text fill="#000000" font-family="sans-serif" font-size="14" lengthAdjust="spacing" textLength="79" x="242.25" y="264.7969">Repositories</text><line style="stroke:#181818;stroke-width:0.5;" x1="169.5" x2="361.5" y1="275" y2="275"/><line style="stroke:#181818;stroke-width:0.5;" x1="169.5" x2="361.5" y1="283" y2="283"/><text fill="#000000" font-family="sans-serif" font-size="14" lengthAdjust="spacing" textLength="94" x="174.5" y="302.1074">-Repositories()</text><text fill="#000000" font-family="sans-serif" font-size="14" lengthAdjust="spacing" textLength="182" x="174.5" y="320.7285">+getInstance() : Repositories</text><text fill="#000000" font-family="sans-serif" font-size="14" lengthAdjust="spacing" textLength="168" x="174.5" y="339.3496">+getEmployeeRepository()</text></g><!--link Repositories to Repositories--><g id="link_Repositories_Repositories"><path codeLine="46" d="M362.78,280.17 C382.98,281.73 397.5,286.67 397.5,295 C397.5,303.33 388.9622,307.808 368.7622,309.368 " fill="none" id="Repositories-to-Repositories" style="stroke:#181818;stroke-width:1.0;"/><polygon fill="#181818" points="362.78,309.83,372.0613,313.1251,367.7652,309.445,371.4453,305.1489,362.78,309.83" style="stroke:#181818;stroke-width:1.0;"/><text fill="#000000" font-family="sans-serif" font-size="13" lengthAdjust="spacing" textLength="49" x="403.5" y="300.5283">instance</text></g><!--link ListGreenSpacesManagedUI to ListGreenSpacesManagedController--><g id="link_ListGreenSpacesManagedUI_ListGreenSpacesManagedController"><path codeLine="49" d="M144.5,55.22 C144.5,73.16 144.5,91.89 144.5,109.83 " fill="none" id="ListGreenSpacesManagedUI-to-ListGreenSpacesManagedController" style="stroke:#181818;stroke-width:1.0;stroke-dasharray:7.0,7.0;"/><polygon fill="#181818" points="144.5,115.83,148.5,106.83,144.5,110.83,140.5,106.83,144.5,115.83" style="stroke:#181818;stroke-width:1.0;"/></g><!--link ListGreenSpacesManagedController to Repositories--><g id="link_ListGreenSpacesManagedController_Repositories"><path codeLine="51" d="M162.88,164.24 C179.34,185.05 200.3382,211.6038 221.3982,238.2338 " fill="none" id="ListGreenSpacesManagedController-to-Repositories" style="stroke:#181818;stroke-width:1.0;stroke-dasharray:7.0,7.0;"/><polygon fill="#181818" points="225.12,242.94,222.6747,233.3995,222.0185,239.0182,216.3998,238.362,225.12,242.94" style="stroke:#181818;stroke-width:1.0;"/><text fill="#000000" font-family="sans-serif" font-size="13" lengthAdjust="spacing" textLength="67" x="201.5" y="209.0283">repositories</text></g><!--link Repositories to EmployeeRepository--><g id="link_Repositories_EmployeeRepository"><path codeLine="55" d="M262.48,347.04 C261.24,367.94 260.2119,385.1103 259.2319,401.7903 " fill="none" id="Repositories-to-EmployeeRepository" style="stroke:#181818;stroke-width:1.0;"/><polygon fill="#181818" points="258.88,407.78,263.401,399.0301,259.1733,402.7886,255.4148,398.5609,258.88,407.78" style="stroke:#181818;stroke-width:1.0;"/><text fill="#000000" font-family="sans-serif" font-size="13" lengthAdjust="spacing" textLength="7" x="254.6446" y="368.8524">1</text><text fill="#000000" font-family="sans-serif" font-size="13" lengthAdjust="spacing" textLength="7" x="251.3633" y="396.8683">1</text></g><!--link EmployeeRepository to Employee--><g id="link_EmployeeRepository_Employee"><path codeLine="59" d="M233.4,456.02 C215.2,473.39 194.3289,493.3158 174.0489,512.6858 " fill="none" id="EmployeeRepository-to-Employee" style="stroke:#181818;stroke-width:1.0;"/><polygon fill="#181818" points="169.71,516.83,178.9811,513.5063,173.3257,513.3765,173.4555,507.7212,169.71,516.83" style="stroke:#181818;stroke-width:1.0;"/><text fill="#000000" font-family="sans-serif" font-size="13" lengthAdjust="spacing" textLength="7" x="219.6725" y="478.0105">1</text><text fill="#000000" font-family="sans-serif" font-size="13" lengthAdjust="spacing" textLength="5" x="170.9529" y="505.622">*</text></g><!--link Employee to GreenSpaces--><g id="link_Employee_GreenSpaces"><path codeLine="62" d="M135.5,584.18 C135.5,607.74 135.5,633.42 135.5,656.95 " fill="none" id="Employee-to-GreenSpaces" style="stroke:#181818;stroke-width:1.0;"/><polygon fill="#181818" points="135.5,662.95,139.5,653.95,135.5,657.95,131.5,653.95,135.5,662.95" style="stroke:#181818;stroke-width:1.0;"/><text fill="#000000" font-family="sans-serif" font-size="13" lengthAdjust="spacing" textLength="100" x="136.5" y="629.0283">list GreenSpaces</text><text fill="#000000" font-family="sans-serif" font-size="13" lengthAdjust="spacing" textLength="7" x="127.8766" y="605.7813">1</text><text fill="#000000" font-family="sans-serif" font-size="13" lengthAdjust="spacing" textLength="5" x="130.0078" y="651.7657">*</text></g><!--link GreenSpaces to GreenSpace--><g id="link_GreenSpaces_GreenSpace"><path codeLine="63" d="M135.5,730.26 C135.5,749.51 135.5,767.38 135.5,784.71 " fill="none" id="GreenSpaces-to-GreenSpace" style="stroke:#181818;stroke-width:1.0;"/><polygon fill="#181818" points="135.5,790.71,139.5,781.71,135.5,785.71,131.5,781.71,135.5,790.71" style="stroke:#181818;stroke-width:1.0;"/><text fill="#000000" font-family="sans-serif" font-size="13" lengthAdjust="spacing" textLength="7" x="127.8984" y="751.6093">1</text><text fill="#000000" font-family="sans-serif" font-size="13" lengthAdjust="spacing" textLength="5" x="129.8906" y="779.7812">*</text></g><!--link ListGreenSpacesManagedController to Employee--><g id="link_ListGreenSpacesManagedController_Employee"><path codeLine="66" d="M143.99,164.13 C142.47,233 138.112,430.8215 136.352,510.7815 " fill="none" id="ListGreenSpacesManagedController-to-Employee" style="stroke:#181818;stroke-width:1.0;stroke-dasharray:7.0,7.0;"/><polygon fill="#181818" points="136.22,516.78,140.4171,507.8702,136.33,511.7812,132.419,507.6942,136.22,516.78" style="stroke:#181818;stroke-width:1.0;"/></g><!--SRC=[ZL91JiCm4Bpx5QjUqbAbWck58bK8eKfmeU819jscLXrljDuAXOg_uuIME2K5V8cpCxCpNZlnE-CgpRg4aXpbMwOIGNYFgaCgdUzqWIkfBG9ZBjeLDYRuhLxJct45RBJrCMADGwahX8fitVoeP00a5bAHAhVQ-uK8czUzu38djpBl2DTA9HOt0aB0fjWAh4qJnv1JgjN0e_7om8Xk5KAZVz8k15-_B0_gutVA7JbXiXOvejwNbQKQ4GvgMk20QZpfo15wKEc2MTUDrMrNpw3eE4F2rlhC-nahyaQ8Q_Y2JuHlmA0F48ILzeeXN5ESGeY-T3xSMexZ2Snxf8xoqp0qE3ggdbcQPdttEPXZ_q2zT0KmcsL_3l-Il6EqRSxSEJxGUThHpQW973u3CstO0vC-QQuwJKHiUntnAEeyF6WlyJjGqNvOfFvpu2mAyGa0]--></g></svg>