<?xml version="1.0" encoding="us-ascii" standalone="no"?><svg xmlns="http://www.w3.org/2000/svg" xmlns:xlink="http://www.w3.org/1999/xlink" contentStyleType="text/css" height="904px" preserveAspectRatio="none" style="width:1624px;height:904px;background:#FFFFFF;" version="1.1" viewBox="0 0 1624 904" width="1624px" zoomAndPan="magnify"><defs/><g><text fill="#000000" font-family="sans-serif" font-size="14" font-weight="bold" lengthAdjust="spacing" textLength="212" x="705.25" y="30.1074">Sequence Diagram (SD) US027</text><rect fill="#FFFFFF" height="670.4512" style="stroke:#181818;stroke-width:1.0;" width="10" x="18.5" y="133.2422"/><rect fill="#FFFFFF" height="582.9473" style="stroke:#181818;stroke-width:1.0;" width="10" x="321.5" y="220.7461"/><rect fill="#FFFFFF" height="520.3652" style="stroke:#181818;stroke-width:1.0;" width="10" x="589.5" y="252.0371"/><rect fill="#FFFFFF" height="230.0371" style="stroke:#181818;stroke-width:1.0;" width="10" x="594.5" y="291.3281"/><rect fill="#FFFFFF" height="31.291" style="stroke:#181818;stroke-width:1.0;" width="10" x="800.5" y="327.6191"/><rect fill="#FFFFFF" height="31.291" style="stroke:#181818;stroke-width:1.0;" width="10" x="907.5" y="390.2012"/><rect fill="#FFFFFF" height="31.291" style="stroke:#181818;stroke-width:1.0;" width="10" x="1039.5" y="452.7832"/><rect fill="#FFFFFF" height="156.4551" style="stroke:#181818;stroke-width:1.0;" width="10" x="1160.5" y="584.6563"/><rect fill="#FFFFFF" height="93.873" style="stroke:#181818;stroke-width:1.0;" width="10" x="1421.5" y="615.9473"/><rect fill="#FFFFFF" height="31.291" style="stroke:#181818;stroke-width:1.0;" width="10" x="1566.5" y="647.2383"/><line style="stroke:#181818;stroke-width:0.5;stroke-dasharray:5.0,5.0;" x1="23" x2="23" y1="123.2422" y2="821.6934"/><line style="stroke:#181818;stroke-width:0.5;stroke-dasharray:5.0,5.0;" x1="326" x2="326" y1="123.2422" y2="821.6934"/><line style="stroke:#181818;stroke-width:0.5;stroke-dasharray:5.0,5.0;" x1="594" x2="594" y1="123.2422" y2="821.6934"/><line style="stroke:#181818;stroke-width:0.5;stroke-dasharray:5.0,5.0;" x1="805" x2="805" y1="123.2422" y2="821.6934"/><line style="stroke:#181818;stroke-width:0.5;stroke-dasharray:5.0,5.0;" x1="912" x2="912" y1="123.2422" y2="821.6934"/><line style="stroke:#181818;stroke-width:0.5;stroke-dasharray:5.0,5.0;" x1="1044" x2="1044" y1="123.2422" y2="821.6934"/><line style="stroke:#181818;stroke-width:0.5;stroke-dasharray:5.0,5.0;" x1="1165" x2="1165" y1="123.2422" y2="821.6934"/><line style="stroke:#181818;stroke-width:0.5;stroke-dasharray:5.0,5.0;" x1="1426" x2="1426" y1="123.2422" y2="821.6934"/><line style="stroke:#181818;stroke-width:0.5;stroke-dasharray:5.0,5.0;" x1="1571.5" x2="1571.5" y1="123.2422" y2="821.6934"/><text fill="#000000" font-family="sans-serif" font-size="14" lengthAdjust="spacing" textLength="31" x="5" y="119.7285">GSM</text><ellipse cx="23.5" cy="53.1211" fill="#E3E3E3" rx="8" ry="8" style="stroke:#181818;stroke-width:0.5;"/><path d="M23.5,61.1211 L23.5,88.1211 M10.5,69.1211 L36.5,69.1211 M23.5,88.1211 L10.5,103.1211 M23.5,88.1211 L36.5,103.1211 " fill="none" style="stroke:#181818;stroke-width:0.5;"/><text fill="#000000" font-family="sans-serif" font-size="14" lengthAdjust="spacing" textLength="31" x="5" y="835.8008">GSM</text><ellipse cx="23.5" cy="847.8145" fill="#E3E3E3" rx="8" ry="8" style="stroke:#181818;stroke-width:0.5;"/><path d="M23.5,855.8145 L23.5,882.8145 M10.5,863.8145 L36.5,863.8145 M23.5,882.8145 L10.5,897.8145 M23.5,882.8145 L36.5,897.8145 " fill="none" style="stroke:#181818;stroke-width:0.5;"/><rect fill="#E3E3E3" height="32.6211" rx="2.5" ry="2.5" style="stroke:#181818;stroke-width:0.5;" width="233" x="210" y="89.6211"/><text fill="#000000" font-family="sans-serif" font-size="14" lengthAdjust="spacing" textLength="219" x="217" y="111.7285">:ListGreenSpacesManagedByMeUI</text><rect fill="#E3E3E3" height="32.6211" rx="2.5" ry="2.5" style="stroke:#181818;stroke-width:0.5;" width="233" x="210" y="820.6934"/><text fill="#000000" font-family="sans-serif" font-size="14" lengthAdjust="spacing" textLength="219" x="217" y="842.8008">:ListGreenSpacesManagedByMeUI</text><rect fill="#E3E3E3" height="32.6211" rx="2.5" ry="2.5" style="stroke:#181818;stroke-width:0.5;" width="283" x="453" y="89.6211"/><text fill="#000000" font-family="sans-serif" font-size="14" lengthAdjust="spacing" textLength="269" x="460" y="111.7285">:ListGreenSpacesManagedByMeController</text><rect fill="#E3E3E3" height="32.6211" rx="2.5" ry="2.5" style="stroke:#181818;stroke-width:0.5;" width="283" x="453" y="820.6934"/><text fill="#000000" font-family="sans-serif" font-size="14" lengthAdjust="spacing" textLength="269" x="460" y="842.8008">:ListGreenSpacesManagedByMeController</text><rect fill="#E3E3E3" height="32.6211" rx="2.5" ry="2.5" style="stroke:#181818;stroke-width:0.5;" width="97" x="757" y="89.6211"/><text fill="#000000" font-family="sans-serif" font-size="14" lengthAdjust="spacing" textLength="83" x="764" y="111.7285">:Repositories</text><rect fill="#E3E3E3" height="32.6211" rx="2.5" ry="2.5" style="stroke:#181818;stroke-width:0.5;" width="97" x="757" y="820.6934"/><text fill="#000000" font-family="sans-serif" font-size="14" lengthAdjust="spacing" textLength="83" x="764" y="842.8008">:Repositories</text><rect fill="#E3E3E3" height="51.2422" rx="2.5" ry="2.5" style="stroke:#181818;stroke-width:0.5;" width="97" x="864" y="71"/><text fill="#000000" font-family="sans-serif" font-size="14" lengthAdjust="spacing" textLength="74" x="875.5" y="93.1074">repositories</text><text fill="#000000" font-family="sans-serif" font-size="14" lengthAdjust="spacing" textLength="83" x="871" y="111.7285">:Repositories</text><rect fill="#E3E3E3" height="51.2422" rx="2.5" ry="2.5" style="stroke:#181818;stroke-width:0.5;" width="97" x="864" y="820.6934"/><text fill="#000000" font-family="sans-serif" font-size="14" lengthAdjust="spacing" textLength="74" x="875.5" y="842.8008">repositories</text><text fill="#000000" font-family="sans-serif" font-size="14" lengthAdjust="spacing" textLength="83" x="871" y="861.4219">:Repositories</text><rect fill="#E3E3E3" height="51.2422" rx="2.5" ry="2.5" style="stroke:#181818;stroke-width:0.5;" width="147" x="971" y="71"/><text fill="#000000" font-family="sans-serif" font-size="14" lengthAdjust="spacing" textLength="133" x="978" y="93.1074">employeeRepository:</text><text fill="#000000" font-family="sans-serif" font-size="14" lengthAdjust="spacing" textLength="130" x="979.5" y="111.7285">EmployeeRepository</text><rect fill="#E3E3E3" height="51.2422" rx="2.5" ry="2.5" style="stroke:#181818;stroke-width:0.5;" width="147" x="971" y="820.6934"/><text fill="#000000" font-family="sans-serif" font-size="14" lengthAdjust="spacing" textLength="133" x="978" y="842.8008">employeeRepository:</text><text fill="#000000" font-family="sans-serif" font-size="14" lengthAdjust="spacing" textLength="130" x="979.5" y="861.4219">EmployeeRepository</text><rect fill="#E3E3E3" height="32.6211" rx="2.5" ry="2.5" style="stroke:#181818;stroke-width:0.5;" width="75" x="1128" y="89.6211"/><text fill="#000000" font-family="sans-serif" font-size="14" lengthAdjust="spacing" textLength="61" x="1135" y="111.7285">employee</text><rect fill="#E3E3E3" height="32.6211" rx="2.5" ry="2.5" style="stroke:#181818;stroke-width:0.5;" width="75" x="1128" y="820.6934"/><text fill="#000000" font-family="sans-serif" font-size="14" lengthAdjust="spacing" textLength="61" x="1135" y="842.8008">employee</text><rect fill="#E3E3E3" height="32.6211" rx="2.5" ry="2.5" style="stroke:#181818;stroke-width:0.5;" width="101" x="1376" y="89.6211"/><text fill="#000000" font-family="sans-serif" font-size="14" lengthAdjust="spacing" textLength="87" x="1383" y="111.7285">GreenSpaces</text><rect fill="#E3E3E3" height="32.6211" rx="2.5" ry="2.5" style="stroke:#181818;stroke-width:0.5;" width="101" x="1376" y="820.6934"/><text fill="#000000" font-family="sans-serif" font-size="14" lengthAdjust="spacing" textLength="87" x="1383" y="842.8008">GreenSpaces</text><rect fill="#E3E3E3" height="32.6211" rx="2.5" ry="2.5" style="stroke:#181818;stroke-width:0.5;" width="94" x="1524.5" y="89.6211"/><text fill="#000000" font-family="sans-serif" font-size="14" lengthAdjust="spacing" textLength="80" x="1531.5" y="111.7285">GreenSpace</text><rect fill="#E3E3E3" height="32.6211" rx="2.5" ry="2.5" style="stroke:#181818;stroke-width:0.5;" width="94" x="1524.5" y="820.6934"/><text fill="#000000" font-family="sans-serif" font-size="14" lengthAdjust="spacing" textLength="80" x="1531.5" y="842.8008">GreenSpace</text><rect fill="#FFFFFF" height="670.4512" style="stroke:#181818;stroke-width:1.0;" width="10" x="18.5" y="133.2422"/><rect fill="#FFFFFF" height="582.9473" style="stroke:#181818;stroke-width:1.0;" width="10" x="321.5" y="220.7461"/><rect fill="#FFFFFF" height="520.3652" style="stroke:#181818;stroke-width:1.0;" width="10" x="589.5" y="252.0371"/><rect fill="#FFFFFF" height="230.0371" style="stroke:#181818;stroke-width:1.0;" width="10" x="594.5" y="291.3281"/><rect fill="#FFFFFF" height="31.291" style="stroke:#181818;stroke-width:1.0;" width="10" x="800.5" y="327.6191"/><rect fill="#FFFFFF" height="31.291" style="stroke:#181818;stroke-width:1.0;" width="10" x="907.5" y="390.2012"/><rect fill="#FFFFFF" height="31.291" style="stroke:#181818;stroke-width:1.0;" width="10" x="1039.5" y="452.7832"/><rect fill="#FFFFFF" height="156.4551" style="stroke:#181818;stroke-width:1.0;" width="10" x="1160.5" y="584.6563"/><rect fill="#FFFFFF" height="93.873" style="stroke:#181818;stroke-width:1.0;" width="10" x="1421.5" y="615.9473"/><rect fill="#FFFFFF" height="31.291" style="stroke:#181818;stroke-width:1.0;" width="10" x="1566.5" y="647.2383"/><rect fill="none" height="59.2129" style="stroke:#000000;stroke-width:1.5;" width="444" x="2" y="133.2422"/><path d="M2,133.2422 L64,133.2422 L64,142.2422 L54,152.2422 L2,152.2422 L2,133.2422 " fill="#EEEEEE" style="stroke:#000000;stroke-width:2.0;"/><text fill="#000000" font-family="sans-serif" font-size="13" font-weight="bold" lengthAdjust="spacing" textLength="17" x="15" y="149.2705">ref</text><text fill="#000000" font-family="sans-serif" font-size="12" lengthAdjust="spacing" textLength="139" x="153" y="169.1914">This action assumes that</text><text fill="#000000" font-family="sans-serif" font-size="12" lengthAdjust="spacing" textLength="166" x="141" y="185.1523">the user has already logged in</text><polygon fill="#181818" points="309.5,216.7461,319.5,220.7461,309.5,224.7461,313.5,220.7461" style="stroke:#181818;stroke-width:1.0;"/><line style="stroke:#181818;stroke-width:1.0;" x1="28.5" x2="315.5" y1="220.7461" y2="220.7461"/><text fill="#000000" font-family="sans-serif" font-size="13" font-weight="bold" lengthAdjust="spacing" textLength="7" x="35.5" y="215.4834">1</text><text fill="#000000" font-family="sans-serif" font-size="13" lengthAdjust="spacing" textLength="263" x="46.5" y="215.4834">asks to list all green spaces managed by him</text><polygon fill="#181818" points="577.5,248.0371,587.5,252.0371,577.5,256.0371,581.5,252.0371" style="stroke:#181818;stroke-width:1.0;"/><line style="stroke:#181818;stroke-width:1.0;" x1="331.5" x2="583.5" y1="252.0371" y2="252.0371"/><text fill="#000000" font-family="sans-serif" font-size="13" font-weight="bold" lengthAdjust="spacing" textLength="7" x="338.5" y="246.7744">2</text><text fill="#000000" font-family="sans-serif" font-size="13" lengthAdjust="spacing" textLength="191" x="349.5" y="246.7744">listGreenSpacesManagedByMe()</text><line style="stroke:#181818;stroke-width:1.0;" x1="599.5" x2="646.5" y1="278.3281" y2="278.3281"/><line style="stroke:#181818;stroke-width:1.0;" x1="646.5" x2="646.5" y1="278.3281" y2="291.3281"/><line style="stroke:#181818;stroke-width:1.0;" x1="605.5" x2="646.5" y1="291.3281" y2="291.3281"/><polygon fill="#181818" points="615.5,287.3281,605.5,291.3281,615.5,295.3281,611.5,291.3281" style="stroke:#181818;stroke-width:1.0;"/><text fill="#000000" font-family="sans-serif" font-size="13" font-weight="bold" lengthAdjust="spacing" textLength="7" x="611.5" y="273.0654">3</text><text fill="#000000" font-family="sans-serif" font-size="13" lengthAdjust="spacing" textLength="176" x="622.5" y="273.0654">getEmployeeFromRepository()</text><polygon fill="#181818" points="788.5,323.6191,798.5,327.6191,788.5,331.6191,792.5,327.6191" style="stroke:#181818;stroke-width:1.0;"/><line style="stroke:#181818;stroke-width:1.0;" x1="604.5" x2="794.5" y1="327.6191" y2="327.6191"/><text fill="#000000" font-family="sans-serif" font-size="13" font-weight="bold" lengthAdjust="spacing" textLength="7" x="611.5" y="322.3564">4</text><text fill="#000000" font-family="sans-serif" font-size="13" lengthAdjust="spacing" textLength="75" x="622.5" y="322.3564">getInstance()</text><polygon fill="#181818" points="615.5,354.9102,605.5,358.9102,615.5,362.9102,611.5,358.9102" style="stroke:#181818;stroke-width:1.0;"/><line style="stroke:#181818;stroke-width:1.0;stroke-dasharray:2.0,2.0;" x1="609.5" x2="804.5" y1="358.9102" y2="358.9102"/><text fill="#000000" font-family="sans-serif" font-size="13" font-weight="bold" lengthAdjust="spacing" textLength="7" x="621.5" y="353.6475">5</text><text fill="#000000" font-family="sans-serif" font-size="13" lengthAdjust="spacing" textLength="67" x="632.5" y="353.6475">repositories</text><polygon fill="#181818" points="895.5,386.2012,905.5,390.2012,895.5,394.2012,899.5,390.2012" style="stroke:#181818;stroke-width:1.0;"/><line style="stroke:#181818;stroke-width:1.0;" x1="604.5" x2="901.5" y1="390.2012" y2="390.2012"/><text fill="#000000" font-family="sans-serif" font-size="13" font-weight="bold" lengthAdjust="spacing" textLength="7" x="611.5" y="384.9385">6</text><text fill="#000000" font-family="sans-serif" font-size="13" lengthAdjust="spacing" textLength="156" x="622.5" y="384.9385">getEmployeeRepositories()</text><polygon fill="#181818" points="615.5,417.4922,605.5,421.4922,615.5,425.4922,611.5,421.4922" style="stroke:#181818;stroke-width:1.0;"/><line style="stroke:#181818;stroke-width:1.0;stroke-dasharray:2.0,2.0;" x1="609.5" x2="911.5" y1="421.4922" y2="421.4922"/><text fill="#000000" font-family="sans-serif" font-size="13" font-weight="bold" lengthAdjust="spacing" textLength="7" x="621.5" y="416.2295">7</text><text fill="#000000" font-family="sans-serif" font-size="13" lengthAdjust="spacing" textLength="130" x="632.5" y="416.2295">EmployeeRepositories</text><polygon fill="#181818" points="1027.5,448.7832,1037.5,452.7832,1027.5,456.7832,1031.5,452.7832" style="stroke:#181818;stroke-width:1.0;"/><line style="stroke:#181818;stroke-width:1.0;" x1="604.5" x2="1033.5" y1="452.7832" y2="452.7832"/><text fill="#000000" font-family="sans-serif" font-size="13" font-weight="bold" lengthAdjust="spacing" textLength="7" x="611.5" y="447.5205">8</text><text fill="#000000" font-family="sans-serif" font-size="13" lengthAdjust="spacing" textLength="84" x="622.5" y="447.5205">getEmployee()</text><polygon fill="#181818" points="615.5,480.0742,605.5,484.0742,615.5,488.0742,611.5,484.0742" style="stroke:#181818;stroke-width:1.0;"/><line style="stroke:#181818;stroke-width:1.0;stroke-dasharray:2.0,2.0;" x1="609.5" x2="1043.5" y1="484.0742" y2="484.0742"/><text fill="#000000" font-family="sans-serif" font-size="13" font-weight="bold" lengthAdjust="spacing" textLength="7" x="621.5" y="478.8115">9</text><text fill="#000000" font-family="sans-serif" font-size="13" lengthAdjust="spacing" textLength="56" x="632.5" y="478.8115">employee</text><line style="stroke:#181818;stroke-width:1.0;stroke-dasharray:2.0,2.0;" x1="604.5" x2="646.5" y1="520.3652" y2="520.3652"/><line style="stroke:#181818;stroke-width:1.0;stroke-dasharray:2.0,2.0;" x1="646.5" x2="646.5" y1="520.3652" y2="533.3652"/><line style="stroke:#181818;stroke-width:1.0;stroke-dasharray:2.0,2.0;" x1="599.5" x2="646.5" y1="533.3652" y2="533.3652"/><polygon fill="#181818" points="609.5,529.3652,599.5,533.3652,609.5,537.3652,605.5,533.3652" style="stroke:#181818;stroke-width:1.0;"/><text fill="#000000" font-family="sans-serif" font-size="13" font-weight="bold" lengthAdjust="spacing" textLength="14" x="611.5" y="515.1025">10</text><text fill="#000000" font-family="sans-serif" font-size="13" lengthAdjust="spacing" textLength="56" x="629.5" y="515.1025">employee</text><polygon fill="#181818" points="1148.5,580.6563,1158.5,584.6563,1148.5,588.6563,1152.5,584.6563" style="stroke:#181818;stroke-width:1.0;"/><line style="stroke:#181818;stroke-width:1.0;" x1="599.5" x2="1154.5" y1="584.6563" y2="584.6563"/><text fill="#000000" font-family="sans-serif" font-size="13" font-weight="bold" lengthAdjust="spacing" textLength="14" x="606.5" y="579.3936">11</text><text fill="#000000" font-family="sans-serif" font-size="13" lengthAdjust="spacing" textLength="247" x="624.5" y="579.3936">listGreenSpacesManagedByMe(employee)</text><polygon fill="#181818" points="1409.5,611.9473,1419.5,615.9473,1409.5,619.9473,1413.5,615.9473" style="stroke:#181818;stroke-width:1.0;"/><line style="stroke:#181818;stroke-width:1.0;" x1="1170.5" x2="1415.5" y1="615.9473" y2="615.9473"/><text fill="#000000" font-family="sans-serif" font-size="13" font-weight="bold" lengthAdjust="spacing" textLength="14" x="1177.5" y="610.6846">12</text><text fill="#000000" font-family="sans-serif" font-size="13" lengthAdjust="spacing" textLength="214" x="1195.5" y="610.6846">getGreenSpacesManaged(employee)</text><polygon fill="#181818" points="1554.5,643.2383,1564.5,647.2383,1554.5,651.2383,1558.5,647.2383" style="stroke:#181818;stroke-width:1.0;"/><line style="stroke:#181818;stroke-width:1.0;" x1="1431.5" x2="1560.5" y1="647.2383" y2="647.2383"/><text fill="#000000" font-family="sans-serif" font-size="13" font-weight="bold" lengthAdjust="spacing" textLength="14" x="1438.5" y="641.9756">13</text><text fill="#000000" font-family="sans-serif" font-size="13" lengthAdjust="spacing" textLength="98" x="1456.5" y="641.9756">getGreenSpace()</text><polygon fill="#181818" points="1442.5,674.5293,1432.5,678.5293,1442.5,682.5293,1438.5,678.5293" style="stroke:#181818;stroke-width:1.0;"/><line style="stroke:#181818;stroke-width:1.0;stroke-dasharray:2.0,2.0;" x1="1436.5" x2="1570.5" y1="678.5293" y2="678.5293"/><text fill="#000000" font-family="sans-serif" font-size="13" font-weight="bold" lengthAdjust="spacing" textLength="14" x="1448.5" y="673.2666">14</text><text fill="#000000" font-family="sans-serif" font-size="13" lengthAdjust="spacing" textLength="69" x="1466.5" y="673.2666">greenSpace</text><polygon fill="#181818" points="1181.5,705.8203,1171.5,709.8203,1181.5,713.8203,1177.5,709.8203" style="stroke:#181818;stroke-width:1.0;"/><line style="stroke:#181818;stroke-width:1.0;stroke-dasharray:2.0,2.0;" x1="1175.5" x2="1425.5" y1="709.8203" y2="709.8203"/><text fill="#000000" font-family="sans-serif" font-size="13" font-weight="bold" lengthAdjust="spacing" textLength="14" x="1187.5" y="704.5576">15</text><text fill="#000000" font-family="sans-serif" font-size="13" lengthAdjust="spacing" textLength="76" x="1205.5" y="704.5576">greenSpaces</text><polygon fill="#181818" points="610.5,737.1113,600.5,741.1113,610.5,745.1113,606.5,741.1113" style="stroke:#181818;stroke-width:1.0;"/><line style="stroke:#181818;stroke-width:1.0;stroke-dasharray:2.0,2.0;" x1="604.5" x2="1164.5" y1="741.1113" y2="741.1113"/><text fill="#000000" font-family="sans-serif" font-size="13" font-weight="bold" lengthAdjust="spacing" textLength="14" x="616.5" y="735.8486">16</text><text fill="#000000" font-family="sans-serif" font-size="13" lengthAdjust="spacing" textLength="76" x="634.5" y="735.8486">greenSpaces</text><polygon fill="#181818" points="342.5,768.4023,332.5,772.4023,342.5,776.4023,338.5,772.4023" style="stroke:#181818;stroke-width:1.0;"/><line style="stroke:#181818;stroke-width:1.0;stroke-dasharray:2.0,2.0;" x1="336.5" x2="593.5" y1="772.4023" y2="772.4023"/><text fill="#000000" font-family="sans-serif" font-size="13" font-weight="bold" lengthAdjust="spacing" textLength="14" x="348.5" y="767.1396">17</text><text fill="#000000" font-family="sans-serif" font-size="13" lengthAdjust="spacing" textLength="76" x="366.5" y="767.1396">greenSpaces</text><polygon fill="#181818" points="34.5,799.6934,24.5,803.6934,34.5,807.6934,30.5,803.6934" style="stroke:#181818;stroke-width:1.0;"/><line style="stroke:#181818;stroke-width:1.0;stroke-dasharray:2.0,2.0;" x1="28.5" x2="325.5" y1="803.6934" y2="803.6934"/><text fill="#000000" font-family="sans-serif" font-size="13" font-weight="bold" lengthAdjust="spacing" textLength="14" x="40.5" y="798.4307">18</text><text fill="#000000" font-family="sans-serif" font-size="13" lengthAdjust="spacing" textLength="128" x="58.5" y="798.4307">displays greenSpaces</text><!--SRC=[bLLDJzmm4BtxLuou018hLRrKsiDA52X2OgMAm8sBIMOJYyHEROSs4Z- -OuVTE8cp0HzsOtlclVcsUHMovffNK2cfqaAh2i7g1favtDGyVUKv9hOj4JIcbiky30LCmJFrLyWSThmqo1Xlh99DzOAQCIiigINufq6P8bmBdZkTi-Jw79wIRzz_CCPE2v4Xx9IoB-eVuwbL6avka-q9S0FqpuZ7YbJKN5euMTyBOsyreap8D3HRBicyx6UxnQSxh_9qzscDAoMjLcM9scjUFJxSZtGVi5P6a4a2ZPSv7BI9S94WNuSgEj1ubbE0t_UNZqCDhEfIjOWzzFfPtamElVRqE8xbXVUReKWGYYx4_NvES2J7cCOTg3VKBZyN575OmsCX353sX98aRPeA3TY2MtYMja1e34aN1CDBZJnheLGvPG64f19mQc_SeaytWuz56rXjEdHkNWbEGKcv98WIScSD66ysL5rAuQM5GbGzmW6NQeATGh08T4NObzTR0jUkFeqra77BuOoSG-tgzG8oDAaMjNFg0iZMdT8LBycbuOt5j90YfPl1STPetdsbojXp5Xfmcb8Oo39VSuoDRTlu2xAjd2tUio7WmTSE4KRBdQusxdSDETfz7VsYdkzhYI0dYbFic8ItbgoEj0TumZjfQ7IaOwid3B7-Ych4c5PztC8sZEfd-7NElPUkXs4Gnx3Dbrpq4o1Eu843BsBmIzuSWT_RFvqY0sUM78WCePZyLCovrfNWOJGjE1EXYfVs8d006k-Gz_Tt5govs0KZzcXtxiKMOjd3nLCMqAqsmzdjSpPb3vYFKuU37-PM8EIyxxSZzfcQcMFy3A5lX81_tGtz1VqWpr-ZCuvl7xkGoynqKvJ9BAVnexr750iCOPtCL6XVfVxL7E8VQuN8mqXlxneoOUgIjsO2502ubpKC13tW_m40]--></g></svg>