<?xml version="1.0" encoding="us-ascii" standalone="no"?><svg xmlns="http://www.w3.org/2000/svg" xmlns:xlink="http://www.w3.org/1999/xlink" contentStyleType="text/css" height="588px" preserveAspectRatio="none" style="width:1112px;height:587px;background:#FFFFFF;" version="1.1" viewBox="0 0 1112 587" width="1112.3px" zoomAndPan="magnify"><defs/><g><text fill="#000000" font-family="sans-serif" font-size="9.8" font-weight="bold" lengthAdjust="spacing" textLength="148.4" x="481.425" y="21.0752">Sequence Diagram (SD) US027</text><rect fill="#FFFFFF" height="424.3668" style="stroke:#181818;stroke-width:0.6999999999999998;" width="7" x="12.95" y="93.2695"/><rect fill="#FFFFFF" height="408.0631" style="stroke:#181818;stroke-width:0.6999999999999998;" width="7" x="225.05" y="109.5732"/><rect fill="#FFFFFF" height="364.2557" style="stroke:#181818;stroke-width:0.6999999999999998;" width="7" x="388.15" y="131.477"/><rect fill="#FFFFFF" height="161.026" style="stroke:#181818;stroke-width:0.6999999999999998;" width="7" x="391.65" y="158.9807"/><rect fill="#FFFFFF" height="21.9037" style="stroke:#181818;stroke-width:0.6999999999999998;" width="7" x="535.85" y="184.3844"/><rect fill="#FFFFFF" height="21.9037" style="stroke:#181818;stroke-width:0.6999999999999998;" width="7" x="610.75" y="228.1918"/><rect fill="#FFFFFF" height="21.9037" style="stroke:#181818;stroke-width:0.6999999999999998;" width="7" x="703.15" y="271.9992"/><rect fill="#FFFFFF" height="109.5186" style="stroke:#181818;stroke-width:0.6999999999999998;" width="7" x="787.85" y="364.3104"/><rect fill="#FFFFFF" height="65.7111" style="stroke:#181818;stroke-width:0.6999999999999998;" width="7" x="970.55" y="386.2141"/><rect fill="#FFFFFF" height="21.9037" style="stroke:#181818;stroke-width:0.6999999999999998;" width="7" x="1072.05" y="408.1178"/><line style="stroke:#181818;stroke-width:0.3499999999999999;stroke-dasharray:5.0,5.0;" x1="16.1" x2="16.1" y1="86.2695" y2="530.2363"/><line style="stroke:#181818;stroke-width:0.3499999999999999;stroke-dasharray:5.0,5.0;" x1="228.55" x2="228.55" y1="86.2695" y2="530.2363"/><line style="stroke:#181818;stroke-width:0.3499999999999999;stroke-dasharray:5.0,5.0;" x1="391.65" x2="391.65" y1="86.2695" y2="530.2363"/><line style="stroke:#181818;stroke-width:0.3499999999999999;stroke-dasharray:5.0,5.0;" x1="539" x2="539" y1="86.2695" y2="530.2363"/><line style="stroke:#181818;stroke-width:0.3499999999999999;stroke-dasharray:5.0,5.0;" x1="613.9" x2="613.9" y1="86.2695" y2="530.2363"/><line style="stroke:#181818;stroke-width:0.3499999999999999;stroke-dasharray:5.0,5.0;" x1="706.3" x2="706.3" y1="86.2695" y2="530.2363"/><line style="stroke:#181818;stroke-width:0.3499999999999999;stroke-dasharray:5.0,5.0;" x1="791" x2="791" y1="86.2695" y2="530.2363"/><line style="stroke:#181818;stroke-width:0.3499999999999999;stroke-dasharray:5.0,5.0;" x1="973.7" x2="973.7" y1="86.2695" y2="530.2363"/><line style="stroke:#181818;stroke-width:0.3499999999999999;stroke-dasharray:5.0,5.0;" x1="1075.55" x2="1075.55" y1="86.2695" y2="530.2363"/><text fill="#000000" font-family="sans-serif" font-size="9.8" lengthAdjust="spacing" textLength="21.7" x="3.5" y="83.81">GSM</text><ellipse cx="16.45" cy="37.1848" fill="#E3E3E3" rx="5.6" ry="5.6" style="stroke:#181818;stroke-width:0.3499999999999999;"/><path d="M16.45,42.7848 L16.45,61.6848 M7.35,48.3848 L25.55,48.3848 M16.45,61.6848 L7.35,72.1848 M16.45,61.6848 L25.55,72.1848 " fill="none" style="stroke:#181818;stroke-width:0.3499999999999999;"/><text fill="#000000" font-family="sans-serif" font-size="9.8" lengthAdjust="spacing" textLength="21.7" x="3.5" y="540.1115">GSM</text><ellipse cx="16.45" cy="548.5211" fill="#E3E3E3" rx="5.6" ry="5.6" style="stroke:#181818;stroke-width:0.3499999999999999;"/><path d="M16.45,554.1211 L16.45,573.0211 M7.35,559.7211 L25.55,559.7211 M16.45,573.0211 L7.35,583.5211 M16.45,573.0211 L25.55,583.5211 " fill="none" style="stroke:#181818;stroke-width:0.3499999999999999;"/><rect fill="#E3E3E3" height="22.8348" rx="1.75" ry="1.75" style="stroke:#181818;stroke-width:0.3499999999999999;" width="138.6" x="159.25" y="62.7348"/><text fill="#000000" font-family="sans-serif" font-size="9.8" lengthAdjust="spacing" textLength="128.8" x="164.15" y="78.21">:ListGreenSpacesManagedUI</text><rect fill="#E3E3E3" height="22.8348" rx="1.75" ry="1.75" style="stroke:#181818;stroke-width:0.3499999999999999;" width="138.6" x="159.25" y="529.5363"/><text fill="#000000" font-family="sans-serif" font-size="9.8" lengthAdjust="spacing" textLength="128.8" x="164.15" y="545.0115">:ListGreenSpacesManagedUI</text><rect fill="#E3E3E3" height="22.8348" rx="1.75" ry="1.75" style="stroke:#181818;stroke-width:0.3499999999999999;" width="173.6" x="304.85" y="62.7348"/><text fill="#000000" font-family="sans-serif" font-size="9.8" lengthAdjust="spacing" textLength="163.8" x="309.75" y="78.21">:ListGreenSpacesManagedController</text><rect fill="#E3E3E3" height="22.8348" rx="1.75" ry="1.75" style="stroke:#181818;stroke-width:0.3499999999999999;" width="173.6" x="304.85" y="529.5363"/><text fill="#000000" font-family="sans-serif" font-size="9.8" lengthAdjust="spacing" textLength="163.8" x="309.75" y="545.0115">:ListGreenSpacesManagedController</text><rect fill="#E3E3E3" height="22.8348" rx="1.75" ry="1.75" style="stroke:#181818;stroke-width:0.3499999999999999;" width="67.9" x="505.4" y="62.7348"/><text fill="#000000" font-family="sans-serif" font-size="9.8" lengthAdjust="spacing" textLength="58.1" x="510.3" y="78.21">:Repositories</text><rect fill="#E3E3E3" height="22.8348" rx="1.75" ry="1.75" style="stroke:#181818;stroke-width:0.3499999999999999;" width="67.9" x="505.4" y="529.5363"/><text fill="#000000" font-family="sans-serif" font-size="9.8" lengthAdjust="spacing" textLength="58.1" x="510.3" y="545.0115">:Repositories</text><rect fill="#E3E3E3" height="35.8695" rx="1.75" ry="1.75" style="stroke:#181818;stroke-width:0.3499999999999999;" width="67.9" x="580.3" y="49.7"/><text fill="#000000" font-family="sans-serif" font-size="9.8" lengthAdjust="spacing" textLength="51.8" x="588.35" y="65.1752">repositories</text><text fill="#000000" font-family="sans-serif" font-size="9.8" lengthAdjust="spacing" textLength="58.1" x="585.2" y="78.21">:Repositories</text><rect fill="#E3E3E3" height="35.8695" rx="1.75" ry="1.75" style="stroke:#181818;stroke-width:0.3499999999999999;" width="67.9" x="580.3" y="529.5363"/><text fill="#000000" font-family="sans-serif" font-size="9.8" lengthAdjust="spacing" textLength="51.8" x="588.35" y="545.0115">repositories</text><text fill="#000000" font-family="sans-serif" font-size="9.8" lengthAdjust="spacing" textLength="58.1" x="585.2" y="558.0463">:Repositories</text><rect fill="#E3E3E3" height="35.8695" rx="1.75" ry="1.75" style="stroke:#181818;stroke-width:0.3499999999999999;" width="102.9" x="655.2" y="49.7"/><text fill="#000000" font-family="sans-serif" font-size="9.8" lengthAdjust="spacing" textLength="93.1" x="660.1" y="65.1752">employeeRepository:</text><text fill="#000000" font-family="sans-serif" font-size="9.8" lengthAdjust="spacing" textLength="91" x="661.15" y="78.21">EmployeeRepository</text><rect fill="#E3E3E3" height="35.8695" rx="1.75" ry="1.75" style="stroke:#181818;stroke-width:0.3499999999999999;" width="102.9" x="655.2" y="529.5363"/><text fill="#000000" font-family="sans-serif" font-size="9.8" lengthAdjust="spacing" textLength="93.1" x="660.1" y="545.0115">employeeRepository:</text><text fill="#000000" font-family="sans-serif" font-size="9.8" lengthAdjust="spacing" textLength="91" x="661.15" y="558.0463">EmployeeRepository</text><rect fill="#E3E3E3" height="22.8348" rx="1.75" ry="1.75" style="stroke:#181818;stroke-width:0.3499999999999999;" width="52.5" x="765.1" y="62.7348"/><text fill="#000000" font-family="sans-serif" font-size="9.8" lengthAdjust="spacing" textLength="42.7" x="770" y="78.21">employee</text><rect fill="#E3E3E3" height="22.8348" rx="1.75" ry="1.75" style="stroke:#181818;stroke-width:0.3499999999999999;" width="52.5" x="765.1" y="529.5363"/><text fill="#000000" font-family="sans-serif" font-size="9.8" lengthAdjust="spacing" textLength="42.7" x="770" y="545.0115">employee</text><rect fill="#E3E3E3" height="22.8348" rx="1.75" ry="1.75" style="stroke:#181818;stroke-width:0.3499999999999999;" width="70.7" x="938.7" y="62.7348"/><text fill="#000000" font-family="sans-serif" font-size="9.8" lengthAdjust="spacing" textLength="60.9" x="943.6" y="78.21">GreenSpaces</text><rect fill="#E3E3E3" height="22.8348" rx="1.75" ry="1.75" style="stroke:#181818;stroke-width:0.3499999999999999;" width="70.7" x="938.7" y="529.5363"/><text fill="#000000" font-family="sans-serif" font-size="9.8" lengthAdjust="spacing" textLength="60.9" x="943.6" y="545.0115">GreenSpaces</text><rect fill="#E3E3E3" height="22.8348" rx="1.75" ry="1.75" style="stroke:#181818;stroke-width:0.3499999999999999;" width="65.8" x="1042.65" y="62.7348"/><text fill="#000000" font-family="sans-serif" font-size="9.8" lengthAdjust="spacing" textLength="56" x="1047.55" y="78.21">GreenSpace</text><rect fill="#E3E3E3" height="22.8348" rx="1.75" ry="1.75" style="stroke:#181818;stroke-width:0.3499999999999999;" width="65.8" x="1042.65" y="529.5363"/><text fill="#000000" font-family="sans-serif" font-size="9.8" lengthAdjust="spacing" textLength="56" x="1047.55" y="545.0115">GreenSpace</text><rect fill="#FFFFFF" height="424.3668" style="stroke:#181818;stroke-width:0.6999999999999998;" width="7" x="12.95" y="93.2695"/><rect fill="#FFFFFF" height="408.0631" style="stroke:#181818;stroke-width:0.6999999999999998;" width="7" x="225.05" y="109.5732"/><rect fill="#FFFFFF" height="364.2557" style="stroke:#181818;stroke-width:0.6999999999999998;" width="7" x="388.15" y="131.477"/><rect fill="#FFFFFF" height="161.026" style="stroke:#181818;stroke-width:0.6999999999999998;" width="7" x="391.65" y="158.9807"/><rect fill="#FFFFFF" height="21.9037" style="stroke:#181818;stroke-width:0.6999999999999998;" width="7" x="535.85" y="184.3844"/><rect fill="#FFFFFF" height="21.9037" style="stroke:#181818;stroke-width:0.6999999999999998;" width="7" x="610.75" y="228.1918"/><rect fill="#FFFFFF" height="21.9037" style="stroke:#181818;stroke-width:0.6999999999999998;" width="7" x="703.15" y="271.9992"/><rect fill="#FFFFFF" height="109.5186" style="stroke:#181818;stroke-width:0.6999999999999998;" width="7" x="787.85" y="364.3104"/><rect fill="#FFFFFF" height="65.7111" style="stroke:#181818;stroke-width:0.6999999999999998;" width="7" x="970.55" y="386.2141"/><rect fill="#FFFFFF" height="21.9037" style="stroke:#181818;stroke-width:0.6999999999999998;" width="7" x="1072.05" y="408.1178"/><polygon fill="#181818" points="216.65,106.7732,223.65,109.5732,216.65,112.3732,219.45,109.5732" style="stroke:#181818;stroke-width:0.6999999999999998;"/><line style="stroke:#181818;stroke-width:0.6999999999999998;" x1="19.95" x2="220.85" y1="109.5732" y2="109.5732"/><text fill="#000000" font-family="sans-serif" font-size="9.1" font-weight="bold" lengthAdjust="spacing" textLength="4.9" x="24.85" y="105.8894">1</text><text fill="#000000" font-family="sans-serif" font-size="9.1" lengthAdjust="spacing" textLength="184.1" x="32.55" y="105.8894">asks to list all green spaces managed by him</text><polygon fill="#181818" points="379.75,128.677,386.75,131.477,379.75,134.277,382.55,131.477" style="stroke:#181818;stroke-width:0.6999999999999998;"/><line style="stroke:#181818;stroke-width:0.6999999999999998;" x1="232.05" x2="383.95" y1="131.477" y2="131.477"/><text fill="#000000" font-family="sans-serif" font-size="9.1" font-weight="bold" lengthAdjust="spacing" textLength="4.9" x="236.95" y="127.7931">2</text><text fill="#000000" font-family="sans-serif" font-size="9.1" lengthAdjust="spacing" textLength="109.9" x="244.65" y="127.7931">listGreenSpacesManaged()</text><line style="stroke:#181818;stroke-width:0.6999999999999998;" x1="395.15" x2="428.05" y1="149.8807" y2="149.8807"/><line style="stroke:#181818;stroke-width:0.6999999999999998;" x1="428.05" x2="428.05" y1="149.8807" y2="158.9807"/><line style="stroke:#181818;stroke-width:0.6999999999999998;" x1="399.35" x2="428.05" y1="158.9807" y2="158.9807"/><polygon fill="#181818" points="406.35,156.1807,399.35,158.9807,406.35,161.7807,403.55,158.9807" style="stroke:#181818;stroke-width:0.6999999999999998;"/><text fill="#000000" font-family="sans-serif" font-size="9.1" font-weight="bold" lengthAdjust="spacing" textLength="4.9" x="403.55" y="146.1968">3</text><text fill="#000000" font-family="sans-serif" font-size="9.1" lengthAdjust="spacing" textLength="123.2" x="411.25" y="146.1968">getEmployeeFromRepository()</text><polygon fill="#181818" points="527.45,181.5844,534.45,184.3844,527.45,187.1844,530.25,184.3844" style="stroke:#181818;stroke-width:0.6999999999999998;"/><line style="stroke:#181818;stroke-width:0.6999999999999998;" x1="398.65" x2="531.65" y1="184.3844" y2="184.3844"/><text fill="#000000" font-family="sans-serif" font-size="9.1" font-weight="bold" lengthAdjust="spacing" textLength="4.9" x="403.55" y="180.7005">4</text><text fill="#000000" font-family="sans-serif" font-size="9.1" lengthAdjust="spacing" textLength="52.5" x="411.25" y="180.7005">getInstance()</text><polygon fill="#181818" points="406.35,203.4881,399.35,206.2881,406.35,209.0881,403.55,206.2881" style="stroke:#181818;stroke-width:0.6999999999999998;"/><line style="stroke:#181818;stroke-width:0.6999999999999998;stroke-dasharray:2.0,2.0;" x1="402.15" x2="538.65" y1="206.2881" y2="206.2881"/><text fill="#000000" font-family="sans-serif" font-size="9.1" font-weight="bold" lengthAdjust="spacing" textLength="4.9" x="410.55" y="202.6042">5</text><text fill="#000000" font-family="sans-serif" font-size="9.1" lengthAdjust="spacing" textLength="46.9" x="418.25" y="202.6042">repositories</text><polygon fill="#181818" points="602.35,225.3918,609.35,228.1918,602.35,230.9918,605.15,228.1918" style="stroke:#181818;stroke-width:0.6999999999999998;"/><line style="stroke:#181818;stroke-width:0.6999999999999998;" x1="398.65" x2="606.55" y1="228.1918" y2="228.1918"/><text fill="#000000" font-family="sans-serif" font-size="9.1" font-weight="bold" lengthAdjust="spacing" textLength="4.9" x="403.55" y="224.5079">6</text><text fill="#000000" font-family="sans-serif" font-size="9.1" lengthAdjust="spacing" textLength="109.2" x="411.25" y="224.5079">getEmployeeRepositories()</text><polygon fill="#181818" points="406.35,247.2955,399.35,250.0955,406.35,252.8955,403.55,250.0955" style="stroke:#181818;stroke-width:0.6999999999999998;"/><line style="stroke:#181818;stroke-width:0.6999999999999998;stroke-dasharray:2.0,2.0;" x1="402.15" x2="613.55" y1="250.0955" y2="250.0955"/><text fill="#000000" font-family="sans-serif" font-size="9.1" font-weight="bold" lengthAdjust="spacing" textLength="4.9" x="410.55" y="246.4116">7</text><text fill="#000000" font-family="sans-serif" font-size="9.1" lengthAdjust="spacing" textLength="91" x="418.25" y="246.4116">EmployeeRepositories</text><polygon fill="#181818" points="694.75,269.1992,701.75,271.9992,694.75,274.7992,697.55,271.9992" style="stroke:#181818;stroke-width:0.6999999999999998;"/><line style="stroke:#181818;stroke-width:0.6999999999999998;" x1="398.65" x2="698.95" y1="271.9992" y2="271.9992"/><text fill="#000000" font-family="sans-serif" font-size="9.1" font-weight="bold" lengthAdjust="spacing" textLength="4.9" x="403.55" y="268.3153">8</text><text fill="#000000" font-family="sans-serif" font-size="9.1" lengthAdjust="spacing" textLength="58.8" x="411.25" y="268.3153">getEmployee()</text><polygon fill="#181818" points="406.35,291.1029,399.35,293.9029,406.35,296.7029,403.55,293.9029" style="stroke:#181818;stroke-width:0.6999999999999998;"/><line style="stroke:#181818;stroke-width:0.6999999999999998;stroke-dasharray:2.0,2.0;" x1="402.15" x2="705.95" y1="293.9029" y2="293.9029"/><text fill="#000000" font-family="sans-serif" font-size="9.1" font-weight="bold" lengthAdjust="spacing" textLength="4.9" x="410.55" y="290.219">9</text><text fill="#000000" font-family="sans-serif" font-size="9.1" lengthAdjust="spacing" textLength="39.2" x="418.25" y="290.219">employee</text><line style="stroke:#181818;stroke-width:0.6999999999999998;stroke-dasharray:2.0,2.0;" x1="398.65" x2="428.05" y1="319.3066" y2="319.3066"/><line style="stroke:#181818;stroke-width:0.6999999999999998;stroke-dasharray:2.0,2.0;" x1="428.05" x2="428.05" y1="319.3066" y2="328.4066"/><line style="stroke:#181818;stroke-width:0.6999999999999998;stroke-dasharray:2.0,2.0;" x1="395.15" x2="428.05" y1="328.4066" y2="328.4066"/><polygon fill="#181818" points="402.15,325.6066,395.15,328.4066,402.15,331.2066,399.35,328.4066" style="stroke:#181818;stroke-width:0.6999999999999998;"/><text fill="#000000" font-family="sans-serif" font-size="9.1" font-weight="bold" lengthAdjust="spacing" textLength="9.8" x="403.55" y="315.6228">10</text><text fill="#000000" font-family="sans-serif" font-size="9.1" lengthAdjust="spacing" textLength="39.2" x="416.15" y="315.6228">employee</text><polygon fill="#181818" points="779.45,361.5104,786.45,364.3104,779.45,367.1104,782.25,364.3104" style="stroke:#181818;stroke-width:0.6999999999999998;"/><line style="stroke:#181818;stroke-width:0.6999999999999998;" x1="395.15" x2="783.65" y1="364.3104" y2="364.3104"/><text fill="#000000" font-family="sans-serif" font-size="9.1" font-weight="bold" lengthAdjust="spacing" textLength="9.8" x="400.05" y="360.6265">11</text><text fill="#000000" font-family="sans-serif" font-size="9.1" lengthAdjust="spacing" textLength="149.1" x="412.65" y="360.6265">listGreenSpacesManaged(employee)</text><polygon fill="#181818" points="962.15,383.4141,969.15,386.2141,962.15,389.0141,964.95,386.2141" style="stroke:#181818;stroke-width:0.6999999999999998;"/><line style="stroke:#181818;stroke-width:0.6999999999999998;" x1="794.85" x2="966.35" y1="386.2141" y2="386.2141"/><text fill="#000000" font-family="sans-serif" font-size="9.1" font-weight="bold" lengthAdjust="spacing" textLength="9.8" x="799.75" y="382.5302">12</text><text fill="#000000" font-family="sans-serif" font-size="9.1" lengthAdjust="spacing" textLength="149.8" x="812.35" y="382.5302">getGreenSpacesManaged(employee)</text><polygon fill="#181818" points="1063.65,405.3178,1070.65,408.1178,1063.65,410.9178,1066.45,408.1178" style="stroke:#181818;stroke-width:0.6999999999999998;"/><line style="stroke:#181818;stroke-width:0.6999999999999998;" x1="977.55" x2="1067.85" y1="408.1178" y2="408.1178"/><text fill="#000000" font-family="sans-serif" font-size="9.1" font-weight="bold" lengthAdjust="spacing" textLength="9.8" x="982.45" y="404.4339">13</text><text fill="#000000" font-family="sans-serif" font-size="9.1" lengthAdjust="spacing" textLength="68.6" x="995.05" y="404.4339">getGreenSpace()</text><polygon fill="#181818" points="985.25,427.2215,978.25,430.0215,985.25,432.8215,982.45,430.0215" style="stroke:#181818;stroke-width:0.6999999999999998;"/><line style="stroke:#181818;stroke-width:0.6999999999999998;stroke-dasharray:2.0,2.0;" x1="981.05" x2="1074.85" y1="430.0215" y2="430.0215"/><text fill="#000000" font-family="sans-serif" font-size="9.1" font-weight="bold" lengthAdjust="spacing" textLength="9.8" x="989.45" y="426.3376">14</text><text fill="#000000" font-family="sans-serif" font-size="9.1" lengthAdjust="spacing" textLength="48.3" x="1002.05" y="426.3376">greenSpace</text><polygon fill="#181818" points="802.55,449.1252,795.55,451.9252,802.55,454.7252,799.75,451.9252" style="stroke:#181818;stroke-width:0.6999999999999998;"/><line style="stroke:#181818;stroke-width:0.6999999999999998;stroke-dasharray:2.0,2.0;" x1="798.35" x2="973.35" y1="451.9252" y2="451.9252"/><text fill="#000000" font-family="sans-serif" font-size="9.1" font-weight="bold" lengthAdjust="spacing" textLength="9.8" x="806.75" y="448.2413">15</text><text fill="#000000" font-family="sans-serif" font-size="9.1" lengthAdjust="spacing" textLength="53.2" x="819.35" y="448.2413">greenSpaces</text><polygon fill="#181818" points="402.85,471.0289,395.85,473.8289,402.85,476.6289,400.05,473.8289" style="stroke:#181818;stroke-width:0.6999999999999998;"/><line style="stroke:#181818;stroke-width:0.6999999999999998;stroke-dasharray:2.0,2.0;" x1="398.65" x2="790.65" y1="473.8289" y2="473.8289"/><text fill="#000000" font-family="sans-serif" font-size="9.1" font-weight="bold" lengthAdjust="spacing" textLength="9.8" x="407.05" y="470.145">16</text><text fill="#000000" font-family="sans-serif" font-size="9.1" lengthAdjust="spacing" textLength="53.2" x="419.65" y="470.145">greenSpaces</text><polygon fill="#181818" points="239.75,492.9326,232.75,495.7326,239.75,498.5326,236.95,495.7326" style="stroke:#181818;stroke-width:0.6999999999999998;"/><line style="stroke:#181818;stroke-width:0.6999999999999998;stroke-dasharray:2.0,2.0;" x1="235.55" x2="390.95" y1="495.7326" y2="495.7326"/><text fill="#000000" font-family="sans-serif" font-size="9.1" font-weight="bold" lengthAdjust="spacing" textLength="9.8" x="243.95" y="492.0487">17</text><text fill="#000000" font-family="sans-serif" font-size="9.1" lengthAdjust="spacing" textLength="53.2" x="256.55" y="492.0487">greenSpaces</text><polygon fill="#181818" points="24.15,514.8363,17.15,517.6363,24.15,520.4363,21.35,517.6363" style="stroke:#181818;stroke-width:0.6999999999999998;"/><line style="stroke:#181818;stroke-width:0.6999999999999998;stroke-dasharray:2.0,2.0;" x1="19.95" x2="227.85" y1="517.6363" y2="517.6363"/><text fill="#000000" font-family="sans-serif" font-size="9.1" font-weight="bold" lengthAdjust="spacing" textLength="9.8" x="28.35" y="513.9524">18</text><text fill="#000000" font-family="sans-serif" font-size="9.1" lengthAdjust="spacing" textLength="89.6" x="40.95" y="513.9524">displays greenSpaces</text><!--SRC=[bLLDR-8m4BtxLuouGAKYhVQoKWv8LUbMI22jcdBZOf8XM2HsrZQxYyIFNzjfY9CufFMXnSxCU_FrR7LYlAII5b08BfAZ50M2bcSawlQbfCc9PXZhIuuWCT6KPxble8uq5NyPp-10SuM4qBCM_5piKHAYcJPkCVu-8qyGbencrcSMBnzW6t_x_eEGwP6b20SXz5xy8pJHGiBaDTvCW2em_ucXqInX9UKQ9j6QAVqg4Nbi8aEreTn4bsvNpdox-fJri-1QYZn7wRoUtz_M7RytB8LY9XI6ojdS3YunimKmARPTfEUnuts0N-kdzxO75cKkBeWDTBJZBxr3vzq_3cCvuthJDl7AK9MssGyPTko8xGxxGpMwlX3uM6O3yuKfFaJ6uQH02yXDuO7cEMJM7PJZWQAgF-mlS6H5Wt33DGqaK_2M0PqRxAVbne1BEqTAAqYffZ2JU41fv-eHKbI9PALcWZy2C7uGig0vx7ZxYyRao5bYlhIEqxEarQz4AFr0_02cYKGRcHiIGhgnBTm74riUdBHP6-oMPuK6dMLFvmlxDu8CTTtqdqQNJUCDPC-nZnsoS96QY0Ep38vmnPMHTuATg7iC8J44FK9CywPclcQ2_Yb-dRFEqWeEMdNqDJcMefDhcC01Urc4uCUokGDVnz-NV2kPiGG2DqR8lczcKwj6y7QFZ2GJe0gFzYYm1nfMoFLw9TuQgfrt7mugipOPgMC35MwNHpLVj2zPrw-xpFUf_HiQXfPdP3DljXtsWNaPOlmCeHE1nnzLb_s8lzVZhz4forVNpkTI0qeACgdnDdv8kqCnmk3FoS1qDXFgNiis_ZqP11v4y-P6a39LvlIYUa0UW7rH_KAOX_i_]--></g></svg>