<?xml version="1.0" encoding="us-ascii" standalone="no"?><svg xmlns="http://www.w3.org/2000/svg" xmlns:xlink="http://www.w3.org/1999/xlink" contentStyleType="text/css" height="1032px" preserveAspectRatio="none" style="width:515px;height:1032px;background:#FFFFFF;" version="1.1" viewBox="0 0 515 1032" width="515px" zoomAndPan="magnify"><defs/><g><!--class ListGreenSpacesManagedByMeUI--><g id="elem_ListGreenSpacesManagedByMeUI"><rect codeLine="11" fill="#F1F1F1" height="48" id="ListGreenSpacesManagedByMeUI" rx="2.5" ry="2.5" style="stroke:#181818;stroke-width:0.5;" width="247" x="71" y="7"/><ellipse cx="86" cy="23" fill="#ADD1B2" rx="11" ry="11" style="stroke:#181818;stroke-width:1.0;"/><path d="M88.7656,18.875 Q88.9219,18.6563 89.1094,18.5469 Q89.2969,18.4375 89.5156,18.4375 Q89.8906,18.4375 90.125,18.7031 Q90.3594,18.9531 90.3594,19.5625 L90.3594,21.0156 Q90.3594,21.625 90.125,21.8906 Q89.8906,22.1563 89.5156,22.1563 Q89.1719,22.1563 88.9688,21.9531 Q88.7656,21.7656 88.6563,21.25 Q88.6094,20.8906 88.4219,20.7031 Q88.0938,20.3281 87.4844,20.1094 Q86.875,19.8906 86.25,19.8906 Q85.4844,19.8906 84.8438,20.2188 Q84.2188,20.5469 83.7188,21.2969 Q83.2344,22.0469 83.2344,23.0781 L83.2344,24.1719 Q83.2344,25.4063 84.125,26.2344 Q85.0156,27.0469 86.6094,27.0469 Q87.5469,27.0469 88.2031,26.7969 Q88.5938,26.6406 89.0156,26.2031 Q89.2813,25.9375 89.4219,25.8594 Q89.5781,25.7813 89.7813,25.7813 Q90.1094,25.7813 90.3594,26.0469 Q90.625,26.2969 90.625,26.6406 Q90.625,26.9844 90.2813,27.3906 Q89.7813,27.9688 88.9844,28.2969 Q87.9063,28.75 86.6094,28.75 Q85.0938,28.75 83.8906,28.125 Q82.9063,27.625 82.2188,26.5625 Q81.5313,25.4844 81.5313,24.2031 L81.5313,23.0469 Q81.5313,21.7188 82.1406,20.5781 Q82.7656,19.4219 83.8594,18.8125 Q84.9531,18.1875 86.1875,18.1875 Q86.9219,18.1875 87.5625,18.3594 Q88.2188,18.5156 88.7656,18.875 Z " fill="#000000"/><text fill="#000000" font-family="sans-serif" font-size="14" lengthAdjust="spacing" textLength="215" x="100" y="28.7969">ListGreenSpacesManagedByMeUI</text><line style="stroke:#181818;stroke-width:0.5;" x1="72" x2="317" y1="39" y2="39"/><line style="stroke:#181818;stroke-width:0.5;" x1="72" x2="317" y1="47" y2="47"/></g><!--class ListGreenSpacesManagedByMeController--><g id="elem_ListGreenSpacesManagedByMeController"><rect codeLine="14" fill="#F1F1F1" height="103.8633" id="ListGreenSpacesManagedByMeController" rx="2.5" ry="2.5" style="stroke:#181818;stroke-width:0.5;" width="357" x="16" y="116"/><ellipse cx="58" cy="132" fill="#ADD1B2" rx="11" ry="11" style="stroke:#181818;stroke-width:1.0;"/><path d="M60.7656,127.875 Q60.9219,127.6563 61.1094,127.5469 Q61.2969,127.4375 61.5156,127.4375 Q61.8906,127.4375 62.125,127.7031 Q62.3594,127.9531 62.3594,128.5625 L62.3594,130.0156 Q62.3594,130.625 62.125,130.8906 Q61.8906,131.1563 61.5156,131.1563 Q61.1719,131.1563 60.9688,130.9531 Q60.7656,130.7656 60.6563,130.25 Q60.6094,129.8906 60.4219,129.7031 Q60.0938,129.3281 59.4844,129.1094 Q58.875,128.8906 58.25,128.8906 Q57.4844,128.8906 56.8438,129.2188 Q56.2188,129.5469 55.7188,130.2969 Q55.2344,131.0469 55.2344,132.0781 L55.2344,133.1719 Q55.2344,134.4063 56.125,135.2344 Q57.0156,136.0469 58.6094,136.0469 Q59.5469,136.0469 60.2031,135.7969 Q60.5938,135.6406 61.0156,135.2031 Q61.2813,134.9375 61.4219,134.8594 Q61.5781,134.7813 61.7813,134.7813 Q62.1094,134.7813 62.3594,135.0469 Q62.625,135.2969 62.625,135.6406 Q62.625,135.9844 62.2813,136.3906 Q61.7813,136.9688 60.9844,137.2969 Q59.9063,137.75 58.6094,137.75 Q57.0938,137.75 55.8906,137.125 Q54.9063,136.625 54.2188,135.5625 Q53.5313,134.4844 53.5313,133.2031 L53.5313,132.0469 Q53.5313,130.7188 54.1406,129.5781 Q54.7656,128.4219 55.8594,127.8125 Q56.9531,127.1875 58.1875,127.1875 Q58.9219,127.1875 59.5625,127.3594 Q60.2188,127.5156 60.7656,127.875 Z " fill="#000000"/><text fill="#000000" font-family="sans-serif" font-size="14" lengthAdjust="spacing" textLength="265" x="78" y="137.7969">ListGreenSpacesManagedByMeController</text><line style="stroke:#181818;stroke-width:0.5;" x1="17" x2="372" y1="148" y2="148"/><line style="stroke:#181818;stroke-width:0.5;" x1="17" x2="372" y1="156" y2="156"/><text fill="#000000" font-family="sans-serif" font-size="14" lengthAdjust="spacing" textLength="186" x="22" y="175.1074">+getGreenSpaceRepository()</text><text fill="#000000" font-family="sans-serif" font-size="14" lengthAdjust="spacing" textLength="168" x="22" y="193.7285">+getEmployeeRepository()</text><text fill="#000000" font-family="sans-serif" font-size="14" lengthAdjust="spacing" textLength="345" x="22" y="212.3496">+getGreenSpacesManagedByMe(): List&lt;GreenSpace&gt;</text></g><!--class Employee--><g id="elem_Employee"><rect codeLine="21" fill="#F1F1F1" height="66.6211" id="Employee" rx="2.5" ry="2.5" style="stroke:#181818;stroke-width:0.5;" width="357" x="7" y="592"/><ellipse cx="150.25" cy="608" fill="#ADD1B2" rx="11" ry="11" style="stroke:#181818;stroke-width:1.0;"/><path d="M153.0156,603.875 Q153.1719,603.6563 153.3594,603.5469 Q153.5469,603.4375 153.7656,603.4375 Q154.1406,603.4375 154.375,603.7031 Q154.6094,603.9531 154.6094,604.5625 L154.6094,606.0156 Q154.6094,606.625 154.375,606.8906 Q154.1406,607.1563 153.7656,607.1563 Q153.4219,607.1563 153.2188,606.9531 Q153.0156,606.7656 152.9063,606.25 Q152.8594,605.8906 152.6719,605.7031 Q152.3438,605.3281 151.7344,605.1094 Q151.125,604.8906 150.5,604.8906 Q149.7344,604.8906 149.0938,605.2188 Q148.4688,605.5469 147.9688,606.2969 Q147.4844,607.0469 147.4844,608.0781 L147.4844,609.1719 Q147.4844,610.4063 148.375,611.2344 Q149.2656,612.0469 150.8594,612.0469 Q151.7969,612.0469 152.4531,611.7969 Q152.8438,611.6406 153.2656,611.2031 Q153.5313,610.9375 153.6719,610.8594 Q153.8281,610.7813 154.0313,610.7813 Q154.3594,610.7813 154.6094,611.0469 Q154.875,611.2969 154.875,611.6406 Q154.875,611.9844 154.5313,612.3906 Q154.0313,612.9688 153.2344,613.2969 Q152.1563,613.75 150.8594,613.75 Q149.3438,613.75 148.1406,613.125 Q147.1563,612.625 146.4688,611.5625 Q145.7813,610.4844 145.7813,609.2031 L145.7813,608.0469 Q145.7813,606.7188 146.3906,605.5781 Q147.0156,604.4219 148.1094,603.8125 Q149.2031,603.1875 150.4375,603.1875 Q151.1719,603.1875 151.8125,603.3594 Q152.4688,603.5156 153.0156,603.875 Z " fill="#000000"/><text fill="#000000" font-family="sans-serif" font-size="14" lengthAdjust="spacing" textLength="62" x="170.75" y="613.7969">Employee</text><line style="stroke:#181818;stroke-width:0.5;" x1="8" x2="363" y1="624" y2="624"/><line style="stroke:#181818;stroke-width:0.5;" x1="8" x2="363" y1="632" y2="632"/><text fill="#000000" font-family="sans-serif" font-size="14" lengthAdjust="spacing" textLength="345" x="13" y="651.1074">+getGreenSpacesManagedByMe(): List&lt;GreenSpace&gt;</text></g><!--class GreenSpaces--><g id="elem_GreenSpaces"><rect codeLine="25" fill="#F1F1F1" height="85.2422" id="GreenSpaces" rx="2.5" ry="2.5" style="stroke:#181818;stroke-width:0.5;" width="274" x="48.5" y="738"/><ellipse cx="137.75" cy="754" fill="#ADD1B2" rx="11" ry="11" style="stroke:#181818;stroke-width:1.0;"/><path d="M140.5156,749.875 Q140.6719,749.6563 140.8594,749.5469 Q141.0469,749.4375 141.2656,749.4375 Q141.6406,749.4375 141.875,749.7031 Q142.1094,749.9531 142.1094,750.5625 L142.1094,752.0156 Q142.1094,752.625 141.875,752.8906 Q141.6406,753.1563 141.2656,753.1563 Q140.9219,753.1563 140.7188,752.9531 Q140.5156,752.7656 140.4063,752.25 Q140.3594,751.8906 140.1719,751.7031 Q139.8438,751.3281 139.2344,751.1094 Q138.625,750.8906 138,750.8906 Q137.2344,750.8906 136.5938,751.2188 Q135.9688,751.5469 135.4688,752.2969 Q134.9844,753.0469 134.9844,754.0781 L134.9844,755.1719 Q134.9844,756.4063 135.875,757.2344 Q136.7656,758.0469 138.3594,758.0469 Q139.2969,758.0469 139.9531,757.7969 Q140.3438,757.6406 140.7656,757.2031 Q141.0313,756.9375 141.1719,756.8594 Q141.3281,756.7813 141.5313,756.7813 Q141.8594,756.7813 142.1094,757.0469 Q142.375,757.2969 142.375,757.6406 Q142.375,757.9844 142.0313,758.3906 Q141.5313,758.9688 140.7344,759.2969 Q139.6563,759.75 138.3594,759.75 Q136.8438,759.75 135.6406,759.125 Q134.6563,758.625 133.9688,757.5625 Q133.2813,756.4844 133.2813,755.2031 L133.2813,754.0469 Q133.2813,752.7188 133.8906,751.5781 Q134.5156,750.4219 135.6094,749.8125 Q136.7031,749.1875 137.9375,749.1875 Q138.6719,749.1875 139.3125,749.3594 Q139.9688,749.5156 140.5156,749.875 Z " fill="#000000"/><text fill="#000000" font-family="sans-serif" font-size="14" lengthAdjust="spacing" textLength="87" x="158.25" y="759.7969">GreenSpaces</text><line style="stroke:#181818;stroke-width:0.5;" x1="49.5" x2="321.5" y1="770" y2="770"/><text fill="#000000" font-family="sans-serif" font-size="14" lengthAdjust="spacing" textLength="211" x="54.5" y="789.1074">-List&lt;GreenSpace&gt; greenSpaces</text><line style="stroke:#181818;stroke-width:0.5;" x1="49.5" x2="321.5" y1="796.6211" y2="796.6211"/><text fill="#000000" font-family="sans-serif" font-size="14" lengthAdjust="spacing" textLength="262" x="54.5" y="815.7285">+getGreenSpacesManagedByEmployee()</text></g><!--class GreenSpace--><g id="elem_GreenSpace"><rect codeLine="30" fill="#F1F1F1" height="141.1055" id="GreenSpace" rx="2.5" ry="2.5" style="stroke:#181818;stroke-width:0.5;" width="199" x="86" y="884"/><ellipse cx="141.25" cy="900" fill="#ADD1B2" rx="11" ry="11" style="stroke:#181818;stroke-width:1.0;"/><path d="M144.0156,895.875 Q144.1719,895.6563 144.3594,895.5469 Q144.5469,895.4375 144.7656,895.4375 Q145.1406,895.4375 145.375,895.7031 Q145.6094,895.9531 145.6094,896.5625 L145.6094,898.0156 Q145.6094,898.625 145.375,898.8906 Q145.1406,899.1563 144.7656,899.1563 Q144.4219,899.1563 144.2188,898.9531 Q144.0156,898.7656 143.9063,898.25 Q143.8594,897.8906 143.6719,897.7031 Q143.3438,897.3281 142.7344,897.1094 Q142.125,896.8906 141.5,896.8906 Q140.7344,896.8906 140.0938,897.2188 Q139.4688,897.5469 138.9688,898.2969 Q138.4844,899.0469 138.4844,900.0781 L138.4844,901.1719 Q138.4844,902.4063 139.375,903.2344 Q140.2656,904.0469 141.8594,904.0469 Q142.7969,904.0469 143.4531,903.7969 Q143.8438,903.6406 144.2656,903.2031 Q144.5313,902.9375 144.6719,902.8594 Q144.8281,902.7813 145.0313,902.7813 Q145.3594,902.7813 145.6094,903.0469 Q145.875,903.2969 145.875,903.6406 Q145.875,903.9844 145.5313,904.3906 Q145.0313,904.9688 144.2344,905.2969 Q143.1563,905.75 141.8594,905.75 Q140.3438,905.75 139.1406,905.125 Q138.1563,904.625 137.4688,903.5625 Q136.7813,902.4844 136.7813,901.2031 L136.7813,900.0469 Q136.7813,898.7188 137.3906,897.5781 Q138.0156,896.4219 139.1094,895.8125 Q140.2031,895.1875 141.4375,895.1875 Q142.1719,895.1875 142.8125,895.3594 Q143.4688,895.5156 144.0156,895.875 Z " fill="#000000"/><text fill="#000000" font-family="sans-serif" font-size="14" lengthAdjust="spacing" textLength="80" x="161.75" y="905.7969">GreenSpace</text><line style="stroke:#181818;stroke-width:0.5;" x1="87" x2="284" y1="916" y2="916"/><text fill="#000000" font-family="sans-serif" font-size="14" lengthAdjust="spacing" textLength="89" x="92" y="935.1074">-name : String</text><text fill="#000000" font-family="sans-serif" font-size="14" lengthAdjust="spacing" textLength="105" x="92" y="953.7285">-address : String</text><text fill="#000000" font-family="sans-serif" font-size="14" lengthAdjust="spacing" textLength="89" x="92" y="972.3496">-area : double</text><text fill="#000000" font-family="sans-serif" font-size="14" lengthAdjust="spacing" textLength="107" x="92" y="990.9707">-typology : String</text><text fill="#000000" font-family="sans-serif" font-size="14" lengthAdjust="spacing" textLength="187" x="92" y="1009.5918">-greenSpaceManager : String</text><line style="stroke:#181818;stroke-width:0.5;" x1="87" x2="284" y1="1017.1055" y2="1017.1055"/></g><!--class EmployeeRepository--><g id="elem_EmployeeRepository"><rect codeLine="39" fill="#F1F1F1" height="66.6211" id="EmployeeRepository" rx="2.5" ry="2.5" style="stroke:#181818;stroke-width:0.5;" width="181" x="222" y="464"/><ellipse cx="245.55" cy="480" fill="#ADD1B2" rx="11" ry="11" style="stroke:#181818;stroke-width:1.0;"/><path d="M248.3156,475.875 Q248.4719,475.6563 248.6594,475.5469 Q248.8469,475.4375 249.0656,475.4375 Q249.4406,475.4375 249.675,475.7031 Q249.9094,475.9531 249.9094,476.5625 L249.9094,478.0156 Q249.9094,478.625 249.675,478.8906 Q249.4406,479.1563 249.0656,479.1563 Q248.7219,479.1563 248.5188,478.9531 Q248.3156,478.7656 248.2063,478.25 Q248.1594,477.8906 247.9719,477.7031 Q247.6438,477.3281 247.0344,477.1094 Q246.425,476.8906 245.8,476.8906 Q245.0344,476.8906 244.3938,477.2188 Q243.7688,477.5469 243.2688,478.2969 Q242.7844,479.0469 242.7844,480.0781 L242.7844,481.1719 Q242.7844,482.4063 243.675,483.2344 Q244.5656,484.0469 246.1594,484.0469 Q247.0969,484.0469 247.7531,483.7969 Q248.1438,483.6406 248.5656,483.2031 Q248.8313,482.9375 248.9719,482.8594 Q249.1281,482.7813 249.3313,482.7813 Q249.6594,482.7813 249.9094,483.0469 Q250.175,483.2969 250.175,483.6406 Q250.175,483.9844 249.8313,484.3906 Q249.3313,484.9688 248.5344,485.2969 Q247.4563,485.75 246.1594,485.75 Q244.6438,485.75 243.4406,485.125 Q242.4563,484.625 241.7688,483.5625 Q241.0813,482.4844 241.0813,481.2031 L241.0813,480.0469 Q241.0813,478.7188 241.6906,477.5781 Q242.3156,476.4219 243.4094,475.8125 Q244.5031,475.1875 245.7375,475.1875 Q246.4719,475.1875 247.1125,475.3594 Q247.7688,475.5156 248.3156,475.875 Z " fill="#000000"/><text fill="#000000" font-family="sans-serif" font-size="14" lengthAdjust="spacing" textLength="130" x="261.45" y="485.7969">EmployeeRepository</text><line style="stroke:#181818;stroke-width:0.5;" x1="223" x2="402" y1="496" y2="496"/><line style="stroke:#181818;stroke-width:0.5;" x1="223" x2="402" y1="504" y2="504"/><text fill="#000000" font-family="sans-serif" font-size="14" lengthAdjust="spacing" textLength="169" x="228" y="523.1074">+getEmployee(): employee</text></g><!--class Repositories--><g id="elem_Repositories"><rect codeLine="46" fill="#F1F1F1" height="103.8633" id="Repositories" rx="2.5" ry="2.5" style="stroke:#181818;stroke-width:0.5;" width="194" x="218.5" y="299"/><ellipse cx="271.75" cy="315" fill="#ADD1B2" rx="11" ry="11" style="stroke:#181818;stroke-width:1.0;"/><path d="M274.5156,310.875 Q274.6719,310.6563 274.8594,310.5469 Q275.0469,310.4375 275.2656,310.4375 Q275.6406,310.4375 275.875,310.7031 Q276.1094,310.9531 276.1094,311.5625 L276.1094,313.0156 Q276.1094,313.625 275.875,313.8906 Q275.6406,314.1563 275.2656,314.1563 Q274.9219,314.1563 274.7188,313.9531 Q274.5156,313.7656 274.4063,313.25 Q274.3594,312.8906 274.1719,312.7031 Q273.8438,312.3281 273.2344,312.1094 Q272.625,311.8906 272,311.8906 Q271.2344,311.8906 270.5938,312.2188 Q269.9688,312.5469 269.4688,313.2969 Q268.9844,314.0469 268.9844,315.0781 L268.9844,316.1719 Q268.9844,317.4063 269.875,318.2344 Q270.7656,319.0469 272.3594,319.0469 Q273.2969,319.0469 273.9531,318.7969 Q274.3438,318.6406 274.7656,318.2031 Q275.0313,317.9375 275.1719,317.8594 Q275.3281,317.7813 275.5313,317.7813 Q275.8594,317.7813 276.1094,318.0469 Q276.375,318.2969 276.375,318.6406 Q276.375,318.9844 276.0313,319.3906 Q275.5313,319.9688 274.7344,320.2969 Q273.6563,320.75 272.3594,320.75 Q270.8438,320.75 269.6406,320.125 Q268.6563,319.625 267.9688,318.5625 Q267.2813,317.4844 267.2813,316.2031 L267.2813,315.0469 Q267.2813,313.7188 267.8906,312.5781 Q268.5156,311.4219 269.6094,310.8125 Q270.7031,310.1875 271.9375,310.1875 Q272.6719,310.1875 273.3125,310.3594 Q273.9688,310.5156 274.5156,310.875 Z " fill="#000000"/><text fill="#000000" font-family="sans-serif" font-size="14" lengthAdjust="spacing" textLength="79" x="292.25" y="320.7969">Repositories</text><line style="stroke:#181818;stroke-width:0.5;" x1="219.5" x2="411.5" y1="331" y2="331"/><line style="stroke:#181818;stroke-width:0.5;" x1="219.5" x2="411.5" y1="339" y2="339"/><text fill="#000000" font-family="sans-serif" font-size="14" lengthAdjust="spacing" textLength="94" x="224.5" y="358.1074">-Repositories()</text><text fill="#000000" font-family="sans-serif" font-size="14" lengthAdjust="spacing" textLength="182" x="224.5" y="376.7285">+getInstance() : Repositories</text><text fill="#000000" font-family="sans-serif" font-size="14" lengthAdjust="spacing" textLength="168" x="224.5" y="395.3496">+getEmployeeRepository()</text></g><!--link Repositories to Repositories--><g id="link_Repositories_Repositories"><path codeLine="57" d="M412.78,336.17 C432.98,337.73 447.5,342.67 447.5,351 C447.5,359.33 438.9622,363.808 418.7622,365.368 " fill="none" id="Repositories-to-Repositories" style="stroke:#181818;stroke-width:1.0;"/><polygon fill="#181818" points="412.78,365.83,422.0613,369.1251,417.7652,365.445,421.4453,361.1489,412.78,365.83" style="stroke:#181818;stroke-width:1.0;"/><text fill="#000000" font-family="sans-serif" font-size="13" lengthAdjust="spacing" textLength="49" x="453.5" y="356.5283">instance</text></g><!--link ListGreenSpacesManagedByMeUI to ListGreenSpacesManagedByMeController--><g id="link_ListGreenSpacesManagedByMeUI_ListGreenSpacesManagedByMeController"><path codeLine="60" d="M194.5,55.21 C194.5,71.87 194.5,88.97 194.5,109.86 " fill="none" id="ListGreenSpacesManagedByMeUI-to-ListGreenSpacesManagedByMeController" style="stroke:#181818;stroke-width:1.0;stroke-dasharray:7.0,7.0;"/><polygon fill="#181818" points="194.5,115.86,198.5,106.86,194.5,110.86,190.5,106.86,194.5,115.86" style="stroke:#181818;stroke-width:1.0;"/></g><!--link ListGreenSpacesManagedByMeController to Repositories--><g id="link_ListGreenSpacesManagedByMeController_Repositories"><path codeLine="62" d="M228.85,220.38 C245.27,244.94 261.5362,269.2715 277.9362,293.8115 " fill="none" id="ListGreenSpacesManagedByMeController-to-Repositories" style="stroke:#181818;stroke-width:1.0;stroke-dasharray:7.0,7.0;"/><polygon fill="#181818" points="281.27,298.8,279.595,289.0946,278.4918,294.6429,272.9436,293.5397,281.27,298.8" style="stroke:#181818;stroke-width:1.0;"/><text fill="#000000" font-family="sans-serif" font-size="13" lengthAdjust="spacing" textLength="67" x="259.5" y="265.0283">repositories</text></g><!--link Repositories to EmployeeRepository--><g id="link_Repositories_EmployeeRepository"><path codeLine="66" d="M314.43,403.35 C314.02,423.47 313.6744,439.9513 313.3044,457.7913 " fill="none" id="Repositories-to-EmployeeRepository" style="stroke:#181818;stroke-width:1.0;"/><polygon fill="#181818" points="313.18,463.79,317.3658,454.8749,313.2837,458.7911,309.3675,454.709,313.18,463.79" style="stroke:#181818;stroke-width:1.0;"/><text fill="#000000" font-family="sans-serif" font-size="13" lengthAdjust="spacing" textLength="7" x="306.873" y="424.8205">1</text><text fill="#000000" font-family="sans-serif" font-size="13" lengthAdjust="spacing" textLength="7" x="305.6424" y="452.8359">1</text></g><!--link EmployeeRepository to Employee--><g id="link_EmployeeRepository_Employee"><path codeLine="70" d="M279.46,531.28 C260.65,549.94 241.4196,569.0244 222.6296,587.6644 " fill="none" id="EmployeeRepository-to-Employee" style="stroke:#181818;stroke-width:1.0;"/><polygon fill="#181818" points="218.37,591.89,227.5765,588.3913,221.9197,588.3687,221.9423,582.7119,218.37,591.89" style="stroke:#181818;stroke-width:1.0;"/><text fill="#000000" font-family="sans-serif" font-size="13" lengthAdjust="spacing" textLength="7" x="266.1797" y="552.6328">1</text><text fill="#000000" font-family="sans-serif" font-size="13" lengthAdjust="spacing" textLength="5" x="219.3491" y="580.6939">*</text></g><!--link Employee to GreenSpaces--><g id="link_Employee_GreenSpaces"><path codeLine="73" d="M185.5,659.32 C185.5,682.33 185.5,707.26 185.5,731.98 " fill="none" id="Employee-to-GreenSpaces" style="stroke:#181818;stroke-width:1.0;"/><polygon fill="#181818" points="185.5,737.98,189.5,728.98,185.5,732.98,181.5,728.98,185.5,737.98" style="stroke:#181818;stroke-width:1.0;"/><text fill="#000000" font-family="sans-serif" font-size="13" lengthAdjust="spacing" textLength="100" x="186.5" y="704.0283">list GreenSpaces</text><text fill="#000000" font-family="sans-serif" font-size="13" lengthAdjust="spacing" textLength="7" x="177.8984" y="680.6796">1</text><text fill="#000000" font-family="sans-serif" font-size="13" lengthAdjust="spacing" textLength="7" x="177.9422" y="726.8809">1</text></g><!--link GreenSpaces to GreenSpace--><g id="link_GreenSpaces_GreenSpace"><path codeLine="74" d="M185.5,823.14 C185.5,841.33 185.5,857.17 185.5,877.73 " fill="none" id="GreenSpaces-to-GreenSpace" style="stroke:#181818;stroke-width:1.0;"/><polygon fill="#181818" points="185.5,883.73,189.5,874.73,185.5,878.73,181.5,874.73,185.5,883.73" style="stroke:#181818;stroke-width:1.0;"/><text fill="#000000" font-family="sans-serif" font-size="13" lengthAdjust="spacing" textLength="7" x="177.9422" y="845.3226">1</text><text fill="#000000" font-family="sans-serif" font-size="13" lengthAdjust="spacing" textLength="5" x="180.2422" y="872.5932">*</text></g><!--link ListGreenSpacesManagedByMeController to Employee--><g id="link_ListGreenSpacesManagedByMeController_Employee"><path codeLine="77" d="M193.49,220.37 C191.62,314.83 187.8081,507.6012 186.2681,585.8512 " fill="none" id="ListGreenSpacesManagedByMeController-to-Employee" style="stroke:#181818;stroke-width:1.0;stroke-dasharray:7.0,7.0;"/><polygon fill="#181818" points="186.15,591.85,190.3263,582.9304,186.2484,586.851,182.3279,582.773,186.15,591.85" style="stroke:#181818;stroke-width:1.0;"/></g><!--SRC=[bLFBJiCm4BpxArQzzALKS8rG9K08LQ8NAZx0JRQfLTSRsQvGgFXtDY6jtH9AoIMnTsPszf6-soXJIYkti2L3sThI5i7R7OeGAMMsaGKkVAKHB6PUcaB70BUMERqhKy1AQXT7j3BegnAX95tL1z7l29Br929MfgLpzzvRjTnvd6La5ke3uKQ8liQL1qzWLR7saAlQZY8ZHCE15-NyiqKq2pQDRYuD6yyVgZc-pVRYys_O8nblIMkqUp4kC4AzOabEURBLODY4dhQbfWf_1hgL1yEqoNiNmbCHB1tKOFzVZQD4nDcBv1m7HGZ_ckBWWYlfa6LL8ta_KbZmR4mX4fdd5XaJtLYKVCnfj-GTINY-fAce8aHav3kl3K5EUjQFqDssCy5Y2jX-Dxm3yyXGw9W3_2GdbrnSVJa6LfiPn-kSiHgRY441qZddDgCuIPOaqzFiAQXMdw6NTXCca-bLMtb99g0QkJCdDYxkt7dljbURvrT7usjqnpWEd57WHC16gzMCxARyrpiVhwg8lWDf5974jKLF8oDV]--></g></svg>