<?xml version="1.0" encoding="us-ascii" standalone="no"?><svg xmlns="http://www.w3.org/2000/svg" xmlns:xlink="http://www.w3.org/1999/xlink" contentStyleType="text/css" height="812px" preserveAspectRatio="none" style="width:459px;height:812px;background:#FFFFFF;" version="1.1" viewBox="0 0 459 812" width="459.2px" zoomAndPan="magnify"><defs/><g><!--class RegisterSkillUi--><g id="elem_RegisterSkillUi"><rect codeLine="11" fill="#F1F1F1" height="38.4" id="RegisterSkillUi" rx="2" ry="2" style="stroke:#181818;stroke-width:0.4000000000000001;" width="97.6" x="200.4" y="5.6"/><ellipse cx="212.4" cy="18.4" fill="#ADD1B2" rx="8.8" ry="8.8" style="stroke:#181818;stroke-width:0.8000000000000002;"/><path d="M214.6125,15.1 Q214.7375,14.925 214.8875,14.8375 Q215.0375,14.75 215.2125,14.75 Q215.5125,14.75 215.7,14.9625 Q215.8875,15.1625 215.8875,15.65 L215.8875,16.8125 Q215.8875,17.3 215.7,17.5125 Q215.5125,17.725 215.2125,17.725 Q214.9375,17.725 214.775,17.5625 Q214.6125,17.4125 214.525,17 Q214.4875,16.7125 214.3375,16.5625 Q214.075,16.2625 213.5875,16.0875 Q213.1,15.9125 212.6,15.9125 Q211.9875,15.9125 211.475,16.175 Q210.975,16.4375 210.575,17.0375 Q210.1875,17.6375 210.1875,18.4625 L210.1875,19.3375 Q210.1875,20.325 210.9,20.9875 Q211.6125,21.6375 212.8875,21.6375 Q213.6375,21.6375 214.1625,21.4375 Q214.475,21.3125 214.8125,20.9625 Q215.025,20.75 215.1375,20.6875 Q215.2625,20.625 215.425,20.625 Q215.6875,20.625 215.8875,20.8375 Q216.1,21.0375 216.1,21.3125 Q216.1,21.5875 215.825,21.9125 Q215.425,22.375 214.7875,22.6375 Q213.925,23 212.8875,23 Q211.675,23 210.7125,22.5 Q209.925,22.1 209.375,21.25 Q208.825,20.3875 208.825,19.3625 L208.825,18.4375 Q208.825,17.375 209.3125,16.4625 Q209.8125,15.5375 210.6875,15.05 Q211.5625,14.55 212.55,14.55 Q213.1375,14.55 213.65,14.6875 Q214.175,14.8125 214.6125,15.1 Z " fill="#000000"/><text fill="#000000" font-family="sans-serif" font-size="11.2" lengthAdjust="spacing" textLength="72" x="223.6" y="23.0375">RegisterSkillUi</text><line style="stroke:#181818;stroke-width:0.4000000000000001;" x1="201.2" x2="297.2" y1="31.2" y2="31.2"/><line style="stroke:#181818;stroke-width:0.4000000000000001;" x1="201.2" x2="297.2" y1="37.6" y2="37.6"/></g><!--class RegisterSkillController--><g id="elem_RegisterSkillController"><rect codeLine="15" fill="#F1F1F1" height="68.1938" id="RegisterSkillController" rx="2" ry="2" style="stroke:#181818;stroke-width:0.4000000000000001;" width="292.8" x="102.8" y="92.8"/><ellipse cx="189.8" cy="105.6" fill="#ADD1B2" rx="8.8" ry="8.8" style="stroke:#181818;stroke-width:0.8000000000000002;"/><path d="M192.0125,102.3 Q192.1375,102.125 192.2875,102.0375 Q192.4375,101.95 192.6125,101.95 Q192.9125,101.95 193.1,102.1625 Q193.2875,102.3625 193.2875,102.85 L193.2875,104.0125 Q193.2875,104.5 193.1,104.7125 Q192.9125,104.925 192.6125,104.925 Q192.3375,104.925 192.175,104.7625 Q192.0125,104.6125 191.925,104.2 Q191.8875,103.9125 191.7375,103.7625 Q191.475,103.4625 190.9875,103.2875 Q190.5,103.1125 190,103.1125 Q189.3875,103.1125 188.875,103.375 Q188.375,103.6375 187.975,104.2375 Q187.5875,104.8375 187.5875,105.6625 L187.5875,106.5375 Q187.5875,107.525 188.3,108.1875 Q189.0125,108.8375 190.2875,108.8375 Q191.0375,108.8375 191.5625,108.6375 Q191.875,108.5125 192.2125,108.1625 Q192.425,107.95 192.5375,107.8875 Q192.6625,107.825 192.825,107.825 Q193.0875,107.825 193.2875,108.0375 Q193.5,108.2375 193.5,108.5125 Q193.5,108.7875 193.225,109.1125 Q192.825,109.575 192.1875,109.8375 Q191.325,110.2 190.2875,110.2 Q189.075,110.2 188.1125,109.7 Q187.325,109.3 186.775,108.45 Q186.225,107.5875 186.225,106.5625 L186.225,105.6375 Q186.225,104.575 186.7125,103.6625 Q187.2125,102.7375 188.0875,102.25 Q188.9625,101.75 189.95,101.75 Q190.5375,101.75 191.05,101.8875 Q191.575,102.0125 192.0125,102.3 Z " fill="#000000"/><text fill="#000000" font-family="sans-serif" font-size="11.2" lengthAdjust="spacing" textLength="112" x="206.2" y="110.2375">RegisterSkillController</text><line style="stroke:#181818;stroke-width:0.4000000000000001;" x1="103.6" x2="394.8" y1="118.4" y2="118.4"/><line style="stroke:#181818;stroke-width:0.4000000000000001;" x1="103.6" x2="394.8" y1="124.8" y2="124.8"/><text fill="#000000" font-family="sans-serif" font-size="11.2" lengthAdjust="spacing" textLength="244" x="107.6" y="140.0859">+getEmployeeRepository(): employeeRepository</text><text fill="#000000" font-family="sans-serif" font-size="11.2" lengthAdjust="spacing" textLength="283.2" x="107.6" y="154.9828">+registerSkill(skillName, skillDescription): Optional&lt;Skill&gt;</text></g><!--class EmployeeRepository--><g id="elem_EmployeeRepository"><rect codeLine="22" fill="#F1F1F1" height="53.2969" id="EmployeeRepository" rx="2" ry="2" style="stroke:#181818;stroke-width:0.4000000000000001;" width="144.8" x="148" y="356"/><ellipse cx="166.84" cy="368.8" fill="#ADD1B2" rx="8.8" ry="8.8" style="stroke:#181818;stroke-width:0.8000000000000002;"/><path d="M169.0525,365.5 Q169.1775,365.325 169.3275,365.2375 Q169.4775,365.15 169.6525,365.15 Q169.9525,365.15 170.14,365.3625 Q170.3275,365.5625 170.3275,366.05 L170.3275,367.2125 Q170.3275,367.7 170.14,367.9125 Q169.9525,368.125 169.6525,368.125 Q169.3775,368.125 169.215,367.9625 Q169.0525,367.8125 168.965,367.4 Q168.9275,367.1125 168.7775,366.9625 Q168.515,366.6625 168.0275,366.4875 Q167.54,366.3125 167.04,366.3125 Q166.4275,366.3125 165.915,366.575 Q165.415,366.8375 165.015,367.4375 Q164.6275,368.0375 164.6275,368.8625 L164.6275,369.7375 Q164.6275,370.725 165.34,371.3875 Q166.0525,372.0375 167.3275,372.0375 Q168.0775,372.0375 168.6025,371.8375 Q168.915,371.7125 169.2525,371.3625 Q169.465,371.15 169.5775,371.0875 Q169.7025,371.025 169.865,371.025 Q170.1275,371.025 170.3275,371.2375 Q170.54,371.4375 170.54,371.7125 Q170.54,371.9875 170.265,372.3125 Q169.865,372.775 169.2275,373.0375 Q168.365,373.4 167.3275,373.4 Q166.115,373.4 165.1525,372.9 Q164.365,372.5 163.815,371.65 Q163.265,370.7875 163.265,369.7625 L163.265,368.8375 Q163.265,367.775 163.7525,366.8625 Q164.2525,365.9375 165.1275,365.45 Q166.0025,364.95 166.99,364.95 Q167.5775,364.95 168.09,365.0875 Q168.615,365.2125 169.0525,365.5 Z " fill="#000000"/><text fill="#000000" font-family="sans-serif" font-size="11.2" lengthAdjust="spacing" textLength="104" x="179.56" y="373.4375">EmployeeRepository</text><line style="stroke:#181818;stroke-width:0.4000000000000001;" x1="148.8" x2="292" y1="381.6" y2="381.6"/><line style="stroke:#181818;stroke-width:0.4000000000000001;" x1="148.8" x2="292" y1="388" y2="388"/><text fill="#000000" font-family="sans-serif" font-size="11.2" lengthAdjust="spacing" textLength="135.2" x="152.8" y="403.2859">+getEmployee(): employee</text></g><!--class Skill--><g id="elem_Skill"><rect codeLine="29" fill="#F1F1F1" height="68.1938" id="Skill" rx="2" ry="2" style="stroke:#181818;stroke-width:0.4000000000000001;" width="124.8" x="245.2" y="738.4"/><ellipse cx="294.2" cy="751.2" fill="#ADD1B2" rx="8.8" ry="8.8" style="stroke:#181818;stroke-width:0.8000000000000002;"/><path d="M296.4125,747.9 Q296.5375,747.725 296.6875,747.6375 Q296.8375,747.55 297.0125,747.55 Q297.3125,747.55 297.5,747.7625 Q297.6875,747.9625 297.6875,748.45 L297.6875,749.6125 Q297.6875,750.1 297.5,750.3125 Q297.3125,750.525 297.0125,750.525 Q296.7375,750.525 296.575,750.3625 Q296.4125,750.2125 296.325,749.8 Q296.2875,749.5125 296.1375,749.3625 Q295.875,749.0625 295.3875,748.8875 Q294.9,748.7125 294.4,748.7125 Q293.7875,748.7125 293.275,748.975 Q292.775,749.2375 292.375,749.8375 Q291.9875,750.4375 291.9875,751.2625 L291.9875,752.1375 Q291.9875,753.125 292.7,753.7875 Q293.4125,754.4375 294.6875,754.4375 Q295.4375,754.4375 295.9625,754.2375 Q296.275,754.1125 296.6125,753.7625 Q296.825,753.55 296.9375,753.4875 Q297.0625,753.425 297.225,753.425 Q297.4875,753.425 297.6875,753.6375 Q297.9,753.8375 297.9,754.1125 Q297.9,754.3875 297.625,754.7125 Q297.225,755.175 296.5875,755.4375 Q295.725,755.8 294.6875,755.8 Q293.475,755.8 292.5125,755.3 Q291.725,754.9 291.175,754.05 Q290.625,753.1875 290.625,752.1625 L290.625,751.2375 Q290.625,750.175 291.1125,749.2625 Q291.6125,748.3375 292.4875,747.85 Q293.3625,747.35 294.35,747.35 Q294.9375,747.35 295.45,747.4875 Q295.975,747.6125 296.4125,747.9 Z " fill="#000000"/><text fill="#000000" font-family="sans-serif" font-size="11.2" lengthAdjust="spacing" textLength="20" x="310.6" y="755.8375">Skill</text><line style="stroke:#181818;stroke-width:0.4000000000000001;" x1="246" x2="369.2" y1="764" y2="764"/><text fill="#000000" font-family="sans-serif" font-size="11.2" lengthAdjust="spacing" textLength="87.2" x="250" y="779.2859">-skillName: String</text><text fill="#000000" font-family="sans-serif" font-size="11.2" lengthAdjust="spacing" textLength="115.2" x="250" y="794.1828">-skillDescription: String</text><line style="stroke:#181818;stroke-width:0.4000000000000001;" x1="246" x2="369.2" y1="800.1938" y2="800.1938"/></g><!--class Repositories--><g id="elem_Repositories"><rect codeLine="36" fill="#F1F1F1" height="83.0906" id="Repositories" rx="2" ry="2" style="stroke:#181818;stroke-width:0.4000000000000001;" width="253.6" x="5.6" y="224"/><ellipse cx="97.4" cy="236.8" fill="#ADD1B2" rx="8.8" ry="8.8" style="stroke:#181818;stroke-width:0.8000000000000002;"/><path d="M99.6125,233.5 Q99.7375,233.325 99.8875,233.2375 Q100.0375,233.15 100.2125,233.15 Q100.5125,233.15 100.7,233.3625 Q100.8875,233.5625 100.8875,234.05 L100.8875,235.2125 Q100.8875,235.7 100.7,235.9125 Q100.5125,236.125 100.2125,236.125 Q99.9375,236.125 99.775,235.9625 Q99.6125,235.8125 99.525,235.4 Q99.4875,235.1125 99.3375,234.9625 Q99.075,234.6625 98.5875,234.4875 Q98.1,234.3125 97.6,234.3125 Q96.9875,234.3125 96.475,234.575 Q95.975,234.8375 95.575,235.4375 Q95.1875,236.0375 95.1875,236.8625 L95.1875,237.7375 Q95.1875,238.725 95.9,239.3875 Q96.6125,240.0375 97.8875,240.0375 Q98.6375,240.0375 99.1625,239.8375 Q99.475,239.7125 99.8125,239.3625 Q100.025,239.15 100.1375,239.0875 Q100.2625,239.025 100.425,239.025 Q100.6875,239.025 100.8875,239.2375 Q101.1,239.4375 101.1,239.7125 Q101.1,239.9875 100.825,240.3125 Q100.425,240.775 99.7875,241.0375 Q98.925,241.4 97.8875,241.4 Q96.675,241.4 95.7125,240.9 Q94.925,240.5 94.375,239.65 Q93.825,238.7875 93.825,237.7625 L93.825,236.8375 Q93.825,235.775 94.3125,234.8625 Q94.8125,233.9375 95.6875,233.45 Q96.5625,232.95 97.55,232.95 Q98.1375,232.95 98.65,233.0875 Q99.175,233.2125 99.6125,233.5 Z " fill="#000000"/><text fill="#000000" font-family="sans-serif" font-size="11.2" lengthAdjust="spacing" textLength="63.2" x="113.8" y="241.4375">Repositories</text><line style="stroke:#181818;stroke-width:0.4000000000000001;" x1="6.4" x2="258.4" y1="249.6" y2="249.6"/><line style="stroke:#181818;stroke-width:0.4000000000000001;" x1="6.4" x2="258.4" y1="256" y2="256"/><text fill="#000000" font-family="sans-serif" font-size="11.2" lengthAdjust="spacing" textLength="75.2" x="10.4" y="271.2859">-Repositories()</text><text fill="#000000" font-family="sans-serif" font-size="11.2" lengthAdjust="spacing" textLength="145.6" x="10.4" y="286.1828">+getInstance() : Repositories</text><text fill="#000000" font-family="sans-serif" font-size="11.2" lengthAdjust="spacing" textLength="244" x="10.4" y="301.0797">+getEmployeeRepository(); employeeRepository</text></g><!--class Employee--><g id="elem_Employee"><rect codeLine="43" fill="#F1F1F1" height="217.1625" id="Employee" rx="2" ry="2" style="stroke:#181818;stroke-width:0.4000000000000001;" width="292.8" x="161.2" y="458.4"/><ellipse cx="279.4" cy="471.2" fill="#ADD1B2" rx="8.8" ry="8.8" style="stroke:#181818;stroke-width:0.8000000000000002;"/><path d="M281.6125,467.9 Q281.7375,467.725 281.8875,467.6375 Q282.0375,467.55 282.2125,467.55 Q282.5125,467.55 282.7,467.7625 Q282.8875,467.9625 282.8875,468.45 L282.8875,469.6125 Q282.8875,470.1 282.7,470.3125 Q282.5125,470.525 282.2125,470.525 Q281.9375,470.525 281.775,470.3625 Q281.6125,470.2125 281.525,469.8 Q281.4875,469.5125 281.3375,469.3625 Q281.075,469.0625 280.5875,468.8875 Q280.1,468.7125 279.6,468.7125 Q278.9875,468.7125 278.475,468.975 Q277.975,469.2375 277.575,469.8375 Q277.1875,470.4375 277.1875,471.2625 L277.1875,472.1375 Q277.1875,473.125 277.9,473.7875 Q278.6125,474.4375 279.8875,474.4375 Q280.6375,474.4375 281.1625,474.2375 Q281.475,474.1125 281.8125,473.7625 Q282.025,473.55 282.1375,473.4875 Q282.2625,473.425 282.425,473.425 Q282.6875,473.425 282.8875,473.6375 Q283.1,473.8375 283.1,474.1125 Q283.1,474.3875 282.825,474.7125 Q282.425,475.175 281.7875,475.4375 Q280.925,475.8 279.8875,475.8 Q278.675,475.8 277.7125,475.3 Q276.925,474.9 276.375,474.05 Q275.825,473.1875 275.825,472.1625 L275.825,471.2375 Q275.825,470.175 276.3125,469.2625 Q276.8125,468.3375 277.6875,467.85 Q278.5625,467.35 279.55,467.35 Q280.1375,467.35 280.65,467.4875 Q281.175,467.6125 281.6125,467.9 Z " fill="#000000"/><text fill="#000000" font-family="sans-serif" font-size="11.2" lengthAdjust="spacing" textLength="49.6" x="295.8" y="475.8375">Employee</text><line style="stroke:#181818;stroke-width:0.4000000000000001;" x1="162" x2="453.2" y1="484" y2="484"/><text fill="#000000" font-family="sans-serif" font-size="11.2" lengthAdjust="spacing" textLength="71.2" x="166" y="499.2859">-name : String</text><text fill="#000000" font-family="sans-serif" font-size="11.2" lengthAdjust="spacing" textLength="82.4" x="166" y="514.1828">-birthdate : Date</text><text fill="#000000" font-family="sans-serif" font-size="11.2" lengthAdjust="spacing" textLength="69.6" x="166" y="529.0797">-email : String</text><text fill="#000000" font-family="sans-serif" font-size="11.2" lengthAdjust="spacing" textLength="96.8" x="166" y="543.9766">-phoneNumber : int</text><text fill="#000000" font-family="sans-serif" font-size="11.2" lengthAdjust="spacing" textLength="113.6" x="166" y="558.8734">-admission date : Date</text><text fill="#000000" font-family="sans-serif" font-size="11.2" lengthAdjust="spacing" textLength="125.6" x="166" y="573.7703">-taxpayerNumber : String</text><text fill="#000000" font-family="sans-serif" font-size="11.2" lengthAdjust="spacing" textLength="84" x="166" y="588.6672">-address : String</text><text fill="#000000" font-family="sans-serif" font-size="11.2" lengthAdjust="spacing" textLength="100.8" x="166" y="603.5641">-docNumber : String</text><text fill="#000000" font-family="sans-serif" font-size="11.2" lengthAdjust="spacing" textLength="80" x="166" y="618.4609">-jobTitle : String</text><line style="stroke:#181818;stroke-width:0.4000000000000001;" x1="162" x2="453.2" y1="624.4719" y2="624.4719"/><text fill="#000000" font-family="sans-serif" font-size="11.2" lengthAdjust="spacing" textLength="283.2" x="166" y="639.7578">+registerSkill(skillName, skillDescription): Optional&lt;Skill&gt;</text><text fill="#000000" font-family="sans-serif" font-size="11.2" lengthAdjust="spacing" textLength="139.2" x="166" y="654.6547">+validateSkill(skill): boolean</text><text fill="#000000" font-family="sans-serif" font-size="11.2" lengthAdjust="spacing" textLength="99.2" x="166" y="669.5516">+add(skill): boolean</text></g><!--link RegisterSkillUi to RegisterSkillController--><g id="link_RegisterSkillUi_RegisterSkillController"><path codeLine="59" d="M249.2,44.016 C249.2,57.6 249.2,71.664 249.2,87.872 " fill="none" id="RegisterSkillUi-to-RegisterSkillController" style="stroke:#181818;stroke-width:0.8000000000000002;stroke-dasharray:7.0,7.0;"/><polygon fill="#181818" points="249.2,92.672,252.4,85.472,249.2,88.672,246,85.472,249.2,92.672" style="stroke:#181818;stroke-width:0.8000000000000002;"/></g><!--link RegisterSkillController to Repositories--><g id="link_RegisterSkillController_Repositories"><path codeLine="61" d="M220.928,160.816 C204.792,179.768 187.5435,200.025 170.4155,220.145 " fill="none" id="RegisterSkillController-to-Repositories" style="stroke:#181818;stroke-width:0.8000000000000002;stroke-dasharray:7.0,7.0;"/><polygon fill="#181818" points="167.304,223.8,174.4078,220.3918,169.8969,220.7542,169.5345,216.2432,167.304,223.8" style="stroke:#181818;stroke-width:0.8000000000000002;"/><text fill="#000000" font-family="sans-serif" font-size="10.4" lengthAdjust="spacing" textLength="53.6" x="198.8" y="196.8227">repositories</text><text fill="#000000" font-family="sans-serif" font-size="10.4" lengthAdjust="spacing" textLength="5.6" x="166.018" y="214.915">1</text></g><!--link Repositories to Repositories--><g id="link_Repositories_Repositories"><path codeLine="63" d="M259.336,254.752 C276.088,256.6 287.2,260.216 287.2,265.6 C287.2,270.984 280.8591,274.0737 264.1071,275.9217 " fill="none" id="Repositories-to-Repositories" style="stroke:#181818;stroke-width:0.8000000000000002;"/><polygon fill="#181818" points="259.336,276.448,266.8435,278.8392,263.3119,276.0094,266.1417,272.4778,259.336,276.448" style="stroke:#181818;stroke-width:0.8000000000000002;"/><text fill="#000000" font-family="sans-serif" font-size="10.4" lengthAdjust="spacing" textLength="39.2" x="292" y="270.0227">instance</text></g><!--link RegisterSkillController to Employee--><g id="link_RegisterSkillController_Employee"><path codeLine="64" d="M279.456,161.048 C304.64,188.888 336.4,224 336.4,224 C336.4,224 336.4,307.2 336.4,307.2 C336.4,307.2 328.0344,382.3334 320.1384,453.3494 " fill="none" id="RegisterSkillController-to-Employee" style="stroke:#181818;stroke-width:0.8000000000000002;stroke-dasharray:7.0,7.0;"/><polygon fill="#181818" points="319.608,458.12,323.584,451.3177,320.05,454.1445,317.2232,450.6105,319.608,458.12" style="stroke:#181818;stroke-width:0.8000000000000002;"/></g><!--link Repositories to EmployeeRepository--><g id="link_Repositories_EmployeeRepository"><path codeLine="66" d="M163.672,307.48 C175.928,323.576 186.7087,337.7407 197.5727,352.0127 " fill="none" id="Repositories-to-EmployeeRepository" style="stroke:#181818;stroke-width:0.8000000000000002;"/><polygon fill="#181818" points="200.48,355.832,198.6652,348.1648,198.0572,352.6492,193.5728,352.0412,200.48,355.832" style="stroke:#181818;stroke-width:0.8000000000000002;"/><text fill="#000000" font-family="sans-serif" font-size="10.4" lengthAdjust="spacing" textLength="5.6" x="161.542" y="324.6564">1</text><text fill="#000000" font-family="sans-serif" font-size="10.4" lengthAdjust="spacing" textLength="5.6" x="190.549" y="347.0687">1</text></g><!--link EmployeeRepository to Employee--><g id="link_EmployeeRepository_Employee"><path codeLine="68" d="M232.896,409.736 C239.248,423.032 245.3762,435.8541 254.0082,453.8941 " fill="none" id="EmployeeRepository-to-Employee" style="stroke:#181818;stroke-width:0.8000000000000002;"/><polygon fill="#181818" points="256.08,458.224,255.8589,450.348,254.3535,454.6158,250.0857,453.1104,256.08,458.224" style="stroke:#181818;stroke-width:0.8000000000000002;"/><text fill="#000000" font-family="sans-serif" font-size="10.4" lengthAdjust="spacing" textLength="5.6" x="229.0231" y="427.0156">1</text><text fill="#000000" font-family="sans-serif" font-size="10.4" lengthAdjust="spacing" textLength="4" x="249.1531" y="449.5335">*</text></g><!--link Employee to Skill--><g id="link_Employee_Skill"><path codeLine="69" d="M307.6,675.272 C307.6,698.264 307.6,716.064 307.6,733.592 " fill="none" id="Employee-to-Skill" style="stroke:#181818;stroke-width:0.8000000000000002;"/><polygon fill="#181818" points="307.6,738.392,310.8,731.192,307.6,734.392,304.4,731.192,307.6,738.392" style="stroke:#181818;stroke-width:0.8000000000000002;"/><text fill="#000000" font-family="sans-serif" font-size="10.4" lengthAdjust="spacing" textLength="54.4" x="308.4" y="711.2227">registerSkill</text><text fill="#000000" font-family="sans-serif" font-size="10.4" lengthAdjust="spacing" textLength="5.6" x="301.8381" y="693.1551">1</text><text fill="#000000" font-family="sans-serif" font-size="10.4" lengthAdjust="spacing" textLength="4" x="303.2813" y="729.514">*</text></g><!--SRC=[fLJ1Rjim3BthAuXSacvpiLsp8a2nvj1B1pJR1oWsQxEHHKDYjdd1_dsod3boxEqo7sA5x_7naQ6oz0UoZNQwXfejvvNZ6a7S4TK5QNH-q2Nkf3K83dFHjZGfmLUwuEzaItZHngU88OlIDWWDcxRxefOp83jXbMJbHdj_B-9eVnHypDdkw2V2UwMM1by4XC5HMGaKrDaXjah577Z6ahoWsnt8cAzqKkhNBFI9hJWs1bsWG7ZUbYZRkZ7S8ZvZmvw4NRkwMGDEeds2I_LMlljyqZM-WtXyG9yxQZflGUDpF6Xp5ycRnDMqPZ2aKZUfXoGnAfrKDXHUmouCp9RdK69WGBhiOHhdUeGUJh6ZR1HStVHjGh3oQ7tupVDW1TOZqeKoDxkFSxERjdwkRaCFC5YDeJqvgGejNVmXlFeerfhC5REfsEBJiTwZ2mXPwSEwgCdxC0AOg8Z-qUWMtP2KokcYS1WiZgC5vxFiLzv_8J69-__Va2ZmJHlgZ2S2WRfdDgXjJmbE9q2OyDKzWDlRpTykm1Nv0iIanOV5U5VMuHyWMG0r0hFDDPdEg_El8jjXkqV9NUaiworiPnPf6kkeCUFDOj3ySuWoKQ-3eulOI-9AgTy0]--></g></svg>