<?xml version="1.0" encoding="us-ascii" standalone="no"?><svg xmlns="http://www.w3.org/2000/svg" xmlns:xlink="http://www.w3.org/1999/xlink" contentStyleType="text/css" height="782px" preserveAspectRatio="none" style="width:1158px;height:782px;background:#FFFFFF;" version="1.1" viewBox="0 0 1158 782" width="1158px" zoomAndPan="magnify"><defs/><g><!--class CreateVehicleUI--><g id="elem_CreateVehicleUI"><rect codeLine="9" fill="#F1F1F1" height="48" id="CreateVehicleUI" rx="2.5" ry="2.5" style="stroke:#181818;stroke-width:0.5;" width="133" x="7" y="63"/><ellipse cx="22" cy="79" fill="#ADD1B2" rx="11" ry="11" style="stroke:#181818;stroke-width:1.0;"/><path d="M24.7656,74.875 Q24.9219,74.6563 25.1094,74.5469 Q25.2969,74.4375 25.5156,74.4375 Q25.8906,74.4375 26.125,74.7031 Q26.3594,74.9531 26.3594,75.5625 L26.3594,77.0156 Q26.3594,77.625 26.125,77.8906 Q25.8906,78.1563 25.5156,78.1563 Q25.1719,78.1563 24.9688,77.9531 Q24.7656,77.7656 24.6563,77.25 Q24.6094,76.8906 24.4219,76.7031 Q24.0938,76.3281 23.4844,76.1094 Q22.875,75.8906 22.25,75.8906 Q21.4844,75.8906 20.8438,76.2188 Q20.2188,76.5469 19.7188,77.2969 Q19.2344,78.0469 19.2344,79.0781 L19.2344,80.1719 Q19.2344,81.4063 20.125,82.2344 Q21.0156,83.0469 22.6094,83.0469 Q23.5469,83.0469 24.2031,82.7969 Q24.5938,82.6406 25.0156,82.2031 Q25.2813,81.9375 25.4219,81.8594 Q25.5781,81.7813 25.7813,81.7813 Q26.1094,81.7813 26.3594,82.0469 Q26.625,82.2969 26.625,82.6406 Q26.625,82.9844 26.2813,83.3906 Q25.7813,83.9688 24.9844,84.2969 Q23.9063,84.75 22.6094,84.75 Q21.0938,84.75 19.8906,84.125 Q18.9063,83.625 18.2188,82.5625 Q17.5313,81.4844 17.5313,80.2031 L17.5313,79.0469 Q17.5313,77.7188 18.1406,76.5781 Q18.7656,75.4219 19.8594,74.8125 Q20.9531,74.1875 22.1875,74.1875 Q22.9219,74.1875 23.5625,74.3594 Q24.2188,74.5156 24.7656,74.875 Z " fill="#000000"/><text fill="#000000" font-family="sans-serif" font-size="14" lengthAdjust="spacing" textLength="101" x="36" y="84.7969">CreateVehicleUI</text><line style="stroke:#181818;stroke-width:0.5;" x1="8" x2="139" y1="95" y2="95"/><line style="stroke:#181818;stroke-width:0.5;" x1="8" x2="139" y1="103" y2="103"/></g><!--class CreateVehicleController--><g id="elem_CreateVehicleController"><rect codeLine="12" fill="#F1F1F1" height="159.7266" id="CreateVehicleController" rx="2.5" ry="2.5" style="stroke:#181818;stroke-width:0.5;" width="582" x="175.5" y="7"/><ellipse cx="386.75" cy="23" fill="#ADD1B2" rx="11" ry="11" style="stroke:#181818;stroke-width:1.0;"/><path d="M389.5156,18.875 Q389.6719,18.6563 389.8594,18.5469 Q390.0469,18.4375 390.2656,18.4375 Q390.6406,18.4375 390.875,18.7031 Q391.1094,18.9531 391.1094,19.5625 L391.1094,21.0156 Q391.1094,21.625 390.875,21.8906 Q390.6406,22.1563 390.2656,22.1563 Q389.9219,22.1563 389.7188,21.9531 Q389.5156,21.7656 389.4063,21.25 Q389.3594,20.8906 389.1719,20.7031 Q388.8438,20.3281 388.2344,20.1094 Q387.625,19.8906 387,19.8906 Q386.2344,19.8906 385.5938,20.2188 Q384.9688,20.5469 384.4688,21.2969 Q383.9844,22.0469 383.9844,23.0781 L383.9844,24.1719 Q383.9844,25.4063 384.875,26.2344 Q385.7656,27.0469 387.3594,27.0469 Q388.2969,27.0469 388.9531,26.7969 Q389.3438,26.6406 389.7656,26.2031 Q390.0313,25.9375 390.1719,25.8594 Q390.3281,25.7813 390.5313,25.7813 Q390.8594,25.7813 391.1094,26.0469 Q391.375,26.2969 391.375,26.6406 Q391.375,26.9844 391.0313,27.3906 Q390.5313,27.9688 389.7344,28.2969 Q388.6563,28.75 387.3594,28.75 Q385.8438,28.75 384.6406,28.125 Q383.6563,27.625 382.9688,26.5625 Q382.2813,25.4844 382.2813,24.2031 L382.2813,23.0469 Q382.2813,21.7188 382.8906,20.5781 Q383.5156,19.4219 384.6094,18.8125 Q385.7031,18.1875 386.9375,18.1875 Q387.6719,18.1875 388.3125,18.3594 Q388.9688,18.5156 389.5156,18.875 Z " fill="#000000"/><text fill="#000000" font-family="sans-serif" font-size="14" lengthAdjust="spacing" textLength="151" x="407.25" y="28.7969">CreateVehicleController</text><line style="stroke:#181818;stroke-width:0.5;" x1="176.5" x2="756.5" y1="39" y2="39"/><line style="stroke:#181818;stroke-width:0.5;" x1="176.5" x2="756.5" y1="47" y2="47"/><text fill="#000000" font-family="sans-serif" font-size="14" lengthAdjust="spacing" textLength="440" x="181.5" y="66.1074">+createVehicle(registrationPlate : String, brand : String, model : String</text><text fill="#000000" font-family="sans-serif" font-size="14" lengthAdjust="spacing" textLength="172" x="277.5" y="84.7285">, type : String, tare : double</text><text fill="#000000" font-family="sans-serif" font-size="14" lengthAdjust="spacing" textLength="270" x="277.5" y="103.3496">, grossWeight : double, currentKm : double</text><text fill="#000000" font-family="sans-serif" font-size="14" lengthAdjust="spacing" textLength="275" x="277.5" y="121.9707">, registerDate : Date, acquisitionDate : Date</text><text fill="#000000" font-family="sans-serif" font-size="14" lengthAdjust="spacing" textLength="474" x="277.5" y="140.5918">, checkUpKmFrequency : double, checkUpKm : double) : Optional&lt;Vehicle&gt;</text><text fill="#000000" font-family="sans-serif" font-size="14" lengthAdjust="spacing" textLength="278" x="181.5" y="159.2129">+getVehicleRepository() : VehicleRepository</text></g><!--class Repositories--><g id="elem_Repositories"><rect codeLine="17" fill="#F1F1F1" height="103.8633" id="Repositories" rx="2.5" ry="2.5" style="stroke:#181818;stroke-width:0.5;" width="194" x="861.5" y="35"/><ellipse cx="914.75" cy="51" fill="#ADD1B2" rx="11" ry="11" style="stroke:#181818;stroke-width:1.0;"/><path d="M917.5156,46.875 Q917.6719,46.6563 917.8594,46.5469 Q918.0469,46.4375 918.2656,46.4375 Q918.6406,46.4375 918.875,46.7031 Q919.1094,46.9531 919.1094,47.5625 L919.1094,49.0156 Q919.1094,49.625 918.875,49.8906 Q918.6406,50.1563 918.2656,50.1563 Q917.9219,50.1563 917.7188,49.9531 Q917.5156,49.7656 917.4063,49.25 Q917.3594,48.8906 917.1719,48.7031 Q916.8438,48.3281 916.2344,48.1094 Q915.625,47.8906 915,47.8906 Q914.2344,47.8906 913.5938,48.2188 Q912.9688,48.5469 912.4688,49.2969 Q911.9844,50.0469 911.9844,51.0781 L911.9844,52.1719 Q911.9844,53.4063 912.875,54.2344 Q913.7656,55.0469 915.3594,55.0469 Q916.2969,55.0469 916.9531,54.7969 Q917.3438,54.6406 917.7656,54.2031 Q918.0313,53.9375 918.1719,53.8594 Q918.3281,53.7813 918.5313,53.7813 Q918.8594,53.7813 919.1094,54.0469 Q919.375,54.2969 919.375,54.6406 Q919.375,54.9844 919.0313,55.3906 Q918.5313,55.9688 917.7344,56.2969 Q916.6563,56.75 915.3594,56.75 Q913.8438,56.75 912.6406,56.125 Q911.6563,55.625 910.9688,54.5625 Q910.2813,53.4844 910.2813,52.2031 L910.2813,51.0469 Q910.2813,49.7188 910.8906,48.5781 Q911.5156,47.4219 912.6094,46.8125 Q913.7031,46.1875 914.9375,46.1875 Q915.6719,46.1875 916.3125,46.3594 Q916.9688,46.5156 917.5156,46.875 Z " fill="#000000"/><text fill="#000000" font-family="sans-serif" font-size="14" lengthAdjust="spacing" textLength="79" x="935.25" y="56.7969">Repositories</text><line style="stroke:#181818;stroke-width:0.5;" x1="862.5" x2="1054.5" y1="67" y2="67"/><line style="stroke:#181818;stroke-width:0.5;" x1="862.5" x2="1054.5" y1="75" y2="75"/><text fill="#000000" font-family="sans-serif" font-size="14" lengthAdjust="spacing" textLength="94" x="867.5" y="94.1074">-Repositories()</text><text fill="#000000" font-family="sans-serif" font-size="14" lengthAdjust="spacing" textLength="182" x="867.5" y="112.7285">+getInstance() : Repositories</text><text fill="#000000" font-family="sans-serif" font-size="14" lengthAdjust="spacing" textLength="152" x="867.5" y="131.3496">+getVehicleRepository()</text></g><!--class VehicleRepository--><g id="elem_VehicleRepository"><rect codeLine="25" fill="#F1F1F1" height="159.7266" id="VehicleRepository" rx="2.5" ry="2.5" style="stroke:#181818;stroke-width:0.5;" width="327" x="549" y="246"/><ellipse cx="651.25" cy="262" fill="#ADD1B2" rx="11" ry="11" style="stroke:#181818;stroke-width:1.0;"/><path d="M654.0156,257.875 Q654.1719,257.6563 654.3594,257.5469 Q654.5469,257.4375 654.7656,257.4375 Q655.1406,257.4375 655.375,257.7031 Q655.6094,257.9531 655.6094,258.5625 L655.6094,260.0156 Q655.6094,260.625 655.375,260.8906 Q655.1406,261.1563 654.7656,261.1563 Q654.4219,261.1563 654.2188,260.9531 Q654.0156,260.7656 653.9063,260.25 Q653.8594,259.8906 653.6719,259.7031 Q653.3438,259.3281 652.7344,259.1094 Q652.125,258.8906 651.5,258.8906 Q650.7344,258.8906 650.0938,259.2188 Q649.4688,259.5469 648.9688,260.2969 Q648.4844,261.0469 648.4844,262.0781 L648.4844,263.1719 Q648.4844,264.4063 649.375,265.2344 Q650.2656,266.0469 651.8594,266.0469 Q652.7969,266.0469 653.4531,265.7969 Q653.8438,265.6406 654.2656,265.2031 Q654.5313,264.9375 654.6719,264.8594 Q654.8281,264.7813 655.0313,264.7813 Q655.3594,264.7813 655.6094,265.0469 Q655.875,265.2969 655.875,265.6406 Q655.875,265.9844 655.5313,266.3906 Q655.0313,266.9688 654.2344,267.2969 Q653.1563,267.75 651.8594,267.75 Q650.3438,267.75 649.1406,267.125 Q648.1563,266.625 647.4688,265.5625 Q646.7813,264.4844 646.7813,263.2031 L646.7813,262.0469 Q646.7813,260.7188 647.3906,259.5781 Q648.0156,258.4219 649.1094,257.8125 Q650.2031,257.1875 651.4375,257.1875 Q652.1719,257.1875 652.8125,257.3594 Q653.4688,257.5156 654.0156,257.875 Z " fill="#000000"/><text fill="#000000" font-family="sans-serif" font-size="14" lengthAdjust="spacing" textLength="114" x="671.75" y="267.7969">VehicleRepository</text><line style="stroke:#181818;stroke-width:0.5;" x1="550" x2="875" y1="278" y2="278"/><text fill="#000000" font-family="sans-serif" font-size="14" lengthAdjust="spacing" textLength="174" x="555" y="297.1074">-vehiclesList : List&lt;Vehicle&gt;</text><line style="stroke:#181818;stroke-width:0.5;" x1="550" x2="875" y1="304.6211" y2="304.6211"/><text fill="#000000" font-family="sans-serif" font-size="14" lengthAdjust="spacing" textLength="294" x="555" y="323.7285">+getVehicle(registrationPlate : String) : Vehicle</text><text fill="#000000" font-family="sans-serif" font-size="14" lengthAdjust="spacing" textLength="187" x="555" y="342.3496">+getVehicles() : List&lt;Vehicle&gt;</text><text fill="#000000" font-family="sans-serif" font-size="14" lengthAdjust="spacing" textLength="248" x="555" y="360.9707">+updateVehicle(vehicle : Vehicle) : void</text><text fill="#000000" font-family="sans-serif" font-size="14" lengthAdjust="spacing" textLength="315" x="555" y="379.5918">+existsVehicle(registrationPlate : String) : Boolean</text><text fill="#000000" font-family="sans-serif" font-size="14" lengthAdjust="spacing" textLength="271" x="555" y="398.2129">+add(vehicle : Vehicle) : Optional&lt;Vehicle&gt;</text></g><!--class Vehicle--><g id="elem_Vehicle"><rect codeLine="35" fill="#F1F1F1" height="308.6953" id="Vehicle" rx="2.5" ry="2.5" style="stroke:#181818;stroke-width:0.5;" width="219" x="603" y="467"/><ellipse cx="685.25" cy="483" fill="#ADD1B2" rx="11" ry="11" style="stroke:#181818;stroke-width:1.0;"/><path d="M688.0156,478.875 Q688.1719,478.6563 688.3594,478.5469 Q688.5469,478.4375 688.7656,478.4375 Q689.1406,478.4375 689.375,478.7031 Q689.6094,478.9531 689.6094,479.5625 L689.6094,481.0156 Q689.6094,481.625 689.375,481.8906 Q689.1406,482.1563 688.7656,482.1563 Q688.4219,482.1563 688.2188,481.9531 Q688.0156,481.7656 687.9063,481.25 Q687.8594,480.8906 687.6719,480.7031 Q687.3438,480.3281 686.7344,480.1094 Q686.125,479.8906 685.5,479.8906 Q684.7344,479.8906 684.0938,480.2188 Q683.4688,480.5469 682.9688,481.2969 Q682.4844,482.0469 682.4844,483.0781 L682.4844,484.1719 Q682.4844,485.4063 683.375,486.2344 Q684.2656,487.0469 685.8594,487.0469 Q686.7969,487.0469 687.4531,486.7969 Q687.8438,486.6406 688.2656,486.2031 Q688.5313,485.9375 688.6719,485.8594 Q688.8281,485.7813 689.0313,485.7813 Q689.3594,485.7813 689.6094,486.0469 Q689.875,486.2969 689.875,486.6406 Q689.875,486.9844 689.5313,487.3906 Q689.0313,487.9688 688.2344,488.2969 Q687.1563,488.75 685.8594,488.75 Q684.3438,488.75 683.1406,488.125 Q682.1563,487.625 681.4688,486.5625 Q680.7813,485.4844 680.7813,484.2031 L680.7813,483.0469 Q680.7813,481.7188 681.3906,480.5781 Q682.0156,479.4219 683.1094,478.8125 Q684.2031,478.1875 685.4375,478.1875 Q686.1719,478.1875 686.8125,478.3594 Q687.4688,478.5156 688.0156,478.875 Z " fill="#000000"/><text fill="#000000" font-family="sans-serif" font-size="14" lengthAdjust="spacing" textLength="46" x="705.75" y="488.7969">Vehicle</text><line style="stroke:#181818;stroke-width:0.5;" x1="604" x2="821" y1="499" y2="499"/><text fill="#000000" font-family="sans-serif" font-size="14" lengthAdjust="spacing" textLength="157" x="609" y="518.1074">-registrationPlate : String</text><text fill="#000000" font-family="sans-serif" font-size="14" lengthAdjust="spacing" textLength="91" x="609" y="536.7285">-brand : String</text><text fill="#000000" font-family="sans-serif" font-size="14" lengthAdjust="spacing" textLength="92" x="609" y="555.3496">-model : String</text><text fill="#000000" font-family="sans-serif" font-size="14" lengthAdjust="spacing" textLength="81" x="609" y="573.9707">-type : String</text><text fill="#000000" font-family="sans-serif" font-size="14" lengthAdjust="spacing" textLength="85" x="609" y="592.5918">-tare : double</text><text fill="#000000" font-family="sans-serif" font-size="14" lengthAdjust="spacing" textLength="139" x="609" y="611.2129">-grossWeight : double</text><text fill="#000000" font-family="sans-serif" font-size="14" lengthAdjust="spacing" textLength="125" x="609" y="629.834">-currentKm : double</text><text fill="#000000" font-family="sans-serif" font-size="14" lengthAdjust="spacing" textLength="125" x="609" y="648.4551">-registerDate : Date</text><text fill="#000000" font-family="sans-serif" font-size="14" lengthAdjust="spacing" textLength="144" x="609" y="667.0762">-acquisitionDate : Date</text><text fill="#000000" font-family="sans-serif" font-size="14" lengthAdjust="spacing" textLength="202" x="609" y="685.6973">-checkUpKmFrequency : double</text><text fill="#000000" font-family="sans-serif" font-size="14" lengthAdjust="spacing" textLength="134" x="609" y="704.3184">-checkUpKm : double</text><text fill="#000000" font-family="sans-serif" font-size="14" lengthAdjust="spacing" textLength="177" x="609" y="722.9395">-KmAtLastCheckUp : double</text><text fill="#000000" font-family="sans-serif" font-size="14" lengthAdjust="spacing" textLength="207" x="609" y="741.5605">-checkUps : ArrayList&lt;CheckUp&gt;</text><line style="stroke:#181818;stroke-width:0.5;" x1="604" x2="821" y1="749.0742" y2="749.0742"/><text fill="#000000" font-family="sans-serif" font-size="14" lengthAdjust="spacing" textLength="110" x="609" y="768.1816">+clone() : Vehicle</text></g><!--link CreateVehicleUI to CreateVehicleController--><g id="link_CreateVehicleUI_CreateVehicleController"><path codeLine="53" d="M140.15,87 C152.54,87 158.87,87 169.38,87 " fill="none" id="CreateVehicleUI-to-CreateVehicleController" style="stroke:#181818;stroke-width:1.0;stroke-dasharray:7.0,7.0;"/><polygon fill="#181818" points="175.38,87,166.38,83,170.38,87,166.38,91,175.38,87" style="stroke:#181818;stroke-width:1.0;"/></g><!--link CreateVehicleController to Repositories--><g id="link_CreateVehicleController_Repositories"><path codeLine="55" d="M757.68,87 C794.81,87 824.53,87 855.28,87 " fill="none" id="CreateVehicleController-to-Repositories" style="stroke:#181818;stroke-width:1.0;stroke-dasharray:7.0,7.0;"/><polygon fill="#181818" points="861.28,87,852.28,83,856.28,87,852.28,91,861.28,87" style="stroke:#181818;stroke-width:1.0;"/><text fill="#000000" font-family="sans-serif" font-size="13" lengthAdjust="spacing" textLength="67" x="776" y="80.0283">repositories</text></g><!--link CreateVehicleController to VehicleRepository--><g id="link_CreateVehicleController_VehicleRepository"><path codeLine="56" d="M548.76,167.25 C575.02,192.55 599.7499,216.3663 625.9999,241.6663 " fill="none" id="CreateVehicleController-to-VehicleRepository" style="stroke:#181818;stroke-width:1.0;stroke-dasharray:7.0,7.0;"/><polygon fill="#181818" points="630.32,245.83,626.6157,236.7043,626.7199,242.3602,621.064,242.4644,630.32,245.83" style="stroke:#181818;stroke-width:1.0;"/><text fill="#000000" font-family="sans-serif" font-size="13" lengthAdjust="spacing" textLength="101" x="598.5" y="212.0283">vehicleRepository</text></g><!--link Repositories to Repositories--><g id="link_Repositories_Repositories"><path codeLine="60" d="M1055.78,65.65 C1075.98,67.9 1090.5,75.02 1090.5,87 C1090.5,98.98 1081.9431,105.4358 1061.7431,107.6858 " fill="none" id="Repositories-to-Repositories" style="stroke:#181818;stroke-width:1.0;"/><polygon fill="#181818" points="1055.78,108.35,1065.1675,111.3291,1060.7493,107.7965,1064.2819,103.3783,1055.78,108.35" style="stroke:#181818;stroke-width:1.0;"/><text fill="#000000" font-family="sans-serif" font-size="13" lengthAdjust="spacing" textLength="49" x="1096.5" y="92.5283">instance</text></g><!--link Repositories to VehicleRepository--><g id="link_Repositories_VehicleRepository"><path codeLine="61" d="M905.42,139.13 C873.08,170.3 835.3905,206.5967 798.8405,241.8167 " fill="none" id="Repositories-to-VehicleRepository" style="stroke:#181818;stroke-width:1.0;"/><polygon fill="#181818" points="794.52,245.98,803.7763,242.6154,798.1204,242.5106,798.2252,236.8547,794.52,245.98" style="stroke:#181818;stroke-width:1.0;"/><text fill="#000000" font-family="sans-serif" font-size="13" lengthAdjust="spacing" textLength="7" x="794.7586" y="234.8739">1</text></g><!--link VehicleRepository to Vehicle--><g id="link_VehicleRepository_Vehicle"><path codeLine="63" d="M712.5,406.04 C712.5,424.97 712.5,439.83 712.5,460.87 " fill="none" id="VehicleRepository-to-Vehicle" style="stroke:#181818;stroke-width:1.0;"/><polygon fill="#181818" points="712.5,466.87,716.5,457.87,712.5,461.87,708.5,457.87,712.5,466.87" style="stroke:#181818;stroke-width:1.0;"/><text fill="#000000" font-family="sans-serif" font-size="13" lengthAdjust="spacing" textLength="7" x="705.1992" y="427.7015">1</text><text fill="#000000" font-family="sans-serif" font-size="13" lengthAdjust="spacing" textLength="5" x="707.3711" y="455.5023">*</text></g><!--SRC=[ZLHTRziW57tthq1vQRgbK_SQJPMoL9EYLEhKgDlBNWY-Sr0mk1VSrPlwtmSsiS4VKNYnkVUS-mK7VUIoe4XpKb1sf1diJ2M08313PIOWqIr07sYg_d2PaTzKwD0Zk0HJ5K0A9IgtIQv6d0gDIW8M4rJhbJ78zwM13LDon_y2kRq8Kpl86e4Q-047pWGyRyY_v3qPSwsLDAY40BGGOjT7maB_727ZsY0rNCdlmZh8akniLfajo1wfJ8Dzhb8GxVwN91DhGUgsEwAXwBQfAlS2pl4oL5h_19uTJ8jV45OYWZJR_A8OJKU0zqqpxhCWbBsKN7FNPM0_5uOTW1sVYst-3U6b1CcgiAAJixLTsx_7miMdueiVxfsVU0R6MvwWKBOAXTNS4GRMxXHR6mVjZ-ucCiwlk-WRgUsbPL073K5d2qXSDfzku6vplZOU_M27QgExJzVV8FwP-nGqFA3fkl8uTeCfYpIuhRwOBfAZlIgUUZIysH3wibg-AYM0Ii-aQJeUVNYexxsXjQEQpkS1iQ2yCLQLDqO2Ejb25NdRc62yQwYQgCn88Duphf9Jl6b1z15znpPVcGUgpRe1JF2qjQyGQLNV0uzjxnWJIaAe6dSE_MVmqztKyzV31k-YvKHYMze11GgQf5dUK3NBaru2JTiL9RWP9EHUlpsS1Su-pyZ8Cv4CCpjapVWmQoUK_0S0]--></g></svg>