<?xml version="1.0" encoding="us-ascii" standalone="no"?><svg xmlns="http://www.w3.org/2000/svg" xmlns:xlink="http://www.w3.org/1999/xlink" contentStyleType="text/css" height="568px" preserveAspectRatio="none" style="width:1005px;height:568px;background:#FFFFFF;" version="1.1" viewBox="0 0 1005 568" width="1005px" zoomAndPan="magnify"><defs/><g><rect fill="#FFFFFF" height="412.4922" style="stroke:#181818;stroke-width:1.0;" width="10" x="357" y="90.5332"/><rect fill="#FFFFFF" height="412.4922" style="stroke:#181818;stroke-width:1.0;" width="10" x="357" y="90.5332"/><rect fill="#FFFFFF" height="230.0371" style="stroke:#181818;stroke-width:1.0;" width="10" x="362" y="156.1152"/><rect fill="#FFFFFF" height="31.291" style="stroke:#181818;stroke-width:1.0;" width="10" x="586" y="192.4063"/><rect fill="#FFFFFF" height="31.291" style="stroke:#181818;stroke-width:1.0;" width="10" x="693" y="254.9883"/><rect fill="#FFFFFF" height="31.291" style="stroke:#181818;stroke-width:1.0;" width="10" x="823" y="317.5703"/><rect fill="#FFFFFF" height="31.291" style="stroke:#181818;stroke-width:1.0;" width="10" x="944.5" y="424.4434"/><rect fill="none" height="358.2012" style="stroke:#000000;stroke-width:1.5;" width="765" x="234.5" y="105.5332"/><line style="stroke:#181818;stroke-width:0.5;stroke-dasharray:5.0,5.0;" x1="356.5" x2="356.5" y1="57.2422" y2="512.0254"/><line style="stroke:#181818;stroke-width:0.5;stroke-dasharray:5.0,5.0;" x1="590.5" x2="590.5" y1="57.2422" y2="512.0254"/><line style="stroke:#181818;stroke-width:0.5;stroke-dasharray:5.0,5.0;" x1="697.5" x2="697.5" y1="57.2422" y2="512.0254"/><line style="stroke:#181818;stroke-width:0.5;stroke-dasharray:5.0,5.0;" x1="827.5" x2="827.5" y1="57.2422" y2="512.0254"/><line style="stroke:#181818;stroke-width:0.5;stroke-dasharray:5.0,5.0;" x1="949.5" x2="949.5" y1="57.2422" y2="512.0254"/><rect fill="#E3E3E3" height="32.6211" rx="2.5" ry="2.5" style="stroke:#181818;stroke-width:0.5;" width="225" x="244.5" y="23.6211"/><text fill="#000000" font-family="sans-serif" font-size="14" lengthAdjust="spacing" textLength="211" x="251.5" y="45.7285">:AssignSkillCollaboratorController</text><rect fill="#E3E3E3" height="32.6211" rx="2.5" ry="2.5" style="stroke:#181818;stroke-width:0.5;" width="225" x="244.5" y="511.0254"/><text fill="#000000" font-family="sans-serif" font-size="14" lengthAdjust="spacing" textLength="211" x="251.5" y="533.1328">:AssignSkillCollaboratorController</text><rect fill="#E3E3E3" height="32.6211" rx="2.5" ry="2.5" style="stroke:#181818;stroke-width:0.5;" width="97" x="542.5" y="23.6211"/><text fill="#000000" font-family="sans-serif" font-size="14" lengthAdjust="spacing" textLength="83" x="549.5" y="45.7285">:Repositories</text><rect fill="#E3E3E3" height="32.6211" rx="2.5" ry="2.5" style="stroke:#181818;stroke-width:0.5;" width="97" x="542.5" y="511.0254"/><text fill="#000000" font-family="sans-serif" font-size="14" lengthAdjust="spacing" textLength="83" x="549.5" y="533.1328">:Repositories</text><rect fill="#E3E3E3" height="51.2422" rx="2.5" ry="2.5" style="stroke:#181818;stroke-width:0.5;" width="97" x="649.5" y="5"/><text fill="#000000" font-family="sans-serif" font-size="14" lengthAdjust="spacing" textLength="74" x="661" y="27.1074">repositories</text><text fill="#000000" font-family="sans-serif" font-size="14" lengthAdjust="spacing" textLength="83" x="656.5" y="45.7285">:Repositories</text><rect fill="#E3E3E3" height="51.2422" rx="2.5" ry="2.5" style="stroke:#181818;stroke-width:0.5;" width="97" x="649.5" y="511.0254"/><text fill="#000000" font-family="sans-serif" font-size="14" lengthAdjust="spacing" textLength="74" x="661" y="533.1328">repositories</text><text fill="#000000" font-family="sans-serif" font-size="14" lengthAdjust="spacing" textLength="83" x="656.5" y="551.7539">:Repositories</text><rect fill="#E3E3E3" height="32.6211" rx="2.5" ry="2.5" style="stroke:#181818;stroke-width:0.5;" width="143" x="756.5" y="23.6211"/><text fill="#000000" font-family="sans-serif" font-size="14" lengthAdjust="spacing" textLength="129" x="763.5" y="45.7285">employeeRepository</text><rect fill="#E3E3E3" height="32.6211" rx="2.5" ry="2.5" style="stroke:#181818;stroke-width:0.5;" width="143" x="756.5" y="511.0254"/><text fill="#000000" font-family="sans-serif" font-size="14" lengthAdjust="spacing" textLength="129" x="763.5" y="533.1328">employeeRepository</text><rect fill="#E3E3E3" height="51.2422" rx="2.5" ry="2.5" style="stroke:#181818;stroke-width:0.5;" width="80" x="909.5" y="5"/><text fill="#000000" font-family="sans-serif" font-size="14" lengthAdjust="spacing" textLength="61" x="919" y="27.1074">employee</text><text fill="#000000" font-family="sans-serif" font-size="14" lengthAdjust="spacing" textLength="66" x="916.5" y="45.7285">:Employee</text><rect fill="#E3E3E3" height="51.2422" rx="2.5" ry="2.5" style="stroke:#181818;stroke-width:0.5;" width="80" x="909.5" y="511.0254"/><text fill="#000000" font-family="sans-serif" font-size="14" lengthAdjust="spacing" textLength="61" x="919" y="533.1328">employee</text><text fill="#000000" font-family="sans-serif" font-size="14" lengthAdjust="spacing" textLength="66" x="916.5" y="551.7539">:Employee</text><rect fill="#FFFFFF" height="412.4922" style="stroke:#181818;stroke-width:1.0;" width="10" x="357" y="90.5332"/><rect fill="#FFFFFF" height="412.4922" style="stroke:#181818;stroke-width:1.0;" width="10" x="357" y="90.5332"/><rect fill="#FFFFFF" height="230.0371" style="stroke:#181818;stroke-width:1.0;" width="10" x="362" y="156.1152"/><rect fill="#FFFFFF" height="31.291" style="stroke:#181818;stroke-width:1.0;" width="10" x="586" y="192.4063"/><rect fill="#FFFFFF" height="31.291" style="stroke:#181818;stroke-width:1.0;" width="10" x="693" y="254.9883"/><rect fill="#FFFFFF" height="31.291" style="stroke:#181818;stroke-width:1.0;" width="10" x="823" y="317.5703"/><rect fill="#FFFFFF" height="31.291" style="stroke:#181818;stroke-width:1.0;" width="10" x="944.5" y="424.4434"/><polygon fill="#181818" points="340,86.5332,350,90.5332,340,94.5332,344,90.5332" style="stroke:#181818;stroke-width:1.0;"/><line style="stroke:#181818;stroke-width:1.0;" x1="0" x2="346" y1="90.5332" y2="90.5332"/><text fill="#000000" font-family="sans-serif" font-size="13" font-weight="bold" lengthAdjust="spacing" textLength="14" x="7" y="85.2705">10</text><text fill="#000000" font-family="sans-serif" font-size="13" lengthAdjust="spacing" textLength="315" x="25" y="85.2705">addSkillToCollaboratorProfile(collaborator, skillsToAdd)</text><path d="M234.5,105.5332 L481.5,105.5332 L481.5,114.8242 L471.5,124.8242 L234.5,124.8242 L234.5,105.5332 " fill="#EEEEEE" style="stroke:#000000;stroke-width:1.5;"/><rect fill="none" height="358.2012" style="stroke:#000000;stroke-width:1.5;" width="765" x="234.5" y="105.5332"/><text fill="#000000" font-family="sans-serif" font-size="13" font-weight="bold" lengthAdjust="spacing" textLength="202" x="249.5" y="120.5615">Add Skill to Collaborator Profile</text><line style="stroke:#181818;stroke-width:1.0;" x1="367" x2="414" y1="143.1152" y2="143.1152"/><line style="stroke:#181818;stroke-width:1.0;" x1="414" x2="414" y1="143.1152" y2="156.1152"/><line style="stroke:#181818;stroke-width:1.0;" x1="373" x2="414" y1="156.1152" y2="156.1152"/><polygon fill="#181818" points="383,152.1152,373,156.1152,383,160.1152,379,156.1152" style="stroke:#181818;stroke-width:1.0;"/><text fill="#000000" font-family="sans-serif" font-size="13" font-weight="bold" lengthAdjust="spacing" textLength="25" x="379" y="137.8525">10.1</text><text fill="#000000" font-family="sans-serif" font-size="13" lengthAdjust="spacing" textLength="176" x="408" y="137.8525">getEmployeeFromRepository()</text><polygon fill="#181818" points="574,188.4063,584,192.4063,574,196.4063,578,192.4063" style="stroke:#181818;stroke-width:1.0;"/><line style="stroke:#181818;stroke-width:1.0;" x1="372" x2="580" y1="192.4063" y2="192.4063"/><text fill="#000000" font-family="sans-serif" font-size="13" font-weight="bold" lengthAdjust="spacing" textLength="25" x="379" y="187.1436">10.2</text><text fill="#000000" font-family="sans-serif" font-size="13" lengthAdjust="spacing" textLength="75" x="408" y="187.1436">getInstance()</text><polygon fill="#181818" points="383,219.6973,373,223.6973,383,227.6973,379,223.6973" style="stroke:#181818;stroke-width:1.0;"/><line style="stroke:#181818;stroke-width:1.0;stroke-dasharray:2.0,2.0;" x1="377" x2="590" y1="223.6973" y2="223.6973"/><text fill="#000000" font-family="sans-serif" font-size="13" font-weight="bold" lengthAdjust="spacing" textLength="25" x="389" y="218.4346">10.3</text><text fill="#000000" font-family="sans-serif" font-size="13" lengthAdjust="spacing" textLength="67" x="418" y="218.4346">repositories</text><polygon fill="#181818" points="681,250.9883,691,254.9883,681,258.9883,685,254.9883" style="stroke:#181818;stroke-width:1.0;"/><line style="stroke:#181818;stroke-width:1.0;" x1="372" x2="687" y1="254.9883" y2="254.9883"/><text fill="#000000" font-family="sans-serif" font-size="13" font-weight="bold" lengthAdjust="spacing" textLength="25" x="379" y="249.7256">10.4</text><text fill="#000000" font-family="sans-serif" font-size="13" lengthAdjust="spacing" textLength="156" x="408" y="249.7256">getEmployeeRepositories()</text><polygon fill="#181818" points="383,282.2793,373,286.2793,383,290.2793,379,286.2793" style="stroke:#181818;stroke-width:1.0;"/><line style="stroke:#181818;stroke-width:1.0;stroke-dasharray:2.0,2.0;" x1="377" x2="697" y1="286.2793" y2="286.2793"/><text fill="#000000" font-family="sans-serif" font-size="13" font-weight="bold" lengthAdjust="spacing" textLength="25" x="389" y="281.0166">10.5</text><text fill="#000000" font-family="sans-serif" font-size="13" lengthAdjust="spacing" textLength="130" x="418" y="281.0166">EmployeeRepositories</text><polygon fill="#181818" points="811,313.5703,821,317.5703,811,321.5703,815,317.5703" style="stroke:#181818;stroke-width:1.0;"/><line style="stroke:#181818;stroke-width:1.0;" x1="372" x2="817" y1="317.5703" y2="317.5703"/><text fill="#000000" font-family="sans-serif" font-size="13" font-weight="bold" lengthAdjust="spacing" textLength="25" x="379" y="312.3076">10.6</text><text fill="#000000" font-family="sans-serif" font-size="13" lengthAdjust="spacing" textLength="84" x="408" y="312.3076">getEmployee()</text><polygon fill="#181818" points="383,344.8613,373,348.8613,383,352.8613,379,348.8613" style="stroke:#181818;stroke-width:1.0;"/><line style="stroke:#181818;stroke-width:1.0;stroke-dasharray:2.0,2.0;" x1="377" x2="827" y1="348.8613" y2="348.8613"/><text fill="#000000" font-family="sans-serif" font-size="13" font-weight="bold" lengthAdjust="spacing" textLength="25" x="389" y="343.5986">10.7</text><text fill="#000000" font-family="sans-serif" font-size="13" lengthAdjust="spacing" textLength="56" x="418" y="343.5986">employee</text><line style="stroke:#181818;stroke-width:1.0;stroke-dasharray:2.0,2.0;" x1="372" x2="414" y1="385.1523" y2="385.1523"/><line style="stroke:#181818;stroke-width:1.0;stroke-dasharray:2.0,2.0;" x1="414" x2="414" y1="385.1523" y2="398.1523"/><line style="stroke:#181818;stroke-width:1.0;stroke-dasharray:2.0,2.0;" x1="367" x2="414" y1="398.1523" y2="398.1523"/><polygon fill="#181818" points="377,394.1523,367,398.1523,377,402.1523,373,398.1523" style="stroke:#181818;stroke-width:1.0;"/><text fill="#000000" font-family="sans-serif" font-size="13" font-weight="bold" lengthAdjust="spacing" textLength="25" x="379" y="379.8896">10.8</text><text fill="#000000" font-family="sans-serif" font-size="13" lengthAdjust="spacing" textLength="56" x="408" y="379.8896">employee</text><polygon fill="#181818" points="932.5,420.4434,942.5,424.4434,932.5,428.4434,936.5,424.4434" style="stroke:#181818;stroke-width:1.0;"/><line style="stroke:#181818;stroke-width:1.0;" x1="367" x2="938.5" y1="424.4434" y2="424.4434"/><text fill="#000000" font-family="sans-serif" font-size="13" font-weight="bold" lengthAdjust="spacing" textLength="25" x="374" y="419.1807">10.9</text><text fill="#000000" font-family="sans-serif" font-size="13" lengthAdjust="spacing" textLength="315" x="403" y="419.1807">addSkillToCollaboratorProfile(collaborator, skillsToAdd)</text><polygon fill="#181818" points="378,451.7344,368,455.7344,378,459.7344,374,455.7344" style="stroke:#181818;stroke-width:1.0;"/><line style="stroke:#181818;stroke-width:1.0;stroke-dasharray:2.0,2.0;" x1="372" x2="948.5" y1="455.7344" y2="455.7344"/><text fill="#000000" font-family="sans-serif" font-size="13" font-weight="bold" lengthAdjust="spacing" textLength="32" x="384" y="450.4717">10.10</text><text fill="#000000" font-family="sans-serif" font-size="13" lengthAdjust="spacing" textLength="172" x="420" y="450.4717">add skill to collaborator profile</text><polygon fill="#181818" points="11,490.0254,1,494.0254,11,498.0254,7,494.0254" style="stroke:#181818;stroke-width:1.0;"/><line style="stroke:#181818;stroke-width:1.0;stroke-dasharray:2.0,2.0;" x1="5" x2="351" y1="494.0254" y2="494.0254"/><text fill="#000000" font-family="sans-serif" font-size="13" font-weight="bold" lengthAdjust="spacing" textLength="14" x="17" y="488.7627">11</text><text fill="#000000" font-family="sans-serif" font-size="13" lengthAdjust="spacing" textLength="172" x="35" y="488.7627">add skill to collaborator profile</text><!--SRC=[lLPRQy8m57xlhpZioS4wvgiCGMGR0s6YVTnBR8yrc2ObIJVyzqjIgwaMvcYwyzRatBvyvrArfxmaaXHG22xIdHG5WfOLHkfqKv9qJt9SwmD3a9XgmdFcAwWToSGtvJbi2LCO6J4NcgQq95p3tMIc5CtvUayPcml6o4P8eeMS2wwb-KPv1qJ1F5ajBWnNM0f5ZIf5vNHE1uSrjLbemTicqhFuvDSEbejPqhR0ecJYW7XsxHHVhewxpKoGHjNPVQpU37vIcSogOeCInazHF7NW9a2opBr28lntM4gnfGn7gNVs0CeggaJCikp-mk7ZE2Affbz4O_rgkHHL2KOJd7lG0lm0S8mGGIrjO_XLh5eyhI7ag1kyhwPQpiypCbb2AFbhXZUAzGQ6ZOuo0WVjdIjJtYaQCE6nT1Llk31TcE9ZvHbmVcE42vhXFw5hcBFz2wqgz5jy4DhSo0W8nK7mcEa2CWX3eO4qd5oFoXP1Wv3ICPw31RdsRUcgnrypzWSXg0DK58ofWI1uwVUVrKr5cIKAFRPbc19pcxoNAml3QtI3fyxJxcS_VIZR-xat4pPrvDcnsVr_Xt7q7CUt9nJz0000]--></g></svg>