<?xml version="1.0" encoding="us-ascii" standalone="no"?><svg xmlns="http://www.w3.org/2000/svg" xmlns:xlink="http://www.w3.org/1999/xlink" contentStyleType="text/css" height="898px" preserveAspectRatio="none" style="width:822px;height:898px;background:#FFFFFF;" version="1.1" viewBox="0 0 822 898" width="822px" zoomAndPan="magnify"><defs/><g><rect fill="#FFFFFF" height="704.2559" style="stroke:#181818;stroke-width:1.0;" width="10" x="33" y="93.6211"/><rect fill="#FFFFFF" height="174.0469" style="stroke:#181818;stroke-width:1.0;" width="10" x="327" y="165.1641"/><rect fill="#FFFFFF" height="184.377" style="stroke:#181818;stroke-width:1.0;" width="10" x="327" y="370.502"/><rect fill="#FFFFFF" height="142.125" style="stroke:#181818;stroke-width:1.0;" width="10" x="327" y="586.1699"/><rect fill="#FFFFFF" height="31.291" style="stroke:#181818;stroke-width:1.0;" width="10" x="327" y="766.5859"/><rect fill="#FFFFFF" height="111.4648" style="stroke:#181818;stroke-width:1.0;" width="10" x="689" y="196.4551"/><rect fill="#FFFFFF" height="95.5039" style="stroke:#181818;stroke-width:1.0;" width="10" x="689" y="428.084"/><rect fill="#FFFFFF" height="79.543" style="stroke:#181818;stroke-width:1.0;" width="10" x="689" y="617.4609"/><rect fill="none" height="350.793" style="stroke:#000000;stroke-width:1.5;" width="806.5" x="10" y="385.502"/><line style="stroke:#181818;stroke-width:0.5;stroke-dasharray:5.0,5.0;" x1="38" x2="38" y1="83.6211" y2="815.877"/><line style="stroke:#181818;stroke-width:0.5;stroke-dasharray:5.0,5.0;" x1="331.5" x2="331.5" y1="83.6211" y2="815.877"/><line style="stroke:#181818;stroke-width:0.5;stroke-dasharray:5.0,5.0;" x1="693.5" x2="693.5" y1="83.6211" y2="815.877"/><text fill="#000000" font-family="sans-serif" font-size="14" lengthAdjust="spacing" textLength="30" x="20" y="80.1074">HRM</text><ellipse cx="38" cy="13.5" fill="#E3E3E3" rx="8" ry="8" style="stroke:#181818;stroke-width:0.5;"/><path d="M38,21.5 L38,48.5 M25,29.5 L51,29.5 M38,48.5 L25,63.5 M38,48.5 L51,63.5 " fill="none" style="stroke:#181818;stroke-width:0.5;"/><text fill="#000000" font-family="sans-serif" font-size="14" lengthAdjust="spacing" textLength="30" x="20" y="829.9844">HRM</text><ellipse cx="38" cy="841.998" fill="#E3E3E3" rx="8" ry="8" style="stroke:#181818;stroke-width:0.5;"/><path d="M38,849.998 L38,876.998 M25,857.998 L51,857.998 M38,876.998 L25,891.998 M38,876.998 L51,891.998 " fill="none" style="stroke:#181818;stroke-width:0.5;"/><rect fill="#E3E3E3" height="32.6211" rx="2.5" ry="2.5" style="stroke:#181818;stroke-width:0.5;" width="175" x="244.5" y="50"/><text fill="#000000" font-family="sans-serif" font-size="14" lengthAdjust="spacing" textLength="161" x="251.5" y="72.1074">:AssignSkillCollaboratorUI</text><rect fill="#E3E3E3" height="32.6211" rx="2.5" ry="2.5" style="stroke:#181818;stroke-width:0.5;" width="175" x="244.5" y="814.877"/><text fill="#000000" font-family="sans-serif" font-size="14" lengthAdjust="spacing" textLength="161" x="251.5" y="836.9844">:AssignSkillCollaboratorUI</text><rect fill="#E3E3E3" height="32.6211" rx="2.5" ry="2.5" style="stroke:#181818;stroke-width:0.5;" width="225" x="581.5" y="50"/><text fill="#000000" font-family="sans-serif" font-size="14" lengthAdjust="spacing" textLength="211" x="588.5" y="72.1074">:AssignSkillCollaboratorController</text><rect fill="#E3E3E3" height="32.6211" rx="2.5" ry="2.5" style="stroke:#181818;stroke-width:0.5;" width="225" x="581.5" y="814.877"/><text fill="#000000" font-family="sans-serif" font-size="14" lengthAdjust="spacing" textLength="211" x="588.5" y="836.9844">:AssignSkillCollaboratorController</text><rect fill="#FFFFFF" height="704.2559" style="stroke:#181818;stroke-width:1.0;" width="10" x="33" y="93.6211"/><rect fill="#FFFFFF" height="174.0469" style="stroke:#181818;stroke-width:1.0;" width="10" x="327" y="165.1641"/><rect fill="#FFFFFF" height="184.377" style="stroke:#181818;stroke-width:1.0;" width="10" x="327" y="370.502"/><rect fill="#FFFFFF" height="142.125" style="stroke:#181818;stroke-width:1.0;" width="10" x="327" y="586.1699"/><rect fill="#FFFFFF" height="31.291" style="stroke:#181818;stroke-width:1.0;" width="10" x="327" y="766.5859"/><rect fill="#FFFFFF" height="111.4648" style="stroke:#181818;stroke-width:1.0;" width="10" x="689" y="196.4551"/><rect fill="#FFFFFF" height="95.5039" style="stroke:#181818;stroke-width:1.0;" width="10" x="689" y="428.084"/><rect fill="#FFFFFF" height="79.543" style="stroke:#181818;stroke-width:1.0;" width="10" x="689" y="617.4609"/><rect fill="none" height="43.252" style="stroke:#000000;stroke-width:1.5;" width="405.5" x="17" y="93.6211"/><path d="M17,93.6211 L79,93.6211 L79,102.6211 L69,112.6211 L17,112.6211 L17,93.6211 " fill="#EEEEEE" style="stroke:#000000;stroke-width:2.0;"/><text fill="#000000" font-family="sans-serif" font-size="13" font-weight="bold" lengthAdjust="spacing" textLength="17" x="30" y="109.6494">ref</text><text fill="#000000" font-family="sans-serif" font-size="12" lengthAdjust="spacing" textLength="308" x="65.75" y="129.5703">This action assumes that the user has already logged in</text><polygon fill="#181818" points="315,161.1641,325,165.1641,315,169.1641,319,165.1641" style="stroke:#181818;stroke-width:1.0;"/><line style="stroke:#181818;stroke-width:1.0;" x1="43" x2="321" y1="165.1641" y2="165.1641"/><text fill="#000000" font-family="sans-serif" font-size="13" font-weight="bold" lengthAdjust="spacing" textLength="7" x="50" y="159.9014">1</text><text fill="#000000" font-family="sans-serif" font-size="13" lengthAdjust="spacing" textLength="153" x="61" y="159.9014">asks to select collaborator</text><polygon fill="#181818" points="677,192.4551,687,196.4551,677,200.4551,681,196.4551" style="stroke:#181818;stroke-width:1.0;"/><line style="stroke:#181818;stroke-width:1.0;" x1="337" x2="683" y1="196.4551" y2="196.4551"/><text fill="#000000" font-family="sans-serif" font-size="13" font-weight="bold" lengthAdjust="spacing" textLength="7" x="344" y="191.1924">2</text><text fill="#000000" font-family="sans-serif" font-size="13" lengthAdjust="spacing" textLength="208" x="355" y="191.1924">getCollaboratorListAndSkillsAdded()</text><rect fill="none" height="75.1738" style="stroke:#000000;stroke-width:1.5;" width="231" x="578.5" y="204.4551"/><path d="M578.5,204.4551 L640.5,204.4551 L640.5,213.4551 L630.5,223.4551 L578.5,223.4551 L578.5,204.4551 " fill="#EEEEEE" style="stroke:#000000;stroke-width:2.0;"/><text fill="#000000" font-family="sans-serif" font-size="13" font-weight="bold" lengthAdjust="spacing" textLength="17" x="591.5" y="220.4834">ref</text><text fill="#000000" font-family="sans-serif" font-size="12" lengthAdjust="spacing" textLength="110" x="639" y="240.4043">Get Employee Skills</text><text fill="#000000" font-family="sans-serif" font-size="12" lengthAdjust="spacing" textLength="3" x="692.5" y="256.3652">&#160;</text><text fill="#000000" font-family="sans-serif" font-size="12" lengthAdjust="spacing" textLength="3" x="692.5" y="272.3262">&#160;</text><polygon fill="#181818" points="348,303.9199,338,307.9199,348,311.9199,344,307.9199" style="stroke:#181818;stroke-width:1.0;"/><line style="stroke:#181818;stroke-width:1.0;stroke-dasharray:2.0,2.0;" x1="342" x2="693" y1="307.9199" y2="307.9199"/><text fill="#000000" font-family="sans-serif" font-size="13" font-weight="bold" lengthAdjust="spacing" textLength="7" x="354" y="302.6572">3</text><text fill="#000000" font-family="sans-serif" font-size="13" lengthAdjust="spacing" textLength="88" x="365" y="302.6572">employeeSkills</text><polygon fill="#181818" points="54,335.2109,44,339.2109,54,343.2109,50,339.2109" style="stroke:#181818;stroke-width:1.0;"/><line style="stroke:#181818;stroke-width:1.0;stroke-dasharray:2.0,2.0;" x1="48" x2="331" y1="339.2109" y2="339.2109"/><text fill="#000000" font-family="sans-serif" font-size="13" font-weight="bold" lengthAdjust="spacing" textLength="7" x="60" y="333.9482">4</text><text fill="#000000" font-family="sans-serif" font-size="13" lengthAdjust="spacing" textLength="249" x="71" y="333.9482">displays list of collaborators and their skills</text><polygon fill="#181818" points="315,366.502,325,370.502,315,374.502,319,370.502" style="stroke:#181818;stroke-width:1.0;"/><line style="stroke:#181818;stroke-width:1.0;" x1="43" x2="321" y1="370.502" y2="370.502"/><text fill="#000000" font-family="sans-serif" font-size="13" font-weight="bold" lengthAdjust="spacing" textLength="7" x="50" y="365.2393">5</text><text fill="#000000" font-family="sans-serif" font-size="13" lengthAdjust="spacing" textLength="124" x="61" y="365.2393">selects a collaborator</text><path d="M10,385.502 L83,385.502 L83,394.793 L73,404.793 L10,404.793 L10,385.502 " fill="#EEEEEE" style="stroke:#000000;stroke-width:1.5;"/><rect fill="none" height="350.793" style="stroke:#000000;stroke-width:1.5;" width="806.5" x="10" y="385.502"/><text fill="#000000" font-family="sans-serif" font-size="13" font-weight="bold" lengthAdjust="spacing" textLength="28" x="25" y="400.5303">loop</text><text fill="#000000" font-family="sans-serif" font-size="11" font-weight="bold" lengthAdjust="spacing" textLength="219" x="98" y="399.3721">[while HRM wants to select more skills]</text><polygon fill="#181818" points="677,424.084,687,428.084,677,432.084,681,428.084" style="stroke:#181818;stroke-width:1.0;"/><line style="stroke:#181818;stroke-width:1.0;" x1="337" x2="683" y1="428.084" y2="428.084"/><text fill="#000000" font-family="sans-serif" font-size="13" font-weight="bold" lengthAdjust="spacing" textLength="7" x="344" y="422.8213">6</text><text fill="#000000" font-family="sans-serif" font-size="13" lengthAdjust="spacing" textLength="307" x="355" y="422.8213">getSkillListPossibleToBeAdded(selectedCollaborator)</text><rect fill="none" height="59.2129" style="stroke:#000000;stroke-width:1.5;" width="231" x="578.5" y="436.084"/><path d="M578.5,436.084 L640.5,436.084 L640.5,445.084 L630.5,455.084 L578.5,455.084 L578.5,436.084 " fill="#EEEEEE" style="stroke:#000000;stroke-width:2.0;"/><text fill="#000000" font-family="sans-serif" font-size="13" font-weight="bold" lengthAdjust="spacing" textLength="17" x="591.5" y="452.1123">ref</text><text fill="#000000" font-family="sans-serif" font-size="12" lengthAdjust="spacing" textLength="188" x="600" y="472.0332">Get Skill List Possible to be Added</text><text fill="#000000" font-family="sans-serif" font-size="12" lengthAdjust="spacing" textLength="3" x="692.5" y="487.9941">&#160;</text><polygon fill="#181818" points="348,519.5879,338,523.5879,348,527.5879,344,523.5879" style="stroke:#181818;stroke-width:1.0;"/><line style="stroke:#181818;stroke-width:1.0;stroke-dasharray:2.0,2.0;" x1="342" x2="693" y1="523.5879" y2="523.5879"/><text fill="#000000" font-family="sans-serif" font-size="13" font-weight="bold" lengthAdjust="spacing" textLength="7" x="354" y="518.3252">7</text><text fill="#000000" font-family="sans-serif" font-size="13" lengthAdjust="spacing" textLength="44" x="365" y="518.3252">skillList</text><polygon fill="#181818" points="54,550.8789,44,554.8789,54,558.8789,50,554.8789" style="stroke:#181818;stroke-width:1.0;"/><line style="stroke:#181818;stroke-width:1.0;stroke-dasharray:2.0,2.0;" x1="48" x2="331" y1="554.8789" y2="554.8789"/><text fill="#000000" font-family="sans-serif" font-size="13" font-weight="bold" lengthAdjust="spacing" textLength="7" x="60" y="549.6162">8</text><text fill="#000000" font-family="sans-serif" font-size="13" lengthAdjust="spacing" textLength="248" x="71" y="549.6162">displays list of skills possibles to be added</text><polygon fill="#181818" points="315,582.1699,325,586.1699,315,590.1699,319,586.1699" style="stroke:#181818;stroke-width:1.0;"/><line style="stroke:#181818;stroke-width:1.0;" x1="43" x2="321" y1="586.1699" y2="586.1699"/><text fill="#000000" font-family="sans-serif" font-size="13" font-weight="bold" lengthAdjust="spacing" textLength="7" x="50" y="580.9072">9</text><text fill="#000000" font-family="sans-serif" font-size="13" lengthAdjust="spacing" textLength="157" x="61" y="580.9072">selects one or more skill(s)</text><polygon fill="#181818" points="677,613.4609,687,617.4609,677,621.4609,681,617.4609" style="stroke:#181818;stroke-width:1.0;"/><line style="stroke:#181818;stroke-width:1.0;" x1="337" x2="683" y1="617.4609" y2="617.4609"/><text fill="#000000" font-family="sans-serif" font-size="13" font-weight="bold" lengthAdjust="spacing" textLength="14" x="344" y="612.1982">10</text><text fill="#000000" font-family="sans-serif" font-size="13" lengthAdjust="spacing" textLength="315" x="362" y="612.1982">addSkillToCollaboratorProfile(collaborator, skillsToAdd)</text><rect fill="none" height="43.252" style="stroke:#000000;stroke-width:1.5;" width="231" x="578.5" y="625.4609"/><path d="M578.5,625.4609 L640.5,625.4609 L640.5,634.4609 L630.5,644.4609 L578.5,644.4609 L578.5,625.4609 " fill="#EEEEEE" style="stroke:#000000;stroke-width:2.0;"/><text fill="#000000" font-family="sans-serif" font-size="13" font-weight="bold" lengthAdjust="spacing" textLength="17" x="591.5" y="641.4893">ref</text><text fill="#000000" font-family="sans-serif" font-size="12" lengthAdjust="spacing" textLength="169" x="609.5" y="661.4102">Add Skill to Collaborator Profile</text><polygon fill="#181818" points="348,693.0039,338,697.0039,348,701.0039,344,697.0039" style="stroke:#181818;stroke-width:1.0;"/><line style="stroke:#181818;stroke-width:1.0;stroke-dasharray:2.0,2.0;" x1="342" x2="693" y1="697.0039" y2="697.0039"/><text fill="#000000" font-family="sans-serif" font-size="13" font-weight="bold" lengthAdjust="spacing" textLength="14" x="354" y="691.7412">11</text><text fill="#000000" font-family="sans-serif" font-size="13" lengthAdjust="spacing" textLength="172" x="372" y="691.7412">add skill to collaborator profile</text><polygon fill="#181818" points="54,724.2949,44,728.2949,54,732.2949,50,728.2949" style="stroke:#181818;stroke-width:1.0;"/><line style="stroke:#181818;stroke-width:1.0;stroke-dasharray:2.0,2.0;" x1="48" x2="331" y1="728.2949" y2="728.2949"/><text fill="#000000" font-family="sans-serif" font-size="13" font-weight="bold" lengthAdjust="spacing" textLength="14" x="60" y="723.0322">12</text><text fill="#000000" font-family="sans-serif" font-size="13" lengthAdjust="spacing" textLength="172" x="78" y="723.0322">add skill to collaborator profile</text><polygon fill="#181818" points="315,762.5859,325,766.5859,315,770.5859,319,766.5859" style="stroke:#181818;stroke-width:1.0;"/><line style="stroke:#181818;stroke-width:1.0;" x1="43" x2="321" y1="766.5859" y2="766.5859"/><text fill="#000000" font-family="sans-serif" font-size="13" font-weight="bold" lengthAdjust="spacing" textLength="14" x="50" y="761.3232">13</text><text fill="#000000" font-family="sans-serif" font-size="13" lengthAdjust="spacing" textLength="174" x="68" y="761.3232">confirms no more skills to add</text><polygon fill="#181818" points="49,793.877,39,797.877,49,801.877,45,797.877" style="stroke:#181818;stroke-width:1.0;"/><line style="stroke:#181818;stroke-width:1.0;stroke-dasharray:2.0,2.0;" x1="43" x2="331" y1="797.877" y2="797.877"/><text fill="#000000" font-family="sans-serif" font-size="13" font-weight="bold" lengthAdjust="spacing" textLength="14" x="55" y="792.6143">14</text><text fill="#000000" font-family="sans-serif" font-size="13" lengthAdjust="spacing" textLength="110" x="73" y="792.6143">operation message</text><!--SRC=[hLPDRzim3BthLn2z90EQFv13WQmOkW8TMgJfRHV5PcmXicX8IhFiru-IFoPxRbAirI61OfAFVEzPYjihKqihAwZ8K5PQgX2yFQ1m_PDQPdjPuBC_QGIBcPUcq6c0AsLEHsKAs4djK0Xvy6GErHQj4BDIvGWx8h-bNq9cdYnSVL__k0BfWBy5r_0gKxKq7gwMA-TKOPxtIkjRqbfkoKfEURcFyI_txmk_9UCjxz76jDlD-a7mcWsIoHRIgD_IAp8_pV8nsSQin_KTvt37wbLwZBrQt06zeWsRQ-u6bh0fbOCGH8QJtA521xwKdZyG3evZIwubjKMPdq1JKM0EoWXe5rU2nKrJIxez9nCur4mpPCb4ea_e6s8o-X_3uX9SACpAfGhqAI4FolcLoIDHRfNdcC-_39AxrKyOEOCtrXrw-5RLcaw8q1GLOZ8QJHvg3fxr4pIwZ5FY18kE4snXMfGqCCSpbG8RN2FGkuHSkLhBamFDF03j1jIoEjmaowKik25AWj2ndUhLwCJvGwd6AeMz9ghXM2eTZGH7Tc0gTKKME_3pgaOUWfnFnDxVQjpGLsmKRMfXdWh_KPKZ70Gyw013srk4YFafeWy5Tzs0dwLrGolKRVkkxL_6_iUjJoYUhYdroI3meVPNmhdxb_NtlRNSKoHyGwc6JvPsR9nvQhBhTgmDiGuZk3FgSd0hAPEGOa0B8YuAELPoqWApLjIRS8fU7AmpRWoPTkoiHmt7yYHYG5eCk6mu2gEcr44zDMfN9Z706qWZl_uVpjZFKp43MtyOfZs8fjxLS3XDFapjdf7PALivC9GULw4Txcqo_HBsO42gqSRB5_WATVo7unq32P7immNz1m00]--></g></svg>