<?xml version="1.0" encoding="us-ascii" standalone="no"?><svg xmlns="http://www.w3.org/2000/svg" xmlns:xlink="http://www.w3.org/1999/xlink" contentStyleType="text/css" height="1420px" preserveAspectRatio="none" style="width:1447px;height:1420px;background:#FFFFFF;" version="1.1" viewBox="0 0 1447 1420" width="1447px" zoomAndPan="magnify"><defs/><g><rect fill="#FFFFFF" height="1226.0195" style="stroke:#181818;stroke-width:1.0;" width="10" x="33" y="93.6211"/><rect fill="#FFFFFF" height="281.6191" style="stroke:#181818;stroke-width:1.0;" width="10" x="333" y="165.1641"/><rect fill="#FFFFFF" height="307.9102" style="stroke:#181818;stroke-width:1.0;" width="10" x="333" y="478.0742"/><rect fill="#FFFFFF" height="432.7832" style="stroke:#181818;stroke-width:1.0;" width="10" x="333" y="817.2754"/><rect fill="#FFFFFF" height="31.291" style="stroke:#181818;stroke-width:1.0;" width="10" x="333" y="1288.3496"/><rect fill="#FFFFFF" height="219.0371" style="stroke:#181818;stroke-width:1.0;" width="10" x="695" y="196.4551"/><rect fill="#FFFFFF" height="219.0371" style="stroke:#181818;stroke-width:1.0;" width="10" x="695" y="535.6563"/><rect fill="#FFFFFF" height="370.2012" style="stroke:#181818;stroke-width:1.0;" width="10" x="695" y="848.5664"/><rect fill="#FFFFFF" height="230.0371" style="stroke:#181818;stroke-width:1.0;" width="10" x="700" y="887.8574"/><rect fill="#FFFFFF" height="31.291" style="stroke:#181818;stroke-width:1.0;" width="10" x="913" y="227.7461"/><rect fill="#FFFFFF" height="31.291" style="stroke:#181818;stroke-width:1.0;" width="10" x="913" y="566.9473"/><rect fill="#FFFFFF" height="31.291" style="stroke:#181818;stroke-width:1.0;" width="10" x="913" y="924.1484"/><rect fill="#FFFFFF" height="31.291" style="stroke:#181818;stroke-width:1.0;" width="10" x="1020" y="290.3281"/><rect fill="#FFFFFF" height="31.291" style="stroke:#181818;stroke-width:1.0;" width="10" x="1020" y="629.5293"/><rect fill="#FFFFFF" height="31.291" style="stroke:#181818;stroke-width:1.0;" width="10" x="1020" y="986.7305"/><rect fill="#FFFFFF" height="31.291" style="stroke:#181818;stroke-width:1.0;" width="10" x="1150" y="352.9102"/><rect fill="#FFFFFF" height="31.291" style="stroke:#181818;stroke-width:1.0;" width="10" x="1150" y="1049.3125"/><rect fill="#FFFFFF" height="31.291" style="stroke:#181818;stroke-width:1.0;" width="10" x="1284" y="692.1113"/><rect fill="#FFFFFF" height="31.291" style="stroke:#181818;stroke-width:1.0;" width="10" x="1386.5" y="1156.1855"/><rect fill="none" height="764.9844" style="stroke:#000000;stroke-width:1.5;" width="1431.5" x="10" y="493.0742"/><line style="stroke:#181818;stroke-width:0.5;stroke-dasharray:5.0,5.0;" x1="38" x2="38" y1="83.6211" y2="1337.6406"/><line style="stroke:#181818;stroke-width:0.5;stroke-dasharray:5.0,5.0;" x1="337.5" x2="337.5" y1="83.6211" y2="1337.6406"/><line style="stroke:#181818;stroke-width:0.5;stroke-dasharray:5.0,5.0;" x1="699.5" x2="699.5" y1="83.6211" y2="1337.6406"/><line style="stroke:#181818;stroke-width:0.5;stroke-dasharray:5.0,5.0;" x1="917.5" x2="917.5" y1="83.6211" y2="1337.6406"/><line style="stroke:#181818;stroke-width:0.5;stroke-dasharray:5.0,5.0;" x1="1024.5" x2="1024.5" y1="83.6211" y2="1337.6406"/><line style="stroke:#181818;stroke-width:0.5;stroke-dasharray:5.0,5.0;" x1="1154.5" x2="1154.5" y1="83.6211" y2="1337.6406"/><line style="stroke:#181818;stroke-width:0.5;stroke-dasharray:5.0,5.0;" x1="1288.5" x2="1288.5" y1="83.6211" y2="1337.6406"/><line style="stroke:#181818;stroke-width:0.5;stroke-dasharray:5.0,5.0;" x1="1391.5" x2="1391.5" y1="83.6211" y2="1337.6406"/><text fill="#000000" font-family="sans-serif" font-size="14" lengthAdjust="spacing" textLength="30" x="20" y="80.1074">HRM</text><ellipse cx="38" cy="13.5" fill="#E3E3E3" rx="8" ry="8" style="stroke:#181818;stroke-width:0.5;"/><path d="M38,21.5 L38,48.5 M25,29.5 L51,29.5 M38,48.5 L25,63.5 M38,48.5 L51,63.5 " fill="none" style="stroke:#181818;stroke-width:0.5;"/><text fill="#000000" font-family="sans-serif" font-size="14" lengthAdjust="spacing" textLength="30" x="20" y="1351.748">HRM</text><ellipse cx="38" cy="1363.7617" fill="#E3E3E3" rx="8" ry="8" style="stroke:#181818;stroke-width:0.5;"/><path d="M38,1371.7617 L38,1398.7617 M25,1379.7617 L51,1379.7617 M38,1398.7617 L25,1413.7617 M38,1398.7617 L51,1413.7617 " fill="none" style="stroke:#181818;stroke-width:0.5;"/><rect fill="#E3E3E3" height="32.6211" rx="2.5" ry="2.5" style="stroke:#181818;stroke-width:0.5;" width="175" x="250.5" y="50"/><text fill="#000000" font-family="sans-serif" font-size="14" lengthAdjust="spacing" textLength="161" x="257.5" y="72.1074">:AssignSkillCollaboratorUI</text><rect fill="#E3E3E3" height="32.6211" rx="2.5" ry="2.5" style="stroke:#181818;stroke-width:0.5;" width="175" x="250.5" y="1336.6406"/><text fill="#000000" font-family="sans-serif" font-size="14" lengthAdjust="spacing" textLength="161" x="257.5" y="1358.748">:AssignSkillCollaboratorUI</text><rect fill="#E3E3E3" height="32.6211" rx="2.5" ry="2.5" style="stroke:#181818;stroke-width:0.5;" width="225" x="587.5" y="50"/><text fill="#000000" font-family="sans-serif" font-size="14" lengthAdjust="spacing" textLength="211" x="594.5" y="72.1074">:AssignSkillCollaboratorController</text><rect fill="#E3E3E3" height="32.6211" rx="2.5" ry="2.5" style="stroke:#181818;stroke-width:0.5;" width="225" x="587.5" y="1336.6406"/><text fill="#000000" font-family="sans-serif" font-size="14" lengthAdjust="spacing" textLength="211" x="594.5" y="1358.748">:AssignSkillCollaboratorController</text><rect fill="#E3E3E3" height="32.6211" rx="2.5" ry="2.5" style="stroke:#181818;stroke-width:0.5;" width="97" x="869.5" y="50"/><text fill="#000000" font-family="sans-serif" font-size="14" lengthAdjust="spacing" textLength="83" x="876.5" y="72.1074">:Repositories</text><rect fill="#E3E3E3" height="32.6211" rx="2.5" ry="2.5" style="stroke:#181818;stroke-width:0.5;" width="97" x="869.5" y="1336.6406"/><text fill="#000000" font-family="sans-serif" font-size="14" lengthAdjust="spacing" textLength="83" x="876.5" y="1358.748">:Repositories</text><rect fill="#E3E3E3" height="51.2422" rx="2.5" ry="2.5" style="stroke:#181818;stroke-width:0.5;" width="97" x="976.5" y="31.3789"/><text fill="#000000" font-family="sans-serif" font-size="14" lengthAdjust="spacing" textLength="74" x="988" y="53.4863">repositories</text><text fill="#000000" font-family="sans-serif" font-size="14" lengthAdjust="spacing" textLength="83" x="983.5" y="72.1074">:Repositories</text><rect fill="#E3E3E3" height="51.2422" rx="2.5" ry="2.5" style="stroke:#181818;stroke-width:0.5;" width="97" x="976.5" y="1336.6406"/><text fill="#000000" font-family="sans-serif" font-size="14" lengthAdjust="spacing" textLength="74" x="988" y="1358.748">repositories</text><text fill="#000000" font-family="sans-serif" font-size="14" lengthAdjust="spacing" textLength="83" x="983.5" y="1377.3691">:Repositories</text><rect fill="#E3E3E3" height="32.6211" rx="2.5" ry="2.5" style="stroke:#181818;stroke-width:0.5;" width="143" x="1083.5" y="50"/><text fill="#000000" font-family="sans-serif" font-size="14" lengthAdjust="spacing" textLength="129" x="1090.5" y="72.1074">employeeRepository</text><rect fill="#E3E3E3" height="32.6211" rx="2.5" ry="2.5" style="stroke:#181818;stroke-width:0.5;" width="143" x="1083.5" y="1336.6406"/><text fill="#000000" font-family="sans-serif" font-size="14" lengthAdjust="spacing" textLength="129" x="1090.5" y="1358.748">employeeRepository</text><rect fill="#E3E3E3" height="32.6211" rx="2.5" ry="2.5" style="stroke:#181818;stroke-width:0.5;" width="105" x="1236.5" y="50"/><text fill="#000000" font-family="sans-serif" font-size="14" lengthAdjust="spacing" textLength="91" x="1243.5" y="72.1074">skillRepository</text><rect fill="#E3E3E3" height="32.6211" rx="2.5" ry="2.5" style="stroke:#181818;stroke-width:0.5;" width="105" x="1236.5" y="1336.6406"/><text fill="#000000" font-family="sans-serif" font-size="14" lengthAdjust="spacing" textLength="91" x="1243.5" y="1358.748">skillRepository</text><rect fill="#E3E3E3" height="51.2422" rx="2.5" ry="2.5" style="stroke:#181818;stroke-width:0.5;" width="80" x="1351.5" y="31.3789"/><text fill="#000000" font-family="sans-serif" font-size="14" lengthAdjust="spacing" textLength="61" x="1361" y="53.4863">employee</text><text fill="#000000" font-family="sans-serif" font-size="14" lengthAdjust="spacing" textLength="66" x="1358.5" y="72.1074">:Employee</text><rect fill="#E3E3E3" height="51.2422" rx="2.5" ry="2.5" style="stroke:#181818;stroke-width:0.5;" width="80" x="1351.5" y="1336.6406"/><text fill="#000000" font-family="sans-serif" font-size="14" lengthAdjust="spacing" textLength="61" x="1361" y="1358.748">employee</text><text fill="#000000" font-family="sans-serif" font-size="14" lengthAdjust="spacing" textLength="66" x="1358.5" y="1377.3691">:Employee</text><rect fill="#FFFFFF" height="1226.0195" style="stroke:#181818;stroke-width:1.0;" width="10" x="33" y="93.6211"/><rect fill="#FFFFFF" height="281.6191" style="stroke:#181818;stroke-width:1.0;" width="10" x="333" y="165.1641"/><rect fill="#FFFFFF" height="307.9102" style="stroke:#181818;stroke-width:1.0;" width="10" x="333" y="478.0742"/><rect fill="#FFFFFF" height="432.7832" style="stroke:#181818;stroke-width:1.0;" width="10" x="333" y="817.2754"/><rect fill="#FFFFFF" height="31.291" style="stroke:#181818;stroke-width:1.0;" width="10" x="333" y="1288.3496"/><rect fill="#FFFFFF" height="219.0371" style="stroke:#181818;stroke-width:1.0;" width="10" x="695" y="196.4551"/><rect fill="#FFFFFF" height="219.0371" style="stroke:#181818;stroke-width:1.0;" width="10" x="695" y="535.6563"/><rect fill="#FFFFFF" height="370.2012" style="stroke:#181818;stroke-width:1.0;" width="10" x="695" y="848.5664"/><rect fill="#FFFFFF" height="230.0371" style="stroke:#181818;stroke-width:1.0;" width="10" x="700" y="887.8574"/><rect fill="#FFFFFF" height="31.291" style="stroke:#181818;stroke-width:1.0;" width="10" x="913" y="227.7461"/><rect fill="#FFFFFF" height="31.291" style="stroke:#181818;stroke-width:1.0;" width="10" x="913" y="566.9473"/><rect fill="#FFFFFF" height="31.291" style="stroke:#181818;stroke-width:1.0;" width="10" x="913" y="924.1484"/><rect fill="#FFFFFF" height="31.291" style="stroke:#181818;stroke-width:1.0;" width="10" x="1020" y="290.3281"/><rect fill="#FFFFFF" height="31.291" style="stroke:#181818;stroke-width:1.0;" width="10" x="1020" y="629.5293"/><rect fill="#FFFFFF" height="31.291" style="stroke:#181818;stroke-width:1.0;" width="10" x="1020" y="986.7305"/><rect fill="#FFFFFF" height="31.291" style="stroke:#181818;stroke-width:1.0;" width="10" x="1150" y="352.9102"/><rect fill="#FFFFFF" height="31.291" style="stroke:#181818;stroke-width:1.0;" width="10" x="1150" y="1049.3125"/><rect fill="#FFFFFF" height="31.291" style="stroke:#181818;stroke-width:1.0;" width="10" x="1284" y="692.1113"/><rect fill="#FFFFFF" height="31.291" style="stroke:#181818;stroke-width:1.0;" width="10" x="1386.5" y="1156.1855"/><rect fill="none" height="43.252" style="stroke:#000000;stroke-width:1.5;" width="411.5" x="17" y="93.6211"/><path d="M17,93.6211 L79,93.6211 L79,102.6211 L69,112.6211 L17,112.6211 L17,93.6211 " fill="#EEEEEE" style="stroke:#000000;stroke-width:2.0;"/><text fill="#000000" font-family="sans-serif" font-size="13" font-weight="bold" lengthAdjust="spacing" textLength="17" x="30" y="109.6494">ref</text><text fill="#000000" font-family="sans-serif" font-size="12" lengthAdjust="spacing" textLength="308" x="68.75" y="129.5703">This action assumes that the user has already logged in</text><polygon fill="#181818" points="321,161.1641,331,165.1641,321,169.1641,325,165.1641" style="stroke:#181818;stroke-width:1.0;"/><line style="stroke:#181818;stroke-width:1.0;" x1="43" x2="327" y1="165.1641" y2="165.1641"/><text fill="#000000" font-family="sans-serif" font-size="13" font-weight="bold" lengthAdjust="spacing" textLength="7" x="50" y="159.9014">1</text><text fill="#000000" font-family="sans-serif" font-size="13" lengthAdjust="spacing" textLength="153" x="61" y="159.9014">asks to select collaborator</text><polygon fill="#181818" points="683,192.4551,693,196.4551,683,200.4551,687,196.4551" style="stroke:#181818;stroke-width:1.0;"/><line style="stroke:#181818;stroke-width:1.0;" x1="343" x2="689" y1="196.4551" y2="196.4551"/><text fill="#000000" font-family="sans-serif" font-size="13" font-weight="bold" lengthAdjust="spacing" textLength="7" x="350" y="191.1924">2</text><text fill="#000000" font-family="sans-serif" font-size="13" lengthAdjust="spacing" textLength="208" x="361" y="191.1924">getCollaboratorListAndSkillsAdded()</text><polygon fill="#181818" points="901,223.7461,911,227.7461,901,231.7461,905,227.7461" style="stroke:#181818;stroke-width:1.0;"/><line style="stroke:#181818;stroke-width:1.0;" x1="705" x2="907" y1="227.7461" y2="227.7461"/><text fill="#000000" font-family="sans-serif" font-size="13" font-weight="bold" lengthAdjust="spacing" textLength="7" x="712" y="222.4834">3</text><text fill="#000000" font-family="sans-serif" font-size="13" lengthAdjust="spacing" textLength="75" x="723" y="222.4834">getInstance()</text><polygon fill="#181818" points="716,255.0371,706,259.0371,716,263.0371,712,259.0371" style="stroke:#181818;stroke-width:1.0;"/><line style="stroke:#181818;stroke-width:1.0;stroke-dasharray:2.0,2.0;" x1="710" x2="917" y1="259.0371" y2="259.0371"/><text fill="#000000" font-family="sans-serif" font-size="13" font-weight="bold" lengthAdjust="spacing" textLength="7" x="722" y="253.7744">4</text><text fill="#000000" font-family="sans-serif" font-size="13" lengthAdjust="spacing" textLength="67" x="733" y="253.7744">repositories</text><polygon fill="#181818" points="1008,286.3281,1018,290.3281,1008,294.3281,1012,290.3281" style="stroke:#181818;stroke-width:1.0;"/><line style="stroke:#181818;stroke-width:1.0;" x1="705" x2="1014" y1="290.3281" y2="290.3281"/><text fill="#000000" font-family="sans-serif" font-size="13" font-weight="bold" lengthAdjust="spacing" textLength="7" x="712" y="285.0654">5</text><text fill="#000000" font-family="sans-serif" font-size="13" lengthAdjust="spacing" textLength="146" x="723" y="285.0654">getEmployeeRepository()</text><polygon fill="#181818" points="716,317.6191,706,321.6191,716,325.6191,712,321.6191" style="stroke:#181818;stroke-width:1.0;"/><line style="stroke:#181818;stroke-width:1.0;stroke-dasharray:2.0,2.0;" x1="710" x2="1024" y1="321.6191" y2="321.6191"/><text fill="#000000" font-family="sans-serif" font-size="13" font-weight="bold" lengthAdjust="spacing" textLength="7" x="722" y="316.3564">6</text><text fill="#000000" font-family="sans-serif" font-size="13" lengthAdjust="spacing" textLength="118" x="733" y="316.3564">employeeRepository</text><polygon fill="#181818" points="1138,348.9102,1148,352.9102,1138,356.9102,1142,352.9102" style="stroke:#181818;stroke-width:1.0;"/><line style="stroke:#181818;stroke-width:1.0;" x1="705" x2="1144" y1="352.9102" y2="352.9102"/><text fill="#000000" font-family="sans-serif" font-size="13" font-weight="bold" lengthAdjust="spacing" textLength="7" x="712" y="347.6475">7</text><text fill="#000000" font-family="sans-serif" font-size="13" lengthAdjust="spacing" textLength="116" x="723" y="347.6475">getEmployeeSkills()</text><polygon fill="#181818" points="716,380.2012,706,384.2012,716,388.2012,712,384.2012" style="stroke:#181818;stroke-width:1.0;"/><line style="stroke:#181818;stroke-width:1.0;stroke-dasharray:2.0,2.0;" x1="710" x2="1154" y1="384.2012" y2="384.2012"/><text fill="#000000" font-family="sans-serif" font-size="13" font-weight="bold" lengthAdjust="spacing" textLength="7" x="722" y="378.9385">8</text><text fill="#000000" font-family="sans-serif" font-size="13" lengthAdjust="spacing" textLength="88" x="733" y="378.9385">employeeSkills</text><polygon fill="#181818" points="354,411.4922,344,415.4922,354,419.4922,350,415.4922" style="stroke:#181818;stroke-width:1.0;"/><line style="stroke:#181818;stroke-width:1.0;stroke-dasharray:2.0,2.0;" x1="348" x2="699" y1="415.4922" y2="415.4922"/><text fill="#000000" font-family="sans-serif" font-size="13" font-weight="bold" lengthAdjust="spacing" textLength="7" x="360" y="410.2295">9</text><text fill="#000000" font-family="sans-serif" font-size="13" lengthAdjust="spacing" textLength="88" x="371" y="410.2295">employeeSkills</text><polygon fill="#181818" points="54,442.7832,44,446.7832,54,450.7832,50,446.7832" style="stroke:#181818;stroke-width:1.0;"/><line style="stroke:#181818;stroke-width:1.0;stroke-dasharray:2.0,2.0;" x1="48" x2="337" y1="446.7832" y2="446.7832"/><text fill="#000000" font-family="sans-serif" font-size="13" font-weight="bold" lengthAdjust="spacing" textLength="14" x="60" y="441.5205">10</text><text fill="#000000" font-family="sans-serif" font-size="13" lengthAdjust="spacing" textLength="238" x="78" y="441.5205">displays list of employees and their skills</text><polygon fill="#181818" points="321,474.0742,331,478.0742,321,482.0742,325,478.0742" style="stroke:#181818;stroke-width:1.0;"/><line style="stroke:#181818;stroke-width:1.0;" x1="43" x2="327" y1="478.0742" y2="478.0742"/><text fill="#000000" font-family="sans-serif" font-size="13" font-weight="bold" lengthAdjust="spacing" textLength="14" x="50" y="472.8115">11</text><text fill="#000000" font-family="sans-serif" font-size="13" lengthAdjust="spacing" textLength="124" x="68" y="472.8115">selects a collaborator</text><path d="M10,493.0742 L83,493.0742 L83,502.3652 L73,512.3652 L10,512.3652 L10,493.0742 " fill="#EEEEEE" style="stroke:#000000;stroke-width:1.5;"/><rect fill="none" height="764.9844" style="stroke:#000000;stroke-width:1.5;" width="1431.5" x="10" y="493.0742"/><text fill="#000000" font-family="sans-serif" font-size="13" font-weight="bold" lengthAdjust="spacing" textLength="28" x="25" y="508.1025">loop</text><text fill="#000000" font-family="sans-serif" font-size="11" font-weight="bold" lengthAdjust="spacing" textLength="219" x="98" y="506.9443">[while HRM wants to select more skills]</text><polygon fill="#181818" points="683,531.6563,693,535.6563,683,539.6563,687,535.6563" style="stroke:#181818;stroke-width:1.0;"/><line style="stroke:#181818;stroke-width:1.0;" x1="343" x2="689" y1="535.6563" y2="535.6563"/><text fill="#000000" font-family="sans-serif" font-size="13" font-weight="bold" lengthAdjust="spacing" textLength="14" x="350" y="530.3936">12</text><text fill="#000000" font-family="sans-serif" font-size="13" lengthAdjust="spacing" textLength="307" x="368" y="530.3936">getSkillListPossibleToBeAdded(selectedCollaborator)</text><polygon fill="#181818" points="901,562.9473,911,566.9473,901,570.9473,905,566.9473" style="stroke:#181818;stroke-width:1.0;"/><line style="stroke:#181818;stroke-width:1.0;" x1="705" x2="907" y1="566.9473" y2="566.9473"/><text fill="#000000" font-family="sans-serif" font-size="13" font-weight="bold" lengthAdjust="spacing" textLength="14" x="712" y="561.6846">13</text><text fill="#000000" font-family="sans-serif" font-size="13" lengthAdjust="spacing" textLength="75" x="730" y="561.6846">getInstance()</text><polygon fill="#181818" points="716,594.2383,706,598.2383,716,602.2383,712,598.2383" style="stroke:#181818;stroke-width:1.0;"/><line style="stroke:#181818;stroke-width:1.0;stroke-dasharray:2.0,2.0;" x1="710" x2="917" y1="598.2383" y2="598.2383"/><text fill="#000000" font-family="sans-serif" font-size="13" font-weight="bold" lengthAdjust="spacing" textLength="14" x="722" y="592.9756">14</text><text fill="#000000" font-family="sans-serif" font-size="13" lengthAdjust="spacing" textLength="67" x="740" y="592.9756">repositories</text><polygon fill="#181818" points="1008,625.5293,1018,629.5293,1008,633.5293,1012,629.5293" style="stroke:#181818;stroke-width:1.0;"/><line style="stroke:#181818;stroke-width:1.0;" x1="705" x2="1014" y1="629.5293" y2="629.5293"/><text fill="#000000" font-family="sans-serif" font-size="13" font-weight="bold" lengthAdjust="spacing" textLength="14" x="712" y="624.2666">15</text><text fill="#000000" font-family="sans-serif" font-size="13" lengthAdjust="spacing" textLength="113" x="730" y="624.2666">getSkillRepository()</text><polygon fill="#181818" points="716,656.8203,706,660.8203,716,664.8203,712,660.8203" style="stroke:#181818;stroke-width:1.0;"/><line style="stroke:#181818;stroke-width:1.0;stroke-dasharray:2.0,2.0;" x1="710" x2="1024" y1="660.8203" y2="660.8203"/><text fill="#000000" font-family="sans-serif" font-size="13" font-weight="bold" lengthAdjust="spacing" textLength="14" x="722" y="655.5576">16</text><text fill="#000000" font-family="sans-serif" font-size="13" lengthAdjust="spacing" textLength="85" x="740" y="655.5576">skillRepository</text><polygon fill="#181818" points="1272,688.1113,1282,692.1113,1272,696.1113,1276,692.1113" style="stroke:#181818;stroke-width:1.0;"/><line style="stroke:#181818;stroke-width:1.0;" x1="705" x2="1278" y1="692.1113" y2="692.1113"/><text fill="#000000" font-family="sans-serif" font-size="13" font-weight="bold" lengthAdjust="spacing" textLength="14" x="712" y="686.8486">17</text><text fill="#000000" font-family="sans-serif" font-size="13" lengthAdjust="spacing" textLength="58" x="730" y="686.8486">getSkills()</text><polygon fill="#181818" points="716,719.4023,706,723.4023,716,727.4023,712,723.4023" style="stroke:#181818;stroke-width:1.0;"/><line style="stroke:#181818;stroke-width:1.0;stroke-dasharray:2.0,2.0;" x1="710" x2="1288" y1="723.4023" y2="723.4023"/><text fill="#000000" font-family="sans-serif" font-size="13" font-weight="bold" lengthAdjust="spacing" textLength="14" x="722" y="718.1396">18</text><text fill="#000000" font-family="sans-serif" font-size="13" lengthAdjust="spacing" textLength="44" x="740" y="718.1396">skillList</text><polygon fill="#181818" points="354,750.6934,344,754.6934,354,758.6934,350,754.6934" style="stroke:#181818;stroke-width:1.0;"/><line style="stroke:#181818;stroke-width:1.0;stroke-dasharray:2.0,2.0;" x1="348" x2="699" y1="754.6934" y2="754.6934"/><text fill="#000000" font-family="sans-serif" font-size="13" font-weight="bold" lengthAdjust="spacing" textLength="14" x="360" y="749.4307">19</text><text fill="#000000" font-family="sans-serif" font-size="13" lengthAdjust="spacing" textLength="44" x="378" y="749.4307">skillList</text><polygon fill="#181818" points="54,781.9844,44,785.9844,54,789.9844,50,785.9844" style="stroke:#181818;stroke-width:1.0;"/><line style="stroke:#181818;stroke-width:1.0;stroke-dasharray:2.0,2.0;" x1="48" x2="337" y1="785.9844" y2="785.9844"/><text fill="#000000" font-family="sans-serif" font-size="13" font-weight="bold" lengthAdjust="spacing" textLength="14" x="60" y="780.7217">20</text><text fill="#000000" font-family="sans-serif" font-size="13" lengthAdjust="spacing" textLength="248" x="78" y="780.7217">displays list of skills possibles to be added</text><polygon fill="#181818" points="321,813.2754,331,817.2754,321,821.2754,325,817.2754" style="stroke:#181818;stroke-width:1.0;"/><line style="stroke:#181818;stroke-width:1.0;" x1="43" x2="327" y1="817.2754" y2="817.2754"/><text fill="#000000" font-family="sans-serif" font-size="13" font-weight="bold" lengthAdjust="spacing" textLength="14" x="50" y="812.0127">21</text><text fill="#000000" font-family="sans-serif" font-size="13" lengthAdjust="spacing" textLength="94" x="68" y="812.0127">selects one skill</text><polygon fill="#181818" points="683,844.5664,693,848.5664,683,852.5664,687,848.5664" style="stroke:#181818;stroke-width:1.0;"/><line style="stroke:#181818;stroke-width:1.0;" x1="343" x2="689" y1="848.5664" y2="848.5664"/><text fill="#000000" font-family="sans-serif" font-size="13" font-weight="bold" lengthAdjust="spacing" textLength="14" x="350" y="843.3037">22</text><text fill="#000000" font-family="sans-serif" font-size="13" lengthAdjust="spacing" textLength="315" x="368" y="843.3037">addSkillToCollaboratorProfile(collaborator, skillsToAdd)</text><line style="stroke:#181818;stroke-width:1.0;" x1="705" x2="752" y1="874.8574" y2="874.8574"/><line style="stroke:#181818;stroke-width:1.0;" x1="752" x2="752" y1="874.8574" y2="887.8574"/><line style="stroke:#181818;stroke-width:1.0;" x1="711" x2="752" y1="887.8574" y2="887.8574"/><polygon fill="#181818" points="721,883.8574,711,887.8574,721,891.8574,717,887.8574" style="stroke:#181818;stroke-width:1.0;"/><text fill="#000000" font-family="sans-serif" font-size="13" font-weight="bold" lengthAdjust="spacing" textLength="14" x="717" y="869.5947">23</text><text fill="#000000" font-family="sans-serif" font-size="13" lengthAdjust="spacing" textLength="176" x="735" y="869.5947">getEmployeeFromRepository()</text><polygon fill="#181818" points="901,920.1484,911,924.1484,901,928.1484,905,924.1484" style="stroke:#181818;stroke-width:1.0;"/><line style="stroke:#181818;stroke-width:1.0;" x1="710" x2="907" y1="924.1484" y2="924.1484"/><text fill="#000000" font-family="sans-serif" font-size="13" font-weight="bold" lengthAdjust="spacing" textLength="14" x="717" y="918.8857">24</text><text fill="#000000" font-family="sans-serif" font-size="13" lengthAdjust="spacing" textLength="75" x="735" y="918.8857">getInstance()</text><polygon fill="#181818" points="721,951.4395,711,955.4395,721,959.4395,717,955.4395" style="stroke:#181818;stroke-width:1.0;"/><line style="stroke:#181818;stroke-width:1.0;stroke-dasharray:2.0,2.0;" x1="715" x2="917" y1="955.4395" y2="955.4395"/><text fill="#000000" font-family="sans-serif" font-size="13" font-weight="bold" lengthAdjust="spacing" textLength="14" x="727" y="950.1768">25</text><text fill="#000000" font-family="sans-serif" font-size="13" lengthAdjust="spacing" textLength="67" x="745" y="950.1768">repositories</text><polygon fill="#181818" points="1008,982.7305,1018,986.7305,1008,990.7305,1012,986.7305" style="stroke:#181818;stroke-width:1.0;"/><line style="stroke:#181818;stroke-width:1.0;" x1="710" x2="1014" y1="986.7305" y2="986.7305"/><text fill="#000000" font-family="sans-serif" font-size="13" font-weight="bold" lengthAdjust="spacing" textLength="14" x="717" y="981.4678">26</text><text fill="#000000" font-family="sans-serif" font-size="13" lengthAdjust="spacing" textLength="156" x="735" y="981.4678">getEmployeeRepositories()</text><polygon fill="#181818" points="721,1014.0215,711,1018.0215,721,1022.0215,717,1018.0215" style="stroke:#181818;stroke-width:1.0;"/><line style="stroke:#181818;stroke-width:1.0;stroke-dasharray:2.0,2.0;" x1="715" x2="1024" y1="1018.0215" y2="1018.0215"/><text fill="#000000" font-family="sans-serif" font-size="13" font-weight="bold" lengthAdjust="spacing" textLength="14" x="727" y="1012.7588">27</text><text fill="#000000" font-family="sans-serif" font-size="13" lengthAdjust="spacing" textLength="130" x="745" y="1012.7588">EmployeeRepositories</text><polygon fill="#181818" points="1138,1045.3125,1148,1049.3125,1138,1053.3125,1142,1049.3125" style="stroke:#181818;stroke-width:1.0;"/><line style="stroke:#181818;stroke-width:1.0;" x1="710" x2="1144" y1="1049.3125" y2="1049.3125"/><text fill="#000000" font-family="sans-serif" font-size="13" font-weight="bold" lengthAdjust="spacing" textLength="14" x="717" y="1044.0498">28</text><text fill="#000000" font-family="sans-serif" font-size="13" lengthAdjust="spacing" textLength="84" x="735" y="1044.0498">getEmployee()</text><polygon fill="#181818" points="721,1076.6035,711,1080.6035,721,1084.6035,717,1080.6035" style="stroke:#181818;stroke-width:1.0;"/><line style="stroke:#181818;stroke-width:1.0;stroke-dasharray:2.0,2.0;" x1="715" x2="1154" y1="1080.6035" y2="1080.6035"/><text fill="#000000" font-family="sans-serif" font-size="13" font-weight="bold" lengthAdjust="spacing" textLength="14" x="727" y="1075.3408">29</text><text fill="#000000" font-family="sans-serif" font-size="13" lengthAdjust="spacing" textLength="56" x="745" y="1075.3408">employee</text><line style="stroke:#181818;stroke-width:1.0;stroke-dasharray:2.0,2.0;" x1="710" x2="752" y1="1116.8945" y2="1116.8945"/><line style="stroke:#181818;stroke-width:1.0;stroke-dasharray:2.0,2.0;" x1="752" x2="752" y1="1116.8945" y2="1129.8945"/><line style="stroke:#181818;stroke-width:1.0;stroke-dasharray:2.0,2.0;" x1="705" x2="752" y1="1129.8945" y2="1129.8945"/><polygon fill="#181818" points="715,1125.8945,705,1129.8945,715,1133.8945,711,1129.8945" style="stroke:#181818;stroke-width:1.0;"/><text fill="#000000" font-family="sans-serif" font-size="13" font-weight="bold" lengthAdjust="spacing" textLength="14" x="717" y="1111.6318">30</text><text fill="#000000" font-family="sans-serif" font-size="13" lengthAdjust="spacing" textLength="56" x="735" y="1111.6318">employee</text><polygon fill="#181818" points="1374.5,1152.1855,1384.5,1156.1855,1374.5,1160.1855,1378.5,1156.1855" style="stroke:#181818;stroke-width:1.0;"/><line style="stroke:#181818;stroke-width:1.0;" x1="705" x2="1380.5" y1="1156.1855" y2="1156.1855"/><text fill="#000000" font-family="sans-serif" font-size="13" font-weight="bold" lengthAdjust="spacing" textLength="14" x="712" y="1150.9229">31</text><text fill="#000000" font-family="sans-serif" font-size="13" lengthAdjust="spacing" textLength="315" x="730" y="1150.9229">addSkillToCollaboratorProfile(collaborator, skillsToAdd)</text><polygon fill="#181818" points="716,1183.4766,706,1187.4766,716,1191.4766,712,1187.4766" style="stroke:#181818;stroke-width:1.0;"/><line style="stroke:#181818;stroke-width:1.0;stroke-dasharray:2.0,2.0;" x1="710" x2="1390.5" y1="1187.4766" y2="1187.4766"/><text fill="#000000" font-family="sans-serif" font-size="13" font-weight="bold" lengthAdjust="spacing" textLength="14" x="722" y="1182.2139">32</text><text fill="#000000" font-family="sans-serif" font-size="13" lengthAdjust="spacing" textLength="172" x="740" y="1182.2139">add skill to collaborator profile</text><polygon fill="#181818" points="354,1214.7676,344,1218.7676,354,1222.7676,350,1218.7676" style="stroke:#181818;stroke-width:1.0;"/><line style="stroke:#181818;stroke-width:1.0;stroke-dasharray:2.0,2.0;" x1="348" x2="699" y1="1218.7676" y2="1218.7676"/><text fill="#000000" font-family="sans-serif" font-size="13" font-weight="bold" lengthAdjust="spacing" textLength="14" x="360" y="1213.5049">33</text><text fill="#000000" font-family="sans-serif" font-size="13" lengthAdjust="spacing" textLength="172" x="378" y="1213.5049">add skill to collaborator profile</text><polygon fill="#181818" points="54,1246.0586,44,1250.0586,54,1254.0586,50,1250.0586" style="stroke:#181818;stroke-width:1.0;"/><line style="stroke:#181818;stroke-width:1.0;stroke-dasharray:2.0,2.0;" x1="48" x2="337" y1="1250.0586" y2="1250.0586"/><text fill="#000000" font-family="sans-serif" font-size="13" font-weight="bold" lengthAdjust="spacing" textLength="14" x="60" y="1244.7959">34</text><text fill="#000000" font-family="sans-serif" font-size="13" lengthAdjust="spacing" textLength="172" x="78" y="1244.7959">add skill to collaborator profile</text><polygon fill="#181818" points="321,1284.3496,331,1288.3496,321,1292.3496,325,1288.3496" style="stroke:#181818;stroke-width:1.0;"/><line style="stroke:#181818;stroke-width:1.0;" x1="43" x2="327" y1="1288.3496" y2="1288.3496"/><text fill="#000000" font-family="sans-serif" font-size="13" font-weight="bold" lengthAdjust="spacing" textLength="14" x="50" y="1283.0869">35</text><text fill="#000000" font-family="sans-serif" font-size="13" lengthAdjust="spacing" textLength="174" x="68" y="1283.0869">confirms no more skills to add</text><polygon fill="#181818" points="49,1315.6406,39,1319.6406,49,1323.6406,45,1319.6406" style="stroke:#181818;stroke-width:1.0;"/><line style="stroke:#181818;stroke-width:1.0;stroke-dasharray:2.0,2.0;" x1="43" x2="337" y1="1319.6406" y2="1319.6406"/><text fill="#000000" font-family="sans-serif" font-size="13" font-weight="bold" lengthAdjust="spacing" textLength="14" x="55" y="1314.3779">36</text><text fill="#000000" font-family="sans-serif" font-size="13" lengthAdjust="spacing" textLength="110" x="73" y="1314.3779">operation message</text><!--SRC=[jLTDRzim3BtxLn2zh0MMFv13WQpejW8TLYJfRHV5PXmXicH8Jhly-r5suaYs_16tqw657V6HZ-AZQBFdCcUQPP0fgUATLXb2eGyOcVgNdCLxbkAgE0e4ZN71P2hS3MR74lNEPGfR9Wn64JiKIXwo3Uee-hBZ2S9MgMAZ_aOiBfI6cv_BNpV03D3_Y30A7lESoG9kvWjZU2fNUox4WnA2RPHcPFBwLEv_VHgt_K79GjCpwjBiORryRXWkCLU6qrQEfjnJlpYkkEL737mJxLZyaMs0b-V5shV0B1VgY7Y1BZS-jbxxPiQoQTYi_7TXFnJL6Riq-hty4KKsvVoD5LWcM-CMr1jg-_2LqWbpME-u0Rj9IJ8oXmmD53jMq1-4Ww6zEy9YGYDBZY1Kcc82N4PmMeG4i_iAYvaz6IimAAXE87QE9AeDwe3eDEkNTX440Td38gWK2_T4dxaf5Z8fys0MIOB9xPrdNAEMX-tzP5U9IkY1OwwSFKb3XHrZ0zQ33jL8QxTT8I-p4xSvk9NKCa_mEdTdOhRyAYRj-khZL9Pja4I9U8cwNSrziOTXpy6sG_GYhqwvB-g0XW8SshjgFd0XL7dh8pF6MqNjB8GUR0UtNQfM0eHXDJM7X9jSiAC1GSKFQbkZaXnbOlN9DHZVWuD-bfShq4gOPEzhiobB-ooKok5znqNPEU2TMeshxKnfF3llLN6P0YlV5qNDUYDmhRvXfU0A2XDNwBsg3jRfHwGzJTuVbFW8cVVnl2YzSIiCyUkMUalkjbGQLyu0YsxmSzoDQ1qAPYZovlNNIQBfeyd7rk4GazK8uct5zyE7X3yezqfTa9zqKwflWy2iTg8hnAxaIQb1dGUM9s5oLsPahLoPlcYrfTPmwxQHhwU8ruhaVTS5taf2LsvdzvMMd8lXEysdNhrt9dkAqyzkB9_MQwveFJ2YzrpVZgxDMCymGa5DI5VLNSQQDLjPA8W9cRakY96ppeHaF0vFOXqhF13vyzs4n8oRni8Yd-8-q4c7Je6-XVv3B_EEfVpSwjbeGvXvVRNoOTkwwnhoAfveN0Q6t7PTMDFyzqwlmIdsmtuwxYca4TZEgC4VtMimLdBBTMP0AdTgjU5GRFs3HuTlZo2e78cG_NwcRsV3qZ6CeiXvjb_c_m00]--></g></svg>