<?xml version="1.0" encoding="us-ascii" standalone="no"?><svg xmlns="http://www.w3.org/2000/svg" xmlns:xlink="http://www.w3.org/1999/xlink" contentStyleType="text/css" height="1570px" preserveAspectRatio="none" style="width:1891px;height:1570px;background:#FFFFFF;" version="1.1" viewBox="0 0 1891 1570" width="1891px" zoomAndPan="magnify"><defs/><g><text fill="#000000" font-family="sans-serif" font-size="14" font-weight="bold" lengthAdjust="spacing" textLength="212" x="838.75" y="30.1074">Sequence Diagram (SD) US026</text><rect fill="#FFFFFF" height="1336.2617" style="stroke:#181818;stroke-width:1.0;" width="10" x="18.5" y="133.2422"/><rect fill="#FFFFFF" height="298.9102" style="stroke:#181818;stroke-width:1.0;" width="10" x="393.5" y="173.8242"/><rect fill="#FFFFFF" height="281.6191" style="stroke:#181818;stroke-width:1.0;" width="10" x="393.5" y="504.0254"/><rect fill="#FFFFFF" height="31.291" style="stroke:#181818;stroke-width:1.0;" width="10" x="393.5" y="816.9355"/><rect fill="#FFFFFF" height="589.9863" style="stroke:#181818;stroke-width:1.0;" width="10" x="393.5" y="879.5176"/><rect fill="#FFFFFF" height="219.0371" style="stroke:#181818;stroke-width:1.0;" width="10" x="645.5" y="205.1152"/><rect fill="#FFFFFF" height="219.0371" style="stroke:#181818;stroke-width:1.0;" width="10" x="645.5" y="535.3164"/><rect fill="#FFFFFF" height="527.4043" style="stroke:#181818;stroke-width:1.0;" width="10" x="645.5" y="910.8086"/><rect fill="#FFFFFF" height="230.0371" style="stroke:#181818;stroke-width:1.0;" width="10" x="650.5" y="950.0996"/><rect fill="#FFFFFF" height="31.291" style="stroke:#181818;stroke-width:1.0;" width="10" x="863.5" y="236.4063"/><rect fill="#FFFFFF" height="31.291" style="stroke:#181818;stroke-width:1.0;" width="10" x="863.5" y="566.6074"/><rect fill="#FFFFFF" height="31.291" style="stroke:#181818;stroke-width:1.0;" width="10" x="863.5" y="986.3906"/><rect fill="#FFFFFF" height="31.291" style="stroke:#181818;stroke-width:1.0;" width="10" x="970.5" y="298.9883"/><rect fill="#FFFFFF" height="31.291" style="stroke:#181818;stroke-width:1.0;" width="10" x="970.5" y="629.1895"/><rect fill="#FFFFFF" height="31.291" style="stroke:#181818;stroke-width:1.0;" width="10" x="970.5" y="1048.9727"/><rect fill="#FFFFFF" height="31.291" style="stroke:#181818;stroke-width:1.0;" width="10" x="1102.5" y="1111.5547"/><rect fill="#FFFFFF" height="31.291" style="stroke:#181818;stroke-width:1.0;" width="10" x="1242.5" y="361.5703"/><rect fill="#FFFFFF" height="31.291" style="stroke:#181818;stroke-width:1.0;" width="10" x="1374" y="691.7715"/><rect fill="#FFFFFF" height="163.4941" style="stroke:#181818;stroke-width:1.0;" width="10" x="1519.5" y="1243.4277"/><line style="stroke:#181818;stroke-width:0.5;stroke-dasharray:5.0,5.0;" x1="23" x2="23" y1="123.2422" y2="1487.5039"/><line style="stroke:#181818;stroke-width:0.5;stroke-dasharray:5.0,5.0;" x1="398" x2="398" y1="123.2422" y2="1487.5039"/><line style="stroke:#181818;stroke-width:0.5;stroke-dasharray:5.0,5.0;" x1="650" x2="650" y1="123.2422" y2="1487.5039"/><line style="stroke:#181818;stroke-width:0.5;stroke-dasharray:5.0,5.0;" x1="868" x2="868" y1="123.2422" y2="1487.5039"/><line style="stroke:#181818;stroke-width:0.5;stroke-dasharray:5.0,5.0;" x1="975" x2="975" y1="123.2422" y2="1487.5039"/><line style="stroke:#181818;stroke-width:0.5;stroke-dasharray:5.0,5.0;" x1="1107" x2="1107" y1="123.2422" y2="1487.5039"/><line style="stroke:#181818;stroke-width:0.5;stroke-dasharray:5.0,5.0;" x1="1247" x2="1247" y1="123.2422" y2="1487.5039"/><line style="stroke:#181818;stroke-width:0.5;stroke-dasharray:5.0,5.0;" x1="1379" x2="1379" y1="123.2422" y2="1487.5039"/><line style="stroke:#181818;stroke-width:0.5;stroke-dasharray:5.0,5.0;" x1="1524" x2="1524" y1="123.2422" y2="1487.5039"/><line style="stroke:#181818;stroke-width:0.5;stroke-dasharray:5.0,5.0;" x1="1865.5" x2="1865.5" y1="1283.2383" y2="1487.5039"/><text fill="#000000" font-family="sans-serif" font-size="14" lengthAdjust="spacing" textLength="31" x="5" y="119.7285">GSM</text><ellipse cx="23.5" cy="53.1211" fill="#E3E3E3" rx="8" ry="8" style="stroke:#181818;stroke-width:0.5;"/><path d="M23.5,61.1211 L23.5,88.1211 M10.5,69.1211 L36.5,69.1211 M23.5,88.1211 L10.5,103.1211 M23.5,88.1211 L36.5,103.1211 " fill="none" style="stroke:#181818;stroke-width:0.5;"/><text fill="#000000" font-family="sans-serif" font-size="14" lengthAdjust="spacing" textLength="31" x="5" y="1501.6113">GSM</text><ellipse cx="23.5" cy="1513.625" fill="#E3E3E3" rx="8" ry="8" style="stroke:#181818;stroke-width:0.5;"/><path d="M23.5,1521.625 L23.5,1548.625 M10.5,1529.625 L36.5,1529.625 M23.5,1548.625 L10.5,1563.625 M23.5,1548.625 L36.5,1563.625 " fill="none" style="stroke:#181818;stroke-width:0.5;"/><rect fill="#E3E3E3" height="32.6211" rx="2.5" ry="2.5" style="stroke:#181818;stroke-width:0.5;" width="217" x="290" y="89.6211"/><text fill="#000000" font-family="sans-serif" font-size="14" lengthAdjust="spacing" textLength="203" x="297" y="111.7285">:AssignVehicleToAgendaEntryUI</text><rect fill="#E3E3E3" height="32.6211" rx="2.5" ry="2.5" style="stroke:#181818;stroke-width:0.5;" width="217" x="290" y="1486.5039"/><text fill="#000000" font-family="sans-serif" font-size="14" lengthAdjust="spacing" textLength="203" x="297" y="1508.6113">:AssignVehicleToAgendaEntryUI</text><rect fill="#E3E3E3" height="32.6211" rx="2.5" ry="2.5" style="stroke:#181818;stroke-width:0.5;" width="267" x="517" y="89.6211"/><text fill="#000000" font-family="sans-serif" font-size="14" lengthAdjust="spacing" textLength="253" x="524" y="111.7285">:AssignVehicleToAgendaEntryController</text><rect fill="#E3E3E3" height="32.6211" rx="2.5" ry="2.5" style="stroke:#181818;stroke-width:0.5;" width="267" x="517" y="1486.5039"/><text fill="#000000" font-family="sans-serif" font-size="14" lengthAdjust="spacing" textLength="253" x="524" y="1508.6113">:AssignVehicleToAgendaEntryController</text><rect fill="#E3E3E3" height="32.6211" rx="2.5" ry="2.5" style="stroke:#181818;stroke-width:0.5;" width="97" x="820" y="89.6211"/><text fill="#000000" font-family="sans-serif" font-size="14" lengthAdjust="spacing" textLength="83" x="827" y="111.7285">:Repositories</text><rect fill="#E3E3E3" height="32.6211" rx="2.5" ry="2.5" style="stroke:#181818;stroke-width:0.5;" width="97" x="820" y="1486.5039"/><text fill="#000000" font-family="sans-serif" font-size="14" lengthAdjust="spacing" textLength="83" x="827" y="1508.6113">:Repositories</text><rect fill="#E3E3E3" height="51.2422" rx="2.5" ry="2.5" style="stroke:#181818;stroke-width:0.5;" width="97" x="927" y="71"/><text fill="#000000" font-family="sans-serif" font-size="14" lengthAdjust="spacing" textLength="74" x="938.5" y="93.1074">repositories</text><text fill="#000000" font-family="sans-serif" font-size="14" lengthAdjust="spacing" textLength="83" x="934" y="111.7285">:Repositories</text><rect fill="#E3E3E3" height="51.2422" rx="2.5" ry="2.5" style="stroke:#181818;stroke-width:0.5;" width="97" x="927" y="1486.5039"/><text fill="#000000" font-family="sans-serif" font-size="14" lengthAdjust="spacing" textLength="74" x="938.5" y="1508.6113">repositories</text><text fill="#000000" font-family="sans-serif" font-size="14" lengthAdjust="spacing" textLength="83" x="934" y="1527.2324">:Repositories</text><rect fill="#E3E3E3" height="51.2422" rx="2.5" ry="2.5" style="stroke:#181818;stroke-width:0.5;" width="147" x="1034" y="71"/><text fill="#000000" font-family="sans-serif" font-size="14" lengthAdjust="spacing" textLength="133" x="1041" y="93.1074">employeeRepository:</text><text fill="#000000" font-family="sans-serif" font-size="14" lengthAdjust="spacing" textLength="130" x="1042.5" y="111.7285">EmployeeRepository</text><rect fill="#E3E3E3" height="51.2422" rx="2.5" ry="2.5" style="stroke:#181818;stroke-width:0.5;" width="147" x="1034" y="1486.5039"/><text fill="#000000" font-family="sans-serif" font-size="14" lengthAdjust="spacing" textLength="133" x="1041" y="1508.6113">employeeRepository:</text><text fill="#000000" font-family="sans-serif" font-size="14" lengthAdjust="spacing" textLength="130" x="1042.5" y="1527.2324">EmployeeRepository</text><rect fill="#E3E3E3" height="51.2422" rx="2.5" ry="2.5" style="stroke:#181818;stroke-width:0.5;" width="113" x="1191" y="71"/><text fill="#000000" font-family="sans-serif" font-size="14" lengthAdjust="spacing" textLength="98" x="1198.5" y="93.1074">taskRepository:</text><text fill="#000000" font-family="sans-serif" font-size="14" lengthAdjust="spacing" textLength="99" x="1198" y="111.7285">TaskRepository</text><rect fill="#E3E3E3" height="51.2422" rx="2.5" ry="2.5" style="stroke:#181818;stroke-width:0.5;" width="113" x="1191" y="1486.5039"/><text fill="#000000" font-family="sans-serif" font-size="14" lengthAdjust="spacing" textLength="98" x="1198.5" y="1508.6113">taskRepository:</text><text fill="#000000" font-family="sans-serif" font-size="14" lengthAdjust="spacing" textLength="99" x="1198" y="1527.2324">TaskRepository</text><rect fill="#E3E3E3" height="51.2422" rx="2.5" ry="2.5" style="stroke:#181818;stroke-width:0.5;" width="130" x="1314" y="71"/><text fill="#000000" font-family="sans-serif" font-size="14" lengthAdjust="spacing" textLength="116" x="1321" y="93.1074">vehicleRepository:</text><text fill="#000000" font-family="sans-serif" font-size="14" lengthAdjust="spacing" textLength="114" x="1322" y="111.7285">VehicleRepository</text><rect fill="#E3E3E3" height="51.2422" rx="2.5" ry="2.5" style="stroke:#181818;stroke-width:0.5;" width="130" x="1314" y="1486.5039"/><text fill="#000000" font-family="sans-serif" font-size="14" lengthAdjust="spacing" textLength="116" x="1321" y="1508.6113">vehicleRepository:</text><text fill="#000000" font-family="sans-serif" font-size="14" lengthAdjust="spacing" textLength="114" x="1322" y="1527.2324">VehicleRepository</text><rect fill="#E3E3E3" height="32.6211" rx="2.5" ry="2.5" style="stroke:#181818;stroke-width:0.5;" width="141" x="1454" y="89.6211"/><text fill="#000000" font-family="sans-serif" font-size="14" lengthAdjust="spacing" textLength="127" x="1461" y="111.7285">employee:Employee</text><rect fill="#E3E3E3" height="32.6211" rx="2.5" ry="2.5" style="stroke:#181818;stroke-width:0.5;" width="141" x="1454" y="1486.5039"/><text fill="#000000" font-family="sans-serif" font-size="14" lengthAdjust="spacing" textLength="127" x="1461" y="1508.6113">employee:Employee</text><rect fill="#E3E3E3" height="32.6211" rx="2.5" ry="2.5" style="stroke:#181818;stroke-width:0.5;" width="40" x="1845.5" y="1486.5039"/><text fill="#000000" font-family="sans-serif" font-size="14" lengthAdjust="spacing" textLength="26" x="1852.5" y="1508.6113">task</text><rect fill="#FFFFFF" height="1336.2617" style="stroke:#181818;stroke-width:1.0;" width="10" x="18.5" y="133.2422"/><rect fill="#FFFFFF" height="298.9102" style="stroke:#181818;stroke-width:1.0;" width="10" x="393.5" y="173.8242"/><rect fill="#FFFFFF" height="281.6191" style="stroke:#181818;stroke-width:1.0;" width="10" x="393.5" y="504.0254"/><rect fill="#FFFFFF" height="31.291" style="stroke:#181818;stroke-width:1.0;" width="10" x="393.5" y="816.9355"/><rect fill="#FFFFFF" height="589.9863" style="stroke:#181818;stroke-width:1.0;" width="10" x="393.5" y="879.5176"/><rect fill="#FFFFFF" height="219.0371" style="stroke:#181818;stroke-width:1.0;" width="10" x="645.5" y="205.1152"/><rect fill="#FFFFFF" height="219.0371" style="stroke:#181818;stroke-width:1.0;" width="10" x="645.5" y="535.3164"/><rect fill="#FFFFFF" height="527.4043" style="stroke:#181818;stroke-width:1.0;" width="10" x="645.5" y="910.8086"/><rect fill="#FFFFFF" height="230.0371" style="stroke:#181818;stroke-width:1.0;" width="10" x="650.5" y="950.0996"/><rect fill="#FFFFFF" height="31.291" style="stroke:#181818;stroke-width:1.0;" width="10" x="863.5" y="236.4063"/><rect fill="#FFFFFF" height="31.291" style="stroke:#181818;stroke-width:1.0;" width="10" x="863.5" y="566.6074"/><rect fill="#FFFFFF" height="31.291" style="stroke:#181818;stroke-width:1.0;" width="10" x="863.5" y="986.3906"/><rect fill="#FFFFFF" height="31.291" style="stroke:#181818;stroke-width:1.0;" width="10" x="970.5" y="298.9883"/><rect fill="#FFFFFF" height="31.291" style="stroke:#181818;stroke-width:1.0;" width="10" x="970.5" y="629.1895"/><rect fill="#FFFFFF" height="31.291" style="stroke:#181818;stroke-width:1.0;" width="10" x="970.5" y="1048.9727"/><rect fill="#FFFFFF" height="31.291" style="stroke:#181818;stroke-width:1.0;" width="10" x="1102.5" y="1111.5547"/><rect fill="#FFFFFF" height="31.291" style="stroke:#181818;stroke-width:1.0;" width="10" x="1242.5" y="361.5703"/><rect fill="#FFFFFF" height="31.291" style="stroke:#181818;stroke-width:1.0;" width="10" x="1374" y="691.7715"/><rect fill="#FFFFFF" height="163.4941" style="stroke:#181818;stroke-width:1.0;" width="10" x="1519.5" y="1243.4277"/><polygon fill="#181818" points="381.5,169.8242,391.5,173.8242,381.5,177.8242,385.5,173.8242" style="stroke:#181818;stroke-width:1.0;"/><line style="stroke:#181818;stroke-width:1.0;" x1="28.5" x2="387.5" y1="173.8242" y2="173.8242"/><text fill="#000000" font-family="sans-serif" font-size="13" font-weight="bold" lengthAdjust="spacing" textLength="7" x="35.5" y="159.916">1</text><text fill="#000000" font-family="sans-serif" font-size="13" lengthAdjust="spacing" textLength="208" x="46.5" y="151.2705">asks to assign one or more vehicles</text><text fill="#000000" font-family="sans-serif" font-size="13" lengthAdjust="spacing" textLength="144" x="46.5" y="168.5615">to an entry in the agenda</text><polygon fill="#181818" points="633.5,201.1152,643.5,205.1152,633.5,209.1152,637.5,205.1152" style="stroke:#181818;stroke-width:1.0;"/><line style="stroke:#181818;stroke-width:1.0;" x1="403.5" x2="639.5" y1="205.1152" y2="205.1152"/><text fill="#000000" font-family="sans-serif" font-size="13" font-weight="bold" lengthAdjust="spacing" textLength="7" x="410.5" y="199.8525">2</text><text fill="#000000" font-family="sans-serif" font-size="13" lengthAdjust="spacing" textLength="112" x="421.5" y="199.8525">getAvailableTasks()</text><polygon fill="#181818" points="851.5,232.4063,861.5,236.4063,851.5,240.4063,855.5,236.4063" style="stroke:#181818;stroke-width:1.0;"/><line style="stroke:#181818;stroke-width:1.0;" x1="655.5" x2="857.5" y1="236.4063" y2="236.4063"/><text fill="#000000" font-family="sans-serif" font-size="13" font-weight="bold" lengthAdjust="spacing" textLength="7" x="662.5" y="231.1436">3</text><text fill="#000000" font-family="sans-serif" font-size="13" lengthAdjust="spacing" textLength="75" x="673.5" y="231.1436">getInstance()</text><polygon fill="#181818" points="666.5,263.6973,656.5,267.6973,666.5,271.6973,662.5,267.6973" style="stroke:#181818;stroke-width:1.0;"/><line style="stroke:#181818;stroke-width:1.0;stroke-dasharray:2.0,2.0;" x1="660.5" x2="867.5" y1="267.6973" y2="267.6973"/><text fill="#000000" font-family="sans-serif" font-size="13" font-weight="bold" lengthAdjust="spacing" textLength="7" x="672.5" y="262.4346">4</text><text fill="#000000" font-family="sans-serif" font-size="13" lengthAdjust="spacing" textLength="67" x="683.5" y="262.4346">repositories</text><polygon fill="#181818" points="958.5,294.9883,968.5,298.9883,958.5,302.9883,962.5,298.9883" style="stroke:#181818;stroke-width:1.0;"/><line style="stroke:#181818;stroke-width:1.0;" x1="655.5" x2="964.5" y1="298.9883" y2="298.9883"/><text fill="#000000" font-family="sans-serif" font-size="13" font-weight="bold" lengthAdjust="spacing" textLength="7" x="662.5" y="293.7256">5</text><text fill="#000000" font-family="sans-serif" font-size="13" lengthAdjust="spacing" textLength="116" x="673.5" y="293.7256">getTaskRepository()</text><polygon fill="#181818" points="666.5,326.2793,656.5,330.2793,666.5,334.2793,662.5,330.2793" style="stroke:#181818;stroke-width:1.0;"/><line style="stroke:#181818;stroke-width:1.0;stroke-dasharray:2.0,2.0;" x1="660.5" x2="974.5" y1="330.2793" y2="330.2793"/><text fill="#000000" font-family="sans-serif" font-size="13" font-weight="bold" lengthAdjust="spacing" textLength="7" x="672.5" y="325.0166">6</text><text fill="#000000" font-family="sans-serif" font-size="13" lengthAdjust="spacing" textLength="87" x="683.5" y="325.0166">taskRepository</text><polygon fill="#181818" points="1230.5,357.5703,1240.5,361.5703,1230.5,365.5703,1234.5,361.5703" style="stroke:#181818;stroke-width:1.0;"/><line style="stroke:#181818;stroke-width:1.0;" x1="655.5" x2="1236.5" y1="361.5703" y2="361.5703"/><text fill="#000000" font-family="sans-serif" font-size="13" font-weight="bold" lengthAdjust="spacing" textLength="7" x="662.5" y="356.3076">7</text><text fill="#000000" font-family="sans-serif" font-size="13" lengthAdjust="spacing" textLength="112" x="673.5" y="356.3076">getAvailableTasks()</text><polygon fill="#181818" points="666.5,388.8613,656.5,392.8613,666.5,396.8613,662.5,392.8613" style="stroke:#181818;stroke-width:1.0;"/><line style="stroke:#181818;stroke-width:1.0;stroke-dasharray:2.0,2.0;" x1="660.5" x2="1246.5" y1="392.8613" y2="392.8613"/><text fill="#000000" font-family="sans-serif" font-size="13" font-weight="bold" lengthAdjust="spacing" textLength="7" x="672.5" y="387.5986">8</text><text fill="#000000" font-family="sans-serif" font-size="13" lengthAdjust="spacing" textLength="105" x="683.5" y="387.5986">availableTasksList</text><polygon fill="#181818" points="414.5,420.1523,404.5,424.1523,414.5,428.1523,410.5,424.1523" style="stroke:#181818;stroke-width:1.0;"/><line style="stroke:#181818;stroke-width:1.0;stroke-dasharray:2.0,2.0;" x1="408.5" x2="649.5" y1="424.1523" y2="424.1523"/><text fill="#000000" font-family="sans-serif" font-size="13" font-weight="bold" lengthAdjust="spacing" textLength="7" x="420.5" y="418.8896">9</text><text fill="#000000" font-family="sans-serif" font-size="13" lengthAdjust="spacing" textLength="105" x="431.5" y="418.8896">availableTasksList</text><polygon fill="#181818" points="39.5,468.7344,29.5,472.7344,39.5,476.7344,35.5,472.7344" style="stroke:#181818;stroke-width:1.0;"/><line style="stroke:#181818;stroke-width:1.0;stroke-dasharray:2.0,2.0;" x1="33.5" x2="397.5" y1="472.7344" y2="472.7344"/><text fill="#000000" font-family="sans-serif" font-size="13" font-weight="bold" lengthAdjust="spacing" textLength="14" x="45.5" y="458.8262">10</text><text fill="#000000" font-family="sans-serif" font-size="13" lengthAdjust="spacing" textLength="179" x="63.5" y="450.1807">shows available agenda entries</text><text fill="#000000" font-family="sans-serif" font-size="13" lengthAdjust="spacing" textLength="132" x="63.5" y="467.4717">and asks to select one</text><polygon fill="#181818" points="381.5,500.0254,391.5,504.0254,381.5,508.0254,385.5,504.0254" style="stroke:#181818;stroke-width:1.0;"/><line style="stroke:#181818;stroke-width:1.0;" x1="28.5" x2="387.5" y1="504.0254" y2="504.0254"/><text fill="#000000" font-family="sans-serif" font-size="13" font-weight="bold" lengthAdjust="spacing" textLength="14" x="35.5" y="498.7627">11</text><text fill="#000000" font-family="sans-serif" font-size="13" lengthAdjust="spacing" textLength="146" x="53.5" y="498.7627">selects one agenda entry</text><polygon fill="#181818" points="633.5,531.3164,643.5,535.3164,633.5,539.3164,637.5,535.3164" style="stroke:#181818;stroke-width:1.0;"/><line style="stroke:#181818;stroke-width:1.0;" x1="403.5" x2="639.5" y1="535.3164" y2="535.3164"/><text fill="#000000" font-family="sans-serif" font-size="13" font-weight="bold" lengthAdjust="spacing" textLength="14" x="410.5" y="530.0537">12</text><text fill="#000000" font-family="sans-serif" font-size="13" lengthAdjust="spacing" textLength="127" x="428.5" y="530.0537">getAvailableVehicles()</text><polygon fill="#181818" points="851.5,562.6074,861.5,566.6074,851.5,570.6074,855.5,566.6074" style="stroke:#181818;stroke-width:1.0;"/><line style="stroke:#181818;stroke-width:1.0;" x1="655.5" x2="857.5" y1="566.6074" y2="566.6074"/><text fill="#000000" font-family="sans-serif" font-size="13" font-weight="bold" lengthAdjust="spacing" textLength="14" x="662.5" y="561.3447">13</text><text fill="#000000" font-family="sans-serif" font-size="13" lengthAdjust="spacing" textLength="75" x="680.5" y="561.3447">getInstance()</text><polygon fill="#181818" points="666.5,593.8984,656.5,597.8984,666.5,601.8984,662.5,597.8984" style="stroke:#181818;stroke-width:1.0;"/><line style="stroke:#181818;stroke-width:1.0;stroke-dasharray:2.0,2.0;" x1="660.5" x2="867.5" y1="597.8984" y2="597.8984"/><text fill="#000000" font-family="sans-serif" font-size="13" font-weight="bold" lengthAdjust="spacing" textLength="14" x="672.5" y="592.6357">14</text><text fill="#000000" font-family="sans-serif" font-size="13" lengthAdjust="spacing" textLength="67" x="690.5" y="592.6357">repositories</text><polygon fill="#181818" points="958.5,625.1895,968.5,629.1895,958.5,633.1895,962.5,629.1895" style="stroke:#181818;stroke-width:1.0;"/><line style="stroke:#181818;stroke-width:1.0;" x1="655.5" x2="964.5" y1="629.1895" y2="629.1895"/><text fill="#000000" font-family="sans-serif" font-size="13" font-weight="bold" lengthAdjust="spacing" textLength="14" x="662.5" y="623.9268">15</text><text fill="#000000" font-family="sans-serif" font-size="13" lengthAdjust="spacing" textLength="131" x="680.5" y="623.9268">getVehicleRepository()</text><polygon fill="#181818" points="666.5,656.4805,656.5,660.4805,666.5,664.4805,662.5,660.4805" style="stroke:#181818;stroke-width:1.0;"/><line style="stroke:#181818;stroke-width:1.0;stroke-dasharray:2.0,2.0;" x1="660.5" x2="974.5" y1="660.4805" y2="660.4805"/><text fill="#000000" font-family="sans-serif" font-size="13" font-weight="bold" lengthAdjust="spacing" textLength="14" x="672.5" y="655.2178">16</text><text fill="#000000" font-family="sans-serif" font-size="13" lengthAdjust="spacing" textLength="101" x="690.5" y="655.2178">vehicleRepository</text><polygon fill="#181818" points="1362,687.7715,1372,691.7715,1362,695.7715,1366,691.7715" style="stroke:#181818;stroke-width:1.0;"/><line style="stroke:#181818;stroke-width:1.0;" x1="655.5" x2="1368" y1="691.7715" y2="691.7715"/><text fill="#000000" font-family="sans-serif" font-size="13" font-weight="bold" lengthAdjust="spacing" textLength="14" x="662.5" y="686.5088">17</text><text fill="#000000" font-family="sans-serif" font-size="13" lengthAdjust="spacing" textLength="127" x="680.5" y="686.5088">getAvailableVehicles()</text><polygon fill="#181818" points="666.5,719.0625,656.5,723.0625,666.5,727.0625,662.5,723.0625" style="stroke:#181818;stroke-width:1.0;"/><line style="stroke:#181818;stroke-width:1.0;stroke-dasharray:2.0,2.0;" x1="660.5" x2="1378" y1="723.0625" y2="723.0625"/><text fill="#000000" font-family="sans-serif" font-size="13" font-weight="bold" lengthAdjust="spacing" textLength="14" x="672.5" y="717.7998">18</text><text fill="#000000" font-family="sans-serif" font-size="13" lengthAdjust="spacing" textLength="120" x="690.5" y="717.7998">availableVehiclesList</text><polygon fill="#181818" points="414.5,750.3535,404.5,754.3535,414.5,758.3535,410.5,754.3535" style="stroke:#181818;stroke-width:1.0;"/><line style="stroke:#181818;stroke-width:1.0;stroke-dasharray:2.0,2.0;" x1="408.5" x2="649.5" y1="754.3535" y2="754.3535"/><text fill="#000000" font-family="sans-serif" font-size="13" font-weight="bold" lengthAdjust="spacing" textLength="14" x="420.5" y="749.0908">19</text><text fill="#000000" font-family="sans-serif" font-size="13" lengthAdjust="spacing" textLength="120" x="438.5" y="749.0908">availableVehiclesList</text><polygon fill="#181818" points="39.5,781.6445,29.5,785.6445,39.5,789.6445,35.5,785.6445" style="stroke:#181818;stroke-width:1.0;"/><line style="stroke:#181818;stroke-width:1.0;stroke-dasharray:2.0,2.0;" x1="33.5" x2="397.5" y1="785.6445" y2="785.6445"/><text fill="#000000" font-family="sans-serif" font-size="13" font-weight="bold" lengthAdjust="spacing" textLength="14" x="45.5" y="780.3818">20</text><text fill="#000000" font-family="sans-serif" font-size="13" lengthAdjust="spacing" textLength="323" x="63.5" y="780.3818">shows available vehicles and asks to select at least one</text><polygon fill="#181818" points="381.5,812.9355,391.5,816.9355,381.5,820.9355,385.5,816.9355" style="stroke:#181818;stroke-width:1.0;"/><line style="stroke:#181818;stroke-width:1.0;" x1="28.5" x2="387.5" y1="816.9355" y2="816.9355"/><text fill="#000000" font-family="sans-serif" font-size="13" font-weight="bold" lengthAdjust="spacing" textLength="14" x="35.5" y="811.6729">21</text><text fill="#000000" font-family="sans-serif" font-size="13" lengthAdjust="spacing" textLength="92" x="53.5" y="811.6729">selects vehicles</text><polygon fill="#181818" points="39.5,844.2266,29.5,848.2266,39.5,852.2266,35.5,848.2266" style="stroke:#181818;stroke-width:1.0;"/><line style="stroke:#181818;stroke-width:1.0;stroke-dasharray:2.0,2.0;" x1="33.5" x2="397.5" y1="848.2266" y2="848.2266"/><text fill="#000000" font-family="sans-serif" font-size="13" font-weight="bold" lengthAdjust="spacing" textLength="14" x="45.5" y="842.9639">22</text><text fill="#000000" font-family="sans-serif" font-size="13" lengthAdjust="spacing" textLength="236" x="63.5" y="842.9639">shows all data and requests confirmation</text><polygon fill="#181818" points="381.5,875.5176,391.5,879.5176,381.5,883.5176,385.5,879.5176" style="stroke:#181818;stroke-width:1.0;"/><line style="stroke:#181818;stroke-width:1.0;" x1="28.5" x2="387.5" y1="879.5176" y2="879.5176"/><text fill="#000000" font-family="sans-serif" font-size="13" font-weight="bold" lengthAdjust="spacing" textLength="14" x="35.5" y="874.2549">23</text><text fill="#000000" font-family="sans-serif" font-size="13" lengthAdjust="spacing" textLength="75" x="53.5" y="874.2549">submits data</text><polygon fill="#181818" points="633.5,906.8086,643.5,910.8086,633.5,914.8086,637.5,910.8086" style="stroke:#181818;stroke-width:1.0;"/><line style="stroke:#181818;stroke-width:1.0;" x1="403.5" x2="639.5" y1="910.8086" y2="910.8086"/><text fill="#000000" font-family="sans-serif" font-size="13" font-weight="bold" lengthAdjust="spacing" textLength="14" x="410.5" y="905.5459">24</text><text fill="#000000" font-family="sans-serif" font-size="13" lengthAdjust="spacing" textLength="131" x="428.5" y="905.5459">assignVehicleToTask()</text><line style="stroke:#181818;stroke-width:1.0;" x1="655.5" x2="702.5" y1="937.0996" y2="937.0996"/><line style="stroke:#181818;stroke-width:1.0;" x1="702.5" x2="702.5" y1="937.0996" y2="950.0996"/><line style="stroke:#181818;stroke-width:1.0;" x1="661.5" x2="702.5" y1="950.0996" y2="950.0996"/><polygon fill="#181818" points="671.5,946.0996,661.5,950.0996,671.5,954.0996,667.5,950.0996" style="stroke:#181818;stroke-width:1.0;"/><text fill="#000000" font-family="sans-serif" font-size="13" font-weight="bold" lengthAdjust="spacing" textLength="14" x="667.5" y="931.8369">25</text><text fill="#000000" font-family="sans-serif" font-size="13" lengthAdjust="spacing" textLength="176" x="685.5" y="931.8369">getEmployeeFromRepository()</text><polygon fill="#181818" points="851.5,982.3906,861.5,986.3906,851.5,990.3906,855.5,986.3906" style="stroke:#181818;stroke-width:1.0;"/><line style="stroke:#181818;stroke-width:1.0;" x1="660.5" x2="857.5" y1="986.3906" y2="986.3906"/><text fill="#000000" font-family="sans-serif" font-size="13" font-weight="bold" lengthAdjust="spacing" textLength="14" x="667.5" y="981.1279">26</text><text fill="#000000" font-family="sans-serif" font-size="13" lengthAdjust="spacing" textLength="75" x="685.5" y="981.1279">getInstance()</text><polygon fill="#181818" points="671.5,1013.6816,661.5,1017.6816,671.5,1021.6816,667.5,1017.6816" style="stroke:#181818;stroke-width:1.0;"/><line style="stroke:#181818;stroke-width:1.0;stroke-dasharray:2.0,2.0;" x1="665.5" x2="867.5" y1="1017.6816" y2="1017.6816"/><text fill="#000000" font-family="sans-serif" font-size="13" font-weight="bold" lengthAdjust="spacing" textLength="14" x="677.5" y="1012.4189">27</text><text fill="#000000" font-family="sans-serif" font-size="13" lengthAdjust="spacing" textLength="67" x="695.5" y="1012.4189">repositories</text><polygon fill="#181818" points="958.5,1044.9727,968.5,1048.9727,958.5,1052.9727,962.5,1048.9727" style="stroke:#181818;stroke-width:1.0;"/><line style="stroke:#181818;stroke-width:1.0;" x1="660.5" x2="964.5" y1="1048.9727" y2="1048.9727"/><text fill="#000000" font-family="sans-serif" font-size="13" font-weight="bold" lengthAdjust="spacing" textLength="14" x="667.5" y="1043.71">28</text><text fill="#000000" font-family="sans-serif" font-size="13" lengthAdjust="spacing" textLength="156" x="685.5" y="1043.71">getEmployeeRepositories()</text><polygon fill="#181818" points="671.5,1076.2637,661.5,1080.2637,671.5,1084.2637,667.5,1080.2637" style="stroke:#181818;stroke-width:1.0;"/><line style="stroke:#181818;stroke-width:1.0;stroke-dasharray:2.0,2.0;" x1="665.5" x2="974.5" y1="1080.2637" y2="1080.2637"/><text fill="#000000" font-family="sans-serif" font-size="13" font-weight="bold" lengthAdjust="spacing" textLength="14" x="677.5" y="1075.001">29</text><text fill="#000000" font-family="sans-serif" font-size="13" lengthAdjust="spacing" textLength="130" x="695.5" y="1075.001">EmployeeRepositories</text><polygon fill="#181818" points="1090.5,1107.5547,1100.5,1111.5547,1090.5,1115.5547,1094.5,1111.5547" style="stroke:#181818;stroke-width:1.0;"/><line style="stroke:#181818;stroke-width:1.0;" x1="660.5" x2="1096.5" y1="1111.5547" y2="1111.5547"/><text fill="#000000" font-family="sans-serif" font-size="13" font-weight="bold" lengthAdjust="spacing" textLength="14" x="667.5" y="1106.292">30</text><text fill="#000000" font-family="sans-serif" font-size="13" lengthAdjust="spacing" textLength="84" x="685.5" y="1106.292">getEmployee()</text><polygon fill="#181818" points="671.5,1138.8457,661.5,1142.8457,671.5,1146.8457,667.5,1142.8457" style="stroke:#181818;stroke-width:1.0;"/><line style="stroke:#181818;stroke-width:1.0;stroke-dasharray:2.0,2.0;" x1="665.5" x2="1106.5" y1="1142.8457" y2="1142.8457"/><text fill="#000000" font-family="sans-serif" font-size="13" font-weight="bold" lengthAdjust="spacing" textLength="14" x="677.5" y="1137.583">31</text><text fill="#000000" font-family="sans-serif" font-size="13" lengthAdjust="spacing" textLength="56" x="695.5" y="1137.583">employee</text><line style="stroke:#181818;stroke-width:1.0;stroke-dasharray:2.0,2.0;" x1="660.5" x2="702.5" y1="1179.1367" y2="1179.1367"/><line style="stroke:#181818;stroke-width:1.0;stroke-dasharray:2.0,2.0;" x1="702.5" x2="702.5" y1="1179.1367" y2="1192.1367"/><line style="stroke:#181818;stroke-width:1.0;stroke-dasharray:2.0,2.0;" x1="655.5" x2="702.5" y1="1192.1367" y2="1192.1367"/><polygon fill="#181818" points="665.5,1188.1367,655.5,1192.1367,665.5,1196.1367,661.5,1192.1367" style="stroke:#181818;stroke-width:1.0;"/><text fill="#000000" font-family="sans-serif" font-size="13" font-weight="bold" lengthAdjust="spacing" textLength="14" x="667.5" y="1173.874">32</text><text fill="#000000" font-family="sans-serif" font-size="13" lengthAdjust="spacing" textLength="56" x="685.5" y="1173.874">employee</text><polygon fill="#181818" points="1507.5,1239.4277,1517.5,1243.4277,1507.5,1247.4277,1511.5,1243.4277" style="stroke:#181818;stroke-width:1.0;"/><line style="stroke:#181818;stroke-width:1.0;" x1="655.5" x2="1513.5" y1="1243.4277" y2="1243.4277"/><text fill="#000000" font-family="sans-serif" font-size="13" font-weight="bold" lengthAdjust="spacing" textLength="14" x="662.5" y="1238.165">33</text><text fill="#000000" font-family="sans-serif" font-size="13" lengthAdjust="spacing" textLength="274" x="680.5" y="1238.165">assignVehicleToTask(employee, task, vehicles)</text><polygon fill="#181818" points="1833.5,1270.7188,1843.5,1274.7188,1833.5,1278.7188,1837.5,1274.7188" style="stroke:#181818;stroke-width:1.0;"/><line style="stroke:#181818;stroke-width:1.0;" x1="1529.5" x2="1839.5" y1="1274.7188" y2="1274.7188"/><text fill="#000000" font-family="sans-serif" font-size="13" font-weight="bold" lengthAdjust="spacing" textLength="14" x="1536.5" y="1269.4561">34</text><text fill="#000000" font-family="sans-serif" font-size="13" lengthAdjust="spacing" textLength="274" x="1554.5" y="1269.4561">assignVehicleToTask(employee, task, vehicles)</text><rect fill="#E3E3E3" height="32.6211" rx="2.5" ry="2.5" style="stroke:#181818;stroke-width:0.5;" width="40" x="1845.5" y="1251.4277"/><text fill="#000000" font-family="sans-serif" font-size="14" lengthAdjust="spacing" textLength="26" x="1852.5" y="1273.5352">task</text><line style="stroke:#181818;stroke-width:1.0;" x1="1529.5" x2="1571.5" y1="1318.3398" y2="1318.3398"/><line style="stroke:#181818;stroke-width:1.0;" x1="1571.5" x2="1571.5" y1="1318.3398" y2="1331.3398"/><line style="stroke:#181818;stroke-width:1.0;" x1="1530.5" x2="1571.5" y1="1331.3398" y2="1331.3398"/><polygon fill="#181818" points="1540.5,1327.3398,1530.5,1331.3398,1540.5,1335.3398,1536.5,1331.3398" style="stroke:#181818;stroke-width:1.0;"/><text fill="#000000" font-family="sans-serif" font-size="13" font-weight="bold" lengthAdjust="spacing" textLength="14" x="1536.5" y="1313.0771">35</text><text fill="#000000" font-family="sans-serif" font-size="13" lengthAdjust="spacing" textLength="104" x="1554.5" y="1313.0771">validateTask(task)</text><line style="stroke:#181818;stroke-width:1.0;" x1="1529.5" x2="1571.5" y1="1362.6309" y2="1362.6309"/><line style="stroke:#181818;stroke-width:1.0;" x1="1571.5" x2="1571.5" y1="1362.6309" y2="1375.6309"/><line style="stroke:#181818;stroke-width:1.0;" x1="1530.5" x2="1571.5" y1="1375.6309" y2="1375.6309"/><polygon fill="#181818" points="1540.5,1371.6309,1530.5,1375.6309,1540.5,1379.6309,1536.5,1375.6309" style="stroke:#181818;stroke-width:1.0;"/><text fill="#000000" font-family="sans-serif" font-size="13" font-weight="bold" lengthAdjust="spacing" textLength="14" x="1536.5" y="1357.3682">36</text><text fill="#000000" font-family="sans-serif" font-size="13" lengthAdjust="spacing" textLength="82" x="1554.5" y="1357.3682">addTask(task)</text><polygon fill="#181818" points="666.5,1402.9219,656.5,1406.9219,666.5,1410.9219,662.5,1406.9219" style="stroke:#181818;stroke-width:1.0;"/><line style="stroke:#181818;stroke-width:1.0;stroke-dasharray:2.0,2.0;" x1="660.5" x2="1523.5" y1="1406.9219" y2="1406.9219"/><text fill="#000000" font-family="sans-serif" font-size="13" font-weight="bold" lengthAdjust="spacing" textLength="14" x="672.5" y="1401.6592">37</text><text fill="#000000" font-family="sans-serif" font-size="13" lengthAdjust="spacing" textLength="25" x="690.5" y="1401.6592">task</text><polygon fill="#181818" points="414.5,1434.2129,404.5,1438.2129,414.5,1442.2129,410.5,1438.2129" style="stroke:#181818;stroke-width:1.0;"/><line style="stroke:#181818;stroke-width:1.0;stroke-dasharray:2.0,2.0;" x1="408.5" x2="649.5" y1="1438.2129" y2="1438.2129"/><text fill="#000000" font-family="sans-serif" font-size="13" font-weight="bold" lengthAdjust="spacing" textLength="14" x="420.5" y="1432.9502">38</text><text fill="#000000" font-family="sans-serif" font-size="13" lengthAdjust="spacing" textLength="25" x="438.5" y="1432.9502">task</text><polygon fill="#181818" points="34.5,1465.5039,24.5,1469.5039,34.5,1473.5039,30.5,1469.5039" style="stroke:#181818;stroke-width:1.0;"/><line style="stroke:#181818;stroke-width:1.0;stroke-dasharray:2.0,2.0;" x1="28.5" x2="397.5" y1="1469.5039" y2="1469.5039"/><text fill="#000000" font-family="sans-serif" font-size="13" font-weight="bold" lengthAdjust="spacing" textLength="14" x="40.5" y="1464.2412">39</text><text fill="#000000" font-family="sans-serif" font-size="13" lengthAdjust="spacing" textLength="158" x="58.5" y="1464.2412">displays operation success</text><!--SRC=[jLTDJ-Cm4BtxLrYzK50hhVQmXnwGAc1NI22jQE74nKschTN4pjekR2L-_DhEfsFdeuZrWHB7ysOcdlSybWVACY98YbFEUBGNF0Min16GhDva93gG7QpKAG4i85A4xPBc0hadCN-dR8Ut996043agpexf1WH2YYfjje8_Hs0Hu5jATiPckhgznC-hRzz_87Infp7WBUTgm_yY4YakyEJNwd62YSJw5satYaOq8qpXoM8f9Tsn5zZJA84rN-w0nUIEAN5wlhScp_UZBMwu_ikJ18Irl5a_FRHido3ZakgGA4YxffeuhQZv43fLrqGqB5wP3_3xORbsBI3D4du2gA4Nh-pEcxJM_hIBfOWyE3XhPy9Yk5Ek_Ll-bHo8b_QSHV5cmqajoeYjKJcBaDbe-aOKs2r6k1Zw0S-lzHxYXLv_a5Xn_Mls3tC6M9T6oWNW8ao9NvbPm32OxSIKORK7JEmErw2LArqQw08tXlOpr-wMju_Qdp1LAfN4CL44JmLiGPYgdU4OP2HefYXdCwozRBb8IQATksyKH7j68_t6cOwFWkJ_HLogIzGCu28IO2ApfOTGExPh-qB7jWErV2Cq8HjTmkR3J5sSAiKS2BU6HT5eWUhDmU-PrCIEe0NhG8TAtrjjHiZBlCZ5VEQQ4Pvv3EUvAnCphCepSQkxBn_Bn6025gsEs2LLNynXo398DxGHk-g4sw9jCF2MXtbTGCJnyq2bwijZo5UUKKNKVkm6hb-T1GCDxnVwAE7lieOhY6p9JItP2OihMP2GwDF8o08AU39KRmjARY6jaZIWynrrBD4W2Glv2-tO23v-1Iy_pyyluEbd-ThDM-yy6PDoDuKxgEoTRsCow_TIfk8bS5x5E7dvXsjlahxh4FFB08Ba3wHzHX0TUZ3eqPE65lKwbQ5g00AAG1HEWCXQ6aRAGedfoq5VI4cIzmicaAg3Y3ZRKjqZc6D_L0Z7JKgBpgFVVRsjRbThfBTHMNtwOwRcrpaVT86M3TfFtVqxx1iXRFz3qxwsty0ZXEmp8kOBcDUQq-7J8LUMuHv4UmZ1er72rHk_Vw5maXbA870V2QttbvdKyXAixWG3oGHS1VkIOU3UXiICZuyFrDt6LNURIGSDo_SpspdEAc4P-9OrRdZB6dxdr_QcDxcwEZk4OUZ6apumIKArAjdMRcgmBiy4877Si1qqTfhkeP9eVh5YT9nA0Rns5OIxqWMEgSmISj9jOmRvHKxBTHI1b25bRpoQY-q_]--></g></svg>