<?xml version="1.0" encoding="us-ascii" standalone="no"?><svg xmlns="http://www.w3.org/2000/svg" xmlns:xlink="http://www.w3.org/1999/xlink" contentStyleType="text/css" height="1587px" preserveAspectRatio="none" style="width:1804px;height:1587px;background:#FFFFFF;" version="1.1" viewBox="0 0 1804 1587" width="1804px" zoomAndPan="magnify"><defs/><g><text fill="#000000" font-family="sans-serif" font-size="14" font-weight="bold" lengthAdjust="spacing" textLength="212" x="795.25" y="30.1074">Sequence Diagram (SD) US026</text><rect fill="#FFFFFF" height="1353.5527" style="stroke:#181818;stroke-width:1.0;" width="10" x="18.5" y="133.2422"/><rect fill="#FFFFFF" height="298.9102" style="stroke:#181818;stroke-width:1.0;" width="10" x="306.5" y="173.8242"/><rect fill="#FFFFFF" height="298.9102" style="stroke:#181818;stroke-width:1.0;" width="10" x="306.5" y="504.0254"/><rect fill="#FFFFFF" height="31.291" style="stroke:#181818;stroke-width:1.0;" width="10" x="306.5" y="834.2266"/><rect fill="#FFFFFF" height="589.9863" style="stroke:#181818;stroke-width:1.0;" width="10" x="306.5" y="896.8086"/><rect fill="#FFFFFF" height="219.0371" style="stroke:#181818;stroke-width:1.0;" width="10" x="558.5" y="205.1152"/><rect fill="#FFFFFF" height="219.0371" style="stroke:#181818;stroke-width:1.0;" width="10" x="558.5" y="535.3164"/><rect fill="#FFFFFF" height="527.4043" style="stroke:#181818;stroke-width:1.0;" width="10" x="558.5" y="928.0996"/><rect fill="#FFFFFF" height="230.0371" style="stroke:#181818;stroke-width:1.0;" width="10" x="563.5" y="967.3906"/><rect fill="#FFFFFF" height="31.291" style="stroke:#181818;stroke-width:1.0;" width="10" x="776.5" y="236.4063"/><rect fill="#FFFFFF" height="31.291" style="stroke:#181818;stroke-width:1.0;" width="10" x="776.5" y="566.6074"/><rect fill="#FFFFFF" height="31.291" style="stroke:#181818;stroke-width:1.0;" width="10" x="776.5" y="1003.6816"/><rect fill="#FFFFFF" height="31.291" style="stroke:#181818;stroke-width:1.0;" width="10" x="883.5" y="298.9883"/><rect fill="#FFFFFF" height="31.291" style="stroke:#181818;stroke-width:1.0;" width="10" x="883.5" y="629.1895"/><rect fill="#FFFFFF" height="31.291" style="stroke:#181818;stroke-width:1.0;" width="10" x="883.5" y="1066.2637"/><rect fill="#FFFFFF" height="31.291" style="stroke:#181818;stroke-width:1.0;" width="10" x="1015.5" y="1128.8457"/><rect fill="#FFFFFF" height="31.291" style="stroke:#181818;stroke-width:1.0;" width="10" x="1155.5" y="361.5703"/><rect fill="#FFFFFF" height="31.291" style="stroke:#181818;stroke-width:1.0;" width="10" x="1287" y="691.7715"/><rect fill="#FFFFFF" height="163.4941" style="stroke:#181818;stroke-width:1.0;" width="10" x="1432.5" y="1260.7188"/><line style="stroke:#181818;stroke-width:0.5;stroke-dasharray:5.0,5.0;" x1="23" x2="23" y1="123.2422" y2="1504.7949"/><line style="stroke:#181818;stroke-width:0.5;stroke-dasharray:5.0,5.0;" x1="311" x2="311" y1="123.2422" y2="1504.7949"/><line style="stroke:#181818;stroke-width:0.5;stroke-dasharray:5.0,5.0;" x1="563" x2="563" y1="123.2422" y2="1504.7949"/><line style="stroke:#181818;stroke-width:0.5;stroke-dasharray:5.0,5.0;" x1="781" x2="781" y1="123.2422" y2="1504.7949"/><line style="stroke:#181818;stroke-width:0.5;stroke-dasharray:5.0,5.0;" x1="888" x2="888" y1="123.2422" y2="1504.7949"/><line style="stroke:#181818;stroke-width:0.5;stroke-dasharray:5.0,5.0;" x1="1020" x2="1020" y1="123.2422" y2="1504.7949"/><line style="stroke:#181818;stroke-width:0.5;stroke-dasharray:5.0,5.0;" x1="1160" x2="1160" y1="123.2422" y2="1504.7949"/><line style="stroke:#181818;stroke-width:0.5;stroke-dasharray:5.0,5.0;" x1="1292" x2="1292" y1="123.2422" y2="1504.7949"/><line style="stroke:#181818;stroke-width:0.5;stroke-dasharray:5.0,5.0;" x1="1437" x2="1437" y1="123.2422" y2="1504.7949"/><line style="stroke:#181818;stroke-width:0.5;stroke-dasharray:5.0,5.0;" x1="1778.5" x2="1778.5" y1="1300.5293" y2="1504.7949"/><text fill="#000000" font-family="sans-serif" font-size="14" lengthAdjust="spacing" textLength="31" x="5" y="119.7285">GSM</text><ellipse cx="23.5" cy="53.1211" fill="#E3E3E3" rx="8" ry="8" style="stroke:#181818;stroke-width:0.5;"/><path d="M23.5,61.1211 L23.5,88.1211 M10.5,69.1211 L36.5,69.1211 M23.5,88.1211 L10.5,103.1211 M23.5,88.1211 L36.5,103.1211 " fill="none" style="stroke:#181818;stroke-width:0.5;"/><text fill="#000000" font-family="sans-serif" font-size="14" lengthAdjust="spacing" textLength="31" x="5" y="1518.9023">GSM</text><ellipse cx="23.5" cy="1530.916" fill="#E3E3E3" rx="8" ry="8" style="stroke:#181818;stroke-width:0.5;"/><path d="M23.5,1538.916 L23.5,1565.916 M10.5,1546.916 L36.5,1546.916 M23.5,1565.916 L10.5,1580.916 M23.5,1565.916 L36.5,1580.916 " fill="none" style="stroke:#181818;stroke-width:0.5;"/><rect fill="#E3E3E3" height="32.6211" rx="2.5" ry="2.5" style="stroke:#181818;stroke-width:0.5;" width="217" x="203" y="89.6211"/><text fill="#000000" font-family="sans-serif" font-size="14" lengthAdjust="spacing" textLength="203" x="210" y="111.7285">:AssignVehicleToAgendaEntryUI</text><rect fill="#E3E3E3" height="32.6211" rx="2.5" ry="2.5" style="stroke:#181818;stroke-width:0.5;" width="217" x="203" y="1503.7949"/><text fill="#000000" font-family="sans-serif" font-size="14" lengthAdjust="spacing" textLength="203" x="210" y="1525.9023">:AssignVehicleToAgendaEntryUI</text><rect fill="#E3E3E3" height="32.6211" rx="2.5" ry="2.5" style="stroke:#181818;stroke-width:0.5;" width="267" x="430" y="89.6211"/><text fill="#000000" font-family="sans-serif" font-size="14" lengthAdjust="spacing" textLength="253" x="437" y="111.7285">:AssignVehicleToAgendaEntryController</text><rect fill="#E3E3E3" height="32.6211" rx="2.5" ry="2.5" style="stroke:#181818;stroke-width:0.5;" width="267" x="430" y="1503.7949"/><text fill="#000000" font-family="sans-serif" font-size="14" lengthAdjust="spacing" textLength="253" x="437" y="1525.9023">:AssignVehicleToAgendaEntryController</text><rect fill="#E3E3E3" height="32.6211" rx="2.5" ry="2.5" style="stroke:#181818;stroke-width:0.5;" width="97" x="733" y="89.6211"/><text fill="#000000" font-family="sans-serif" font-size="14" lengthAdjust="spacing" textLength="83" x="740" y="111.7285">:Repositories</text><rect fill="#E3E3E3" height="32.6211" rx="2.5" ry="2.5" style="stroke:#181818;stroke-width:0.5;" width="97" x="733" y="1503.7949"/><text fill="#000000" font-family="sans-serif" font-size="14" lengthAdjust="spacing" textLength="83" x="740" y="1525.9023">:Repositories</text><rect fill="#E3E3E3" height="51.2422" rx="2.5" ry="2.5" style="stroke:#181818;stroke-width:0.5;" width="97" x="840" y="71"/><text fill="#000000" font-family="sans-serif" font-size="14" lengthAdjust="spacing" textLength="74" x="851.5" y="93.1074">repositories</text><text fill="#000000" font-family="sans-serif" font-size="14" lengthAdjust="spacing" textLength="83" x="847" y="111.7285">:Repositories</text><rect fill="#E3E3E3" height="51.2422" rx="2.5" ry="2.5" style="stroke:#181818;stroke-width:0.5;" width="97" x="840" y="1503.7949"/><text fill="#000000" font-family="sans-serif" font-size="14" lengthAdjust="spacing" textLength="74" x="851.5" y="1525.9023">repositories</text><text fill="#000000" font-family="sans-serif" font-size="14" lengthAdjust="spacing" textLength="83" x="847" y="1544.5234">:Repositories</text><rect fill="#E3E3E3" height="51.2422" rx="2.5" ry="2.5" style="stroke:#181818;stroke-width:0.5;" width="147" x="947" y="71"/><text fill="#000000" font-family="sans-serif" font-size="14" lengthAdjust="spacing" textLength="133" x="954" y="93.1074">employeeRepository:</text><text fill="#000000" font-family="sans-serif" font-size="14" lengthAdjust="spacing" textLength="130" x="955.5" y="111.7285">EmployeeRepository</text><rect fill="#E3E3E3" height="51.2422" rx="2.5" ry="2.5" style="stroke:#181818;stroke-width:0.5;" width="147" x="947" y="1503.7949"/><text fill="#000000" font-family="sans-serif" font-size="14" lengthAdjust="spacing" textLength="133" x="954" y="1525.9023">employeeRepository:</text><text fill="#000000" font-family="sans-serif" font-size="14" lengthAdjust="spacing" textLength="130" x="955.5" y="1544.5234">EmployeeRepository</text><rect fill="#E3E3E3" height="51.2422" rx="2.5" ry="2.5" style="stroke:#181818;stroke-width:0.5;" width="113" x="1104" y="71"/><text fill="#000000" font-family="sans-serif" font-size="14" lengthAdjust="spacing" textLength="98" x="1111.5" y="93.1074">taskRepository:</text><text fill="#000000" font-family="sans-serif" font-size="14" lengthAdjust="spacing" textLength="99" x="1111" y="111.7285">TaskRepository</text><rect fill="#E3E3E3" height="51.2422" rx="2.5" ry="2.5" style="stroke:#181818;stroke-width:0.5;" width="113" x="1104" y="1503.7949"/><text fill="#000000" font-family="sans-serif" font-size="14" lengthAdjust="spacing" textLength="98" x="1111.5" y="1525.9023">taskRepository:</text><text fill="#000000" font-family="sans-serif" font-size="14" lengthAdjust="spacing" textLength="99" x="1111" y="1544.5234">TaskRepository</text><rect fill="#E3E3E3" height="51.2422" rx="2.5" ry="2.5" style="stroke:#181818;stroke-width:0.5;" width="130" x="1227" y="71"/><text fill="#000000" font-family="sans-serif" font-size="14" lengthAdjust="spacing" textLength="116" x="1234" y="93.1074">vehicleRepository:</text><text fill="#000000" font-family="sans-serif" font-size="14" lengthAdjust="spacing" textLength="114" x="1235" y="111.7285">VehicleRepository</text><rect fill="#E3E3E3" height="51.2422" rx="2.5" ry="2.5" style="stroke:#181818;stroke-width:0.5;" width="130" x="1227" y="1503.7949"/><text fill="#000000" font-family="sans-serif" font-size="14" lengthAdjust="spacing" textLength="116" x="1234" y="1525.9023">vehicleRepository:</text><text fill="#000000" font-family="sans-serif" font-size="14" lengthAdjust="spacing" textLength="114" x="1235" y="1544.5234">VehicleRepository</text><rect fill="#E3E3E3" height="32.6211" rx="2.5" ry="2.5" style="stroke:#181818;stroke-width:0.5;" width="141" x="1367" y="89.6211"/><text fill="#000000" font-family="sans-serif" font-size="14" lengthAdjust="spacing" textLength="127" x="1374" y="111.7285">employee:Employee</text><rect fill="#E3E3E3" height="32.6211" rx="2.5" ry="2.5" style="stroke:#181818;stroke-width:0.5;" width="141" x="1367" y="1503.7949"/><text fill="#000000" font-family="sans-serif" font-size="14" lengthAdjust="spacing" textLength="127" x="1374" y="1525.9023">employee:Employee</text><rect fill="#E3E3E3" height="32.6211" rx="2.5" ry="2.5" style="stroke:#181818;stroke-width:0.5;" width="40" x="1758.5" y="1503.7949"/><text fill="#000000" font-family="sans-serif" font-size="14" lengthAdjust="spacing" textLength="26" x="1765.5" y="1525.9023">task</text><rect fill="#FFFFFF" height="1353.5527" style="stroke:#181818;stroke-width:1.0;" width="10" x="18.5" y="133.2422"/><rect fill="#FFFFFF" height="298.9102" style="stroke:#181818;stroke-width:1.0;" width="10" x="306.5" y="173.8242"/><rect fill="#FFFFFF" height="298.9102" style="stroke:#181818;stroke-width:1.0;" width="10" x="306.5" y="504.0254"/><rect fill="#FFFFFF" height="31.291" style="stroke:#181818;stroke-width:1.0;" width="10" x="306.5" y="834.2266"/><rect fill="#FFFFFF" height="589.9863" style="stroke:#181818;stroke-width:1.0;" width="10" x="306.5" y="896.8086"/><rect fill="#FFFFFF" height="219.0371" style="stroke:#181818;stroke-width:1.0;" width="10" x="558.5" y="205.1152"/><rect fill="#FFFFFF" height="219.0371" style="stroke:#181818;stroke-width:1.0;" width="10" x="558.5" y="535.3164"/><rect fill="#FFFFFF" height="527.4043" style="stroke:#181818;stroke-width:1.0;" width="10" x="558.5" y="928.0996"/><rect fill="#FFFFFF" height="230.0371" style="stroke:#181818;stroke-width:1.0;" width="10" x="563.5" y="967.3906"/><rect fill="#FFFFFF" height="31.291" style="stroke:#181818;stroke-width:1.0;" width="10" x="776.5" y="236.4063"/><rect fill="#FFFFFF" height="31.291" style="stroke:#181818;stroke-width:1.0;" width="10" x="776.5" y="566.6074"/><rect fill="#FFFFFF" height="31.291" style="stroke:#181818;stroke-width:1.0;" width="10" x="776.5" y="1003.6816"/><rect fill="#FFFFFF" height="31.291" style="stroke:#181818;stroke-width:1.0;" width="10" x="883.5" y="298.9883"/><rect fill="#FFFFFF" height="31.291" style="stroke:#181818;stroke-width:1.0;" width="10" x="883.5" y="629.1895"/><rect fill="#FFFFFF" height="31.291" style="stroke:#181818;stroke-width:1.0;" width="10" x="883.5" y="1066.2637"/><rect fill="#FFFFFF" height="31.291" style="stroke:#181818;stroke-width:1.0;" width="10" x="1015.5" y="1128.8457"/><rect fill="#FFFFFF" height="31.291" style="stroke:#181818;stroke-width:1.0;" width="10" x="1155.5" y="361.5703"/><rect fill="#FFFFFF" height="31.291" style="stroke:#181818;stroke-width:1.0;" width="10" x="1287" y="691.7715"/><rect fill="#FFFFFF" height="163.4941" style="stroke:#181818;stroke-width:1.0;" width="10" x="1432.5" y="1260.7188"/><polygon fill="#181818" points="294.5,169.8242,304.5,173.8242,294.5,177.8242,298.5,173.8242" style="stroke:#181818;stroke-width:1.0;"/><line style="stroke:#181818;stroke-width:1.0;" x1="28.5" x2="300.5" y1="173.8242" y2="173.8242"/><text fill="#000000" font-family="sans-serif" font-size="13" font-weight="bold" lengthAdjust="spacing" textLength="7" x="35.5" y="159.916">1</text><text fill="#000000" font-family="sans-serif" font-size="13" lengthAdjust="spacing" textLength="208" x="46.5" y="151.2705">asks to assign one or more vehicles</text><text fill="#000000" font-family="sans-serif" font-size="13" lengthAdjust="spacing" textLength="144" x="46.5" y="168.5615">to an entry in the agenda</text><polygon fill="#181818" points="546.5,201.1152,556.5,205.1152,546.5,209.1152,550.5,205.1152" style="stroke:#181818;stroke-width:1.0;"/><line style="stroke:#181818;stroke-width:1.0;" x1="316.5" x2="552.5" y1="205.1152" y2="205.1152"/><text fill="#000000" font-family="sans-serif" font-size="13" font-weight="bold" lengthAdjust="spacing" textLength="7" x="323.5" y="199.8525">2</text><text fill="#000000" font-family="sans-serif" font-size="13" lengthAdjust="spacing" textLength="112" x="334.5" y="199.8525">getAvailableTasks()</text><polygon fill="#181818" points="764.5,232.4063,774.5,236.4063,764.5,240.4063,768.5,236.4063" style="stroke:#181818;stroke-width:1.0;"/><line style="stroke:#181818;stroke-width:1.0;" x1="568.5" x2="770.5" y1="236.4063" y2="236.4063"/><text fill="#000000" font-family="sans-serif" font-size="13" font-weight="bold" lengthAdjust="spacing" textLength="7" x="575.5" y="231.1436">3</text><text fill="#000000" font-family="sans-serif" font-size="13" lengthAdjust="spacing" textLength="75" x="586.5" y="231.1436">getInstance()</text><polygon fill="#181818" points="579.5,263.6973,569.5,267.6973,579.5,271.6973,575.5,267.6973" style="stroke:#181818;stroke-width:1.0;"/><line style="stroke:#181818;stroke-width:1.0;stroke-dasharray:2.0,2.0;" x1="573.5" x2="780.5" y1="267.6973" y2="267.6973"/><text fill="#000000" font-family="sans-serif" font-size="13" font-weight="bold" lengthAdjust="spacing" textLength="7" x="585.5" y="262.4346">4</text><text fill="#000000" font-family="sans-serif" font-size="13" lengthAdjust="spacing" textLength="67" x="596.5" y="262.4346">repositories</text><polygon fill="#181818" points="871.5,294.9883,881.5,298.9883,871.5,302.9883,875.5,298.9883" style="stroke:#181818;stroke-width:1.0;"/><line style="stroke:#181818;stroke-width:1.0;" x1="568.5" x2="877.5" y1="298.9883" y2="298.9883"/><text fill="#000000" font-family="sans-serif" font-size="13" font-weight="bold" lengthAdjust="spacing" textLength="7" x="575.5" y="293.7256">5</text><text fill="#000000" font-family="sans-serif" font-size="13" lengthAdjust="spacing" textLength="116" x="586.5" y="293.7256">getTaskRepository()</text><polygon fill="#181818" points="579.5,326.2793,569.5,330.2793,579.5,334.2793,575.5,330.2793" style="stroke:#181818;stroke-width:1.0;"/><line style="stroke:#181818;stroke-width:1.0;stroke-dasharray:2.0,2.0;" x1="573.5" x2="887.5" y1="330.2793" y2="330.2793"/><text fill="#000000" font-family="sans-serif" font-size="13" font-weight="bold" lengthAdjust="spacing" textLength="7" x="585.5" y="325.0166">6</text><text fill="#000000" font-family="sans-serif" font-size="13" lengthAdjust="spacing" textLength="87" x="596.5" y="325.0166">taskRepository</text><polygon fill="#181818" points="1143.5,357.5703,1153.5,361.5703,1143.5,365.5703,1147.5,361.5703" style="stroke:#181818;stroke-width:1.0;"/><line style="stroke:#181818;stroke-width:1.0;" x1="568.5" x2="1149.5" y1="361.5703" y2="361.5703"/><text fill="#000000" font-family="sans-serif" font-size="13" font-weight="bold" lengthAdjust="spacing" textLength="7" x="575.5" y="356.3076">7</text><text fill="#000000" font-family="sans-serif" font-size="13" lengthAdjust="spacing" textLength="112" x="586.5" y="356.3076">getAvailableTasks()</text><polygon fill="#181818" points="579.5,388.8613,569.5,392.8613,579.5,396.8613,575.5,392.8613" style="stroke:#181818;stroke-width:1.0;"/><line style="stroke:#181818;stroke-width:1.0;stroke-dasharray:2.0,2.0;" x1="573.5" x2="1159.5" y1="392.8613" y2="392.8613"/><text fill="#000000" font-family="sans-serif" font-size="13" font-weight="bold" lengthAdjust="spacing" textLength="7" x="585.5" y="387.5986">8</text><text fill="#000000" font-family="sans-serif" font-size="13" lengthAdjust="spacing" textLength="105" x="596.5" y="387.5986">availableTasksList</text><polygon fill="#181818" points="327.5,420.1523,317.5,424.1523,327.5,428.1523,323.5,424.1523" style="stroke:#181818;stroke-width:1.0;"/><line style="stroke:#181818;stroke-width:1.0;stroke-dasharray:2.0,2.0;" x1="321.5" x2="562.5" y1="424.1523" y2="424.1523"/><text fill="#000000" font-family="sans-serif" font-size="13" font-weight="bold" lengthAdjust="spacing" textLength="7" x="333.5" y="418.8896">9</text><text fill="#000000" font-family="sans-serif" font-size="13" lengthAdjust="spacing" textLength="105" x="344.5" y="418.8896">availableTasksList</text><polygon fill="#181818" points="39.5,468.7344,29.5,472.7344,39.5,476.7344,35.5,472.7344" style="stroke:#181818;stroke-width:1.0;"/><line style="stroke:#181818;stroke-width:1.0;stroke-dasharray:2.0,2.0;" x1="33.5" x2="310.5" y1="472.7344" y2="472.7344"/><text fill="#000000" font-family="sans-serif" font-size="13" font-weight="bold" lengthAdjust="spacing" textLength="14" x="45.5" y="458.8262">10</text><text fill="#000000" font-family="sans-serif" font-size="13" lengthAdjust="spacing" textLength="179" x="63.5" y="450.1807">shows available agenda entries</text><text fill="#000000" font-family="sans-serif" font-size="13" lengthAdjust="spacing" textLength="132" x="63.5" y="467.4717">and asks to select one</text><polygon fill="#181818" points="294.5,500.0254,304.5,504.0254,294.5,508.0254,298.5,504.0254" style="stroke:#181818;stroke-width:1.0;"/><line style="stroke:#181818;stroke-width:1.0;" x1="28.5" x2="300.5" y1="504.0254" y2="504.0254"/><text fill="#000000" font-family="sans-serif" font-size="13" font-weight="bold" lengthAdjust="spacing" textLength="14" x="35.5" y="498.7627">11</text><text fill="#000000" font-family="sans-serif" font-size="13" lengthAdjust="spacing" textLength="146" x="53.5" y="498.7627">selects one agenda entry</text><polygon fill="#181818" points="546.5,531.3164,556.5,535.3164,546.5,539.3164,550.5,535.3164" style="stroke:#181818;stroke-width:1.0;"/><line style="stroke:#181818;stroke-width:1.0;" x1="316.5" x2="552.5" y1="535.3164" y2="535.3164"/><text fill="#000000" font-family="sans-serif" font-size="13" font-weight="bold" lengthAdjust="spacing" textLength="14" x="323.5" y="530.0537">12</text><text fill="#000000" font-family="sans-serif" font-size="13" lengthAdjust="spacing" textLength="127" x="341.5" y="530.0537">getAvailableVehicles()</text><polygon fill="#181818" points="764.5,562.6074,774.5,566.6074,764.5,570.6074,768.5,566.6074" style="stroke:#181818;stroke-width:1.0;"/><line style="stroke:#181818;stroke-width:1.0;" x1="568.5" x2="770.5" y1="566.6074" y2="566.6074"/><text fill="#000000" font-family="sans-serif" font-size="13" font-weight="bold" lengthAdjust="spacing" textLength="14" x="575.5" y="561.3447">13</text><text fill="#000000" font-family="sans-serif" font-size="13" lengthAdjust="spacing" textLength="75" x="593.5" y="561.3447">getInstance()</text><polygon fill="#181818" points="579.5,593.8984,569.5,597.8984,579.5,601.8984,575.5,597.8984" style="stroke:#181818;stroke-width:1.0;"/><line style="stroke:#181818;stroke-width:1.0;stroke-dasharray:2.0,2.0;" x1="573.5" x2="780.5" y1="597.8984" y2="597.8984"/><text fill="#000000" font-family="sans-serif" font-size="13" font-weight="bold" lengthAdjust="spacing" textLength="14" x="585.5" y="592.6357">14</text><text fill="#000000" font-family="sans-serif" font-size="13" lengthAdjust="spacing" textLength="67" x="603.5" y="592.6357">repositories</text><polygon fill="#181818" points="871.5,625.1895,881.5,629.1895,871.5,633.1895,875.5,629.1895" style="stroke:#181818;stroke-width:1.0;"/><line style="stroke:#181818;stroke-width:1.0;" x1="568.5" x2="877.5" y1="629.1895" y2="629.1895"/><text fill="#000000" font-family="sans-serif" font-size="13" font-weight="bold" lengthAdjust="spacing" textLength="14" x="575.5" y="623.9268">15</text><text fill="#000000" font-family="sans-serif" font-size="13" lengthAdjust="spacing" textLength="131" x="593.5" y="623.9268">getVehicleRepository()</text><polygon fill="#181818" points="579.5,656.4805,569.5,660.4805,579.5,664.4805,575.5,660.4805" style="stroke:#181818;stroke-width:1.0;"/><line style="stroke:#181818;stroke-width:1.0;stroke-dasharray:2.0,2.0;" x1="573.5" x2="887.5" y1="660.4805" y2="660.4805"/><text fill="#000000" font-family="sans-serif" font-size="13" font-weight="bold" lengthAdjust="spacing" textLength="14" x="585.5" y="655.2178">16</text><text fill="#000000" font-family="sans-serif" font-size="13" lengthAdjust="spacing" textLength="101" x="603.5" y="655.2178">vehicleRepository</text><polygon fill="#181818" points="1275,687.7715,1285,691.7715,1275,695.7715,1279,691.7715" style="stroke:#181818;stroke-width:1.0;"/><line style="stroke:#181818;stroke-width:1.0;" x1="568.5" x2="1281" y1="691.7715" y2="691.7715"/><text fill="#000000" font-family="sans-serif" font-size="13" font-weight="bold" lengthAdjust="spacing" textLength="14" x="575.5" y="686.5088">17</text><text fill="#000000" font-family="sans-serif" font-size="13" lengthAdjust="spacing" textLength="127" x="593.5" y="686.5088">getAvailableVehicles()</text><polygon fill="#181818" points="579.5,719.0625,569.5,723.0625,579.5,727.0625,575.5,723.0625" style="stroke:#181818;stroke-width:1.0;"/><line style="stroke:#181818;stroke-width:1.0;stroke-dasharray:2.0,2.0;" x1="573.5" x2="1291" y1="723.0625" y2="723.0625"/><text fill="#000000" font-family="sans-serif" font-size="13" font-weight="bold" lengthAdjust="spacing" textLength="14" x="585.5" y="717.7998">18</text><text fill="#000000" font-family="sans-serif" font-size="13" lengthAdjust="spacing" textLength="120" x="603.5" y="717.7998">availableVehiclesList</text><polygon fill="#181818" points="327.5,750.3535,317.5,754.3535,327.5,758.3535,323.5,754.3535" style="stroke:#181818;stroke-width:1.0;"/><line style="stroke:#181818;stroke-width:1.0;stroke-dasharray:2.0,2.0;" x1="321.5" x2="562.5" y1="754.3535" y2="754.3535"/><text fill="#000000" font-family="sans-serif" font-size="13" font-weight="bold" lengthAdjust="spacing" textLength="14" x="333.5" y="749.0908">19</text><text fill="#000000" font-family="sans-serif" font-size="13" lengthAdjust="spacing" textLength="120" x="351.5" y="749.0908">availableVehiclesList</text><polygon fill="#181818" points="39.5,798.9355,29.5,802.9355,39.5,806.9355,35.5,802.9355" style="stroke:#181818;stroke-width:1.0;"/><line style="stroke:#181818;stroke-width:1.0;stroke-dasharray:2.0,2.0;" x1="33.5" x2="310.5" y1="802.9355" y2="802.9355"/><text fill="#000000" font-family="sans-serif" font-size="13" font-weight="bold" lengthAdjust="spacing" textLength="14" x="45.5" y="789.0273">20</text><text fill="#000000" font-family="sans-serif" font-size="13" lengthAdjust="spacing" textLength="197" x="63.5" y="780.3818">shows available vehicles and asks</text><text fill="#000000" font-family="sans-serif" font-size="13" lengthAdjust="spacing" textLength="122" x="63.5" y="797.6729">to select at least one</text><polygon fill="#181818" points="294.5,830.2266,304.5,834.2266,294.5,838.2266,298.5,834.2266" style="stroke:#181818;stroke-width:1.0;"/><line style="stroke:#181818;stroke-width:1.0;" x1="28.5" x2="300.5" y1="834.2266" y2="834.2266"/><text fill="#000000" font-family="sans-serif" font-size="13" font-weight="bold" lengthAdjust="spacing" textLength="14" x="35.5" y="828.9639">21</text><text fill="#000000" font-family="sans-serif" font-size="13" lengthAdjust="spacing" textLength="92" x="53.5" y="828.9639">selects vehicles</text><polygon fill="#181818" points="39.5,861.5176,29.5,865.5176,39.5,869.5176,35.5,865.5176" style="stroke:#181818;stroke-width:1.0;"/><line style="stroke:#181818;stroke-width:1.0;stroke-dasharray:2.0,2.0;" x1="33.5" x2="310.5" y1="865.5176" y2="865.5176"/><text fill="#000000" font-family="sans-serif" font-size="13" font-weight="bold" lengthAdjust="spacing" textLength="14" x="45.5" y="860.2549">22</text><text fill="#000000" font-family="sans-serif" font-size="13" lengthAdjust="spacing" textLength="236" x="63.5" y="860.2549">shows all data and requests confirmation</text><polygon fill="#181818" points="294.5,892.8086,304.5,896.8086,294.5,900.8086,298.5,896.8086" style="stroke:#181818;stroke-width:1.0;"/><line style="stroke:#181818;stroke-width:1.0;" x1="28.5" x2="300.5" y1="896.8086" y2="896.8086"/><text fill="#000000" font-family="sans-serif" font-size="13" font-weight="bold" lengthAdjust="spacing" textLength="14" x="35.5" y="891.5459">23</text><text fill="#000000" font-family="sans-serif" font-size="13" lengthAdjust="spacing" textLength="75" x="53.5" y="891.5459">submits data</text><polygon fill="#181818" points="546.5,924.0996,556.5,928.0996,546.5,932.0996,550.5,928.0996" style="stroke:#181818;stroke-width:1.0;"/><line style="stroke:#181818;stroke-width:1.0;" x1="316.5" x2="552.5" y1="928.0996" y2="928.0996"/><text fill="#000000" font-family="sans-serif" font-size="13" font-weight="bold" lengthAdjust="spacing" textLength="14" x="323.5" y="922.8369">24</text><text fill="#000000" font-family="sans-serif" font-size="13" lengthAdjust="spacing" textLength="131" x="341.5" y="922.8369">assignVehicleToTask()</text><line style="stroke:#181818;stroke-width:1.0;" x1="568.5" x2="615.5" y1="954.3906" y2="954.3906"/><line style="stroke:#181818;stroke-width:1.0;" x1="615.5" x2="615.5" y1="954.3906" y2="967.3906"/><line style="stroke:#181818;stroke-width:1.0;" x1="574.5" x2="615.5" y1="967.3906" y2="967.3906"/><polygon fill="#181818" points="584.5,963.3906,574.5,967.3906,584.5,971.3906,580.5,967.3906" style="stroke:#181818;stroke-width:1.0;"/><text fill="#000000" font-family="sans-serif" font-size="13" font-weight="bold" lengthAdjust="spacing" textLength="14" x="580.5" y="949.1279">25</text><text fill="#000000" font-family="sans-serif" font-size="13" lengthAdjust="spacing" textLength="176" x="598.5" y="949.1279">getEmployeeFromRepository()</text><polygon fill="#181818" points="764.5,999.6816,774.5,1003.6816,764.5,1007.6816,768.5,1003.6816" style="stroke:#181818;stroke-width:1.0;"/><line style="stroke:#181818;stroke-width:1.0;" x1="573.5" x2="770.5" y1="1003.6816" y2="1003.6816"/><text fill="#000000" font-family="sans-serif" font-size="13" font-weight="bold" lengthAdjust="spacing" textLength="14" x="580.5" y="998.4189">26</text><text fill="#000000" font-family="sans-serif" font-size="13" lengthAdjust="spacing" textLength="75" x="598.5" y="998.4189">getInstance()</text><polygon fill="#181818" points="584.5,1030.9727,574.5,1034.9727,584.5,1038.9727,580.5,1034.9727" style="stroke:#181818;stroke-width:1.0;"/><line style="stroke:#181818;stroke-width:1.0;stroke-dasharray:2.0,2.0;" x1="578.5" x2="780.5" y1="1034.9727" y2="1034.9727"/><text fill="#000000" font-family="sans-serif" font-size="13" font-weight="bold" lengthAdjust="spacing" textLength="14" x="590.5" y="1029.71">27</text><text fill="#000000" font-family="sans-serif" font-size="13" lengthAdjust="spacing" textLength="67" x="608.5" y="1029.71">repositories</text><polygon fill="#181818" points="871.5,1062.2637,881.5,1066.2637,871.5,1070.2637,875.5,1066.2637" style="stroke:#181818;stroke-width:1.0;"/><line style="stroke:#181818;stroke-width:1.0;" x1="573.5" x2="877.5" y1="1066.2637" y2="1066.2637"/><text fill="#000000" font-family="sans-serif" font-size="13" font-weight="bold" lengthAdjust="spacing" textLength="14" x="580.5" y="1061.001">28</text><text fill="#000000" font-family="sans-serif" font-size="13" lengthAdjust="spacing" textLength="156" x="598.5" y="1061.001">getEmployeeRepositories()</text><polygon fill="#181818" points="584.5,1093.5547,574.5,1097.5547,584.5,1101.5547,580.5,1097.5547" style="stroke:#181818;stroke-width:1.0;"/><line style="stroke:#181818;stroke-width:1.0;stroke-dasharray:2.0,2.0;" x1="578.5" x2="887.5" y1="1097.5547" y2="1097.5547"/><text fill="#000000" font-family="sans-serif" font-size="13" font-weight="bold" lengthAdjust="spacing" textLength="14" x="590.5" y="1092.292">29</text><text fill="#000000" font-family="sans-serif" font-size="13" lengthAdjust="spacing" textLength="130" x="608.5" y="1092.292">EmployeeRepositories</text><polygon fill="#181818" points="1003.5,1124.8457,1013.5,1128.8457,1003.5,1132.8457,1007.5,1128.8457" style="stroke:#181818;stroke-width:1.0;"/><line style="stroke:#181818;stroke-width:1.0;" x1="573.5" x2="1009.5" y1="1128.8457" y2="1128.8457"/><text fill="#000000" font-family="sans-serif" font-size="13" font-weight="bold" lengthAdjust="spacing" textLength="14" x="580.5" y="1123.583">30</text><text fill="#000000" font-family="sans-serif" font-size="13" lengthAdjust="spacing" textLength="84" x="598.5" y="1123.583">getEmployee()</text><polygon fill="#181818" points="584.5,1156.1367,574.5,1160.1367,584.5,1164.1367,580.5,1160.1367" style="stroke:#181818;stroke-width:1.0;"/><line style="stroke:#181818;stroke-width:1.0;stroke-dasharray:2.0,2.0;" x1="578.5" x2="1019.5" y1="1160.1367" y2="1160.1367"/><text fill="#000000" font-family="sans-serif" font-size="13" font-weight="bold" lengthAdjust="spacing" textLength="14" x="590.5" y="1154.874">31</text><text fill="#000000" font-family="sans-serif" font-size="13" lengthAdjust="spacing" textLength="56" x="608.5" y="1154.874">employee</text><line style="stroke:#181818;stroke-width:1.0;stroke-dasharray:2.0,2.0;" x1="573.5" x2="615.5" y1="1196.4277" y2="1196.4277"/><line style="stroke:#181818;stroke-width:1.0;stroke-dasharray:2.0,2.0;" x1="615.5" x2="615.5" y1="1196.4277" y2="1209.4277"/><line style="stroke:#181818;stroke-width:1.0;stroke-dasharray:2.0,2.0;" x1="568.5" x2="615.5" y1="1209.4277" y2="1209.4277"/><polygon fill="#181818" points="578.5,1205.4277,568.5,1209.4277,578.5,1213.4277,574.5,1209.4277" style="stroke:#181818;stroke-width:1.0;"/><text fill="#000000" font-family="sans-serif" font-size="13" font-weight="bold" lengthAdjust="spacing" textLength="14" x="580.5" y="1191.165">32</text><text fill="#000000" font-family="sans-serif" font-size="13" lengthAdjust="spacing" textLength="56" x="598.5" y="1191.165">employee</text><polygon fill="#181818" points="1420.5,1256.7188,1430.5,1260.7188,1420.5,1264.7188,1424.5,1260.7188" style="stroke:#181818;stroke-width:1.0;"/><line style="stroke:#181818;stroke-width:1.0;" x1="568.5" x2="1426.5" y1="1260.7188" y2="1260.7188"/><text fill="#000000" font-family="sans-serif" font-size="13" font-weight="bold" lengthAdjust="spacing" textLength="14" x="575.5" y="1255.4561">33</text><text fill="#000000" font-family="sans-serif" font-size="13" lengthAdjust="spacing" textLength="274" x="593.5" y="1255.4561">assignVehicleToTask(employee, task, vehicles)</text><polygon fill="#181818" points="1746.5,1288.0098,1756.5,1292.0098,1746.5,1296.0098,1750.5,1292.0098" style="stroke:#181818;stroke-width:1.0;"/><line style="stroke:#181818;stroke-width:1.0;" x1="1442.5" x2="1752.5" y1="1292.0098" y2="1292.0098"/><text fill="#000000" font-family="sans-serif" font-size="13" font-weight="bold" lengthAdjust="spacing" textLength="14" x="1449.5" y="1286.7471">34</text><text fill="#000000" font-family="sans-serif" font-size="13" lengthAdjust="spacing" textLength="274" x="1467.5" y="1286.7471">assignVehicleToTask(employee, task, vehicles)</text><rect fill="#E3E3E3" height="32.6211" rx="2.5" ry="2.5" style="stroke:#181818;stroke-width:0.5;" width="40" x="1758.5" y="1268.7188"/><text fill="#000000" font-family="sans-serif" font-size="14" lengthAdjust="spacing" textLength="26" x="1765.5" y="1290.8262">task</text><line style="stroke:#181818;stroke-width:1.0;" x1="1442.5" x2="1484.5" y1="1335.6309" y2="1335.6309"/><line style="stroke:#181818;stroke-width:1.0;" x1="1484.5" x2="1484.5" y1="1335.6309" y2="1348.6309"/><line style="stroke:#181818;stroke-width:1.0;" x1="1443.5" x2="1484.5" y1="1348.6309" y2="1348.6309"/><polygon fill="#181818" points="1453.5,1344.6309,1443.5,1348.6309,1453.5,1352.6309,1449.5,1348.6309" style="stroke:#181818;stroke-width:1.0;"/><text fill="#000000" font-family="sans-serif" font-size="13" font-weight="bold" lengthAdjust="spacing" textLength="14" x="1449.5" y="1330.3682">35</text><text fill="#000000" font-family="sans-serif" font-size="13" lengthAdjust="spacing" textLength="104" x="1467.5" y="1330.3682">validateTask(task)</text><line style="stroke:#181818;stroke-width:1.0;" x1="1442.5" x2="1484.5" y1="1379.9219" y2="1379.9219"/><line style="stroke:#181818;stroke-width:1.0;" x1="1484.5" x2="1484.5" y1="1379.9219" y2="1392.9219"/><line style="stroke:#181818;stroke-width:1.0;" x1="1443.5" x2="1484.5" y1="1392.9219" y2="1392.9219"/><polygon fill="#181818" points="1453.5,1388.9219,1443.5,1392.9219,1453.5,1396.9219,1449.5,1392.9219" style="stroke:#181818;stroke-width:1.0;"/><text fill="#000000" font-family="sans-serif" font-size="13" font-weight="bold" lengthAdjust="spacing" textLength="14" x="1449.5" y="1374.6592">36</text><text fill="#000000" font-family="sans-serif" font-size="13" lengthAdjust="spacing" textLength="82" x="1467.5" y="1374.6592">addTask(task)</text><polygon fill="#181818" points="579.5,1420.2129,569.5,1424.2129,579.5,1428.2129,575.5,1424.2129" style="stroke:#181818;stroke-width:1.0;"/><line style="stroke:#181818;stroke-width:1.0;stroke-dasharray:2.0,2.0;" x1="573.5" x2="1436.5" y1="1424.2129" y2="1424.2129"/><text fill="#000000" font-family="sans-serif" font-size="13" font-weight="bold" lengthAdjust="spacing" textLength="14" x="585.5" y="1418.9502">37</text><text fill="#000000" font-family="sans-serif" font-size="13" lengthAdjust="spacing" textLength="25" x="603.5" y="1418.9502">task</text><polygon fill="#181818" points="327.5,1451.5039,317.5,1455.5039,327.5,1459.5039,323.5,1455.5039" style="stroke:#181818;stroke-width:1.0;"/><line style="stroke:#181818;stroke-width:1.0;stroke-dasharray:2.0,2.0;" x1="321.5" x2="562.5" y1="1455.5039" y2="1455.5039"/><text fill="#000000" font-family="sans-serif" font-size="13" font-weight="bold" lengthAdjust="spacing" textLength="14" x="333.5" y="1450.2412">38</text><text fill="#000000" font-family="sans-serif" font-size="13" lengthAdjust="spacing" textLength="25" x="351.5" y="1450.2412">task</text><polygon fill="#181818" points="34.5,1482.7949,24.5,1486.7949,34.5,1490.7949,30.5,1486.7949" style="stroke:#181818;stroke-width:1.0;"/><line style="stroke:#181818;stroke-width:1.0;stroke-dasharray:2.0,2.0;" x1="28.5" x2="310.5" y1="1486.7949" y2="1486.7949"/><text fill="#000000" font-family="sans-serif" font-size="13" font-weight="bold" lengthAdjust="spacing" textLength="14" x="40.5" y="1481.5322">39</text><text fill="#000000" font-family="sans-serif" font-size="13" lengthAdjust="spacing" textLength="158" x="58.5" y="1481.5322">displays operation success</text><!--SRC=[jLTDJ-Cm4BtxLrYzK50hhVQmXnwGAc1NI22jQE74nKschTN4pjekR2L-_DhEfsFdeuZrWHB7ysOcdlSybWVACY98YbFEUBGNF0Min16GhDva93gG7QpKAG4i85A4xPBc0hadCN-dR8Ut996043agpexf1WH2YYfjje8_Hs0Hu5jATiPckhgznC-hRzz_87Infp7WBUTgm_yY4YakyEJNwd62YSJw5satYaOq8qpXoM8f9Tsn5zZJA84rN-w0nUIEAN5wlhScp_UZBMwu_ikJ18Irl5a_FRHido3ZakgGA4YxffeuhQZv43fLrqGqB5wP3_3xORbsBI3D4du2gA4Nh-pEcxJM_hIBfOWyE3XhPy9Yk5Ek_Ll-bHo8b_QSHV5cmqajoeYjKJcBaDbe-aOKs2r6k1Zw0S-lzHxYXLv_a5Xn_Mls3tC6M9T6oWNW8ao9NvbPm32OxSIKORK7JEmErw2LArqQw08tXlOpr-wMju_Qdp1LAfN4CL44JmLiGPYgdU4OP2HefYXdCwozRBb8IQATksyKH7j68_t6cOwFWkJ_HLogIzGCu28IO2ApfOTGExPh-qB7jWErV2Cq8HjTmkR3J5sSAiKS2BU6HT5eWUhDmU-PrCIEe0NhG8TAtrjjHiZBlCZ5VEQQ4Pvv3EUvAnCphCepSQkxBn_Bn6025gsEs2LLNynXo398DxGHk-g4sw9jCF2MXtbTGCJnyq2bwijZo5UUKKNKVkm6hb-T1GCDxnVwAE7lieOhY6p9JItP2OihMP2GwDF8o08AU39KRmjARY6jaZIWynrrBD4W2Glv2-tO23v-1Iy_pyyluEbd-ThDM-yy6PDoDuKxgEoTRsCow_TIfk8bS5x5E7dvXsjlahxh4FFB08Ba3wHzHX0TUZ3eqPE65lKwbQ5g02f5i9r0eGb4uGI8hCLXf32KgBuWz0ML97d7O4AfUeY8iotLNO8v-4U5SDoajEWz-jtN6-lsjKPy6xNLfq1cQdwTCqANQDcY_TJzlyE_4TBsFrJjQpiEF4BAFYDZleHvpJaTFXzoRHdkGhI743mQ9LszyVjN2YUPeGG2DvBGUd-PIIqlmUfMC91Cm5MmCna6xcr9pFZu-43TZLnrkvbqqB1yFxEzuwmIbe5lMUE6jwpXTtvjxtgJgwkpGnY6RZpf8vCaLAkIRUwc1kloJ00InmtRGMEdxHugYUONAqR7kHJ0QrT1k2zTu9ZAB24dtJXca5_bj5n74KWPKlR6exdQ_WC0]--></g></svg>