<?xml version="1.0" encoding="us-ascii" standalone="no"?><svg xmlns="http://www.w3.org/2000/svg" xmlns:xlink="http://www.w3.org/1999/xlink" contentStyleType="text/css" height="1598px" preserveAspectRatio="none" style="width:1734px;height:1598px;background:#FFFFFF;" version="1.1" viewBox="0 0 1734 1598" width="1734px" zoomAndPan="magnify"><defs/><g><text fill="#000000" font-family="sans-serif" font-size="14" font-weight="bold" lengthAdjust="spacing" textLength="212" x="760.25" y="30.1074">Sequence Diagram (SD) US026</text><rect fill="#FFFFFF" height="1417.7656" style="stroke:#181818;stroke-width:1.0;" width="10" x="22.5" y="106.8633"/><rect fill="#FFFFFF" height="298.9102" style="stroke:#181818;stroke-width:1.0;" width="10" x="310.5" y="211.6582"/><rect fill="#FFFFFF" height="298.9102" style="stroke:#181818;stroke-width:1.0;" width="10" x="310.5" y="541.8594"/><rect fill="#FFFFFF" height="31.291" style="stroke:#181818;stroke-width:1.0;" width="10" x="310.5" y="872.0605"/><rect fill="#FFFFFF" height="589.9863" style="stroke:#181818;stroke-width:1.0;" width="10" x="310.5" y="934.6426"/><rect fill="#FFFFFF" height="219.0371" style="stroke:#181818;stroke-width:1.0;" width="10" x="488.5" y="242.9492"/><rect fill="#FFFFFF" height="219.0371" style="stroke:#181818;stroke-width:1.0;" width="10" x="488.5" y="573.1504"/><rect fill="#FFFFFF" height="527.4043" style="stroke:#181818;stroke-width:1.0;" width="10" x="488.5" y="965.9336"/><rect fill="#FFFFFF" height="230.0371" style="stroke:#181818;stroke-width:1.0;" width="10" x="493.5" y="1005.2246"/><rect fill="#FFFFFF" height="31.291" style="stroke:#181818;stroke-width:1.0;" width="10" x="706.5" y="274.2402"/><rect fill="#FFFFFF" height="31.291" style="stroke:#181818;stroke-width:1.0;" width="10" x="706.5" y="604.4414"/><rect fill="#FFFFFF" height="31.291" style="stroke:#181818;stroke-width:1.0;" width="10" x="706.5" y="1041.5156"/><rect fill="#FFFFFF" height="31.291" style="stroke:#181818;stroke-width:1.0;" width="10" x="813.5" y="336.8223"/><rect fill="#FFFFFF" height="31.291" style="stroke:#181818;stroke-width:1.0;" width="10" x="813.5" y="667.0234"/><rect fill="#FFFFFF" height="31.291" style="stroke:#181818;stroke-width:1.0;" width="10" x="813.5" y="1104.0977"/><rect fill="#FFFFFF" height="31.291" style="stroke:#181818;stroke-width:1.0;" width="10" x="945.5" y="1166.6797"/><rect fill="#FFFFFF" height="31.291" style="stroke:#181818;stroke-width:1.0;" width="10" x="1085.5" y="399.4043"/><rect fill="#FFFFFF" height="31.291" style="stroke:#181818;stroke-width:1.0;" width="10" x="1217" y="729.6055"/><rect fill="#FFFFFF" height="163.4941" style="stroke:#181818;stroke-width:1.0;" width="10" x="1362.5" y="1298.5527"/><line style="stroke:#181818;stroke-width:0.5;stroke-dasharray:5.0,5.0;" x1="27" x2="27" y1="96.8633" y2="1542.6289"/><line style="stroke:#181818;stroke-width:0.5;stroke-dasharray:5.0,5.0;" x1="315.5" x2="315.5" y1="96.8633" y2="1542.6289"/><line style="stroke:#181818;stroke-width:0.5;stroke-dasharray:5.0,5.0;" x1="493" x2="493" y1="96.8633" y2="1542.6289"/><line style="stroke:#181818;stroke-width:0.5;stroke-dasharray:5.0,5.0;" x1="711" x2="711" y1="96.8633" y2="1542.6289"/><line style="stroke:#181818;stroke-width:0.5;stroke-dasharray:5.0,5.0;" x1="818" x2="818" y1="96.8633" y2="1542.6289"/><line style="stroke:#181818;stroke-width:0.5;stroke-dasharray:5.0,5.0;" x1="950" x2="950" y1="96.8633" y2="1542.6289"/><line style="stroke:#181818;stroke-width:0.5;stroke-dasharray:5.0,5.0;" x1="1090" x2="1090" y1="96.8633" y2="1542.6289"/><line style="stroke:#181818;stroke-width:0.5;stroke-dasharray:5.0,5.0;" x1="1222" x2="1222" y1="96.8633" y2="1542.6289"/><line style="stroke:#181818;stroke-width:0.5;stroke-dasharray:5.0,5.0;" x1="1367" x2="1367" y1="96.8633" y2="1542.6289"/><line style="stroke:#181818;stroke-width:0.5;stroke-dasharray:5.0,5.0;" x1="1708.5" x2="1708.5" y1="1338.3633" y2="1542.6289"/><rect fill="#E3E3E3" height="32.6211" rx="2.5" ry="2.5" style="stroke:#181818;stroke-width:0.5;" width="45" x="5" y="63.2422"/><text fill="#000000" font-family="sans-serif" font-size="14" lengthAdjust="spacing" textLength="31" x="12" y="85.3496">GSM</text><rect fill="#E3E3E3" height="32.6211" rx="2.5" ry="2.5" style="stroke:#181818;stroke-width:0.5;" width="45" x="5" y="1541.6289"/><text fill="#000000" font-family="sans-serif" font-size="14" lengthAdjust="spacing" textLength="31" x="12" y="1563.7363">GSM</text><rect fill="#E3E3E3" height="32.6211" rx="2.5" ry="2.5" style="stroke:#181818;stroke-width:0.5;" width="26" x="302.5" y="63.2422"/><text fill="#000000" font-family="sans-serif" font-size="14" lengthAdjust="spacing" textLength="12" x="309.5" y="85.3496">UI</text><rect fill="#E3E3E3" height="32.6211" rx="2.5" ry="2.5" style="stroke:#181818;stroke-width:0.5;" width="26" x="302.5" y="1541.6289"/><text fill="#000000" font-family="sans-serif" font-size="14" lengthAdjust="spacing" textLength="12" x="309.5" y="1563.7363">UI</text><rect fill="#E3E3E3" height="32.6211" rx="2.5" ry="2.5" style="stroke:#181818;stroke-width:0.5;" width="267" x="360" y="63.2422"/><text fill="#000000" font-family="sans-serif" font-size="14" lengthAdjust="spacing" textLength="253" x="367" y="85.3496">:AssignVehicleToAgendaEntryController</text><rect fill="#E3E3E3" height="32.6211" rx="2.5" ry="2.5" style="stroke:#181818;stroke-width:0.5;" width="267" x="360" y="1541.6289"/><text fill="#000000" font-family="sans-serif" font-size="14" lengthAdjust="spacing" textLength="253" x="367" y="1563.7363">:AssignVehicleToAgendaEntryController</text><rect fill="#E3E3E3" height="32.6211" rx="2.5" ry="2.5" style="stroke:#181818;stroke-width:0.5;" width="97" x="663" y="63.2422"/><text fill="#000000" font-family="sans-serif" font-size="14" lengthAdjust="spacing" textLength="83" x="670" y="85.3496">:Repositories</text><rect fill="#E3E3E3" height="32.6211" rx="2.5" ry="2.5" style="stroke:#181818;stroke-width:0.5;" width="97" x="663" y="1541.6289"/><text fill="#000000" font-family="sans-serif" font-size="14" lengthAdjust="spacing" textLength="83" x="670" y="1563.7363">:Repositories</text><rect fill="#E3E3E3" height="51.2422" rx="2.5" ry="2.5" style="stroke:#181818;stroke-width:0.5;" width="97" x="770" y="44.6211"/><text fill="#000000" font-family="sans-serif" font-size="14" lengthAdjust="spacing" textLength="74" x="781.5" y="66.7285">repositories</text><text fill="#000000" font-family="sans-serif" font-size="14" lengthAdjust="spacing" textLength="83" x="777" y="85.3496">:Repositories</text><rect fill="#E3E3E3" height="51.2422" rx="2.5" ry="2.5" style="stroke:#181818;stroke-width:0.5;" width="97" x="770" y="1541.6289"/><text fill="#000000" font-family="sans-serif" font-size="14" lengthAdjust="spacing" textLength="74" x="781.5" y="1563.7363">repositories</text><text fill="#000000" font-family="sans-serif" font-size="14" lengthAdjust="spacing" textLength="83" x="777" y="1582.3574">:Repositories</text><rect fill="#E3E3E3" height="51.2422" rx="2.5" ry="2.5" style="stroke:#181818;stroke-width:0.5;" width="147" x="877" y="44.6211"/><text fill="#000000" font-family="sans-serif" font-size="14" lengthAdjust="spacing" textLength="133" x="884" y="66.7285">employeeRepository:</text><text fill="#000000" font-family="sans-serif" font-size="14" lengthAdjust="spacing" textLength="130" x="885.5" y="85.3496">EmployeeRepository</text><rect fill="#E3E3E3" height="51.2422" rx="2.5" ry="2.5" style="stroke:#181818;stroke-width:0.5;" width="147" x="877" y="1541.6289"/><text fill="#000000" font-family="sans-serif" font-size="14" lengthAdjust="spacing" textLength="133" x="884" y="1563.7363">employeeRepository:</text><text fill="#000000" font-family="sans-serif" font-size="14" lengthAdjust="spacing" textLength="130" x="885.5" y="1582.3574">EmployeeRepository</text><rect fill="#E3E3E3" height="51.2422" rx="2.5" ry="2.5" style="stroke:#181818;stroke-width:0.5;" width="113" x="1034" y="44.6211"/><text fill="#000000" font-family="sans-serif" font-size="14" lengthAdjust="spacing" textLength="98" x="1041.5" y="66.7285">taskRepository:</text><text fill="#000000" font-family="sans-serif" font-size="14" lengthAdjust="spacing" textLength="99" x="1041" y="85.3496">TaskRepository</text><rect fill="#E3E3E3" height="51.2422" rx="2.5" ry="2.5" style="stroke:#181818;stroke-width:0.5;" width="113" x="1034" y="1541.6289"/><text fill="#000000" font-family="sans-serif" font-size="14" lengthAdjust="spacing" textLength="98" x="1041.5" y="1563.7363">taskRepository:</text><text fill="#000000" font-family="sans-serif" font-size="14" lengthAdjust="spacing" textLength="99" x="1041" y="1582.3574">TaskRepository</text><rect fill="#E3E3E3" height="51.2422" rx="2.5" ry="2.5" style="stroke:#181818;stroke-width:0.5;" width="130" x="1157" y="44.6211"/><text fill="#000000" font-family="sans-serif" font-size="14" lengthAdjust="spacing" textLength="116" x="1164" y="66.7285">vehicleRepository:</text><text fill="#000000" font-family="sans-serif" font-size="14" lengthAdjust="spacing" textLength="114" x="1165" y="85.3496">VehicleRepository</text><rect fill="#E3E3E3" height="51.2422" rx="2.5" ry="2.5" style="stroke:#181818;stroke-width:0.5;" width="130" x="1157" y="1541.6289"/><text fill="#000000" font-family="sans-serif" font-size="14" lengthAdjust="spacing" textLength="116" x="1164" y="1563.7363">vehicleRepository:</text><text fill="#000000" font-family="sans-serif" font-size="14" lengthAdjust="spacing" textLength="114" x="1165" y="1582.3574">VehicleRepository</text><rect fill="#E3E3E3" height="32.6211" rx="2.5" ry="2.5" style="stroke:#181818;stroke-width:0.5;" width="141" x="1297" y="63.2422"/><text fill="#000000" font-family="sans-serif" font-size="14" lengthAdjust="spacing" textLength="127" x="1304" y="85.3496">employee:Employee</text><rect fill="#E3E3E3" height="32.6211" rx="2.5" ry="2.5" style="stroke:#181818;stroke-width:0.5;" width="141" x="1297" y="1541.6289"/><text fill="#000000" font-family="sans-serif" font-size="14" lengthAdjust="spacing" textLength="127" x="1304" y="1563.7363">employee:Employee</text><rect fill="#E3E3E3" height="32.6211" rx="2.5" ry="2.5" style="stroke:#181818;stroke-width:0.5;" width="40" x="1688.5" y="1541.6289"/><text fill="#000000" font-family="sans-serif" font-size="14" lengthAdjust="spacing" textLength="26" x="1695.5" y="1563.7363">task</text><rect fill="#FFFFFF" height="1417.7656" style="stroke:#181818;stroke-width:1.0;" width="10" x="22.5" y="106.8633"/><rect fill="#FFFFFF" height="298.9102" style="stroke:#181818;stroke-width:1.0;" width="10" x="310.5" y="211.6582"/><rect fill="#FFFFFF" height="298.9102" style="stroke:#181818;stroke-width:1.0;" width="10" x="310.5" y="541.8594"/><rect fill="#FFFFFF" height="31.291" style="stroke:#181818;stroke-width:1.0;" width="10" x="310.5" y="872.0605"/><rect fill="#FFFFFF" height="589.9863" style="stroke:#181818;stroke-width:1.0;" width="10" x="310.5" y="934.6426"/><rect fill="#FFFFFF" height="219.0371" style="stroke:#181818;stroke-width:1.0;" width="10" x="488.5" y="242.9492"/><rect fill="#FFFFFF" height="219.0371" style="stroke:#181818;stroke-width:1.0;" width="10" x="488.5" y="573.1504"/><rect fill="#FFFFFF" height="527.4043" style="stroke:#181818;stroke-width:1.0;" width="10" x="488.5" y="965.9336"/><rect fill="#FFFFFF" height="230.0371" style="stroke:#181818;stroke-width:1.0;" width="10" x="493.5" y="1005.2246"/><rect fill="#FFFFFF" height="31.291" style="stroke:#181818;stroke-width:1.0;" width="10" x="706.5" y="274.2402"/><rect fill="#FFFFFF" height="31.291" style="stroke:#181818;stroke-width:1.0;" width="10" x="706.5" y="604.4414"/><rect fill="#FFFFFF" height="31.291" style="stroke:#181818;stroke-width:1.0;" width="10" x="706.5" y="1041.5156"/><rect fill="#FFFFFF" height="31.291" style="stroke:#181818;stroke-width:1.0;" width="10" x="813.5" y="336.8223"/><rect fill="#FFFFFF" height="31.291" style="stroke:#181818;stroke-width:1.0;" width="10" x="813.5" y="667.0234"/><rect fill="#FFFFFF" height="31.291" style="stroke:#181818;stroke-width:1.0;" width="10" x="813.5" y="1104.0977"/><rect fill="#FFFFFF" height="31.291" style="stroke:#181818;stroke-width:1.0;" width="10" x="945.5" y="1166.6797"/><rect fill="#FFFFFF" height="31.291" style="stroke:#181818;stroke-width:1.0;" width="10" x="1085.5" y="399.4043"/><rect fill="#FFFFFF" height="31.291" style="stroke:#181818;stroke-width:1.0;" width="10" x="1217" y="729.6055"/><rect fill="#FFFFFF" height="163.4941" style="stroke:#181818;stroke-width:1.0;" width="10" x="1362.5" y="1298.5527"/><rect fill="none" height="59.2129" style="stroke:#000000;stroke-width:1.5;" width="329.5" x="2" y="106.8633"/><path d="M2,106.8633 L64,106.8633 L64,115.8633 L54,125.8633 L2,125.8633 L2,106.8633 " fill="#EEEEEE" style="stroke:#000000;stroke-width:2.0;"/><text fill="#000000" font-family="sans-serif" font-size="13" font-weight="bold" lengthAdjust="spacing" textLength="17" x="15" y="122.8916">ref</text><text fill="#000000" font-family="sans-serif" font-size="12" lengthAdjust="spacing" textLength="139" x="95.75" y="142.8125">This action assumes that</text><text fill="#000000" font-family="sans-serif" font-size="12" lengthAdjust="spacing" textLength="166" x="83.75" y="158.7734">the user has already logged in</text><polygon fill="#181818" points="298.5,207.6582,308.5,211.6582,298.5,215.6582,302.5,211.6582" style="stroke:#181818;stroke-width:1.0;"/><line style="stroke:#181818;stroke-width:1.0;" x1="32.5" x2="304.5" y1="211.6582" y2="211.6582"/><text fill="#000000" font-family="sans-serif" font-size="13" font-weight="bold" lengthAdjust="spacing" textLength="7" x="39.5" y="197.75">1</text><text fill="#000000" font-family="sans-serif" font-size="13" lengthAdjust="spacing" textLength="208" x="50.5" y="189.1045">asks to assign one or more vehicles</text><text fill="#000000" font-family="sans-serif" font-size="13" lengthAdjust="spacing" textLength="144" x="50.5" y="206.3955">to an entry in the agenda</text><polygon fill="#181818" points="476.5,238.9492,486.5,242.9492,476.5,246.9492,480.5,242.9492" style="stroke:#181818;stroke-width:1.0;"/><line style="stroke:#181818;stroke-width:1.0;" x1="320.5" x2="482.5" y1="242.9492" y2="242.9492"/><text fill="#000000" font-family="sans-serif" font-size="13" font-weight="bold" lengthAdjust="spacing" textLength="7" x="327.5" y="237.6865">2</text><text fill="#000000" font-family="sans-serif" font-size="13" lengthAdjust="spacing" textLength="112" x="338.5" y="237.6865">getAvailableTasks()</text><polygon fill="#181818" points="694.5,270.2402,704.5,274.2402,694.5,278.2402,698.5,274.2402" style="stroke:#181818;stroke-width:1.0;"/><line style="stroke:#181818;stroke-width:1.0;" x1="498.5" x2="700.5" y1="274.2402" y2="274.2402"/><text fill="#000000" font-family="sans-serif" font-size="13" font-weight="bold" lengthAdjust="spacing" textLength="7" x="505.5" y="268.9775">3</text><text fill="#000000" font-family="sans-serif" font-size="13" lengthAdjust="spacing" textLength="75" x="516.5" y="268.9775">getInstance()</text><polygon fill="#181818" points="509.5,301.5313,499.5,305.5313,509.5,309.5313,505.5,305.5313" style="stroke:#181818;stroke-width:1.0;"/><line style="stroke:#181818;stroke-width:1.0;stroke-dasharray:2.0,2.0;" x1="503.5" x2="710.5" y1="305.5313" y2="305.5313"/><text fill="#000000" font-family="sans-serif" font-size="13" font-weight="bold" lengthAdjust="spacing" textLength="7" x="515.5" y="300.2686">4</text><text fill="#000000" font-family="sans-serif" font-size="13" lengthAdjust="spacing" textLength="67" x="526.5" y="300.2686">repositories</text><polygon fill="#181818" points="801.5,332.8223,811.5,336.8223,801.5,340.8223,805.5,336.8223" style="stroke:#181818;stroke-width:1.0;"/><line style="stroke:#181818;stroke-width:1.0;" x1="498.5" x2="807.5" y1="336.8223" y2="336.8223"/><text fill="#000000" font-family="sans-serif" font-size="13" font-weight="bold" lengthAdjust="spacing" textLength="7" x="505.5" y="331.5596">5</text><text fill="#000000" font-family="sans-serif" font-size="13" lengthAdjust="spacing" textLength="116" x="516.5" y="331.5596">getTaskRepository()</text><polygon fill="#181818" points="509.5,364.1133,499.5,368.1133,509.5,372.1133,505.5,368.1133" style="stroke:#181818;stroke-width:1.0;"/><line style="stroke:#181818;stroke-width:1.0;stroke-dasharray:2.0,2.0;" x1="503.5" x2="817.5" y1="368.1133" y2="368.1133"/><text fill="#000000" font-family="sans-serif" font-size="13" font-weight="bold" lengthAdjust="spacing" textLength="7" x="515.5" y="362.8506">6</text><text fill="#000000" font-family="sans-serif" font-size="13" lengthAdjust="spacing" textLength="87" x="526.5" y="362.8506">taskRepository</text><polygon fill="#181818" points="1073.5,395.4043,1083.5,399.4043,1073.5,403.4043,1077.5,399.4043" style="stroke:#181818;stroke-width:1.0;"/><line style="stroke:#181818;stroke-width:1.0;" x1="498.5" x2="1079.5" y1="399.4043" y2="399.4043"/><text fill="#000000" font-family="sans-serif" font-size="13" font-weight="bold" lengthAdjust="spacing" textLength="7" x="505.5" y="394.1416">7</text><text fill="#000000" font-family="sans-serif" font-size="13" lengthAdjust="spacing" textLength="112" x="516.5" y="394.1416">getAvailableTasks()</text><polygon fill="#181818" points="509.5,426.6953,499.5,430.6953,509.5,434.6953,505.5,430.6953" style="stroke:#181818;stroke-width:1.0;"/><line style="stroke:#181818;stroke-width:1.0;stroke-dasharray:2.0,2.0;" x1="503.5" x2="1089.5" y1="430.6953" y2="430.6953"/><text fill="#000000" font-family="sans-serif" font-size="13" font-weight="bold" lengthAdjust="spacing" textLength="7" x="515.5" y="425.4326">8</text><text fill="#000000" font-family="sans-serif" font-size="13" lengthAdjust="spacing" textLength="105" x="526.5" y="425.4326">availableTasksList</text><polygon fill="#181818" points="331.5,457.9863,321.5,461.9863,331.5,465.9863,327.5,461.9863" style="stroke:#181818;stroke-width:1.0;"/><line style="stroke:#181818;stroke-width:1.0;stroke-dasharray:2.0,2.0;" x1="325.5" x2="492.5" y1="461.9863" y2="461.9863"/><text fill="#000000" font-family="sans-serif" font-size="13" font-weight="bold" lengthAdjust="spacing" textLength="7" x="337.5" y="456.7236">9</text><text fill="#000000" font-family="sans-serif" font-size="13" lengthAdjust="spacing" textLength="105" x="348.5" y="456.7236">availableTasksList</text><polygon fill="#181818" points="43.5,506.5684,33.5,510.5684,43.5,514.5684,39.5,510.5684" style="stroke:#181818;stroke-width:1.0;"/><line style="stroke:#181818;stroke-width:1.0;stroke-dasharray:2.0,2.0;" x1="37.5" x2="314.5" y1="510.5684" y2="510.5684"/><text fill="#000000" font-family="sans-serif" font-size="13" font-weight="bold" lengthAdjust="spacing" textLength="14" x="49.5" y="496.6602">10</text><text fill="#000000" font-family="sans-serif" font-size="13" lengthAdjust="spacing" textLength="179" x="67.5" y="488.0146">shows available agenda entries</text><text fill="#000000" font-family="sans-serif" font-size="13" lengthAdjust="spacing" textLength="132" x="67.5" y="505.3057">and asks to select one</text><polygon fill="#181818" points="298.5,537.8594,308.5,541.8594,298.5,545.8594,302.5,541.8594" style="stroke:#181818;stroke-width:1.0;"/><line style="stroke:#181818;stroke-width:1.0;" x1="32.5" x2="304.5" y1="541.8594" y2="541.8594"/><text fill="#000000" font-family="sans-serif" font-size="13" font-weight="bold" lengthAdjust="spacing" textLength="14" x="39.5" y="536.5967">11</text><text fill="#000000" font-family="sans-serif" font-size="13" lengthAdjust="spacing" textLength="146" x="57.5" y="536.5967">selects one agenda entry</text><polygon fill="#181818" points="476.5,569.1504,486.5,573.1504,476.5,577.1504,480.5,573.1504" style="stroke:#181818;stroke-width:1.0;"/><line style="stroke:#181818;stroke-width:1.0;" x1="320.5" x2="482.5" y1="573.1504" y2="573.1504"/><text fill="#000000" font-family="sans-serif" font-size="13" font-weight="bold" lengthAdjust="spacing" textLength="14" x="327.5" y="567.8877">12</text><text fill="#000000" font-family="sans-serif" font-size="13" lengthAdjust="spacing" textLength="127" x="345.5" y="567.8877">getAvailableVehicles()</text><polygon fill="#181818" points="694.5,600.4414,704.5,604.4414,694.5,608.4414,698.5,604.4414" style="stroke:#181818;stroke-width:1.0;"/><line style="stroke:#181818;stroke-width:1.0;" x1="498.5" x2="700.5" y1="604.4414" y2="604.4414"/><text fill="#000000" font-family="sans-serif" font-size="13" font-weight="bold" lengthAdjust="spacing" textLength="14" x="505.5" y="599.1787">13</text><text fill="#000000" font-family="sans-serif" font-size="13" lengthAdjust="spacing" textLength="75" x="523.5" y="599.1787">getInstance()</text><polygon fill="#181818" points="509.5,631.7324,499.5,635.7324,509.5,639.7324,505.5,635.7324" style="stroke:#181818;stroke-width:1.0;"/><line style="stroke:#181818;stroke-width:1.0;stroke-dasharray:2.0,2.0;" x1="503.5" x2="710.5" y1="635.7324" y2="635.7324"/><text fill="#000000" font-family="sans-serif" font-size="13" font-weight="bold" lengthAdjust="spacing" textLength="14" x="515.5" y="630.4697">14</text><text fill="#000000" font-family="sans-serif" font-size="13" lengthAdjust="spacing" textLength="67" x="533.5" y="630.4697">repositories</text><polygon fill="#181818" points="801.5,663.0234,811.5,667.0234,801.5,671.0234,805.5,667.0234" style="stroke:#181818;stroke-width:1.0;"/><line style="stroke:#181818;stroke-width:1.0;" x1="498.5" x2="807.5" y1="667.0234" y2="667.0234"/><text fill="#000000" font-family="sans-serif" font-size="13" font-weight="bold" lengthAdjust="spacing" textLength="14" x="505.5" y="661.7607">15</text><text fill="#000000" font-family="sans-serif" font-size="13" lengthAdjust="spacing" textLength="131" x="523.5" y="661.7607">getVehicleRepository()</text><polygon fill="#181818" points="509.5,694.3145,499.5,698.3145,509.5,702.3145,505.5,698.3145" style="stroke:#181818;stroke-width:1.0;"/><line style="stroke:#181818;stroke-width:1.0;stroke-dasharray:2.0,2.0;" x1="503.5" x2="817.5" y1="698.3145" y2="698.3145"/><text fill="#000000" font-family="sans-serif" font-size="13" font-weight="bold" lengthAdjust="spacing" textLength="14" x="515.5" y="693.0518">16</text><text fill="#000000" font-family="sans-serif" font-size="13" lengthAdjust="spacing" textLength="101" x="533.5" y="693.0518">vehicleRepository</text><polygon fill="#181818" points="1205,725.6055,1215,729.6055,1205,733.6055,1209,729.6055" style="stroke:#181818;stroke-width:1.0;"/><line style="stroke:#181818;stroke-width:1.0;" x1="498.5" x2="1211" y1="729.6055" y2="729.6055"/><text fill="#000000" font-family="sans-serif" font-size="13" font-weight="bold" lengthAdjust="spacing" textLength="14" x="505.5" y="724.3428">17</text><text fill="#000000" font-family="sans-serif" font-size="13" lengthAdjust="spacing" textLength="127" x="523.5" y="724.3428">getAvailableVehicles()</text><polygon fill="#181818" points="509.5,756.8965,499.5,760.8965,509.5,764.8965,505.5,760.8965" style="stroke:#181818;stroke-width:1.0;"/><line style="stroke:#181818;stroke-width:1.0;stroke-dasharray:2.0,2.0;" x1="503.5" x2="1221" y1="760.8965" y2="760.8965"/><text fill="#000000" font-family="sans-serif" font-size="13" font-weight="bold" lengthAdjust="spacing" textLength="14" x="515.5" y="755.6338">18</text><text fill="#000000" font-family="sans-serif" font-size="13" lengthAdjust="spacing" textLength="120" x="533.5" y="755.6338">availableVehiclesList</text><polygon fill="#181818" points="331.5,788.1875,321.5,792.1875,331.5,796.1875,327.5,792.1875" style="stroke:#181818;stroke-width:1.0;"/><line style="stroke:#181818;stroke-width:1.0;stroke-dasharray:2.0,2.0;" x1="325.5" x2="492.5" y1="792.1875" y2="792.1875"/><text fill="#000000" font-family="sans-serif" font-size="13" font-weight="bold" lengthAdjust="spacing" textLength="14" x="337.5" y="786.9248">19</text><text fill="#000000" font-family="sans-serif" font-size="13" lengthAdjust="spacing" textLength="120" x="355.5" y="786.9248">availableVehiclesList</text><polygon fill="#181818" points="43.5,836.7695,33.5,840.7695,43.5,844.7695,39.5,840.7695" style="stroke:#181818;stroke-width:1.0;"/><line style="stroke:#181818;stroke-width:1.0;stroke-dasharray:2.0,2.0;" x1="37.5" x2="314.5" y1="840.7695" y2="840.7695"/><text fill="#000000" font-family="sans-serif" font-size="13" font-weight="bold" lengthAdjust="spacing" textLength="14" x="49.5" y="826.8613">20</text><text fill="#000000" font-family="sans-serif" font-size="13" lengthAdjust="spacing" textLength="197" x="67.5" y="818.2158">shows available vehicles and asks</text><text fill="#000000" font-family="sans-serif" font-size="13" lengthAdjust="spacing" textLength="122" x="67.5" y="835.5068">to select at least one</text><polygon fill="#181818" points="298.5,868.0605,308.5,872.0605,298.5,876.0605,302.5,872.0605" style="stroke:#181818;stroke-width:1.0;"/><line style="stroke:#181818;stroke-width:1.0;" x1="32.5" x2="304.5" y1="872.0605" y2="872.0605"/><text fill="#000000" font-family="sans-serif" font-size="13" font-weight="bold" lengthAdjust="spacing" textLength="14" x="39.5" y="866.7979">21</text><text fill="#000000" font-family="sans-serif" font-size="13" lengthAdjust="spacing" textLength="92" x="57.5" y="866.7979">selects vehicles</text><polygon fill="#181818" points="43.5,899.3516,33.5,903.3516,43.5,907.3516,39.5,903.3516" style="stroke:#181818;stroke-width:1.0;"/><line style="stroke:#181818;stroke-width:1.0;stroke-dasharray:2.0,2.0;" x1="37.5" x2="314.5" y1="903.3516" y2="903.3516"/><text fill="#000000" font-family="sans-serif" font-size="13" font-weight="bold" lengthAdjust="spacing" textLength="14" x="49.5" y="898.0889">22</text><text fill="#000000" font-family="sans-serif" font-size="13" lengthAdjust="spacing" textLength="236" x="67.5" y="898.0889">shows all data and requests confirmation</text><polygon fill="#181818" points="298.5,930.6426,308.5,934.6426,298.5,938.6426,302.5,934.6426" style="stroke:#181818;stroke-width:1.0;"/><line style="stroke:#181818;stroke-width:1.0;" x1="32.5" x2="304.5" y1="934.6426" y2="934.6426"/><text fill="#000000" font-family="sans-serif" font-size="13" font-weight="bold" lengthAdjust="spacing" textLength="14" x="39.5" y="929.3799">23</text><text fill="#000000" font-family="sans-serif" font-size="13" lengthAdjust="spacing" textLength="75" x="57.5" y="929.3799">submits data</text><polygon fill="#181818" points="476.5,961.9336,486.5,965.9336,476.5,969.9336,480.5,965.9336" style="stroke:#181818;stroke-width:1.0;"/><line style="stroke:#181818;stroke-width:1.0;" x1="320.5" x2="482.5" y1="965.9336" y2="965.9336"/><text fill="#000000" font-family="sans-serif" font-size="13" font-weight="bold" lengthAdjust="spacing" textLength="14" x="327.5" y="960.6709">24</text><text fill="#000000" font-family="sans-serif" font-size="13" lengthAdjust="spacing" textLength="131" x="345.5" y="960.6709">assignVehicleToTask()</text><line style="stroke:#181818;stroke-width:1.0;" x1="498.5" x2="545.5" y1="992.2246" y2="992.2246"/><line style="stroke:#181818;stroke-width:1.0;" x1="545.5" x2="545.5" y1="992.2246" y2="1005.2246"/><line style="stroke:#181818;stroke-width:1.0;" x1="504.5" x2="545.5" y1="1005.2246" y2="1005.2246"/><polygon fill="#181818" points="514.5,1001.2246,504.5,1005.2246,514.5,1009.2246,510.5,1005.2246" style="stroke:#181818;stroke-width:1.0;"/><text fill="#000000" font-family="sans-serif" font-size="13" font-weight="bold" lengthAdjust="spacing" textLength="14" x="510.5" y="986.9619">25</text><text fill="#000000" font-family="sans-serif" font-size="13" lengthAdjust="spacing" textLength="176" x="528.5" y="986.9619">getEmployeeFromRepository()</text><polygon fill="#181818" points="694.5,1037.5156,704.5,1041.5156,694.5,1045.5156,698.5,1041.5156" style="stroke:#181818;stroke-width:1.0;"/><line style="stroke:#181818;stroke-width:1.0;" x1="503.5" x2="700.5" y1="1041.5156" y2="1041.5156"/><text fill="#000000" font-family="sans-serif" font-size="13" font-weight="bold" lengthAdjust="spacing" textLength="14" x="510.5" y="1036.2529">26</text><text fill="#000000" font-family="sans-serif" font-size="13" lengthAdjust="spacing" textLength="75" x="528.5" y="1036.2529">getInstance()</text><polygon fill="#181818" points="514.5,1068.8066,504.5,1072.8066,514.5,1076.8066,510.5,1072.8066" style="stroke:#181818;stroke-width:1.0;"/><line style="stroke:#181818;stroke-width:1.0;stroke-dasharray:2.0,2.0;" x1="508.5" x2="710.5" y1="1072.8066" y2="1072.8066"/><text fill="#000000" font-family="sans-serif" font-size="13" font-weight="bold" lengthAdjust="spacing" textLength="14" x="520.5" y="1067.5439">27</text><text fill="#000000" font-family="sans-serif" font-size="13" lengthAdjust="spacing" textLength="67" x="538.5" y="1067.5439">repositories</text><polygon fill="#181818" points="801.5,1100.0977,811.5,1104.0977,801.5,1108.0977,805.5,1104.0977" style="stroke:#181818;stroke-width:1.0;"/><line style="stroke:#181818;stroke-width:1.0;" x1="503.5" x2="807.5" y1="1104.0977" y2="1104.0977"/><text fill="#000000" font-family="sans-serif" font-size="13" font-weight="bold" lengthAdjust="spacing" textLength="14" x="510.5" y="1098.835">28</text><text fill="#000000" font-family="sans-serif" font-size="13" lengthAdjust="spacing" textLength="156" x="528.5" y="1098.835">getEmployeeRepositories()</text><polygon fill="#181818" points="514.5,1131.3887,504.5,1135.3887,514.5,1139.3887,510.5,1135.3887" style="stroke:#181818;stroke-width:1.0;"/><line style="stroke:#181818;stroke-width:1.0;stroke-dasharray:2.0,2.0;" x1="508.5" x2="817.5" y1="1135.3887" y2="1135.3887"/><text fill="#000000" font-family="sans-serif" font-size="13" font-weight="bold" lengthAdjust="spacing" textLength="14" x="520.5" y="1130.126">29</text><text fill="#000000" font-family="sans-serif" font-size="13" lengthAdjust="spacing" textLength="130" x="538.5" y="1130.126">EmployeeRepositories</text><polygon fill="#181818" points="933.5,1162.6797,943.5,1166.6797,933.5,1170.6797,937.5,1166.6797" style="stroke:#181818;stroke-width:1.0;"/><line style="stroke:#181818;stroke-width:1.0;" x1="503.5" x2="939.5" y1="1166.6797" y2="1166.6797"/><text fill="#000000" font-family="sans-serif" font-size="13" font-weight="bold" lengthAdjust="spacing" textLength="14" x="510.5" y="1161.417">30</text><text fill="#000000" font-family="sans-serif" font-size="13" lengthAdjust="spacing" textLength="84" x="528.5" y="1161.417">getEmployee()</text><polygon fill="#181818" points="514.5,1193.9707,504.5,1197.9707,514.5,1201.9707,510.5,1197.9707" style="stroke:#181818;stroke-width:1.0;"/><line style="stroke:#181818;stroke-width:1.0;stroke-dasharray:2.0,2.0;" x1="508.5" x2="949.5" y1="1197.9707" y2="1197.9707"/><text fill="#000000" font-family="sans-serif" font-size="13" font-weight="bold" lengthAdjust="spacing" textLength="14" x="520.5" y="1192.708">31</text><text fill="#000000" font-family="sans-serif" font-size="13" lengthAdjust="spacing" textLength="56" x="538.5" y="1192.708">employee</text><line style="stroke:#181818;stroke-width:1.0;stroke-dasharray:2.0,2.0;" x1="503.5" x2="545.5" y1="1234.2617" y2="1234.2617"/><line style="stroke:#181818;stroke-width:1.0;stroke-dasharray:2.0,2.0;" x1="545.5" x2="545.5" y1="1234.2617" y2="1247.2617"/><line style="stroke:#181818;stroke-width:1.0;stroke-dasharray:2.0,2.0;" x1="498.5" x2="545.5" y1="1247.2617" y2="1247.2617"/><polygon fill="#181818" points="508.5,1243.2617,498.5,1247.2617,508.5,1251.2617,504.5,1247.2617" style="stroke:#181818;stroke-width:1.0;"/><text fill="#000000" font-family="sans-serif" font-size="13" font-weight="bold" lengthAdjust="spacing" textLength="14" x="510.5" y="1228.999">32</text><text fill="#000000" font-family="sans-serif" font-size="13" lengthAdjust="spacing" textLength="56" x="528.5" y="1228.999">employee</text><polygon fill="#181818" points="1350.5,1294.5527,1360.5,1298.5527,1350.5,1302.5527,1354.5,1298.5527" style="stroke:#181818;stroke-width:1.0;"/><line style="stroke:#181818;stroke-width:1.0;" x1="498.5" x2="1356.5" y1="1298.5527" y2="1298.5527"/><text fill="#000000" font-family="sans-serif" font-size="13" font-weight="bold" lengthAdjust="spacing" textLength="14" x="505.5" y="1293.29">33</text><text fill="#000000" font-family="sans-serif" font-size="13" lengthAdjust="spacing" textLength="274" x="523.5" y="1293.29">assignVehicleToTask(employee, task, vehicles)</text><polygon fill="#181818" points="1676.5,1325.8438,1686.5,1329.8438,1676.5,1333.8438,1680.5,1329.8438" style="stroke:#181818;stroke-width:1.0;"/><line style="stroke:#181818;stroke-width:1.0;" x1="1372.5" x2="1682.5" y1="1329.8438" y2="1329.8438"/><text fill="#000000" font-family="sans-serif" font-size="13" font-weight="bold" lengthAdjust="spacing" textLength="14" x="1379.5" y="1324.5811">34</text><text fill="#000000" font-family="sans-serif" font-size="13" lengthAdjust="spacing" textLength="274" x="1397.5" y="1324.5811">assignVehicleToTask(employee, task, vehicles)</text><rect fill="#E3E3E3" height="32.6211" rx="2.5" ry="2.5" style="stroke:#181818;stroke-width:0.5;" width="40" x="1688.5" y="1306.5527"/><text fill="#000000" font-family="sans-serif" font-size="14" lengthAdjust="spacing" textLength="26" x="1695.5" y="1328.6602">task</text><line style="stroke:#181818;stroke-width:1.0;" x1="1372.5" x2="1414.5" y1="1373.4648" y2="1373.4648"/><line style="stroke:#181818;stroke-width:1.0;" x1="1414.5" x2="1414.5" y1="1373.4648" y2="1386.4648"/><line style="stroke:#181818;stroke-width:1.0;" x1="1373.5" x2="1414.5" y1="1386.4648" y2="1386.4648"/><polygon fill="#181818" points="1383.5,1382.4648,1373.5,1386.4648,1383.5,1390.4648,1379.5,1386.4648" style="stroke:#181818;stroke-width:1.0;"/><text fill="#000000" font-family="sans-serif" font-size="13" font-weight="bold" lengthAdjust="spacing" textLength="14" x="1379.5" y="1368.2021">35</text><text fill="#000000" font-family="sans-serif" font-size="13" lengthAdjust="spacing" textLength="104" x="1397.5" y="1368.2021">validateTask(task)</text><line style="stroke:#181818;stroke-width:1.0;" x1="1372.5" x2="1414.5" y1="1417.7559" y2="1417.7559"/><line style="stroke:#181818;stroke-width:1.0;" x1="1414.5" x2="1414.5" y1="1417.7559" y2="1430.7559"/><line style="stroke:#181818;stroke-width:1.0;" x1="1373.5" x2="1414.5" y1="1430.7559" y2="1430.7559"/><polygon fill="#181818" points="1383.5,1426.7559,1373.5,1430.7559,1383.5,1434.7559,1379.5,1430.7559" style="stroke:#181818;stroke-width:1.0;"/><text fill="#000000" font-family="sans-serif" font-size="13" font-weight="bold" lengthAdjust="spacing" textLength="14" x="1379.5" y="1412.4932">36</text><text fill="#000000" font-family="sans-serif" font-size="13" lengthAdjust="spacing" textLength="82" x="1397.5" y="1412.4932">addTask(task)</text><polygon fill="#181818" points="509.5,1458.0469,499.5,1462.0469,509.5,1466.0469,505.5,1462.0469" style="stroke:#181818;stroke-width:1.0;"/><line style="stroke:#181818;stroke-width:1.0;stroke-dasharray:2.0,2.0;" x1="503.5" x2="1366.5" y1="1462.0469" y2="1462.0469"/><text fill="#000000" font-family="sans-serif" font-size="13" font-weight="bold" lengthAdjust="spacing" textLength="14" x="515.5" y="1456.7842">37</text><text fill="#000000" font-family="sans-serif" font-size="13" lengthAdjust="spacing" textLength="25" x="533.5" y="1456.7842">task</text><polygon fill="#181818" points="331.5,1489.3379,321.5,1493.3379,331.5,1497.3379,327.5,1493.3379" style="stroke:#181818;stroke-width:1.0;"/><line style="stroke:#181818;stroke-width:1.0;stroke-dasharray:2.0,2.0;" x1="325.5" x2="492.5" y1="1493.3379" y2="1493.3379"/><text fill="#000000" font-family="sans-serif" font-size="13" font-weight="bold" lengthAdjust="spacing" textLength="14" x="337.5" y="1488.0752">38</text><text fill="#000000" font-family="sans-serif" font-size="13" lengthAdjust="spacing" textLength="25" x="355.5" y="1488.0752">task</text><polygon fill="#181818" points="38.5,1520.6289,28.5,1524.6289,38.5,1528.6289,34.5,1524.6289" style="stroke:#181818;stroke-width:1.0;"/><line style="stroke:#181818;stroke-width:1.0;stroke-dasharray:2.0,2.0;" x1="32.5" x2="314.5" y1="1524.6289" y2="1524.6289"/><text fill="#000000" font-family="sans-serif" font-size="13" font-weight="bold" lengthAdjust="spacing" textLength="14" x="44.5" y="1519.3662">39</text><text fill="#000000" font-family="sans-serif" font-size="13" lengthAdjust="spacing" textLength="158" x="62.5" y="1519.3662">displays operation success</text><!--SRC=[jLTDRziu4BtpLn2-92biOD737dm8O3JTHO0KMDHEJxamqbWY8f4kIQSra1_V8VL9aPRa8Cj345ESDpFalCUXVk7Ym1GhQIc5J78bIw167O7ezik19IyiWwqv5K0L98Q9hEWlq3bBvIykChfdXGP2sD58SIoVGH5Yk46pBVmyWaY0td6MMPlhxTqDVTp-zVblec1FvIie-k_ssv8-tjCrtULSKvOOBWLbMXzBqDJapD0dONAWHushSuPB2WKiFT52PXcab0j2o5NEKw1xASsp_4qGH2gwGEW58baN18CsFE479WnTh3TQyqpyW9md1Upa9WEHig_2gDFZlJDvl9zjyKNYNraKe9pbbzttXu7jTpX8pJ4a3jgjQITEMswt5JVEDr4zYoSH0lptiDdv5b0U2da2wA3NJ-9hCEcimsaVop3zuk7il0c7uK_vzg_LBdaGFuPp3YMOZIUrRY9sHiqi7hkjbbTcm1qneVN07tHrMnKLXebL96r1uVbHAO1YQPHI0Qt3rBQ-S86WO8yJwudQScFkX3lGrXMM1hcYlO5-LkXkS_SD_IbRyzfecZB3w3MMEIZBWILDGIUA7snvBobwsKjLiWAT-ryC9BdW2NxnfjEZOjL_YTJcXlG3k4gG41YPApr2Xh7TkWyOMmPcyyfumPwnXEt6NFiuROeL41qCXu9eaUgjmE-5Hfb8O03hGSTAFrXjHypBgix5RdF7YC0yXSlSDObPLbMP-DKzbezZOZG1XzP5x9DgBEOuP1Ea7zgCK_N27T0s6lZ0mweh8ERvUU3QZEKnvQlAg2NgE7OFDwpEce6MzskycEGltS7LH7RavexiJAIjB6Wey6wpia0YdYpLXu9IMMYd93tewaGzIp99mbh-OYSsWuyVmSlty_C3UFfUlfxdRN2Vp4dvF8NFK3cut-PaDkwbIIL8uBAAyV8ABzVH94FNCUOt0KJ97qdxWY3EwC6anq0Q1jGxgmnj0z0gWki4Qat0nhC0fZjnc2aC3Mee26D15KNLCTXGsXuYaMBFiKkm5_-i48xF9QzxZt7ttS7wVQqLtrvjZIcGdLhTLep04crQj7_mDU7nRuQq_H-gzh4T1vqXPU-HiL32WkQSJzyFbRPCTo7e8GPFPadNQFpXay9BPYg1o8iajZvSPbEhIh1z5Kma4t4LxKocWKTR4ZlUtjx8-KQkVTqipj2m-RvqlUEo5PQ9lUnmuqVMyxkwTM-znQTF5uSm3TtxXLScApYgaclkhYtMpOK0B4rxjfF6NjizLHBz7Ql7cNifWZUiWdXVkgOfruU2dR1nF43rb4EvJXBGEgRilP_sQVi7]--></g></svg>