<?xml version="1.0" encoding="us-ascii" standalone="no"?><svg xmlns="http://www.w3.org/2000/svg" xmlns:xlink="http://www.w3.org/1999/xlink" contentStyleType="text/css" height="1652px" preserveAspectRatio="none" style="width:1804px;height:1652px;background:#FFFFFF;" version="1.1" viewBox="0 0 1804 1652" width="1804px" zoomAndPan="magnify"><defs/><g><text fill="#000000" font-family="sans-serif" font-size="14" font-weight="bold" lengthAdjust="spacing" textLength="212" x="795.25" y="30.1074">Sequence Diagram (SD) US026</text><rect fill="#FFFFFF" height="1417.7656" style="stroke:#181818;stroke-width:1.0;" width="10" x="18.5" y="133.2422"/><rect fill="#FFFFFF" height="298.9102" style="stroke:#181818;stroke-width:1.0;" width="10" x="306.5" y="238.0371"/><rect fill="#FFFFFF" height="298.9102" style="stroke:#181818;stroke-width:1.0;" width="10" x="306.5" y="568.2383"/><rect fill="#FFFFFF" height="31.291" style="stroke:#181818;stroke-width:1.0;" width="10" x="306.5" y="898.4395"/><rect fill="#FFFFFF" height="589.9863" style="stroke:#181818;stroke-width:1.0;" width="10" x="306.5" y="961.0215"/><rect fill="#FFFFFF" height="219.0371" style="stroke:#181818;stroke-width:1.0;" width="10" x="558.5" y="269.3281"/><rect fill="#FFFFFF" height="219.0371" style="stroke:#181818;stroke-width:1.0;" width="10" x="558.5" y="599.5293"/><rect fill="#FFFFFF" height="527.4043" style="stroke:#181818;stroke-width:1.0;" width="10" x="558.5" y="992.3125"/><rect fill="#FFFFFF" height="230.0371" style="stroke:#181818;stroke-width:1.0;" width="10" x="563.5" y="1031.6035"/><rect fill="#FFFFFF" height="31.291" style="stroke:#181818;stroke-width:1.0;" width="10" x="776.5" y="300.6191"/><rect fill="#FFFFFF" height="31.291" style="stroke:#181818;stroke-width:1.0;" width="10" x="776.5" y="630.8203"/><rect fill="#FFFFFF" height="31.291" style="stroke:#181818;stroke-width:1.0;" width="10" x="776.5" y="1067.8945"/><rect fill="#FFFFFF" height="31.291" style="stroke:#181818;stroke-width:1.0;" width="10" x="883.5" y="363.2012"/><rect fill="#FFFFFF" height="31.291" style="stroke:#181818;stroke-width:1.0;" width="10" x="883.5" y="693.4023"/><rect fill="#FFFFFF" height="31.291" style="stroke:#181818;stroke-width:1.0;" width="10" x="883.5" y="1130.4766"/><rect fill="#FFFFFF" height="31.291" style="stroke:#181818;stroke-width:1.0;" width="10" x="1015.5" y="1193.0586"/><rect fill="#FFFFFF" height="31.291" style="stroke:#181818;stroke-width:1.0;" width="10" x="1155.5" y="425.7832"/><rect fill="#FFFFFF" height="31.291" style="stroke:#181818;stroke-width:1.0;" width="10" x="1287" y="755.9844"/><rect fill="#FFFFFF" height="163.4941" style="stroke:#181818;stroke-width:1.0;" width="10" x="1432.5" y="1324.9316"/><line style="stroke:#181818;stroke-width:0.5;stroke-dasharray:5.0,5.0;" x1="23" x2="23" y1="123.2422" y2="1569.0078"/><line style="stroke:#181818;stroke-width:0.5;stroke-dasharray:5.0,5.0;" x1="311" x2="311" y1="123.2422" y2="1569.0078"/><line style="stroke:#181818;stroke-width:0.5;stroke-dasharray:5.0,5.0;" x1="563" x2="563" y1="123.2422" y2="1569.0078"/><line style="stroke:#181818;stroke-width:0.5;stroke-dasharray:5.0,5.0;" x1="781" x2="781" y1="123.2422" y2="1569.0078"/><line style="stroke:#181818;stroke-width:0.5;stroke-dasharray:5.0,5.0;" x1="888" x2="888" y1="123.2422" y2="1569.0078"/><line style="stroke:#181818;stroke-width:0.5;stroke-dasharray:5.0,5.0;" x1="1020" x2="1020" y1="123.2422" y2="1569.0078"/><line style="stroke:#181818;stroke-width:0.5;stroke-dasharray:5.0,5.0;" x1="1160" x2="1160" y1="123.2422" y2="1569.0078"/><line style="stroke:#181818;stroke-width:0.5;stroke-dasharray:5.0,5.0;" x1="1292" x2="1292" y1="123.2422" y2="1569.0078"/><line style="stroke:#181818;stroke-width:0.5;stroke-dasharray:5.0,5.0;" x1="1437" x2="1437" y1="123.2422" y2="1569.0078"/><line style="stroke:#181818;stroke-width:0.5;stroke-dasharray:5.0,5.0;" x1="1778.5" x2="1778.5" y1="1364.7422" y2="1569.0078"/><text fill="#000000" font-family="sans-serif" font-size="14" lengthAdjust="spacing" textLength="31" x="5" y="119.7285">GSM</text><ellipse cx="23.5" cy="53.1211" fill="#E3E3E3" rx="8" ry="8" style="stroke:#181818;stroke-width:0.5;"/><path d="M23.5,61.1211 L23.5,88.1211 M10.5,69.1211 L36.5,69.1211 M23.5,88.1211 L10.5,103.1211 M23.5,88.1211 L36.5,103.1211 " fill="none" style="stroke:#181818;stroke-width:0.5;"/><text fill="#000000" font-family="sans-serif" font-size="14" lengthAdjust="spacing" textLength="31" x="5" y="1583.1152">GSM</text><ellipse cx="23.5" cy="1595.1289" fill="#E3E3E3" rx="8" ry="8" style="stroke:#181818;stroke-width:0.5;"/><path d="M23.5,1603.1289 L23.5,1630.1289 M10.5,1611.1289 L36.5,1611.1289 M23.5,1630.1289 L10.5,1645.1289 M23.5,1630.1289 L36.5,1645.1289 " fill="none" style="stroke:#181818;stroke-width:0.5;"/><rect fill="#E3E3E3" height="32.6211" rx="2.5" ry="2.5" style="stroke:#181818;stroke-width:0.5;" width="217" x="203" y="89.6211"/><text fill="#000000" font-family="sans-serif" font-size="14" lengthAdjust="spacing" textLength="203" x="210" y="111.7285">:AssignVehicleToAgendaEntryUI</text><rect fill="#E3E3E3" height="32.6211" rx="2.5" ry="2.5" style="stroke:#181818;stroke-width:0.5;" width="217" x="203" y="1568.0078"/><text fill="#000000" font-family="sans-serif" font-size="14" lengthAdjust="spacing" textLength="203" x="210" y="1590.1152">:AssignVehicleToAgendaEntryUI</text><rect fill="#E3E3E3" height="32.6211" rx="2.5" ry="2.5" style="stroke:#181818;stroke-width:0.5;" width="267" x="430" y="89.6211"/><text fill="#000000" font-family="sans-serif" font-size="14" lengthAdjust="spacing" textLength="253" x="437" y="111.7285">:AssignVehicleToAgendaEntryController</text><rect fill="#E3E3E3" height="32.6211" rx="2.5" ry="2.5" style="stroke:#181818;stroke-width:0.5;" width="267" x="430" y="1568.0078"/><text fill="#000000" font-family="sans-serif" font-size="14" lengthAdjust="spacing" textLength="253" x="437" y="1590.1152">:AssignVehicleToAgendaEntryController</text><rect fill="#E3E3E3" height="32.6211" rx="2.5" ry="2.5" style="stroke:#181818;stroke-width:0.5;" width="97" x="733" y="89.6211"/><text fill="#000000" font-family="sans-serif" font-size="14" lengthAdjust="spacing" textLength="83" x="740" y="111.7285">:Repositories</text><rect fill="#E3E3E3" height="32.6211" rx="2.5" ry="2.5" style="stroke:#181818;stroke-width:0.5;" width="97" x="733" y="1568.0078"/><text fill="#000000" font-family="sans-serif" font-size="14" lengthAdjust="spacing" textLength="83" x="740" y="1590.1152">:Repositories</text><rect fill="#E3E3E3" height="51.2422" rx="2.5" ry="2.5" style="stroke:#181818;stroke-width:0.5;" width="97" x="840" y="71"/><text fill="#000000" font-family="sans-serif" font-size="14" lengthAdjust="spacing" textLength="74" x="851.5" y="93.1074">repositories</text><text fill="#000000" font-family="sans-serif" font-size="14" lengthAdjust="spacing" textLength="83" x="847" y="111.7285">:Repositories</text><rect fill="#E3E3E3" height="51.2422" rx="2.5" ry="2.5" style="stroke:#181818;stroke-width:0.5;" width="97" x="840" y="1568.0078"/><text fill="#000000" font-family="sans-serif" font-size="14" lengthAdjust="spacing" textLength="74" x="851.5" y="1590.1152">repositories</text><text fill="#000000" font-family="sans-serif" font-size="14" lengthAdjust="spacing" textLength="83" x="847" y="1608.7363">:Repositories</text><rect fill="#E3E3E3" height="51.2422" rx="2.5" ry="2.5" style="stroke:#181818;stroke-width:0.5;" width="147" x="947" y="71"/><text fill="#000000" font-family="sans-serif" font-size="14" lengthAdjust="spacing" textLength="133" x="954" y="93.1074">employeeRepository:</text><text fill="#000000" font-family="sans-serif" font-size="14" lengthAdjust="spacing" textLength="130" x="955.5" y="111.7285">EmployeeRepository</text><rect fill="#E3E3E3" height="51.2422" rx="2.5" ry="2.5" style="stroke:#181818;stroke-width:0.5;" width="147" x="947" y="1568.0078"/><text fill="#000000" font-family="sans-serif" font-size="14" lengthAdjust="spacing" textLength="133" x="954" y="1590.1152">employeeRepository:</text><text fill="#000000" font-family="sans-serif" font-size="14" lengthAdjust="spacing" textLength="130" x="955.5" y="1608.7363">EmployeeRepository</text><rect fill="#E3E3E3" height="51.2422" rx="2.5" ry="2.5" style="stroke:#181818;stroke-width:0.5;" width="113" x="1104" y="71"/><text fill="#000000" font-family="sans-serif" font-size="14" lengthAdjust="spacing" textLength="98" x="1111.5" y="93.1074">taskRepository:</text><text fill="#000000" font-family="sans-serif" font-size="14" lengthAdjust="spacing" textLength="99" x="1111" y="111.7285">TaskRepository</text><rect fill="#E3E3E3" height="51.2422" rx="2.5" ry="2.5" style="stroke:#181818;stroke-width:0.5;" width="113" x="1104" y="1568.0078"/><text fill="#000000" font-family="sans-serif" font-size="14" lengthAdjust="spacing" textLength="98" x="1111.5" y="1590.1152">taskRepository:</text><text fill="#000000" font-family="sans-serif" font-size="14" lengthAdjust="spacing" textLength="99" x="1111" y="1608.7363">TaskRepository</text><rect fill="#E3E3E3" height="51.2422" rx="2.5" ry="2.5" style="stroke:#181818;stroke-width:0.5;" width="130" x="1227" y="71"/><text fill="#000000" font-family="sans-serif" font-size="14" lengthAdjust="spacing" textLength="116" x="1234" y="93.1074">vehicleRepository:</text><text fill="#000000" font-family="sans-serif" font-size="14" lengthAdjust="spacing" textLength="114" x="1235" y="111.7285">VehicleRepository</text><rect fill="#E3E3E3" height="51.2422" rx="2.5" ry="2.5" style="stroke:#181818;stroke-width:0.5;" width="130" x="1227" y="1568.0078"/><text fill="#000000" font-family="sans-serif" font-size="14" lengthAdjust="spacing" textLength="116" x="1234" y="1590.1152">vehicleRepository:</text><text fill="#000000" font-family="sans-serif" font-size="14" lengthAdjust="spacing" textLength="114" x="1235" y="1608.7363">VehicleRepository</text><rect fill="#E3E3E3" height="32.6211" rx="2.5" ry="2.5" style="stroke:#181818;stroke-width:0.5;" width="141" x="1367" y="89.6211"/><text fill="#000000" font-family="sans-serif" font-size="14" lengthAdjust="spacing" textLength="127" x="1374" y="111.7285">employee:Employee</text><rect fill="#E3E3E3" height="32.6211" rx="2.5" ry="2.5" style="stroke:#181818;stroke-width:0.5;" width="141" x="1367" y="1568.0078"/><text fill="#000000" font-family="sans-serif" font-size="14" lengthAdjust="spacing" textLength="127" x="1374" y="1590.1152">employee:Employee</text><rect fill="#E3E3E3" height="32.6211" rx="2.5" ry="2.5" style="stroke:#181818;stroke-width:0.5;" width="40" x="1758.5" y="1568.0078"/><text fill="#000000" font-family="sans-serif" font-size="14" lengthAdjust="spacing" textLength="26" x="1765.5" y="1590.1152">task</text><rect fill="#FFFFFF" height="1417.7656" style="stroke:#181818;stroke-width:1.0;" width="10" x="18.5" y="133.2422"/><rect fill="#FFFFFF" height="298.9102" style="stroke:#181818;stroke-width:1.0;" width="10" x="306.5" y="238.0371"/><rect fill="#FFFFFF" height="298.9102" style="stroke:#181818;stroke-width:1.0;" width="10" x="306.5" y="568.2383"/><rect fill="#FFFFFF" height="31.291" style="stroke:#181818;stroke-width:1.0;" width="10" x="306.5" y="898.4395"/><rect fill="#FFFFFF" height="589.9863" style="stroke:#181818;stroke-width:1.0;" width="10" x="306.5" y="961.0215"/><rect fill="#FFFFFF" height="219.0371" style="stroke:#181818;stroke-width:1.0;" width="10" x="558.5" y="269.3281"/><rect fill="#FFFFFF" height="219.0371" style="stroke:#181818;stroke-width:1.0;" width="10" x="558.5" y="599.5293"/><rect fill="#FFFFFF" height="527.4043" style="stroke:#181818;stroke-width:1.0;" width="10" x="558.5" y="992.3125"/><rect fill="#FFFFFF" height="230.0371" style="stroke:#181818;stroke-width:1.0;" width="10" x="563.5" y="1031.6035"/><rect fill="#FFFFFF" height="31.291" style="stroke:#181818;stroke-width:1.0;" width="10" x="776.5" y="300.6191"/><rect fill="#FFFFFF" height="31.291" style="stroke:#181818;stroke-width:1.0;" width="10" x="776.5" y="630.8203"/><rect fill="#FFFFFF" height="31.291" style="stroke:#181818;stroke-width:1.0;" width="10" x="776.5" y="1067.8945"/><rect fill="#FFFFFF" height="31.291" style="stroke:#181818;stroke-width:1.0;" width="10" x="883.5" y="363.2012"/><rect fill="#FFFFFF" height="31.291" style="stroke:#181818;stroke-width:1.0;" width="10" x="883.5" y="693.4023"/><rect fill="#FFFFFF" height="31.291" style="stroke:#181818;stroke-width:1.0;" width="10" x="883.5" y="1130.4766"/><rect fill="#FFFFFF" height="31.291" style="stroke:#181818;stroke-width:1.0;" width="10" x="1015.5" y="1193.0586"/><rect fill="#FFFFFF" height="31.291" style="stroke:#181818;stroke-width:1.0;" width="10" x="1155.5" y="425.7832"/><rect fill="#FFFFFF" height="31.291" style="stroke:#181818;stroke-width:1.0;" width="10" x="1287" y="755.9844"/><rect fill="#FFFFFF" height="163.4941" style="stroke:#181818;stroke-width:1.0;" width="10" x="1432.5" y="1324.9316"/><rect fill="none" height="59.2129" style="stroke:#000000;stroke-width:1.5;" width="421" x="2" y="133.2422"/><path d="M2,133.2422 L64,133.2422 L64,142.2422 L54,152.2422 L2,152.2422 L2,133.2422 " fill="#EEEEEE" style="stroke:#000000;stroke-width:2.0;"/><text fill="#000000" font-family="sans-serif" font-size="13" font-weight="bold" lengthAdjust="spacing" textLength="17" x="15" y="149.2705">ref</text><text fill="#000000" font-family="sans-serif" font-size="12" lengthAdjust="spacing" textLength="139" x="141.5" y="169.1914">This action assumes that</text><text fill="#000000" font-family="sans-serif" font-size="12" lengthAdjust="spacing" textLength="166" x="129.5" y="185.1523">the user has already logged in</text><polygon fill="#181818" points="294.5,234.0371,304.5,238.0371,294.5,242.0371,298.5,238.0371" style="stroke:#181818;stroke-width:1.0;"/><line style="stroke:#181818;stroke-width:1.0;" x1="28.5" x2="300.5" y1="238.0371" y2="238.0371"/><text fill="#000000" font-family="sans-serif" font-size="13" font-weight="bold" lengthAdjust="spacing" textLength="7" x="35.5" y="224.1289">1</text><text fill="#000000" font-family="sans-serif" font-size="13" lengthAdjust="spacing" textLength="208" x="46.5" y="215.4834">asks to assign one or more vehicles</text><text fill="#000000" font-family="sans-serif" font-size="13" lengthAdjust="spacing" textLength="144" x="46.5" y="232.7744">to an entry in the agenda</text><polygon fill="#181818" points="546.5,265.3281,556.5,269.3281,546.5,273.3281,550.5,269.3281" style="stroke:#181818;stroke-width:1.0;"/><line style="stroke:#181818;stroke-width:1.0;" x1="316.5" x2="552.5" y1="269.3281" y2="269.3281"/><text fill="#000000" font-family="sans-serif" font-size="13" font-weight="bold" lengthAdjust="spacing" textLength="7" x="323.5" y="264.0654">2</text><text fill="#000000" font-family="sans-serif" font-size="13" lengthAdjust="spacing" textLength="112" x="334.5" y="264.0654">getAvailableTasks()</text><polygon fill="#181818" points="764.5,296.6191,774.5,300.6191,764.5,304.6191,768.5,300.6191" style="stroke:#181818;stroke-width:1.0;"/><line style="stroke:#181818;stroke-width:1.0;" x1="568.5" x2="770.5" y1="300.6191" y2="300.6191"/><text fill="#000000" font-family="sans-serif" font-size="13" font-weight="bold" lengthAdjust="spacing" textLength="7" x="575.5" y="295.3564">3</text><text fill="#000000" font-family="sans-serif" font-size="13" lengthAdjust="spacing" textLength="75" x="586.5" y="295.3564">getInstance()</text><polygon fill="#181818" points="579.5,327.9102,569.5,331.9102,579.5,335.9102,575.5,331.9102" style="stroke:#181818;stroke-width:1.0;"/><line style="stroke:#181818;stroke-width:1.0;stroke-dasharray:2.0,2.0;" x1="573.5" x2="780.5" y1="331.9102" y2="331.9102"/><text fill="#000000" font-family="sans-serif" font-size="13" font-weight="bold" lengthAdjust="spacing" textLength="7" x="585.5" y="326.6475">4</text><text fill="#000000" font-family="sans-serif" font-size="13" lengthAdjust="spacing" textLength="67" x="596.5" y="326.6475">repositories</text><polygon fill="#181818" points="871.5,359.2012,881.5,363.2012,871.5,367.2012,875.5,363.2012" style="stroke:#181818;stroke-width:1.0;"/><line style="stroke:#181818;stroke-width:1.0;" x1="568.5" x2="877.5" y1="363.2012" y2="363.2012"/><text fill="#000000" font-family="sans-serif" font-size="13" font-weight="bold" lengthAdjust="spacing" textLength="7" x="575.5" y="357.9385">5</text><text fill="#000000" font-family="sans-serif" font-size="13" lengthAdjust="spacing" textLength="116" x="586.5" y="357.9385">getTaskRepository()</text><polygon fill="#181818" points="579.5,390.4922,569.5,394.4922,579.5,398.4922,575.5,394.4922" style="stroke:#181818;stroke-width:1.0;"/><line style="stroke:#181818;stroke-width:1.0;stroke-dasharray:2.0,2.0;" x1="573.5" x2="887.5" y1="394.4922" y2="394.4922"/><text fill="#000000" font-family="sans-serif" font-size="13" font-weight="bold" lengthAdjust="spacing" textLength="7" x="585.5" y="389.2295">6</text><text fill="#000000" font-family="sans-serif" font-size="13" lengthAdjust="spacing" textLength="87" x="596.5" y="389.2295">taskRepository</text><polygon fill="#181818" points="1143.5,421.7832,1153.5,425.7832,1143.5,429.7832,1147.5,425.7832" style="stroke:#181818;stroke-width:1.0;"/><line style="stroke:#181818;stroke-width:1.0;" x1="568.5" x2="1149.5" y1="425.7832" y2="425.7832"/><text fill="#000000" font-family="sans-serif" font-size="13" font-weight="bold" lengthAdjust="spacing" textLength="7" x="575.5" y="420.5205">7</text><text fill="#000000" font-family="sans-serif" font-size="13" lengthAdjust="spacing" textLength="112" x="586.5" y="420.5205">getAvailableTasks()</text><polygon fill="#181818" points="579.5,453.0742,569.5,457.0742,579.5,461.0742,575.5,457.0742" style="stroke:#181818;stroke-width:1.0;"/><line style="stroke:#181818;stroke-width:1.0;stroke-dasharray:2.0,2.0;" x1="573.5" x2="1159.5" y1="457.0742" y2="457.0742"/><text fill="#000000" font-family="sans-serif" font-size="13" font-weight="bold" lengthAdjust="spacing" textLength="7" x="585.5" y="451.8115">8</text><text fill="#000000" font-family="sans-serif" font-size="13" lengthAdjust="spacing" textLength="105" x="596.5" y="451.8115">availableTasksList</text><polygon fill="#181818" points="327.5,484.3652,317.5,488.3652,327.5,492.3652,323.5,488.3652" style="stroke:#181818;stroke-width:1.0;"/><line style="stroke:#181818;stroke-width:1.0;stroke-dasharray:2.0,2.0;" x1="321.5" x2="562.5" y1="488.3652" y2="488.3652"/><text fill="#000000" font-family="sans-serif" font-size="13" font-weight="bold" lengthAdjust="spacing" textLength="7" x="333.5" y="483.1025">9</text><text fill="#000000" font-family="sans-serif" font-size="13" lengthAdjust="spacing" textLength="105" x="344.5" y="483.1025">availableTasksList</text><polygon fill="#181818" points="39.5,532.9473,29.5,536.9473,39.5,540.9473,35.5,536.9473" style="stroke:#181818;stroke-width:1.0;"/><line style="stroke:#181818;stroke-width:1.0;stroke-dasharray:2.0,2.0;" x1="33.5" x2="310.5" y1="536.9473" y2="536.9473"/><text fill="#000000" font-family="sans-serif" font-size="13" font-weight="bold" lengthAdjust="spacing" textLength="14" x="45.5" y="523.0391">10</text><text fill="#000000" font-family="sans-serif" font-size="13" lengthAdjust="spacing" textLength="179" x="63.5" y="514.3936">shows available agenda entries</text><text fill="#000000" font-family="sans-serif" font-size="13" lengthAdjust="spacing" textLength="132" x="63.5" y="531.6846">and asks to select one</text><polygon fill="#181818" points="294.5,564.2383,304.5,568.2383,294.5,572.2383,298.5,568.2383" style="stroke:#181818;stroke-width:1.0;"/><line style="stroke:#181818;stroke-width:1.0;" x1="28.5" x2="300.5" y1="568.2383" y2="568.2383"/><text fill="#000000" font-family="sans-serif" font-size="13" font-weight="bold" lengthAdjust="spacing" textLength="14" x="35.5" y="562.9756">11</text><text fill="#000000" font-family="sans-serif" font-size="13" lengthAdjust="spacing" textLength="146" x="53.5" y="562.9756">selects one agenda entry</text><polygon fill="#181818" points="546.5,595.5293,556.5,599.5293,546.5,603.5293,550.5,599.5293" style="stroke:#181818;stroke-width:1.0;"/><line style="stroke:#181818;stroke-width:1.0;" x1="316.5" x2="552.5" y1="599.5293" y2="599.5293"/><text fill="#000000" font-family="sans-serif" font-size="13" font-weight="bold" lengthAdjust="spacing" textLength="14" x="323.5" y="594.2666">12</text><text fill="#000000" font-family="sans-serif" font-size="13" lengthAdjust="spacing" textLength="127" x="341.5" y="594.2666">getAvailableVehicles()</text><polygon fill="#181818" points="764.5,626.8203,774.5,630.8203,764.5,634.8203,768.5,630.8203" style="stroke:#181818;stroke-width:1.0;"/><line style="stroke:#181818;stroke-width:1.0;" x1="568.5" x2="770.5" y1="630.8203" y2="630.8203"/><text fill="#000000" font-family="sans-serif" font-size="13" font-weight="bold" lengthAdjust="spacing" textLength="14" x="575.5" y="625.5576">13</text><text fill="#000000" font-family="sans-serif" font-size="13" lengthAdjust="spacing" textLength="75" x="593.5" y="625.5576">getInstance()</text><polygon fill="#181818" points="579.5,658.1113,569.5,662.1113,579.5,666.1113,575.5,662.1113" style="stroke:#181818;stroke-width:1.0;"/><line style="stroke:#181818;stroke-width:1.0;stroke-dasharray:2.0,2.0;" x1="573.5" x2="780.5" y1="662.1113" y2="662.1113"/><text fill="#000000" font-family="sans-serif" font-size="13" font-weight="bold" lengthAdjust="spacing" textLength="14" x="585.5" y="656.8486">14</text><text fill="#000000" font-family="sans-serif" font-size="13" lengthAdjust="spacing" textLength="67" x="603.5" y="656.8486">repositories</text><polygon fill="#181818" points="871.5,689.4023,881.5,693.4023,871.5,697.4023,875.5,693.4023" style="stroke:#181818;stroke-width:1.0;"/><line style="stroke:#181818;stroke-width:1.0;" x1="568.5" x2="877.5" y1="693.4023" y2="693.4023"/><text fill="#000000" font-family="sans-serif" font-size="13" font-weight="bold" lengthAdjust="spacing" textLength="14" x="575.5" y="688.1396">15</text><text fill="#000000" font-family="sans-serif" font-size="13" lengthAdjust="spacing" textLength="131" x="593.5" y="688.1396">getVehicleRepository()</text><polygon fill="#181818" points="579.5,720.6934,569.5,724.6934,579.5,728.6934,575.5,724.6934" style="stroke:#181818;stroke-width:1.0;"/><line style="stroke:#181818;stroke-width:1.0;stroke-dasharray:2.0,2.0;" x1="573.5" x2="887.5" y1="724.6934" y2="724.6934"/><text fill="#000000" font-family="sans-serif" font-size="13" font-weight="bold" lengthAdjust="spacing" textLength="14" x="585.5" y="719.4307">16</text><text fill="#000000" font-family="sans-serif" font-size="13" lengthAdjust="spacing" textLength="101" x="603.5" y="719.4307">vehicleRepository</text><polygon fill="#181818" points="1275,751.9844,1285,755.9844,1275,759.9844,1279,755.9844" style="stroke:#181818;stroke-width:1.0;"/><line style="stroke:#181818;stroke-width:1.0;" x1="568.5" x2="1281" y1="755.9844" y2="755.9844"/><text fill="#000000" font-family="sans-serif" font-size="13" font-weight="bold" lengthAdjust="spacing" textLength="14" x="575.5" y="750.7217">17</text><text fill="#000000" font-family="sans-serif" font-size="13" lengthAdjust="spacing" textLength="127" x="593.5" y="750.7217">getAvailableVehicles()</text><polygon fill="#181818" points="579.5,783.2754,569.5,787.2754,579.5,791.2754,575.5,787.2754" style="stroke:#181818;stroke-width:1.0;"/><line style="stroke:#181818;stroke-width:1.0;stroke-dasharray:2.0,2.0;" x1="573.5" x2="1291" y1="787.2754" y2="787.2754"/><text fill="#000000" font-family="sans-serif" font-size="13" font-weight="bold" lengthAdjust="spacing" textLength="14" x="585.5" y="782.0127">18</text><text fill="#000000" font-family="sans-serif" font-size="13" lengthAdjust="spacing" textLength="120" x="603.5" y="782.0127">availableVehiclesList</text><polygon fill="#181818" points="327.5,814.5664,317.5,818.5664,327.5,822.5664,323.5,818.5664" style="stroke:#181818;stroke-width:1.0;"/><line style="stroke:#181818;stroke-width:1.0;stroke-dasharray:2.0,2.0;" x1="321.5" x2="562.5" y1="818.5664" y2="818.5664"/><text fill="#000000" font-family="sans-serif" font-size="13" font-weight="bold" lengthAdjust="spacing" textLength="14" x="333.5" y="813.3037">19</text><text fill="#000000" font-family="sans-serif" font-size="13" lengthAdjust="spacing" textLength="120" x="351.5" y="813.3037">availableVehiclesList</text><polygon fill="#181818" points="39.5,863.1484,29.5,867.1484,39.5,871.1484,35.5,867.1484" style="stroke:#181818;stroke-width:1.0;"/><line style="stroke:#181818;stroke-width:1.0;stroke-dasharray:2.0,2.0;" x1="33.5" x2="310.5" y1="867.1484" y2="867.1484"/><text fill="#000000" font-family="sans-serif" font-size="13" font-weight="bold" lengthAdjust="spacing" textLength="14" x="45.5" y="853.2402">20</text><text fill="#000000" font-family="sans-serif" font-size="13" lengthAdjust="spacing" textLength="197" x="63.5" y="844.5947">shows available vehicles and asks</text><text fill="#000000" font-family="sans-serif" font-size="13" lengthAdjust="spacing" textLength="122" x="63.5" y="861.8857">to select at least one</text><polygon fill="#181818" points="294.5,894.4395,304.5,898.4395,294.5,902.4395,298.5,898.4395" style="stroke:#181818;stroke-width:1.0;"/><line style="stroke:#181818;stroke-width:1.0;" x1="28.5" x2="300.5" y1="898.4395" y2="898.4395"/><text fill="#000000" font-family="sans-serif" font-size="13" font-weight="bold" lengthAdjust="spacing" textLength="14" x="35.5" y="893.1768">21</text><text fill="#000000" font-family="sans-serif" font-size="13" lengthAdjust="spacing" textLength="92" x="53.5" y="893.1768">selects vehicles</text><polygon fill="#181818" points="39.5,925.7305,29.5,929.7305,39.5,933.7305,35.5,929.7305" style="stroke:#181818;stroke-width:1.0;"/><line style="stroke:#181818;stroke-width:1.0;stroke-dasharray:2.0,2.0;" x1="33.5" x2="310.5" y1="929.7305" y2="929.7305"/><text fill="#000000" font-family="sans-serif" font-size="13" font-weight="bold" lengthAdjust="spacing" textLength="14" x="45.5" y="924.4678">22</text><text fill="#000000" font-family="sans-serif" font-size="13" lengthAdjust="spacing" textLength="236" x="63.5" y="924.4678">shows all data and requests confirmation</text><polygon fill="#181818" points="294.5,957.0215,304.5,961.0215,294.5,965.0215,298.5,961.0215" style="stroke:#181818;stroke-width:1.0;"/><line style="stroke:#181818;stroke-width:1.0;" x1="28.5" x2="300.5" y1="961.0215" y2="961.0215"/><text fill="#000000" font-family="sans-serif" font-size="13" font-weight="bold" lengthAdjust="spacing" textLength="14" x="35.5" y="955.7588">23</text><text fill="#000000" font-family="sans-serif" font-size="13" lengthAdjust="spacing" textLength="75" x="53.5" y="955.7588">submits data</text><polygon fill="#181818" points="546.5,988.3125,556.5,992.3125,546.5,996.3125,550.5,992.3125" style="stroke:#181818;stroke-width:1.0;"/><line style="stroke:#181818;stroke-width:1.0;" x1="316.5" x2="552.5" y1="992.3125" y2="992.3125"/><text fill="#000000" font-family="sans-serif" font-size="13" font-weight="bold" lengthAdjust="spacing" textLength="14" x="323.5" y="987.0498">24</text><text fill="#000000" font-family="sans-serif" font-size="13" lengthAdjust="spacing" textLength="131" x="341.5" y="987.0498">assignVehicleToTask()</text><line style="stroke:#181818;stroke-width:1.0;" x1="568.5" x2="615.5" y1="1018.6035" y2="1018.6035"/><line style="stroke:#181818;stroke-width:1.0;" x1="615.5" x2="615.5" y1="1018.6035" y2="1031.6035"/><line style="stroke:#181818;stroke-width:1.0;" x1="574.5" x2="615.5" y1="1031.6035" y2="1031.6035"/><polygon fill="#181818" points="584.5,1027.6035,574.5,1031.6035,584.5,1035.6035,580.5,1031.6035" style="stroke:#181818;stroke-width:1.0;"/><text fill="#000000" font-family="sans-serif" font-size="13" font-weight="bold" lengthAdjust="spacing" textLength="14" x="580.5" y="1013.3408">25</text><text fill="#000000" font-family="sans-serif" font-size="13" lengthAdjust="spacing" textLength="176" x="598.5" y="1013.3408">getEmployeeFromRepository()</text><polygon fill="#181818" points="764.5,1063.8945,774.5,1067.8945,764.5,1071.8945,768.5,1067.8945" style="stroke:#181818;stroke-width:1.0;"/><line style="stroke:#181818;stroke-width:1.0;" x1="573.5" x2="770.5" y1="1067.8945" y2="1067.8945"/><text fill="#000000" font-family="sans-serif" font-size="13" font-weight="bold" lengthAdjust="spacing" textLength="14" x="580.5" y="1062.6318">26</text><text fill="#000000" font-family="sans-serif" font-size="13" lengthAdjust="spacing" textLength="75" x="598.5" y="1062.6318">getInstance()</text><polygon fill="#181818" points="584.5,1095.1855,574.5,1099.1855,584.5,1103.1855,580.5,1099.1855" style="stroke:#181818;stroke-width:1.0;"/><line style="stroke:#181818;stroke-width:1.0;stroke-dasharray:2.0,2.0;" x1="578.5" x2="780.5" y1="1099.1855" y2="1099.1855"/><text fill="#000000" font-family="sans-serif" font-size="13" font-weight="bold" lengthAdjust="spacing" textLength="14" x="590.5" y="1093.9229">27</text><text fill="#000000" font-family="sans-serif" font-size="13" lengthAdjust="spacing" textLength="67" x="608.5" y="1093.9229">repositories</text><polygon fill="#181818" points="871.5,1126.4766,881.5,1130.4766,871.5,1134.4766,875.5,1130.4766" style="stroke:#181818;stroke-width:1.0;"/><line style="stroke:#181818;stroke-width:1.0;" x1="573.5" x2="877.5" y1="1130.4766" y2="1130.4766"/><text fill="#000000" font-family="sans-serif" font-size="13" font-weight="bold" lengthAdjust="spacing" textLength="14" x="580.5" y="1125.2139">28</text><text fill="#000000" font-family="sans-serif" font-size="13" lengthAdjust="spacing" textLength="156" x="598.5" y="1125.2139">getEmployeeRepositories()</text><polygon fill="#181818" points="584.5,1157.7676,574.5,1161.7676,584.5,1165.7676,580.5,1161.7676" style="stroke:#181818;stroke-width:1.0;"/><line style="stroke:#181818;stroke-width:1.0;stroke-dasharray:2.0,2.0;" x1="578.5" x2="887.5" y1="1161.7676" y2="1161.7676"/><text fill="#000000" font-family="sans-serif" font-size="13" font-weight="bold" lengthAdjust="spacing" textLength="14" x="590.5" y="1156.5049">29</text><text fill="#000000" font-family="sans-serif" font-size="13" lengthAdjust="spacing" textLength="130" x="608.5" y="1156.5049">EmployeeRepositories</text><polygon fill="#181818" points="1003.5,1189.0586,1013.5,1193.0586,1003.5,1197.0586,1007.5,1193.0586" style="stroke:#181818;stroke-width:1.0;"/><line style="stroke:#181818;stroke-width:1.0;" x1="573.5" x2="1009.5" y1="1193.0586" y2="1193.0586"/><text fill="#000000" font-family="sans-serif" font-size="13" font-weight="bold" lengthAdjust="spacing" textLength="14" x="580.5" y="1187.7959">30</text><text fill="#000000" font-family="sans-serif" font-size="13" lengthAdjust="spacing" textLength="84" x="598.5" y="1187.7959">getEmployee()</text><polygon fill="#181818" points="584.5,1220.3496,574.5,1224.3496,584.5,1228.3496,580.5,1224.3496" style="stroke:#181818;stroke-width:1.0;"/><line style="stroke:#181818;stroke-width:1.0;stroke-dasharray:2.0,2.0;" x1="578.5" x2="1019.5" y1="1224.3496" y2="1224.3496"/><text fill="#000000" font-family="sans-serif" font-size="13" font-weight="bold" lengthAdjust="spacing" textLength="14" x="590.5" y="1219.0869">31</text><text fill="#000000" font-family="sans-serif" font-size="13" lengthAdjust="spacing" textLength="56" x="608.5" y="1219.0869">employee</text><line style="stroke:#181818;stroke-width:1.0;stroke-dasharray:2.0,2.0;" x1="573.5" x2="615.5" y1="1260.6406" y2="1260.6406"/><line style="stroke:#181818;stroke-width:1.0;stroke-dasharray:2.0,2.0;" x1="615.5" x2="615.5" y1="1260.6406" y2="1273.6406"/><line style="stroke:#181818;stroke-width:1.0;stroke-dasharray:2.0,2.0;" x1="568.5" x2="615.5" y1="1273.6406" y2="1273.6406"/><polygon fill="#181818" points="578.5,1269.6406,568.5,1273.6406,578.5,1277.6406,574.5,1273.6406" style="stroke:#181818;stroke-width:1.0;"/><text fill="#000000" font-family="sans-serif" font-size="13" font-weight="bold" lengthAdjust="spacing" textLength="14" x="580.5" y="1255.3779">32</text><text fill="#000000" font-family="sans-serif" font-size="13" lengthAdjust="spacing" textLength="56" x="598.5" y="1255.3779">employee</text><polygon fill="#181818" points="1420.5,1320.9316,1430.5,1324.9316,1420.5,1328.9316,1424.5,1324.9316" style="stroke:#181818;stroke-width:1.0;"/><line style="stroke:#181818;stroke-width:1.0;" x1="568.5" x2="1426.5" y1="1324.9316" y2="1324.9316"/><text fill="#000000" font-family="sans-serif" font-size="13" font-weight="bold" lengthAdjust="spacing" textLength="14" x="575.5" y="1319.6689">33</text><text fill="#000000" font-family="sans-serif" font-size="13" lengthAdjust="spacing" textLength="274" x="593.5" y="1319.6689">assignVehicleToTask(employee, task, vehicles)</text><polygon fill="#181818" points="1746.5,1352.2227,1756.5,1356.2227,1746.5,1360.2227,1750.5,1356.2227" style="stroke:#181818;stroke-width:1.0;"/><line style="stroke:#181818;stroke-width:1.0;" x1="1442.5" x2="1752.5" y1="1356.2227" y2="1356.2227"/><text fill="#000000" font-family="sans-serif" font-size="13" font-weight="bold" lengthAdjust="spacing" textLength="14" x="1449.5" y="1350.96">34</text><text fill="#000000" font-family="sans-serif" font-size="13" lengthAdjust="spacing" textLength="274" x="1467.5" y="1350.96">assignVehicleToTask(employee, task, vehicles)</text><rect fill="#E3E3E3" height="32.6211" rx="2.5" ry="2.5" style="stroke:#181818;stroke-width:0.5;" width="40" x="1758.5" y="1332.9316"/><text fill="#000000" font-family="sans-serif" font-size="14" lengthAdjust="spacing" textLength="26" x="1765.5" y="1355.0391">task</text><line style="stroke:#181818;stroke-width:1.0;" x1="1442.5" x2="1484.5" y1="1399.8438" y2="1399.8438"/><line style="stroke:#181818;stroke-width:1.0;" x1="1484.5" x2="1484.5" y1="1399.8438" y2="1412.8438"/><line style="stroke:#181818;stroke-width:1.0;" x1="1443.5" x2="1484.5" y1="1412.8438" y2="1412.8438"/><polygon fill="#181818" points="1453.5,1408.8438,1443.5,1412.8438,1453.5,1416.8438,1449.5,1412.8438" style="stroke:#181818;stroke-width:1.0;"/><text fill="#000000" font-family="sans-serif" font-size="13" font-weight="bold" lengthAdjust="spacing" textLength="14" x="1449.5" y="1394.5811">35</text><text fill="#000000" font-family="sans-serif" font-size="13" lengthAdjust="spacing" textLength="104" x="1467.5" y="1394.5811">validateTask(task)</text><line style="stroke:#181818;stroke-width:1.0;" x1="1442.5" x2="1484.5" y1="1444.1348" y2="1444.1348"/><line style="stroke:#181818;stroke-width:1.0;" x1="1484.5" x2="1484.5" y1="1444.1348" y2="1457.1348"/><line style="stroke:#181818;stroke-width:1.0;" x1="1443.5" x2="1484.5" y1="1457.1348" y2="1457.1348"/><polygon fill="#181818" points="1453.5,1453.1348,1443.5,1457.1348,1453.5,1461.1348,1449.5,1457.1348" style="stroke:#181818;stroke-width:1.0;"/><text fill="#000000" font-family="sans-serif" font-size="13" font-weight="bold" lengthAdjust="spacing" textLength="14" x="1449.5" y="1438.8721">36</text><text fill="#000000" font-family="sans-serif" font-size="13" lengthAdjust="spacing" textLength="82" x="1467.5" y="1438.8721">addTask(task)</text><polygon fill="#181818" points="579.5,1484.4258,569.5,1488.4258,579.5,1492.4258,575.5,1488.4258" style="stroke:#181818;stroke-width:1.0;"/><line style="stroke:#181818;stroke-width:1.0;stroke-dasharray:2.0,2.0;" x1="573.5" x2="1436.5" y1="1488.4258" y2="1488.4258"/><text fill="#000000" font-family="sans-serif" font-size="13" font-weight="bold" lengthAdjust="spacing" textLength="14" x="585.5" y="1483.1631">37</text><text fill="#000000" font-family="sans-serif" font-size="13" lengthAdjust="spacing" textLength="25" x="603.5" y="1483.1631">task</text><polygon fill="#181818" points="327.5,1515.7168,317.5,1519.7168,327.5,1523.7168,323.5,1519.7168" style="stroke:#181818;stroke-width:1.0;"/><line style="stroke:#181818;stroke-width:1.0;stroke-dasharray:2.0,2.0;" x1="321.5" x2="562.5" y1="1519.7168" y2="1519.7168"/><text fill="#000000" font-family="sans-serif" font-size="13" font-weight="bold" lengthAdjust="spacing" textLength="14" x="333.5" y="1514.4541">38</text><text fill="#000000" font-family="sans-serif" font-size="13" lengthAdjust="spacing" textLength="25" x="351.5" y="1514.4541">task</text><polygon fill="#181818" points="34.5,1547.0078,24.5,1551.0078,34.5,1555.0078,30.5,1551.0078" style="stroke:#181818;stroke-width:1.0;"/><line style="stroke:#181818;stroke-width:1.0;stroke-dasharray:2.0,2.0;" x1="28.5" x2="310.5" y1="1551.0078" y2="1551.0078"/><text fill="#000000" font-family="sans-serif" font-size="13" font-weight="bold" lengthAdjust="spacing" textLength="14" x="40.5" y="1545.7451">39</text><text fill="#000000" font-family="sans-serif" font-size="13" lengthAdjust="spacing" textLength="158" x="58.5" y="1545.7451">displays operation success</text><!--SRC=[jLTDRziu4BtpLn2-92biOD737dm8O3JTHO0KMDHEJxamqbWY8f4kIQSra1_V8VL9aPRa8Aj3Ob6SDpFalCUXVk7Ym1GhQIc5J78bIw167O7ezik19IyiWwqv5K0L98Q9hEXFq3bBvIykChfdXGP2sD58SIoVGH5Yk46pBVmyWaY0td6MMPlhxTqDVTp-zVblGiXLpbEWUodDi_nDM6Aaeej_jzyMb6cA_mdwCJpX1oOCNQmtMlDC_82S9mNiv2O3aRAlmgZJuxqpURoVRV55ubzP5A2SvPVTzuU1xNSuICqn90xQpMa7JbjkLm9pzKrKp-99X03_FMnslWMKXqAU03hezPFu6Wmwwt3Onp9CltWuEs_0OVX3llrhjKeUn8_Xc4C9HkD9hPk8dL4pIeY2FPMleEmEBt7Fw9hkSgufxZ-N0kVgOmcQcfmP-YHC3lIeSNQE8AnGmD8JBMIMGKgvm2AoPg_CW2iOGki7N-ZgjaB7f15EMcIi1Ye5K2oqKYgWTTBQEi89We8j3WIcrYzpzTA1jgwmqCWLxJtePuNkDdVVq9-oHQ-DfYapZ5vZlg0i2POq1PqeVh1vBYbwsKjLiWAT-ryC9BdW2NxnXjEZOjMlH6fpG_e1N2MuCXYPAsH2Xh7TkWyOMmPcyyfumPwH47PXhdsSDiKAY0uUXu9e4IvKuFT2equaC83re6D42cRR9-PbLUTYbxdZLs2UmcNkciGiHwjCVAwCvUDu7Kt0eNKH-nGTYpaEsGJfXpPZLxrm1o8G3NpWOTKL4FFyF71jnlAOybLbr19r7Bk76rPdpK3B-pMUJFANxk1g8ZjoSqTs9j9M5ZGKUBXPMI0HJvRgGq6fBBHJaXvqjQEU9PaaOIsciHsRmSUFuENx-Va1F7qlNy_pDZYTvgHydi9dg1oSbdCo6_VIf18aS5d5U7c5H_Leag7h6FER0ABaZwHzGH1dz63IOo0D0-gTLOQs0MWLmNK2jIPW1r80qvqup1I61ZKKXB6WYgBg66meRG-HIB7ds2NOWtzM2CVdajUznxZxRcFzBjcARw-snXJ83grkAqPWYJODtpzudV3uDqFQ_WzL-zYEWywGilV8M2XXGQlFfy-7Ibkckn3q48CdiwHhDFxmWk8bCvL0v7uJcnzEiwbL9TZUCIQIYRYATYRJmACjYNtUtjx8-KQklIijpj2m-RvqlUEo5PQ9jUnmurlMyxkwTJV7nQTF5uSm3TrxmoEJ5HnLoJLtrnRhva80bgOzsqbZh-sUAed-YjNFcNCfWZUiWdXVkgOfruU2dR1nF41rbKEvJXBGEgRilLTxjVq3]--></g></svg>