<?xml version="1.0" encoding="us-ascii" standalone="no"?><svg xmlns="http://www.w3.org/2000/svg" xmlns:xlink="http://www.w3.org/1999/xlink" contentStyleType="text/css" height="723.2px" preserveAspectRatio="none" style="width:836px;height:723px;background:#FFFFFF;" version="1.1" viewBox="0 0 836 723" width="836px" zoomAndPan="magnify"><defs/><g><!--class AssignVehicleToAgendaEntryUI--><g id="elem_AssignVehicleToAgendaEntryUI"><rect codeLine="11" fill="#F1F1F1" height="38.4" id="AssignVehicleToAgendaEntryUI" rx="2" ry="2" style="stroke:#181818;stroke-width:0.4000000000000001;" width="184.8" x="44.4" y="5.6"/><ellipse cx="56.4" cy="18.4" fill="#ADD1B2" rx="8.8" ry="8.8" style="stroke:#181818;stroke-width:0.8000000000000002;"/><path d="M58.6125,15.1 Q58.7375,14.925 58.8875,14.8375 Q59.0375,14.75 59.2125,14.75 Q59.5125,14.75 59.7,14.9625 Q59.8875,15.1625 59.8875,15.65 L59.8875,16.8125 Q59.8875,17.3 59.7,17.5125 Q59.5125,17.725 59.2125,17.725 Q58.9375,17.725 58.775,17.5625 Q58.6125,17.4125 58.525,17 Q58.4875,16.7125 58.3375,16.5625 Q58.075,16.2625 57.5875,16.0875 Q57.1,15.9125 56.6,15.9125 Q55.9875,15.9125 55.475,16.175 Q54.975,16.4375 54.575,17.0375 Q54.1875,17.6375 54.1875,18.4625 L54.1875,19.3375 Q54.1875,20.325 54.9,20.9875 Q55.6125,21.6375 56.8875,21.6375 Q57.6375,21.6375 58.1625,21.4375 Q58.475,21.3125 58.8125,20.9625 Q59.025,20.75 59.1375,20.6875 Q59.2625,20.625 59.425,20.625 Q59.6875,20.625 59.8875,20.8375 Q60.1,21.0375 60.1,21.3125 Q60.1,21.5875 59.825,21.9125 Q59.425,22.375 58.7875,22.6375 Q57.925,23 56.8875,23 Q55.675,23 54.7125,22.5 Q53.925,22.1 53.375,21.25 Q52.825,20.3875 52.825,19.3625 L52.825,18.4375 Q52.825,17.375 53.3125,16.4625 Q53.8125,15.5375 54.6875,15.05 Q55.5625,14.55 56.55,14.55 Q57.1375,14.55 57.65,14.6875 Q58.175,14.8125 58.6125,15.1 Z " fill="#000000"/><text fill="#000000" font-family="sans-serif" font-size="11.2" lengthAdjust="spacing" textLength="159.2" x="67.6" y="23.0375">AssignVehicleToAgendaEntryUI</text><line style="stroke:#181818;stroke-width:0.4000000000000001;" x1="45.2" x2="228.4" y1="31.2" y2="31.2"/><line style="stroke:#181818;stroke-width:0.4000000000000001;" x1="45.2" x2="228.4" y1="37.6" y2="37.6"/></g><!--class AssignVehicleToAgendaEntryController--><g id="elem_AssignVehicleToAgendaEntryController"><rect codeLine="14" fill="#F1F1F1" height="142.6781" id="AssignVehicleToAgendaEntryController" rx="2" ry="2" style="stroke:#181818;stroke-width:0.4000000000000001;" width="262.4" x="5.6" y="92.8"/><ellipse cx="34.52" cy="105.6" fill="#ADD1B2" rx="8.8" ry="8.8" style="stroke:#181818;stroke-width:0.8000000000000002;"/><path d="M36.7325,102.3 Q36.8575,102.125 37.0075,102.0375 Q37.1575,101.95 37.3325,101.95 Q37.6325,101.95 37.82,102.1625 Q38.0075,102.3625 38.0075,102.85 L38.0075,104.0125 Q38.0075,104.5 37.82,104.7125 Q37.6325,104.925 37.3325,104.925 Q37.0575,104.925 36.895,104.7625 Q36.7325,104.6125 36.645,104.2 Q36.6075,103.9125 36.4575,103.7625 Q36.195,103.4625 35.7075,103.2875 Q35.22,103.1125 34.72,103.1125 Q34.1075,103.1125 33.595,103.375 Q33.095,103.6375 32.695,104.2375 Q32.3075,104.8375 32.3075,105.6625 L32.3075,106.5375 Q32.3075,107.525 33.02,108.1875 Q33.7325,108.8375 35.0075,108.8375 Q35.7575,108.8375 36.2825,108.6375 Q36.595,108.5125 36.9325,108.1625 Q37.145,107.95 37.2575,107.8875 Q37.3825,107.825 37.545,107.825 Q37.8075,107.825 38.0075,108.0375 Q38.22,108.2375 38.22,108.5125 Q38.22,108.7875 37.945,109.1125 Q37.545,109.575 36.9075,109.8375 Q36.045,110.2 35.0075,110.2 Q33.795,110.2 32.8325,109.7 Q32.045,109.3 31.495,108.45 Q30.945,107.5875 30.945,106.5625 L30.945,105.6375 Q30.945,104.575 31.4325,103.6625 Q31.9325,102.7375 32.8075,102.25 Q33.6825,101.75 34.67,101.75 Q35.2575,101.75 35.77,101.8875 Q36.295,102.0125 36.7325,102.3 Z " fill="#000000"/><text fill="#000000" font-family="sans-serif" font-size="11.2" lengthAdjust="spacing" textLength="199.2" x="49.48" y="110.2375">AssignVehicleToAgendaEntryController</text><line style="stroke:#181818;stroke-width:0.4000000000000001;" x1="6.4" x2="267.2" y1="118.4" y2="118.4"/><line style="stroke:#181818;stroke-width:0.4000000000000001;" x1="6.4" x2="267.2" y1="124.8" y2="124.8"/><text fill="#000000" font-family="sans-serif" font-size="11.2" lengthAdjust="spacing" textLength="134.4" x="10.4" y="140.0859">+getEmployeeRepository()</text><text fill="#000000" font-family="sans-serif" font-size="11.2" lengthAdjust="spacing" textLength="109.6" x="10.4" y="154.9828">+getTaskRepository()</text><text fill="#000000" font-family="sans-serif" font-size="11.2" lengthAdjust="spacing" textLength="121.6" x="10.4" y="169.8797">+getVehicleRepository()</text><text fill="#000000" font-family="sans-serif" font-size="11.2" lengthAdjust="spacing" textLength="106.4" x="10.4" y="184.7766">+getAvailableTasks()</text><text fill="#000000" font-family="sans-serif" font-size="11.2" lengthAdjust="spacing" textLength="211.2" x="10.4" y="199.6734">+getAvailableVehicles(Task taskSelected)</text><text fill="#000000" font-family="sans-serif" font-size="11.2" lengthAdjust="spacing" textLength="192.8" x="10.4" y="214.5703">+getTaskAssignedVehicles(Task task)</text><text fill="#000000" font-family="sans-serif" font-size="11.2" lengthAdjust="spacing" textLength="252.8" x="10.4" y="229.4672">+assignVehicleToTask(Vehicle vehicle, Task task)</text></g><!--class Employee--><g id="elem_Employee"><rect codeLine="24" fill="#F1F1F1" height="53.2969" id="Employee" rx="2" ry="2" style="stroke:#181818;stroke-width:0.4000000000000001;" width="355.2" x="296" y="576.8"/><ellipse cx="445.4" cy="589.6" fill="#ADD1B2" rx="8.8" ry="8.8" style="stroke:#181818;stroke-width:0.8000000000000002;"/><path d="M447.6125,586.3 Q447.7375,586.125 447.8875,586.0375 Q448.0375,585.95 448.2125,585.95 Q448.5125,585.95 448.7,586.1625 Q448.8875,586.3625 448.8875,586.85 L448.8875,588.0125 Q448.8875,588.5 448.7,588.7125 Q448.5125,588.925 448.2125,588.925 Q447.9375,588.925 447.775,588.7625 Q447.6125,588.6125 447.525,588.2 Q447.4875,587.9125 447.3375,587.7625 Q447.075,587.4625 446.5875,587.2875 Q446.1,587.1125 445.6,587.1125 Q444.9875,587.1125 444.475,587.375 Q443.975,587.6375 443.575,588.2375 Q443.1875,588.8375 443.1875,589.6625 L443.1875,590.5375 Q443.1875,591.525 443.9,592.1875 Q444.6125,592.8375 445.8875,592.8375 Q446.6375,592.8375 447.1625,592.6375 Q447.475,592.5125 447.8125,592.1625 Q448.025,591.95 448.1375,591.8875 Q448.2625,591.825 448.425,591.825 Q448.6875,591.825 448.8875,592.0375 Q449.1,592.2375 449.1,592.5125 Q449.1,592.7875 448.825,593.1125 Q448.425,593.575 447.7875,593.8375 Q446.925,594.2 445.8875,594.2 Q444.675,594.2 443.7125,593.7 Q442.925,593.3 442.375,592.45 Q441.825,591.5875 441.825,590.5625 L441.825,589.6375 Q441.825,588.575 442.3125,587.6625 Q442.8125,586.7375 443.6875,586.25 Q444.5625,585.75 445.55,585.75 Q446.1375,585.75 446.65,585.8875 Q447.175,586.0125 447.6125,586.3 Z " fill="#000000"/><text fill="#000000" font-family="sans-serif" font-size="11.2" lengthAdjust="spacing" textLength="49.6" x="461.8" y="594.2375">Employee</text><line style="stroke:#181818;stroke-width:0.4000000000000001;" x1="296.8" x2="650.4" y1="602.4" y2="602.4"/><line style="stroke:#181818;stroke-width:0.4000000000000001;" x1="296.8" x2="650.4" y1="608.8" y2="608.8"/><text fill="#000000" font-family="sans-serif" font-size="11.2" lengthAdjust="spacing" textLength="345.6" x="300.8" y="624.0859">+assignVehicleToTask(Vehicle availableVehicle, Task selectedTask)</text></g><!--class Task--><g id="elem_Task"><rect codeLine="28" fill="#F1F1F1" height="38.4" id="Task" rx="2" ry="2" style="stroke:#181818;stroke-width:0.4000000000000001;" width="50.4" x="448.4" y="679.2"/><ellipse cx="460.4" cy="692" fill="#ADD1B2" rx="8.8" ry="8.8" style="stroke:#181818;stroke-width:0.8000000000000002;"/><path d="M462.6125,688.7 Q462.7375,688.525 462.8875,688.4375 Q463.0375,688.35 463.2125,688.35 Q463.5125,688.35 463.7,688.5625 Q463.8875,688.7625 463.8875,689.25 L463.8875,690.4125 Q463.8875,690.9 463.7,691.1125 Q463.5125,691.325 463.2125,691.325 Q462.9375,691.325 462.775,691.1625 Q462.6125,691.0125 462.525,690.6 Q462.4875,690.3125 462.3375,690.1625 Q462.075,689.8625 461.5875,689.6875 Q461.1,689.5125 460.6,689.5125 Q459.9875,689.5125 459.475,689.775 Q458.975,690.0375 458.575,690.6375 Q458.1875,691.2375 458.1875,692.0625 L458.1875,692.9375 Q458.1875,693.925 458.9,694.5875 Q459.6125,695.2375 460.8875,695.2375 Q461.6375,695.2375 462.1625,695.0375 Q462.475,694.9125 462.8125,694.5625 Q463.025,694.35 463.1375,694.2875 Q463.2625,694.225 463.425,694.225 Q463.6875,694.225 463.8875,694.4375 Q464.1,694.6375 464.1,694.9125 Q464.1,695.1875 463.825,695.5125 Q463.425,695.975 462.7875,696.2375 Q461.925,696.6 460.8875,696.6 Q459.675,696.6 458.7125,696.1 Q457.925,695.7 457.375,694.85 Q456.825,693.9875 456.825,692.9625 L456.825,692.0375 Q456.825,690.975 457.3125,690.0625 Q457.8125,689.1375 458.6875,688.65 Q459.5625,688.15 460.55,688.15 Q461.1375,688.15 461.65,688.2875 Q462.175,688.4125 462.6125,688.7 Z " fill="#000000"/><text fill="#000000" font-family="sans-serif" font-size="11.2" lengthAdjust="spacing" textLength="24.8" x="471.6" y="696.6375">Task</text><line style="stroke:#181818;stroke-width:0.4000000000000001;" x1="449.2" x2="498" y1="704.8" y2="704.8"/><line style="stroke:#181818;stroke-width:0.4000000000000001;" x1="449.2" x2="498" y1="711.2" y2="711.2"/></g><!--class TaskRepository--><g id="elem_TaskRepository"><rect codeLine="31" fill="#F1F1F1" height="68.1938" id="TaskRepository" rx="2" ry="2" style="stroke:#181818;stroke-width:0.4000000000000001;" width="356" x="156.4" y="460"/><ellipse cx="291.4" cy="472.8" fill="#ADD1B2" rx="8.8" ry="8.8" style="stroke:#181818;stroke-width:0.8000000000000002;"/><path d="M293.6125,469.5 Q293.7375,469.325 293.8875,469.2375 Q294.0375,469.15 294.2125,469.15 Q294.5125,469.15 294.7,469.3625 Q294.8875,469.5625 294.8875,470.05 L294.8875,471.2125 Q294.8875,471.7 294.7,471.9125 Q294.5125,472.125 294.2125,472.125 Q293.9375,472.125 293.775,471.9625 Q293.6125,471.8125 293.525,471.4 Q293.4875,471.1125 293.3375,470.9625 Q293.075,470.6625 292.5875,470.4875 Q292.1,470.3125 291.6,470.3125 Q290.9875,470.3125 290.475,470.575 Q289.975,470.8375 289.575,471.4375 Q289.1875,472.0375 289.1875,472.8625 L289.1875,473.7375 Q289.1875,474.725 289.9,475.3875 Q290.6125,476.0375 291.8875,476.0375 Q292.6375,476.0375 293.1625,475.8375 Q293.475,475.7125 293.8125,475.3625 Q294.025,475.15 294.1375,475.0875 Q294.2625,475.025 294.425,475.025 Q294.6875,475.025 294.8875,475.2375 Q295.1,475.4375 295.1,475.7125 Q295.1,475.9875 294.825,476.3125 Q294.425,476.775 293.7875,477.0375 Q292.925,477.4 291.8875,477.4 Q290.675,477.4 289.7125,476.9 Q288.925,476.5 288.375,475.65 Q287.825,474.7875 287.825,473.7625 L287.825,472.8375 Q287.825,471.775 288.3125,470.8625 Q288.8125,469.9375 289.6875,469.45 Q290.5625,468.95 291.55,468.95 Q292.1375,468.95 292.65,469.0875 Q293.175,469.2125 293.6125,469.5 Z " fill="#000000"/><text fill="#000000" font-family="sans-serif" font-size="11.2" lengthAdjust="spacing" textLength="79.2" x="307.8" y="477.4375">TaskRepository</text><line style="stroke:#181818;stroke-width:0.4000000000000001;" x1="157.2" x2="511.6" y1="485.6" y2="485.6"/><line style="stroke:#181818;stroke-width:0.4000000000000001;" x1="157.2" x2="511.6" y1="492" y2="492"/><text fill="#000000" font-family="sans-serif" font-size="11.2" lengthAdjust="spacing" textLength="220.8" x="161.2" y="507.2859">+getAllAgendaTasksExceptDoneCanceled()</text><text fill="#000000" font-family="sans-serif" font-size="11.2" lengthAdjust="spacing" textLength="346.4" x="161.2" y="522.1828">+getVehicleAvaiability(Task taskSelecionada, List&lt;Vehicle&gt; vehicles)</text></g><!--class EmployeeRepository--><g id="elem_EmployeeRepository"><rect codeLine="36" fill="#F1F1F1" height="53.2969" id="EmployeeRepository" rx="2" ry="2" style="stroke:#181818;stroke-width:0.4000000000000001;" width="144.8" x="540.4" y="467.2"/><ellipse cx="559.24" cy="480" fill="#ADD1B2" rx="8.8" ry="8.8" style="stroke:#181818;stroke-width:0.8000000000000002;"/><path d="M561.4525,476.7 Q561.5775,476.525 561.7275,476.4375 Q561.8775,476.35 562.0525,476.35 Q562.3525,476.35 562.54,476.5625 Q562.7275,476.7625 562.7275,477.25 L562.7275,478.4125 Q562.7275,478.9 562.54,479.1125 Q562.3525,479.325 562.0525,479.325 Q561.7775,479.325 561.615,479.1625 Q561.4525,479.0125 561.365,478.6 Q561.3275,478.3125 561.1775,478.1625 Q560.915,477.8625 560.4275,477.6875 Q559.94,477.5125 559.44,477.5125 Q558.8275,477.5125 558.315,477.775 Q557.815,478.0375 557.415,478.6375 Q557.0275,479.2375 557.0275,480.0625 L557.0275,480.9375 Q557.0275,481.925 557.74,482.5875 Q558.4525,483.2375 559.7275,483.2375 Q560.4775,483.2375 561.0025,483.0375 Q561.315,482.9125 561.6525,482.5625 Q561.865,482.35 561.9775,482.2875 Q562.1025,482.225 562.265,482.225 Q562.5275,482.225 562.7275,482.4375 Q562.94,482.6375 562.94,482.9125 Q562.94,483.1875 562.665,483.5125 Q562.265,483.975 561.6275,484.2375 Q560.765,484.6 559.7275,484.6 Q558.515,484.6 557.5525,484.1 Q556.765,483.7 556.215,482.85 Q555.665,481.9875 555.665,480.9625 L555.665,480.0375 Q555.665,478.975 556.1525,478.0625 Q556.6525,477.1375 557.5275,476.65 Q558.4025,476.15 559.39,476.15 Q559.9775,476.15 560.49,476.2875 Q561.015,476.4125 561.4525,476.7 Z " fill="#000000"/><text fill="#000000" font-family="sans-serif" font-size="11.2" lengthAdjust="spacing" textLength="104" x="571.96" y="484.6375">EmployeeRepository</text><line style="stroke:#181818;stroke-width:0.4000000000000001;" x1="541.2" x2="684.4" y1="492.8" y2="492.8"/><line style="stroke:#181818;stroke-width:0.4000000000000001;" x1="541.2" x2="684.4" y1="499.2" y2="499.2"/><text fill="#000000" font-family="sans-serif" font-size="11.2" lengthAdjust="spacing" textLength="135.2" x="545.2" y="514.4859">+getEmployee(): employee</text></g><!--class VehicleRepository--><g id="elem_VehicleRepository"><rect codeLine="40" fill="#F1F1F1" height="53.2969" id="VehicleRepository" rx="2" ry="2" style="stroke:#181818;stroke-width:0.4000000000000001;" width="116.8" x="713.6" y="467.2"/><ellipse cx="725.6" cy="480" fill="#ADD1B2" rx="8.8" ry="8.8" style="stroke:#181818;stroke-width:0.8000000000000002;"/><path d="M727.8125,476.7 Q727.9375,476.525 728.0875,476.4375 Q728.2375,476.35 728.4125,476.35 Q728.7125,476.35 728.9,476.5625 Q729.0875,476.7625 729.0875,477.25 L729.0875,478.4125 Q729.0875,478.9 728.9,479.1125 Q728.7125,479.325 728.4125,479.325 Q728.1375,479.325 727.975,479.1625 Q727.8125,479.0125 727.725,478.6 Q727.6875,478.3125 727.5375,478.1625 Q727.275,477.8625 726.7875,477.6875 Q726.3,477.5125 725.8,477.5125 Q725.1875,477.5125 724.675,477.775 Q724.175,478.0375 723.775,478.6375 Q723.3875,479.2375 723.3875,480.0625 L723.3875,480.9375 Q723.3875,481.925 724.1,482.5875 Q724.8125,483.2375 726.0875,483.2375 Q726.8375,483.2375 727.3625,483.0375 Q727.675,482.9125 728.0125,482.5625 Q728.225,482.35 728.3375,482.2875 Q728.4625,482.225 728.625,482.225 Q728.8875,482.225 729.0875,482.4375 Q729.3,482.6375 729.3,482.9125 Q729.3,483.1875 729.025,483.5125 Q728.625,483.975 727.9875,484.2375 Q727.125,484.6 726.0875,484.6 Q724.875,484.6 723.9125,484.1 Q723.125,483.7 722.575,482.85 Q722.025,481.9875 722.025,480.9625 L722.025,480.0375 Q722.025,478.975 722.5125,478.0625 Q723.0125,477.1375 723.8875,476.65 Q724.7625,476.15 725.75,476.15 Q726.3375,476.15 726.85,476.2875 Q727.375,476.4125 727.8125,476.7 Z " fill="#000000"/><text fill="#000000" font-family="sans-serif" font-size="11.2" lengthAdjust="spacing" textLength="91.2" x="736.8" y="484.6375">VehicleRepository</text><line style="stroke:#181818;stroke-width:0.4000000000000001;" x1="714.4" x2="829.6" y1="492.8" y2="492.8"/><line style="stroke:#181818;stroke-width:0.4000000000000001;" x1="714.4" x2="829.6" y1="499.2" y2="499.2"/><text fill="#000000" font-family="sans-serif" font-size="11.2" lengthAdjust="spacing" textLength="72.8" x="718.4" y="514.4859">+getVehicles()</text></g><!--class Repositories--><g id="elem_Repositories"><rect codeLine="45" fill="#F1F1F1" height="112.8844" id="Repositories" rx="2" ry="2" style="stroke:#181818;stroke-width:0.4000000000000001;" width="155.2" x="396" y="298.4"/><ellipse cx="438.6" cy="311.2" fill="#ADD1B2" rx="8.8" ry="8.8" style="stroke:#181818;stroke-width:0.8000000000000002;"/><path d="M440.8125,307.9 Q440.9375,307.725 441.0875,307.6375 Q441.2375,307.55 441.4125,307.55 Q441.7125,307.55 441.9,307.7625 Q442.0875,307.9625 442.0875,308.45 L442.0875,309.6125 Q442.0875,310.1 441.9,310.3125 Q441.7125,310.525 441.4125,310.525 Q441.1375,310.525 440.975,310.3625 Q440.8125,310.2125 440.725,309.8 Q440.6875,309.5125 440.5375,309.3625 Q440.275,309.0625 439.7875,308.8875 Q439.3,308.7125 438.8,308.7125 Q438.1875,308.7125 437.675,308.975 Q437.175,309.2375 436.775,309.8375 Q436.3875,310.4375 436.3875,311.2625 L436.3875,312.1375 Q436.3875,313.125 437.1,313.7875 Q437.8125,314.4375 439.0875,314.4375 Q439.8375,314.4375 440.3625,314.2375 Q440.675,314.1125 441.0125,313.7625 Q441.225,313.55 441.3375,313.4875 Q441.4625,313.425 441.625,313.425 Q441.8875,313.425 442.0875,313.6375 Q442.3,313.8375 442.3,314.1125 Q442.3,314.3875 442.025,314.7125 Q441.625,315.175 440.9875,315.4375 Q440.125,315.8 439.0875,315.8 Q437.875,315.8 436.9125,315.3 Q436.125,314.9 435.575,314.05 Q435.025,313.1875 435.025,312.1625 L435.025,311.2375 Q435.025,310.175 435.5125,309.2625 Q436.0125,308.3375 436.8875,307.85 Q437.7625,307.35 438.75,307.35 Q439.3375,307.35 439.85,307.4875 Q440.375,307.6125 440.8125,307.9 Z " fill="#000000"/><text fill="#000000" font-family="sans-serif" font-size="11.2" lengthAdjust="spacing" textLength="63.2" x="455" y="315.8375">Repositories</text><line style="stroke:#181818;stroke-width:0.4000000000000001;" x1="396.8" x2="550.4" y1="324" y2="324"/><line style="stroke:#181818;stroke-width:0.4000000000000001;" x1="396.8" x2="550.4" y1="330.4" y2="330.4"/><text fill="#000000" font-family="sans-serif" font-size="11.2" lengthAdjust="spacing" textLength="75.2" x="400.8" y="345.6859">-Repositories()</text><text fill="#000000" font-family="sans-serif" font-size="11.2" lengthAdjust="spacing" textLength="145.6" x="400.8" y="360.5828">+getInstance() : Repositories</text><text fill="#000000" font-family="sans-serif" font-size="11.2" lengthAdjust="spacing" textLength="109.6" x="400.8" y="375.4797">+getTaskRepository()</text><text fill="#000000" font-family="sans-serif" font-size="11.2" lengthAdjust="spacing" textLength="134.4" x="400.8" y="390.3766">+getEmployeeRepository()</text><text fill="#000000" font-family="sans-serif" font-size="11.2" lengthAdjust="spacing" textLength="121.6" x="400.8" y="405.2734">+getVehicleRepository()</text></g><!--link Repositories to Repositories--><g id="link_Repositories_Repositories"><path codeLine="58" d="M551.424,340.328 C567.584,341.848 579.2,346.672 579.2,354.8 C579.2,362.928 572.3629,367.3025 556.2029,368.8225 " fill="none" id="Repositories-to-Repositories" style="stroke:#181818;stroke-width:0.8000000000000002;"/><polygon fill="#181818" points="551.424,369.272,558.892,371.7837,555.4064,368.8974,558.2927,365.4118,551.424,369.272" style="stroke:#181818;stroke-width:0.8000000000000002;"/><text fill="#000000" font-family="sans-serif" font-size="10.4" lengthAdjust="spacing" textLength="39.2" x="584" y="359.2227">instance</text></g><!--link AssignVehicleToAgendaEntryUI to AssignVehicleToAgendaEntryController--><g id="link_AssignVehicleToAgendaEntryUI_AssignVehicleToAgendaEntryController"><path codeLine="61" d="M136.8,44.16 C136.8,56.92 136.8,69.96 136.8,87.944 " fill="none" id="AssignVehicleToAgendaEntryUI-to-AssignVehicleToAgendaEntryController" style="stroke:#181818;stroke-width:0.8000000000000002;stroke-dasharray:7.0,7.0;"/><polygon fill="#181818" points="136.8,92.744,140,85.544,136.8,88.744,133.6,85.544,136.8,92.744" style="stroke:#181818;stroke-width:0.8000000000000002;"/></g><!--link AssignVehicleToAgendaEntryController to Repositories--><g id="link_AssignVehicleToAgendaEntryController_Repositories"><path codeLine="63" d="M262.208,235.248 C307.008,260.416 351.9593,285.6647 391.5833,307.9287 " fill="none" id="AssignVehicleToAgendaEntryController-to-Repositories" style="stroke:#181818;stroke-width:0.8000000000000002;stroke-dasharray:7.0,7.0;"/><polygon fill="#181818" points="395.768,310.28,391.0585,303.9633,392.2808,308.3206,387.9235,309.5428,395.768,310.28" style="stroke:#181818;stroke-width:0.8000000000000002;"/><text fill="#000000" font-family="sans-serif" font-size="10.4" lengthAdjust="spacing" textLength="53.6" x="325.6" y="271.2227">repositories</text></g><!--link Repositories to TaskRepository--><g id="link_Repositories_TaskRepository"><path codeLine="66" d="M417.184,411.368 C400.528,427.832 386.2366,441.9525 371.5006,456.5285 " fill="none" id="Repositories-to-TaskRepository" style="stroke:#181818;stroke-width:0.8000000000000002;"/><polygon fill="#181818" points="368.088,459.904,375.4572,457.1158,370.9318,457.0911,370.9565,452.5656,368.088,459.904" style="stroke:#181818;stroke-width:0.8000000000000002;"/><text fill="#000000" font-family="sans-serif" font-size="10.4" lengthAdjust="spacing" textLength="5.6" x="405.7549" y="428.8357">1</text><text fill="#000000" font-family="sans-serif" font-size="10.4" lengthAdjust="spacing" textLength="5.6" x="367.4108" y="451.012">1</text></g><!--link Repositories to EmployeeRepository--><g id="link_Repositories_EmployeeRepository"><path codeLine="67" d="M530.016,411.368 C549.464,430.592 566.9142,447.8417 582.8342,463.5777 " fill="none" id="Repositories-to-EmployeeRepository" style="stroke:#181818;stroke-width:0.8000000000000002;"/><polygon fill="#181818" points="586.248,466.952,583.3769,459.6147,583.4032,464.1401,578.8778,464.1664,586.248,466.952" style="stroke:#181818;stroke-width:0.8000000000000002;"/><text fill="#000000" font-family="sans-serif" font-size="10.4" lengthAdjust="spacing" textLength="5.6" x="529.6938" y="428.8357">1</text><text fill="#000000" font-family="sans-serif" font-size="10.4" lengthAdjust="spacing" textLength="5.6" x="575.0528" y="458.1735">1</text></g><!--link Repositories to VehicleRepository--><g id="link_Repositories_VehicleRepository"><path codeLine="68" d="M551.224,391.392 C602.68,415.12 664.6729,443.7104 711.1449,465.1344 " fill="none" id="Repositories-to-VehicleRepository" style="stroke:#181818;stroke-width:0.8000000000000002;"/><polygon fill="#181818" points="715.504,467.144,710.3051,461.2236,711.8714,465.4694,707.6257,467.0357,715.504,467.144" style="stroke:#181818;stroke-width:0.8000000000000002;"/><text fill="#000000" font-family="sans-serif" font-size="10.4" lengthAdjust="spacing" textLength="5.6" x="557.6328" y="391.3946">1</text><text fill="#000000" font-family="sans-serif" font-size="10.4" lengthAdjust="spacing" textLength="5.6" x="701.5655" y="460.0715">1</text></g><!--link TaskRepository to Employee--><g id="link_TaskRepository_Employee"><path codeLine="70" d="M377.304,528.088 C397.432,543.704 417.2791,559.1062 436.1031,573.7062 " fill="none" id="TaskRepository-to-Employee" style="stroke:#181818;stroke-width:0.8000000000000002;"/><polygon fill="#181818" points="439.896,576.648,436.1679,569.7067,436.7353,574.1965,432.2455,574.7639,439.896,576.648" style="stroke:#181818;stroke-width:0.8000000000000002;"/><text fill="#000000" font-family="sans-serif" font-size="10.4" lengthAdjust="spacing" textLength="5.6" x="378.0956" y="545.8303">1</text><text fill="#000000" font-family="sans-serif" font-size="10.4" lengthAdjust="spacing" textLength="4" x="429.0899" y="567.8878">*</text></g><!--link EmployeeRepository to Employee--><g id="link_EmployeeRepository_Employee"><path codeLine="71" d="M579.104,520.944 C557.296,537.864 532.808,556.8571 511.016,573.7691 " fill="none" id="EmployeeRepository-to-Employee" style="stroke:#181818;stroke-width:0.8000000000000002;"/><polygon fill="#181818" points="507.224,576.712,514.874,574.8257,510.384,574.2596,510.9501,569.7697,507.224,576.712" style="stroke:#181818;stroke-width:0.8000000000000002;"/><text fill="#000000" font-family="sans-serif" font-size="10.4" lengthAdjust="spacing" textLength="5.6" x="567.0032" y="538.225">1</text><text fill="#000000" font-family="sans-serif" font-size="10.4" lengthAdjust="spacing" textLength="4" x="509.45" y="567.7551">*</text></g><!--link VehicleRepository to Employee--><g id="link_VehicleRepository_Employee"><path codeLine="72" d="M714.64,520.96 C705.616,525.072 699.2,528 699.2,528 C699.2,528 621.8522,553.6497 556.7402,575.2337 " fill="none" id="VehicleRepository-to-Employee" style="stroke:#181818;stroke-width:0.8000000000000002;"/><polygon fill="#181818" points="552.184,576.744,560.0252,577.516,555.9808,575.4854,558.0114,571.441,552.184,576.744" style="stroke:#181818;stroke-width:0.8000000000000002;"/><text fill="#000000" font-family="sans-serif" font-size="10.4" lengthAdjust="spacing" textLength="5.6" x="701.708" y="536.3298">1</text><text fill="#000000" font-family="sans-serif" font-size="10.4" lengthAdjust="spacing" textLength="4" x="563.2615" y="567.7934">*</text></g><!--link Employee to Task--><g id="link_Employee_Task"><path codeLine="74" d="M473.6,630.608 C473.6,646.008 473.6,660.304 473.6,674.168 " fill="none" id="Employee-to-Task" style="stroke:#181818;stroke-width:0.8000000000000002;"/><polygon fill="#181818" points="473.6,678.968,476.8,671.768,473.6,674.968,470.4,671.768,473.6,678.968" style="stroke:#181818;stroke-width:0.8000000000000002;"/><text fill="#000000" font-family="sans-serif" font-size="10.4" lengthAdjust="spacing" textLength="5.6" x="467.5188" y="647.6875">1</text><text fill="#000000" font-family="sans-serif" font-size="10.4" lengthAdjust="spacing" textLength="4" x="469.1125" y="670.225">*</text></g><!--link AssignVehicleToAgendaEntryController to Employee--><g id="link_AssignVehicleToAgendaEntryController_Employee"><path codeLine="77" d="M137.888,235.256 C139.512,340.88 142.4,528 142.4,528 C142.4,528 258.158,554.1423 353.774,575.7423 " fill="none" id="AssignVehicleToAgendaEntryController-to-Employee" style="stroke:#181818;stroke-width:0.8000000000000002;stroke-dasharray:7.0,7.0;"/><polygon fill="#181818" points="358.456,576.8,352.1381,572.0921,354.5543,575.9186,350.7278,578.3348,358.456,576.8" style="stroke:#181818;stroke-width:0.8000000000000002;"/></g><!--SRC=[bLF1Rjim3BthAuXUugnDiLs38O3HvH1WfoNTNR5PHuWY6HBRpJFsxvKSnx8jDsrri2toyVdnYPhPer0bD_m49wrqTZ3wX43c6Ld8b3mxyWAtL4a4WnbnLSW-m1vuhly8LS0JbxQVaK8XLIL2gMNbDsmsaTI6DEjLPP9Rcn8PiNyct6HQRSK_XA-CpIG-4P068ue3GIwy7A4LOqqDfDQAGlt6WyWaxdHQeChvMf6f7ZSr-_y-x46xfvOIJSrk2wJrgPIwGlo5fRQ2jAcIUPFOSNkCWYrZ54zVk91yx_xbgkmus5RPn6U1t6EBqlM5UVZLMJ7cCTPX-B0TdqhQ7RoSttVGA-Xyk7G7zNKIFfBQijbMvcx8whVrS1iSWRElgPHdrnj7rdypBEc7LlZ0LUPOyw6XtYg-5r9GDJB9dJtF-Hty59Q-j-ZLfMaxqMgav998val0zZkKHITQztNvempO3YJGEd9mQp48EhGFte9Zs2XBljTa3ii1A42Y4UioarFPPQUcqAlqQw1niLWDHIz1jB8SzDfTWllxrOTkqJMQW6heHafCtvEHy9jlDrwxUuscwqrOxDYRqCW-naOZV05_2RniOhwcO17v9AfZQmIrQI-2VSBFm3PUhm00]--></g></svg>