<?xml version="1.0" encoding="us-ascii" standalone="no"?><svg xmlns="http://www.w3.org/2000/svg" xmlns:xlink="http://www.w3.org/1999/xlink" contentStyleType="text/css" height="919.1px" preserveAspectRatio="none" style="width:826px;height:919px;background:#FFFFFF;" version="1.1" viewBox="0 0 826 919" width="826.7px" zoomAndPan="magnify"><defs/><g><!--class AssignVehicleToAgendaEntryUI--><g id="elem_AssignVehicleToAgendaEntryUI"><rect codeLine="11" fill="#F1F1F1" height="33.6" id="AssignVehicleToAgendaEntryUI" rx="1.75" ry="1.75" style="stroke:#181818;stroke-width:0.3499999999999999;" width="161.7" x="52.85" y="4.9"/><ellipse cx="63.35" cy="16.1" fill="#ADD1B2" rx="7.7" ry="7.7" style="stroke:#181818;stroke-width:0.6999999999999998;"/><path d="M65.2859,13.2125 Q65.3953,13.0594 65.5266,12.9828 Q65.6578,12.9062 65.8109,12.9062 Q66.0734,12.9062 66.2375,13.0922 Q66.4016,13.2672 66.4016,13.6937 L66.4016,14.7109 Q66.4016,15.1375 66.2375,15.3234 Q66.0734,15.5094 65.8109,15.5094 Q65.5703,15.5094 65.4281,15.3672 Q65.2859,15.2359 65.2094,14.875 Q65.1766,14.6234 65.0453,14.4922 Q64.8156,14.2297 64.3891,14.0766 Q63.9625,13.9234 63.525,13.9234 Q62.9891,13.9234 62.5406,14.1531 Q62.1031,14.3828 61.7531,14.9078 Q61.4141,15.4328 61.4141,16.1547 L61.4141,16.9203 Q61.4141,17.7844 62.0375,18.3641 Q62.6609,18.9328 63.7766,18.9328 Q64.4328,18.9328 64.8922,18.7578 Q65.1656,18.6484 65.4609,18.3422 Q65.6469,18.1562 65.7453,18.1016 Q65.8547,18.0469 65.9969,18.0469 Q66.2266,18.0469 66.4016,18.2328 Q66.5875,18.4078 66.5875,18.6484 Q66.5875,18.8891 66.3469,19.1734 Q65.9969,19.5781 65.4391,19.8078 Q64.6844,20.125 63.7766,20.125 Q62.7156,20.125 61.8734,19.6875 Q61.1844,19.3375 60.7031,18.5937 Q60.2219,17.8391 60.2219,16.9422 L60.2219,16.1328 Q60.2219,15.2031 60.6484,14.4047 Q61.0859,13.5953 61.8516,13.1687 Q62.6172,12.7312 63.4812,12.7312 Q63.9953,12.7312 64.4437,12.8516 Q64.9031,12.9609 65.2859,13.2125 Z " fill="#000000"/><text fill="#000000" font-family="sans-serif" font-size="9.8" lengthAdjust="spacing" textLength="139.3" x="73.15" y="20.1578">AssignVehicleToAgendaEntryUI</text><line style="stroke:#181818;stroke-width:0.3499999999999999;" x1="53.55" x2="213.85" y1="27.3" y2="27.3"/><line style="stroke:#181818;stroke-width:0.3499999999999999;" x1="53.55" x2="213.85" y1="32.9" y2="32.9"/></g><!--class AssignVehicleToAgendaEntryController--><g id="elem_AssignVehicleToAgendaEntryController"><rect codeLine="14" fill="#F1F1F1" height="124.8434" id="AssignVehicleToAgendaEntryController" rx="1.75" ry="1.75" style="stroke:#181818;stroke-width:0.3499999999999999;" width="257.6" x="4.9" y="81.2"/><ellipse cx="43.575" cy="92.4" fill="#ADD1B2" rx="7.7" ry="7.7" style="stroke:#181818;stroke-width:0.6999999999999998;"/><path d="M45.5109,89.5125 Q45.6203,89.3594 45.7516,89.2828 Q45.8828,89.2062 46.0359,89.2062 Q46.2984,89.2062 46.4625,89.3922 Q46.6266,89.5672 46.6266,89.9937 L46.6266,91.0109 Q46.6266,91.4375 46.4625,91.6234 Q46.2984,91.8094 46.0359,91.8094 Q45.7953,91.8094 45.6531,91.6672 Q45.5109,91.5359 45.4344,91.175 Q45.4016,90.9234 45.2703,90.7922 Q45.0406,90.5297 44.6141,90.3766 Q44.1875,90.2234 43.75,90.2234 Q43.2141,90.2234 42.7656,90.4531 Q42.3281,90.6828 41.9781,91.2078 Q41.6391,91.7328 41.6391,92.4547 L41.6391,93.2203 Q41.6391,94.0844 42.2625,94.6641 Q42.8859,95.2328 44.0016,95.2328 Q44.6578,95.2328 45.1172,95.0578 Q45.3906,94.9484 45.6859,94.6422 Q45.8719,94.4562 45.9703,94.4016 Q46.0797,94.3469 46.2219,94.3469 Q46.4516,94.3469 46.6266,94.5328 Q46.8125,94.7078 46.8125,94.9484 Q46.8125,95.1891 46.5719,95.4734 Q46.2219,95.8781 45.6641,96.1078 Q44.9094,96.425 44.0016,96.425 Q42.9406,96.425 42.0984,95.9875 Q41.4094,95.6375 40.9281,94.8937 Q40.4469,94.1391 40.4469,93.2422 L40.4469,92.4328 Q40.4469,91.5031 40.8734,90.7047 Q41.3109,89.8953 42.0766,89.4687 Q42.8422,89.0312 43.7062,89.0312 Q44.2203,89.0312 44.6687,89.1516 Q45.1281,89.2609 45.5109,89.5125 Z " fill="#000000"/><text fill="#000000" font-family="sans-serif" font-size="9.8" lengthAdjust="spacing" textLength="174.3" x="57.925" y="96.4578">AssignVehicleToAgendaEntryController</text><line style="stroke:#181818;stroke-width:0.3499999999999999;" x1="5.6" x2="261.8" y1="103.6" y2="103.6"/><line style="stroke:#181818;stroke-width:0.3499999999999999;" x1="5.6" x2="261.8" y1="109.2" y2="109.2"/><text fill="#000000" font-family="sans-serif" font-size="9.8" lengthAdjust="spacing" textLength="117.6" x="9.1" y="122.5752">+getEmployeeRepository()</text><text fill="#000000" font-family="sans-serif" font-size="9.8" lengthAdjust="spacing" textLength="95.9" x="9.1" y="135.61">+getTaskRepository()</text><text fill="#000000" font-family="sans-serif" font-size="9.8" lengthAdjust="spacing" textLength="106.4" x="9.1" y="148.6447">+getVehicleRepository()</text><text fill="#000000" font-family="sans-serif" font-size="9.8" lengthAdjust="spacing" textLength="147" x="9.1" y="161.6795">+getAvailableTasks(): List&lt;Task&gt;</text><text fill="#000000" font-family="sans-serif" font-size="9.8" lengthAdjust="spacing" textLength="249.2" x="9.1" y="174.7143">+getAvailableVehicles(Task taskSelected): List&lt;Vehicle&gt;</text><text fill="#000000" font-family="sans-serif" font-size="9.8" lengthAdjust="spacing" textLength="233.1" x="9.1" y="187.749">+getTaskAssignedVehicles(Task task): List&lt;Vehicle&gt;</text><text fill="#000000" font-family="sans-serif" font-size="9.8" lengthAdjust="spacing" textLength="245" x="9.1" y="200.7838">+assignVehicleToTask(Vehicle vehicle, Task task): void</text></g><!--class Employee--><g id="elem_Employee"><rect codeLine="24" fill="#F1F1F1" height="163.9477" id="Employee" rx="1.75" ry="1.75" style="stroke:#181818;stroke-width:0.3499999999999999;" width="331.8" x="300.3" y="504.7"/><ellipse cx="441.525" cy="515.9" fill="#ADD1B2" rx="7.7" ry="7.7" style="stroke:#181818;stroke-width:0.6999999999999998;"/><path d="M443.4609,513.0125 Q443.5703,512.8594 443.7016,512.7828 Q443.8328,512.7062 443.9859,512.7062 Q444.2484,512.7062 444.4125,512.8922 Q444.5766,513.0672 444.5766,513.4937 L444.5766,514.5109 Q444.5766,514.9375 444.4125,515.1234 Q444.2484,515.3094 443.9859,515.3094 Q443.7453,515.3094 443.6031,515.1672 Q443.4609,515.0359 443.3844,514.675 Q443.3516,514.4234 443.2203,514.2922 Q442.9906,514.0297 442.5641,513.8766 Q442.1375,513.7234 441.7,513.7234 Q441.1641,513.7234 440.7156,513.9531 Q440.2781,514.1828 439.9281,514.7078 Q439.5891,515.2328 439.5891,515.9547 L439.5891,516.7203 Q439.5891,517.5844 440.2125,518.1641 Q440.8359,518.7328 441.9516,518.7328 Q442.6078,518.7328 443.0672,518.5578 Q443.3406,518.4484 443.6359,518.1422 Q443.8219,517.9562 443.9203,517.9016 Q444.0297,517.8469 444.1719,517.8469 Q444.4016,517.8469 444.5766,518.0328 Q444.7625,518.2078 444.7625,518.4484 Q444.7625,518.6891 444.5219,518.9734 Q444.1719,519.3781 443.6141,519.6078 Q442.8594,519.925 441.9516,519.925 Q440.8906,519.925 440.0484,519.4875 Q439.3594,519.1375 438.8781,518.3937 Q438.3969,517.6391 438.3969,516.7422 L438.3969,515.9328 Q438.3969,515.0031 438.8234,514.2047 Q439.2609,513.3953 440.0266,512.9687 Q440.7922,512.5312 441.6562,512.5312 Q442.1703,512.5312 442.6187,512.6516 Q443.0781,512.7609 443.4609,513.0125 Z " fill="#000000"/><text fill="#000000" font-family="sans-serif" font-size="9.8" lengthAdjust="spacing" textLength="43.4" x="455.875" y="519.9578">Employee</text><line style="stroke:#181818;stroke-width:0.3499999999999999;" x1="301" x2="631.4" y1="527.1" y2="527.1"/><text fill="#000000" font-family="sans-serif" font-size="9.8" lengthAdjust="spacing" textLength="62.3" x="304.5" y="540.4752">-name : String</text><text fill="#000000" font-family="sans-serif" font-size="9.8" lengthAdjust="spacing" textLength="72.1" x="304.5" y="553.51">-birthdate : Date</text><text fill="#000000" font-family="sans-serif" font-size="9.8" lengthAdjust="spacing" textLength="60.9" x="304.5" y="566.5447">-email : String</text><text fill="#000000" font-family="sans-serif" font-size="9.8" lengthAdjust="spacing" textLength="84.7" x="304.5" y="579.5795">-phoneNumber : int</text><text fill="#000000" font-family="sans-serif" font-size="9.8" lengthAdjust="spacing" textLength="99.4" x="304.5" y="592.6143">-admission date : Date</text><text fill="#000000" font-family="sans-serif" font-size="9.8" lengthAdjust="spacing" textLength="109.9" x="304.5" y="605.649">-taxpayerNumber : String</text><text fill="#000000" font-family="sans-serif" font-size="9.8" lengthAdjust="spacing" textLength="73.5" x="304.5" y="618.6838">-address : String</text><text fill="#000000" font-family="sans-serif" font-size="9.8" lengthAdjust="spacing" textLength="88.2" x="304.5" y="631.7186">-docNumber : String</text><text fill="#000000" font-family="sans-serif" font-size="9.8" lengthAdjust="spacing" textLength="70" x="304.5" y="644.7533">-jobTitle : String</text><line style="stroke:#181818;stroke-width:0.3499999999999999;" x1="301" x2="631.4" y1="650.0129" y2="650.0129"/><text fill="#000000" font-family="sans-serif" font-size="9.8" lengthAdjust="spacing" textLength="323.4" x="304.5" y="663.3881">+assignVehicleToTask(Vehicle availableVehicle, Task selectedTask):void</text></g><!--class Task--><g id="elem_Task"><rect codeLine="37" fill="#F1F1F1" height="203.052" id="Task" rx="1.75" ry="1.75" style="stroke:#181818;stroke-width:0.3499999999999999;" width="153.3" x="389.55" y="711.2"/><ellipse cx="452.375" cy="722.4" fill="#ADD1B2" rx="7.7" ry="7.7" style="stroke:#181818;stroke-width:0.6999999999999998;"/><path d="M454.3109,719.5125 Q454.4203,719.3594 454.5516,719.2828 Q454.6828,719.2062 454.8359,719.2062 Q455.0984,719.2062 455.2625,719.3922 Q455.4266,719.5672 455.4266,719.9937 L455.4266,721.0109 Q455.4266,721.4375 455.2625,721.6234 Q455.0984,721.8094 454.8359,721.8094 Q454.5953,721.8094 454.4531,721.6672 Q454.3109,721.5359 454.2344,721.175 Q454.2016,720.9234 454.0703,720.7922 Q453.8406,720.5297 453.4141,720.3766 Q452.9875,720.2234 452.55,720.2234 Q452.0141,720.2234 451.5656,720.4531 Q451.1281,720.6828 450.7781,721.2078 Q450.4391,721.7328 450.4391,722.4547 L450.4391,723.2203 Q450.4391,724.0844 451.0625,724.6641 Q451.6859,725.2328 452.8016,725.2328 Q453.4578,725.2328 453.9172,725.0578 Q454.1906,724.9484 454.4859,724.6422 Q454.6719,724.4562 454.7703,724.4016 Q454.8797,724.3469 455.0219,724.3469 Q455.2516,724.3469 455.4266,724.5328 Q455.6125,724.7078 455.6125,724.9484 Q455.6125,725.1891 455.3719,725.4734 Q455.0219,725.8781 454.4641,726.1078 Q453.7094,726.425 452.8016,726.425 Q451.7406,726.425 450.8984,725.9875 Q450.2094,725.6375 449.7281,724.8937 Q449.2469,724.1391 449.2469,723.2422 L449.2469,722.4328 Q449.2469,721.5031 449.6734,720.7047 Q450.1109,719.8953 450.8766,719.4687 Q451.6422,719.0312 452.5062,719.0312 Q453.0203,719.0312 453.4687,719.1516 Q453.9281,719.2609 454.3109,719.5125 Z " fill="#000000"/><text fill="#000000" font-family="sans-serif" font-size="9.8" lengthAdjust="spacing" textLength="21.7" x="466.725" y="726.4578">Task</text><line style="stroke:#181818;stroke-width:0.3499999999999999;" x1="390.25" x2="542.15" y1="733.6" y2="733.6"/><text fill="#000000" font-family="sans-serif" font-size="9.8" lengthAdjust="spacing" textLength="50.4" x="393.75" y="746.9752">-title: String</text><text fill="#000000" font-family="sans-serif" font-size="9.8" lengthAdjust="spacing" textLength="83.3" x="393.75" y="760.01">-description: String</text><text fill="#000000" font-family="sans-serif" font-size="9.8" lengthAdjust="spacing" textLength="49.7" x="393.75" y="773.0447">-date: Date</text><text fill="#000000" font-family="sans-serif" font-size="9.8" lengthAdjust="spacing" textLength="127.4" x="393.75" y="786.0795">-taskStartPeriod: TaskPeriod</text><text fill="#000000" font-family="sans-serif" font-size="9.8" lengthAdjust="spacing" textLength="116.2" x="393.75" y="799.1143">-taskExpectedDuration: int</text><text fill="#000000" font-family="sans-serif" font-size="9.8" lengthAdjust="spacing" textLength="53.9" x="393.75" y="812.149">-type: String</text><text fill="#000000" font-family="sans-serif" font-size="9.8" lengthAdjust="spacing" textLength="119" x="393.75" y="825.1838">-greenSpace: GreenSpace</text><text fill="#000000" font-family="sans-serif" font-size="9.8" lengthAdjust="spacing" textLength="102.9" x="393.75" y="838.2186">-urgency: TaskUrgency</text><text fill="#000000" font-family="sans-serif" font-size="9.8" lengthAdjust="spacing" textLength="85.4" x="393.75" y="851.2533">-status: TaskStatus</text><text fill="#000000" font-family="sans-serif" font-size="9.8" lengthAdjust="spacing" textLength="99.4" x="393.75" y="864.2881">-assignedTeam: Team</text><text fill="#000000" font-family="sans-serif" font-size="9.8" lengthAdjust="spacing" textLength="144.9" x="393.75" y="877.3229">-assignedVehicles: List&lt;Vehicle&gt;</text><text fill="#000000" font-family="sans-serif" font-size="9.8" lengthAdjust="spacing" textLength="70.7" x="393.75" y="890.3576">-startDate: Date</text><text fill="#000000" font-family="sans-serif" font-size="9.8" lengthAdjust="spacing" textLength="119" x="393.75" y="903.3924">-taskPosition: TaskPosition</text><line style="stroke:#181818;stroke-width:0.3499999999999999;" x1="390.25" x2="542.15" y1="908.652" y2="908.652"/></g><!--class TaskRepository--><g id="elem_TaskRepository"><rect codeLine="53" fill="#F1F1F1" height="59.6695" id="TaskRepository" rx="1.75" ry="1.75" style="stroke:#181818;stroke-width:0.3499999999999999;" width="361.9" x="150.85" y="402.5"/><ellipse cx="294.175" cy="413.7" fill="#ADD1B2" rx="7.7" ry="7.7" style="stroke:#181818;stroke-width:0.6999999999999998;"/><path d="M296.1109,410.8125 Q296.2203,410.6594 296.3516,410.5828 Q296.4828,410.5062 296.6359,410.5062 Q296.8984,410.5062 297.0625,410.6922 Q297.2266,410.8672 297.2266,411.2937 L297.2266,412.3109 Q297.2266,412.7375 297.0625,412.9234 Q296.8984,413.1094 296.6359,413.1094 Q296.3953,413.1094 296.2531,412.9672 Q296.1109,412.8359 296.0344,412.475 Q296.0016,412.2234 295.8703,412.0922 Q295.6406,411.8297 295.2141,411.6766 Q294.7875,411.5234 294.35,411.5234 Q293.8141,411.5234 293.3656,411.7531 Q292.9281,411.9828 292.5781,412.5078 Q292.2391,413.0328 292.2391,413.7547 L292.2391,414.5203 Q292.2391,415.3844 292.8625,415.9641 Q293.4859,416.5328 294.6016,416.5328 Q295.2578,416.5328 295.7172,416.3578 Q295.9906,416.2484 296.2859,415.9422 Q296.4719,415.7562 296.5703,415.7016 Q296.6797,415.6469 296.8219,415.6469 Q297.0516,415.6469 297.2266,415.8328 Q297.4125,416.0078 297.4125,416.2484 Q297.4125,416.4891 297.1719,416.7734 Q296.8219,417.1781 296.2641,417.4078 Q295.5094,417.725 294.6016,417.725 Q293.5406,417.725 292.6984,417.2875 Q292.0094,416.9375 291.5281,416.1937 Q291.0469,415.4391 291.0469,414.5422 L291.0469,413.7328 Q291.0469,412.8031 291.4734,412.0047 Q291.9109,411.1953 292.6766,410.7687 Q293.4422,410.3312 294.3062,410.3312 Q294.8203,410.3312 295.2687,410.4516 Q295.7281,410.5609 296.1109,410.8125 Z " fill="#000000"/><text fill="#000000" font-family="sans-serif" font-size="9.8" lengthAdjust="spacing" textLength="69.3" x="308.525" y="417.7578">TaskRepository</text><line style="stroke:#181818;stroke-width:0.3499999999999999;" x1="151.55" x2="512.05" y1="424.9" y2="424.9"/><line style="stroke:#181818;stroke-width:0.3499999999999999;" x1="151.55" x2="512.05" y1="430.5" y2="430.5"/><text fill="#000000" font-family="sans-serif" font-size="9.8" lengthAdjust="spacing" textLength="247.1" x="155.05" y="443.8752">+getAllAgendaTasksExceptDoneCanceled(): List&lt;Task&gt;</text><text fill="#000000" font-family="sans-serif" font-size="9.8" lengthAdjust="spacing" textLength="353.5" x="155.05" y="456.91">+getVehicleAvaiability(Task selectedTask, List&lt;Vehicle&gt; vehicles): List&lt;Vehicle&gt;</text></g><!--class EmployeeRepository--><g id="elem_EmployeeRepository"><rect codeLine="58" fill="#F1F1F1" height="46.6348" id="EmployeeRepository" rx="1.75" ry="1.75" style="stroke:#181818;stroke-width:0.3499999999999999;" width="126.7" x="537.25" y="408.8"/><ellipse cx="553.735" cy="420" fill="#ADD1B2" rx="7.7" ry="7.7" style="stroke:#181818;stroke-width:0.6999999999999998;"/><path d="M555.6709,417.1125 Q555.7803,416.9594 555.9116,416.8828 Q556.0428,416.8062 556.1959,416.8062 Q556.4584,416.8062 556.6225,416.9922 Q556.7866,417.1672 556.7866,417.5937 L556.7866,418.6109 Q556.7866,419.0375 556.6225,419.2234 Q556.4584,419.4094 556.1959,419.4094 Q555.9553,419.4094 555.8131,419.2672 Q555.6709,419.1359 555.5944,418.775 Q555.5616,418.5234 555.4303,418.3922 Q555.2006,418.1297 554.7741,417.9766 Q554.3475,417.8234 553.91,417.8234 Q553.3741,417.8234 552.9256,418.0531 Q552.4881,418.2828 552.1381,418.8078 Q551.7991,419.3328 551.7991,420.0547 L551.7991,420.8203 Q551.7991,421.6844 552.4225,422.2641 Q553.0459,422.8328 554.1616,422.8328 Q554.8178,422.8328 555.2772,422.6578 Q555.5506,422.5484 555.8459,422.2422 Q556.0319,422.0562 556.1303,422.0016 Q556.2397,421.9469 556.3819,421.9469 Q556.6116,421.9469 556.7866,422.1328 Q556.9725,422.3078 556.9725,422.5484 Q556.9725,422.7891 556.7319,423.0734 Q556.3819,423.4781 555.8241,423.7078 Q555.0694,424.025 554.1616,424.025 Q553.1006,424.025 552.2584,423.5875 Q551.5694,423.2375 551.0881,422.4937 Q550.6069,421.7391 550.6069,420.8422 L550.6069,420.0328 Q550.6069,419.1031 551.0334,418.3047 Q551.4709,417.4953 552.2366,417.0687 Q553.0022,416.6312 553.8662,416.6312 Q554.3803,416.6312 554.8287,416.7516 Q555.2881,416.8609 555.6709,417.1125 Z " fill="#000000"/><text fill="#000000" font-family="sans-serif" font-size="9.8" lengthAdjust="spacing" textLength="91" x="564.865" y="424.0578">EmployeeRepository</text><line style="stroke:#181818;stroke-width:0.3499999999999999;" x1="537.95" x2="663.25" y1="431.2" y2="431.2"/><line style="stroke:#181818;stroke-width:0.3499999999999999;" x1="537.95" x2="663.25" y1="436.8" y2="436.8"/><text fill="#000000" font-family="sans-serif" font-size="9.8" lengthAdjust="spacing" textLength="118.3" x="541.45" y="450.1752">+getEmployee(): employee</text></g><!--class VehicleRepository--><g id="elem_VehicleRepository"><rect codeLine="62" fill="#F1F1F1" height="46.6348" id="VehicleRepository" rx="1.75" ry="1.75" style="stroke:#181818;stroke-width:0.3499999999999999;" width="133.7" x="688.45" y="408.8"/><ellipse cx="713.125" cy="420" fill="#ADD1B2" rx="7.7" ry="7.7" style="stroke:#181818;stroke-width:0.6999999999999998;"/><path d="M715.0609,417.1125 Q715.1703,416.9594 715.3016,416.8828 Q715.4328,416.8062 715.5859,416.8062 Q715.8484,416.8062 716.0125,416.9922 Q716.1766,417.1672 716.1766,417.5937 L716.1766,418.6109 Q716.1766,419.0375 716.0125,419.2234 Q715.8484,419.4094 715.5859,419.4094 Q715.3453,419.4094 715.2031,419.2672 Q715.0609,419.1359 714.9844,418.775 Q714.9516,418.5234 714.8203,418.3922 Q714.5906,418.1297 714.1641,417.9766 Q713.7375,417.8234 713.3,417.8234 Q712.7641,417.8234 712.3156,418.0531 Q711.8781,418.2828 711.5281,418.8078 Q711.1891,419.3328 711.1891,420.0547 L711.1891,420.8203 Q711.1891,421.6844 711.8125,422.2641 Q712.4359,422.8328 713.5516,422.8328 Q714.2078,422.8328 714.6672,422.6578 Q714.9406,422.5484 715.2359,422.2422 Q715.4219,422.0562 715.5203,422.0016 Q715.6297,421.9469 715.7719,421.9469 Q716.0016,421.9469 716.1766,422.1328 Q716.3625,422.3078 716.3625,422.5484 Q716.3625,422.7891 716.1219,423.0734 Q715.7719,423.4781 715.2141,423.7078 Q714.4594,424.025 713.5516,424.025 Q712.4906,424.025 711.6484,423.5875 Q710.9594,423.2375 710.4781,422.4937 Q709.9969,421.7391 709.9969,420.8422 L709.9969,420.0328 Q709.9969,419.1031 710.4234,418.3047 Q710.8609,417.4953 711.6266,417.0687 Q712.3922,416.6312 713.2562,416.6312 Q713.7703,416.6312 714.2187,416.7516 Q714.6781,416.8609 715.0609,417.1125 Z " fill="#000000"/><text fill="#000000" font-family="sans-serif" font-size="9.8" lengthAdjust="spacing" textLength="79.8" x="726.075" y="424.0578">VehicleRepository</text><line style="stroke:#181818;stroke-width:0.3499999999999999;" x1="689.15" x2="821.45" y1="431.2" y2="431.2"/><line style="stroke:#181818;stroke-width:0.3499999999999999;" x1="689.15" x2="821.45" y1="436.8" y2="436.8"/><text fill="#000000" font-family="sans-serif" font-size="9.8" lengthAdjust="spacing" textLength="125.3" x="692.65" y="450.1752">+getVehicles():List&lt;Vehicle&gt;</text></g><!--class Repositories--><g id="elem_Repositories"><rect codeLine="67" fill="#F1F1F1" height="98.7738" id="Repositories" rx="1.75" ry="1.75" style="stroke:#181818;stroke-width:0.3499999999999999;" width="135.8" x="398.3" y="261.1"/><ellipse cx="435.575" cy="272.3" fill="#ADD1B2" rx="7.7" ry="7.7" style="stroke:#181818;stroke-width:0.6999999999999998;"/><path d="M437.5109,269.4125 Q437.6203,269.2594 437.7516,269.1828 Q437.8828,269.1062 438.0359,269.1062 Q438.2984,269.1062 438.4625,269.2922 Q438.6266,269.4672 438.6266,269.8937 L438.6266,270.9109 Q438.6266,271.3375 438.4625,271.5234 Q438.2984,271.7094 438.0359,271.7094 Q437.7953,271.7094 437.6531,271.5672 Q437.5109,271.4359 437.4344,271.075 Q437.4016,270.8234 437.2703,270.6922 Q437.0406,270.4297 436.6141,270.2766 Q436.1875,270.1234 435.75,270.1234 Q435.2141,270.1234 434.7656,270.3531 Q434.3281,270.5828 433.9781,271.1078 Q433.6391,271.6328 433.6391,272.3547 L433.6391,273.1203 Q433.6391,273.9844 434.2625,274.5641 Q434.8859,275.1328 436.0016,275.1328 Q436.6578,275.1328 437.1172,274.9578 Q437.3906,274.8484 437.6859,274.5422 Q437.8719,274.3562 437.9703,274.3016 Q438.0797,274.2469 438.2219,274.2469 Q438.4516,274.2469 438.6266,274.4328 Q438.8125,274.6078 438.8125,274.8484 Q438.8125,275.0891 438.5719,275.3734 Q438.2219,275.7781 437.6641,276.0078 Q436.9094,276.325 436.0016,276.325 Q434.9406,276.325 434.0984,275.8875 Q433.4094,275.5375 432.9281,274.7937 Q432.4469,274.0391 432.4469,273.1422 L432.4469,272.3328 Q432.4469,271.4031 432.8734,270.6047 Q433.3109,269.7953 434.0766,269.3687 Q434.8422,268.9312 435.7062,268.9312 Q436.2203,268.9312 436.6687,269.0516 Q437.1281,269.1609 437.5109,269.4125 Z " fill="#000000"/><text fill="#000000" font-family="sans-serif" font-size="9.8" lengthAdjust="spacing" textLength="55.3" x="449.925" y="276.3578">Repositories</text><line style="stroke:#181818;stroke-width:0.3499999999999999;" x1="399" x2="533.4" y1="283.5" y2="283.5"/><line style="stroke:#181818;stroke-width:0.3499999999999999;" x1="399" x2="533.4" y1="289.1" y2="289.1"/><text fill="#000000" font-family="sans-serif" font-size="9.8" lengthAdjust="spacing" textLength="65.8" x="402.5" y="302.4752">-Repositories()</text><text fill="#000000" font-family="sans-serif" font-size="9.8" lengthAdjust="spacing" textLength="127.4" x="402.5" y="315.51">+getInstance() : Repositories</text><text fill="#000000" font-family="sans-serif" font-size="9.8" lengthAdjust="spacing" textLength="95.9" x="402.5" y="328.5447">+getTaskRepository()</text><text fill="#000000" font-family="sans-serif" font-size="9.8" lengthAdjust="spacing" textLength="117.6" x="402.5" y="341.5795">+getEmployeeRepository()</text><text fill="#000000" font-family="sans-serif" font-size="9.8" lengthAdjust="spacing" textLength="106.4" x="402.5" y="354.6143">+getVehicleRepository()</text></g><!--link Repositories to Repositories--><g id="link_Repositories_Repositories"><path codeLine="80" d="M534.296,297.787 C548.436,299.117 558.6,303.338 558.6,310.45 C558.6,317.562 552.6175,321.3897 538.4775,322.7197 " fill="none" id="Repositories-to-Repositories" style="stroke:#181818;stroke-width:0.6999999999999998;"/><polygon fill="#181818" points="534.296,323.113,540.8305,325.3107,537.7806,322.7852,540.3061,319.7353,534.296,323.113" style="stroke:#181818;stroke-width:0.6999999999999998;"/><text fill="#000000" font-family="sans-serif" font-size="9.1" lengthAdjust="spacing" textLength="34.3" x="562.8" y="314.3198">instance</text></g><!--link AssignVehicleToAgendaEntryUI to AssignVehicleToAgendaEntryController--><g id="link_AssignVehicleToAgendaEntryUI_AssignVehicleToAgendaEntryController"><path codeLine="83" d="M133.7,38.64 C133.7,49.805 133.7,61.215 133.7,76.951 " fill="none" id="AssignVehicleToAgendaEntryUI-to-AssignVehicleToAgendaEntryController" style="stroke:#181818;stroke-width:0.6999999999999998;stroke-dasharray:7.0,7.0;"/><polygon fill="#181818" points="133.7,81.151,136.5,74.851,133.7,77.651,130.9,74.851,133.7,81.151" style="stroke:#181818;stroke-width:0.6999999999999998;"/></g><!--link AssignVehicleToAgendaEntryController to Repositories--><g id="link_AssignVehicleToAgendaEntryController_Repositories"><path codeLine="85" d="M257.509,205.842 C305.144,229.565 354.0033,253.8869 394.4913,274.0469 " fill="none" id="AssignVehicleToAgendaEntryController-to-Repositories" style="stroke:#181818;stroke-width:0.6999999999999998;stroke-dasharray:7.0,7.0;"/><polygon fill="#181818" points="398.251,275.919,393.8595,270.6044,395.1179,274.359,391.3634,275.6174,398.251,275.919" style="stroke:#181818;stroke-width:0.6999999999999998;"/><text fill="#000000" font-family="sans-serif" font-size="9.1" lengthAdjust="spacing" textLength="46.9" x="319.9" y="237.3198">repositories</text></g><!--link Repositories to TaskRepository--><g id="link_Repositories_TaskRepository"><path codeLine="88" d="M411.726,359.947 C395.647,374.353 381.6884,386.8597 367.4504,399.6137 " fill="none" id="Repositories-to-TaskRepository" style="stroke:#181818;stroke-width:0.6999999999999998;"/><polygon fill="#181818" points="364.322,402.416,370.8828,400.2981,366.929,400.0807,367.1464,396.1269,364.322,402.416" style="stroke:#181818;stroke-width:0.6999999999999998;"/><text fill="#000000" font-family="sans-serif" font-size="9.1" lengthAdjust="spacing" textLength="4.9" x="401.2225" y="375.2313">1</text><text fill="#000000" font-family="sans-serif" font-size="9.1" lengthAdjust="spacing" textLength="4.9" x="364.2147" y="394.6355">1</text></g><!--link Repositories to EmployeeRepository--><g id="link_Repositories_EmployeeRepository"><path codeLine="89" d="M520.674,359.947 C539.518,376.831 556.6197,392.1515 572.0127,405.9415 " fill="none" id="Repositories-to-EmployeeRepository" style="stroke:#181818;stroke-width:0.6999999999999998;"/><polygon fill="#181818" points="575.141,408.744,572.3169,402.4548,572.5341,406.4086,568.5803,406.6258,575.141,408.744" style="stroke:#181818;stroke-width:0.6999999999999998;"/><text fill="#000000" font-family="sans-serif" font-size="9.1" lengthAdjust="spacing" textLength="4.9" x="520.8951" y="375.2313">1</text><text fill="#000000" font-family="sans-serif" font-size="9.1" lengthAdjust="spacing" textLength="4.9" x="564.7464" y="400.9108">1</text></g><!--link Repositories to VehicleRepository--><g id="link_Repositories_VehicleRepository"><path codeLine="90" d="M534.163,339.458 C584.906,360.584 649.4747,387.4804 696.7107,407.1504 " fill="none" id="Repositories-to-VehicleRepository" style="stroke:#181818;stroke-width:0.6999999999999998;"/><polygon fill="#181818" points="700.588,408.765,695.8485,403.7583,697.3569,407.4195,693.6957,408.928,700.588,408.765" style="stroke:#181818;stroke-width:0.6999999999999998;"/><text fill="#000000" font-family="sans-serif" font-size="9.1" lengthAdjust="spacing" textLength="4.9" x="539.774" y="339.2204">1</text><text fill="#000000" font-family="sans-serif" font-size="9.1" lengthAdjust="spacing" textLength="4.9" x="684.4342" y="400.936">1</text></g><!--link TaskRepository to Employee--><g id="link_TaskRepository_Employee"><path codeLine="92" d="M357.399,462.077 C368.214,474.383 378.6223,486.2363 392.0343,501.4963 " fill="none" id="TaskRepository-to-Employee" style="stroke:#181818;stroke-width:0.6999999999999998;"/><polygon fill="#181818" points="394.807,504.651,392.7511,498.0705,392.4964,502.0221,388.5448,501.7674,394.807,504.651" style="stroke:#181818;stroke-width:0.6999999999999998;"/><text fill="#000000" font-family="sans-serif" font-size="9.1" lengthAdjust="spacing" textLength="4.9" x="356.1884" y="477.6015">1</text><text fill="#000000" font-family="sans-serif" font-size="9.1" lengthAdjust="spacing" textLength="3.5" x="386.6213" y="496.9416">*</text></g><!--link EmployeeRepository to Employee--><g id="link_EmployeeRepository_Employee"><path codeLine="93" d="M580.482,455.847 C568.834,469.098 556.1787,483.5063 540.4287,501.4263 " fill="none" id="EmployeeRepository-to-Employee" style="stroke:#181818;stroke-width:0.6999999999999998;"/><polygon fill="#181818" points="537.656,504.581,543.9182,501.6974,539.9666,501.9521,539.7119,498.0005,537.656,504.581" style="stroke:#181818;stroke-width:0.6999999999999998;"/><text fill="#000000" font-family="sans-serif" font-size="9.1" lengthAdjust="spacing" textLength="4.9" x="571.7031" y="470.7855">1</text><text fill="#000000" font-family="sans-serif" font-size="9.1" lengthAdjust="spacing" textLength="3.5" x="538.6215" y="496.8671">*</text></g><!--link VehicleRepository to Employee--><g id="link_VehicleRepository_Employee"><path codeLine="94" d="M712.019,455.847 C686.973,469.098 657.4915,484.697 623.6185,502.617 " fill="none" id="VehicleRepository-to-Employee" style="stroke:#181818;stroke-width:0.6999999999999998;"/><polygon fill="#181818" points="619.906,504.581,626.7841,504.1099,622.9997,502.9443,624.1654,499.16,619.906,504.581" style="stroke:#181818;stroke-width:0.6999999999999998;"/><text fill="#000000" font-family="sans-serif" font-size="9.1" lengthAdjust="spacing" textLength="4.9" x="699.259" y="470.7855">1</text><text fill="#000000" font-family="sans-serif" font-size="9.1" lengthAdjust="spacing" textLength="3.5" x="626.1407" y="496.8671">*</text></g><!--link Employee to Task--><g id="link_Employee_Task"><path codeLine="96" d="M466.2,668.738 C466.2,682.493 466.2,692.713 466.2,706.895 " fill="none" id="Employee-to-Task" style="stroke:#181818;stroke-width:0.6999999999999998;"/><polygon fill="#181818" points="466.2,711.095,469,704.795,466.2,707.595,463.4,704.795,466.2,711.095" style="stroke:#181818;stroke-width:0.6999999999999998;"/><text fill="#000000" font-family="sans-serif" font-size="9.1" lengthAdjust="spacing" textLength="4.9" x="461.143" y="684.2028">1</text><text fill="#000000" font-family="sans-serif" font-size="9.1" lengthAdjust="spacing" textLength="3.5" x="462.6098" y="703.4729">*</text></g><!--link AssignVehicleToAgendaEntryController to Employee--><g id="link_AssignVehicleToAgendaEntryController_Employee"><path codeLine="99" d="M134.652,205.849 C136.073,298.27 138.6,462 138.6,462 C138.6,462 215.1365,490.9506 296.3155,521.6456 " fill="none" id="AssignVehicleToAgendaEntryController-to-Employee" style="stroke:#181818;stroke-width:0.6999999999999998;stroke-dasharray:7.0,7.0;"/><polygon fill="#181818" points="300.244,523.131,295.3415,518.2838,296.9702,521.8931,293.3609,523.5219,300.244,523.131" style="stroke:#181818;stroke-width:0.6999999999999998;"/></g><!--SRC=[bLHDRzim3BthLmYzD5sROhiMGu2W2OO2mr0iwUwApJfQPScGcAnUiFy-olAtt7JpGPR8H-gH8ddfNgGkX1KvpuqsoTwQ73ZQ0x1EKuZaHMImmL81jv2Wq9dg0znUfEQNr1b_5ihrDKfgmB80NXXL-WExd50QYuRrh18bd5iYMhax83maHc_aR-0V6RjKy8mS3RSosoDFfQSZZMQiik5BvsIcVy1U9WgsPfc1JiLQeosV7axip_kmUqEhKGhiYLrdWEkyKAO4-0w5SHADBMTNbM8ht4iah3r6ykLHI2LsT1TPkTdL7Vyg7NxsfyKGK7jmCw_ZICi65CK8QMDK8nOjYn0CfB5fR2A6WNlah3xnO_ZVyBxzqSYqorkJ3NvYdBwv5bGjTtn3BwMp8Df9Y_jKe9Ulw1Uaa5Dy8sInDng-7V8TMD98ZK4iqbmIIwDvv0N5Qo5AiArHtvr8Kml4SIXDJJA9_cbsMucgn_viRiJeVUeakVfjjbMoXhdoiXERexzbn0bSOcNXwtQae4Y7yTBpex3u25QQzAxo6VOTOFrQL1nM1ok2opQLlhc6DsGMG6-eeKd-fTq7tS5I6oHbkEKf78B6eS232ufDjQzJNbVU5aHEMbg7ygOYnsNOEBMuceZuqVTE5SYsTnecjkim7lfqgLJeugh3rgy95BYY-heNEg57IYTwhgRZMq_if99Opg97lHaoRth4HPqLjKZ4i55u9b3lExDeSfpw7Ft86DxNMROc4bpJbmCXpI0llERaxq5JsYaZioig_3weWqI3hTLCpi9MEpNxF4l_3JZEvuiXQL-nWHP1pqrmVdkx-AVPVSvDXwhSZPZOVav6n2y-NNZkz1lLu9kmE6DlGgFqCJOgz0RyeVFB9gfj2XOvdqIrtYf2jTgJOF-HpyxR-FiB]--></g></svg>