<?xml version="1.0" encoding="us-ascii" standalone="no"?><svg xmlns="http://www.w3.org/2000/svg" xmlns:xlink="http://www.w3.org/1999/xlink" contentStyleType="text/css" height="737px" preserveAspectRatio="none" style="width:688px;height:737px;background:#FFFFFF;" version="1.1" viewBox="0 0 688 737" width="688px" zoomAndPan="magnify"><defs/><g><!--class AssignVehicleToAgendaEntryUI--><g id="elem_AssignVehicleToAgendaEntryUI"><rect codeLine="11" fill="#F1F1F1" height="48" id="AssignVehicleToAgendaEntryUI" rx="2.5" ry="2.5" style="stroke:#181818;stroke-width:0.5;" width="231" x="32" y="7"/><ellipse cx="47" cy="23" fill="#ADD1B2" rx="11" ry="11" style="stroke:#181818;stroke-width:1.0;"/><path d="M49.7656,18.875 Q49.9219,18.6563 50.1094,18.5469 Q50.2969,18.4375 50.5156,18.4375 Q50.8906,18.4375 51.125,18.7031 Q51.3594,18.9531 51.3594,19.5625 L51.3594,21.0156 Q51.3594,21.625 51.125,21.8906 Q50.8906,22.1563 50.5156,22.1563 Q50.1719,22.1563 49.9688,21.9531 Q49.7656,21.7656 49.6563,21.25 Q49.6094,20.8906 49.4219,20.7031 Q49.0938,20.3281 48.4844,20.1094 Q47.875,19.8906 47.25,19.8906 Q46.4844,19.8906 45.8438,20.2188 Q45.2188,20.5469 44.7188,21.2969 Q44.2344,22.0469 44.2344,23.0781 L44.2344,24.1719 Q44.2344,25.4063 45.125,26.2344 Q46.0156,27.0469 47.6094,27.0469 Q48.5469,27.0469 49.2031,26.7969 Q49.5938,26.6406 50.0156,26.2031 Q50.2813,25.9375 50.4219,25.8594 Q50.5781,25.7813 50.7813,25.7813 Q51.1094,25.7813 51.3594,26.0469 Q51.625,26.2969 51.625,26.6406 Q51.625,26.9844 51.2813,27.3906 Q50.7813,27.9688 49.9844,28.2969 Q48.9063,28.75 47.6094,28.75 Q46.0938,28.75 44.8906,28.125 Q43.9063,27.625 43.2188,26.5625 Q42.5313,25.4844 42.5313,24.2031 L42.5313,23.0469 Q42.5313,21.7188 43.1406,20.5781 Q43.7656,19.4219 44.8594,18.8125 Q45.9531,18.1875 47.1875,18.1875 Q47.9219,18.1875 48.5625,18.3594 Q49.2188,18.5156 49.7656,18.875 Z " fill="#000000"/><text fill="#000000" font-family="sans-serif" font-size="14" lengthAdjust="spacing" textLength="199" x="61" y="28.7969">AssignVehicleToAgendaEntryUI</text><line style="stroke:#181818;stroke-width:0.5;" x1="33" x2="262" y1="39" y2="39"/><line style="stroke:#181818;stroke-width:0.5;" x1="33" x2="262" y1="47" y2="47"/></g><!--class AssignVehicleToAgendaEntryController--><g id="elem_AssignVehicleToAgendaEntryController"><rect codeLine="14" fill="#F1F1F1" height="48" id="AssignVehicleToAgendaEntryController" rx="2.5" ry="2.5" style="stroke:#181818;stroke-width:0.5;" width="281" x="7" y="116"/><ellipse cx="22" cy="132" fill="#ADD1B2" rx="11" ry="11" style="stroke:#181818;stroke-width:1.0;"/><path d="M24.7656,127.875 Q24.9219,127.6563 25.1094,127.5469 Q25.2969,127.4375 25.5156,127.4375 Q25.8906,127.4375 26.125,127.7031 Q26.3594,127.9531 26.3594,128.5625 L26.3594,130.0156 Q26.3594,130.625 26.125,130.8906 Q25.8906,131.1563 25.5156,131.1563 Q25.1719,131.1563 24.9688,130.9531 Q24.7656,130.7656 24.6563,130.25 Q24.6094,129.8906 24.4219,129.7031 Q24.0938,129.3281 23.4844,129.1094 Q22.875,128.8906 22.25,128.8906 Q21.4844,128.8906 20.8438,129.2188 Q20.2188,129.5469 19.7188,130.2969 Q19.2344,131.0469 19.2344,132.0781 L19.2344,133.1719 Q19.2344,134.4063 20.125,135.2344 Q21.0156,136.0469 22.6094,136.0469 Q23.5469,136.0469 24.2031,135.7969 Q24.5938,135.6406 25.0156,135.2031 Q25.2813,134.9375 25.4219,134.8594 Q25.5781,134.7813 25.7813,134.7813 Q26.1094,134.7813 26.3594,135.0469 Q26.625,135.2969 26.625,135.6406 Q26.625,135.9844 26.2813,136.3906 Q25.7813,136.9688 24.9844,137.2969 Q23.9063,137.75 22.6094,137.75 Q21.0938,137.75 19.8906,137.125 Q18.9063,136.625 18.2188,135.5625 Q17.5313,134.4844 17.5313,133.2031 L17.5313,132.0469 Q17.5313,130.7188 18.1406,129.5781 Q18.7656,128.4219 19.8594,127.8125 Q20.9531,127.1875 22.1875,127.1875 Q22.9219,127.1875 23.5625,127.3594 Q24.2188,127.5156 24.7656,127.875 Z " fill="#000000"/><text fill="#000000" font-family="sans-serif" font-size="14" lengthAdjust="spacing" textLength="249" x="36" y="137.7969">AssignVehicleToAgendaEntryController</text><line style="stroke:#181818;stroke-width:0.5;" x1="8" x2="287" y1="148" y2="148"/><line style="stroke:#181818;stroke-width:0.5;" x1="8" x2="287" y1="156" y2="156"/></g><!--class Employee--><g id="elem_Employee"><rect codeLine="17" fill="#F1F1F1" height="66.6211" id="Employee" rx="2.5" ry="2.5" style="stroke:#181818;stroke-width:0.5;" width="165" x="245" y="554"/><ellipse cx="292.25" cy="570" fill="#ADD1B2" rx="11" ry="11" style="stroke:#181818;stroke-width:1.0;"/><path d="M295.0156,565.875 Q295.1719,565.6563 295.3594,565.5469 Q295.5469,565.4375 295.7656,565.4375 Q296.1406,565.4375 296.375,565.7031 Q296.6094,565.9531 296.6094,566.5625 L296.6094,568.0156 Q296.6094,568.625 296.375,568.8906 Q296.1406,569.1563 295.7656,569.1563 Q295.4219,569.1563 295.2188,568.9531 Q295.0156,568.7656 294.9063,568.25 Q294.8594,567.8906 294.6719,567.7031 Q294.3438,567.3281 293.7344,567.1094 Q293.125,566.8906 292.5,566.8906 Q291.7344,566.8906 291.0938,567.2188 Q290.4688,567.5469 289.9688,568.2969 Q289.4844,569.0469 289.4844,570.0781 L289.4844,571.1719 Q289.4844,572.4063 290.375,573.2344 Q291.2656,574.0469 292.8594,574.0469 Q293.7969,574.0469 294.4531,573.7969 Q294.8438,573.6406 295.2656,573.2031 Q295.5313,572.9375 295.6719,572.8594 Q295.8281,572.7813 296.0313,572.7813 Q296.3594,572.7813 296.6094,573.0469 Q296.875,573.2969 296.875,573.6406 Q296.875,573.9844 296.5313,574.3906 Q296.0313,574.9688 295.2344,575.2969 Q294.1563,575.75 292.8594,575.75 Q291.3438,575.75 290.1406,575.125 Q289.1563,574.625 288.4688,573.5625 Q287.7813,572.4844 287.7813,571.2031 L287.7813,570.0469 Q287.7813,568.7188 288.3906,567.5781 Q289.0156,566.4219 290.1094,565.8125 Q291.2031,565.1875 292.4375,565.1875 Q293.1719,565.1875 293.8125,565.3594 Q294.4688,565.5156 295.0156,565.875 Z " fill="#000000"/><text fill="#000000" font-family="sans-serif" font-size="14" lengthAdjust="spacing" textLength="62" x="312.75" y="575.7969">Employee</text><line style="stroke:#181818;stroke-width:0.5;" x1="246" x2="409" y1="586" y2="586"/><line style="stroke:#181818;stroke-width:0.5;" x1="246" x2="409" y1="594" y2="594"/><text fill="#000000" font-family="sans-serif" font-size="14" lengthAdjust="spacing" textLength="153" x="251" y="613.1074">+assignVehicleToTask()</text></g><!--class Task--><g id="elem_Task"><rect codeLine="21" fill="#F1F1F1" height="48" id="Task" rx="2.5" ry="2.5" style="stroke:#181818;stroke-width:0.5;" width="63" x="296" y="682"/><ellipse cx="311" cy="698" fill="#ADD1B2" rx="11" ry="11" style="stroke:#181818;stroke-width:1.0;"/><path d="M313.7656,693.875 Q313.9219,693.6563 314.1094,693.5469 Q314.2969,693.4375 314.5156,693.4375 Q314.8906,693.4375 315.125,693.7031 Q315.3594,693.9531 315.3594,694.5625 L315.3594,696.0156 Q315.3594,696.625 315.125,696.8906 Q314.8906,697.1563 314.5156,697.1563 Q314.1719,697.1563 313.9688,696.9531 Q313.7656,696.7656 313.6563,696.25 Q313.6094,695.8906 313.4219,695.7031 Q313.0938,695.3281 312.4844,695.1094 Q311.875,694.8906 311.25,694.8906 Q310.4844,694.8906 309.8438,695.2188 Q309.2188,695.5469 308.7188,696.2969 Q308.2344,697.0469 308.2344,698.0781 L308.2344,699.1719 Q308.2344,700.4063 309.125,701.2344 Q310.0156,702.0469 311.6094,702.0469 Q312.5469,702.0469 313.2031,701.7969 Q313.5938,701.6406 314.0156,701.2031 Q314.2813,700.9375 314.4219,700.8594 Q314.5781,700.7813 314.7813,700.7813 Q315.1094,700.7813 315.3594,701.0469 Q315.625,701.2969 315.625,701.6406 Q315.625,701.9844 315.2813,702.3906 Q314.7813,702.9688 313.9844,703.2969 Q312.9063,703.75 311.6094,703.75 Q310.0938,703.75 308.8906,703.125 Q307.9063,702.625 307.2188,701.5625 Q306.5313,700.4844 306.5313,699.2031 L306.5313,698.0469 Q306.5313,696.7188 307.1406,695.5781 Q307.7656,694.4219 308.8594,693.8125 Q309.9531,693.1875 311.1875,693.1875 Q311.9219,693.1875 312.5625,693.3594 Q313.2188,693.5156 313.7656,693.875 Z " fill="#000000"/><text fill="#000000" font-family="sans-serif" font-size="14" lengthAdjust="spacing" textLength="31" x="325" y="703.7969">Task</text><line style="stroke:#181818;stroke-width:0.5;" x1="297" x2="358" y1="714" y2="714"/><line style="stroke:#181818;stroke-width:0.5;" x1="297" x2="358" y1="722" y2="722"/></g><!--class TaskRepository--><g id="elem_TaskRepository"><rect codeLine="24" fill="#F1F1F1" height="48" id="TaskRepository" rx="2.5" ry="2.5" style="stroke:#181818;stroke-width:0.5;" width="131" x="172" y="445"/><ellipse cx="187" cy="461" fill="#ADD1B2" rx="11" ry="11" style="stroke:#181818;stroke-width:1.0;"/><path d="M189.7656,456.875 Q189.9219,456.6563 190.1094,456.5469 Q190.2969,456.4375 190.5156,456.4375 Q190.8906,456.4375 191.125,456.7031 Q191.3594,456.9531 191.3594,457.5625 L191.3594,459.0156 Q191.3594,459.625 191.125,459.8906 Q190.8906,460.1563 190.5156,460.1563 Q190.1719,460.1563 189.9688,459.9531 Q189.7656,459.7656 189.6563,459.25 Q189.6094,458.8906 189.4219,458.7031 Q189.0938,458.3281 188.4844,458.1094 Q187.875,457.8906 187.25,457.8906 Q186.4844,457.8906 185.8438,458.2188 Q185.2188,458.5469 184.7188,459.2969 Q184.2344,460.0469 184.2344,461.0781 L184.2344,462.1719 Q184.2344,463.4063 185.125,464.2344 Q186.0156,465.0469 187.6094,465.0469 Q188.5469,465.0469 189.2031,464.7969 Q189.5938,464.6406 190.0156,464.2031 Q190.2813,463.9375 190.4219,463.8594 Q190.5781,463.7813 190.7813,463.7813 Q191.1094,463.7813 191.3594,464.0469 Q191.625,464.2969 191.625,464.6406 Q191.625,464.9844 191.2813,465.3906 Q190.7813,465.9688 189.9844,466.2969 Q188.9063,466.75 187.6094,466.75 Q186.0938,466.75 184.8906,466.125 Q183.9063,465.625 183.2188,464.5625 Q182.5313,463.4844 182.5313,462.2031 L182.5313,461.0469 Q182.5313,459.7188 183.1406,458.5781 Q183.7656,457.4219 184.8594,456.8125 Q185.9531,456.1875 187.1875,456.1875 Q187.9219,456.1875 188.5625,456.3594 Q189.2188,456.5156 189.7656,456.875 Z " fill="#000000"/><text fill="#000000" font-family="sans-serif" font-size="14" lengthAdjust="spacing" textLength="99" x="201" y="466.7969">TaskRepository</text><line style="stroke:#181818;stroke-width:0.5;" x1="173" x2="302" y1="477" y2="477"/><line style="stroke:#181818;stroke-width:0.5;" x1="173" x2="302" y1="485" y2="485"/></g><!--class EmployeeRepository--><g id="elem_EmployeeRepository"><rect codeLine="27" fill="#F1F1F1" height="48" id="EmployeeRepository" rx="2.5" ry="2.5" style="stroke:#181818;stroke-width:0.5;" width="162" x="338.5" y="445"/><ellipse cx="353.5" cy="461" fill="#ADD1B2" rx="11" ry="11" style="stroke:#181818;stroke-width:1.0;"/><path d="M356.2656,456.875 Q356.4219,456.6563 356.6094,456.5469 Q356.7969,456.4375 357.0156,456.4375 Q357.3906,456.4375 357.625,456.7031 Q357.8594,456.9531 357.8594,457.5625 L357.8594,459.0156 Q357.8594,459.625 357.625,459.8906 Q357.3906,460.1563 357.0156,460.1563 Q356.6719,460.1563 356.4688,459.9531 Q356.2656,459.7656 356.1563,459.25 Q356.1094,458.8906 355.9219,458.7031 Q355.5938,458.3281 354.9844,458.1094 Q354.375,457.8906 353.75,457.8906 Q352.9844,457.8906 352.3438,458.2188 Q351.7188,458.5469 351.2188,459.2969 Q350.7344,460.0469 350.7344,461.0781 L350.7344,462.1719 Q350.7344,463.4063 351.625,464.2344 Q352.5156,465.0469 354.1094,465.0469 Q355.0469,465.0469 355.7031,464.7969 Q356.0938,464.6406 356.5156,464.2031 Q356.7813,463.9375 356.9219,463.8594 Q357.0781,463.7813 357.2813,463.7813 Q357.6094,463.7813 357.8594,464.0469 Q358.125,464.2969 358.125,464.6406 Q358.125,464.9844 357.7813,465.3906 Q357.2813,465.9688 356.4844,466.2969 Q355.4063,466.75 354.1094,466.75 Q352.5938,466.75 351.3906,466.125 Q350.4063,465.625 349.7188,464.5625 Q349.0313,463.4844 349.0313,462.2031 L349.0313,461.0469 Q349.0313,459.7188 349.6406,458.5781 Q350.2656,457.4219 351.3594,456.8125 Q352.4531,456.1875 353.6875,456.1875 Q354.4219,456.1875 355.0625,456.3594 Q355.7188,456.5156 356.2656,456.875 Z " fill="#000000"/><text fill="#000000" font-family="sans-serif" font-size="14" lengthAdjust="spacing" textLength="130" x="367.5" y="466.7969">EmployeeRepository</text><line style="stroke:#181818;stroke-width:0.5;" x1="339.5" x2="499.5" y1="477" y2="477"/><line style="stroke:#181818;stroke-width:0.5;" x1="339.5" x2="499.5" y1="485" y2="485"/></g><!--class VehicleRepository--><g id="elem_VehicleRepository"><rect codeLine="30" fill="#F1F1F1" height="48" id="VehicleRepository" rx="2.5" ry="2.5" style="stroke:#181818;stroke-width:0.5;" width="146" x="535.5" y="445"/><ellipse cx="550.5" cy="461" fill="#ADD1B2" rx="11" ry="11" style="stroke:#181818;stroke-width:1.0;"/><path d="M553.2656,456.875 Q553.4219,456.6563 553.6094,456.5469 Q553.7969,456.4375 554.0156,456.4375 Q554.3906,456.4375 554.625,456.7031 Q554.8594,456.9531 554.8594,457.5625 L554.8594,459.0156 Q554.8594,459.625 554.625,459.8906 Q554.3906,460.1563 554.0156,460.1563 Q553.6719,460.1563 553.4688,459.9531 Q553.2656,459.7656 553.1563,459.25 Q553.1094,458.8906 552.9219,458.7031 Q552.5938,458.3281 551.9844,458.1094 Q551.375,457.8906 550.75,457.8906 Q549.9844,457.8906 549.3438,458.2188 Q548.7188,458.5469 548.2188,459.2969 Q547.7344,460.0469 547.7344,461.0781 L547.7344,462.1719 Q547.7344,463.4063 548.625,464.2344 Q549.5156,465.0469 551.1094,465.0469 Q552.0469,465.0469 552.7031,464.7969 Q553.0938,464.6406 553.5156,464.2031 Q553.7813,463.9375 553.9219,463.8594 Q554.0781,463.7813 554.2813,463.7813 Q554.6094,463.7813 554.8594,464.0469 Q555.125,464.2969 555.125,464.6406 Q555.125,464.9844 554.7813,465.3906 Q554.2813,465.9688 553.4844,466.2969 Q552.4063,466.75 551.1094,466.75 Q549.5938,466.75 548.3906,466.125 Q547.4063,465.625 546.7188,464.5625 Q546.0313,463.4844 546.0313,462.2031 L546.0313,461.0469 Q546.0313,459.7188 546.6406,458.5781 Q547.2656,457.4219 548.3594,456.8125 Q549.4531,456.1875 550.6875,456.1875 Q551.4219,456.1875 552.0625,456.3594 Q552.7188,456.5156 553.2656,456.875 Z " fill="#000000"/><text fill="#000000" font-family="sans-serif" font-size="14" lengthAdjust="spacing" textLength="114" x="564.5" y="466.7969">VehicleRepository</text><line style="stroke:#181818;stroke-width:0.5;" x1="536.5" x2="680.5" y1="477" y2="477"/><line style="stroke:#181818;stroke-width:0.5;" x1="536.5" x2="680.5" y1="485" y2="485"/></g><!--class Repositories--><g id="elem_Repositories"><rect codeLine="33" fill="#F1F1F1" height="141.1055" id="Repositories" rx="2.5" ry="2.5" style="stroke:#181818;stroke-width:0.5;" width="194" x="231.5" y="243"/><ellipse cx="284.75" cy="259" fill="#ADD1B2" rx="11" ry="11" style="stroke:#181818;stroke-width:1.0;"/><path d="M287.5156,254.875 Q287.6719,254.6563 287.8594,254.5469 Q288.0469,254.4375 288.2656,254.4375 Q288.6406,254.4375 288.875,254.7031 Q289.1094,254.9531 289.1094,255.5625 L289.1094,257.0156 Q289.1094,257.625 288.875,257.8906 Q288.6406,258.1563 288.2656,258.1563 Q287.9219,258.1563 287.7188,257.9531 Q287.5156,257.7656 287.4063,257.25 Q287.3594,256.8906 287.1719,256.7031 Q286.8438,256.3281 286.2344,256.1094 Q285.625,255.8906 285,255.8906 Q284.2344,255.8906 283.5938,256.2188 Q282.9688,256.5469 282.4688,257.2969 Q281.9844,258.0469 281.9844,259.0781 L281.9844,260.1719 Q281.9844,261.4063 282.875,262.2344 Q283.7656,263.0469 285.3594,263.0469 Q286.2969,263.0469 286.9531,262.7969 Q287.3438,262.6406 287.7656,262.2031 Q288.0313,261.9375 288.1719,261.8594 Q288.3281,261.7813 288.5313,261.7813 Q288.8594,261.7813 289.1094,262.0469 Q289.375,262.2969 289.375,262.6406 Q289.375,262.9844 289.0313,263.3906 Q288.5313,263.9688 287.7344,264.2969 Q286.6563,264.75 285.3594,264.75 Q283.8438,264.75 282.6406,264.125 Q281.6563,263.625 280.9688,262.5625 Q280.2813,261.4844 280.2813,260.2031 L280.2813,259.0469 Q280.2813,257.7188 280.8906,256.5781 Q281.5156,255.4219 282.6094,254.8125 Q283.7031,254.1875 284.9375,254.1875 Q285.6719,254.1875 286.3125,254.3594 Q286.9688,254.5156 287.5156,254.875 Z " fill="#000000"/><text fill="#000000" font-family="sans-serif" font-size="14" lengthAdjust="spacing" textLength="79" x="305.25" y="264.7969">Repositories</text><line style="stroke:#181818;stroke-width:0.5;" x1="232.5" x2="424.5" y1="275" y2="275"/><line style="stroke:#181818;stroke-width:0.5;" x1="232.5" x2="424.5" y1="283" y2="283"/><text fill="#000000" font-family="sans-serif" font-size="14" lengthAdjust="spacing" textLength="94" x="237.5" y="302.1074">-Repositories()</text><text fill="#000000" font-family="sans-serif" font-size="14" lengthAdjust="spacing" textLength="182" x="237.5" y="320.7285">+getInstance() : Repositories</text><text fill="#000000" font-family="sans-serif" font-size="14" lengthAdjust="spacing" textLength="137" x="237.5" y="339.3496">+getTaskRepository()</text><text fill="#000000" font-family="sans-serif" font-size="14" lengthAdjust="spacing" textLength="168" x="237.5" y="357.9707">+getEmployeeRepository()</text><text fill="#000000" font-family="sans-serif" font-size="14" lengthAdjust="spacing" textLength="152" x="237.5" y="376.5918">+getVehicleRepository()</text></g><!--link Repositories to Repositories--><g id="link_Repositories_Repositories"><path codeLine="46" d="M425.78,295.41 C445.98,297.31 460.5,303.34 460.5,313.5 C460.5,323.66 451.9536,329.1281 431.7536,331.0281 " fill="none" id="Repositories-to-Repositories" style="stroke:#181818;stroke-width:1.0;"/><polygon fill="#181818" points="425.78,331.59,435.115,334.7296,430.758,331.1218,434.3659,326.7648,425.78,331.59" style="stroke:#181818;stroke-width:1.0;"/><text fill="#000000" font-family="sans-serif" font-size="13" lengthAdjust="spacing" textLength="49" x="466.5" y="319.0283">instance</text></g><!--link AssignVehicleToAgendaEntryUI to AssignVehicleToAgendaEntryController--><g id="link_AssignVehicleToAgendaEntryUI_AssignVehicleToAgendaEntryController"><path codeLine="49" d="M147.5,55.22 C147.5,73.16 147.5,91.89 147.5,109.83 " fill="none" id="AssignVehicleToAgendaEntryUI-to-AssignVehicleToAgendaEntryController" style="stroke:#181818;stroke-width:1.0;stroke-dasharray:7.0,7.0;"/><polygon fill="#181818" points="147.5,115.83,151.5,106.83,147.5,110.83,143.5,106.83,147.5,115.83" style="stroke:#181818;stroke-width:1.0;"/></g><!--link AssignVehicleToAgendaEntryController to Repositories--><g id="link_AssignVehicleToAgendaEntryController_Repositories"><path codeLine="51" d="M171.91,164.13 C193.24,184.34 220.9748,210.613 250.5648,238.653 " fill="none" id="AssignVehicleToAgendaEntryController-to-Repositories" style="stroke:#181818;stroke-width:1.0;stroke-dasharray:7.0,7.0;"/><polygon fill="#181818" points="254.92,242.78,251.1386,233.686,251.2907,239.3408,245.6359,239.4929,254.92,242.78" style="stroke:#181818;stroke-width:1.0;"/><text fill="#000000" font-family="sans-serif" font-size="13" lengthAdjust="spacing" textLength="67" x="222.5" y="209.0283">repositories</text></g><!--link Repositories to TaskRepository--><g id="link_Repositories_TaskRepository"><path codeLine="54" d="M287.26,384.06 C274.28,405.96 263.9013,423.4797 254.2613,439.7297 " fill="none" id="Repositories-to-TaskRepository" style="stroke:#181818;stroke-width:1.0;"/><polygon fill="#181818" points="251.2,444.89,259.2321,439.1904,253.751,440.5897,252.3517,435.1087,251.2,444.89" style="stroke:#181818;stroke-width:1.0;"/><text fill="#000000" font-family="sans-serif" font-size="13" lengthAdjust="spacing" textLength="7" x="275.6462" y="406.251">1</text><text fill="#000000" font-family="sans-serif" font-size="13" lengthAdjust="spacing" textLength="7" x="246.8138" y="433.5993">1</text></g><!--link Repositories to EmployeeRepository--><g id="link_Repositories_EmployeeRepository"><path codeLine="55" d="M369.74,384.06 C382.72,405.96 393.0987,423.4797 402.7387,439.7297 " fill="none" id="Repositories-to-EmployeeRepository" style="stroke:#181818;stroke-width:1.0;"/><polygon fill="#181818" points="405.8,444.89,404.6483,435.1087,403.249,440.5897,397.7679,439.1904,405.8,444.89" style="stroke:#181818;stroke-width:1.0;"/><text fill="#000000" font-family="sans-serif" font-size="13" lengthAdjust="spacing" textLength="7" x="366.6319" y="406.251">1</text><text fill="#000000" font-family="sans-serif" font-size="13" lengthAdjust="spacing" textLength="7" x="394.3925" y="433.5993">1</text></g><!--link Repositories to VehicleRepository--><g id="link_Repositories_VehicleRepository"><path codeLine="56" d="M425.64,367.76 C473.66,394.08 523.8587,421.5958 560.9987,441.9558 " fill="none" id="Repositories-to-VehicleRepository" style="stroke:#181818;stroke-width:1.0;"/><polygon fill="#181818" points="566.26,444.84,560.2909,437.0061,561.8756,442.4365,556.4452,444.0212,566.26,444.84" style="stroke:#181818;stroke-width:1.0;"/><text fill="#000000" font-family="sans-serif" font-size="13" lengthAdjust="spacing" textLength="7" x="433.3452" y="368.2989">1</text><text fill="#000000" font-family="sans-serif" font-size="13" lengthAdjust="spacing" textLength="7" x="547.5391" y="433.5365">1</text></g><!--link TaskRepository to Employee--><g id="link_TaskRepository_Employee"><path codeLine="58" d="M255.28,493.02 C268.7,510.39 283.6325,529.7114 298.5925,549.0814 " fill="none" id="TaskRepository-to-Employee" style="stroke:#181818;stroke-width:1.0;"/><polygon fill="#181818" points="302.26,553.83,299.9245,544.2621,299.2038,549.8728,293.593,549.1521,302.26,553.83" style="stroke:#181818;stroke-width:1.0;"/><text fill="#000000" font-family="sans-serif" font-size="13" lengthAdjust="spacing" textLength="7" x="251.7608" y="515.0105">1</text><text fill="#000000" font-family="sans-serif" font-size="13" lengthAdjust="spacing" textLength="5" x="291.7987" y="542.622">*</text></g><!--link EmployeeRepository to Employee--><g id="link_EmployeeRepository_Employee"><path codeLine="59" d="M401.32,493.02 C387.6,510.39 372.3076,529.7505 357.0176,549.1205 " fill="none" id="EmployeeRepository-to-Employee" style="stroke:#181818;stroke-width:1.0;"/><polygon fill="#181818" points="353.3,553.83,362.016,549.244,356.398,549.9054,355.7366,544.2873,353.3,553.83" style="stroke:#181818;stroke-width:1.0;"/><text fill="#000000" font-family="sans-serif" font-size="13" lengthAdjust="spacing" textLength="7" x="389.0355" y="515.0105">1</text><text fill="#000000" font-family="sans-serif" font-size="13" lengthAdjust="spacing" textLength="5" x="352.8872" y="542.622">*</text></g><!--link VehicleRepository to Employee--><g id="link_VehicleRepository_Employee"><path codeLine="60" d="M552.98,493.02 C511,510.42 458.3322,532.2513 411.5822,551.6413 " fill="none" id="VehicleRepository-to-Employee" style="stroke:#181818;stroke-width:1.0;"/><polygon fill="#181818" points="406.04,553.94,415.8858,554.1868,410.6585,552.0244,412.8209,546.7972,406.04,553.94" style="stroke:#181818;stroke-width:1.0;"/><text fill="#000000" font-family="sans-serif" font-size="13" lengthAdjust="spacing" textLength="7" x="531.5939" y="515.0105">1</text><text fill="#000000" font-family="sans-serif" font-size="13" lengthAdjust="spacing" textLength="5" x="416.0104" y="542.7537">*</text></g><!--link Employee to Task--><g id="link_Employee_Task"><path codeLine="62" d="M327.5,621.26 C327.5,640.51 327.5,658.38 327.5,675.71 " fill="none" id="Employee-to-Task" style="stroke:#181818;stroke-width:1.0;"/><polygon fill="#181818" points="327.5,681.71,331.5,672.71,327.5,676.71,323.5,672.71,327.5,681.71" style="stroke:#181818;stroke-width:1.0;"/><text fill="#000000" font-family="sans-serif" font-size="13" lengthAdjust="spacing" textLength="7" x="319.8984" y="642.6093">1</text><text fill="#000000" font-family="sans-serif" font-size="13" lengthAdjust="spacing" textLength="5" x="321.8906" y="670.7812">*</text></g><!--link AssignVehicleToAgendaEntryController to Employee--><g id="link_AssignVehicleToAgendaEntryController_Employee"><path codeLine="65" d="M147.96,164.1 C149.52,242.41 154.5,493 154.5,493 C154.5,493 211.8214,523.9875 261.7114,550.9475 " fill="none" id="AssignVehicleToAgendaEntryController-to-Employee" style="stroke:#181818;stroke-width:1.0;stroke-dasharray:7.0,7.0;"/><polygon fill="#181818" points="266.99,553.8,260.9738,546.0022,262.5912,551.4229,257.1705,553.0403,266.99,553.8" style="stroke:#181818;stroke-width:1.0;"/></g><!--SRC=[bP9FRm8X4CNlV8g95xL6qruzc9Z6WzTgUwSuiaIMsG2csPf-zuAnmlxHjXnsCxmtBx_CC7G7PIfkUGab6HA5fHB1soEof5HS7BZ4ZQyrWaNXkP4wDxY2x-X36GbxhbskQ6NGrnL2HRgE1HlsY6GziQnBQExSqdkhteyUruBCHdqYF38srBZtu0ciaeM7dOeuYWnZvnvOEgUaUSD22OrRMaeqExuotjQlwnFx-jtsJE5BMgFDxAkoqbGZmebDUBDrozrXD4xMM9-QvGjMv9GdMqDFPhzwoKzYfbql5RhG0-5C6vU19rvEGA9V6nVM9N0qXdd3b2nDnhovovYh7SOWHifu6epJwQ89FGTrmGhMUok3sMpnfsNTYqckSroBnEOpQO4FdWQHFVnQYxnfwqxifhKpFiPQh-N7_91oMS-pwRDrmdjTrxGpq4ME4EmVyqnfxVCD]--></g></svg>