<?xml version="1.0" encoding="us-ascii" standalone="no"?><svg xmlns="http://www.w3.org/2000/svg" xmlns:xlink="http://www.w3.org/1999/xlink" contentStyleType="text/css" height="1015px" preserveAspectRatio="none" style="width:568px;height:1015px;background:#FFFFFF;" version="1.1" viewBox="0 0 568 1015" width="568px" zoomAndPan="magnify"><defs/><g><!--class RegisterJobUi--><g id="elem_RegisterJobUi"><rect codeLine="11" fill="#F1F1F1" height="48" id="RegisterJobUi" rx="2.5" ry="2.5" style="stroke:#181818;stroke-width:0.5;" width="119" x="252" y="7"/><ellipse cx="267" cy="23" fill="#ADD1B2" rx="11" ry="11" style="stroke:#181818;stroke-width:1.0;"/><path d="M269.7656,18.875 Q269.9219,18.6563 270.1094,18.5469 Q270.2969,18.4375 270.5156,18.4375 Q270.8906,18.4375 271.125,18.7031 Q271.3594,18.9531 271.3594,19.5625 L271.3594,21.0156 Q271.3594,21.625 271.125,21.8906 Q270.8906,22.1563 270.5156,22.1563 Q270.1719,22.1563 269.9688,21.9531 Q269.7656,21.7656 269.6563,21.25 Q269.6094,20.8906 269.4219,20.7031 Q269.0938,20.3281 268.4844,20.1094 Q267.875,19.8906 267.25,19.8906 Q266.4844,19.8906 265.8438,20.2188 Q265.2188,20.5469 264.7188,21.2969 Q264.2344,22.0469 264.2344,23.0781 L264.2344,24.1719 Q264.2344,25.4063 265.125,26.2344 Q266.0156,27.0469 267.6094,27.0469 Q268.5469,27.0469 269.2031,26.7969 Q269.5938,26.6406 270.0156,26.2031 Q270.2813,25.9375 270.4219,25.8594 Q270.5781,25.7813 270.7813,25.7813 Q271.1094,25.7813 271.3594,26.0469 Q271.625,26.2969 271.625,26.6406 Q271.625,26.9844 271.2813,27.3906 Q270.7813,27.9688 269.9844,28.2969 Q268.9063,28.75 267.6094,28.75 Q266.0938,28.75 264.8906,28.125 Q263.9063,27.625 263.2188,26.5625 Q262.5313,25.4844 262.5313,24.2031 L262.5313,23.0469 Q262.5313,21.7188 263.1406,20.5781 Q263.7656,19.4219 264.8594,18.8125 Q265.9531,18.1875 267.1875,18.1875 Q267.9219,18.1875 268.5625,18.3594 Q269.2188,18.5156 269.7656,18.875 Z " fill="#000000"/><text fill="#000000" font-family="sans-serif" font-size="14" lengthAdjust="spacing" textLength="87" x="281" y="28.7969">RegisterJobUi</text><line style="stroke:#181818;stroke-width:0.5;" x1="253" x2="370" y1="39" y2="39"/><line style="stroke:#181818;stroke-width:0.5;" x1="253" x2="370" y1="47" y2="47"/></g><!--class RegisterJobController--><g id="elem_RegisterJobController"><rect codeLine="15" fill="#F1F1F1" height="85.2422" id="RegisterJobController" rx="2.5" ry="2.5" style="stroke:#181818;stroke-width:0.5;" width="352" x="135.5" y="116"/><ellipse cx="238.75" cy="132" fill="#ADD1B2" rx="11" ry="11" style="stroke:#181818;stroke-width:1.0;"/><path d="M241.5156,127.875 Q241.6719,127.6563 241.8594,127.5469 Q242.0469,127.4375 242.2656,127.4375 Q242.6406,127.4375 242.875,127.7031 Q243.1094,127.9531 243.1094,128.5625 L243.1094,130.0156 Q243.1094,130.625 242.875,130.8906 Q242.6406,131.1563 242.2656,131.1563 Q241.9219,131.1563 241.7188,130.9531 Q241.5156,130.7656 241.4063,130.25 Q241.3594,129.8906 241.1719,129.7031 Q240.8438,129.3281 240.2344,129.1094 Q239.625,128.8906 239,128.8906 Q238.2344,128.8906 237.5938,129.2188 Q236.9688,129.5469 236.4688,130.2969 Q235.9844,131.0469 235.9844,132.0781 L235.9844,133.1719 Q235.9844,134.4063 236.875,135.2344 Q237.7656,136.0469 239.3594,136.0469 Q240.2969,136.0469 240.9531,135.7969 Q241.3438,135.6406 241.7656,135.2031 Q242.0313,134.9375 242.1719,134.8594 Q242.3281,134.7813 242.5313,134.7813 Q242.8594,134.7813 243.1094,135.0469 Q243.375,135.2969 243.375,135.6406 Q243.375,135.9844 243.0313,136.3906 Q242.5313,136.9688 241.7344,137.2969 Q240.6563,137.75 239.3594,137.75 Q237.8438,137.75 236.6406,137.125 Q235.6563,136.625 234.9688,135.5625 Q234.2813,134.4844 234.2813,133.2031 L234.2813,132.0469 Q234.2813,130.7188 234.8906,129.5781 Q235.5156,128.4219 236.6094,127.8125 Q237.7031,127.1875 238.9375,127.1875 Q239.6719,127.1875 240.3125,127.3594 Q240.9688,127.5156 241.5156,127.875 Z " fill="#000000"/><text fill="#000000" font-family="sans-serif" font-size="14" lengthAdjust="spacing" textLength="137" x="259.25" y="137.7969">RegisterJobController</text><line style="stroke:#181818;stroke-width:0.5;" x1="136.5" x2="486.5" y1="148" y2="148"/><line style="stroke:#181818;stroke-width:0.5;" x1="136.5" x2="486.5" y1="156" y2="156"/><text fill="#000000" font-family="sans-serif" font-size="14" lengthAdjust="spacing" textLength="305" x="141.5" y="175.1074">+getEmployeeRepository(): employeeRepository</text><text fill="#000000" font-family="sans-serif" font-size="14" lengthAdjust="spacing" textLength="340" x="141.5" y="193.7285">+registerJob(jobName, jobDescription): Optional&lt;Job&gt;</text></g><!--class EmployeeRepository--><g id="elem_EmployeeRepository"><rect codeLine="21" fill="#F1F1F1" height="66.6211" id="EmployeeRepository" rx="2.5" ry="2.5" style="stroke:#181818;stroke-width:0.5;" width="177" x="189" y="445"/><ellipse cx="210.75" cy="461" fill="#ADD1B2" rx="11" ry="11" style="stroke:#181818;stroke-width:1.0;"/><path d="M213.5156,456.875 Q213.6719,456.6563 213.8594,456.5469 Q214.0469,456.4375 214.2656,456.4375 Q214.6406,456.4375 214.875,456.7031 Q215.1094,456.9531 215.1094,457.5625 L215.1094,459.0156 Q215.1094,459.625 214.875,459.8906 Q214.6406,460.1563 214.2656,460.1563 Q213.9219,460.1563 213.7188,459.9531 Q213.5156,459.7656 213.4063,459.25 Q213.3594,458.8906 213.1719,458.7031 Q212.8438,458.3281 212.2344,458.1094 Q211.625,457.8906 211,457.8906 Q210.2344,457.8906 209.5938,458.2188 Q208.9688,458.5469 208.4688,459.2969 Q207.9844,460.0469 207.9844,461.0781 L207.9844,462.1719 Q207.9844,463.4063 208.875,464.2344 Q209.7656,465.0469 211.3594,465.0469 Q212.2969,465.0469 212.9531,464.7969 Q213.3438,464.6406 213.7656,464.2031 Q214.0313,463.9375 214.1719,463.8594 Q214.3281,463.7813 214.5313,463.7813 Q214.8594,463.7813 215.1094,464.0469 Q215.375,464.2969 215.375,464.6406 Q215.375,464.9844 215.0313,465.3906 Q214.5313,465.9688 213.7344,466.2969 Q212.6563,466.75 211.3594,466.75 Q209.8438,466.75 208.6406,466.125 Q207.6563,465.625 206.9688,464.5625 Q206.2813,463.4844 206.2813,462.2031 L206.2813,461.0469 Q206.2813,459.7188 206.8906,458.5781 Q207.5156,457.4219 208.6094,456.8125 Q209.7031,456.1875 210.9375,456.1875 Q211.6719,456.1875 212.3125,456.3594 Q212.9688,456.5156 213.5156,456.875 Z " fill="#000000"/><text fill="#000000" font-family="sans-serif" font-size="14" lengthAdjust="spacing" textLength="130" x="226.25" y="466.7969">EmployeeRepository</text><line style="stroke:#181818;stroke-width:0.5;" x1="190" x2="365" y1="477" y2="477"/><line style="stroke:#181818;stroke-width:0.5;" x1="190" x2="365" y1="485" y2="485"/><text fill="#000000" font-family="sans-serif" font-size="14" lengthAdjust="spacing" textLength="165" x="195" y="504.1074">+getEmployee():employee</text></g><!--class Job--><g id="elem_Job"><rect codeLine="28" fill="#F1F1F1" height="85.2422" id="Job" rx="2.5" ry="2.5" style="stroke:#181818;stroke-width:0.5;" width="152" x="309.5" y="923"/><ellipse cx="370.25" cy="939" fill="#ADD1B2" rx="11" ry="11" style="stroke:#181818;stroke-width:1.0;"/><path d="M373.0156,934.875 Q373.1719,934.6563 373.3594,934.5469 Q373.5469,934.4375 373.7656,934.4375 Q374.1406,934.4375 374.375,934.7031 Q374.6094,934.9531 374.6094,935.5625 L374.6094,937.0156 Q374.6094,937.625 374.375,937.8906 Q374.1406,938.1563 373.7656,938.1563 Q373.4219,938.1563 373.2188,937.9531 Q373.0156,937.7656 372.9063,937.25 Q372.8594,936.8906 372.6719,936.7031 Q372.3438,936.3281 371.7344,936.1094 Q371.125,935.8906 370.5,935.8906 Q369.7344,935.8906 369.0938,936.2188 Q368.4688,936.5469 367.9688,937.2969 Q367.4844,938.0469 367.4844,939.0781 L367.4844,940.1719 Q367.4844,941.4063 368.375,942.2344 Q369.2656,943.0469 370.8594,943.0469 Q371.7969,943.0469 372.4531,942.7969 Q372.8438,942.6406 373.2656,942.2031 Q373.5313,941.9375 373.6719,941.8594 Q373.8281,941.7813 374.0313,941.7813 Q374.3594,941.7813 374.6094,942.0469 Q374.875,942.2969 374.875,942.6406 Q374.875,942.9844 374.5313,943.3906 Q374.0313,943.9688 373.2344,944.2969 Q372.1563,944.75 370.8594,944.75 Q369.3438,944.75 368.1406,944.125 Q367.1563,943.625 366.4688,942.5625 Q365.7813,941.4844 365.7813,940.2031 L365.7813,939.0469 Q365.7813,937.7188 366.3906,936.5781 Q367.0156,935.4219 368.1094,934.8125 Q369.2031,934.1875 370.4375,934.1875 Q371.1719,934.1875 371.8125,934.3594 Q372.4688,934.5156 373.0156,934.875 Z " fill="#000000"/><text fill="#000000" font-family="sans-serif" font-size="14" lengthAdjust="spacing" textLength="22" x="390.75" y="944.7969">Job</text><line style="stroke:#181818;stroke-width:0.5;" x1="310.5" x2="460.5" y1="955" y2="955"/><text fill="#000000" font-family="sans-serif" font-size="14" lengthAdjust="spacing" textLength="105" x="315.5" y="974.1074">-jobName: String</text><text fill="#000000" font-family="sans-serif" font-size="14" lengthAdjust="spacing" textLength="140" x="315.5" y="992.7285">-jobDescription: String</text><line style="stroke:#181818;stroke-width:0.5;" x1="310.5" x2="460.5" y1="1000.2422" y2="1000.2422"/></g><!--class Repositories--><g id="elem_Repositories"><rect codeLine="35" fill="#F1F1F1" height="103.8633" id="Repositories" rx="2.5" ry="2.5" style="stroke:#181818;stroke-width:0.5;" width="317" x="7" y="280"/><ellipse cx="121.75" cy="296" fill="#ADD1B2" rx="11" ry="11" style="stroke:#181818;stroke-width:1.0;"/><path d="M124.5156,291.875 Q124.6719,291.6563 124.8594,291.5469 Q125.0469,291.4375 125.2656,291.4375 Q125.6406,291.4375 125.875,291.7031 Q126.1094,291.9531 126.1094,292.5625 L126.1094,294.0156 Q126.1094,294.625 125.875,294.8906 Q125.6406,295.1563 125.2656,295.1563 Q124.9219,295.1563 124.7188,294.9531 Q124.5156,294.7656 124.4063,294.25 Q124.3594,293.8906 124.1719,293.7031 Q123.8438,293.3281 123.2344,293.1094 Q122.625,292.8906 122,292.8906 Q121.2344,292.8906 120.5938,293.2188 Q119.9688,293.5469 119.4688,294.2969 Q118.9844,295.0469 118.9844,296.0781 L118.9844,297.1719 Q118.9844,298.4063 119.875,299.2344 Q120.7656,300.0469 122.3594,300.0469 Q123.2969,300.0469 123.9531,299.7969 Q124.3438,299.6406 124.7656,299.2031 Q125.0313,298.9375 125.1719,298.8594 Q125.3281,298.7813 125.5313,298.7813 Q125.8594,298.7813 126.1094,299.0469 Q126.375,299.2969 126.375,299.6406 Q126.375,299.9844 126.0313,300.3906 Q125.5313,300.9688 124.7344,301.2969 Q123.6563,301.75 122.3594,301.75 Q120.8438,301.75 119.6406,301.125 Q118.6563,300.625 117.9688,299.5625 Q117.2813,298.4844 117.2813,297.2031 L117.2813,296.0469 Q117.2813,294.7188 117.8906,293.5781 Q118.5156,292.4219 119.6094,291.8125 Q120.7031,291.1875 121.9375,291.1875 Q122.6719,291.1875 123.3125,291.3594 Q123.9688,291.5156 124.5156,291.875 Z " fill="#000000"/><text fill="#000000" font-family="sans-serif" font-size="14" lengthAdjust="spacing" textLength="79" x="142.25" y="301.7969">Repositories</text><line style="stroke:#181818;stroke-width:0.5;" x1="8" x2="323" y1="312" y2="312"/><line style="stroke:#181818;stroke-width:0.5;" x1="8" x2="323" y1="320" y2="320"/><text fill="#000000" font-family="sans-serif" font-size="14" lengthAdjust="spacing" textLength="94" x="13" y="339.1074">-Repositories()</text><text fill="#000000" font-family="sans-serif" font-size="14" lengthAdjust="spacing" textLength="182" x="13" y="357.7285">+getInstance() : Repositories</text><text fill="#000000" font-family="sans-serif" font-size="14" lengthAdjust="spacing" textLength="305" x="13" y="376.3496">+getEmployeeRepository(): employeeRepository</text></g><!--class Employee--><g id="elem_Employee"><rect codeLine="42" fill="#F1F1F1" height="271.4531" id="Employee" rx="2.5" ry="2.5" style="stroke:#181818;stroke-width:0.5;" width="352" x="209.5" y="573"/><ellipse cx="350.25" cy="589" fill="#ADD1B2" rx="11" ry="11" style="stroke:#181818;stroke-width:1.0;"/><path d="M353.0156,584.875 Q353.1719,584.6563 353.3594,584.5469 Q353.5469,584.4375 353.7656,584.4375 Q354.1406,584.4375 354.375,584.7031 Q354.6094,584.9531 354.6094,585.5625 L354.6094,587.0156 Q354.6094,587.625 354.375,587.8906 Q354.1406,588.1563 353.7656,588.1563 Q353.4219,588.1563 353.2188,587.9531 Q353.0156,587.7656 352.9063,587.25 Q352.8594,586.8906 352.6719,586.7031 Q352.3438,586.3281 351.7344,586.1094 Q351.125,585.8906 350.5,585.8906 Q349.7344,585.8906 349.0938,586.2188 Q348.4688,586.5469 347.9688,587.2969 Q347.4844,588.0469 347.4844,589.0781 L347.4844,590.1719 Q347.4844,591.4063 348.375,592.2344 Q349.2656,593.0469 350.8594,593.0469 Q351.7969,593.0469 352.4531,592.7969 Q352.8438,592.6406 353.2656,592.2031 Q353.5313,591.9375 353.6719,591.8594 Q353.8281,591.7813 354.0313,591.7813 Q354.3594,591.7813 354.6094,592.0469 Q354.875,592.2969 354.875,592.6406 Q354.875,592.9844 354.5313,593.3906 Q354.0313,593.9688 353.2344,594.2969 Q352.1563,594.75 350.8594,594.75 Q349.3438,594.75 348.1406,594.125 Q347.1563,593.625 346.4688,592.5625 Q345.7813,591.4844 345.7813,590.2031 L345.7813,589.0469 Q345.7813,587.7188 346.3906,586.5781 Q347.0156,585.4219 348.1094,584.8125 Q349.2031,584.1875 350.4375,584.1875 Q351.1719,584.1875 351.8125,584.3594 Q352.4688,584.5156 353.0156,584.875 Z " fill="#000000"/><text fill="#000000" font-family="sans-serif" font-size="14" lengthAdjust="spacing" textLength="62" x="370.75" y="594.7969">Employee</text><line style="stroke:#181818;stroke-width:0.5;" x1="210.5" x2="560.5" y1="605" y2="605"/><text fill="#000000" font-family="sans-serif" font-size="14" lengthAdjust="spacing" textLength="89" x="215.5" y="624.1074">-name : String</text><text fill="#000000" font-family="sans-serif" font-size="14" lengthAdjust="spacing" textLength="103" x="215.5" y="642.7285">-birthdate : Date</text><text fill="#000000" font-family="sans-serif" font-size="14" lengthAdjust="spacing" textLength="87" x="215.5" y="661.3496">-email : String</text><text fill="#000000" font-family="sans-serif" font-size="14" lengthAdjust="spacing" textLength="121" x="215.5" y="679.9707">-phoneNumber : int</text><text fill="#000000" font-family="sans-serif" font-size="14" lengthAdjust="spacing" textLength="142" x="215.5" y="698.5918">-admission date : Date</text><text fill="#000000" font-family="sans-serif" font-size="14" lengthAdjust="spacing" textLength="157" x="215.5" y="717.2129">-taxpayerNumber : String</text><text fill="#000000" font-family="sans-serif" font-size="14" lengthAdjust="spacing" textLength="105" x="215.5" y="735.834">-address : String</text><text fill="#000000" font-family="sans-serif" font-size="14" lengthAdjust="spacing" textLength="126" x="215.5" y="754.4551">-docNumber : String</text><text fill="#000000" font-family="sans-serif" font-size="14" lengthAdjust="spacing" textLength="100" x="215.5" y="773.0762">-jobTitle : String</text><line style="stroke:#181818;stroke-width:0.5;" x1="210.5" x2="560.5" y1="780.5898" y2="780.5898"/><text fill="#000000" font-family="sans-serif" font-size="14" lengthAdjust="spacing" textLength="340" x="215.5" y="799.6973">+registerJob(jobName, jobDescription): Optional&lt;Job&gt;</text><text fill="#000000" font-family="sans-serif" font-size="14" lengthAdjust="spacing" textLength="167" x="215.5" y="818.3184">+validateJob(job): boolean</text><text fill="#000000" font-family="sans-serif" font-size="14" lengthAdjust="spacing" textLength="120" x="215.5" y="836.9395">+add(job): boolean</text></g><!--link RegisterJobUi to RegisterJobController--><g id="link_RegisterJobUi_RegisterJobController"><path codeLine="58" d="M311.5,55.02 C311.5,72 311.5,89.58 311.5,109.84 " fill="none" id="RegisterJobUi-to-RegisterJobController" style="stroke:#181818;stroke-width:1.0;stroke-dasharray:7.0,7.0;"/><polygon fill="#181818" points="311.5,115.84,315.5,106.84,311.5,110.84,307.5,106.84,311.5,115.84" style="stroke:#181818;stroke-width:1.0;"/></g><!--link RegisterJobController to Repositories--><g id="link_RegisterJobController_Repositories"><path codeLine="60" d="M276.16,201.02 C255.99,224.71 234.4293,250.0313 213.0193,275.1813 " fill="none" id="RegisterJobController-to-Repositories" style="stroke:#181818;stroke-width:1.0;stroke-dasharray:7.0,7.0;"/><polygon fill="#181818" points="209.13,279.75,218.0098,275.4898,212.3711,275.9427,211.9182,270.304,209.13,279.75" style="stroke:#181818;stroke-width:1.0;"/><text fill="#000000" font-family="sans-serif" font-size="13" lengthAdjust="spacing" textLength="67" x="248.5" y="246.0283">repositories</text><text fill="#000000" font-family="sans-serif" font-size="13" lengthAdjust="spacing" textLength="7" x="207.5225" y="268.6438">1</text></g><!--link Repositories to Repositories--><g id="link_Repositories_Repositories"><path codeLine="62" d="M324.17,318.44 C345.11,320.75 359,325.27 359,332 C359,338.73 351.0738,342.5921 330.1338,344.9021 " fill="none" id="Repositories-to-Repositories" style="stroke:#181818;stroke-width:1.0;"/><polygon fill="#181818" points="324.17,345.56,333.5543,348.549,329.1399,345.0117,332.6771,340.5973,324.17,345.56" style="stroke:#181818;stroke-width:1.0;"/><text fill="#000000" font-family="sans-serif" font-size="13" lengthAdjust="spacing" textLength="49" x="365" y="337.5283">instance</text></g><!--link RegisterJobController to Employee--><g id="link_RegisterJobController_Employee"><path codeLine="63" d="M349.32,201.31 C380.8,236.11 420.5,280 420.5,280 C420.5,280 420.5,384 420.5,384 C420.5,384 410.3351,477.9148 400.7351,566.6848 " fill="none" id="RegisterJobController-to-Employee" style="stroke:#181818;stroke-width:1.0;stroke-dasharray:7.0,7.0;"/><polygon fill="#181818" points="400.09,572.65,405.0345,564.1322,400.6276,567.679,397.0808,563.2721,400.09,572.65" style="stroke:#181818;stroke-width:1.0;"/></g><!--link Repositories to EmployeeRepository--><g id="link_Repositories_EmployeeRepository"><path codeLine="65" d="M205.3,384.35 C220.9,404.47 234.6439,422.208 248.4739,440.048 " fill="none" id="Repositories-to-EmployeeRepository" style="stroke:#181818;stroke-width:1.0;"/><polygon fill="#181818" points="252.15,444.79,249.7972,435.2263,249.0866,440.8384,243.4745,440.1278,252.15,444.79" style="stroke:#181818;stroke-width:1.0;"/><text fill="#000000" font-family="sans-serif" font-size="13" lengthAdjust="spacing" textLength="7" x="202.7241" y="405.8205">1</text><text fill="#000000" font-family="sans-serif" font-size="13" lengthAdjust="spacing" textLength="7" x="239.6505" y="433.8359">1</text></g><!--link EmployeeRepository to Employee--><g id="link_EmployeeRepository_Employee"><path codeLine="67" d="M292.97,512.17 C300.85,528.79 308.4298,544.8084 319.1198,567.3584 " fill="none" id="EmployeeRepository-to-Employee" style="stroke:#181818;stroke-width:1.0;"/><polygon fill="#181818" points="321.69,572.78,321.4492,562.9341,319.5482,568.262,314.2203,566.361,321.69,572.78" style="stroke:#181818;stroke-width:1.0;"/><text fill="#000000" font-family="sans-serif" font-size="13" lengthAdjust="spacing" textLength="7" x="288.1022" y="533.7695">1</text><text fill="#000000" font-family="sans-serif" font-size="13" lengthAdjust="spacing" textLength="5" x="313.0637" y="561.9169">*</text></g><!--link Employee to Job--><g id="link_Employee_Job"><path codeLine="68" d="M385.5,844.09 C385.5,872.83 385.5,895.08 385.5,916.99 " fill="none" id="Employee-to-Job" style="stroke:#181818;stroke-width:1.0;"/><polygon fill="#181818" points="385.5,922.99,389.5,913.99,385.5,917.99,381.5,913.99,385.5,922.99" style="stroke:#181818;stroke-width:1.0;"/><text fill="#000000" font-family="sans-serif" font-size="13" lengthAdjust="spacing" textLength="63" x="386.5" y="889.0283">registerJob</text><text fill="#000000" font-family="sans-serif" font-size="13" lengthAdjust="spacing" textLength="7" x="378.2977" y="866.4438">1</text><text fill="#000000" font-family="sans-serif" font-size="13" lengthAdjust="spacing" textLength="5" x="380.1016" y="911.8925">*</text></g><!--SRC=[dLF1ZjCm4BtxAqQzj0ja1TSALK9i3yjXaRRm0KuocvXrF94z1KB5lpDnkgdJ10cHIvmtxysy6K_MuTcuLdlTG4EEYjfJWy3-YEeIQNNnh2iyS6SHF1QiNMLJGgXrIJ-Cg-19sv16h778NOlGaktw3xLU299dKecgi3g43ypUv4V6-uBSmVn2UAlKsk8J0nDuKzKCfUdj679AHGqyOcK2e_z4-LTpKkhtGk0ZEVPaBVgJ0dbULyZxfhNK8JvYIy4m-MvpimMSeOF0Nv9jlb7-e1jy0tAumr1uq_Q6HFqv7hHzBxHTOcLUIuogr8NKVYcTw2JDIMNdUbiuo7XS5O6axeZtkh7tSo630OQUimcukHdw0l5mxuBSRo4UO3iXNIZ_FAnvp-VgJZg0qMg4SkEvBZNt-9sy1XGRRUmLiwt9uSEnoT5Bn3WUO5qs9WGP0SooiFxPwWxzA4hJwRBqA1QdQ4d58bkc_SMmJTp__qf4uNTjJM_uB1HIJcHHko4ixgvWcUbao-7sThUytXFY1Ow2rRlLT2-sycSdbwqcmMntJJRdDVbxYVsumHDfNpZB1WFxXPMPOpqrAbwjnfmlXvWcvkl3uY7sCJfIwWy0]--></g></svg>