<?xml version="1.0" encoding="us-ascii" standalone="no"?><svg xmlns="http://www.w3.org/2000/svg" xmlns:xlink="http://www.w3.org/1999/xlink" contentStyleType="text/css" height="502px" preserveAspectRatio="none" style="width:456px;height:502px;background:#FFFFFF;" version="1.1" viewBox="0 0 456 502" width="456px" zoomAndPan="magnify"><defs/><g><text fill="#000000" font-family="sans-serif" font-size="14" font-weight="bold" lengthAdjust="spacing" textLength="363" x="45.5" y="28.5352">System Sequence Diagram (SSD) - Alternative One</text><rect fill="#FFFFFF" height="250.7949" style="stroke:#181818;stroke-width:1.0;" width="10" x="48" y="145.4648"/><rect fill="#FFFFFF" height="44.6211" style="stroke:#181818;stroke-width:1.0;" width="10" x="412" y="166.7754"/><rect fill="#FFFFFF" height="29.3105" style="stroke:#181818;stroke-width:1.0;" width="10" x="412" y="240.707"/><rect fill="#FFFFFF" height="29.3105" style="stroke:#181818;stroke-width:1.0;" width="10" x="412" y="299.3281"/><rect fill="#FFFFFF" height="29.3105" style="stroke:#181818;stroke-width:1.0;" width="10" x="412" y="357.9492"/><line style="stroke:#181818;stroke-width:0.5;stroke-dasharray:5.0,5.0;" x1="53" x2="53" y1="135.4648" y2="405.2598"/><line style="stroke:#181818;stroke-width:0.5;stroke-dasharray:5.0,5.0;" x1="417" x2="417" y1="135.4648" y2="405.2598"/><text fill="#000000" font-family="sans-serif" font-size="14" lengthAdjust="spacing" textLength="90" x="5" y="116.0234">Organization</text><text fill="#000000" font-family="sans-serif" font-size="14" lengthAdjust="spacing" textLength="66" x="17" y="132.5117">Employee</text><ellipse cx="53" cy="50.9883" fill="#E3E3E3" rx="8" ry="8" style="stroke:#181818;stroke-width:0.5;"/><path d="M53,58.9883 L53,85.9883 M40,66.9883 L66,66.9883 M53,85.9883 L40,100.9883 M53,85.9883 L66,100.9883 " fill="none" style="stroke:#181818;stroke-width:0.5;"/><text fill="#000000" font-family="sans-serif" font-size="14" lengthAdjust="spacing" textLength="90" x="5" y="417.7949">Organization</text><text fill="#000000" font-family="sans-serif" font-size="14" lengthAdjust="spacing" textLength="66" x="17" y="434.2832">Employee</text><ellipse cx="53" cy="445.7363" fill="#E3E3E3" rx="8" ry="8" style="stroke:#181818;stroke-width:0.5;"/><path d="M53,453.7363 L53,480.7363 M40,461.7363 L66,461.7363 M53,480.7363 L40,495.7363 M53,480.7363 L66,495.7363 " fill="none" style="stroke:#181818;stroke-width:0.5;"/><rect fill="#E3E3E3" height="30.4883" rx="2.5" ry="2.5" style="stroke:#181818;stroke-width:0.5;" width="66" x="384" y="103.9766"/><text fill="#000000" font-family="sans-serif" font-size="14" lengthAdjust="spacing" textLength="52" x="391" y="124.5117">:System</text><rect fill="#E3E3E3" height="30.4883" rx="2.5" ry="2.5" style="stroke:#181818;stroke-width:0.5;" width="66" x="384" y="404.2598"/><text fill="#000000" font-family="sans-serif" font-size="14" lengthAdjust="spacing" textLength="52" x="391" y="424.7949">:System</text><rect fill="#FFFFFF" height="250.7949" style="stroke:#181818;stroke-width:1.0;" width="10" x="48" y="145.4648"/><rect fill="#FFFFFF" height="44.6211" style="stroke:#181818;stroke-width:1.0;" width="10" x="412" y="166.7754"/><rect fill="#FFFFFF" height="29.3105" style="stroke:#181818;stroke-width:1.0;" width="10" x="412" y="240.707"/><rect fill="#FFFFFF" height="29.3105" style="stroke:#181818;stroke-width:1.0;" width="10" x="412" y="299.3281"/><rect fill="#FFFFFF" height="29.3105" style="stroke:#181818;stroke-width:1.0;" width="10" x="412" y="357.9492"/><polygon fill="#181818" points="400,162.7754,410,166.7754,400,170.7754,404,166.7754" style="stroke:#181818;stroke-width:1.0;"/><line style="stroke:#181818;stroke-width:1.0;" x1="58" x2="406" y1="166.7754" y2="166.7754"/><text fill="#000000" font-family="sans-serif" font-size="13" font-weight="bold" lengthAdjust="spacing" textLength="9" x="65" y="162.0332">1</text><text fill="#000000" font-family="sans-serif" font-size="13" lengthAdjust="spacing" textLength="159" x="78" y="162.0332">asks to create a new task</text><polygon fill="#181818" points="69,207.3965,59,211.3965,69,215.3965,65,211.3965" style="stroke:#181818;stroke-width:1.0;"/><line style="stroke:#181818;stroke-width:1.0;stroke-dasharray:2.0,2.0;" x1="63" x2="416" y1="211.3965" y2="211.3965"/><text fill="#000000" font-family="sans-serif" font-size="13" font-weight="bold" lengthAdjust="spacing" textLength="9" x="75" y="198.999">2</text><text fill="#000000" font-family="sans-serif" font-size="13" lengthAdjust="spacing" textLength="317" x="88" y="191.3438">requests data (i.e. reference, designation, informal</text><text fill="#000000" font-family="sans-serif" font-size="13" lengthAdjust="spacing" textLength="311" x="88" y="206.6543">description, technical description, duration, cost)</text><polygon fill="#181818" points="400,236.707,410,240.707,400,244.707,404,240.707" style="stroke:#181818;stroke-width:1.0;"/><line style="stroke:#181818;stroke-width:1.0;" x1="58" x2="406" y1="240.707" y2="240.707"/><text fill="#000000" font-family="sans-serif" font-size="13" font-weight="bold" lengthAdjust="spacing" textLength="9" x="65" y="235.9648">3</text><text fill="#000000" font-family="sans-serif" font-size="13" lengthAdjust="spacing" textLength="131" x="78" y="235.9648">types requested data</text><polygon fill="#181818" points="69,266.0176,59,270.0176,69,274.0176,65,270.0176" style="stroke:#181818;stroke-width:1.0;"/><line style="stroke:#181818;stroke-width:1.0;stroke-dasharray:2.0,2.0;" x1="63" x2="416" y1="270.0176" y2="270.0176"/><text fill="#000000" font-family="sans-serif" font-size="13" font-weight="bold" lengthAdjust="spacing" textLength="9" x="75" y="265.2754">4</text><text fill="#000000" font-family="sans-serif" font-size="13" lengthAdjust="spacing" textLength="298" x="88" y="265.2754">shows task category list and asks to select one</text><polygon fill="#181818" points="400,295.3281,410,299.3281,400,303.3281,404,299.3281" style="stroke:#181818;stroke-width:1.0;"/><line style="stroke:#181818;stroke-width:1.0;" x1="58" x2="406" y1="299.3281" y2="299.3281"/><text fill="#000000" font-family="sans-serif" font-size="13" font-weight="bold" lengthAdjust="spacing" textLength="9" x="65" y="294.5859">5</text><text fill="#000000" font-family="sans-serif" font-size="13" lengthAdjust="spacing" textLength="144" x="78" y="294.5859">selects a task category</text><polygon fill="#181818" points="69,324.6387,59,328.6387,69,332.6387,65,328.6387" style="stroke:#181818;stroke-width:1.0;"/><line style="stroke:#181818;stroke-width:1.0;stroke-dasharray:2.0,2.0;" x1="63" x2="416" y1="328.6387" y2="328.6387"/><text fill="#000000" font-family="sans-serif" font-size="13" font-weight="bold" lengthAdjust="spacing" textLength="9" x="75" y="323.8965">6</text><text fill="#000000" font-family="sans-serif" font-size="13" lengthAdjust="spacing" textLength="260" x="88" y="323.8965">shows all data and requests confirmation</text><polygon fill="#181818" points="400,353.9492,410,357.9492,400,361.9492,404,357.9492" style="stroke:#181818;stroke-width:1.0;"/><line style="stroke:#181818;stroke-width:1.0;" x1="58" x2="406" y1="357.9492" y2="357.9492"/><text fill="#000000" font-family="sans-serif" font-size="13" font-weight="bold" lengthAdjust="spacing" textLength="9" x="65" y="353.207">7</text><text fill="#000000" font-family="sans-serif" font-size="13" lengthAdjust="spacing" textLength="87" x="78" y="353.207">confirms data</text><polygon fill="#181818" points="69,383.2598,59,387.2598,69,391.2598,65,387.2598" style="stroke:#181818;stroke-width:1.0;"/><line style="stroke:#181818;stroke-width:1.0;stroke-dasharray:2.0,2.0;" x1="63" x2="416" y1="387.2598" y2="387.2598"/><text fill="#000000" font-family="sans-serif" font-size="13" font-weight="bold" lengthAdjust="spacing" textLength="9" x="75" y="382.5176">8</text><text fill="#000000" font-family="sans-serif" font-size="13" lengthAdjust="spacing" textLength="170" x="88" y="382.5176">displays operation success</text><!--SRC=[dPB1JiCm38RlVGfhfqrYFC0EI4ZZpA7NNKpgTTPIfyGkKtbwt7OjJ883oobn_3kVVqVFB2rcRA19ai8ffuR0SaU5BZSjXZFML5eV2J85GwdZpmGzOPKkB3KSCIeLXR5vQjchKGCblNSaWM3FM0_fwxBSRs0Bpz4e2nf_4BoAox2p95tpHjdtmLA6rMkkKVZJav8SvALfO-g9Le0Ayw5m2EF0BOh1QZUzEcPCsx4MVw3HjwG0N_C9jaypwyvbPmLB438D2WIX2vX7HybIQIuDrtNLRxtKKdRdPddhQWeL6iAQ7-dHOqVAWnyFK95oBMDl3y1oJBd1U10FXypj53OA9-604Mx2LPUlkf3KDYD7HR_Y_TgczItfp4VL27XFXtfA5ntzWU2gEkKU8gi1IhLugHJzrq3o6V-NSvAgp-7cZVjHCSPf6WFWCf-GvCZk_c3flnclOhtRn8grZTWhf9QciO9s8P3g7onV]--></g></svg>