<?xml version="1.0" encoding="us-ascii" standalone="no"?><svg xmlns="http://www.w3.org/2000/svg" xmlns:xlink="http://www.w3.org/1999/xlink" contentStyleType="text/css" height="888px" preserveAspectRatio="none" style="width:372px;height:888px;background:#FFFFFF;" version="1.1" viewBox="0 0 372 888" width="372px" zoomAndPan="magnify"><defs/><g><text fill="#000000" font-family="sans-serif" font-size="14" font-weight="bold" lengthAdjust="spacing" textLength="204" x="77" y="25.1074">User story 005 Domain Model</text><!--class Organization--><g id="elem_Organization"><rect codeLine="11" fill="#F1F1F1" height="129.7266" id="Organization" rx="2.5" ry="2.5" style="stroke:#181818;stroke-width:0.5;" width="101" x="157.5" y="46.6211"/><text fill="#000000" font-family="sans-serif" font-size="14" lengthAdjust="spacing" textLength="80" x="168" y="66.7285">Organization</text><line style="stroke:#181818;stroke-width:0.5;" x1="158.5" x2="257.5" y1="75.2422" y2="75.2422"/><text fill="#000000" font-family="sans-serif" font-size="14" lengthAdjust="spacing" textLength="35" x="163.5" y="94.3496">name</text><text fill="#000000" font-family="sans-serif" font-size="14" lengthAdjust="spacing" textLength="68" x="163.5" y="112.9707">vatNumber</text><text fill="#000000" font-family="sans-serif" font-size="14" lengthAdjust="spacing" textLength="47" x="163.5" y="131.5918">website</text><text fill="#000000" font-family="sans-serif" font-size="14" lengthAdjust="spacing" textLength="89" x="163.5" y="150.2129">phoneNumber</text><text fill="#000000" font-family="sans-serif" font-size="14" lengthAdjust="spacing" textLength="33" x="163.5" y="168.834">email</text></g><!--class Employee--><g id="elem_Employee"><rect codeLine="18" fill="#F1F1F1" height="166.9688" id="Employee" rx="2.5" ry="2.5" style="stroke:#181818;stroke-width:0.5;" width="104" x="156" y="255.6211"/><text fill="#000000" font-family="sans-serif" font-size="14" lengthAdjust="spacing" textLength="62" x="177" y="275.7285">Employee</text><line style="stroke:#181818;stroke-width:0.5;" x1="157" x2="259" y1="284.2422" y2="284.2422"/><text fill="#000000" font-family="sans-serif" font-size="14" lengthAdjust="spacing" textLength="35" x="162" y="303.3496">name</text><text fill="#000000" font-family="sans-serif" font-size="14" lengthAdjust="spacing" textLength="56" x="162" y="321.9707">birthdate</text><text fill="#000000" font-family="sans-serif" font-size="14" lengthAdjust="spacing" textLength="77" x="162" y="340.5918">email/phone</text><text fill="#000000" font-family="sans-serif" font-size="14" lengthAdjust="spacing" textLength="92" x="162" y="359.2129">admisson date</text><text fill="#000000" font-family="sans-serif" font-size="14" lengthAdjust="spacing" textLength="79" x="162" y="377.834">VAT number</text><text fill="#000000" font-family="sans-serif" font-size="14" lengthAdjust="spacing" textLength="51" x="162" y="396.4551">address</text><text fill="#000000" font-family="sans-serif" font-size="14" lengthAdjust="spacing" textLength="24" x="162" y="415.0762">role</text></g><!--class Collaborator--><g id="elem_Collaborator"><rect codeLine="28" fill="#F1F1F1" height="36.6211" id="Collaborator" rx="2.5" ry="2.5" style="stroke:#181818;stroke-width:0.5;" width="84" x="281" y="501.6211"/><text fill="#000000" font-family="sans-serif" font-size="14" lengthAdjust="spacing" textLength="78" x="284" y="521.7285">Collaborator</text><line style="stroke:#181818;stroke-width:0.5;" x1="282" x2="364" y1="530.2422" y2="530.2422"/></g><!--class HumanResourcesManager--><g id="elem_HumanResourcesManager"><rect codeLine="31" fill="#F1F1F1" height="36.6211" id="HumanResourcesManager" rx="2.5" ry="2.5" style="stroke:#181818;stroke-width:0.5;" width="174" x="7" y="501.6211"/><text fill="#000000" font-family="sans-serif" font-size="14" lengthAdjust="spacing" textLength="168" x="10" y="521.7285">HumanResourcesManager</text><line style="stroke:#181818;stroke-width:0.5;" x1="8" x2="180" y1="530.2422" y2="530.2422"/></g><!--class Skill--><g id="elem_Skill"><rect codeLine="34" fill="#F1F1F1" height="73.8633" id="Skill" rx="2.5" ry="2.5" style="stroke:#181818;stroke-width:0.5;" width="81" x="123.5" y="617.6211"/><text fill="#000000" font-family="sans-serif" font-size="14" lengthAdjust="spacing" textLength="25" x="151.5" y="637.7285">Skill</text><line style="stroke:#181818;stroke-width:0.5;" x1="124.5" x2="203.5" y1="646.2422" y2="646.2422"/><text fill="#000000" font-family="sans-serif" font-size="14" lengthAdjust="spacing" textLength="35" x="129.5" y="665.3496">name</text><text fill="#000000" font-family="sans-serif" font-size="14" lengthAdjust="spacing" textLength="69" x="129.5" y="683.9707">description</text></g><!--class Team--><g id="elem_Team"><rect codeLine="39" fill="#F1F1F1" height="36.6211" id="Team" rx="2.5" ry="2.5" style="stroke:#181818;stroke-width:0.5;" width="42" x="240" y="636.1211"/><text fill="#000000" font-family="sans-serif" font-size="14" lengthAdjust="spacing" textLength="36" x="243" y="656.2285">Team</text><line style="stroke:#181818;stroke-width:0.5;" x1="241" x2="281" y1="664.7422" y2="664.7422"/></g><!--class Task--><g id="elem_Task"><rect codeLine="42" fill="#F1F1F1" height="111.1055" id="Task" rx="2.5" ry="2.5" style="stroke:#181818;stroke-width:0.5;" width="81" x="171.5" y="770.6211"/><text fill="#000000" font-family="sans-serif" font-size="14" lengthAdjust="spacing" textLength="31" x="196.5" y="790.7285">Task</text><line style="stroke:#181818;stroke-width:0.5;" x1="172.5" x2="251.5" y1="799.2422" y2="799.2422"/><text fill="#000000" font-family="sans-serif" font-size="14" lengthAdjust="spacing" textLength="61" x="177.5" y="818.3496">reference</text><text fill="#000000" font-family="sans-serif" font-size="14" lengthAdjust="spacing" textLength="69" x="177.5" y="836.9707">description</text><text fill="#000000" font-family="sans-serif" font-size="14" lengthAdjust="spacing" textLength="52" x="177.5" y="855.5918">duration</text><text fill="#000000" font-family="sans-serif" font-size="14" lengthAdjust="spacing" textLength="26" x="177.5" y="874.2129">cost</text></g><!--link Organization to Employee--><g id="link_Organization_Employee"><path codeLine="48" d="M208,176.6411 C208,201.1211 208,229.3911 208,255.3711 " fill="none" id="Organization-Employee" style="stroke:#181818;stroke-width:1.0;"/><polygon fill="#000000" points="213,221.2666,215.9389,212.2215,210.0611,212.2215,213,221.2666" style="stroke:#000000;stroke-width:1.0;"/><text fill="#000000" font-family="sans-serif" font-size="13" lengthAdjust="spacing" textLength="21" x="222" y="221.6494">has</text><text fill="#000000" font-family="sans-serif" font-size="13" lengthAdjust="spacing" textLength="7" x="200.6391" y="198.2803">1</text><text fill="#000000" font-family="sans-serif" font-size="13" lengthAdjust="spacing" textLength="20" x="187.1406" y="244.4855">1..*</text></g><!--link Employee to HumanResourcesManager--><g id="link_Employee_HumanResourcesManager"><path codeLine="49" d="M155.84,422.0211 C136.84,451.8511 117.12,482.8111 105.21,501.5211 " fill="none" id="Employee-HumanResourcesManager" style="stroke:#181818;stroke-width:1.0;"/><polygon fill="#000000" points="137.3141,466.484,144.6518,460.4334,139.694,457.276,137.3141,466.484" style="stroke:#000000;stroke-width:1.0;"/><text fill="#000000" font-family="sans-serif" font-size="13" lengthAdjust="spacing" textLength="10" x="149" y="467.6494">is</text><text fill="#000000" font-family="sans-serif" font-size="13" lengthAdjust="spacing" textLength="7" x="141.0128" y="429.5346">1</text><text fill="#000000" font-family="sans-serif" font-size="13" lengthAdjust="spacing" textLength="20" x="85.5806" y="490.3526">1..*</text></g><!--link Employee to Collaborator--><g id="link_Employee_Collaborator"><path codeLine="50" d="M260.12,421.2411 C279.37,451.2111 299.44,482.4511 311.58,501.3411 " fill="none" id="Employee-Collaborator" style="stroke:#181818;stroke-width:1.0;"/><polygon fill="#000000" points="299.7026,466.4733,297.2862,457.2748,292.341,460.4519,299.7026,466.4733" style="stroke:#000000;stroke-width:1.0;"/><text fill="#000000" font-family="sans-serif" font-size="13" lengthAdjust="spacing" textLength="10" x="306" y="467.6494">is</text><text fill="#000000" font-family="sans-serif" font-size="13" lengthAdjust="spacing" textLength="7" x="267.9416" y="428.6449">1</text><text fill="#000000" font-family="sans-serif" font-size="13" lengthAdjust="spacing" textLength="20" x="285.2879" y="490.4543">1..*</text></g><!--link HumanResourcesManager to Team--><g id="link_HumanResourcesManager_Team"><path codeLine="51" d="M112.51,538.7911 C127.64,552.8111 149.9,572.4911 171,587.6211 C192.37,602.9411 200.88,601.9511 222,617.6211 C229.4,623.1111 236.97,629.8111 243.45,635.9311 " fill="none" id="HumanResourcesManager-Team" style="stroke:#181818;stroke-width:1.0;"/><polygon fill="#000000" points="180.0156,581.2457,174.5023,573.4962,171.0002,578.2168,180.0156,581.2457" style="stroke:#000000;stroke-width:1.0;"/><text fill="#000000" font-family="sans-serif" font-size="13" lengthAdjust="spacing" textLength="50" x="185" y="583.6494">registers</text><text fill="#000000" font-family="sans-serif" font-size="13" lengthAdjust="spacing" textLength="7" x="109.5439" y="560.2114">1</text><text fill="#000000" font-family="sans-serif" font-size="13" lengthAdjust="spacing" textLength="20" x="215.0128" y="624.7351">1..*</text></g><!--link HumanResourcesManager to Collaborator--><g id="link_HumanResourcesManager_Collaborator"><path codeLine="52" d="M181.23,520.1211 C215.36,520.1211 252.91,520.1211 280.8,520.1211 " fill="none" id="HumanResourcesManager-Collaborator" style="stroke:#181818;stroke-width:1.0;"/><polygon fill="#000000" points="208.5,507.7666,199.4549,504.8277,199.4549,510.7055,208.5,507.7666" style="stroke:#000000;stroke-width:1.0;"/><text fill="#000000" font-family="sans-serif" font-size="13" lengthAdjust="spacing" textLength="50" x="212.5" y="513.1494">registers</text><text fill="#000000" font-family="sans-serif" font-size="13" lengthAdjust="spacing" textLength="7" x="189.0271" y="516.4477">1</text><text fill="#000000" font-family="sans-serif" font-size="13" lengthAdjust="spacing" textLength="20" x="253.1331" y="535.447">1..*</text></g><!--link HumanResourcesManager to Skill--><g id="link_HumanResourcesManager_Skill"><path codeLine="53" d="M76.61,538.6211 C65.32,552.2011 54.21,571.3811 63,587.6211 C75.81,611.2911 101.21,627.8311 123.33,638.4311 " fill="none" id="HumanResourcesManager-Skill" style="stroke:#181818;stroke-width:1.0;"/><polygon fill="#000000" points="70.1197,582.795,68.9469,573.3571,63.6234,575.849,70.1197,582.795" style="stroke:#000000;stroke-width:1.0;"/><text fill="#000000" font-family="sans-serif" font-size="13" lengthAdjust="spacing" textLength="50" x="77" y="583.6494">registers</text><text fill="#000000" font-family="sans-serif" font-size="13" lengthAdjust="spacing" textLength="7" x="63.7347" y="560.3374">1</text><text fill="#000000" font-family="sans-serif" font-size="13" lengthAdjust="spacing" textLength="20" x="95.5712" y="631.7115">1..*</text></g><!--link Collaborator to Skill--><g id="link_Collaborator_Skill"><path codeLine="54" d="M301.89,538.7111 C277.13,559.3411 235.56,593.9911 204.52,619.8611 " fill="none" id="Collaborator-Skill" style="stroke:#181818;stroke-width:1.0;"/><polygon fill="#000000" points="264.1591,581.4677,272.989,577.9345,269.2258,573.4192,264.1591,581.4677" style="stroke:#000000;stroke-width:1.0;"/><text fill="#000000" font-family="sans-serif" font-size="13" lengthAdjust="spacing" textLength="21" x="277" y="583.6494">has</text><text fill="#000000" font-family="sans-serif" font-size="13" lengthAdjust="spacing" textLength="7" x="288.2761" y="560.1099">1</text><text fill="#000000" font-family="sans-serif" font-size="13" lengthAdjust="spacing" textLength="20" x="212.5716" y="610.0289">0..*</text></g><!--link Collaborator to Team--><g id="link_Collaborator_Team"><path codeLine="55" d="M322.8,538.7411 C322.07,552.5511 319.77,571.9811 313,587.6211 C305.07,605.9611 290.73,623.5711 279.12,635.9811 " fill="none" id="Collaborator-Team" style="stroke:#181818;stroke-width:1.0;"/><polygon fill="#000000" points="320.9512,582.8276,327.3384,575.7809,321.9766,573.3725,320.9512,582.8276" style="stroke:#000000;stroke-width:1.0;"/><text fill="#000000" font-family="sans-serif" font-size="13" lengthAdjust="spacing" textLength="21" x="332" y="583.6494">has</text><text fill="#000000" font-family="sans-serif" font-size="13" lengthAdjust="spacing" textLength="20" x="300.0588" y="560.1479">1..*</text><text fill="#000000" font-family="sans-serif" font-size="13" lengthAdjust="spacing" textLength="7" x="276.5974" y="624.8004">1</text></g><!--link Skill to Task--><g id="link_Skill_Task"><path codeLine="56" d="M161.12,691.7211 C160.85,707.0311 161.81,724.9311 166,740.6211 C168.67,750.6311 172.75,760.7411 177.39,770.3311 " fill="none" id="Skill-Task" style="stroke:#181818;stroke-width:1.0;"/><polygon fill="#000000" points="169.9866,726.3704,168.9419,735.8234,174.6978,734.6321,169.9866,726.3704" style="stroke:#000000;stroke-width:1.0;"/><text fill="#000000" font-family="sans-serif" font-size="13" lengthAdjust="spacing" textLength="35" x="180" y="736.6494">needs</text><text fill="#000000" font-family="sans-serif" font-size="13" lengthAdjust="spacing" textLength="20" x="138.9063" y="713.6237">1..*</text><text fill="#000000" font-family="sans-serif" font-size="13" lengthAdjust="spacing" textLength="7" x="165.7453" y="759.5354">1</text></g><!--link Team to Task--><g id="link_Team_Task"><path codeLine="57" d="M255.94,673.1211 C249.36,695.8711 237.57,736.6811 227.85,770.2811 " fill="none" id="Team-Task" style="stroke:#181818;stroke-width:1.0;"/><polygon fill="#000000" points="244.6113,736.0699,249.9468,728.1969,244.3002,726.5644,244.6113,736.0699" style="stroke:#000000;stroke-width:1.0;"/><text fill="#000000" font-family="sans-serif" font-size="13" lengthAdjust="spacing" textLength="53" x="255" y="736.6494">executes</text><text fill="#000000" font-family="sans-serif" font-size="13" lengthAdjust="spacing" textLength="7" x="246.5325" y="694.8374">1</text><text fill="#000000" font-family="sans-serif" font-size="13" lengthAdjust="spacing" textLength="7" x="222.3552" y="759.4793">1</text></g><!--SRC=[ZPDDRzD048Rl-oj6kLH2QWa7BXL2gW093WM91ExZtOazodvOCsjAMlM_izcaZXtAXo_UyJplEnyhwvPZZu81Geh9Tf82GPQ1Z8wP7kqMMrhbdISGiXbZwwU0TkZI7SSMDkXrch4ULMzo5cw6J9ziYYk-9rYQYnFZELBUzGH9SfVCXQTDXfn0kEqoEDvNv1HDnux0ijXIkvu35TwfCPbpwUoRae3c93jOBb_3-nIG8zmcHzxKFk2Bj1Zv7lTsy62WF143rSCFp9-7q93Kw8uQvNp8z5sADCbHyVNcyUZv8VG-xOZE_HekqpWyUbJDo-fKOtI1LKiN8_7zPWtnL0IT4rAjPqbbuaTpBFWkUOzD4YoJFfm-Vnm2ng-aQH1BUekntDWqlzgozsSzEb8htDVjZk2QC4nqQzJjSJQX3Gb5-xkuneFW6DYakNZC5hvujO3Bo_AwkdgnEEtj6ZfKU6l63tFksRcAYF-YcQxe2NtUPwxRZrvuePOra_n3zeTg_waUvVLYpdGpooTyESCFIpi3Ar6jns4Et45r1knlzXeYaLDuOoe_jZQcwIVPykiMary0]--></g></svg>