<?xml version="1.0" encoding="us-ascii" standalone="no"?><svg xmlns="http://www.w3.org/2000/svg" xmlns:xlink="http://www.w3.org/1999/xlink" contentStyleType="text/css" height="417px" preserveAspectRatio="none" style="width:821px;height:417px;background:#FFFFFF;" version="1.1" viewBox="0 0 821 417" width="821px" zoomAndPan="magnify"><defs/><g><rect fill="#FFFFFF" height="261.3281" style="stroke:#181818;stroke-width:1.0;" width="10" x="337" y="90.5332"/><rect fill="#FFFFFF" height="31.291" style="stroke:#181818;stroke-width:1.0;" width="10" x="508" y="148.1152"/><rect fill="#FFFFFF" height="31.291" style="stroke:#181818;stroke-width:1.0;" width="10" x="615" y="210.6973"/><rect fill="#FFFFFF" height="31.291" style="stroke:#181818;stroke-width:1.0;" width="10" x="737" y="273.2793"/><rect fill="none" height="207.0371" style="stroke:#000000;stroke-width:1.5;" width="596" x="219.5" y="105.5332"/><line style="stroke:#181818;stroke-width:0.5;stroke-dasharray:5.0,5.0;" x1="341.5" x2="341.5" y1="57.2422" y2="360.8613"/><line style="stroke:#181818;stroke-width:0.5;stroke-dasharray:5.0,5.0;" x1="512.5" x2="512.5" y1="57.2422" y2="360.8613"/><line style="stroke:#181818;stroke-width:0.5;stroke-dasharray:5.0,5.0;" x1="619.5" x2="619.5" y1="57.2422" y2="360.8613"/><line style="stroke:#181818;stroke-width:0.5;stroke-dasharray:5.0,5.0;" x1="741.5" x2="741.5" y1="57.2422" y2="360.8613"/><rect fill="#E3E3E3" height="32.6211" rx="2.5" ry="2.5" style="stroke:#181818;stroke-width:0.5;" width="225" x="229.5" y="23.6211"/><text fill="#000000" font-family="sans-serif" font-size="14" lengthAdjust="spacing" textLength="211" x="236.5" y="45.7285">:AssignSkillCollaboratorController</text><rect fill="#E3E3E3" height="32.6211" rx="2.5" ry="2.5" style="stroke:#181818;stroke-width:0.5;" width="225" x="229.5" y="359.8613"/><text fill="#000000" font-family="sans-serif" font-size="14" lengthAdjust="spacing" textLength="211" x="236.5" y="381.9688">:AssignSkillCollaboratorController</text><rect fill="#E3E3E3" height="32.6211" rx="2.5" ry="2.5" style="stroke:#181818;stroke-width:0.5;" width="97" x="464.5" y="23.6211"/><text fill="#000000" font-family="sans-serif" font-size="14" lengthAdjust="spacing" textLength="83" x="471.5" y="45.7285">:Repositories</text><rect fill="#E3E3E3" height="32.6211" rx="2.5" ry="2.5" style="stroke:#181818;stroke-width:0.5;" width="97" x="464.5" y="359.8613"/><text fill="#000000" font-family="sans-serif" font-size="14" lengthAdjust="spacing" textLength="83" x="471.5" y="381.9688">:Repositories</text><rect fill="#E3E3E3" height="51.2422" rx="2.5" ry="2.5" style="stroke:#181818;stroke-width:0.5;" width="97" x="571.5" y="5"/><text fill="#000000" font-family="sans-serif" font-size="14" lengthAdjust="spacing" textLength="74" x="583" y="27.1074">repositories</text><text fill="#000000" font-family="sans-serif" font-size="14" lengthAdjust="spacing" textLength="83" x="578.5" y="45.7285">:Repositories</text><rect fill="#E3E3E3" height="51.2422" rx="2.5" ry="2.5" style="stroke:#181818;stroke-width:0.5;" width="97" x="571.5" y="359.8613"/><text fill="#000000" font-family="sans-serif" font-size="14" lengthAdjust="spacing" textLength="74" x="583" y="381.9688">repositories</text><text fill="#000000" font-family="sans-serif" font-size="14" lengthAdjust="spacing" textLength="83" x="578.5" y="400.5898">:Repositories</text><rect fill="#E3E3E3" height="32.6211" rx="2.5" ry="2.5" style="stroke:#181818;stroke-width:0.5;" width="127" x="678.5" y="23.6211"/><text fill="#000000" font-family="sans-serif" font-size="14" lengthAdjust="spacing" textLength="113" x="685.5" y="45.7285">getSkillRepository</text><rect fill="#E3E3E3" height="32.6211" rx="2.5" ry="2.5" style="stroke:#181818;stroke-width:0.5;" width="127" x="678.5" y="359.8613"/><text fill="#000000" font-family="sans-serif" font-size="14" lengthAdjust="spacing" textLength="113" x="685.5" y="381.9688">getSkillRepository</text><rect fill="#FFFFFF" height="261.3281" style="stroke:#181818;stroke-width:1.0;" width="10" x="337" y="90.5332"/><rect fill="#FFFFFF" height="31.291" style="stroke:#181818;stroke-width:1.0;" width="10" x="508" y="148.1152"/><rect fill="#FFFFFF" height="31.291" style="stroke:#181818;stroke-width:1.0;" width="10" x="615" y="210.6973"/><rect fill="#FFFFFF" height="31.291" style="stroke:#181818;stroke-width:1.0;" width="10" x="737" y="273.2793"/><polygon fill="#181818" points="325,86.5332,335,90.5332,325,94.5332,329,90.5332" style="stroke:#181818;stroke-width:1.0;"/><line style="stroke:#181818;stroke-width:1.0;" x1="0" x2="331" y1="90.5332" y2="90.5332"/><text fill="#000000" font-family="sans-serif" font-size="13" font-weight="bold" lengthAdjust="spacing" textLength="7" x="7" y="85.2705">6</text><text fill="#000000" font-family="sans-serif" font-size="13" lengthAdjust="spacing" textLength="307" x="18" y="85.2705">getSkillListPossibleToBeAdded(selectedCollaborator)</text><path d="M219.5,105.5332 L482.5,105.5332 L482.5,114.8242 L472.5,124.8242 L219.5,124.8242 L219.5,105.5332 " fill="#EEEEEE" style="stroke:#000000;stroke-width:1.5;"/><rect fill="none" height="207.0371" style="stroke:#000000;stroke-width:1.5;" width="596" x="219.5" y="105.5332"/><text fill="#000000" font-family="sans-serif" font-size="13" font-weight="bold" lengthAdjust="spacing" textLength="218" x="234.5" y="120.5615">Get Skill List Possible to be Added</text><polygon fill="#181818" points="496,144.1152,506,148.1152,496,152.1152,500,148.1152" style="stroke:#181818;stroke-width:1.0;"/><line style="stroke:#181818;stroke-width:1.0;" x1="347" x2="502" y1="148.1152" y2="148.1152"/><text fill="#000000" font-family="sans-serif" font-size="13" font-weight="bold" lengthAdjust="spacing" textLength="18" x="354" y="142.8525">6.1</text><text fill="#000000" font-family="sans-serif" font-size="13" lengthAdjust="spacing" textLength="75" x="376" y="142.8525">getInstance()</text><polygon fill="#181818" points="358,175.4063,348,179.4063,358,183.4063,354,179.4063" style="stroke:#181818;stroke-width:1.0;"/><line style="stroke:#181818;stroke-width:1.0;stroke-dasharray:2.0,2.0;" x1="352" x2="512" y1="179.4063" y2="179.4063"/><text fill="#000000" font-family="sans-serif" font-size="13" font-weight="bold" lengthAdjust="spacing" textLength="18" x="364" y="174.1436">6.2</text><text fill="#000000" font-family="sans-serif" font-size="13" lengthAdjust="spacing" textLength="67" x="386" y="174.1436">repositories</text><polygon fill="#181818" points="603,206.6973,613,210.6973,603,214.6973,607,210.6973" style="stroke:#181818;stroke-width:1.0;"/><line style="stroke:#181818;stroke-width:1.0;" x1="347" x2="609" y1="210.6973" y2="210.6973"/><text fill="#000000" font-family="sans-serif" font-size="13" font-weight="bold" lengthAdjust="spacing" textLength="18" x="354" y="205.4346">6.3</text><text fill="#000000" font-family="sans-serif" font-size="13" lengthAdjust="spacing" textLength="113" x="376" y="205.4346">getSkillRepository()</text><polygon fill="#181818" points="358,237.9883,348,241.9883,358,245.9883,354,241.9883" style="stroke:#181818;stroke-width:1.0;"/><line style="stroke:#181818;stroke-width:1.0;stroke-dasharray:2.0,2.0;" x1="352" x2="619" y1="241.9883" y2="241.9883"/><text fill="#000000" font-family="sans-serif" font-size="13" font-weight="bold" lengthAdjust="spacing" textLength="18" x="364" y="236.7256">6.4</text><text fill="#000000" font-family="sans-serif" font-size="13" lengthAdjust="spacing" textLength="85" x="386" y="236.7256">skillRepository</text><polygon fill="#181818" points="725,269.2793,735,273.2793,725,277.2793,729,273.2793" style="stroke:#181818;stroke-width:1.0;"/><line style="stroke:#181818;stroke-width:1.0;" x1="347" x2="731" y1="273.2793" y2="273.2793"/><text fill="#000000" font-family="sans-serif" font-size="13" font-weight="bold" lengthAdjust="spacing" textLength="18" x="354" y="268.0166">6.5</text><text fill="#000000" font-family="sans-serif" font-size="13" lengthAdjust="spacing" textLength="58" x="376" y="268.0166">getSkills()</text><polygon fill="#181818" points="358,300.5703,348,304.5703,358,308.5703,354,304.5703" style="stroke:#181818;stroke-width:1.0;"/><line style="stroke:#181818;stroke-width:1.0;stroke-dasharray:2.0,2.0;" x1="352" x2="741" y1="304.5703" y2="304.5703"/><text fill="#000000" font-family="sans-serif" font-size="13" font-weight="bold" lengthAdjust="spacing" textLength="18" x="364" y="299.3076">6.6</text><text fill="#000000" font-family="sans-serif" font-size="13" lengthAdjust="spacing" textLength="44" x="386" y="299.3076">skillList</text><polygon fill="#181818" points="11,338.8613,1,342.8613,11,346.8613,7,342.8613" style="stroke:#181818;stroke-width:1.0;"/><line style="stroke:#181818;stroke-width:1.0;stroke-dasharray:2.0,2.0;" x1="5" x2="336" y1="342.8613" y2="342.8613"/><text fill="#000000" font-family="sans-serif" font-size="13" font-weight="bold" lengthAdjust="spacing" textLength="7" x="17" y="337.5986">7</text><text fill="#000000" font-family="sans-serif" font-size="13" lengthAdjust="spacing" textLength="44" x="28" y="337.5986">skillList</text><!--SRC=[dPEnQiCm48PtFSMHAHbSwD92A8KqGoba24d6BcVxweZ8EYF9BNdxoWfs7CKjsBVPqltwz4co9wahD5X2oPgpe-6Im9cQXEr6AinEMD3UdHM1eSoXBbH_WZrYpZzI5_25ofBmvGUSp6I5si5ikR9M5df_aagjMIbCsQ1ZisRjZFycCmEqi3xiDb7ZZYgsqa-LPCESxiTvBniAn_gsnVGwFlLzm7QpEjns5EG2sJKwJ8p- -JrXxLUhovGCF8daDV0keMtVIEksx3UQAZhm6wtodFAv9UM5KTxVzk8swk5HOERaDpgwA2WCrnNuUYTtmO0c7DfqS0mfGLX0m70rGU0P1tn1OFxGrfzZHlF5Nn53rO4EdSEOeAQ6s9BEQ_yWnoJdz2_aYAJMONDbu7hGrzI9xi8L72ihGBHsF8sDhkSqGwDHMYUHYPuUEz7AtNiRAIWcYbqrJsYYfHYDT2ukVBrt_2nUakH-HV4B]--></g></svg>