<?xml version="1.0" encoding="us-ascii" standalone="no"?><svg xmlns="http://www.w3.org/2000/svg" xmlns:xlink="http://www.w3.org/1999/xlink" contentStyleType="text/css" height="909px" preserveAspectRatio="none" style="width:1043px;height:909px;background:#FFFFFF;" version="1.1" viewBox="0 0 1043 909" width="1043px" zoomAndPan="magnify"><defs/><g><!--class AssignSkillCollaboratorUI--><g id="elem_AssignSkillCollaboratorUI"><rect codeLine="13" fill="#F1F1F1" height="48" id="AssignSkillCollaboratorUI" rx="2.5" ry="2.5" style="stroke:#181818;stroke-width:0.5;" width="189" x="30.5" y="63"/><ellipse cx="45.5" cy="79" fill="#ADD1B2" rx="11" ry="11" style="stroke:#181818;stroke-width:1.0;"/><path d="M48.2656,74.875 Q48.4219,74.6563 48.6094,74.5469 Q48.7969,74.4375 49.0156,74.4375 Q49.3906,74.4375 49.625,74.7031 Q49.8594,74.9531 49.8594,75.5625 L49.8594,77.0156 Q49.8594,77.625 49.625,77.8906 Q49.3906,78.1563 49.0156,78.1563 Q48.6719,78.1563 48.4688,77.9531 Q48.2656,77.7656 48.1563,77.25 Q48.1094,76.8906 47.9219,76.7031 Q47.5938,76.3281 46.9844,76.1094 Q46.375,75.8906 45.75,75.8906 Q44.9844,75.8906 44.3438,76.2188 Q43.7188,76.5469 43.2188,77.2969 Q42.7344,78.0469 42.7344,79.0781 L42.7344,80.1719 Q42.7344,81.4063 43.625,82.2344 Q44.5156,83.0469 46.1094,83.0469 Q47.0469,83.0469 47.7031,82.7969 Q48.0938,82.6406 48.5156,82.2031 Q48.7813,81.9375 48.9219,81.8594 Q49.0781,81.7813 49.2813,81.7813 Q49.6094,81.7813 49.8594,82.0469 Q50.125,82.2969 50.125,82.6406 Q50.125,82.9844 49.7813,83.3906 Q49.2813,83.9688 48.4844,84.2969 Q47.4063,84.75 46.1094,84.75 Q44.5938,84.75 43.3906,84.125 Q42.4063,83.625 41.7188,82.5625 Q41.0313,81.4844 41.0313,80.2031 L41.0313,79.0469 Q41.0313,77.7188 41.6406,76.5781 Q42.2656,75.4219 43.3594,74.8125 Q44.4531,74.1875 45.6875,74.1875 Q46.4219,74.1875 47.0625,74.3594 Q47.7188,74.5156 48.2656,74.875 Z " fill="#000000"/><text fill="#000000" font-family="sans-serif" font-size="14" lengthAdjust="spacing" textLength="157" x="59.5" y="84.7969">AssignSkillCollaboratorUI</text><line style="stroke:#181818;stroke-width:0.5;" x1="31.5" x2="218.5" y1="95" y2="95"/><line style="stroke:#181818;stroke-width:0.5;" x1="31.5" x2="218.5" y1="103" y2="103"/></g><!--class AssignSkillCollaboratorController--><g id="elem_AssignSkillCollaboratorController"><rect codeLine="17" fill="#F1F1F1" height="159.7266" id="AssignSkillCollaboratorController" rx="2.5" ry="2.5" style="stroke:#181818;stroke-width:0.5;" width="556" x="255" y="7"/><ellipse cx="425.25" cy="23" fill="#ADD1B2" rx="11" ry="11" style="stroke:#181818;stroke-width:1.0;"/><path d="M428.0156,18.875 Q428.1719,18.6563 428.3594,18.5469 Q428.5469,18.4375 428.7656,18.4375 Q429.1406,18.4375 429.375,18.7031 Q429.6094,18.9531 429.6094,19.5625 L429.6094,21.0156 Q429.6094,21.625 429.375,21.8906 Q429.1406,22.1563 428.7656,22.1563 Q428.4219,22.1563 428.2188,21.9531 Q428.0156,21.7656 427.9063,21.25 Q427.8594,20.8906 427.6719,20.7031 Q427.3438,20.3281 426.7344,20.1094 Q426.125,19.8906 425.5,19.8906 Q424.7344,19.8906 424.0938,20.2188 Q423.4688,20.5469 422.9688,21.2969 Q422.4844,22.0469 422.4844,23.0781 L422.4844,24.1719 Q422.4844,25.4063 423.375,26.2344 Q424.2656,27.0469 425.8594,27.0469 Q426.7969,27.0469 427.4531,26.7969 Q427.8438,26.6406 428.2656,26.2031 Q428.5313,25.9375 428.6719,25.8594 Q428.8281,25.7813 429.0313,25.7813 Q429.3594,25.7813 429.6094,26.0469 Q429.875,26.2969 429.875,26.6406 Q429.875,26.9844 429.5313,27.3906 Q429.0313,27.9688 428.2344,28.2969 Q427.1563,28.75 425.8594,28.75 Q424.3438,28.75 423.1406,28.125 Q422.1563,27.625 421.4688,26.5625 Q420.7813,25.4844 420.7813,24.2031 L420.7813,23.0469 Q420.7813,21.7188 421.3906,20.5781 Q422.0156,19.4219 423.1094,18.8125 Q424.2031,18.1875 425.4375,18.1875 Q426.1719,18.1875 426.8125,18.3594 Q427.4688,18.5156 428.0156,18.875 Z " fill="#000000"/><text fill="#000000" font-family="sans-serif" font-size="14" lengthAdjust="spacing" textLength="207" x="445.75" y="28.7969">AssignSkillCollaboratorController</text><line style="stroke:#181818;stroke-width:0.5;" x1="256" x2="810" y1="39" y2="39"/><line style="stroke:#181818;stroke-width:0.5;" x1="256" x2="810" y1="47" y2="47"/><text fill="#000000" font-family="sans-serif" font-size="14" lengthAdjust="spacing" textLength="236" x="261" y="66.1074">+getSkillRepository() : SkillRepository</text><text fill="#000000" font-family="sans-serif" font-size="14" lengthAdjust="spacing" textLength="310" x="261" y="84.7285">+getEmployeeRepository() : EmployeeRepository</text><text fill="#000000" font-family="sans-serif" font-size="14" lengthAdjust="spacing" textLength="348" x="261" y="103.3496">+getCollaboratorListAndSkillsAdded() : List&lt;Employee&gt;</text><text fill="#000000" font-family="sans-serif" font-size="14" lengthAdjust="spacing" textLength="497" x="261" y="121.9707">+getSkillListPossibleToBeAdded(selectedCollaborator : Employee ) : List&lt;Skill&gt;</text><text fill="#000000" font-family="sans-serif" font-size="14" lengthAdjust="spacing" textLength="544" x="261" y="140.5918">+addSkillToCollaboratorProfile(collaborator : Employee , skillsToAdd: List&lt;Skill&gt;) : void</text><text fill="#000000" font-family="sans-serif" font-size="14" lengthAdjust="spacing" textLength="244" x="261" y="159.2129">+printAllEmployeesAndHisSkills() : void</text></g><!--class Repositories--><g id="elem_Repositories"><rect codeLine="27" fill="#F1F1F1" height="103.8633" id="Repositories" rx="2.5" ry="2.5" style="stroke:#181818;stroke-width:0.5;" width="190" x="255" y="246"/><ellipse cx="306.25" cy="262" fill="#ADD1B2" rx="11" ry="11" style="stroke:#181818;stroke-width:1.0;"/><path d="M309.0156,257.875 Q309.1719,257.6563 309.3594,257.5469 Q309.5469,257.4375 309.7656,257.4375 Q310.1406,257.4375 310.375,257.7031 Q310.6094,257.9531 310.6094,258.5625 L310.6094,260.0156 Q310.6094,260.625 310.375,260.8906 Q310.1406,261.1563 309.7656,261.1563 Q309.4219,261.1563 309.2188,260.9531 Q309.0156,260.7656 308.9063,260.25 Q308.8594,259.8906 308.6719,259.7031 Q308.3438,259.3281 307.7344,259.1094 Q307.125,258.8906 306.5,258.8906 Q305.7344,258.8906 305.0938,259.2188 Q304.4688,259.5469 303.9688,260.2969 Q303.4844,261.0469 303.4844,262.0781 L303.4844,263.1719 Q303.4844,264.4063 304.375,265.2344 Q305.2656,266.0469 306.8594,266.0469 Q307.7969,266.0469 308.4531,265.7969 Q308.8438,265.6406 309.2656,265.2031 Q309.5313,264.9375 309.6719,264.8594 Q309.8281,264.7813 310.0313,264.7813 Q310.3594,264.7813 310.6094,265.0469 Q310.875,265.2969 310.875,265.6406 Q310.875,265.9844 310.5313,266.3906 Q310.0313,266.9688 309.2344,267.2969 Q308.1563,267.75 306.8594,267.75 Q305.3438,267.75 304.1406,267.125 Q303.1563,266.625 302.4688,265.5625 Q301.7813,264.4844 301.7813,263.2031 L301.7813,262.0469 Q301.7813,260.7188 302.3906,259.5781 Q303.0156,258.4219 304.1094,257.8125 Q305.2031,257.1875 306.4375,257.1875 Q307.1719,257.1875 307.8125,257.3594 Q308.4688,257.5156 309.0156,257.875 Z " fill="#000000"/><text fill="#000000" font-family="sans-serif" font-size="14" lengthAdjust="spacing" textLength="79" x="326.75" y="267.7969">Repositories</text><line style="stroke:#181818;stroke-width:0.5;" x1="256" x2="444" y1="278" y2="278"/><line style="stroke:#181818;stroke-width:0.5;" x1="256" x2="444" y1="286" y2="286"/><text fill="#000000" font-family="sans-serif" font-size="14" lengthAdjust="spacing" textLength="178" x="261" y="305.1074">+getInstance(): Repositories</text><text fill="#000000" font-family="sans-serif" font-size="14" lengthAdjust="spacing" textLength="168" x="261" y="323.7285">+getEmployeeRepository()</text><text fill="#000000" font-family="sans-serif" font-size="14" lengthAdjust="spacing" textLength="131" x="261" y="342.3496">+getSkillRepository()</text></g><!--class EmployeeRepository--><g id="elem_EmployeeRepository"><rect codeLine="33" fill="#F1F1F1" height="141.1055" id="EmployeeRepository" rx="2.5" ry="2.5" style="stroke:#181818;stroke-width:0.5;" width="668" x="260" y="429"/><ellipse cx="524.75" cy="445" fill="#ADD1B2" rx="11" ry="11" style="stroke:#181818;stroke-width:1.0;"/><path d="M527.5156,440.875 Q527.6719,440.6563 527.8594,440.5469 Q528.0469,440.4375 528.2656,440.4375 Q528.6406,440.4375 528.875,440.7031 Q529.1094,440.9531 529.1094,441.5625 L529.1094,443.0156 Q529.1094,443.625 528.875,443.8906 Q528.6406,444.1563 528.2656,444.1563 Q527.9219,444.1563 527.7188,443.9531 Q527.5156,443.7656 527.4063,443.25 Q527.3594,442.8906 527.1719,442.7031 Q526.8438,442.3281 526.2344,442.1094 Q525.625,441.8906 525,441.8906 Q524.2344,441.8906 523.5938,442.2188 Q522.9688,442.5469 522.4688,443.2969 Q521.9844,444.0469 521.9844,445.0781 L521.9844,446.1719 Q521.9844,447.4063 522.875,448.2344 Q523.7656,449.0469 525.3594,449.0469 Q526.2969,449.0469 526.9531,448.7969 Q527.3438,448.6406 527.7656,448.2031 Q528.0313,447.9375 528.1719,447.8594 Q528.3281,447.7813 528.5313,447.7813 Q528.8594,447.7813 529.1094,448.0469 Q529.375,448.2969 529.375,448.6406 Q529.375,448.9844 529.0313,449.3906 Q528.5313,449.9688 527.7344,450.2969 Q526.6563,450.75 525.3594,450.75 Q523.8438,450.75 522.6406,450.125 Q521.6563,449.625 520.9688,448.5625 Q520.2813,447.4844 520.2813,446.2031 L520.2813,445.0469 Q520.2813,443.7188 520.8906,442.5781 Q521.5156,441.4219 522.6094,440.8125 Q523.7031,440.1875 524.9375,440.1875 Q525.6719,440.1875 526.3125,440.3594 Q526.9688,440.5156 527.5156,440.875 Z " fill="#000000"/><text fill="#000000" font-family="sans-serif" font-size="14" lengthAdjust="spacing" textLength="130" x="545.25" y="450.7969">EmployeeRepository</text><line style="stroke:#181818;stroke-width:0.5;" x1="261" x2="927" y1="461" y2="461"/><text fill="#000000" font-family="sans-serif" font-size="14" lengthAdjust="spacing" textLength="200" x="266" y="480.1074">-employeeList : List&lt;Employee&gt;</text><line style="stroke:#181818;stroke-width:0.5;" x1="261" x2="927" y1="487.6211" y2="487.6211"/><text fill="#000000" font-family="sans-serif" font-size="14" lengthAdjust="spacing" textLength="212" x="266" y="506.7285">+getEmployee() : List&lt;Employee&gt;</text><text fill="#000000" font-family="sans-serif" font-size="14" lengthAdjust="spacing" textLength="342" x="266" y="525.3496">+getEmployeeSkills(employee : Employee) : List&lt;Skill&gt;</text><text fill="#000000" font-family="sans-serif" font-size="14" lengthAdjust="spacing" textLength="656" x="266" y="543.9707">+addSkillsToCollaboratorProfile(collaborator : Employee, skillsToAdd : List&lt;Skill&gt;) : Optional&lt;Employee&gt;</text><text fill="#000000" font-family="sans-serif" font-size="14" lengthAdjust="spacing" textLength="244" x="266" y="562.5918">+printAllEmployeesAndHisSkills() : void</text></g><!--class SkillRepository--><g id="elem_SkillRepository"><rect codeLine="42" fill="#F1F1F1" height="85.2422" id="SkillRepository" rx="2.5" ry="2.5" style="stroke:#181818;stroke-width:0.5;" width="218" x="7" y="457"/><ellipse cx="65.25" cy="473" fill="#ADD1B2" rx="11" ry="11" style="stroke:#181818;stroke-width:1.0;"/><path d="M68.0156,468.875 Q68.1719,468.6563 68.3594,468.5469 Q68.5469,468.4375 68.7656,468.4375 Q69.1406,468.4375 69.375,468.7031 Q69.6094,468.9531 69.6094,469.5625 L69.6094,471.0156 Q69.6094,471.625 69.375,471.8906 Q69.1406,472.1563 68.7656,472.1563 Q68.4219,472.1563 68.2188,471.9531 Q68.0156,471.7656 67.9063,471.25 Q67.8594,470.8906 67.6719,470.7031 Q67.3438,470.3281 66.7344,470.1094 Q66.125,469.8906 65.5,469.8906 Q64.7344,469.8906 64.0938,470.2188 Q63.4688,470.5469 62.9688,471.2969 Q62.4844,472.0469 62.4844,473.0781 L62.4844,474.1719 Q62.4844,475.4063 63.375,476.2344 Q64.2656,477.0469 65.8594,477.0469 Q66.7969,477.0469 67.4531,476.7969 Q67.8438,476.6406 68.2656,476.2031 Q68.5313,475.9375 68.6719,475.8594 Q68.8281,475.7813 69.0313,475.7813 Q69.3594,475.7813 69.6094,476.0469 Q69.875,476.2969 69.875,476.6406 Q69.875,476.9844 69.5313,477.3906 Q69.0313,477.9688 68.2344,478.2969 Q67.1563,478.75 65.8594,478.75 Q64.3438,478.75 63.1406,478.125 Q62.1563,477.625 61.4688,476.5625 Q60.7813,475.4844 60.7813,474.2031 L60.7813,473.0469 Q60.7813,471.7188 61.3906,470.5781 Q62.0156,469.4219 63.1094,468.8125 Q64.2031,468.1875 65.4375,468.1875 Q66.1719,468.1875 66.8125,468.3594 Q67.4688,468.5156 68.0156,468.875 Z " fill="#000000"/><text fill="#000000" font-family="sans-serif" font-size="14" lengthAdjust="spacing" textLength="93" x="85.75" y="478.7969">SkillRepository</text><line style="stroke:#181818;stroke-width:0.5;" x1="8" x2="224" y1="489" y2="489"/><text fill="#000000" font-family="sans-serif" font-size="14" lengthAdjust="spacing" textLength="144" x="13" y="508.1074">-listOfSkills : List&lt;Skill&gt;</text><line style="stroke:#181818;stroke-width:0.5;" x1="8" x2="224" y1="515.6211" y2="515.6211"/><text fill="#000000" font-family="sans-serif" font-size="14" lengthAdjust="spacing" textLength="206" x="13" y="534.7285">+getSkills() : Optional&lt;List&lt;Skill&gt;</text></g><!--class Employee--><g id="elem_Employee"><rect codeLine="48" fill="#F1F1F1" height="271.4531" id="Employee" rx="2.5" ry="2.5" style="stroke:#181818;stroke-width:0.5;" width="547" x="320.5" y="631"/><ellipse cx="558.75" cy="647" fill="#ADD1B2" rx="11" ry="11" style="stroke:#181818;stroke-width:1.0;"/><path d="M561.5156,642.875 Q561.6719,642.6563 561.8594,642.5469 Q562.0469,642.4375 562.2656,642.4375 Q562.6406,642.4375 562.875,642.7031 Q563.1094,642.9531 563.1094,643.5625 L563.1094,645.0156 Q563.1094,645.625 562.875,645.8906 Q562.6406,646.1563 562.2656,646.1563 Q561.9219,646.1563 561.7188,645.9531 Q561.5156,645.7656 561.4063,645.25 Q561.3594,644.8906 561.1719,644.7031 Q560.8438,644.3281 560.2344,644.1094 Q559.625,643.8906 559,643.8906 Q558.2344,643.8906 557.5938,644.2188 Q556.9688,644.5469 556.4688,645.2969 Q555.9844,646.0469 555.9844,647.0781 L555.9844,648.1719 Q555.9844,649.4063 556.875,650.2344 Q557.7656,651.0469 559.3594,651.0469 Q560.2969,651.0469 560.9531,650.7969 Q561.3438,650.6406 561.7656,650.2031 Q562.0313,649.9375 562.1719,649.8594 Q562.3281,649.7813 562.5313,649.7813 Q562.8594,649.7813 563.1094,650.0469 Q563.375,650.2969 563.375,650.6406 Q563.375,650.9844 563.0313,651.3906 Q562.5313,651.9688 561.7344,652.2969 Q560.6563,652.75 559.3594,652.75 Q557.8438,652.75 556.6406,652.125 Q555.6563,651.625 554.9688,650.5625 Q554.2813,649.4844 554.2813,648.2031 L554.2813,647.0469 Q554.2813,645.7188 554.8906,644.5781 Q555.5156,643.4219 556.6094,642.8125 Q557.7031,642.1875 558.9375,642.1875 Q559.6719,642.1875 560.3125,642.3594 Q560.9688,642.5156 561.5156,642.875 Z " fill="#000000"/><text fill="#000000" font-family="sans-serif" font-size="14" lengthAdjust="spacing" textLength="62" x="579.25" y="652.7969">Employee</text><line style="stroke:#181818;stroke-width:0.5;" x1="321.5" x2="866.5" y1="663" y2="663"/><text fill="#000000" font-family="sans-serif" font-size="14" lengthAdjust="spacing" textLength="89" x="326.5" y="682.1074">-name : String</text><text fill="#000000" font-family="sans-serif" font-size="14" lengthAdjust="spacing" textLength="103" x="326.5" y="700.7285">-birthdate : Date</text><text fill="#000000" font-family="sans-serif" font-size="14" lengthAdjust="spacing" textLength="87" x="326.5" y="719.3496">-email : String</text><text fill="#000000" font-family="sans-serif" font-size="14" lengthAdjust="spacing" textLength="121" x="326.5" y="737.9707">-phoneNumber : int</text><text fill="#000000" font-family="sans-serif" font-size="14" lengthAdjust="spacing" textLength="142" x="326.5" y="756.5918">-admission date : Date</text><text fill="#000000" font-family="sans-serif" font-size="14" lengthAdjust="spacing" textLength="157" x="326.5" y="775.2129">-taxpayerNumber : String</text><text fill="#000000" font-family="sans-serif" font-size="14" lengthAdjust="spacing" textLength="105" x="326.5" y="793.834">-address : String</text><text fill="#000000" font-family="sans-serif" font-size="14" lengthAdjust="spacing" textLength="126" x="326.5" y="812.4551">-docNumber : String</text><text fill="#000000" font-family="sans-serif" font-size="14" lengthAdjust="spacing" textLength="100" x="326.5" y="831.0762">-jobTitle : String</text><line style="stroke:#181818;stroke-width:0.5;" x1="321.5" x2="866.5" y1="838.5898" y2="838.5898"/><text fill="#000000" font-family="sans-serif" font-size="14" lengthAdjust="spacing" textLength="145" x="326.5" y="857.6973">+getSkills() : List&lt;Skill&gt;</text><text fill="#000000" font-family="sans-serif" font-size="14" lengthAdjust="spacing" textLength="259" x="326.5" y="876.3184">+addSkills(skillsToAdd : List&lt;Skill&gt;) : void</text><text fill="#000000" font-family="sans-serif" font-size="14" lengthAdjust="spacing" textLength="535" x="326.5" y="894.9395">+getAvailableSkillsToAddToCollaborator(skillRepository : SkillRepository) : List&lt;Skill&gt;</text></g><!--link AssignSkillCollaboratorController to Repositories--><g id="link_AssignSkillCollaboratorController_Repositories"><path codeLine="63" d="M463.82,167.01 C440.74,193.37 419.5921,217.5155 398.8621,241.1955 " fill="none" id="AssignSkillCollaboratorController-to-Repositories" style="stroke:#181818;stroke-width:1.0;stroke-dasharray:7.0,7.0;"/><polygon fill="#181818" points="394.91,245.71,403.8478,241.573,398.2034,241.9479,397.8285,236.3035,394.91,245.71" style="stroke:#181818;stroke-width:1.0;"/><text fill="#000000" font-family="sans-serif" font-size="13" lengthAdjust="spacing" textLength="67" x="437" y="212.0283">repositories</text></g><!--link AssignSkillCollaboratorController to Employee--><g id="link_AssignSkillCollaboratorController_Employee"><path codeLine="64" d="M628.79,167.09 C750.79,267.82 946,429 946,429 C946,429 946,570 946,570 C946,570 902.7752,594.0067 841.7952,627.8767 " fill="none" id="AssignSkillCollaboratorController-to-Employee" style="stroke:#181818;stroke-width:1.0;stroke-dasharray:7.0,7.0;"/><polygon fill="#181818" points="836.55,630.79,846.3601,629.9168,840.921,628.3622,842.4756,622.9232,836.55,630.79" style="stroke:#181818;stroke-width:1.0;"/><text fill="#000000" font-family="sans-serif" font-size="13" lengthAdjust="spacing" textLength="126" x="909" y="395.0283">employee : Employee</text></g><!--link AssignSkillCollaboratorController to SkillRepository--><g id="link_AssignSkillCollaboratorController_SkillRepository"><path codeLine="65" d="M341.22,167.12 C245.56,206.58 150,246 150,246 C150,246 132.071,379.1437 122.411,450.8537 " fill="none" id="AssignSkillCollaboratorController-to-SkillRepository" style="stroke:#181818;stroke-width:1.0;stroke-dasharray:7.0,7.0;"/><polygon fill="#181818" points="121.61,456.8,126.7757,448.4146,122.2775,451.8448,118.8473,447.3466,121.61,456.8" style="stroke:#181818;stroke-width:1.0;"/><text fill="#000000" font-family="sans-serif" font-size="13" lengthAdjust="spacing" textLength="85" x="151" y="303.5283">skillRepository</text></g><!--link AssignSkillCollaboratorController to EmployeeRepository--><g id="link_AssignSkillCollaboratorController_EmployeeRepository"><path codeLine="66" d="M544.76,167.15 C556.03,242.98 571.9876,350.3852 582.7676,422.8852 " fill="none" id="AssignSkillCollaboratorController-to-EmployeeRepository" style="stroke:#181818;stroke-width:1.0;stroke-dasharray:7.0,7.0;"/><polygon fill="#181818" points="583.65,428.82,586.2828,419.3296,582.9146,423.8744,578.3698,420.5062,583.65,428.82" style="stroke:#181818;stroke-width:1.0;"/><text fill="#000000" font-family="sans-serif" font-size="13" lengthAdjust="spacing" textLength="118" x="572" y="303.5283">employeeRepository</text></g><!--link Repositories to EmployeeRepository--><g id="link_Repositories_EmployeeRepository"><path codeLine="67" d="M412.52,350.12 C441.75,374.01 472.3656,399.0414 503.9956,424.9114 " fill="none" id="Repositories-to-EmployeeRepository" style="stroke:#181818;stroke-width:1.0;"/><polygon fill="#181818" points="508.64,428.71,504.2058,419.9158,504.7697,425.5445,499.141,426.1083,508.64,428.71" style="stroke:#181818;stroke-width:1.0;"/><text fill="#000000" font-family="sans-serif" font-size="13" lengthAdjust="spacing" textLength="7" x="413.0819" y="371.9427">1</text><text fill="#000000" font-family="sans-serif" font-size="13" lengthAdjust="spacing" textLength="7" x="492.4763" y="417.5711">1</text></g><!--link Repositories to SkillRepository--><g id="link_Repositories_SkillRepository"><path codeLine="68" d="M290.04,350.12 C251.18,383.25 205.7659,421.9673 169.3459,453.0173 " fill="none" id="Repositories-to-SkillRepository" style="stroke:#181818;stroke-width:1.0;"/><polygon fill="#181818" points="164.78,456.91,174.2239,454.1149,168.5849,453.6661,169.0337,448.0271,164.78,456.91" style="stroke:#181818;stroke-width:1.0;"/><text fill="#000000" font-family="sans-serif" font-size="13" lengthAdjust="spacing" textLength="7" x="274.9092" y="371.9427">1</text><text fill="#000000" font-family="sans-serif" font-size="13" lengthAdjust="spacing" textLength="7" x="164.9965" y="445.7997">1</text></g><!--link Repositories to Repositories--><g id="link_Repositories_Repositories"><path codeLine="69" d="M445.23,281.67 C465.42,283.33 480,288.77 480,298 C480,307.23 471.3998,312.1783 451.2098,313.8383 " fill="none" id="Repositories-to-Repositories" style="stroke:#181818;stroke-width:1.0;"/><polygon fill="#181818" points="445.23,314.33,454.5275,317.5791,450.2132,313.9203,453.872,309.606,445.23,314.33" style="stroke:#181818;stroke-width:1.0;"/><text fill="#000000" font-family="sans-serif" font-size="13" lengthAdjust="spacing" textLength="49" x="486" y="303.5283">instance</text></g><!--link SkillRepository to Employee--><g id="link_SkillRepository_Employee"><path codeLine="70" d="M190.95,542.05 C234.83,566.38 287.7126,595.7006 346.1326,628.0906 " fill="none" id="SkillRepository-to-Employee" style="stroke:#181818;stroke-width:1.0;"/><polygon fill="#181818" points="351.38,631,345.4484,623.1377,347.0071,628.5755,341.5693,630.1343,351.38,631" style="stroke:#181818;stroke-width:1.0;"/><text fill="#000000" font-family="sans-serif" font-size="13" lengthAdjust="spacing" textLength="7" x="195.3373" y="564.2183">1</text><text fill="#000000" font-family="sans-serif" font-size="13" lengthAdjust="spacing" textLength="5" x="332.209" y="619.6986">*</text></g><!--link EmployeeRepository to Employee--><g id="link_EmployeeRepository_Employee"><path codeLine="71" d="M594,570.13 C594,588.91 594,603.89 594,624.94 " fill="none" id="EmployeeRepository-to-Employee" style="stroke:#181818;stroke-width:1.0;"/><polygon fill="#181818" points="594,630.94,598,621.94,594,625.94,590,621.94,594,630.94" style="stroke:#181818;stroke-width:1.0;"/><text fill="#000000" font-family="sans-serif" font-size="13" lengthAdjust="spacing" textLength="7" x="586.6391" y="592.3282">1</text><text fill="#000000" font-family="sans-serif" font-size="13" lengthAdjust="spacing" textLength="5" x="588.8555" y="619.6352">*</text></g><!--link AssignSkillCollaboratorUI to AssignSkillCollaboratorController--><g id="link_AssignSkillCollaboratorUI_AssignSkillCollaboratorController"><path codeLine="73" d="M219.83,87 C234.76,87 241.64,87 248.85,87 " fill="none" id="AssignSkillCollaboratorUI-to-AssignSkillCollaboratorController" style="stroke:#181818;stroke-width:1.0;stroke-dasharray:7.0,7.0;"/><polygon fill="#181818" points="254.85,87,245.85,83,249.85,87,245.85,91,254.85,87" style="stroke:#181818;stroke-width:1.0;"/></g><!--SRC=[bLNRZfim47ttLrZxacotMRMlKHM9RYCrKjLTbVG339uGDyQ3R6TRMks_rq00Sqb8_8AmpvovdF5uPWv2PKopbAQeCDvhJ85QVGJIdcGiFh04GfjBe1fYorGYVO3PCuw_XKheZadZdqYXmEOPq0nbNloGsSWXQel4iuebCoQmLeleQ64Jemh5Nw0V29b9s5bgaMgHx2tbeWX7e29kbLOqC4OaAZm8APzGIXQXPXRrpmtzHyZR1Ee9bTNk7xH3KxSU4h0bwWTaQ8I3vFDxkgIzlGQxJZE9EK0FFjnkB7pttuInWU8bkGau1rvQ5zkVQefLDwxYx0LTDf64BNw6oig0T7K1xfDxOT26jUGuKJ9UUTwYR_QYSISapECpLE-fASFTedFTOIsSlABW5NkcXRA1bBMXSOb-5QRATTvWMucQMWamdXeRPLp_nJ2_NtOW5oKuhsNhRsXtyhg0qqcHstavwfrBajKxfwnhOg-U5vKnDqdJKOOEf7dEYel3P3_CcuNgrRIkchlUnZxlAhknh6evAj8c71_tHlhgdDZxQw5OMfGnT3D39UEGI6YxvymMk2_kCuw2b0avmPJjKS7tOnf1KMzNhd4OuwbmDnCLdVHgsP-CvQ0RqalkNJjeC6O2nJ6-YkqNHbjXPQzw3xGhpq0zsZJb_6ARjHF04GQlhhZCZQgmDUdsT4NcTTDWrev5u_faUg8_Fguw4sFftZ9lVbn7i6wlxCZjlP8a7EJOo_h6O3fKC7nhEgFqxkCTNInMvNTz0xR_v7M0YsvforjHpMdIJzPnbPJlMlTa9976jOyZvrztLux9elq7]--></g></svg>