<?xml version="1.0" encoding="us-ascii" standalone="no"?><svg xmlns="http://www.w3.org/2000/svg" xmlns:xlink="http://www.w3.org/1999/xlink" contentStyleType="text/css" height="1397px" preserveAspectRatio="none" style="width:2162px;height:1397px;background:#FFFFFF;" version="1.1" viewBox="0 0 2162 1397" width="2162px" zoomAndPan="magnify"><defs/><g><rect fill="#FFFFFF" height="1212.0586" style="stroke:#181818;stroke-width:1.0;" width="10" x="18.5" y="93.6211"/><rect fill="#FFFFFF" height="424.0742" style="stroke:#181818;stroke-width:1.0;" width="10" x="446.5" y="165.1641"/><rect fill="#FFFFFF" height="658.8594" style="stroke:#181818;stroke-width:1.0;" width="10" x="446.5" y="637.8203"/><rect fill="#FFFFFF" height="219.0371" style="stroke:#181818;stroke-width:1.0;" width="10" x="626.5" y="196.4551"/><rect fill="#FFFFFF" height="93.873" style="stroke:#181818;stroke-width:1.0;" width="10" x="626.5" y="446.7832"/><rect fill="#FFFFFF" height="533.6953" style="stroke:#181818;stroke-width:1.0;" width="10" x="626.5" y="669.1113"/><rect fill="#FFFFFF" height="31.291" style="stroke:#181818;stroke-width:1.0;" width="10" x="844.5" y="227.7461"/><rect fill="#FFFFFF" height="31.291" style="stroke:#181818;stroke-width:1.0;" width="10" x="844.5" y="744.6934"/><rect fill="#FFFFFF" height="31.291" style="stroke:#181818;stroke-width:1.0;" width="10" x="951.5" y="290.3281"/><rect fill="#FFFFFF" height="31.291" style="stroke:#181818;stroke-width:1.0;" width="10" x="951.5" y="807.2754"/><rect fill="#FFFFFF" height="31.291" style="stroke:#181818;stroke-width:1.0;" width="10" x="1096.5" y="352.9102"/><rect fill="#FFFFFF" height="31.291" style="stroke:#181818;stroke-width:1.0;" width="10" x="1266.5" y="869.8574"/><rect fill="#FFFFFF" height="194.7852" style="stroke:#181818;stroke-width:1.0;" width="10" x="1420.5" y="976.7305"/><rect fill="#FFFFFF" height="31.291" style="stroke:#181818;stroke-width:1.0;" width="10" x="2101" y="478.0742"/><line style="stroke:#181818;stroke-width:0.5;stroke-dasharray:5.0,5.0;" x1="23" x2="23" y1="83.6211" y2="1314.6797"/><line style="stroke:#181818;stroke-width:0.5;stroke-dasharray:5.0,5.0;" x1="451" x2="451" y1="83.6211" y2="1314.6797"/><line style="stroke:#181818;stroke-width:0.5;stroke-dasharray:5.0,5.0;" x1="631" x2="631" y1="83.6211" y2="1314.6797"/><line style="stroke:#181818;stroke-width:0.5;stroke-dasharray:5.0,5.0;" x1="849" x2="849" y1="83.6211" y2="1314.6797"/><line style="stroke:#181818;stroke-width:0.5;stroke-dasharray:5.0,5.0;" x1="956" x2="956" y1="83.6211" y2="1314.6797"/><line style="stroke:#181818;stroke-width:0.5;stroke-dasharray:5.0,5.0;" x1="1101" x2="1101" y1="83.6211" y2="1314.6797"/><line style="stroke:#181818;stroke-width:0.5;stroke-dasharray:5.0,5.0;" x1="1271" x2="1271" y1="83.6211" y2="1314.6797"/><line style="stroke:#181818;stroke-width:0.5;stroke-dasharray:5.0,5.0;" x1="1425" x2="1425" y1="83.6211" y2="1314.6797"/><line style="stroke:#181818;stroke-width:0.5;stroke-dasharray:5.0,5.0;" x1="2007.5" x2="2007.5" y1="1016.541" y2="1314.6797"/><line style="stroke:#181818;stroke-width:0.5;stroke-dasharray:5.0,5.0;" x1="2105.5" x2="2105.5" y1="83.6211" y2="1314.6797"/><text fill="#000000" font-family="sans-serif" font-size="14" lengthAdjust="spacing" textLength="31" x="5" y="80.1074">GSM</text><ellipse cx="23.5" cy="13.5" fill="#E3E3E3" rx="8" ry="8" style="stroke:#181818;stroke-width:0.5;"/><path d="M23.5,21.5 L23.5,48.5 M10.5,29.5 L36.5,29.5 M23.5,48.5 L10.5,63.5 M23.5,48.5 L36.5,63.5 " fill="none" style="stroke:#181818;stroke-width:0.5;"/><text fill="#000000" font-family="sans-serif" font-size="14" lengthAdjust="spacing" textLength="31" x="5" y="1328.7871">GSM</text><ellipse cx="23.5" cy="1340.8008" fill="#E3E3E3" rx="8" ry="8" style="stroke:#181818;stroke-width:0.5;"/><path d="M23.5,1348.8008 L23.5,1375.8008 M10.5,1356.8008 L36.5,1356.8008 M23.5,1375.8008 L10.5,1390.8008 M23.5,1375.8008 L36.5,1390.8008 " fill="none" style="stroke:#181818;stroke-width:0.5;"/><rect fill="#E3E3E3" height="32.6211" rx="2.5" ry="2.5" style="stroke:#181818;stroke-width:0.5;" width="145" x="379" y="50"/><text fill="#000000" font-family="sans-serif" font-size="14" lengthAdjust="spacing" textLength="131" x="386" y="72.1074">:AddEntryToDoListUI</text><rect fill="#E3E3E3" height="32.6211" rx="2.5" ry="2.5" style="stroke:#181818;stroke-width:0.5;" width="145" x="379" y="1313.6797"/><text fill="#000000" font-family="sans-serif" font-size="14" lengthAdjust="spacing" textLength="131" x="386" y="1335.7871">:AddEntryToDoListUI</text><rect fill="#E3E3E3" height="32.6211" rx="2.5" ry="2.5" style="stroke:#181818;stroke-width:0.5;" width="195" x="534" y="50"/><text fill="#000000" font-family="sans-serif" font-size="14" lengthAdjust="spacing" textLength="181" x="541" y="72.1074">:AddEntryToDoListController</text><rect fill="#E3E3E3" height="32.6211" rx="2.5" ry="2.5" style="stroke:#181818;stroke-width:0.5;" width="195" x="534" y="1313.6797"/><text fill="#000000" font-family="sans-serif" font-size="14" lengthAdjust="spacing" textLength="181" x="541" y="1335.7871">:AddEntryToDoListController</text><rect fill="#E3E3E3" height="32.6211" rx="2.5" ry="2.5" style="stroke:#181818;stroke-width:0.5;" width="97" x="801" y="50"/><text fill="#000000" font-family="sans-serif" font-size="14" lengthAdjust="spacing" textLength="83" x="808" y="72.1074">:Repositories</text><rect fill="#E3E3E3" height="32.6211" rx="2.5" ry="2.5" style="stroke:#181818;stroke-width:0.5;" width="97" x="801" y="1313.6797"/><text fill="#000000" font-family="sans-serif" font-size="14" lengthAdjust="spacing" textLength="83" x="808" y="1335.7871">:Repositories</text><rect fill="#E3E3E3" height="51.2422" rx="2.5" ry="2.5" style="stroke:#181818;stroke-width:0.5;" width="97" x="908" y="31.3789"/><text fill="#000000" font-family="sans-serif" font-size="14" lengthAdjust="spacing" textLength="74" x="919.5" y="53.4863">repositories</text><text fill="#000000" font-family="sans-serif" font-size="14" lengthAdjust="spacing" textLength="83" x="915" y="72.1074">:Repositories</text><rect fill="#E3E3E3" height="51.2422" rx="2.5" ry="2.5" style="stroke:#181818;stroke-width:0.5;" width="97" x="908" y="1313.6797"/><text fill="#000000" font-family="sans-serif" font-size="14" lengthAdjust="spacing" textLength="74" x="919.5" y="1335.7871">repositories</text><text fill="#000000" font-family="sans-serif" font-size="14" lengthAdjust="spacing" textLength="83" x="915" y="1354.4082">:Repositories</text><rect fill="#E3E3E3" height="51.2422" rx="2.5" ry="2.5" style="stroke:#181818;stroke-width:0.5;" width="173" x="1015" y="31.3789"/><text fill="#000000" font-family="sans-serif" font-size="14" lengthAdjust="spacing" textLength="152" x="1025.5" y="53.4863">greenSpacesRepository</text><text fill="#000000" font-family="sans-serif" font-size="14" lengthAdjust="spacing" textLength="159" x="1022" y="72.1074">:GreenSpacesRepository</text><rect fill="#E3E3E3" height="51.2422" rx="2.5" ry="2.5" style="stroke:#181818;stroke-width:0.5;" width="173" x="1015" y="1313.6797"/><text fill="#000000" font-family="sans-serif" font-size="14" lengthAdjust="spacing" textLength="152" x="1025.5" y="1335.7871">greenSpacesRepository</text><text fill="#000000" font-family="sans-serif" font-size="14" lengthAdjust="spacing" textLength="159" x="1022" y="1354.4082">:GreenSpacesRepository</text><rect fill="#E3E3E3" height="51.2422" rx="2.5" ry="2.5" style="stroke:#181818;stroke-width:0.5;" width="147" x="1198" y="31.3789"/><text fill="#000000" font-family="sans-serif" font-size="14" lengthAdjust="spacing" textLength="133" x="1205" y="53.4863">employeeRepository:</text><text fill="#000000" font-family="sans-serif" font-size="14" lengthAdjust="spacing" textLength="130" x="1206.5" y="72.1074">EmployeeRepository</text><rect fill="#E3E3E3" height="51.2422" rx="2.5" ry="2.5" style="stroke:#181818;stroke-width:0.5;" width="147" x="1198" y="1313.6797"/><text fill="#000000" font-family="sans-serif" font-size="14" lengthAdjust="spacing" textLength="133" x="1205" y="1335.7871">employeeRepository:</text><text fill="#000000" font-family="sans-serif" font-size="14" lengthAdjust="spacing" textLength="130" x="1206.5" y="1354.4082">EmployeeRepository</text><rect fill="#E3E3E3" height="32.6211" rx="2.5" ry="2.5" style="stroke:#181818;stroke-width:0.5;" width="141" x="1355" y="50"/><text fill="#000000" font-family="sans-serif" font-size="14" lengthAdjust="spacing" textLength="127" x="1362" y="72.1074">employee:Employee</text><rect fill="#E3E3E3" height="32.6211" rx="2.5" ry="2.5" style="stroke:#181818;stroke-width:0.5;" width="141" x="1355" y="1313.6797"/><text fill="#000000" font-family="sans-serif" font-size="14" lengthAdjust="spacing" textLength="127" x="1362" y="1335.7871">employee:Employee</text><rect fill="#E3E3E3" height="32.6211" rx="2.5" ry="2.5" style="stroke:#181818;stroke-width:0.5;" width="75" x="1970.5" y="1313.6797"/><text fill="#000000" font-family="sans-serif" font-size="14" lengthAdjust="spacing" textLength="61" x="1977.5" y="1335.7871">task:Task</text><rect fill="#E3E3E3" height="51.2422" rx="2.5" ry="2.5" style="stroke:#181818;stroke-width:0.5;" width="101" x="2055.5" y="31.3789"/><text fill="#000000" font-family="sans-serif" font-size="14" lengthAdjust="spacing" textLength="78" x="2067" y="53.4863">taskUrgency</text><text fill="#000000" font-family="sans-serif" font-size="14" lengthAdjust="spacing" textLength="87" x="2062.5" y="72.1074">:TaskUrgency</text><rect fill="#E3E3E3" height="51.2422" rx="2.5" ry="2.5" style="stroke:#181818;stroke-width:0.5;" width="101" x="2055.5" y="1313.6797"/><text fill="#000000" font-family="sans-serif" font-size="14" lengthAdjust="spacing" textLength="78" x="2067" y="1335.7871">taskUrgency</text><text fill="#000000" font-family="sans-serif" font-size="14" lengthAdjust="spacing" textLength="87" x="2062.5" y="1354.4082">:TaskUrgency</text><rect fill="#FFFFFF" height="1212.0586" style="stroke:#181818;stroke-width:1.0;" width="10" x="18.5" y="93.6211"/><rect fill="#FFFFFF" height="424.0742" style="stroke:#181818;stroke-width:1.0;" width="10" x="446.5" y="165.1641"/><rect fill="#FFFFFF" height="658.8594" style="stroke:#181818;stroke-width:1.0;" width="10" x="446.5" y="637.8203"/><rect fill="#FFFFFF" height="219.0371" style="stroke:#181818;stroke-width:1.0;" width="10" x="626.5" y="196.4551"/><rect fill="#FFFFFF" height="93.873" style="stroke:#181818;stroke-width:1.0;" width="10" x="626.5" y="446.7832"/><rect fill="#FFFFFF" height="533.6953" style="stroke:#181818;stroke-width:1.0;" width="10" x="626.5" y="669.1113"/><rect fill="#FFFFFF" height="31.291" style="stroke:#181818;stroke-width:1.0;" width="10" x="844.5" y="227.7461"/><rect fill="#FFFFFF" height="31.291" style="stroke:#181818;stroke-width:1.0;" width="10" x="844.5" y="744.6934"/><rect fill="#FFFFFF" height="31.291" style="stroke:#181818;stroke-width:1.0;" width="10" x="951.5" y="290.3281"/><rect fill="#FFFFFF" height="31.291" style="stroke:#181818;stroke-width:1.0;" width="10" x="951.5" y="807.2754"/><rect fill="#FFFFFF" height="31.291" style="stroke:#181818;stroke-width:1.0;" width="10" x="1096.5" y="352.9102"/><rect fill="#FFFFFF" height="31.291" style="stroke:#181818;stroke-width:1.0;" width="10" x="1266.5" y="869.8574"/><rect fill="#FFFFFF" height="194.7852" style="stroke:#181818;stroke-width:1.0;" width="10" x="1420.5" y="976.7305"/><rect fill="#FFFFFF" height="31.291" style="stroke:#181818;stroke-width:1.0;" width="10" x="2101" y="478.0742"/><rect fill="none" height="43.252" style="stroke:#000000;stroke-width:1.5;" width="525" x="2" y="93.6211"/><path d="M2,93.6211 L64,93.6211 L64,102.6211 L54,112.6211 L2,112.6211 L2,93.6211 " fill="#EEEEEE" style="stroke:#000000;stroke-width:2.0;"/><text fill="#000000" font-family="sans-serif" font-size="13" font-weight="bold" lengthAdjust="spacing" textLength="17" x="15" y="109.6494">ref</text><text fill="#000000" font-family="sans-serif" font-size="12" lengthAdjust="spacing" textLength="308" x="110.5" y="129.5703">This action assumes that the user has already logged in</text><polygon fill="#181818" points="434.5,161.1641,444.5,165.1641,434.5,169.1641,438.5,165.1641" style="stroke:#181818;stroke-width:1.0;"/><line style="stroke:#181818;stroke-width:1.0;" x1="28.5" x2="440.5" y1="165.1641" y2="165.1641"/><text fill="#000000" font-family="sans-serif" font-size="13" font-weight="bold" lengthAdjust="spacing" textLength="7" x="35.5" y="159.9014">1</text><text fill="#000000" font-family="sans-serif" font-size="13" lengthAdjust="spacing" textLength="239" x="46.5" y="159.9014">asks to add a new entry to the To-Do List</text><polygon fill="#181818" points="614.5,192.4551,624.5,196.4551,614.5,200.4551,618.5,196.4551" style="stroke:#181818;stroke-width:1.0;"/><line style="stroke:#181818;stroke-width:1.0;" x1="456.5" x2="620.5" y1="196.4551" y2="196.4551"/><text fill="#000000" font-family="sans-serif" font-size="13" font-weight="bold" lengthAdjust="spacing" textLength="7" x="463.5" y="191.1924">2</text><text fill="#000000" font-family="sans-serif" font-size="13" lengthAdjust="spacing" textLength="105" x="474.5" y="191.1924">getGreenSpaces()</text><polygon fill="#181818" points="832.5,223.7461,842.5,227.7461,832.5,231.7461,836.5,227.7461" style="stroke:#181818;stroke-width:1.0;"/><line style="stroke:#181818;stroke-width:1.0;" x1="636.5" x2="838.5" y1="227.7461" y2="227.7461"/><text fill="#000000" font-family="sans-serif" font-size="13" font-weight="bold" lengthAdjust="spacing" textLength="7" x="643.5" y="222.4834">3</text><text fill="#000000" font-family="sans-serif" font-size="13" lengthAdjust="spacing" textLength="75" x="654.5" y="222.4834">getInstance()</text><polygon fill="#181818" points="647.5,255.0371,637.5,259.0371,647.5,263.0371,643.5,259.0371" style="stroke:#181818;stroke-width:1.0;"/><line style="stroke:#181818;stroke-width:1.0;stroke-dasharray:2.0,2.0;" x1="641.5" x2="848.5" y1="259.0371" y2="259.0371"/><text fill="#000000" font-family="sans-serif" font-size="13" font-weight="bold" lengthAdjust="spacing" textLength="7" x="653.5" y="253.7744">4</text><text fill="#000000" font-family="sans-serif" font-size="13" lengthAdjust="spacing" textLength="67" x="664.5" y="253.7744">repositories</text><polygon fill="#181818" points="939.5,286.3281,949.5,290.3281,939.5,294.3281,943.5,290.3281" style="stroke:#181818;stroke-width:1.0;"/><line style="stroke:#181818;stroke-width:1.0;" x1="636.5" x2="945.5" y1="290.3281" y2="290.3281"/><text fill="#000000" font-family="sans-serif" font-size="13" font-weight="bold" lengthAdjust="spacing" textLength="7" x="643.5" y="285.0654">5</text><text fill="#000000" font-family="sans-serif" font-size="13" lengthAdjust="spacing" textLength="167" x="654.5" y="285.0654">getGreenSpacesRepository()</text><polygon fill="#181818" points="647.5,317.6191,637.5,321.6191,647.5,325.6191,643.5,321.6191" style="stroke:#181818;stroke-width:1.0;"/><line style="stroke:#181818;stroke-width:1.0;stroke-dasharray:2.0,2.0;" x1="641.5" x2="955.5" y1="321.6191" y2="321.6191"/><text fill="#000000" font-family="sans-serif" font-size="13" font-weight="bold" lengthAdjust="spacing" textLength="7" x="653.5" y="316.3564">6</text><text fill="#000000" font-family="sans-serif" font-size="13" lengthAdjust="spacing" textLength="138" x="664.5" y="316.3564">greenSpacesRepository</text><polygon fill="#181818" points="1084.5,348.9102,1094.5,352.9102,1084.5,356.9102,1088.5,352.9102" style="stroke:#181818;stroke-width:1.0;"/><line style="stroke:#181818;stroke-width:1.0;" x1="636.5" x2="1090.5" y1="352.9102" y2="352.9102"/><text fill="#000000" font-family="sans-serif" font-size="13" font-weight="bold" lengthAdjust="spacing" textLength="7" x="643.5" y="347.6475">7</text><text fill="#000000" font-family="sans-serif" font-size="13" lengthAdjust="spacing" textLength="119" x="654.5" y="347.6475">getGreenSpaceList()</text><polygon fill="#181818" points="647.5,380.2012,637.5,384.2012,647.5,388.2012,643.5,384.2012" style="stroke:#181818;stroke-width:1.0;"/><line style="stroke:#181818;stroke-width:1.0;stroke-dasharray:2.0,2.0;" x1="641.5" x2="1100.5" y1="384.2012" y2="384.2012"/><text fill="#000000" font-family="sans-serif" font-size="13" font-weight="bold" lengthAdjust="spacing" textLength="7" x="653.5" y="378.9385">8</text><text fill="#000000" font-family="sans-serif" font-size="13" lengthAdjust="spacing" textLength="90" x="664.5" y="378.9385">greenSpaceList</text><polygon fill="#181818" points="467.5,411.4922,457.5,415.4922,467.5,419.4922,463.5,415.4922" style="stroke:#181818;stroke-width:1.0;"/><line style="stroke:#181818;stroke-width:1.0;stroke-dasharray:2.0,2.0;" x1="461.5" x2="630.5" y1="415.4922" y2="415.4922"/><text fill="#000000" font-family="sans-serif" font-size="13" font-weight="bold" lengthAdjust="spacing" textLength="7" x="473.5" y="410.2295">9</text><text fill="#000000" font-family="sans-serif" font-size="13" lengthAdjust="spacing" textLength="90" x="484.5" y="410.2295">greenSpaceList</text><polygon fill="#181818" points="614.5,442.7832,624.5,446.7832,614.5,450.7832,618.5,446.7832" style="stroke:#181818;stroke-width:1.0;"/><line style="stroke:#181818;stroke-width:1.0;" x1="456.5" x2="620.5" y1="446.7832" y2="446.7832"/><text fill="#000000" font-family="sans-serif" font-size="13" font-weight="bold" lengthAdjust="spacing" textLength="14" x="463.5" y="441.5205">10</text><text fill="#000000" font-family="sans-serif" font-size="13" lengthAdjust="spacing" textLength="112" x="481.5" y="441.5205">getTaskUrgencies()</text><polygon fill="#181818" points="2089,474.0742,2099,478.0742,2089,482.0742,2093,478.0742" style="stroke:#181818;stroke-width:1.0;"/><line style="stroke:#181818;stroke-width:1.0;" x1="636.5" x2="2095" y1="478.0742" y2="478.0742"/><text fill="#000000" font-family="sans-serif" font-size="13" font-weight="bold" lengthAdjust="spacing" textLength="14" x="643.5" y="472.8115">11</text><text fill="#000000" font-family="sans-serif" font-size="13" lengthAdjust="spacing" textLength="112" x="661.5" y="472.8115">getTaskUrgencies()</text><polygon fill="#181818" points="647.5,505.3652,637.5,509.3652,647.5,513.3652,643.5,509.3652" style="stroke:#181818;stroke-width:1.0;"/><line style="stroke:#181818;stroke-width:1.0;" x1="641.5" x2="2105" y1="509.3652" y2="509.3652"/><text fill="#000000" font-family="sans-serif" font-size="13" font-weight="bold" lengthAdjust="spacing" textLength="14" x="653.5" y="504.1025">12</text><text fill="#000000" font-family="sans-serif" font-size="13" lengthAdjust="spacing" textLength="73" x="671.5" y="504.1025">taskUrgency</text><polygon fill="#181818" points="467.5,536.6563,457.5,540.6563,467.5,544.6563,463.5,540.6563" style="stroke:#181818;stroke-width:1.0;"/><line style="stroke:#181818;stroke-width:1.0;" x1="461.5" x2="630.5" y1="540.6563" y2="540.6563"/><text fill="#000000" font-family="sans-serif" font-size="13" font-weight="bold" lengthAdjust="spacing" textLength="14" x="473.5" y="535.3936">13</text><text fill="#000000" font-family="sans-serif" font-size="13" lengthAdjust="spacing" textLength="73" x="491.5" y="535.3936">taskUrgency</text><polygon fill="#181818" points="39.5,585.2383,29.5,589.2383,39.5,593.2383,35.5,589.2383" style="stroke:#181818;stroke-width:1.0;"/><line style="stroke:#181818;stroke-width:1.0;stroke-dasharray:2.0,2.0;" x1="33.5" x2="450.5" y1="589.2383" y2="589.2383"/><text fill="#000000" font-family="sans-serif" font-size="13" font-weight="bold" lengthAdjust="spacing" textLength="14" x="45.5" y="575.3301">14</text><text fill="#000000" font-family="sans-serif" font-size="13" lengthAdjust="spacing" textLength="309" x="63.5" y="566.6846">shows green spaces and task urgency to be selected</text><text fill="#000000" font-family="sans-serif" font-size="13" lengthAdjust="spacing" textLength="372" x="67.5" y="583.9756">and requests data (taskTitle, taskDescription, expectedDuration)</text><polygon fill="#181818" points="434.5,633.8203,444.5,637.8203,434.5,641.8203,438.5,637.8203" style="stroke:#181818;stroke-width:1.0;"/><line style="stroke:#181818;stroke-width:1.0;" x1="28.5" x2="440.5" y1="637.8203" y2="637.8203"/><text fill="#000000" font-family="sans-serif" font-size="13" font-weight="bold" lengthAdjust="spacing" textLength="14" x="35.5" y="623.9121">15</text><text fill="#000000" font-family="sans-serif" font-size="13" lengthAdjust="spacing" textLength="221" x="53.5" y="615.2666">selects green space and task urgency</text><text fill="#000000" font-family="sans-serif" font-size="13" lengthAdjust="spacing" textLength="147" x="57.5" y="632.5576">and types requested data</text><polygon fill="#181818" points="614.5,665.1113,624.5,669.1113,614.5,673.1113,618.5,669.1113" style="stroke:#181818;stroke-width:1.0;"/><line style="stroke:#181818;stroke-width:1.0;" x1="456.5" x2="620.5" y1="669.1113" y2="669.1113"/><text fill="#000000" font-family="sans-serif" font-size="13" font-weight="bold" lengthAdjust="spacing" textLength="14" x="463.5" y="663.8486">16</text><text fill="#000000" font-family="sans-serif" font-size="13" lengthAdjust="spacing" textLength="78" x="481.5" y="663.8486">addTodoList()</text><line style="stroke:#181818;stroke-width:1.0;" x1="636.5" x2="678.5" y1="700.4023" y2="700.4023"/><line style="stroke:#181818;stroke-width:1.0;" x1="678.5" x2="678.5" y1="700.4023" y2="713.4023"/><line style="stroke:#181818;stroke-width:1.0;" x1="637.5" x2="678.5" y1="713.4023" y2="713.4023"/><polygon fill="#181818" points="647.5,709.4023,637.5,713.4023,647.5,717.4023,643.5,713.4023" style="stroke:#181818;stroke-width:1.0;"/><text fill="#000000" font-family="sans-serif" font-size="13" font-weight="bold" lengthAdjust="spacing" textLength="14" x="643.5" y="695.1396">17</text><text fill="#000000" font-family="sans-serif" font-size="13" lengthAdjust="spacing" textLength="176" x="661.5" y="695.1396">getEmployeeFromRepository()</text><polygon fill="#181818" points="832.5,740.6934,842.5,744.6934,832.5,748.6934,836.5,744.6934" style="stroke:#181818;stroke-width:1.0;"/><line style="stroke:#181818;stroke-width:1.0;" x1="636.5" x2="838.5" y1="744.6934" y2="744.6934"/><text fill="#000000" font-family="sans-serif" font-size="13" font-weight="bold" lengthAdjust="spacing" textLength="14" x="643.5" y="739.4307">18</text><text fill="#000000" font-family="sans-serif" font-size="13" lengthAdjust="spacing" textLength="75" x="661.5" y="739.4307">getInstance()</text><polygon fill="#181818" points="647.5,771.9844,637.5,775.9844,647.5,779.9844,643.5,775.9844" style="stroke:#181818;stroke-width:1.0;"/><line style="stroke:#181818;stroke-width:1.0;stroke-dasharray:2.0,2.0;" x1="641.5" x2="848.5" y1="775.9844" y2="775.9844"/><text fill="#000000" font-family="sans-serif" font-size="13" font-weight="bold" lengthAdjust="spacing" textLength="14" x="653.5" y="770.7217">19</text><text fill="#000000" font-family="sans-serif" font-size="13" lengthAdjust="spacing" textLength="67" x="671.5" y="770.7217">repositories</text><polygon fill="#181818" points="939.5,803.2754,949.5,807.2754,939.5,811.2754,943.5,807.2754" style="stroke:#181818;stroke-width:1.0;"/><line style="stroke:#181818;stroke-width:1.0;" x1="636.5" x2="945.5" y1="807.2754" y2="807.2754"/><text fill="#000000" font-family="sans-serif" font-size="13" font-weight="bold" lengthAdjust="spacing" textLength="14" x="643.5" y="802.0127">20</text><text fill="#000000" font-family="sans-serif" font-size="13" lengthAdjust="spacing" textLength="156" x="661.5" y="802.0127">getEmployeeRepositories()</text><polygon fill="#181818" points="647.5,834.5664,637.5,838.5664,647.5,842.5664,643.5,838.5664" style="stroke:#181818;stroke-width:1.0;"/><line style="stroke:#181818;stroke-width:1.0;stroke-dasharray:2.0,2.0;" x1="641.5" x2="955.5" y1="838.5664" y2="838.5664"/><text fill="#000000" font-family="sans-serif" font-size="13" font-weight="bold" lengthAdjust="spacing" textLength="14" x="653.5" y="833.3037">21</text><text fill="#000000" font-family="sans-serif" font-size="13" lengthAdjust="spacing" textLength="130" x="671.5" y="833.3037">EmployeeRepositories</text><polygon fill="#181818" points="1254.5,865.8574,1264.5,869.8574,1254.5,873.8574,1258.5,869.8574" style="stroke:#181818;stroke-width:1.0;"/><line style="stroke:#181818;stroke-width:1.0;" x1="636.5" x2="1260.5" y1="869.8574" y2="869.8574"/><text fill="#000000" font-family="sans-serif" font-size="13" font-weight="bold" lengthAdjust="spacing" textLength="14" x="643.5" y="864.5947">22</text><text fill="#000000" font-family="sans-serif" font-size="13" lengthAdjust="spacing" textLength="84" x="661.5" y="864.5947">getEmployee()</text><polygon fill="#181818" points="647.5,897.1484,637.5,901.1484,647.5,905.1484,643.5,901.1484" style="stroke:#181818;stroke-width:1.0;"/><line style="stroke:#181818;stroke-width:1.0;stroke-dasharray:2.0,2.0;" x1="641.5" x2="1270.5" y1="901.1484" y2="901.1484"/><text fill="#000000" font-family="sans-serif" font-size="13" font-weight="bold" lengthAdjust="spacing" textLength="14" x="653.5" y="895.8857">23</text><text fill="#000000" font-family="sans-serif" font-size="13" lengthAdjust="spacing" textLength="56" x="671.5" y="895.8857">employee</text><line style="stroke:#181818;stroke-width:1.0;stroke-dasharray:2.0,2.0;" x1="636.5" x2="678.5" y1="932.4395" y2="932.4395"/><line style="stroke:#181818;stroke-width:1.0;stroke-dasharray:2.0,2.0;" x1="678.5" x2="678.5" y1="932.4395" y2="945.4395"/><line style="stroke:#181818;stroke-width:1.0;stroke-dasharray:2.0,2.0;" x1="637.5" x2="678.5" y1="945.4395" y2="945.4395"/><polygon fill="#181818" points="647.5,941.4395,637.5,945.4395,647.5,949.4395,643.5,945.4395" style="stroke:#181818;stroke-width:1.0;"/><text fill="#000000" font-family="sans-serif" font-size="13" font-weight="bold" lengthAdjust="spacing" textLength="14" x="643.5" y="927.1768">24</text><text fill="#000000" font-family="sans-serif" font-size="13" lengthAdjust="spacing" textLength="56" x="661.5" y="927.1768">employee</text><polygon fill="#181818" points="1408.5,972.7305,1418.5,976.7305,1408.5,980.7305,1412.5,976.7305" style="stroke:#181818;stroke-width:1.0;"/><line style="stroke:#181818;stroke-width:1.0;" x1="636.5" x2="1414.5" y1="976.7305" y2="976.7305"/><text fill="#000000" font-family="sans-serif" font-size="13" font-weight="bold" lengthAdjust="spacing" textLength="14" x="643.5" y="971.4678">25</text><text fill="#000000" font-family="sans-serif" font-size="13" lengthAdjust="spacing" textLength="491" x="661.5" y="971.4678">createTask(selectedGreenSpace,taskTitle,taskDescr,taskUrgency,expectedDuration)</text><polygon fill="#181818" points="1958.5,1004.0215,1968.5,1008.0215,1958.5,1012.0215,1962.5,1008.0215" style="stroke:#181818;stroke-width:1.0;"/><line style="stroke:#181818;stroke-width:1.0;" x1="1430.5" x2="1964.5" y1="1008.0215" y2="1008.0215"/><text fill="#000000" font-family="sans-serif" font-size="13" font-weight="bold" lengthAdjust="spacing" textLength="14" x="1437.5" y="1002.7588">26</text><text fill="#000000" font-family="sans-serif" font-size="13" lengthAdjust="spacing" textLength="498" x="1455.5" y="1002.7588">registerTask(selectedGreenSpace,taskTitle,taskDescr,taskUrgency,expectedDuration)</text><rect fill="#E3E3E3" height="32.6211" rx="2.5" ry="2.5" style="stroke:#181818;stroke-width:0.5;" width="75" x="1970.5" y="984.7305"/><text fill="#000000" font-family="sans-serif" font-size="14" lengthAdjust="spacing" textLength="61" x="1977.5" y="1006.8379">task:Task</text><polygon fill="#181818" points="1441.5,1047.6426,1431.5,1051.6426,1441.5,1055.6426,1437.5,1051.6426" style="stroke:#181818;stroke-width:1.0;"/><line style="stroke:#181818;stroke-width:1.0;" x1="1435.5" x2="2007" y1="1051.6426" y2="1051.6426"/><text fill="#000000" font-family="sans-serif" font-size="13" font-weight="bold" lengthAdjust="spacing" textLength="14" x="1447.5" y="1046.3799">27</text><text fill="#000000" font-family="sans-serif" font-size="13" lengthAdjust="spacing" textLength="25" x="1465.5" y="1046.3799">task</text><line style="stroke:#181818;stroke-width:1.0;" x1="1430.5" x2="1472.5" y1="1082.9336" y2="1082.9336"/><line style="stroke:#181818;stroke-width:1.0;" x1="1472.5" x2="1472.5" y1="1082.9336" y2="1095.9336"/><line style="stroke:#181818;stroke-width:1.0;" x1="1431.5" x2="1472.5" y1="1095.9336" y2="1095.9336"/><polygon fill="#181818" points="1441.5,1091.9336,1431.5,1095.9336,1441.5,1099.9336,1437.5,1095.9336" style="stroke:#181818;stroke-width:1.0;"/><text fill="#000000" font-family="sans-serif" font-size="13" font-weight="bold" lengthAdjust="spacing" textLength="14" x="1437.5" y="1077.6709">28</text><text fill="#000000" font-family="sans-serif" font-size="13" lengthAdjust="spacing" textLength="104" x="1455.5" y="1077.6709">validateTask(task)</text><line style="stroke:#181818;stroke-width:1.0;" x1="1430.5" x2="1472.5" y1="1127.2246" y2="1127.2246"/><line style="stroke:#181818;stroke-width:1.0;" x1="1472.5" x2="1472.5" y1="1127.2246" y2="1140.2246"/><line style="stroke:#181818;stroke-width:1.0;" x1="1431.5" x2="1472.5" y1="1140.2246" y2="1140.2246"/><polygon fill="#181818" points="1441.5,1136.2246,1431.5,1140.2246,1441.5,1144.2246,1437.5,1140.2246" style="stroke:#181818;stroke-width:1.0;"/><text fill="#000000" font-family="sans-serif" font-size="13" font-weight="bold" lengthAdjust="spacing" textLength="14" x="1437.5" y="1121.9619">29</text><text fill="#000000" font-family="sans-serif" font-size="13" lengthAdjust="spacing" textLength="82" x="1455.5" y="1121.9619">addTask(task)</text><polygon fill="#181818" points="647.5,1167.5156,637.5,1171.5156,647.5,1175.5156,643.5,1171.5156" style="stroke:#181818;stroke-width:1.0;"/><line style="stroke:#181818;stroke-width:1.0;stroke-dasharray:2.0,2.0;" x1="641.5" x2="1424.5" y1="1171.5156" y2="1171.5156"/><text fill="#000000" font-family="sans-serif" font-size="13" font-weight="bold" lengthAdjust="spacing" textLength="14" x="653.5" y="1166.2529">30</text><text fill="#000000" font-family="sans-serif" font-size="13" lengthAdjust="spacing" textLength="25" x="671.5" y="1166.2529">task</text><polygon fill="#181818" points="467.5,1198.8066,457.5,1202.8066,467.5,1206.8066,463.5,1202.8066" style="stroke:#181818;stroke-width:1.0;"/><line style="stroke:#181818;stroke-width:1.0;" x1="461.5" x2="630.5" y1="1202.8066" y2="1202.8066"/><text fill="#000000" font-family="sans-serif" font-size="13" font-weight="bold" lengthAdjust="spacing" textLength="14" x="473.5" y="1197.5439">31</text><text fill="#000000" font-family="sans-serif" font-size="13" lengthAdjust="spacing" textLength="25" x="491.5" y="1197.5439">task</text><polygon fill="#181818" points="39.5,1230.0977,29.5,1234.0977,39.5,1238.0977,35.5,1234.0977" style="stroke:#181818;stroke-width:1.0;"/><line style="stroke:#181818;stroke-width:1.0;stroke-dasharray:2.0,2.0;" x1="33.5" x2="445.5" y1="1234.0977" y2="1234.0977"/><text fill="#000000" font-family="sans-serif" font-size="13" font-weight="bold" lengthAdjust="spacing" textLength="14" x="45.5" y="1228.835">32</text><text fill="#000000" font-family="sans-serif" font-size="13" lengthAdjust="spacing" textLength="236" x="63.5" y="1228.835">shows all data and requests confirmation</text><polygon fill="#181818" points="434.5,1261.3887,444.5,1265.3887,434.5,1269.3887,438.5,1265.3887" style="stroke:#181818;stroke-width:1.0;"/><line style="stroke:#181818;stroke-width:1.0;" x1="28.5" x2="440.5" y1="1265.3887" y2="1265.3887"/><text fill="#000000" font-family="sans-serif" font-size="13" font-weight="bold" lengthAdjust="spacing" textLength="14" x="35.5" y="1260.126">33</text><text fill="#000000" font-family="sans-serif" font-size="13" lengthAdjust="spacing" textLength="78" x="53.5" y="1260.126">confirms data</text><polygon fill="#181818" points="39.5,1292.6797,29.5,1296.6797,39.5,1300.6797,35.5,1296.6797" style="stroke:#181818;stroke-width:1.0;"/><line style="stroke:#181818;stroke-width:1.0;stroke-dasharray:2.0,2.0;" x1="33.5" x2="450.5" y1="1296.6797" y2="1296.6797"/><text fill="#000000" font-family="sans-serif" font-size="13" font-weight="bold" lengthAdjust="spacing" textLength="14" x="45.5" y="1291.417">34</text><text fill="#000000" font-family="sans-serif" font-size="13" lengthAdjust="spacing" textLength="158" x="63.5" y="1291.417">displays operation success</text><!--SRC=[jLPDJ-Cm4BtdLuouyA7s3_I0L550bLY18DqJMid4qzGYjREs0_JVxzXf4gTnAAnsVIZ4ddbv7hzvZdaLicIQRM6hfCesMcqHhAumCUrAoR9NbkEJtHK86ZFBP5w40MR3k7eNCeSrAmmc2QkiajNs1NMId6u4HrWhPL_KHy8ogpISt3xzE05cWFucX6559aecBPpCvfnVIwjtgLgeEs7iQka3LyiZSLUAdbHHeFRnL-dZtK768vRA27gzGEDZsedTat0x8ixz51raFCiXmCFTFErdv1fHFb71q7Jeb7eRcwyh45lfW-AsBDGEiLkVFSlhmQI76qx7iMPDeCzgPlknbfdNMKe_FiOz9SE0bSvHPcwFQVVa4uBdv7In-hbSpE5X_ZY7UxYvlu5VIP9eN8DwG-rqCA4pXXca6s60L2AK911JRP5UlM6MVX0gGx4RmcQ5HiPtKAWyHmv2Ec69DsRHIoe16lGFJ2zhLA92C0eOvy10uZkW4u-RShYfcYuKE1dvp1QBL0VxGJ04vcGrWnnjS6ndvsrGc-Zb1y5m4muWeZdmW4jfgAyo3D1wY36nzYBTYA5FMzgXd7kf7B_-ccOZJljmM8ekUsmRlcK6l3rOHpJQHMECFMACOPJN0MDtv6DKRu-oy2gBHKNtqiehiedukoBRQWGz0Xj0UWcEoRVhJV5D0GTT3Pz2zU12BpYiO8ZOShGZ2S46OvWDIr-Z6CPXWPhQEBsGNypeBbFlfYul67yWm2JtM53jMP9hl20OBEWkHFuiVOJ6tnKQQu0po-3C9QJ25ZZnkGiqcHQbixK9u4VfCnULPcwcBbf0ZNndO67rwthK1ipsLEok9DfxGcIFZj70s2BIS4R9UQguEkYBpsKnlMnrrTmgD_GTCMe6_yKBlsE5yFTUE6w3WvjtfBC6VjKpFyAA0IN7ZA_XCxp_U-HYX2AV326zuR8ZMvzu-zqGeVS9R6jb8oZDPfe5Aaf6zxr5r_9dJTzrdZdfcgtjjKdG_PDum_MgC23XHak0o3YyYmkdd9oQ0_M_v-A6x-PWwxMBZPBgmjvO8NXJ8fTp_eKar-t7udkM73leqUDRBVT9oN7dROoN5KLje3rBpPHS2xtrzHeOutxHT3RNCtGkJ5cmdG5LObrnC5L6lcwIYEt-0G00]--></g></svg>