<?xml version="1.0" encoding="us-ascii" standalone="no"?><svg xmlns="http://www.w3.org/2000/svg" xmlns:xlink="http://www.w3.org/1999/xlink" contentStyleType="text/css" height="1148px" preserveAspectRatio="none" style="width:932px;height:1148px;background:#FFFFFF;" version="1.1" viewBox="0 0 932 1148" width="932px" zoomAndPan="magnify"><defs/><g><!--class Employee--><g id="elem_Employee"><rect codeLine="10" fill="#F1F1F1" height="234.2109" id="Employee" rx="2.5" ry="2.5" style="stroke:#181818;stroke-width:0.5;" width="169" x="365" y="318"/><ellipse cx="414.25" cy="334" fill="#ADD1B2" rx="11" ry="11" style="stroke:#181818;stroke-width:1.0;"/><path d="M417.0156,329.875 Q417.1719,329.6563 417.3594,329.5469 Q417.5469,329.4375 417.7656,329.4375 Q418.1406,329.4375 418.375,329.7031 Q418.6094,329.9531 418.6094,330.5625 L418.6094,332.0156 Q418.6094,332.625 418.375,332.8906 Q418.1406,333.1563 417.7656,333.1563 Q417.4219,333.1563 417.2188,332.9531 Q417.0156,332.7656 416.9063,332.25 Q416.8594,331.8906 416.6719,331.7031 Q416.3438,331.3281 415.7344,331.1094 Q415.125,330.8906 414.5,330.8906 Q413.7344,330.8906 413.0938,331.2188 Q412.4688,331.5469 411.9688,332.2969 Q411.4844,333.0469 411.4844,334.0781 L411.4844,335.1719 Q411.4844,336.4063 412.375,337.2344 Q413.2656,338.0469 414.8594,338.0469 Q415.7969,338.0469 416.4531,337.7969 Q416.8438,337.6406 417.2656,337.2031 Q417.5313,336.9375 417.6719,336.8594 Q417.8281,336.7813 418.0313,336.7813 Q418.3594,336.7813 418.6094,337.0469 Q418.875,337.2969 418.875,337.6406 Q418.875,337.9844 418.5313,338.3906 Q418.0313,338.9688 417.2344,339.2969 Q416.1563,339.75 414.8594,339.75 Q413.3438,339.75 412.1406,339.125 Q411.1563,338.625 410.4688,337.5625 Q409.7813,336.4844 409.7813,335.2031 L409.7813,334.0469 Q409.7813,332.7188 410.3906,331.5781 Q411.0156,330.4219 412.1094,329.8125 Q413.2031,329.1875 414.4375,329.1875 Q415.1719,329.1875 415.8125,329.3594 Q416.4688,329.5156 417.0156,329.875 Z " fill="#000000"/><text fill="#000000" font-family="sans-serif" font-size="14" lengthAdjust="spacing" textLength="62" x="434.75" y="339.7969">Employee</text><line style="stroke:#181818;stroke-width:0.5;" x1="366" x2="533" y1="350" y2="350"/><text fill="#000000" font-family="sans-serif" font-size="14" lengthAdjust="spacing" textLength="89" x="371" y="369.1074">-name : String</text><text fill="#000000" font-family="sans-serif" font-size="14" lengthAdjust="spacing" textLength="103" x="371" y="387.7285">-birthdate : Date</text><text fill="#000000" font-family="sans-serif" font-size="14" lengthAdjust="spacing" textLength="87" x="371" y="406.3496">-email : String</text><text fill="#000000" font-family="sans-serif" font-size="14" lengthAdjust="spacing" textLength="121" x="371" y="424.9707">-phoneNumber : int</text><text fill="#000000" font-family="sans-serif" font-size="14" lengthAdjust="spacing" textLength="142" x="371" y="443.5918">-admission date : Date</text><text fill="#000000" font-family="sans-serif" font-size="14" lengthAdjust="spacing" textLength="157" x="371" y="462.2129">-taxpayerNumber : String</text><text fill="#000000" font-family="sans-serif" font-size="14" lengthAdjust="spacing" textLength="105" x="371" y="480.834">-address : String</text><text fill="#000000" font-family="sans-serif" font-size="14" lengthAdjust="spacing" textLength="126" x="371" y="499.4551">-docNumber : String</text><text fill="#000000" font-family="sans-serif" font-size="14" lengthAdjust="spacing" textLength="100" x="371" y="518.0762">-jobTitle : String</text><text fill="#000000" font-family="sans-serif" font-size="14" lengthAdjust="spacing" textLength="110" x="371" y="536.6973">-skills : List&lt;Skill&gt;</text><line style="stroke:#181818;stroke-width:0.5;" x1="366" x2="533" y1="544.2109" y2="544.2109"/></g><!--class AddEntryToDoListController--><g id="elem_AddEntryToDoListController"><rect codeLine="24" fill="#F1F1F1" height="48" id="AddEntryToDoListController" rx="2.5" ry="2.5" style="stroke:#181818;stroke-width:0.5;" width="209" x="201" y="44"/><ellipse cx="216" cy="60" fill="#ADD1B2" rx="11" ry="11" style="stroke:#181818;stroke-width:1.0;"/><path d="M218.7656,55.875 Q218.9219,55.6563 219.1094,55.5469 Q219.2969,55.4375 219.5156,55.4375 Q219.8906,55.4375 220.125,55.7031 Q220.3594,55.9531 220.3594,56.5625 L220.3594,58.0156 Q220.3594,58.625 220.125,58.8906 Q219.8906,59.1563 219.5156,59.1563 Q219.1719,59.1563 218.9688,58.9531 Q218.7656,58.7656 218.6563,58.25 Q218.6094,57.8906 218.4219,57.7031 Q218.0938,57.3281 217.4844,57.1094 Q216.875,56.8906 216.25,56.8906 Q215.4844,56.8906 214.8438,57.2188 Q214.2188,57.5469 213.7188,58.2969 Q213.2344,59.0469 213.2344,60.0781 L213.2344,61.1719 Q213.2344,62.4063 214.125,63.2344 Q215.0156,64.0469 216.6094,64.0469 Q217.5469,64.0469 218.2031,63.7969 Q218.5938,63.6406 219.0156,63.2031 Q219.2813,62.9375 219.4219,62.8594 Q219.5781,62.7813 219.7813,62.7813 Q220.1094,62.7813 220.3594,63.0469 Q220.625,63.2969 220.625,63.6406 Q220.625,63.9844 220.2813,64.3906 Q219.7813,64.9688 218.9844,65.2969 Q217.9063,65.75 216.6094,65.75 Q215.0938,65.75 213.8906,65.125 Q212.9063,64.625 212.2188,63.5625 Q211.5313,62.4844 211.5313,61.2031 L211.5313,60.0469 Q211.5313,58.7188 212.1406,57.5781 Q212.7656,56.4219 213.8594,55.8125 Q214.9531,55.1875 216.1875,55.1875 Q216.9219,55.1875 217.5625,55.3594 Q218.2188,55.5156 218.7656,55.875 Z " fill="#000000"/><text fill="#000000" font-family="sans-serif" font-size="14" lengthAdjust="spacing" textLength="177" x="230" y="65.7969">AddEntryToDoListController</text><line style="stroke:#181818;stroke-width:0.5;" x1="202" x2="409" y1="76" y2="76"/><line style="stroke:#181818;stroke-width:0.5;" x1="202" x2="409" y1="84" y2="84"/></g><!--class AddEntryToDoListUI--><g id="elem_AddEntryToDoListUI"><rect codeLine="28" fill="#F1F1F1" height="48" id="AddEntryToDoListUI" rx="2.5" ry="2.5" style="stroke:#181818;stroke-width:0.5;" width="159" x="7" y="44"/><ellipse cx="22" cy="60" fill="#ADD1B2" rx="11" ry="11" style="stroke:#181818;stroke-width:1.0;"/><path d="M24.7656,55.875 Q24.9219,55.6563 25.1094,55.5469 Q25.2969,55.4375 25.5156,55.4375 Q25.8906,55.4375 26.125,55.7031 Q26.3594,55.9531 26.3594,56.5625 L26.3594,58.0156 Q26.3594,58.625 26.125,58.8906 Q25.8906,59.1563 25.5156,59.1563 Q25.1719,59.1563 24.9688,58.9531 Q24.7656,58.7656 24.6563,58.25 Q24.6094,57.8906 24.4219,57.7031 Q24.0938,57.3281 23.4844,57.1094 Q22.875,56.8906 22.25,56.8906 Q21.4844,56.8906 20.8438,57.2188 Q20.2188,57.5469 19.7188,58.2969 Q19.2344,59.0469 19.2344,60.0781 L19.2344,61.1719 Q19.2344,62.4063 20.125,63.2344 Q21.0156,64.0469 22.6094,64.0469 Q23.5469,64.0469 24.2031,63.7969 Q24.5938,63.6406 25.0156,63.2031 Q25.2813,62.9375 25.4219,62.8594 Q25.5781,62.7813 25.7813,62.7813 Q26.1094,62.7813 26.3594,63.0469 Q26.625,63.2969 26.625,63.6406 Q26.625,63.9844 26.2813,64.3906 Q25.7813,64.9688 24.9844,65.2969 Q23.9063,65.75 22.6094,65.75 Q21.0938,65.75 19.8906,65.125 Q18.9063,64.625 18.2188,63.5625 Q17.5313,62.4844 17.5313,61.2031 L17.5313,60.0469 Q17.5313,58.7188 18.1406,57.5781 Q18.7656,56.4219 19.8594,55.8125 Q20.9531,55.1875 22.1875,55.1875 Q22.9219,55.1875 23.5625,55.3594 Q24.2188,55.5156 24.7656,55.875 Z " fill="#000000"/><text fill="#000000" font-family="sans-serif" font-size="14" lengthAdjust="spacing" textLength="127" x="36" y="65.7969">AddEntryToDoListUI</text><line style="stroke:#181818;stroke-width:0.5;" x1="8" x2="165" y1="76" y2="76"/><line style="stroke:#181818;stroke-width:0.5;" x1="8" x2="165" y1="84" y2="84"/></g><!--class Repositories--><g id="elem_Repositories"><rect codeLine="32" fill="#F1F1F1" height="122.4844" id="Repositories" rx="2.5" ry="2.5" style="stroke:#181818;stroke-width:0.5;" width="358" x="445.5" y="7"/><ellipse cx="580.75" cy="23" fill="#ADD1B2" rx="11" ry="11" style="stroke:#181818;stroke-width:1.0;"/><path d="M583.5156,18.875 Q583.6719,18.6563 583.8594,18.5469 Q584.0469,18.4375 584.2656,18.4375 Q584.6406,18.4375 584.875,18.7031 Q585.1094,18.9531 585.1094,19.5625 L585.1094,21.0156 Q585.1094,21.625 584.875,21.8906 Q584.6406,22.1563 584.2656,22.1563 Q583.9219,22.1563 583.7188,21.9531 Q583.5156,21.7656 583.4063,21.25 Q583.3594,20.8906 583.1719,20.7031 Q582.8438,20.3281 582.2344,20.1094 Q581.625,19.8906 581,19.8906 Q580.2344,19.8906 579.5938,20.2188 Q578.9688,20.5469 578.4688,21.2969 Q577.9844,22.0469 577.9844,23.0781 L577.9844,24.1719 Q577.9844,25.4063 578.875,26.2344 Q579.7656,27.0469 581.3594,27.0469 Q582.2969,27.0469 582.9531,26.7969 Q583.3438,26.6406 583.7656,26.2031 Q584.0313,25.9375 584.1719,25.8594 Q584.3281,25.7813 584.5313,25.7813 Q584.8594,25.7813 585.1094,26.0469 Q585.375,26.2969 585.375,26.6406 Q585.375,26.9844 585.0313,27.3906 Q584.5313,27.9688 583.7344,28.2969 Q582.6563,28.75 581.3594,28.75 Q579.8438,28.75 578.6406,28.125 Q577.6563,27.625 576.9688,26.5625 Q576.2813,25.4844 576.2813,24.2031 L576.2813,23.0469 Q576.2813,21.7188 576.8906,20.5781 Q577.5156,19.4219 578.6094,18.8125 Q579.7031,18.1875 580.9375,18.1875 Q581.6719,18.1875 582.3125,18.3594 Q582.9688,18.5156 583.5156,18.875 Z " fill="#000000"/><text fill="#000000" font-family="sans-serif" font-size="14" lengthAdjust="spacing" textLength="79" x="601.25" y="28.7969">Repositories</text><line style="stroke:#181818;stroke-width:0.5;" x1="446.5" x2="802.5" y1="39" y2="39"/><line style="stroke:#181818;stroke-width:0.5;" x1="446.5" x2="802.5" y1="47" y2="47"/><text fill="#000000" font-family="sans-serif" font-size="14" lengthAdjust="spacing" textLength="94" x="451.5" y="66.1074">-Repositories()</text><text fill="#000000" font-family="sans-serif" font-size="14" lengthAdjust="spacing" textLength="182" x="451.5" y="84.7285">+getInstance() : Repositories</text><text fill="#000000" font-family="sans-serif" font-size="14" lengthAdjust="spacing" textLength="305" x="451.5" y="103.3496">+getEmployeeRepository(): employeeRepository</text><text fill="#000000" font-family="sans-serif" font-size="14" lengthAdjust="spacing" textLength="346" x="451.5" y="121.9707">+getGreenSpaceRepository(): greenSpacesRepository</text></g><!--class EmployeeRepository--><g id="elem_EmployeeRepository"><rect codeLine="38" fill="#F1F1F1" height="66.6211" id="EmployeeRepository" rx="2.5" ry="2.5" style="stroke:#181818;stroke-width:0.5;" width="182" x="358.5" y="190"/><ellipse cx="382.5" cy="206" fill="#ADD1B2" rx="11" ry="11" style="stroke:#181818;stroke-width:1.0;"/><path d="M385.2656,201.875 Q385.4219,201.6563 385.6094,201.5469 Q385.7969,201.4375 386.0156,201.4375 Q386.3906,201.4375 386.625,201.7031 Q386.8594,201.9531 386.8594,202.5625 L386.8594,204.0156 Q386.8594,204.625 386.625,204.8906 Q386.3906,205.1563 386.0156,205.1563 Q385.6719,205.1563 385.4688,204.9531 Q385.2656,204.7656 385.1563,204.25 Q385.1094,203.8906 384.9219,203.7031 Q384.5938,203.3281 383.9844,203.1094 Q383.375,202.8906 382.75,202.8906 Q381.9844,202.8906 381.3438,203.2188 Q380.7188,203.5469 380.2188,204.2969 Q379.7344,205.0469 379.7344,206.0781 L379.7344,207.1719 Q379.7344,208.4063 380.625,209.2344 Q381.5156,210.0469 383.1094,210.0469 Q384.0469,210.0469 384.7031,209.7969 Q385.0938,209.6406 385.5156,209.2031 Q385.7813,208.9375 385.9219,208.8594 Q386.0781,208.7813 386.2813,208.7813 Q386.6094,208.7813 386.8594,209.0469 Q387.125,209.2969 387.125,209.6406 Q387.125,209.9844 386.7813,210.3906 Q386.2813,210.9688 385.4844,211.2969 Q384.4063,211.75 383.1094,211.75 Q381.5938,211.75 380.3906,211.125 Q379.4063,210.625 378.7188,209.5625 Q378.0313,208.4844 378.0313,207.2031 L378.0313,206.0469 Q378.0313,204.7188 378.6406,203.5781 Q379.2656,202.4219 380.3594,201.8125 Q381.4531,201.1875 382.6875,201.1875 Q383.4219,201.1875 384.0625,201.3594 Q384.7188,201.5156 385.2656,201.875 Z " fill="#000000"/><text fill="#000000" font-family="sans-serif" font-size="14" lengthAdjust="spacing" textLength="130" x="398.5" y="211.7969">EmployeeRepository</text><line style="stroke:#181818;stroke-width:0.5;" x1="359.5" x2="539.5" y1="222" y2="222"/><line style="stroke:#181818;stroke-width:0.5;" x1="359.5" x2="539.5" y1="230" y2="230"/><text fill="#000000" font-family="sans-serif" font-size="14" lengthAdjust="spacing" textLength="170" x="364.5" y="249.1074">+getEmployee(): Employee</text></g><!--class TasksRepository--><g id="elem_TasksRepository"><rect codeLine="44" fill="#F1F1F1" height="141.1055" id="TasksRepository" rx="2.5" ry="2.5" style="stroke:#181818;stroke-width:0.5;" width="214" x="342.5" y="1000"/><ellipse cx="392.25" cy="1016" fill="#ADD1B2" rx="11" ry="11" style="stroke:#181818;stroke-width:1.0;"/><path d="M395.0156,1011.875 Q395.1719,1011.6563 395.3594,1011.5469 Q395.5469,1011.4375 395.7656,1011.4375 Q396.1406,1011.4375 396.375,1011.7031 Q396.6094,1011.9531 396.6094,1012.5625 L396.6094,1014.0156 Q396.6094,1014.625 396.375,1014.8906 Q396.1406,1015.1563 395.7656,1015.1563 Q395.4219,1015.1563 395.2188,1014.9531 Q395.0156,1014.7656 394.9063,1014.25 Q394.8594,1013.8906 394.6719,1013.7031 Q394.3438,1013.3281 393.7344,1013.1094 Q393.125,1012.8906 392.5,1012.8906 Q391.7344,1012.8906 391.0938,1013.2188 Q390.4688,1013.5469 389.9688,1014.2969 Q389.4844,1015.0469 389.4844,1016.0781 L389.4844,1017.1719 Q389.4844,1018.4063 390.375,1019.2344 Q391.2656,1020.0469 392.8594,1020.0469 Q393.7969,1020.0469 394.4531,1019.7969 Q394.8438,1019.6406 395.2656,1019.2031 Q395.5313,1018.9375 395.6719,1018.8594 Q395.8281,1018.7813 396.0313,1018.7813 Q396.3594,1018.7813 396.6094,1019.0469 Q396.875,1019.2969 396.875,1019.6406 Q396.875,1019.9844 396.5313,1020.3906 Q396.0313,1020.9688 395.2344,1021.2969 Q394.1563,1021.75 392.8594,1021.75 Q391.3438,1021.75 390.1406,1021.125 Q389.1563,1020.625 388.4688,1019.5625 Q387.7813,1018.4844 387.7813,1017.2031 L387.7813,1016.0469 Q387.7813,1014.7188 388.3906,1013.5781 Q389.0156,1012.4219 390.1094,1011.8125 Q391.2031,1011.1875 392.4375,1011.1875 Q393.1719,1011.1875 393.8125,1011.3594 Q394.4688,1011.5156 395.0156,1011.875 Z " fill="#000000"/><text fill="#000000" font-family="sans-serif" font-size="14" lengthAdjust="spacing" textLength="106" x="412.75" y="1021.7969">TasksRepository</text><line style="stroke:#181818;stroke-width:0.5;" x1="343.5" x2="555.5" y1="1032" y2="1032"/><line style="stroke:#181818;stroke-width:0.5;" x1="343.5" x2="555.5" y1="1040" y2="1040"/><text fill="#000000" font-family="sans-serif" font-size="14" lengthAdjust="spacing" textLength="153" x="348.5" y="1059.1074">+getTasks(): List&lt;Task&gt;</text><text fill="#000000" font-family="sans-serif" font-size="14" lengthAdjust="spacing" textLength="186" x="348.5" y="1077.7285">+getTodoTasks(): List&lt;Task&gt;</text><text fill="#000000" font-family="sans-serif" font-size="14" lengthAdjust="spacing" textLength="202" x="348.5" y="1096.3496">+getAgendaTasks(): List&lt;Task&gt;</text><text fill="#000000" font-family="sans-serif" font-size="14" lengthAdjust="spacing" textLength="108" x="348.5" y="1114.9707">+getTask(): Task</text><text fill="#000000" font-family="sans-serif" font-size="14" lengthAdjust="spacing" textLength="154" x="348.5" y="1133.5918">+add() : Optional&lt;Task&gt;</text></g><!--class GreenSpacesRepository--><g id="elem_GreenSpacesRepository"><rect codeLine="51" fill="#F1F1F1" height="66.6211" id="GreenSpacesRepository" rx="2.5" ry="2.5" style="stroke:#181818;stroke-width:0.5;" width="225" x="576" y="190"/><ellipse cx="608.1" cy="206" fill="#ADD1B2" rx="11" ry="11" style="stroke:#181818;stroke-width:1.0;"/><path d="M610.8656,201.875 Q611.0219,201.6563 611.2094,201.5469 Q611.3969,201.4375 611.6156,201.4375 Q611.9906,201.4375 612.225,201.7031 Q612.4594,201.9531 612.4594,202.5625 L612.4594,204.0156 Q612.4594,204.625 612.225,204.8906 Q611.9906,205.1563 611.6156,205.1563 Q611.2719,205.1563 611.0688,204.9531 Q610.8656,204.7656 610.7563,204.25 Q610.7094,203.8906 610.5219,203.7031 Q610.1938,203.3281 609.5844,203.1094 Q608.975,202.8906 608.35,202.8906 Q607.5844,202.8906 606.9438,203.2188 Q606.3188,203.5469 605.8188,204.2969 Q605.3344,205.0469 605.3344,206.0781 L605.3344,207.1719 Q605.3344,208.4063 606.225,209.2344 Q607.1156,210.0469 608.7094,210.0469 Q609.6469,210.0469 610.3031,209.7969 Q610.6938,209.6406 611.1156,209.2031 Q611.3813,208.9375 611.5219,208.8594 Q611.6781,208.7813 611.8813,208.7813 Q612.2094,208.7813 612.4594,209.0469 Q612.725,209.2969 612.725,209.6406 Q612.725,209.9844 612.3813,210.3906 Q611.8813,210.9688 611.0844,211.2969 Q610.0063,211.75 608.7094,211.75 Q607.1938,211.75 605.9906,211.125 Q605.0063,210.625 604.3188,209.5625 Q603.6313,208.4844 603.6313,207.2031 L603.6313,206.0469 Q603.6313,204.7188 604.2406,203.5781 Q604.8656,202.4219 605.9594,201.8125 Q607.0531,201.1875 608.2875,201.1875 Q609.0219,201.1875 609.6625,201.3594 Q610.3188,201.5156 610.8656,201.875 Z " fill="#000000"/><text fill="#000000" font-family="sans-serif" font-size="14" lengthAdjust="spacing" textLength="155" x="625.9" y="211.7969">GreenSpacesRepository</text><line style="stroke:#181818;stroke-width:0.5;" x1="577" x2="800" y1="222" y2="222"/><line style="stroke:#181818;stroke-width:0.5;" x1="577" x2="800" y1="230" y2="230"/><text fill="#000000" font-family="sans-serif" font-size="14" lengthAdjust="spacing" textLength="213" x="582" y="249.1074">+getGreenSpaces(): GreenSpace</text></g><!--class Task--><g id="elem_Task"><rect codeLine="55" fill="#F1F1F1" height="290.0742" id="Task" rx="2.5" ry="2.5" style="stroke:#181818;stroke-width:0.5;" width="214" x="342.5" y="631"/><ellipse cx="429.75" cy="647" fill="#ADD1B2" rx="11" ry="11" style="stroke:#181818;stroke-width:1.0;"/><path d="M432.5156,642.875 Q432.6719,642.6563 432.8594,642.5469 Q433.0469,642.4375 433.2656,642.4375 Q433.6406,642.4375 433.875,642.7031 Q434.1094,642.9531 434.1094,643.5625 L434.1094,645.0156 Q434.1094,645.625 433.875,645.8906 Q433.6406,646.1563 433.2656,646.1563 Q432.9219,646.1563 432.7188,645.9531 Q432.5156,645.7656 432.4063,645.25 Q432.3594,644.8906 432.1719,644.7031 Q431.8438,644.3281 431.2344,644.1094 Q430.625,643.8906 430,643.8906 Q429.2344,643.8906 428.5938,644.2188 Q427.9688,644.5469 427.4688,645.2969 Q426.9844,646.0469 426.9844,647.0781 L426.9844,648.1719 Q426.9844,649.4063 427.875,650.2344 Q428.7656,651.0469 430.3594,651.0469 Q431.2969,651.0469 431.9531,650.7969 Q432.3438,650.6406 432.7656,650.2031 Q433.0313,649.9375 433.1719,649.8594 Q433.3281,649.7813 433.5313,649.7813 Q433.8594,649.7813 434.1094,650.0469 Q434.375,650.2969 434.375,650.6406 Q434.375,650.9844 434.0313,651.3906 Q433.5313,651.9688 432.7344,652.2969 Q431.6563,652.75 430.3594,652.75 Q428.8438,652.75 427.6406,652.125 Q426.6563,651.625 425.9688,650.5625 Q425.2813,649.4844 425.2813,648.2031 L425.2813,647.0469 Q425.2813,645.7188 425.8906,644.5781 Q426.5156,643.4219 427.6094,642.8125 Q428.7031,642.1875 429.9375,642.1875 Q430.6719,642.1875 431.3125,642.3594 Q431.9688,642.5156 432.5156,642.875 Z " fill="#000000"/><text fill="#000000" font-family="sans-serif" font-size="14" lengthAdjust="spacing" textLength="31" x="450.25" y="652.7969">Task</text><line style="stroke:#181818;stroke-width:0.5;" x1="343.5" x2="555.5" y1="663" y2="663"/><text fill="#000000" font-family="sans-serif" font-size="14" lengthAdjust="spacing" textLength="72" x="348.5" y="682.1074">-title: String</text><text fill="#000000" font-family="sans-serif" font-size="14" lengthAdjust="spacing" textLength="119" x="348.5" y="700.7285">-description: String</text><text fill="#000000" font-family="sans-serif" font-size="14" lengthAdjust="spacing" textLength="71" x="348.5" y="719.3496">-date: Date</text><text fill="#000000" font-family="sans-serif" font-size="14" lengthAdjust="spacing" textLength="182" x="348.5" y="737.9707">-taskStartPeriod: TaskPeriod</text><text fill="#000000" font-family="sans-serif" font-size="14" lengthAdjust="spacing" textLength="161" x="348.5" y="756.5918">taskExpectedDuration: int</text><text fill="#000000" font-family="sans-serif" font-size="14" lengthAdjust="spacing" textLength="72" x="348.5" y="775.2129">type: String</text><text fill="#000000" font-family="sans-serif" font-size="14" lengthAdjust="spacing" textLength="165" x="348.5" y="793.834">greenSpace: GreenSpace</text><text fill="#000000" font-family="sans-serif" font-size="14" lengthAdjust="spacing" textLength="142" x="348.5" y="812.4551">urgency: TaskUrgency</text><text fill="#000000" font-family="sans-serif" font-size="14" lengthAdjust="spacing" textLength="117" x="348.5" y="831.0762">status: TaskStatus</text><text fill="#000000" font-family="sans-serif" font-size="14" lengthAdjust="spacing" textLength="137" x="348.5" y="849.6973">assignedTeam: Team</text><text fill="#000000" font-family="sans-serif" font-size="14" lengthAdjust="spacing" textLength="202" x="348.5" y="868.3184">assignedVehicles: List&lt;Vehicle&gt;</text><text fill="#000000" font-family="sans-serif" font-size="14" lengthAdjust="spacing" textLength="96" x="348.5" y="886.9395">startDate: Date</text><text fill="#000000" font-family="sans-serif" font-size="14" lengthAdjust="spacing" textLength="165" x="348.5" y="905.5605">taskPosition: TaskPosition</text><line style="stroke:#181818;stroke-width:0.5;" x1="343.5" x2="555.5" y1="913.0742" y2="913.0742"/></g><!--link AddEntryToDoListUI to AddEntryToDoListController--><g id="link_AddEntryToDoListUI_AddEntryToDoListController"><path codeLine="71" d="M166.24,68 C174.14,68 181.81,68 194.69,68 " fill="none" id="AddEntryToDoListUI-to-AddEntryToDoListController" style="stroke:#181818;stroke-width:1.0;stroke-dasharray:7.0,7.0;"/><polygon fill="#181818" points="200.69,68,191.69,64,195.69,68,191.69,72,200.69,68" style="stroke:#181818;stroke-width:1.0;"/></g><!--link AddEntryToDoListController to Repositories--><g id="link_AddEntryToDoListController_Repositories"><path codeLine="73" d="M410.33,68 C411.31,68 411.83,68 411.83,68 C411.83,68 420.79,68 439.48,68 " fill="none" id="AddEntryToDoListController-to-Repositories" style="stroke:#181818;stroke-width:1.0;stroke-dasharray:7.0,7.0;"/><polygon fill="#181818" points="445.48,68,436.48,64,440.48,68,436.48,72,445.48,68" style="stroke:#181818;stroke-width:1.0;"/><text fill="#000000" font-family="sans-serif" font-size="13" lengthAdjust="spacing" textLength="7" x="430.7799" y="64.6656">1</text></g><!--link Repositories to Repositories--><g id="link_Repositories_Repositories"><path codeLine="75" d="M803.63,53.55 C824.74,56.2 838.5,61.01 838.5,68 C838.5,74.99 830.6933,79.0527 809.5833,81.7027 " fill="none" id="Repositories-to-Repositories" style="stroke:#181818;stroke-width:1.0;"/><polygon fill="#181818" points="803.63,82.45,813.0581,85.2979,808.5911,81.8272,812.0617,77.3602,803.63,82.45" style="stroke:#181818;stroke-width:1.0;"/><text fill="#000000" font-family="sans-serif" font-size="13" lengthAdjust="spacing" textLength="75" x="844.5" y="73.5283">getInstance()</text><text fill="#000000" font-family="sans-serif" font-size="13" lengthAdjust="spacing" textLength="7" x="811.3347" y="49.606">1</text><text fill="#000000" font-family="sans-serif" font-size="13" lengthAdjust="spacing" textLength="7" x="811.3347" y="79.7253">1</text></g><!--link Repositories to EmployeeRepository--><g id="link_Repositories_EmployeeRepository"><path codeLine="76" d="M556.09,129.01 C532.51,149.69 511.4899,168.1226 491.3299,185.8126 " fill="none" id="Repositories-to-EmployeeRepository" style="stroke:#181818;stroke-width:1.0;"/><polygon fill="#181818" points="486.82,189.77,496.2231,186.8406,490.5783,186.4722,490.9466,180.8274,486.82,189.77" style="stroke:#181818;stroke-width:1.0;"/><text fill="#000000" font-family="sans-serif" font-size="13" lengthAdjust="spacing" textLength="7" x="540.326" y="151.4981">1</text><text fill="#000000" font-family="sans-serif" font-size="13" lengthAdjust="spacing" textLength="7" x="486.2669" y="178.8121">1</text></g><!--link Repositories to GreenSpacesRepository--><g id="link_Repositories_GreenSpacesRepository"><path codeLine="78" d="M649.61,129.23 C658.23,149.89 665.2312,166.692 672.5812,184.322 " fill="none" id="Repositories-to-GreenSpacesRepository" style="stroke:#181818;stroke-width:1.0;"/><polygon fill="#181818" points="674.89,189.86,675.1188,180.0138,672.966,185.245,667.7348,183.0922,674.89,189.86" style="stroke:#181818;stroke-width:1.0;"/><text fill="#000000" font-family="sans-serif" font-size="13" lengthAdjust="spacing" textLength="7" x="645.1087" y="151.3097">1</text><text fill="#000000" font-family="sans-serif" font-size="13" lengthAdjust="spacing" textLength="7" x="664.5215" y="178.658">1</text></g><!--link AddEntryToDoListController to Employee--><g id="link_AddEntryToDoListController_Employee"><path codeLine="80" d="M309.79,92.05 C319.14,142.25 340.5,257 340.5,257 C340.5,257 354.3242,279.4408 374.8642,312.8008 " fill="none" id="AddEntryToDoListController-to-Employee" style="stroke:#181818;stroke-width:1.0;stroke-dasharray:7.0,7.0;"/><polygon fill="#181818" points="378.01,317.91,376.6975,308.149,375.3885,313.6523,369.8852,312.3434,378.01,317.91" style="stroke:#181818;stroke-width:1.0;"/></g><!--link EmployeeRepository to Employee--><g id="link_EmployeeRepository_Employee"><path codeLine="82" d="M449.5,257.23 C449.5,274.04 449.5,289.63 449.5,311.92 " fill="none" id="EmployeeRepository-to-Employee" style="stroke:#181818;stroke-width:1.0;"/><polygon fill="#181818" points="449.5,317.92,453.5,308.92,449.5,312.92,445.5,308.92,449.5,317.92" style="stroke:#181818;stroke-width:1.0;"/><text fill="#000000" font-family="sans-serif" font-size="13" lengthAdjust="spacing" textLength="7" x="441.8984" y="278.5742">1</text><text fill="#000000" font-family="sans-serif" font-size="13" lengthAdjust="spacing" textLength="7" x="442.2758" y="306.9059">1</text></g><!--link GreenSpacesRepository to Employee--><g id="link_GreenSpacesRepository_Employee"><path codeLine="83" d="M651.42,257 C620.15,284.42 578.712,320.7451 538.542,355.9551 " fill="none" id="GreenSpacesRepository-to-Employee" style="stroke:#181818;stroke-width:1.0;"/><polygon fill="#181818" points="534.03,359.91,543.4347,356.9856,537.79,356.6142,538.1615,350.9696,534.03,359.91" style="stroke:#181818;stroke-width:1.0;"/><text fill="#000000" font-family="sans-serif" font-size="13" lengthAdjust="spacing" textLength="7" x="637.1917" y="278.5692">1</text><text fill="#000000" font-family="sans-serif" font-size="13" lengthAdjust="spacing" textLength="7" x="541.8702" y="349.4972">1</text></g><!--link Employee to Task--><g id="link_Employee_Task"><path codeLine="85" d="M449.5,552.19 C449.5,577.49 449.5,598.55 449.5,624.79 " fill="none" id="Employee-to-Task" style="stroke:#181818;stroke-width:1.0;"/><polygon fill="#181818" points="449.5,630.79,453.5,621.79,449.5,625.79,445.5,621.79,449.5,630.79" style="stroke:#181818;stroke-width:1.0;"/><text fill="#000000" font-family="sans-serif" font-size="13" lengthAdjust="spacing" textLength="50" x="450.5" y="597.0283">registers</text></g><!--link Task to TasksRepository--><g id="link_Task_TasksRepository"><path codeLine="87" d="M449.5,921.11 C449.5,948.51 449.5,970.01 449.5,993.76 " fill="none" id="Task-to-TasksRepository" style="stroke:#181818;stroke-width:1.0;"/><polygon fill="#181818" points="449.5,999.76,453.5,990.76,449.5,994.76,445.5,990.76,449.5,999.76" style="stroke:#181818;stroke-width:1.0;"/><text fill="#000000" font-family="sans-serif" font-size="13" lengthAdjust="spacing" textLength="21" x="450.5" y="966.0283">add</text><text fill="#000000" font-family="sans-serif" font-size="13" lengthAdjust="spacing" textLength="7" x="442.3195" y="943.0644">1</text><text fill="#000000" font-family="sans-serif" font-size="13" lengthAdjust="spacing" textLength="7" x="442.1391" y="988.6263">1</text></g><!--SRC=[VLLDRzim3BthLmYzj4MHOhi6Gu2YAOe2mrRCwUwAnJfQPCcG6AnUqVy-KdRYppI7H7oFZo8f4hcCU-Cg5LGfI-zylWk-18dX0A9ZAfNlLG4PrXPaW1oLAspV8UwKzd-DA-Ihih7FMEC0wmfavMtDXhYS8Nr0BtggtAeOxn23sHuGddBlClCFv1SXBYsyeaGlWobsABNXT8nt8adaGrbPNmEy2qcVXLDKp59c5CWL3RGr0NTQ8UDh-cbGA9Mn8yzgvntyE9HR2CGOXmsiT6bYf2lb90ggjqhL44wYVZYbTG1ASOXgdyzw__7RZK4xpfvQP2t7-6uYVilOMeaF8ThoxxH-S1ZgZLzxzhZtP7bh8RmBTfltUddgix-Wyj6W3mQYRFiu0A-k4tWZ2y0d5saOShYwffpwJftByKbER7rrlPGmGJl5Om1m6GtTI5ESyDYJVOoUlgEeAd7Jou1Z7C_YfDkek8zzaMHDGbcG6itMgYMyzcV9kmASLkUrT6ISVmcXYKXz-rdn12lRkXuJUvmhzprLrACuNcTspyYnsjT37gJHs47CWqdtZWWQvk58nts6Ak0p1EDratjpJWxCFxnLj8IWruUWceZ7PU7b7iJldd2GDLE7GCtBw-Q6byP814qO7cA3P-cSO2hI50xq1bH997qFuD-mCxc5sBv2QwwE4GEkXvLo8S_Sv5J0fcTnJwSh8szNvxTjAkWu4igBhnV3RH63hMDwiPYwqQmCTkwyQheCdrmnEsYVbt2xwXPfUjTiAcBscddNKyn4yMCiwN-de2GWKBCO60X7ExoKj5hYFm00]--></g></svg>