<?xml version="1.0" encoding="us-ascii" standalone="no"?><svg xmlns="http://www.w3.org/2000/svg" xmlns:xlink="http://www.w3.org/1999/xlink" contentStyleType="text/css" height="597px" preserveAspectRatio="none" style="width:659px;height:597px;background:#FFFFFF;" version="1.1" viewBox="0 0 659 597" width="659px" zoomAndPan="magnify"><defs/><g><text fill="#000000" font-family="sans-serif" font-size="14" font-weight="bold" lengthAdjust="spacing" textLength="351" x="155.75" y="30.1074">System Sequence Diagram (SSD) - Alternative One</text><rect fill="#FFFFFF" height="334.541" style="stroke:#181818;stroke-width:1.0;" width="10" x="78.5" y="151.8633"/><rect fill="#FFFFFF" height="31.291" style="stroke:#181818;stroke-width:1.0;" width="10" x="596.5" y="175.1543"/><rect fill="#FFFFFF" height="31.291" style="stroke:#181818;stroke-width:1.0;" width="10" x="596.5" y="237.7363"/><rect fill="#FFFFFF" height="150.7949" style="stroke:#181818;stroke-width:1.0;" width="10" x="596.5" y="326.6094"/><rect fill="none" height="163.0859" style="stroke:#000000;stroke-width:1.5;" width="643.5" x="10" y="284.0273"/><rect fill="none" height="98.5039" style="stroke:#000000;stroke-width:1.5;" width="623.5" x="20" y="341.6094"/><line style="stroke:#181818;stroke-width:0.5;stroke-dasharray:5.0,5.0;" x1="83" x2="83" y1="141.8633" y2="495.4043"/><line style="stroke:#181818;stroke-width:0.5;stroke-dasharray:5.0,5.0;" x1="601.5" x2="601.5" y1="141.8633" y2="495.4043"/><text fill="#000000" font-family="sans-serif" font-size="14" lengthAdjust="spacing" textLength="84" x="38.5" y="119.7285">Green Space</text><text fill="#000000" font-family="sans-serif" font-size="14" lengthAdjust="spacing" textLength="101" x="30" y="138.3496">Manager (GSM)</text><ellipse cx="83.5" cy="53.1211" fill="#E3E3E3" rx="8" ry="8" style="stroke:#181818;stroke-width:0.5;"/><path d="M83.5,61.1211 L83.5,88.1211 M70.5,69.1211 L96.5,69.1211 M83.5,88.1211 L70.5,103.1211 M83.5,88.1211 L96.5,103.1211 " fill="none" style="stroke:#181818;stroke-width:0.5;"/><text fill="#000000" font-family="sans-serif" font-size="14" lengthAdjust="spacing" textLength="84" x="38.5" y="509.5117">Green Space</text><text fill="#000000" font-family="sans-serif" font-size="14" lengthAdjust="spacing" textLength="101" x="30" y="528.1328">Manager (GSM)</text><ellipse cx="83.5" cy="540.1465" fill="#E3E3E3" rx="8" ry="8" style="stroke:#181818;stroke-width:0.5;"/><path d="M83.5,548.1465 L83.5,575.1465 M70.5,556.1465 L96.5,556.1465 M83.5,575.1465 L70.5,590.1465 M83.5,575.1465 L96.5,590.1465 " fill="none" style="stroke:#181818;stroke-width:0.5;"/><rect fill="#E3E3E3" height="32.6211" rx="2.5" ry="2.5" style="stroke:#181818;stroke-width:0.5;" width="64" x="569.5" y="108.2422"/><text fill="#000000" font-family="sans-serif" font-size="14" lengthAdjust="spacing" textLength="50" x="576.5" y="130.3496">:System</text><rect fill="#E3E3E3" height="32.6211" rx="2.5" ry="2.5" style="stroke:#181818;stroke-width:0.5;" width="64" x="569.5" y="494.4043"/><text fill="#000000" font-family="sans-serif" font-size="14" lengthAdjust="spacing" textLength="50" x="576.5" y="516.5117">:System</text><rect fill="#FFFFFF" height="334.541" style="stroke:#181818;stroke-width:1.0;" width="10" x="78.5" y="151.8633"/><rect fill="#FFFFFF" height="31.291" style="stroke:#181818;stroke-width:1.0;" width="10" x="596.5" y="175.1543"/><rect fill="#FFFFFF" height="31.291" style="stroke:#181818;stroke-width:1.0;" width="10" x="596.5" y="237.7363"/><rect fill="#FFFFFF" height="150.7949" style="stroke:#181818;stroke-width:1.0;" width="10" x="596.5" y="326.6094"/><polygon fill="#181818" points="584.5,171.1543,594.5,175.1543,584.5,179.1543,588.5,175.1543" style="stroke:#181818;stroke-width:1.0;"/><line style="stroke:#181818;stroke-width:1.0;" x1="88.5" x2="590.5" y1="175.1543" y2="175.1543"/><text fill="#000000" font-family="sans-serif" font-size="13" font-weight="bold" lengthAdjust="spacing" textLength="7" x="95.5" y="169.8916">1</text><text fill="#000000" font-family="sans-serif" font-size="13" lengthAdjust="spacing" textLength="226" x="106.5" y="169.8916">Asks to postpone a task in the Agenda</text><polygon fill="#181818" points="99.5,202.4453,89.5,206.4453,99.5,210.4453,95.5,206.4453" style="stroke:#181818;stroke-width:1.0;"/><line style="stroke:#181818;stroke-width:1.0;stroke-dasharray:2.0,2.0;" x1="93.5" x2="600.5" y1="206.4453" y2="206.4453"/><text fill="#000000" font-family="sans-serif" font-size="13" font-weight="bold" lengthAdjust="spacing" textLength="7" x="105.5" y="201.1826">2</text><text fill="#000000" font-family="sans-serif" font-size="13" lengthAdjust="spacing" textLength="370" x="116.5" y="201.1826">shows a list of all tasks in the Agenda with the status "Planned"</text><polygon fill="#181818" points="584.5,233.7363,594.5,237.7363,584.5,241.7363,588.5,237.7363" style="stroke:#181818;stroke-width:1.0;"/><line style="stroke:#181818;stroke-width:1.0;" x1="88.5" x2="590.5" y1="237.7363" y2="237.7363"/><text fill="#000000" font-family="sans-serif" font-size="13" font-weight="bold" lengthAdjust="spacing" textLength="7" x="95.5" y="232.4736">3</text><text fill="#000000" font-family="sans-serif" font-size="13" lengthAdjust="spacing" textLength="154" x="106.5" y="232.4736">selects a task from the list</text><polygon fill="#181818" points="99.5,265.0273,89.5,269.0273,99.5,273.0273,95.5,269.0273" style="stroke:#181818;stroke-width:1.0;"/><line style="stroke:#181818;stroke-width:1.0;stroke-dasharray:2.0,2.0;" x1="93.5" x2="600.5" y1="269.0273" y2="269.0273"/><text fill="#000000" font-family="sans-serif" font-size="13" font-weight="bold" lengthAdjust="spacing" textLength="7" x="105.5" y="263.7646">4</text><text fill="#000000" font-family="sans-serif" font-size="13" lengthAdjust="spacing" textLength="300" x="116.5" y="263.7646">asks for the new date to postpone the selected task</text><path d="M10,284.0273 L83,284.0273 L83,293.3184 L73,303.3184 L10,303.3184 L10,284.0273 " fill="#EEEEEE" style="stroke:#000000;stroke-width:1.5;"/><rect fill="none" height="163.0859" style="stroke:#000000;stroke-width:1.5;" width="643.5" x="10" y="284.0273"/><text fill="#000000" font-family="sans-serif" font-size="13" font-weight="bold" lengthAdjust="spacing" textLength="28" x="25" y="299.0557">loop</text><text fill="#000000" font-family="sans-serif" font-size="11" font-weight="bold" lengthAdjust="spacing" textLength="136" x="98" y="297.8975">[while date not available]</text><polygon fill="#181818" points="584.5,322.6094,594.5,326.6094,584.5,330.6094,588.5,326.6094" style="stroke:#181818;stroke-width:1.0;"/><line style="stroke:#181818;stroke-width:1.0;" x1="88.5" x2="590.5" y1="326.6094" y2="326.6094"/><text fill="#000000" font-family="sans-serif" font-size="13" font-weight="bold" lengthAdjust="spacing" textLength="7" x="95.5" y="321.3467">5</text><text fill="#000000" font-family="sans-serif" font-size="13" lengthAdjust="spacing" textLength="159" x="106.5" y="321.3467">types requested data (date)</text><path d="M20,341.6094 L81,341.6094 L81,350.9004 L71,360.9004 L20,360.9004 L20,341.6094 " fill="#EEEEEE" style="stroke:#000000;stroke-width:1.5;"/><rect fill="none" height="98.5039" style="stroke:#000000;stroke-width:1.5;" width="623.5" x="20" y="341.6094"/><text fill="#000000" font-family="sans-serif" font-size="13" font-weight="bold" lengthAdjust="spacing" textLength="16" x="35" y="356.6377">alt</text><text fill="#000000" font-family="sans-serif" font-size="11" font-weight="bold" lengthAdjust="spacing" textLength="91" x="96" y="355.4795">[Team Available]</text><polygon fill="#181818" points="99.5,380.1914,89.5,384.1914,99.5,388.1914,95.5,384.1914" style="stroke:#181818;stroke-width:1.0;"/><line style="stroke:#181818;stroke-width:1.0;stroke-dasharray:2.0,2.0;" x1="93.5" x2="595.5" y1="384.1914" y2="384.1914"/><text fill="#000000" font-family="sans-serif" font-size="13" font-weight="bold" lengthAdjust="spacing" textLength="7" x="105.5" y="378.9287">6</text><text fill="#000000" font-family="sans-serif" font-size="13" lengthAdjust="spacing" textLength="473" x="116.5" y="378.9287">check the availability of the team for the new date and confirms operation success</text><line style="stroke:#000000;stroke-width:1.0;stroke-dasharray:2.0,2.0;" x1="20" x2="643.5" y1="393.1914" y2="393.1914"/><text fill="#000000" font-family="sans-serif" font-size="11" font-weight="bold" lengthAdjust="spacing" textLength="112" x="25" y="405.0615">[Team Not Available]</text><polygon fill="#181818" points="99.5,428.1133,89.5,432.1133,99.5,436.1133,95.5,432.1133" style="stroke:#181818;stroke-width:1.0;"/><line style="stroke:#181818;stroke-width:1.0;stroke-dasharray:2.0,2.0;" x1="93.5" x2="595.5" y1="432.1133" y2="432.1133"/><text fill="#000000" font-family="sans-serif" font-size="13" font-weight="bold" lengthAdjust="spacing" textLength="7" x="105.5" y="426.8506">7</text><text fill="#000000" font-family="sans-serif" font-size="13" lengthAdjust="spacing" textLength="380" x="116.5" y="426.8506">shows team not available message and asks to select a new date</text><polygon fill="#181818" points="99.5,473.4043,89.5,477.4043,99.5,481.4043,95.5,477.4043" style="stroke:#181818;stroke-width:1.0;"/><line style="stroke:#181818;stroke-width:1.0;stroke-dasharray:2.0,2.0;" x1="93.5" x2="600.5" y1="477.4043" y2="477.4043"/><text fill="#000000" font-family="sans-serif" font-size="13" font-weight="bold" lengthAdjust="spacing" textLength="7" x="105.5" y="472.1416">8</text><text fill="#000000" font-family="sans-serif" font-size="13" lengthAdjust="spacing" textLength="158" x="116.5" y="472.1416">displays operation success</text><!--SRC=[bLBDRjim3BxxAOYSaaDU88S11Zhqr6s0Tzo5bHbRi4nv8Xt3RpzASRgsImTK9zaYln_oay7pX0b762D7rwSu4cYQgPANbmdTW1qrkWQ2H4wHk_2wG7fiu-AvWpC6eQfIhrRQhA8qGaE_Ps97yE2no-Nxfdaum17ge9GOrLy8lhEruQoHv_6PajsTnWIxnqJ4q9W4-iLFoAOZmVwnUJhi00NiKfa6zSvFo0gxqvMqF5wl1SfVKAbKLs37Bd3ySXDuWbe60OqmHT4fCW62eWpW6RGdg3lY5ald2zOD7BQpOHqDDgEVR2Xn4GCANXJY6J240YflKM7nsfTlKTHPOFSZ83ErkmBTqbt6zmQ4Wkr5RhhFjiQ2cSa_gRj8FDliSp_J0crkUpsS8hOGKbluFb8QOfnWwRrbeO1mLC0B-e3Fbf_xJdITI2nbbXd9-DQ8iC_jX_j6RBz1xU4dMRJgl-WV6dGzkQ6OsBJuu7NDAyh_DCFyOn-v1HVvxDCe42TAbjh88BDp959LPB7V97mpa_Kxa_y9IE5xCnWO3T9oNaXnI-PrthRVcwHilFhAhN5RMPvqzSb5jrwcWEizF_Vt-GS0]--></g></svg>