<?xml version="1.0" encoding="us-ascii" standalone="no"?><svg xmlns="http://www.w3.org/2000/svg" xmlns:xlink="http://www.w3.org/1999/xlink" contentStyleType="text/css" height="468px" preserveAspectRatio="none" style="width:534px;height:468px;background:#FFFFFF;" version="1.1" viewBox="0 0 534 468" width="534px" zoomAndPan="magnify"><defs/><g><text fill="#000000" font-family="sans-serif" font-size="14" font-weight="bold" lengthAdjust="spacing" textLength="351" x="90.75" y="30.1074">System Sequence Diagram (SSD) - Alternative One</text><rect fill="#FFFFFF" height="206.0371" style="stroke:#181818;stroke-width:1.0;" width="10" x="53.5" y="151.8633"/><rect fill="#FFFFFF" height="31.291" style="stroke:#181818;stroke-width:1.0;" width="10" x="491.5" y="175.1543"/><rect fill="#FFFFFF" height="48.582" style="stroke:#181818;stroke-width:1.0;" width="10" x="491.5" y="237.7363"/><rect fill="#FFFFFF" height="31.291" style="stroke:#181818;stroke-width:1.0;" width="10" x="491.5" y="317.6094"/><line style="stroke:#181818;stroke-width:0.5;stroke-dasharray:5.0,5.0;" x1="58" x2="58" y1="141.8633" y2="366.9004"/><line style="stroke:#181818;stroke-width:0.5;stroke-dasharray:5.0,5.0;" x1="496.5" x2="496.5" y1="141.8633" y2="366.9004"/><text fill="#000000" font-family="sans-serif" font-size="14" lengthAdjust="spacing" textLength="84" x="13.5" y="119.7285">Green Space</text><text fill="#000000" font-family="sans-serif" font-size="14" lengthAdjust="spacing" textLength="101" x="5" y="138.3496">Manager (GSM)</text><ellipse cx="58.5" cy="53.1211" fill="#E3E3E3" rx="8" ry="8" style="stroke:#181818;stroke-width:0.5;"/><path d="M58.5,61.1211 L58.5,88.1211 M45.5,69.1211 L71.5,69.1211 M58.5,88.1211 L45.5,103.1211 M58.5,88.1211 L71.5,103.1211 " fill="none" style="stroke:#181818;stroke-width:0.5;"/><text fill="#000000" font-family="sans-serif" font-size="14" lengthAdjust="spacing" textLength="84" x="13.5" y="381.0078">Green Space</text><text fill="#000000" font-family="sans-serif" font-size="14" lengthAdjust="spacing" textLength="101" x="5" y="399.6289">Manager (GSM)</text><ellipse cx="58.5" cy="411.6426" fill="#E3E3E3" rx="8" ry="8" style="stroke:#181818;stroke-width:0.5;"/><path d="M58.5,419.6426 L58.5,446.6426 M45.5,427.6426 L71.5,427.6426 M58.5,446.6426 L45.5,461.6426 M58.5,446.6426 L71.5,461.6426 " fill="none" style="stroke:#181818;stroke-width:0.5;"/><rect fill="#E3E3E3" height="32.6211" rx="2.5" ry="2.5" style="stroke:#181818;stroke-width:0.5;" width="64" x="464.5" y="108.2422"/><text fill="#000000" font-family="sans-serif" font-size="14" lengthAdjust="spacing" textLength="50" x="471.5" y="130.3496">:System</text><rect fill="#E3E3E3" height="32.6211" rx="2.5" ry="2.5" style="stroke:#181818;stroke-width:0.5;" width="64" x="464.5" y="365.9004"/><text fill="#000000" font-family="sans-serif" font-size="14" lengthAdjust="spacing" textLength="50" x="471.5" y="388.0078">:System</text><rect fill="#FFFFFF" height="206.0371" style="stroke:#181818;stroke-width:1.0;" width="10" x="53.5" y="151.8633"/><rect fill="#FFFFFF" height="31.291" style="stroke:#181818;stroke-width:1.0;" width="10" x="491.5" y="175.1543"/><rect fill="#FFFFFF" height="48.582" style="stroke:#181818;stroke-width:1.0;" width="10" x="491.5" y="237.7363"/><rect fill="#FFFFFF" height="31.291" style="stroke:#181818;stroke-width:1.0;" width="10" x="491.5" y="317.6094"/><polygon fill="#181818" points="479.5,171.1543,489.5,175.1543,479.5,179.1543,483.5,175.1543" style="stroke:#181818;stroke-width:1.0;"/><line style="stroke:#181818;stroke-width:1.0;" x1="63.5" x2="485.5" y1="175.1543" y2="175.1543"/><text fill="#000000" font-family="sans-serif" font-size="13" font-weight="bold" lengthAdjust="spacing" textLength="7" x="70.5" y="169.8916">1</text><text fill="#000000" font-family="sans-serif" font-size="13" lengthAdjust="spacing" textLength="226" x="81.5" y="169.8916">Asks to postpone a task in the Agenda</text><polygon fill="#181818" points="74.5,202.4453,64.5,206.4453,74.5,210.4453,70.5,206.4453" style="stroke:#181818;stroke-width:1.0;"/><line style="stroke:#181818;stroke-width:1.0;stroke-dasharray:2.0,2.0;" x1="68.5" x2="495.5" y1="206.4453" y2="206.4453"/><text fill="#000000" font-family="sans-serif" font-size="13" font-weight="bold" lengthAdjust="spacing" textLength="7" x="80.5" y="201.1826">2</text><text fill="#000000" font-family="sans-serif" font-size="13" lengthAdjust="spacing" textLength="370" x="91.5" y="201.1826">shows a list of all tasks in the Agenda with the status "Planned"</text><polygon fill="#181818" points="479.5,233.7363,489.5,237.7363,479.5,241.7363,483.5,237.7363" style="stroke:#181818;stroke-width:1.0;"/><line style="stroke:#181818;stroke-width:1.0;" x1="63.5" x2="485.5" y1="237.7363" y2="237.7363"/><text fill="#000000" font-family="sans-serif" font-size="13" font-weight="bold" lengthAdjust="spacing" textLength="7" x="70.5" y="232.4736">3</text><text fill="#000000" font-family="sans-serif" font-size="13" lengthAdjust="spacing" textLength="154" x="81.5" y="232.4736">selects a task from the list</text><polygon fill="#181818" points="74.5,282.3184,64.5,286.3184,74.5,290.3184,70.5,286.3184" style="stroke:#181818;stroke-width:1.0;"/><line style="stroke:#181818;stroke-width:1.0;stroke-dasharray:2.0,2.0;" x1="68.5" x2="495.5" y1="286.3184" y2="286.3184"/><text fill="#000000" font-family="sans-serif" font-size="13" font-weight="bold" lengthAdjust="spacing" textLength="7" x="80.5" y="272.4102">4</text><text fill="#000000" font-family="sans-serif" font-size="13" lengthAdjust="spacing" textLength="389" x="91.5" y="263.7646">check and prints the availability of the team already assigned to the</text><text fill="#000000" font-family="sans-serif" font-size="13" lengthAdjust="spacing" textLength="354" x="95.5" y="281.0557">task and asks for the new date to postpone the selected task</text><polygon fill="#181818" points="479.5,313.6094,489.5,317.6094,479.5,321.6094,483.5,317.6094" style="stroke:#181818;stroke-width:1.0;"/><line style="stroke:#181818;stroke-width:1.0;" x1="63.5" x2="485.5" y1="317.6094" y2="317.6094"/><text fill="#000000" font-family="sans-serif" font-size="13" font-weight="bold" lengthAdjust="spacing" textLength="7" x="70.5" y="312.3467">5</text><text fill="#000000" font-family="sans-serif" font-size="13" lengthAdjust="spacing" textLength="159" x="81.5" y="312.3467">types requested data (date)</text><polygon fill="#181818" points="74.5,344.9004,64.5,348.9004,74.5,352.9004,70.5,348.9004" style="stroke:#181818;stroke-width:1.0;"/><line style="stroke:#181818;stroke-width:1.0;stroke-dasharray:2.0,2.0;" x1="68.5" x2="495.5" y1="348.9004" y2="348.9004"/><text fill="#000000" font-family="sans-serif" font-size="13" font-weight="bold" lengthAdjust="spacing" textLength="7" x="80.5" y="343.6377">6</text><text fill="#000000" font-family="sans-serif" font-size="13" lengthAdjust="spacing" textLength="158" x="91.5" y="343.6377">displays operation success</text><!--SRC=[bPB1JiCm38RlVGghf-sm5zW1QT8aJWYaNhcOr6kZfaw8tKrzUvniGu3WG4vkxNp-VpioUKwOSOOvSdHZZZE1veKQ-SmaT1CErEaQ238vHHx2rm8PiOyNpmESC0WrZNgrqcuLfHawUb-87S7Hur3ADrrttC8E3a4fCwe_4popNSD58o_p6sMBdSOCxMCcOkXC0hto4xBfoB1vx9wsBQ201OrfKEzyGbPezzUcDNaDAygVKQbMDs370jWzt0NkuI2JW4P8KJH59a1Gb0ayWuu4Xu6unthpatM7m-tSM3l35lhUXX8lOg3WHI6U04EeKFbEXOlNiNwBeYu2xKj0PkhRYkxfruu_3GW5sulSTPziZPLPclzJjnl9JO3SGygUZLauU4OVyCq7hsinK_ufsIunPC9-jN6B7qnrcM99ll9LIU5KqoVRPaamNQ0lGhwEkzgl5Wh1wfl_cDSraTZ3j6Sc1M1uX4rfiltT-z_cUoyfu2eG4sLxcP515kT8v0z17m00]--></g></svg>