<?xml version="1.0" encoding="us-ascii" standalone="no"?><svg xmlns="http://www.w3.org/2000/svg" xmlns:xlink="http://www.w3.org/1999/xlink" contentStyleType="text/css" height="902px" preserveAspectRatio="none" style="width:1367px;height:902px;background:#FFFFFF;" version="1.1" viewBox="0 0 1367 902" width="1367px" zoomAndPan="magnify"><defs/><g><rect fill="#FFFFFF" height="716.6934" style="stroke:#181818;stroke-width:1.0;" width="10" x="17.5" y="93.6211"/><rect fill="#FFFFFF" height="31.291" style="stroke:#181818;stroke-width:1.0;" width="10" x="328.5" y="116.9121"/><rect fill="#FFFFFF" height="200.7461" style="stroke:#181818;stroke-width:1.0;" width="10" x="328.5" y="179.4941"/><rect fill="#FFFFFF" height="355.2012" style="stroke:#181818;stroke-width:1.0;" width="10" x="328.5" y="446.1133"/><rect fill="#FFFFFF" height="138.1641" style="stroke:#181818;stroke-width:1.0;" width="10" x="548.5" y="210.7852"/><rect fill="#FFFFFF" height="292.6191" style="stroke:#181818;stroke-width:1.0;" width="10" x="548.5" y="477.4043"/><rect fill="#FFFFFF" height="75.582" style="stroke:#181818;stroke-width:1.0;" width="10" x="922" y="242.0762"/><rect fill="#FFFFFF" height="75.582" style="stroke:#181818;stroke-width:1.0;" width="10" x="922" y="663.1504"/><rect fill="#FFFFFF" height="119.873" style="stroke:#181818;stroke-width:1.0;" width="10" x="1137" y="543.2773"/><line style="stroke:#181818;stroke-width:0.5;stroke-dasharray:5.0,5.0;" x1="22" x2="22" y1="83.6211" y2="819.3145"/><line style="stroke:#181818;stroke-width:0.5;stroke-dasharray:5.0,5.0;" x1="333" x2="333" y1="83.6211" y2="819.3145"/><line style="stroke:#181818;stroke-width:0.5;stroke-dasharray:5.0,5.0;" x1="553" x2="553" y1="83.6211" y2="819.3145"/><line style="stroke:#181818;stroke-width:0.5;stroke-dasharray:5.0,5.0;" x1="696" x2="696" y1="83.6211" y2="819.3145"/><line style="stroke:#181818;stroke-width:0.5;stroke-dasharray:5.0,5.0;" x1="803" x2="803" y1="83.6211" y2="819.3145"/><line style="stroke:#181818;stroke-width:0.5;stroke-dasharray:5.0,5.0;" x1="927" x2="927" y1="83.6211" y2="819.3145"/><line style="stroke:#181818;stroke-width:0.5;stroke-dasharray:5.0,5.0;" x1="1142" x2="1142" y1="83.6211" y2="819.3145"/><text fill="#000000" font-family="sans-serif" font-size="14" lengthAdjust="spacing" textLength="29" x="5" y="80.1074">VFM</text><ellipse cx="22.5" cy="13.5" fill="#E3E3E3" rx="8" ry="8" style="stroke:#181818;stroke-width:0.5;"/><path d="M22.5,21.5 L22.5,48.5 M9.5,29.5 L35.5,29.5 M22.5,48.5 L9.5,63.5 M22.5,48.5 L35.5,63.5 " fill="none" style="stroke:#181818;stroke-width:0.5;"/><text fill="#000000" font-family="sans-serif" font-size="14" lengthAdjust="spacing" textLength="29" x="5" y="833.4219">VFM</text><ellipse cx="22.5" cy="845.4355" fill="#E3E3E3" rx="8" ry="8" style="stroke:#181818;stroke-width:0.5;"/><path d="M22.5,853.4355 L22.5,880.4355 M9.5,861.4355 L35.5,861.4355 M22.5,880.4355 L9.5,895.4355 M22.5,880.4355 L35.5,895.4355 " fill="none" style="stroke:#181818;stroke-width:0.5;"/><rect fill="#E3E3E3" height="32.6211" rx="2.5" ry="2.5" style="stroke:#181818;stroke-width:0.5;" width="119" x="274" y="50"/><text fill="#000000" font-family="sans-serif" font-size="14" lengthAdjust="spacing" textLength="105" x="281" y="72.1074">:CreateVehicleUI</text><rect fill="#E3E3E3" height="32.6211" rx="2.5" ry="2.5" style="stroke:#181818;stroke-width:0.5;" width="119" x="274" y="818.3145"/><text fill="#000000" font-family="sans-serif" font-size="14" lengthAdjust="spacing" textLength="105" x="281" y="840.4219">:CreateVehicleUI</text><rect fill="#E3E3E3" height="32.6211" rx="2.5" ry="2.5" style="stroke:#181818;stroke-width:0.5;" width="169" x="469" y="50"/><text fill="#000000" font-family="sans-serif" font-size="14" lengthAdjust="spacing" textLength="155" x="476" y="72.1074">:CreateVehicleController</text><rect fill="#E3E3E3" height="32.6211" rx="2.5" ry="2.5" style="stroke:#181818;stroke-width:0.5;" width="169" x="469" y="818.3145"/><text fill="#000000" font-family="sans-serif" font-size="14" lengthAdjust="spacing" textLength="155" x="476" y="840.4219">:CreateVehicleController</text><rect fill="#E3E3E3" height="32.6211" rx="2.5" ry="2.5" style="stroke:#181818;stroke-width:0.5;" width="97" x="648" y="50"/><text fill="#000000" font-family="sans-serif" font-size="14" lengthAdjust="spacing" textLength="83" x="655" y="72.1074">:Repositories</text><rect fill="#E3E3E3" height="32.6211" rx="2.5" ry="2.5" style="stroke:#181818;stroke-width:0.5;" width="97" x="648" y="818.3145"/><text fill="#000000" font-family="sans-serif" font-size="14" lengthAdjust="spacing" textLength="83" x="655" y="840.4219">:Repositories</text><rect fill="#E3E3E3" height="51.2422" rx="2.5" ry="2.5" style="stroke:#181818;stroke-width:0.5;" width="97" x="755" y="31.3789"/><text fill="#000000" font-family="sans-serif" font-size="14" lengthAdjust="spacing" textLength="74" x="766.5" y="53.4863">repositories</text><text fill="#000000" font-family="sans-serif" font-size="14" lengthAdjust="spacing" textLength="83" x="762" y="72.1074">:Repositories</text><rect fill="#E3E3E3" height="51.2422" rx="2.5" ry="2.5" style="stroke:#181818;stroke-width:0.5;" width="97" x="755" y="818.3145"/><text fill="#000000" font-family="sans-serif" font-size="14" lengthAdjust="spacing" textLength="74" x="766.5" y="840.4219">repositories</text><text fill="#000000" font-family="sans-serif" font-size="14" lengthAdjust="spacing" textLength="83" x="762" y="859.043">:Repositories</text><rect fill="#E3E3E3" height="51.2422" rx="2.5" ry="2.5" style="stroke:#181818;stroke-width:0.5;" width="130" x="862" y="31.3789"/><text fill="#000000" font-family="sans-serif" font-size="14" lengthAdjust="spacing" textLength="116" x="869" y="53.4863">vehicleRepository:</text><text fill="#000000" font-family="sans-serif" font-size="14" lengthAdjust="spacing" textLength="114" x="870" y="72.1074">VehicleRepository</text><rect fill="#E3E3E3" height="51.2422" rx="2.5" ry="2.5" style="stroke:#181818;stroke-width:0.5;" width="130" x="862" y="818.3145"/><text fill="#000000" font-family="sans-serif" font-size="14" lengthAdjust="spacing" textLength="116" x="869" y="840.4219">vehicleRepository:</text><text fill="#000000" font-family="sans-serif" font-size="14" lengthAdjust="spacing" textLength="114" x="870" y="859.043">VehicleRepository</text><rect fill="#E3E3E3" height="51.2422" rx="2.5" ry="2.5" style="stroke:#181818;stroke-width:0.5;" width="62" x="1111" y="31.3789"/><text fill="#000000" font-family="sans-serif" font-size="14" lengthAdjust="spacing" textLength="48" x="1118" y="53.4863">vehicle:</text><text fill="#000000" font-family="sans-serif" font-size="14" lengthAdjust="spacing" textLength="46" x="1119" y="72.1074">Vehicle</text><rect fill="#E3E3E3" height="51.2422" rx="2.5" ry="2.5" style="stroke:#181818;stroke-width:0.5;" width="62" x="1111" y="818.3145"/><text fill="#000000" font-family="sans-serif" font-size="14" lengthAdjust="spacing" textLength="48" x="1118" y="840.4219">vehicle:</text><text fill="#000000" font-family="sans-serif" font-size="14" lengthAdjust="spacing" textLength="46" x="1119" y="859.043">Vehicle</text><rect fill="#FFFFFF" height="716.6934" style="stroke:#181818;stroke-width:1.0;" width="10" x="17.5" y="93.6211"/><rect fill="#FFFFFF" height="31.291" style="stroke:#181818;stroke-width:1.0;" width="10" x="328.5" y="116.9121"/><rect fill="#FFFFFF" height="200.7461" style="stroke:#181818;stroke-width:1.0;" width="10" x="328.5" y="179.4941"/><rect fill="#FFFFFF" height="355.2012" style="stroke:#181818;stroke-width:1.0;" width="10" x="328.5" y="446.1133"/><rect fill="#FFFFFF" height="138.1641" style="stroke:#181818;stroke-width:1.0;" width="10" x="548.5" y="210.7852"/><rect fill="#FFFFFF" height="292.6191" style="stroke:#181818;stroke-width:1.0;" width="10" x="548.5" y="477.4043"/><rect fill="#FFFFFF" height="75.582" style="stroke:#181818;stroke-width:1.0;" width="10" x="922" y="242.0762"/><rect fill="#FFFFFF" height="75.582" style="stroke:#181818;stroke-width:1.0;" width="10" x="922" y="663.1504"/><rect fill="#FFFFFF" height="119.873" style="stroke:#181818;stroke-width:1.0;" width="10" x="1137" y="543.2773"/><polygon fill="#181818" points="316.5,112.9121,326.5,116.9121,316.5,120.9121,320.5,116.9121" style="stroke:#181818;stroke-width:1.0;"/><line style="stroke:#181818;stroke-width:1.0;" x1="27.5" x2="322.5" y1="116.9121" y2="116.9121"/><text fill="#000000" font-family="sans-serif" font-size="13" font-weight="bold" lengthAdjust="spacing" textLength="7" x="34.5" y="111.6494">1</text><text fill="#000000" font-family="sans-serif" font-size="13" lengthAdjust="spacing" textLength="164" x="45.5" y="111.6494">asks to create a new vehicle</text><polygon fill="#181818" points="38.5,144.2031,28.5,148.2031,38.5,152.2031,34.5,148.2031" style="stroke:#181818;stroke-width:1.0;"/><line style="stroke:#181818;stroke-width:1.0;stroke-dasharray:2.0,2.0;" x1="32.5" x2="332.5" y1="148.2031" y2="148.2031"/><text fill="#000000" font-family="sans-serif" font-size="13" font-weight="bold" lengthAdjust="spacing" textLength="7" x="44.5" y="142.9404">2</text><text fill="#000000" font-family="sans-serif" font-size="13" lengthAdjust="spacing" textLength="148" x="55.5" y="142.9404">requests registrationPlate</text><polygon fill="#181818" points="316.5,175.4941,326.5,179.4941,316.5,183.4941,320.5,179.4941" style="stroke:#181818;stroke-width:1.0;"/><line style="stroke:#181818;stroke-width:1.0;" x1="27.5" x2="322.5" y1="179.4941" y2="179.4941"/><text fill="#000000" font-family="sans-serif" font-size="13" font-weight="bold" lengthAdjust="spacing" textLength="7" x="34.5" y="174.2314">3</text><text fill="#000000" font-family="sans-serif" font-size="13" lengthAdjust="spacing" textLength="130" x="45.5" y="174.2314">types registrationPlate</text><polygon fill="#181818" points="536.5,206.7852,546.5,210.7852,536.5,214.7852,540.5,210.7852" style="stroke:#181818;stroke-width:1.0;"/><line style="stroke:#181818;stroke-width:1.0;" x1="338.5" x2="542.5" y1="210.7852" y2="210.7852"/><text fill="#000000" font-family="sans-serif" font-size="13" font-weight="bold" lengthAdjust="spacing" textLength="7" x="345.5" y="205.5225">4</text><text fill="#000000" font-family="sans-serif" font-size="13" lengthAdjust="spacing" textLength="180" x="356.5" y="205.5225">existsVehicle(registrationPlate)</text><polygon fill="#181818" points="910,238.0762,920,242.0762,910,246.0762,914,242.0762" style="stroke:#181818;stroke-width:1.0;"/><line style="stroke:#181818;stroke-width:1.0;" x1="558.5" x2="916" y1="242.0762" y2="242.0762"/><text fill="#000000" font-family="sans-serif" font-size="13" font-weight="bold" lengthAdjust="spacing" textLength="7" x="565.5" y="236.8135">5</text><text fill="#000000" font-family="sans-serif" font-size="13" lengthAdjust="spacing" textLength="180" x="576.5" y="236.8135">existsVehicle(registrationPlate)</text><line style="stroke:#181818;stroke-width:1.0;" x1="932" x2="974" y1="273.3672" y2="273.3672"/><line style="stroke:#181818;stroke-width:1.0;" x1="974" x2="974" y1="273.3672" y2="286.3672"/><line style="stroke:#181818;stroke-width:1.0;" x1="933" x2="974" y1="286.3672" y2="286.3672"/><polygon fill="#181818" points="943,282.3672,933,286.3672,943,290.3672,939,286.3672" style="stroke:#181818;stroke-width:1.0;"/><text fill="#000000" font-family="sans-serif" font-size="13" font-weight="bold" lengthAdjust="spacing" textLength="7" x="939" y="268.1045">6</text><text fill="#000000" font-family="sans-serif" font-size="13" lengthAdjust="spacing" textLength="180" x="950" y="268.1045">existsVehicle(registrationPlate)</text><polygon fill="#181818" points="569.5,313.6582,559.5,317.6582,569.5,321.6582,565.5,317.6582" style="stroke:#181818;stroke-width:1.0;"/><line style="stroke:#181818;stroke-width:1.0;stroke-dasharray:2.0,2.0;" x1="563.5" x2="926" y1="317.6582" y2="317.6582"/><text fill="#000000" font-family="sans-serif" font-size="13" font-weight="bold" lengthAdjust="spacing" textLength="7" x="575.5" y="312.3955">7</text><text fill="#000000" font-family="sans-serif" font-size="13" lengthAdjust="spacing" textLength="27" x="586.5" y="312.3955">false</text><polygon fill="#181818" points="349.5,344.9492,339.5,348.9492,349.5,352.9492,345.5,348.9492" style="stroke:#181818;stroke-width:1.0;"/><line style="stroke:#181818;stroke-width:1.0;stroke-dasharray:2.0,2.0;" x1="343.5" x2="552.5" y1="348.9492" y2="348.9492"/><text fill="#000000" font-family="sans-serif" font-size="13" font-weight="bold" lengthAdjust="spacing" textLength="7" x="355.5" y="343.6865">8</text><text fill="#000000" font-family="sans-serif" font-size="13" lengthAdjust="spacing" textLength="27" x="366.5" y="343.6865">false</text><polygon fill="#181818" points="38.5,376.2402,28.5,380.2402,38.5,384.2402,34.5,380.2402" style="stroke:#181818;stroke-width:1.0;"/><line style="stroke:#181818;stroke-width:1.0;" x1="32.5" x2="332.5" y1="380.2402" y2="380.2402"/><text fill="#000000" font-family="sans-serif" font-size="13" font-weight="bold" lengthAdjust="spacing" textLength="7" x="44.5" y="374.9775">9</text><text fill="#000000" font-family="sans-serif" font-size="13" lengthAdjust="spacing" textLength="79" x="55.5" y="374.9775">requests data</text><polygon fill="#181818" points="316.5,442.1133,326.5,446.1133,316.5,450.1133,320.5,446.1133" style="stroke:#181818;stroke-width:1.0;"/><line style="stroke:#181818;stroke-width:1.0;" x1="27.5" x2="322.5" y1="446.1133" y2="446.1133"/><text fill="#000000" font-family="sans-serif" font-size="13" font-weight="bold" lengthAdjust="spacing" textLength="14" x="34.5" y="423.5596">10</text><text fill="#000000" font-family="sans-serif" font-size="13" lengthAdjust="spacing" textLength="264" x="52.5" y="406.2686">types requested data (registrationPlate,brand,</text><text fill="#000000" font-family="sans-serif" font-size="13" lengthAdjust="spacing" textLength="235" x="52.5" y="423.5596">model,type,tare,grossWeight,currentKm,</text><text fill="#000000" font-family="sans-serif" font-size="13" lengthAdjust="spacing" textLength="240" x="52.5" y="440.8506">registerDate,acquisitionDate,checkupKm)</text><polygon fill="#181818" points="536.5,473.4043,546.5,477.4043,536.5,481.4043,540.5,477.4043" style="stroke:#181818;stroke-width:1.0;"/><line style="stroke:#181818;stroke-width:1.0;stroke-dasharray:2.0,2.0;" x1="338.5" x2="542.5" y1="477.4043" y2="477.4043"/><text fill="#000000" font-family="sans-serif" font-size="13" font-weight="bold" lengthAdjust="spacing" textLength="14" x="345.5" y="472.1416">11</text><text fill="#000000" font-family="sans-serif" font-size="13" lengthAdjust="spacing" textLength="74" x="363.5" y="472.1416">submitData()</text><polygon fill="#181818" points="1125,539.2773,1135,543.2773,1125,547.2773,1129,543.2773" style="stroke:#181818;stroke-width:1.0;"/><line style="stroke:#181818;stroke-width:1.0;" x1="558.5" x2="1131" y1="543.2773" y2="543.2773"/><text fill="#000000" font-family="sans-serif" font-size="13" font-weight="bold" lengthAdjust="spacing" textLength="14" x="565.5" y="520.7236">12</text><text fill="#000000" font-family="sans-serif" font-size="13" lengthAdjust="spacing" textLength="327" x="583.5" y="503.4326">createVehicle(registrationPlate, brand, model, type, tare,</text><text fill="#000000" font-family="sans-serif" font-size="13" lengthAdjust="spacing" textLength="320" x="587.5" y="520.7236">grossWeight, currentKm, registerDate, acquisitionDate,</text><text fill="#000000" font-family="sans-serif" font-size="13" lengthAdjust="spacing" textLength="215" x="587.5" y="538.0146">checkUpKmFrequency, checkUpKm)</text><line style="stroke:#181818;stroke-width:1.0;" x1="1147" x2="1189" y1="574.5684" y2="574.5684"/><line style="stroke:#181818;stroke-width:1.0;" x1="1189" x2="1189" y1="574.5684" y2="587.5684"/><line style="stroke:#181818;stroke-width:1.0;" x1="1148" x2="1189" y1="587.5684" y2="587.5684"/><polygon fill="#181818" points="1158,583.5684,1148,587.5684,1158,591.5684,1154,587.5684" style="stroke:#181818;stroke-width:1.0;"/><text fill="#000000" font-family="sans-serif" font-size="13" font-weight="bold" lengthAdjust="spacing" textLength="14" x="1154" y="569.3057">13</text><text fill="#000000" font-family="sans-serif" font-size="13" lengthAdjust="spacing" textLength="188" x="1172" y="569.3057">validateVehicle(registrationPlate)</text><line style="stroke:#181818;stroke-width:1.0;" x1="1147" x2="1189" y1="618.8594" y2="618.8594"/><line style="stroke:#181818;stroke-width:1.0;" x1="1189" x2="1189" y1="618.8594" y2="631.8594"/><line style="stroke:#181818;stroke-width:1.0;" x1="1148" x2="1189" y1="631.8594" y2="631.8594"/><polygon fill="#181818" points="1158,627.8594,1148,631.8594,1158,635.8594,1154,631.8594" style="stroke:#181818;stroke-width:1.0;"/><text fill="#000000" font-family="sans-serif" font-size="13" font-weight="bold" lengthAdjust="spacing" textLength="14" x="1154" y="613.5967">14</text><text fill="#000000" font-family="sans-serif" font-size="13" lengthAdjust="spacing" textLength="79" x="1172" y="613.5967">create vehicle</text><polygon fill="#181818" points="943,659.1504,933,663.1504,943,667.1504,939,663.1504" style="stroke:#181818;stroke-width:1.0;"/><line style="stroke:#181818;stroke-width:1.0;stroke-dasharray:2.0,2.0;" x1="937" x2="1141" y1="663.1504" y2="663.1504"/><text fill="#000000" font-family="sans-serif" font-size="13" font-weight="bold" lengthAdjust="spacing" textLength="14" x="949" y="657.8877">15</text><text fill="#000000" font-family="sans-serif" font-size="13" lengthAdjust="spacing" textLength="39" x="967" y="657.8877">vehicle</text><line style="stroke:#181818;stroke-width:1.0;" x1="932" x2="974" y1="694.4414" y2="694.4414"/><line style="stroke:#181818;stroke-width:1.0;" x1="974" x2="974" y1="694.4414" y2="707.4414"/><line style="stroke:#181818;stroke-width:1.0;" x1="933" x2="974" y1="707.4414" y2="707.4414"/><polygon fill="#181818" points="943,703.4414,933,707.4414,943,711.4414,939,707.4414" style="stroke:#181818;stroke-width:1.0;"/><text fill="#000000" font-family="sans-serif" font-size="13" font-weight="bold" lengthAdjust="spacing" textLength="14" x="939" y="689.1787">16</text><text fill="#000000" font-family="sans-serif" font-size="13" lengthAdjust="spacing" textLength="68" x="957" y="689.1787">add(vehicle)</text><polygon fill="#181818" points="569.5,734.7324,559.5,738.7324,569.5,742.7324,565.5,738.7324" style="stroke:#181818;stroke-width:1.0;"/><line style="stroke:#181818;stroke-width:1.0;stroke-dasharray:2.0,2.0;" x1="563.5" x2="926" y1="738.7324" y2="738.7324"/><text fill="#000000" font-family="sans-serif" font-size="13" font-weight="bold" lengthAdjust="spacing" textLength="14" x="575.5" y="733.4697">17</text><text fill="#000000" font-family="sans-serif" font-size="13" lengthAdjust="spacing" textLength="39" x="593.5" y="733.4697">vehicle</text><polygon fill="#181818" points="349.5,766.0234,339.5,770.0234,349.5,774.0234,345.5,770.0234" style="stroke:#181818;stroke-width:1.0;"/><line style="stroke:#181818;stroke-width:1.0;stroke-dasharray:2.0,2.0;" x1="343.5" x2="552.5" y1="770.0234" y2="770.0234"/><text fill="#000000" font-family="sans-serif" font-size="13" font-weight="bold" lengthAdjust="spacing" textLength="14" x="355.5" y="764.7607">18</text><text fill="#000000" font-family="sans-serif" font-size="13" lengthAdjust="spacing" textLength="39" x="373.5" y="764.7607">vehicle</text><polygon fill="#181818" points="38.5,797.3145,28.5,801.3145,38.5,805.3145,34.5,801.3145" style="stroke:#181818;stroke-width:1.0;"/><line style="stroke:#181818;stroke-width:1.0;stroke-dasharray:2.0,2.0;" x1="32.5" x2="332.5" y1="801.3145" y2="801.3145"/><text fill="#000000" font-family="sans-serif" font-size="13" font-weight="bold" lengthAdjust="spacing" textLength="14" x="44.5" y="796.0518">19</text><text fill="#000000" font-family="sans-serif" font-size="13" lengthAdjust="spacing" textLength="110" x="62.5" y="796.0518">operation message</text><!--SRC=[jLLDR-8m4BtdLumuWHJ-00UaYgLQL5Qgsi9Uk1XdcbWaTcexjFpxdJWX7pYmTANr0ILctlEyDpEEEGYPCyqoo9HKFD4gGx2wmC0q_-IC7rYCh_QK8cZabiauxGQOX4NgKyWOtbbgC0XOOPKiiZrgUkPMQHXj7t-DW1bOPdcgJeW1GQtW8cVImcYsqCWiRZ4HFCNDoeLkLhU25afQhT8KjGjUlBsiBy9VC5T6qEa2ZOjfDawlefH0IVOXkeFOIP_WUVtmraSSgsHQvjbERY_t7DRR7IHguHLe-NErM2-TY-98ubl_0g1rVeFfdEo26M4E1gm2xgm21X8_eUPsY8Q8t7KRvIBeb1WQjXcL-QD0OmqznC9OpQnGyZabe0D5wF5ugTXJZjVmNNGtYRch8u7nYr2cjcBiaKmQLCFa6g2LL2x7HPoUzVSSq6DgJl6h21VBF-nVCxY3kJMichnkUAT6jxEkR3gNhHxX0HRdSBzQGnqJCSk6ckHsbpWmHWuDlXlXNZCPXJkPgGZJi4I5bcaCOwsC-OqYJcp82wrHsgUCuYe6r3zACECVXI3bnERUUOByKEHFsMHu9kfvgAqrnJuJbe1iVBtlXXkl6b_YuDshQq0ULFgWakTSeTzI8EmaT4L2gn9w8k5IPObqIZUazD5PBFafRFScLtgyldIy_glsf_DMrf6b8hebR78FItrPdQ-fO2ZyoX1rhxQXnX-GyZzccKNHk4xbctFxDm7VcDnBgbkZsvzTbMDLCyZG6FhM1_u0_m40]--></g></svg>