<?xml version="1.0" encoding="us-ascii" standalone="no"?><svg xmlns="http://www.w3.org/2000/svg" xmlns:xlink="http://www.w3.org/1999/xlink" contentStyleType="text/css" height="800px" preserveAspectRatio="none" style="width:1215px;height:800px;background:#FFFFFF;" version="1.1" viewBox="0 0 1215 800" width="1215.2px" zoomAndPan="magnify"><defs/><g><rect fill="#FFFFFF" height="644.2516" style="stroke:#181818;stroke-width:0.8000000000000002;" width="8" x="14.4" y="74.8969"/><rect fill="#FFFFFF" height="25.0328" style="stroke:#181818;stroke-width:0.8000000000000002;" width="8" x="214.4" y="132.1313"/><rect fill="#FFFFFF" height="25.0328" style="stroke:#181818;stroke-width:0.8000000000000002;" width="8" x="214.4" y="182.1969"/><rect fill="#FFFFFF" height="486.8859" style="stroke:#181818;stroke-width:0.8000000000000002;" width="8" x="214.4" y="232.2625"/><rect fill="#FFFFFF" height="436.8203" style="stroke:#181818;stroke-width:0.8000000000000002;" width="8" x="436" y="257.2953"/><rect fill="#FFFFFF" height="184.0297" style="stroke:#181818;stroke-width:0.8000000000000002;" width="8" x="440" y="288.7281"/><rect fill="#FFFFFF" height="25.0328" style="stroke:#181818;stroke-width:0.8000000000000002;" width="8" x="604.8" y="317.7609"/><rect fill="#FFFFFF" height="25.0328" style="stroke:#181818;stroke-width:0.8000000000000002;" width="8" x="690.4" y="367.8266"/><rect fill="#FFFFFF" height="25.0328" style="stroke:#181818;stroke-width:0.8000000000000002;" width="8" x="798.8" y="417.8922"/><rect fill="#FFFFFF" height="145.6922" style="stroke:#181818;stroke-width:0.8000000000000002;" width="8" x="900.4" y="523.3906"/><line style="stroke:#181818;stroke-width:0.4000000000000001;stroke-dasharray:5.0,5.0;" x1="18.4" x2="18.4" y1="66.8969" y2="733.5484"/><line style="stroke:#181818;stroke-width:0.4000000000000001;stroke-dasharray:5.0,5.0;" x1="218.4" x2="218.4" y1="66.8969" y2="733.5484"/><line style="stroke:#181818;stroke-width:0.4000000000000001;stroke-dasharray:5.0,5.0;" x1="440" x2="440" y1="66.8969" y2="733.5484"/><line style="stroke:#181818;stroke-width:0.4000000000000001;stroke-dasharray:5.0,5.0;" x1="608.4" x2="608.4" y1="66.8969" y2="733.5484"/><line style="stroke:#181818;stroke-width:0.4000000000000001;stroke-dasharray:5.0,5.0;" x1="694" x2="694" y1="66.8969" y2="733.5484"/><line style="stroke:#181818;stroke-width:0.4000000000000001;stroke-dasharray:5.0,5.0;" x1="802.8" x2="802.8" y1="66.8969" y2="733.5484"/><line style="stroke:#181818;stroke-width:0.4000000000000001;stroke-dasharray:5.0,5.0;" x1="904.4" x2="904.4" y1="66.8969" y2="733.5484"/><line style="stroke:#181818;stroke-width:0.4000000000000001;stroke-dasharray:5.0,5.0;" x1="1193.2" x2="1193.2" y1="562.6875" y2="733.5484"/><text fill="#000000" font-family="sans-serif" font-size="11.2" lengthAdjust="spacing" textLength="24" x="4" y="64.0859">HRM</text><ellipse cx="18.4" cy="10.8" fill="#E3E3E3" rx="6.4" ry="6.4" style="stroke:#181818;stroke-width:0.4000000000000001;"/><path d="M18.4,17.2 L18.4,38.8 M8,23.6 L28.8,23.6 M18.4,38.8 L8,50.8 M18.4,38.8 L28.8,50.8 " fill="none" style="stroke:#181818;stroke-width:0.4000000000000001;"/><text fill="#000000" font-family="sans-serif" font-size="11.2" lengthAdjust="spacing" textLength="24" x="4" y="744.8344">HRM</text><ellipse cx="18.4" cy="754.4453" fill="#E3E3E3" rx="6.4" ry="6.4" style="stroke:#181818;stroke-width:0.4000000000000001;"/><path d="M18.4,760.8453 L18.4,782.4453 M8,767.2453 L28.8,767.2453 M18.4,782.4453 L8,794.4453 M18.4,782.4453 L28.8,794.4453 " fill="none" style="stroke:#181818;stroke-width:0.4000000000000001;"/><rect fill="#E3E3E3" height="26.0969" rx="2" ry="2" style="stroke:#181818;stroke-width:0.4000000000000001;" width="86.4" x="175.2" y="40"/><text fill="#000000" font-family="sans-serif" font-size="11.2" lengthAdjust="spacing" textLength="75.2" x="180.8" y="57.6859">:RegisterSkillUI</text><rect fill="#E3E3E3" height="26.0969" rx="2" ry="2" style="stroke:#181818;stroke-width:0.4000000000000001;" width="86.4" x="175.2" y="732.7484"/><text fill="#000000" font-family="sans-serif" font-size="11.2" lengthAdjust="spacing" textLength="75.2" x="180.8" y="750.4344">:RegisterSkillUI</text><rect fill="#E3E3E3" height="26.0969" rx="2" ry="2" style="stroke:#181818;stroke-width:0.4000000000000001;" width="126.4" x="376.8" y="40"/><text fill="#000000" font-family="sans-serif" font-size="11.2" lengthAdjust="spacing" textLength="115.2" x="382.4" y="57.6859">:RegisterSkillController</text><rect fill="#E3E3E3" height="26.0969" rx="2" ry="2" style="stroke:#181818;stroke-width:0.4000000000000001;" width="126.4" x="376.8" y="732.7484"/><text fill="#000000" font-family="sans-serif" font-size="11.2" lengthAdjust="spacing" textLength="115.2" x="382.4" y="750.4344">:RegisterSkillController</text><rect fill="#E3E3E3" height="26.0969" rx="2" ry="2" style="stroke:#181818;stroke-width:0.4000000000000001;" width="77.6" x="570" y="40"/><text fill="#000000" font-family="sans-serif" font-size="11.2" lengthAdjust="spacing" textLength="66.4" x="575.6" y="57.6859">:Repositories</text><rect fill="#E3E3E3" height="26.0969" rx="2" ry="2" style="stroke:#181818;stroke-width:0.4000000000000001;" width="77.6" x="570" y="732.7484"/><text fill="#000000" font-family="sans-serif" font-size="11.2" lengthAdjust="spacing" textLength="66.4" x="575.6" y="750.4344">:Repositories</text><rect fill="#E3E3E3" height="40.9938" rx="2" ry="2" style="stroke:#181818;stroke-width:0.4000000000000001;" width="77.6" x="655.6" y="25.1031"/><text fill="#000000" font-family="sans-serif" font-size="11.2" lengthAdjust="spacing" textLength="59.2" x="664.8" y="42.7891">repositories</text><text fill="#000000" font-family="sans-serif" font-size="11.2" lengthAdjust="spacing" textLength="66.4" x="661.2" y="57.6859">:Repositories</text><rect fill="#E3E3E3" height="40.9938" rx="2" ry="2" style="stroke:#181818;stroke-width:0.4000000000000001;" width="77.6" x="655.6" y="732.7484"/><text fill="#000000" font-family="sans-serif" font-size="11.2" lengthAdjust="spacing" textLength="59.2" x="664.8" y="750.4344">repositories</text><text fill="#000000" font-family="sans-serif" font-size="11.2" lengthAdjust="spacing" textLength="66.4" x="661.2" y="765.3313">:Repositories</text><rect fill="#E3E3E3" height="26.0969" rx="2" ry="2" style="stroke:#181818;stroke-width:0.4000000000000001;" width="123.2" x="741.2" y="40"/><text fill="#000000" font-family="sans-serif" font-size="11.2" lengthAdjust="spacing" textLength="112" x="746.8" y="57.6859">employeeRepositories</text><rect fill="#E3E3E3" height="26.0969" rx="2" ry="2" style="stroke:#181818;stroke-width:0.4000000000000001;" width="123.2" x="741.2" y="732.7484"/><text fill="#000000" font-family="sans-serif" font-size="11.2" lengthAdjust="spacing" textLength="112" x="746.8" y="750.4344">employeeRepositories</text><rect fill="#E3E3E3" height="40.9938" rx="2" ry="2" style="stroke:#181818;stroke-width:0.4000000000000001;" width="64" x="872.4" y="25.1031"/><text fill="#000000" font-family="sans-serif" font-size="11.2" lengthAdjust="spacing" textLength="48.8" x="880" y="42.7891">employee</text><text fill="#000000" font-family="sans-serif" font-size="11.2" lengthAdjust="spacing" textLength="52.8" x="878" y="57.6859">:Employee</text><rect fill="#E3E3E3" height="40.9938" rx="2" ry="2" style="stroke:#181818;stroke-width:0.4000000000000001;" width="64" x="872.4" y="732.7484"/><text fill="#000000" font-family="sans-serif" font-size="11.2" lengthAdjust="spacing" textLength="48.8" x="880" y="750.4344">employee</text><text fill="#000000" font-family="sans-serif" font-size="11.2" lengthAdjust="spacing" textLength="52.8" x="878" y="765.3313">:Employee</text><rect fill="#E3E3E3" height="40.9938" rx="2" ry="2" style="stroke:#181818;stroke-width:0.4000000000000001;" width="34.4" x="1176.4" y="732.7484"/><text fill="#000000" font-family="sans-serif" font-size="11.2" lengthAdjust="spacing" textLength="18.4" x="1184.4" y="750.4344">skill</text><text fill="#000000" font-family="sans-serif" font-size="11.2" lengthAdjust="spacing" textLength="23.2" x="1182" y="765.3313">:Skill</text><rect fill="#FFFFFF" height="644.2516" style="stroke:#181818;stroke-width:0.8000000000000002;" width="8" x="14.4" y="74.8969"/><rect fill="#FFFFFF" height="25.0328" style="stroke:#181818;stroke-width:0.8000000000000002;" width="8" x="214.4" y="132.1313"/><rect fill="#FFFFFF" height="25.0328" style="stroke:#181818;stroke-width:0.8000000000000002;" width="8" x="214.4" y="182.1969"/><rect fill="#FFFFFF" height="486.8859" style="stroke:#181818;stroke-width:0.8000000000000002;" width="8" x="214.4" y="232.2625"/><rect fill="#FFFFFF" height="436.8203" style="stroke:#181818;stroke-width:0.8000000000000002;" width="8" x="436" y="257.2953"/><rect fill="#FFFFFF" height="184.0297" style="stroke:#181818;stroke-width:0.8000000000000002;" width="8" x="440" y="288.7281"/><rect fill="#FFFFFF" height="25.0328" style="stroke:#181818;stroke-width:0.8000000000000002;" width="8" x="604.8" y="317.7609"/><rect fill="#FFFFFF" height="25.0328" style="stroke:#181818;stroke-width:0.8000000000000002;" width="8" x="690.4" y="367.8266"/><rect fill="#FFFFFF" height="25.0328" style="stroke:#181818;stroke-width:0.8000000000000002;" width="8" x="798.8" y="417.8922"/><rect fill="#FFFFFF" height="145.6922" style="stroke:#181818;stroke-width:0.8000000000000002;" width="8" x="900.4" y="523.3906"/><rect fill="none" height="34.6016" style="stroke:#000000;stroke-width:1.2000000000000002;" width="262.4" x="1.6" y="74.8969"/><path d="M1.6,74.8969 L51.2,74.8969 L51.2,82.0969 L43.2,90.0969 L1.6,90.0969 L1.6,74.8969 " fill="#EEEEEE" style="stroke:#000000;stroke-width:1.6000000000000003;"/><text fill="#000000" font-family="sans-serif" font-size="10.4" font-weight="bold" lengthAdjust="spacing" textLength="13.6" x="12" y="87.7195">ref</text><text fill="#000000" font-family="sans-serif" font-size="9.6" lengthAdjust="spacing" textLength="246.4" x="9.6" y="103.6563">This action assumes that the user has already logged in</text><polygon fill="#181818" points="204.8,128.9313,212.8,132.1313,204.8,135.3313,208,132.1313" style="stroke:#181818;stroke-width:0.8000000000000002;"/><line style="stroke:#181818;stroke-width:0.8000000000000002;" x1="22.4" x2="209.6" y1="132.1313" y2="132.1313"/><text fill="#000000" font-family="sans-serif" font-size="10.4" font-weight="bold" lengthAdjust="spacing" textLength="5.6" x="28" y="127.9211">1</text><text fill="#000000" font-family="sans-serif" font-size="10.4" lengthAdjust="spacing" textLength="124" x="36.8" y="127.9211">asks to register a new skill</text><polygon fill="#181818" points="31.2,153.9641,23.2,157.1641,31.2,160.3641,28,157.1641" style="stroke:#181818;stroke-width:0.8000000000000002;"/><line style="stroke:#181818;stroke-width:0.8000000000000002;stroke-dasharray:2.0,2.0;" x1="26.4" x2="217.6" y1="157.1641" y2="157.1641"/><text fill="#000000" font-family="sans-serif" font-size="10.4" font-weight="bold" lengthAdjust="spacing" textLength="5.6" x="36" y="152.9539">2</text><text fill="#000000" font-family="sans-serif" font-size="10.4" lengthAdjust="spacing" textLength="164" x="44.8" y="152.9539">requests skill name and description</text><polygon fill="#181818" points="204.8,178.9969,212.8,182.1969,204.8,185.3969,208,182.1969" style="stroke:#181818;stroke-width:0.8000000000000002;"/><line style="stroke:#181818;stroke-width:0.8000000000000002;" x1="22.4" x2="209.6" y1="182.1969" y2="182.1969"/><text fill="#000000" font-family="sans-serif" font-size="10.4" font-weight="bold" lengthAdjust="spacing" textLength="5.6" x="28" y="177.9867">3</text><text fill="#000000" font-family="sans-serif" font-size="10.4" lengthAdjust="spacing" textLength="97.6" x="36.8" y="177.9867">types requested data</text><polygon fill="#181818" points="31.2,204.0297,23.2,207.2297,31.2,210.4297,28,207.2297" style="stroke:#181818;stroke-width:0.8000000000000002;"/><line style="stroke:#181818;stroke-width:0.8000000000000002;stroke-dasharray:2.0,2.0;" x1="26.4" x2="217.6" y1="207.2297" y2="207.2297"/><text fill="#000000" font-family="sans-serif" font-size="10.4" font-weight="bold" lengthAdjust="spacing" textLength="5.6" x="36" y="203.0195">4</text><text fill="#000000" font-family="sans-serif" font-size="10.4" lengthAdjust="spacing" textLength="161.6" x="44.8" y="203.0195">shows data and requests validation</text><polygon fill="#181818" points="204.8,229.0625,212.8,232.2625,204.8,235.4625,208,232.2625" style="stroke:#181818;stroke-width:0.8000000000000002;"/><line style="stroke:#181818;stroke-width:0.8000000000000002;" x1="22.4" x2="209.6" y1="232.2625" y2="232.2625"/><text fill="#000000" font-family="sans-serif" font-size="10.4" font-weight="bold" lengthAdjust="spacing" textLength="5.6" x="28" y="228.0523">5</text><text fill="#000000" font-family="sans-serif" font-size="10.4" lengthAdjust="spacing" textLength="62.4" x="36.8" y="228.0523">confirms data</text><polygon fill="#181818" points="426.4,254.0953,434.4,257.2953,426.4,260.4953,429.6,257.2953" style="stroke:#181818;stroke-width:0.8000000000000002;"/><line style="stroke:#181818;stroke-width:0.8000000000000002;" x1="222.4" x2="431.2" y1="257.2953" y2="257.2953"/><text fill="#000000" font-family="sans-serif" font-size="10.4" font-weight="bold" lengthAdjust="spacing" textLength="5.6" x="228" y="253.0852">6</text><text fill="#000000" font-family="sans-serif" font-size="10.4" lengthAdjust="spacing" textLength="189.6" x="236.8" y="253.0852">registerSkill (skillName , skillDescription)</text><line style="stroke:#181818;stroke-width:0.8000000000000002;" x1="444" x2="481.6" y1="278.3281" y2="278.3281"/><line style="stroke:#181818;stroke-width:0.8000000000000002;" x1="481.6" x2="481.6" y1="278.3281" y2="288.7281"/><line style="stroke:#181818;stroke-width:0.8000000000000002;" x1="448.8" x2="481.6" y1="288.7281" y2="288.7281"/><polygon fill="#181818" points="456.8,285.5281,448.8,288.7281,456.8,291.9281,453.6,288.7281" style="stroke:#181818;stroke-width:0.8000000000000002;"/><text fill="#000000" font-family="sans-serif" font-size="10.4" font-weight="bold" lengthAdjust="spacing" textLength="5.6" x="453.6" y="274.118">7</text><text fill="#000000" font-family="sans-serif" font-size="10.4" lengthAdjust="spacing" textLength="140.8" x="462.4" y="274.118">getEmployeeFromRepository()</text><polygon fill="#181818" points="595.2,314.5609,603.2,317.7609,595.2,320.9609,598.4,317.7609" style="stroke:#181818;stroke-width:0.8000000000000002;"/><line style="stroke:#181818;stroke-width:0.8000000000000002;" x1="448" x2="600" y1="317.7609" y2="317.7609"/><text fill="#000000" font-family="sans-serif" font-size="10.4" font-weight="bold" lengthAdjust="spacing" textLength="5.6" x="453.6" y="313.5508">8</text><text fill="#000000" font-family="sans-serif" font-size="10.4" lengthAdjust="spacing" textLength="60" x="462.4" y="313.5508">getInstance()</text><polygon fill="#181818" points="456.8,339.5938,448.8,342.7938,456.8,345.9938,453.6,342.7938" style="stroke:#181818;stroke-width:0.8000000000000002;"/><line style="stroke:#181818;stroke-width:0.8000000000000002;stroke-dasharray:2.0,2.0;" x1="452" x2="608" y1="342.7938" y2="342.7938"/><text fill="#000000" font-family="sans-serif" font-size="10.4" font-weight="bold" lengthAdjust="spacing" textLength="5.6" x="461.6" y="338.5836">9</text><text fill="#000000" font-family="sans-serif" font-size="10.4" lengthAdjust="spacing" textLength="53.6" x="470.4" y="338.5836">repositories</text><polygon fill="#181818" points="680.8,364.6266,688.8,367.8266,680.8,371.0266,684,367.8266" style="stroke:#181818;stroke-width:0.8000000000000002;"/><line style="stroke:#181818;stroke-width:0.8000000000000002;" x1="448" x2="685.6" y1="367.8266" y2="367.8266"/><text fill="#000000" font-family="sans-serif" font-size="10.4" font-weight="bold" lengthAdjust="spacing" textLength="11.2" x="453.6" y="363.6164">10</text><text fill="#000000" font-family="sans-serif" font-size="10.4" lengthAdjust="spacing" textLength="124.8" x="468" y="363.6164">getEmployeeRepositories()</text><polygon fill="#181818" points="456.8,389.6594,448.8,392.8594,456.8,396.0594,453.6,392.8594" style="stroke:#181818;stroke-width:0.8000000000000002;"/><line style="stroke:#181818;stroke-width:0.8000000000000002;stroke-dasharray:2.0,2.0;" x1="452" x2="693.6" y1="392.8594" y2="392.8594"/><text fill="#000000" font-family="sans-serif" font-size="10.4" font-weight="bold" lengthAdjust="spacing" textLength="11.2" x="461.6" y="388.6492">11</text><text fill="#000000" font-family="sans-serif" font-size="10.4" lengthAdjust="spacing" textLength="104" x="476" y="388.6492">EmployeeRepositories</text><polygon fill="#181818" points="789.2,414.6922,797.2,417.8922,789.2,421.0922,792.4,417.8922" style="stroke:#181818;stroke-width:0.8000000000000002;"/><line style="stroke:#181818;stroke-width:0.8000000000000002;" x1="448" x2="794" y1="417.8922" y2="417.8922"/><text fill="#000000" font-family="sans-serif" font-size="10.4" font-weight="bold" lengthAdjust="spacing" textLength="11.2" x="453.6" y="413.682">12</text><text fill="#000000" font-family="sans-serif" font-size="10.4" lengthAdjust="spacing" textLength="67.2" x="468" y="413.682">getEmployee()</text><polygon fill="#181818" points="456.8,439.725,448.8,442.925,456.8,446.125,453.6,442.925" style="stroke:#181818;stroke-width:0.8000000000000002;"/><line style="stroke:#181818;stroke-width:0.8000000000000002;stroke-dasharray:2.0,2.0;" x1="452" x2="802" y1="442.925" y2="442.925"/><text fill="#000000" font-family="sans-serif" font-size="10.4" font-weight="bold" lengthAdjust="spacing" textLength="11.2" x="461.6" y="438.7148">13</text><text fill="#000000" font-family="sans-serif" font-size="10.4" lengthAdjust="spacing" textLength="44.8" x="476" y="438.7148">employee</text><line style="stroke:#181818;stroke-width:0.8000000000000002;stroke-dasharray:2.0,2.0;" x1="448" x2="481.6" y1="471.9578" y2="471.9578"/><line style="stroke:#181818;stroke-width:0.8000000000000002;stroke-dasharray:2.0,2.0;" x1="481.6" x2="481.6" y1="471.9578" y2="482.3578"/><line style="stroke:#181818;stroke-width:0.8000000000000002;stroke-dasharray:2.0,2.0;" x1="444" x2="481.6" y1="482.3578" y2="482.3578"/><polygon fill="#181818" points="452,479.1578,444,482.3578,452,485.5578,448.8,482.3578" style="stroke:#181818;stroke-width:0.8000000000000002;"/><text fill="#000000" font-family="sans-serif" font-size="10.4" font-weight="bold" lengthAdjust="spacing" textLength="11.2" x="453.6" y="467.7477">14</text><text fill="#000000" font-family="sans-serif" font-size="10.4" lengthAdjust="spacing" textLength="44.8" x="468" y="467.7477">employee</text><polygon fill="#181818" points="890.8,520.1906,898.8,523.3906,890.8,526.5906,894,523.3906" style="stroke:#181818;stroke-width:0.8000000000000002;"/><line style="stroke:#181818;stroke-width:0.8000000000000002;" x1="444" x2="895.6" y1="523.3906" y2="523.3906"/><text fill="#000000" font-family="sans-serif" font-size="10.4" font-weight="bold" lengthAdjust="spacing" textLength="11.2" x="449.6" y="519.1805">15</text><text fill="#000000" font-family="sans-serif" font-size="10.4" lengthAdjust="spacing" textLength="234.4" x="464" y="519.1805">registerSkill(employee, skillName, skillDescription)</text><polygon fill="#181818" points="1166.8,545.2234,1174.8,548.4234,1166.8,551.6234,1170,548.4234" style="stroke:#181818;stroke-width:0.8000000000000002;"/><line style="stroke:#181818;stroke-width:0.8000000000000002;" x1="908.4" x2="1171.6" y1="548.4234" y2="548.4234"/><text fill="#000000" font-family="sans-serif" font-size="10.4" font-weight="bold" lengthAdjust="spacing" textLength="11.2" x="914" y="544.2133">16</text><text fill="#000000" font-family="sans-serif" font-size="10.4" lengthAdjust="spacing" textLength="234.4" x="928.4" y="544.2133">registerSkill(employee, skillName, skillDescription)</text><rect fill="#E3E3E3" height="40.9938" rx="2" ry="2" style="stroke:#181818;stroke-width:0.4000000000000001;" width="34.4" x="1176.4" y="529.7906"/><text fill="#000000" font-family="sans-serif" font-size="11.2" lengthAdjust="spacing" textLength="18.4" x="1184.4" y="547.4766">skill</text><text fill="#000000" font-family="sans-serif" font-size="11.2" lengthAdjust="spacing" textLength="23.2" x="1182" y="562.3734">:Skill</text><line style="stroke:#181818;stroke-width:0.8000000000000002;" x1="908.4" x2="942" y1="598.2172" y2="598.2172"/><line style="stroke:#181818;stroke-width:0.8000000000000002;" x1="942" x2="942" y1="598.2172" y2="608.6172"/><line style="stroke:#181818;stroke-width:0.8000000000000002;" x1="909.2" x2="942" y1="608.6172" y2="608.6172"/><polygon fill="#181818" points="917.2,605.4172,909.2,608.6172,917.2,611.8172,914,608.6172" style="stroke:#181818;stroke-width:0.8000000000000002;"/><text fill="#000000" font-family="sans-serif" font-size="10.4" font-weight="bold" lengthAdjust="spacing" textLength="11.2" x="914" y="594.007">17</text><text fill="#000000" font-family="sans-serif" font-size="10.4" lengthAdjust="spacing" textLength="79.2" x="928.4" y="594.007">validateSkill(skill)</text><line style="stroke:#181818;stroke-width:0.8000000000000002;" x1="908.4" x2="942" y1="633.65" y2="633.65"/><line style="stroke:#181818;stroke-width:0.8000000000000002;" x1="942" x2="942" y1="633.65" y2="644.05"/><line style="stroke:#181818;stroke-width:0.8000000000000002;" x1="909.2" x2="942" y1="644.05" y2="644.05"/><polygon fill="#181818" points="917.2,640.85,909.2,644.05,917.2,647.25,914,644.05" style="stroke:#181818;stroke-width:0.8000000000000002;"/><text fill="#000000" font-family="sans-serif" font-size="10.4" font-weight="bold" lengthAdjust="spacing" textLength="11.2" x="914" y="629.4398">18</text><text fill="#000000" font-family="sans-serif" font-size="10.4" lengthAdjust="spacing" textLength="61.6" x="928.4" y="629.4398">addSkill(skill)</text><polygon fill="#181818" points="452.8,665.8828,444.8,669.0828,452.8,672.2828,449.6,669.0828" style="stroke:#181818;stroke-width:0.8000000000000002;"/><line style="stroke:#181818;stroke-width:0.8000000000000002;stroke-dasharray:2.0,2.0;" x1="448" x2="903.6" y1="669.0828" y2="669.0828"/><text fill="#000000" font-family="sans-serif" font-size="10.4" font-weight="bold" lengthAdjust="spacing" textLength="11.2" x="457.6" y="664.8727">19</text><text fill="#000000" font-family="sans-serif" font-size="10.4" lengthAdjust="spacing" textLength="18.4" x="472" y="664.8727">skill</text><polygon fill="#181818" points="231.2,690.9156,223.2,694.1156,231.2,697.3156,228,694.1156" style="stroke:#181818;stroke-width:0.8000000000000002;"/><line style="stroke:#181818;stroke-width:0.8000000000000002;stroke-dasharray:2.0,2.0;" x1="226.4" x2="439.2" y1="694.1156" y2="694.1156"/><text fill="#000000" font-family="sans-serif" font-size="10.4" font-weight="bold" lengthAdjust="spacing" textLength="11.2" x="236" y="689.9055">20</text><text fill="#000000" font-family="sans-serif" font-size="10.4" lengthAdjust="spacing" textLength="18.4" x="250.4" y="689.9055">skill</text><polygon fill="#181818" points="27.2,715.9484,19.2,719.1484,27.2,722.3484,24,719.1484" style="stroke:#181818;stroke-width:0.8000000000000002;"/><line style="stroke:#181818;stroke-width:0.8000000000000002;stroke-dasharray:2.0,2.0;" x1="22.4" x2="217.6" y1="719.1484" y2="719.1484"/><text fill="#000000" font-family="sans-serif" font-size="10.4" font-weight="bold" lengthAdjust="spacing" textLength="11.2" x="32" y="714.9383">21</text><text fill="#000000" font-family="sans-serif" font-size="10.4" lengthAdjust="spacing" textLength="126.4" x="46.4" y="714.9383">displays operation success</text><!--SRC=[dLLDJ-Cm4BtxLuouqABs3-HG2G6xMstPHItSk9XacbXDxApjm7R5Zz-naxGE-H0YXwJrl7b-dh6VpK78acjUGA6aYZEj2WIhAsJc52bvVE0fxkmnHz0OMoxJF0IOZ2VgJSWKzZmto1Ylh99LyOAQiSjC90XxfUoB-ijuR9M6Yn_R-mlW1kZBYCEAM9HSMhY8jfWAOr7l3YBFdzOUzRIU0jqeQRNASzGUVFEutVJWfJA29XPeFEOqSDm9jnPIsqtHGSQpx1CyRAuVknbObBaw8lQWT_SFc-tTmp2QkE-QdosOAjQ1AfroAVvnAvGywuwUvU_1WASP3aqGauumfoRPVk-ADgxQXFHLzv3Tp_LcmrnJnIktwDkfSG_g5RNxiw3MGGIFcJ3WG4fIbgaAD60pRkc5K1d2PaJ6SuqyEKAkqXGJ498nQ1wYWkMg9kFcGDcADcAz1u23n3VmujWvvQI9DW-xXE0XbYMHNT_U4vl6FnKQQo3XbiECnAD66UC24ZIn5gKJlG1IirUwu3ayosx4Ofn94LEaCvnKcjU_OcNid8K2BcDQA2dpExKdRUN7hwv8N8qB5XN8ToK9vFlbW-HqUhbCGYsTv0GxTGb3fnf7O8ybTQZXfbQusdImeoIDE7- -8_85zTPKreawYNtbkKZubyIvgYYv5xgeYTddTTM5XKY7vW4pNxbVhd2BkegtvzhDH-XzvxenDxHSkNS4AThsL7yZGpsVmDa7mZxfnwYNJD8770lyH6jfo8zZdCt7cOViheSUcc5vAXg4ZjZB3JhtgRdQLJaRXKwzGlkSMf8tu3wn9mnK3z5EgH-XRVKsNjvHFAMozVwFW6RSAQrtJ7iVJ6bhoVhRRf8bOAYtRHXyVtzd8mlrFGzEognbRuw9Ep939sQi4Ds9tGJBbRy_lDLzQQe1HlU9MeF1ciqdpaV1F4awk3wmsKzHSycCzuSDc89FTwuwcTnlpTdd8qY4AND-DA1AhEyLC5KSep5J1XhyTHSpFVy1]--></g></svg>