<?xml version="1.0" encoding="us-ascii" standalone="no"?><svg xmlns="http://www.w3.org/2000/svg" xmlns:xlink="http://www.w3.org/1999/xlink" contentStyleType="text/css" height="1469px" preserveAspectRatio="none" style="width:1652px;height:1469px;background:#FFFFFF;" version="1.1" viewBox="0 0 1652 1469" width="1652px" zoomAndPan="magnify"><defs/><g><rect fill="#FFFFFF" height="31.291" style="stroke:#181818;stroke-width:1.0;" width="10" x="353" y="116.8242"/><rect fill="#FFFFFF" height="329.9102" style="stroke:#181818;stroke-width:1.0;" width="10" x="353" y="205.6973"/><rect fill="#FFFFFF" height="383.2012" style="stroke:#181818;stroke-width:1.0;" width="10" x="353" y="566.8984"/><rect fill="#FFFFFF" height="31.291" style="stroke:#181818;stroke-width:1.0;" width="10" x="353" y="998.0215"/><rect fill="#FFFFFF" height="320.6191" style="stroke:#181818;stroke-width:1.0;" width="10" x="353" y="1060.6035"/><rect fill="#FFFFFF" height="267.3281" style="stroke:#181818;stroke-width:1.0;" width="10" x="773" y="236.9883"/><rect fill="#FFFFFF" height="75.582" style="stroke:#181818;stroke-width:1.0;" width="10" x="773" y="598.1895"/><rect fill="#FFFFFF" height="213.7461" style="stroke:#181818;stroke-width:1.0;" width="10" x="773" y="705.0625"/><rect fill="#FFFFFF" height="213.7461" style="stroke:#181818;stroke-width:1.0;" width="10" x="773" y="1136.1855"/><rect fill="#FFFFFF" height="31.291" style="stroke:#181818;stroke-width:1.0;" width="10" x="1192" y="268.2793"/><rect fill="#FFFFFF" height="75.582" style="stroke:#181818;stroke-width:1.0;" width="10" x="1334.5" y="811.9355"/><rect fill="#FFFFFF" height="75.582" style="stroke:#181818;stroke-width:1.0;" width="10" x="1334.5" y="1243.0586"/><rect fill="#FFFFFF" height="31.291" style="stroke:#181818;stroke-width:1.0;" width="10" x="1443.5" y="357.1523"/><rect fill="#FFFFFF" height="75.582" style="stroke:#181818;stroke-width:1.0;" width="10" x="1520.5" y="736.3535"/><rect fill="#FFFFFF" height="75.582" style="stroke:#181818;stroke-width:1.0;" width="10" x="1520.5" y="1167.4766"/><rect fill="none" height="1321.9805" style="stroke:#000000;stroke-width:1.5;" width="1643.5" x="3" y="74.2422"/><rect fill="none" height="1226.1074" style="stroke:#000000;stroke-width:1.5;" width="1633.5" x="3" y="163.1152"/><rect fill="none" height="159.4551" style="stroke:#000000;stroke-width:1.5;" width="828.5" x="670" y="314.5703"/><rect fill="none" height="63.582" style="stroke:#000000;stroke-width:1.5;" width="353" x="680" y="403.4434"/><line style="stroke:#181818;stroke-width:0.5;stroke-dasharray:5.0,5.0;" x1="358" x2="358" y1="57.2422" y2="1413.2227"/><line style="stroke:#181818;stroke-width:0.5;stroke-dasharray:5.0,5.0;" x1="778" x2="778" y1="57.2422" y2="1413.2227"/><line style="stroke:#181818;stroke-width:0.5;stroke-dasharray:5.0,5.0;" x1="1196.5" x2="1196.5" y1="57.2422" y2="1413.2227"/><line style="stroke:#181818;stroke-width:0.5;stroke-dasharray:5.0,5.0;" x1="1339.5" x2="1339.5" y1="57.2422" y2="1413.2227"/><line style="stroke:#181818;stroke-width:0.5;stroke-dasharray:5.0,5.0;" x1="1448.5" x2="1448.5" y1="57.2422" y2="1413.2227"/><line style="stroke:#181818;stroke-width:0.5;stroke-dasharray:5.0,5.0;" x1="1525.5" x2="1525.5" y1="57.2422" y2="1413.2227"/><rect fill="#E3E3E3" height="32.6211" rx="2.5" ry="2.5" style="stroke:#181818;stroke-width:0.5;" width="126" x="295" y="23.6211"/><text fill="#000000" font-family="sans-serif" font-size="14" lengthAdjust="spacing" textLength="112" x="302" y="45.7285">:GenerateTeamUI</text><rect fill="#E3E3E3" height="32.6211" rx="2.5" ry="2.5" style="stroke:#181818;stroke-width:0.5;" width="126" x="295" y="1412.2227"/><text fill="#000000" font-family="sans-serif" font-size="14" lengthAdjust="spacing" textLength="112" x="302" y="1434.3301">:GenerateTeamUI</text><rect fill="#E3E3E3" height="32.6211" rx="2.5" ry="2.5" style="stroke:#181818;stroke-width:0.5;" width="176" x="690" y="23.6211"/><text fill="#000000" font-family="sans-serif" font-size="14" lengthAdjust="spacing" textLength="162" x="697" y="45.7285">:GenerateTeamController</text><rect fill="#E3E3E3" height="32.6211" rx="2.5" ry="2.5" style="stroke:#181818;stroke-width:0.5;" width="176" x="690" y="1412.2227"/><text fill="#000000" font-family="sans-serif" font-size="14" lengthAdjust="spacing" textLength="162" x="697" y="1434.3301">:GenerateTeamController</text><rect fill="#E3E3E3" height="51.2422" rx="2.5" ry="2.5" style="stroke:#181818;stroke-width:0.5;" width="147" x="1123.5" y="5"/><text fill="#000000" font-family="sans-serif" font-size="14" lengthAdjust="spacing" textLength="133" x="1130.5" y="27.1074">employeeRepository:</text><text fill="#000000" font-family="sans-serif" font-size="14" lengthAdjust="spacing" textLength="130" x="1132" y="45.7285">EmployeeRepository</text><rect fill="#E3E3E3" height="51.2422" rx="2.5" ry="2.5" style="stroke:#181818;stroke-width:0.5;" width="147" x="1123.5" y="1412.2227"/><text fill="#000000" font-family="sans-serif" font-size="14" lengthAdjust="spacing" textLength="133" x="1130.5" y="1434.3301">employeeRepository:</text><text fill="#000000" font-family="sans-serif" font-size="14" lengthAdjust="spacing" textLength="130" x="1132" y="1452.9512">EmployeeRepository</text><rect fill="#E3E3E3" height="51.2422" rx="2.5" ry="2.5" style="stroke:#181818;stroke-width:0.5;" width="118" x="1280.5" y="5"/><text fill="#000000" font-family="sans-serif" font-size="14" lengthAdjust="spacing" textLength="103" x="1288" y="27.1074">teamRepository:</text><text fill="#000000" font-family="sans-serif" font-size="14" lengthAdjust="spacing" textLength="104" x="1287.5" y="45.7285">TeamRepository</text><rect fill="#E3E3E3" height="51.2422" rx="2.5" ry="2.5" style="stroke:#181818;stroke-width:0.5;" width="118" x="1280.5" y="1412.2227"/><text fill="#000000" font-family="sans-serif" font-size="14" lengthAdjust="spacing" textLength="103" x="1288" y="1434.3301">teamRepository:</text><text fill="#000000" font-family="sans-serif" font-size="14" lengthAdjust="spacing" textLength="104" x="1287.5" y="1452.9512">TeamRepository</text><rect fill="#E3E3E3" height="51.2422" rx="2.5" ry="2.5" style="stroke:#181818;stroke-width:0.5;" width="80" x="1408.5" y="5"/><text fill="#000000" font-family="sans-serif" font-size="14" lengthAdjust="spacing" textLength="61" x="1418" y="27.1074">employee</text><text fill="#000000" font-family="sans-serif" font-size="14" lengthAdjust="spacing" textLength="66" x="1415.5" y="45.7285">:Employee</text><rect fill="#E3E3E3" height="51.2422" rx="2.5" ry="2.5" style="stroke:#181818;stroke-width:0.5;" width="80" x="1408.5" y="1412.2227"/><text fill="#000000" font-family="sans-serif" font-size="14" lengthAdjust="spacing" textLength="61" x="1418" y="1434.3301">employee</text><text fill="#000000" font-family="sans-serif" font-size="14" lengthAdjust="spacing" textLength="66" x="1415.5" y="1452.9512">:Employee</text><rect fill="#E3E3E3" height="51.2422" rx="2.5" ry="2.5" style="stroke:#181818;stroke-width:0.5;" width="54" x="1498.5" y="5"/><text fill="#000000" font-family="sans-serif" font-size="14" lengthAdjust="spacing" textLength="31" x="1510" y="27.1074">team</text><text fill="#000000" font-family="sans-serif" font-size="14" lengthAdjust="spacing" textLength="40" x="1505.5" y="45.7285">:Team</text><rect fill="#E3E3E3" height="51.2422" rx="2.5" ry="2.5" style="stroke:#181818;stroke-width:0.5;" width="54" x="1498.5" y="1412.2227"/><text fill="#000000" font-family="sans-serif" font-size="14" lengthAdjust="spacing" textLength="31" x="1510" y="1434.3301">team</text><text fill="#000000" font-family="sans-serif" font-size="14" lengthAdjust="spacing" textLength="40" x="1505.5" y="1452.9512">:Team</text><rect fill="#FFFFFF" height="31.291" style="stroke:#181818;stroke-width:1.0;" width="10" x="353" y="116.8242"/><rect fill="#FFFFFF" height="329.9102" style="stroke:#181818;stroke-width:1.0;" width="10" x="353" y="205.6973"/><rect fill="#FFFFFF" height="383.2012" style="stroke:#181818;stroke-width:1.0;" width="10" x="353" y="566.8984"/><rect fill="#FFFFFF" height="31.291" style="stroke:#181818;stroke-width:1.0;" width="10" x="353" y="998.0215"/><rect fill="#FFFFFF" height="320.6191" style="stroke:#181818;stroke-width:1.0;" width="10" x="353" y="1060.6035"/><rect fill="#FFFFFF" height="267.3281" style="stroke:#181818;stroke-width:1.0;" width="10" x="773" y="236.9883"/><rect fill="#FFFFFF" height="75.582" style="stroke:#181818;stroke-width:1.0;" width="10" x="773" y="598.1895"/><rect fill="#FFFFFF" height="213.7461" style="stroke:#181818;stroke-width:1.0;" width="10" x="773" y="705.0625"/><rect fill="#FFFFFF" height="213.7461" style="stroke:#181818;stroke-width:1.0;" width="10" x="773" y="1136.1855"/><rect fill="#FFFFFF" height="31.291" style="stroke:#181818;stroke-width:1.0;" width="10" x="1192" y="268.2793"/><rect fill="#FFFFFF" height="75.582" style="stroke:#181818;stroke-width:1.0;" width="10" x="1334.5" y="811.9355"/><rect fill="#FFFFFF" height="75.582" style="stroke:#181818;stroke-width:1.0;" width="10" x="1334.5" y="1243.0586"/><rect fill="#FFFFFF" height="31.291" style="stroke:#181818;stroke-width:1.0;" width="10" x="1443.5" y="357.1523"/><rect fill="#FFFFFF" height="75.582" style="stroke:#181818;stroke-width:1.0;" width="10" x="1520.5" y="736.3535"/><rect fill="#FFFFFF" height="75.582" style="stroke:#181818;stroke-width:1.0;" width="10" x="1520.5" y="1167.4766"/><path d="M3,74.2422 L64,74.2422 L64,83.5332 L54,93.5332 L3,93.5332 L3,74.2422 " fill="#EEEEEE" style="stroke:#000000;stroke-width:1.5;"/><rect fill="none" height="1321.9805" style="stroke:#000000;stroke-width:1.5;" width="1643.5" x="3" y="74.2422"/><text fill="#000000" font-family="sans-serif" font-size="13" font-weight="bold" lengthAdjust="spacing" textLength="16" x="18" y="89.2705">alt</text><text fill="#000000" font-family="sans-serif" font-size="11" font-weight="bold" lengthAdjust="spacing" textLength="97" x="79" y="88.1123">[Accept &amp; Modify]</text><polygon fill="#181818" points="341,112.8242,351,116.8242,341,120.8242,345,116.8242" style="stroke:#181818;stroke-width:1.0;"/><line style="stroke:#181818;stroke-width:1.0;" x1="0" x2="347" y1="116.8242" y2="116.8242"/><text fill="#000000" font-family="sans-serif" font-size="13" font-weight="bold" lengthAdjust="spacing" textLength="7" x="7" y="111.5615">1</text><text fill="#000000" font-family="sans-serif" font-size="13" lengthAdjust="spacing" textLength="196" x="18" y="111.5615">Accept &amp; Modify given suggestion</text><polygon fill="#181818" points="11,144.1152,1,148.1152,11,152.1152,7,148.1152" style="stroke:#181818;stroke-width:1.0;"/><line style="stroke:#181818;stroke-width:1.0;stroke-dasharray:2.0,2.0;" x1="5" x2="357" y1="148.1152" y2="148.1152"/><text fill="#000000" font-family="sans-serif" font-size="13" font-weight="bold" lengthAdjust="spacing" textLength="7" x="17" y="142.8525">2</text><text fill="#000000" font-family="sans-serif" font-size="13" lengthAdjust="spacing" textLength="277" x="28" y="142.8525">aks to add collaborators or remove collaborators</text><path d="M3,163.1152 L64,163.1152 L64,172.4063 L54,182.4063 L3,182.4063 L3,163.1152 " fill="#EEEEEE" style="stroke:#000000;stroke-width:1.5;"/><rect fill="none" height="1226.1074" style="stroke:#000000;stroke-width:1.5;" width="1633.5" x="3" y="163.1152"/><text fill="#000000" font-family="sans-serif" font-size="13" font-weight="bold" lengthAdjust="spacing" textLength="16" x="18" y="178.1436">alt</text><text fill="#000000" font-family="sans-serif" font-size="11" font-weight="bold" lengthAdjust="spacing" textLength="30" x="79" y="176.9854">[ADD]</text><polygon fill="#181818" points="341,201.6973,351,205.6973,341,209.6973,345,205.6973" style="stroke:#181818;stroke-width:1.0;"/><line style="stroke:#181818;stroke-width:1.0;" x1="0" x2="347" y1="205.6973" y2="205.6973"/><text fill="#000000" font-family="sans-serif" font-size="13" font-weight="bold" lengthAdjust="spacing" textLength="7" x="7" y="200.4346">3</text><text fill="#000000" font-family="sans-serif" font-size="13" lengthAdjust="spacing" textLength="147" x="18" y="200.4346">add collaborators to team</text><polygon fill="#181818" points="761,232.9883,771,236.9883,761,240.9883,765,236.9883" style="stroke:#181818;stroke-width:1.0;"/><line style="stroke:#181818;stroke-width:1.0;" x1="363" x2="767" y1="236.9883" y2="236.9883"/><text fill="#000000" font-family="sans-serif" font-size="13" font-weight="bold" lengthAdjust="spacing" textLength="7" x="370" y="231.7256">4</text><text fill="#000000" font-family="sans-serif" font-size="13" lengthAdjust="spacing" textLength="247" x="381" y="231.7256">getEmployeesNotInTeam(teamEmployees)</text><polygon fill="#181818" points="1180,264.2793,1190,268.2793,1180,272.2793,1184,268.2793" style="stroke:#181818;stroke-width:1.0;"/><line style="stroke:#181818;stroke-width:1.0;" x1="783" x2="1186" y1="268.2793" y2="268.2793"/><text fill="#000000" font-family="sans-serif" font-size="13" font-weight="bold" lengthAdjust="spacing" textLength="7" x="790" y="263.0166">5</text><text fill="#000000" font-family="sans-serif" font-size="13" lengthAdjust="spacing" textLength="213" x="801" y="263.0166">employeeRepository.getEmployees()</text><polygon fill="#181818" points="794,295.5703,784,299.5703,794,303.5703,790,299.5703" style="stroke:#181818;stroke-width:1.0;"/><line style="stroke:#181818;stroke-width:1.0;stroke-dasharray:2.0,2.0;" x1="788" x2="1196" y1="299.5703" y2="299.5703"/><text fill="#000000" font-family="sans-serif" font-size="13" font-weight="bold" lengthAdjust="spacing" textLength="7" x="800" y="294.3076">6</text><text fill="#000000" font-family="sans-serif" font-size="13" lengthAdjust="spacing" textLength="63" x="811" y="294.3076">employees</text><path d="M670,314.5703 L743,314.5703 L743,323.8613 L733,333.8613 L670,333.8613 L670,314.5703 " fill="#EEEEEE" style="stroke:#000000;stroke-width:1.5;"/><rect fill="none" height="159.4551" style="stroke:#000000;stroke-width:1.5;" width="828.5" x="670" y="314.5703"/><text fill="#000000" font-family="sans-serif" font-size="13" font-weight="bold" lengthAdjust="spacing" textLength="28" x="685" y="329.5986">loop</text><text fill="#000000" font-family="sans-serif" font-size="11" font-weight="bold" lengthAdjust="spacing" textLength="141" x="758" y="328.4404">[employee in employees]</text><polygon fill="#181818" points="1431.5,353.1523,1441.5,357.1523,1431.5,361.1523,1435.5,357.1523" style="stroke:#181818;stroke-width:1.0;"/><line style="stroke:#181818;stroke-width:1.0;" x1="783" x2="1437.5" y1="357.1523" y2="357.1523"/><text fill="#000000" font-family="sans-serif" font-size="13" font-weight="bold" lengthAdjust="spacing" textLength="7" x="790" y="351.8896">7</text><text fill="#000000" font-family="sans-serif" font-size="13" lengthAdjust="spacing" textLength="214" x="801" y="351.8896">validateAddToTeam(teamEmployees)</text><polygon fill="#181818" points="794,384.4434,784,388.4434,794,392.4434,790,388.4434" style="stroke:#181818;stroke-width:1.0;"/><line style="stroke:#181818;stroke-width:1.0;stroke-dasharray:2.0,2.0;" x1="788" x2="1447.5" y1="388.4434" y2="388.4434"/><text fill="#000000" font-family="sans-serif" font-size="13" font-weight="bold" lengthAdjust="spacing" textLength="7" x="800" y="383.1807">8</text><text fill="#000000" font-family="sans-serif" font-size="13" lengthAdjust="spacing" textLength="32" x="811" y="383.1807">result</text><path d="M680,403.4434 L741,403.4434 L741,412.7344 L731,422.7344 L680,422.7344 L680,403.4434 " fill="#EEEEEE" style="stroke:#000000;stroke-width:1.5;"/><rect fill="none" height="63.582" style="stroke:#000000;stroke-width:1.5;" width="353" x="680" y="403.4434"/><text fill="#000000" font-family="sans-serif" font-size="13" font-weight="bold" lengthAdjust="spacing" textLength="16" x="695" y="418.4717">alt</text><text fill="#000000" font-family="sans-serif" font-size="11" font-weight="bold" lengthAdjust="spacing" textLength="31" x="756" y="417.3135">[true]</text><line style="stroke:#181818;stroke-width:1.0;" x1="783" x2="825" y1="446.0254" y2="446.0254"/><line style="stroke:#181818;stroke-width:1.0;" x1="825" x2="825" y1="446.0254" y2="459.0254"/><line style="stroke:#181818;stroke-width:1.0;" x1="784" x2="825" y1="459.0254" y2="459.0254"/><polygon fill="#181818" points="794,455.0254,784,459.0254,794,463.0254,790,459.0254" style="stroke:#181818;stroke-width:1.0;"/><text fill="#000000" font-family="sans-serif" font-size="13" font-weight="bold" lengthAdjust="spacing" textLength="7" x="790" y="440.7627">9</text><text fill="#000000" font-family="sans-serif" font-size="13" lengthAdjust="spacing" textLength="220" x="801" y="440.7627">teamEmployeesToAdd.add(employee)</text><polygon fill="#181818" points="374,500.3164,364,504.3164,374,508.3164,370,504.3164" style="stroke:#181818;stroke-width:1.0;"/><line style="stroke:#181818;stroke-width:1.0;stroke-dasharray:2.0,2.0;" x1="368" x2="777" y1="504.3164" y2="504.3164"/><text fill="#000000" font-family="sans-serif" font-size="13" font-weight="bold" lengthAdjust="spacing" textLength="14" x="380" y="499.0537">10</text><text fill="#000000" font-family="sans-serif" font-size="13" lengthAdjust="spacing" textLength="131" x="398" y="499.0537">teamEmployeesToAdd</text><polygon fill="#181818" points="11,531.6074,1,535.6074,11,539.6074,7,535.6074" style="stroke:#181818;stroke-width:1.0;"/><line style="stroke:#181818;stroke-width:1.0;stroke-dasharray:2.0,2.0;" x1="5" x2="357" y1="535.6074" y2="535.6074"/><text fill="#000000" font-family="sans-serif" font-size="13" font-weight="bold" lengthAdjust="spacing" textLength="14" x="17" y="530.3447">11</text><text fill="#000000" font-family="sans-serif" font-size="13" lengthAdjust="spacing" textLength="304" x="35" y="530.3447">shows collaborators not in team to be added to team</text><polygon fill="#181818" points="341,562.8984,351,566.8984,341,570.8984,345,566.8984" style="stroke:#181818;stroke-width:1.0;"/><line style="stroke:#181818;stroke-width:1.0;" x1="0" x2="347" y1="566.8984" y2="566.8984"/><text fill="#000000" font-family="sans-serif" font-size="13" font-weight="bold" lengthAdjust="spacing" textLength="14" x="7" y="561.6357">12</text><text fill="#000000" font-family="sans-serif" font-size="13" lengthAdjust="spacing" textLength="240" x="25" y="561.6357">selects collaborators to be added to team</text><polygon fill="#181818" points="761,594.1895,771,598.1895,761,602.1895,765,598.1895" style="stroke:#181818;stroke-width:1.0;"/><line style="stroke:#181818;stroke-width:1.0;" x1="363" x2="767" y1="598.1895" y2="598.1895"/><text fill="#000000" font-family="sans-serif" font-size="13" font-weight="bold" lengthAdjust="spacing" textLength="14" x="370" y="592.9268">13</text><text fill="#000000" font-family="sans-serif" font-size="13" lengthAdjust="spacing" textLength="373" x="388" y="592.9268">addTeamRemoveToAdd(teamEmployees,teamEmployeesToAdd)</text><line style="stroke:#181818;stroke-width:1.0;" x1="783" x2="825" y1="629.4805" y2="629.4805"/><line style="stroke:#181818;stroke-width:1.0;" x1="825" x2="825" y1="629.4805" y2="642.4805"/><line style="stroke:#181818;stroke-width:1.0;" x1="784" x2="825" y1="642.4805" y2="642.4805"/><polygon fill="#181818" points="794,638.4805,784,642.4805,794,646.4805,790,642.4805" style="stroke:#181818;stroke-width:1.0;"/><text fill="#000000" font-family="sans-serif" font-size="13" font-weight="bold" lengthAdjust="spacing" textLength="14" x="790" y="624.2178">14</text><text fill="#000000" font-family="sans-serif" font-size="13" lengthAdjust="spacing" textLength="377" x="808" y="624.2178">teamEmployees.add(employeeSelected : teamEmployeesToAdd)</text><polygon fill="#181818" points="374,669.7715,364,673.7715,374,677.7715,370,673.7715" style="stroke:#181818;stroke-width:1.0;"/><line style="stroke:#181818;stroke-width:1.0;stroke-dasharray:2.0,2.0;" x1="368" x2="777" y1="673.7715" y2="673.7715"/><text fill="#000000" font-family="sans-serif" font-size="13" font-weight="bold" lengthAdjust="spacing" textLength="14" x="380" y="668.5088">15</text><text fill="#000000" font-family="sans-serif" font-size="13" lengthAdjust="spacing" textLength="94" x="398" y="668.5088">teamEmployees</text><polygon fill="#181818" points="761,701.0625,771,705.0625,761,709.0625,765,705.0625" style="stroke:#181818;stroke-width:1.0;"/><line style="stroke:#181818;stroke-width:1.0;stroke-dasharray:2.0,2.0;" x1="363" x2="767" y1="705.0625" y2="705.0625"/><text fill="#000000" font-family="sans-serif" font-size="13" font-weight="bold" lengthAdjust="spacing" textLength="14" x="370" y="699.7998">16</text><text fill="#000000" font-family="sans-serif" font-size="13" lengthAdjust="spacing" textLength="74" x="388" y="699.7998">submitData()</text><polygon fill="#181818" points="1508.5,732.3535,1518.5,736.3535,1508.5,740.3535,1512.5,736.3535" style="stroke:#181818;stroke-width:1.0;"/><line style="stroke:#181818;stroke-width:1.0;" x1="783" x2="1514.5" y1="736.3535" y2="736.3535"/><text fill="#000000" font-family="sans-serif" font-size="13" font-weight="bold" lengthAdjust="spacing" textLength="14" x="790" y="731.0908">17</text><text fill="#000000" font-family="sans-serif" font-size="13" lengthAdjust="spacing" textLength="206" x="808" y="731.0908">createTeam(Team teamEmployees)</text><line style="stroke:#181818;stroke-width:1.0;" x1="1530.5" x2="1572.5" y1="767.6445" y2="767.6445"/><line style="stroke:#181818;stroke-width:1.0;" x1="1572.5" x2="1572.5" y1="767.6445" y2="780.6445"/><line style="stroke:#181818;stroke-width:1.0;" x1="1531.5" x2="1572.5" y1="780.6445" y2="780.6445"/><polygon fill="#181818" points="1541.5,776.6445,1531.5,780.6445,1541.5,784.6445,1537.5,780.6445" style="stroke:#181818;stroke-width:1.0;"/><text fill="#000000" font-family="sans-serif" font-size="13" font-weight="bold" lengthAdjust="spacing" textLength="14" x="1537.5" y="762.3818">18</text><text fill="#000000" font-family="sans-serif" font-size="13" lengthAdjust="spacing" textLength="69" x="1555.5" y="762.3818">create team</text><polygon fill="#181818" points="1355.5,807.9355,1345.5,811.9355,1355.5,815.9355,1351.5,811.9355" style="stroke:#181818;stroke-width:1.0;"/><line style="stroke:#181818;stroke-width:1.0;stroke-dasharray:2.0,2.0;" x1="1349.5" x2="1524.5" y1="811.9355" y2="811.9355"/><text fill="#000000" font-family="sans-serif" font-size="13" font-weight="bold" lengthAdjust="spacing" textLength="14" x="1361.5" y="806.6729">19</text><text fill="#000000" font-family="sans-serif" font-size="13" lengthAdjust="spacing" textLength="29" x="1379.5" y="806.6729">team</text><line style="stroke:#181818;stroke-width:1.0;" x1="1344.5" x2="1386.5" y1="843.2266" y2="843.2266"/><line style="stroke:#181818;stroke-width:1.0;" x1="1386.5" x2="1386.5" y1="843.2266" y2="856.2266"/><line style="stroke:#181818;stroke-width:1.0;" x1="1345.5" x2="1386.5" y1="856.2266" y2="856.2266"/><polygon fill="#181818" points="1355.5,852.2266,1345.5,856.2266,1355.5,860.2266,1351.5,856.2266" style="stroke:#181818;stroke-width:1.0;"/><text fill="#000000" font-family="sans-serif" font-size="13" font-weight="bold" lengthAdjust="spacing" textLength="14" x="1351.5" y="837.9639">20</text><text fill="#000000" font-family="sans-serif" font-size="13" lengthAdjust="spacing" textLength="58" x="1369.5" y="837.9639">add(team)</text><polygon fill="#181818" points="794,883.5176,784,887.5176,794,891.5176,790,887.5176" style="stroke:#181818;stroke-width:1.0;"/><line style="stroke:#181818;stroke-width:1.0;stroke-dasharray:2.0,2.0;" x1="788" x2="1338.5" y1="887.5176" y2="887.5176"/><text fill="#000000" font-family="sans-serif" font-size="13" font-weight="bold" lengthAdjust="spacing" textLength="14" x="800" y="882.2549">21</text><text fill="#000000" font-family="sans-serif" font-size="13" lengthAdjust="spacing" textLength="29" x="818" y="882.2549">team</text><polygon fill="#181818" points="374,914.8086,364,918.8086,374,922.8086,370,918.8086" style="stroke:#181818;stroke-width:1.0;"/><line style="stroke:#181818;stroke-width:1.0;stroke-dasharray:2.0,2.0;" x1="368" x2="777" y1="918.8086" y2="918.8086"/><text fill="#000000" font-family="sans-serif" font-size="13" font-weight="bold" lengthAdjust="spacing" textLength="14" x="380" y="913.5459">22</text><text fill="#000000" font-family="sans-serif" font-size="13" lengthAdjust="spacing" textLength="29" x="398" y="913.5459">team</text><polygon fill="#181818" points="11,946.0996,1,950.0996,11,954.0996,7,950.0996" style="stroke:#181818;stroke-width:1.0;"/><line style="stroke:#181818;stroke-width:1.0;stroke-dasharray:2.0,2.0;" x1="5" x2="357" y1="950.0996" y2="950.0996"/><text fill="#000000" font-family="sans-serif" font-size="13" font-weight="bold" lengthAdjust="spacing" textLength="14" x="17" y="944.8369">23</text><text fill="#000000" font-family="sans-serif" font-size="13" lengthAdjust="spacing" textLength="158" x="35" y="944.8369">Team successfully created!</text><line style="stroke:#000000;stroke-width:1.0;stroke-dasharray:2.0,2.0;" x1="3" x2="1636.5" y1="959.0996" y2="959.0996"/><text fill="#000000" font-family="sans-serif" font-size="11" font-weight="bold" lengthAdjust="spacing" textLength="53" x="8" y="970.9697">[REMOVE]</text><polygon fill="#181818" points="341,994.0215,351,998.0215,341,1002.0215,345,998.0215" style="stroke:#181818;stroke-width:1.0;"/><line style="stroke:#181818;stroke-width:1.0;" x1="0" x2="347" y1="998.0215" y2="998.0215"/><text fill="#000000" font-family="sans-serif" font-size="13" font-weight="bold" lengthAdjust="spacing" textLength="14" x="7" y="992.7588">24</text><text fill="#000000" font-family="sans-serif" font-size="13" lengthAdjust="spacing" textLength="167" x="25" y="992.7588">remove collaborators to team</text><polygon fill="#181818" points="11,1025.3125,1,1029.3125,11,1033.3125,7,1029.3125" style="stroke:#181818;stroke-width:1.0;"/><line style="stroke:#181818;stroke-width:1.0;stroke-dasharray:2.0,2.0;" x1="5" x2="357" y1="1029.3125" y2="1029.3125"/><text fill="#000000" font-family="sans-serif" font-size="13" font-weight="bold" lengthAdjust="spacing" textLength="14" x="17" y="1024.0498">25</text><text fill="#000000" font-family="sans-serif" font-size="13" lengthAdjust="spacing" textLength="309" x="35" y="1024.0498">shows collaborators in team to be removed from team</text><polygon fill="#181818" points="341,1056.6035,351,1060.6035,341,1064.6035,345,1060.6035" style="stroke:#181818;stroke-width:1.0;"/><line style="stroke:#181818;stroke-width:1.0;" x1="0" x2="347" y1="1060.6035" y2="1060.6035"/><text fill="#000000" font-family="sans-serif" font-size="13" font-weight="bold" lengthAdjust="spacing" textLength="14" x="7" y="1055.3408">26</text><text fill="#000000" font-family="sans-serif" font-size="13" lengthAdjust="spacing" textLength="267" x="25" y="1055.3408">selects collaborators to be removed from team</text><line style="stroke:#181818;stroke-width:1.0;" x1="363" x2="405" y1="1091.8945" y2="1091.8945"/><line style="stroke:#181818;stroke-width:1.0;" x1="405" x2="405" y1="1091.8945" y2="1104.8945"/><line style="stroke:#181818;stroke-width:1.0;" x1="364" x2="405" y1="1104.8945" y2="1104.8945"/><polygon fill="#181818" points="374,1100.8945,364,1104.8945,374,1108.8945,370,1104.8945" style="stroke:#181818;stroke-width:1.0;"/><text fill="#000000" font-family="sans-serif" font-size="13" font-weight="bold" lengthAdjust="spacing" textLength="14" x="370" y="1086.6318">27</text><text fill="#000000" font-family="sans-serif" font-size="13" lengthAdjust="spacing" textLength="315" x="388" y="1086.6318">teamEmployees(employeeSelected : teamEmployees)</text><polygon fill="#181818" points="761,1132.1855,771,1136.1855,761,1140.1855,765,1136.1855" style="stroke:#181818;stroke-width:1.0;"/><line style="stroke:#181818;stroke-width:1.0;stroke-dasharray:2.0,2.0;" x1="363" x2="767" y1="1136.1855" y2="1136.1855"/><text fill="#000000" font-family="sans-serif" font-size="13" font-weight="bold" lengthAdjust="spacing" textLength="14" x="370" y="1130.9229">28</text><text fill="#000000" font-family="sans-serif" font-size="13" lengthAdjust="spacing" textLength="74" x="388" y="1130.9229">submitData()</text><polygon fill="#181818" points="1508.5,1163.4766,1518.5,1167.4766,1508.5,1171.4766,1512.5,1167.4766" style="stroke:#181818;stroke-width:1.0;"/><line style="stroke:#181818;stroke-width:1.0;" x1="783" x2="1514.5" y1="1167.4766" y2="1167.4766"/><text fill="#000000" font-family="sans-serif" font-size="13" font-weight="bold" lengthAdjust="spacing" textLength="14" x="790" y="1162.2139">29</text><text fill="#000000" font-family="sans-serif" font-size="13" lengthAdjust="spacing" textLength="206" x="808" y="1162.2139">createTeam(Team teamEmployees)</text><line style="stroke:#181818;stroke-width:1.0;" x1="1530.5" x2="1572.5" y1="1198.7676" y2="1198.7676"/><line style="stroke:#181818;stroke-width:1.0;" x1="1572.5" x2="1572.5" y1="1198.7676" y2="1211.7676"/><line style="stroke:#181818;stroke-width:1.0;" x1="1531.5" x2="1572.5" y1="1211.7676" y2="1211.7676"/><polygon fill="#181818" points="1541.5,1207.7676,1531.5,1211.7676,1541.5,1215.7676,1537.5,1211.7676" style="stroke:#181818;stroke-width:1.0;"/><text fill="#000000" font-family="sans-serif" font-size="13" font-weight="bold" lengthAdjust="spacing" textLength="14" x="1537.5" y="1193.5049">30</text><text fill="#000000" font-family="sans-serif" font-size="13" lengthAdjust="spacing" textLength="69" x="1555.5" y="1193.5049">create team</text><polygon fill="#181818" points="1355.5,1239.0586,1345.5,1243.0586,1355.5,1247.0586,1351.5,1243.0586" style="stroke:#181818;stroke-width:1.0;"/><line style="stroke:#181818;stroke-width:1.0;stroke-dasharray:2.0,2.0;" x1="1349.5" x2="1524.5" y1="1243.0586" y2="1243.0586"/><text fill="#000000" font-family="sans-serif" font-size="13" font-weight="bold" lengthAdjust="spacing" textLength="14" x="1361.5" y="1237.7959">31</text><text fill="#000000" font-family="sans-serif" font-size="13" lengthAdjust="spacing" textLength="29" x="1379.5" y="1237.7959">team</text><line style="stroke:#181818;stroke-width:1.0;" x1="1344.5" x2="1386.5" y1="1274.3496" y2="1274.3496"/><line style="stroke:#181818;stroke-width:1.0;" x1="1386.5" x2="1386.5" y1="1274.3496" y2="1287.3496"/><line style="stroke:#181818;stroke-width:1.0;" x1="1345.5" x2="1386.5" y1="1287.3496" y2="1287.3496"/><polygon fill="#181818" points="1355.5,1283.3496,1345.5,1287.3496,1355.5,1291.3496,1351.5,1287.3496" style="stroke:#181818;stroke-width:1.0;"/><text fill="#000000" font-family="sans-serif" font-size="13" font-weight="bold" lengthAdjust="spacing" textLength="14" x="1351.5" y="1269.0869">32</text><text fill="#000000" font-family="sans-serif" font-size="13" lengthAdjust="spacing" textLength="58" x="1369.5" y="1269.0869">add(team)</text><polygon fill="#181818" points="794,1314.6406,784,1318.6406,794,1322.6406,790,1318.6406" style="stroke:#181818;stroke-width:1.0;"/><line style="stroke:#181818;stroke-width:1.0;stroke-dasharray:2.0,2.0;" x1="788" x2="1338.5" y1="1318.6406" y2="1318.6406"/><text fill="#000000" font-family="sans-serif" font-size="13" font-weight="bold" lengthAdjust="spacing" textLength="14" x="800" y="1313.3779">33</text><text fill="#000000" font-family="sans-serif" font-size="13" lengthAdjust="spacing" textLength="29" x="818" y="1313.3779">team</text><polygon fill="#181818" points="374,1345.9316,364,1349.9316,374,1353.9316,370,1349.9316" style="stroke:#181818;stroke-width:1.0;"/><line style="stroke:#181818;stroke-width:1.0;stroke-dasharray:2.0,2.0;" x1="368" x2="777" y1="1349.9316" y2="1349.9316"/><text fill="#000000" font-family="sans-serif" font-size="13" font-weight="bold" lengthAdjust="spacing" textLength="14" x="380" y="1344.6689">34</text><text fill="#000000" font-family="sans-serif" font-size="13" lengthAdjust="spacing" textLength="29" x="398" y="1344.6689">team</text><polygon fill="#181818" points="11,1377.2227,1,1381.2227,11,1385.2227,7,1381.2227" style="stroke:#181818;stroke-width:1.0;"/><line style="stroke:#181818;stroke-width:1.0;stroke-dasharray:2.0,2.0;" x1="5" x2="357" y1="1381.2227" y2="1381.2227"/><text fill="#000000" font-family="sans-serif" font-size="13" font-weight="bold" lengthAdjust="spacing" textLength="14" x="17" y="1375.96">35</text><text fill="#000000" font-family="sans-serif" font-size="13" lengthAdjust="spacing" textLength="158" x="35" y="1375.96">Team successfully created!</text><!--SRC=[hLRBRjim4BppAzWSMXkeym56KI18Z210tGQ9qrCkjBIMXKXSGQIS-k-xeYrPDAbN71ufQcOViqEgjrXc8XSfJr5YiCqn1Qxp0fYglsGYU1CHFEjz0Zo7G0iP9Sq3QYj2V8zbn3SYKS2OA3JA8br3pjYtRHm2to3gDVvZZFxGSH1dGcf-DRy72RdGi0AHlZnSSQ7uoqF7cLkKEiSaWToSlLqz_R9FGvebk0TuWWnLh37Vpr_bmjaqVxlRDfOcGWjdPMqO37lB7ykhd5TK1zxb8tEPw5G9Ta1Tt2oPI3I_2GB8DF_AbnZ6cptZj6O_gKPyVlwDH_4E95T5587ICKfpM0Gwtb7nohBoQlsOpGuGuarnZLo48G-egcADL6ZC5SUS6ftY3knz0n623zH4UtTt8cc6wX8GQvcqTTmRwt4H386L_IQu27HLKFKRzODfpAJ4gxUd3aADRaJ3FSkW4ukh2-9qXNNT36CozKBMf1wjyPRbeP-TSg_YKDx_6xqPo9WWPZKeZsKFWLMdvIC5j1D971BXJHYkS4WZtDhGFBGMWpWQsUUWYaItGv88ZNdnZjMiKGTpCzCZkvNO2YdZQrBsfAfOUweWGzQsppgqMCsFIymwil8Al9vvjSLtTJQD4dNP-fAcdCmrb1CBeNTA_UFVd7O52LqIoftuJjp1qqyG1zSj_SaKmrRSTxTQbxY1h_TMsvzDkfILhq_JiTqTrTYoBgSGLR5EOtqdjEXpezwaomk848CSZXVlP6MqqJ_PDOUvmze6mk2VyxYQS7yf_x6kt6Fz-jomDPhJ2VicRmt3PlV58uwAd0u6iMNMcykmI5sHzG6tog8s3wC2LT3BGwbDaIJxO-l2BwpR7u3UXVnfiVppT-5_8lYU6rwV6EePmztFThv3827Vq5EucxtT2VbOMnnEEZJbWsMw_j9hM-sg7UasuvpdSrrel2DTw4uNEjLOrxh4mJxTpIvqjijSxWEEDzRzFco5_MPHFGpjhumjQFy_]--></g></svg>