<?xml version="1.0" encoding="us-ascii" standalone="no"?><svg xmlns="http://www.w3.org/2000/svg" xmlns:xlink="http://www.w3.org/1999/xlink" contentStyleType="text/css" height="810px" preserveAspectRatio="none" style="width:378px;height:810px;background:#FFFFFF;" version="1.1" viewBox="0 0 378 810" width="378px" zoomAndPan="magnify"><defs/><g><text fill="#000000" font-family="sans-serif" font-size="14" font-weight="bold" lengthAdjust="spacing" textLength="275" x="52.5" y="30.1074">System Sequence Diagram (SSD) US005</text><rect fill="#FFFFFF" height="585.5" style="stroke:#181818;stroke-width:1.0;" width="10" x="33" y="133.2422"/><rect fill="#FFFFFF" height="31.291" style="stroke:#181818;stroke-width:1.0;" width="10" x="324" y="156.5332"/><rect fill="#FFFFFF" height="31.291" style="stroke:#181818;stroke-width:1.0;" width="10" x="324" y="219.1152"/><rect fill="#FFFFFF" height="31.291" style="stroke:#181818;stroke-width:1.0;" width="10" x="324" y="281.6973"/><rect fill="#FFFFFF" height="31.291" style="stroke:#181818;stroke-width:1.0;" width="10" x="324" y="344.2793"/><rect fill="#FFFFFF" height="48.582" style="stroke:#181818;stroke-width:1.0;" width="10" x="324" y="406.8613"/><rect fill="#FFFFFF" height="205.7168" style="stroke:#181818;stroke-width:1.0;" width="10" x="324" y="513.0254"/><rect fill="#FFFFFF" height="31.291" style="stroke:#181818;stroke-width:1.0;" width="10" x="329" y="678.4512"/><rect fill="none" height="146.4258" style="stroke:#000000;stroke-width:1.5;" width="361" x="10" y="470.4434"/><line style="stroke:#181818;stroke-width:0.5;stroke-dasharray:5.0,5.0;" x1="38" x2="38" y1="123.2422" y2="727.7422"/><line style="stroke:#181818;stroke-width:0.5;stroke-dasharray:5.0,5.0;" x1="329" x2="329" y1="123.2422" y2="727.7422"/><text fill="#000000" font-family="sans-serif" font-size="14" lengthAdjust="spacing" textLength="30" x="20" y="119.7285">GRH</text><ellipse cx="38" cy="53.1211" fill="#E3E3E3" rx="8" ry="8" style="stroke:#181818;stroke-width:0.5;"/><path d="M38,61.1211 L38,88.1211 M25,69.1211 L51,69.1211 M38,88.1211 L25,103.1211 M38,88.1211 L51,103.1211 " fill="none" style="stroke:#181818;stroke-width:0.5;"/><text fill="#000000" font-family="sans-serif" font-size="14" lengthAdjust="spacing" textLength="30" x="20" y="741.8496">GRH</text><ellipse cx="38" cy="753.8633" fill="#E3E3E3" rx="8" ry="8" style="stroke:#181818;stroke-width:0.5;"/><path d="M38,761.8633 L38,788.8633 M25,769.8633 L51,769.8633 M38,788.8633 L25,803.8633 M38,788.8633 L51,803.8633 " fill="none" style="stroke:#181818;stroke-width:0.5;"/><rect fill="#E3E3E3" height="32.6211" rx="2.5" ry="2.5" style="stroke:#181818;stroke-width:0.5;" width="64" x="297" y="89.6211"/><text fill="#000000" font-family="sans-serif" font-size="14" lengthAdjust="spacing" textLength="50" x="304" y="111.7285">:System</text><rect fill="#E3E3E3" height="32.6211" rx="2.5" ry="2.5" style="stroke:#181818;stroke-width:0.5;" width="64" x="297" y="726.7422"/><text fill="#000000" font-family="sans-serif" font-size="14" lengthAdjust="spacing" textLength="50" x="304" y="748.8496">:System</text><rect fill="#FFFFFF" height="585.5" style="stroke:#181818;stroke-width:1.0;" width="10" x="33" y="133.2422"/><rect fill="#FFFFFF" height="31.291" style="stroke:#181818;stroke-width:1.0;" width="10" x="324" y="156.5332"/><rect fill="#FFFFFF" height="31.291" style="stroke:#181818;stroke-width:1.0;" width="10" x="324" y="219.1152"/><rect fill="#FFFFFF" height="31.291" style="stroke:#181818;stroke-width:1.0;" width="10" x="324" y="281.6973"/><rect fill="#FFFFFF" height="31.291" style="stroke:#181818;stroke-width:1.0;" width="10" x="324" y="344.2793"/><rect fill="#FFFFFF" height="48.582" style="stroke:#181818;stroke-width:1.0;" width="10" x="324" y="406.8613"/><rect fill="#FFFFFF" height="205.7168" style="stroke:#181818;stroke-width:1.0;" width="10" x="324" y="513.0254"/><rect fill="#FFFFFF" height="31.291" style="stroke:#181818;stroke-width:1.0;" width="10" x="329" y="678.4512"/><polygon fill="#181818" points="312,152.5332,322,156.5332,312,160.5332,316,156.5332" style="stroke:#181818;stroke-width:1.0;"/><line style="stroke:#181818;stroke-width:1.0;" x1="43" x2="318" y1="156.5332" y2="156.5332"/><text fill="#000000" font-family="sans-serif" font-size="13" font-weight="bold" lengthAdjust="spacing" textLength="7" x="50" y="151.2705">1</text><text fill="#000000" font-family="sans-serif" font-size="13" lengthAdjust="spacing" textLength="207" x="61" y="151.2705">asks to create a new team proposal</text><polygon fill="#181818" points="54,183.8242,44,187.8242,54,191.8242,50,187.8242" style="stroke:#181818;stroke-width:1.0;"/><line style="stroke:#181818;stroke-width:1.0;stroke-dasharray:2.0,2.0;" x1="48" x2="328" y1="187.8242" y2="187.8242"/><text fill="#000000" font-family="sans-serif" font-size="13" font-weight="bold" lengthAdjust="spacing" textLength="7" x="60" y="182.5615">2</text><text fill="#000000" font-family="sans-serif" font-size="13" lengthAdjust="spacing" textLength="211" x="71" y="182.5615">requests number of team employees</text><polygon fill="#181818" points="312,215.1152,322,219.1152,312,223.1152,316,219.1152" style="stroke:#181818;stroke-width:1.0;"/><line style="stroke:#181818;stroke-width:1.0;" x1="43" x2="318" y1="219.1152" y2="219.1152"/><text fill="#000000" font-family="sans-serif" font-size="13" font-weight="bold" lengthAdjust="spacing" textLength="7" x="50" y="213.8525">3</text><text fill="#000000" font-family="sans-serif" font-size="13" lengthAdjust="spacing" textLength="201" x="61" y="213.8525">provide number of team employees</text><polygon fill="#181818" points="54,246.4063,44,250.4063,54,254.4063,50,250.4063" style="stroke:#181818;stroke-width:1.0;"/><line style="stroke:#181818;stroke-width:1.0;stroke-dasharray:2.0,2.0;" x1="48" x2="328" y1="250.4063" y2="250.4063"/><text fill="#000000" font-family="sans-serif" font-size="13" font-weight="bold" lengthAdjust="spacing" textLength="7" x="60" y="245.1436">4</text><text fill="#000000" font-family="sans-serif" font-size="13" lengthAdjust="spacing" textLength="82" x="71" y="245.1436">data validation</text><polygon fill="#181818" points="312,277.6973,322,281.6973,312,285.6973,316,281.6973" style="stroke:#181818;stroke-width:1.0;"/><line style="stroke:#181818;stroke-width:1.0;" x1="43" x2="318" y1="281.6973" y2="281.6973"/><text fill="#000000" font-family="sans-serif" font-size="13" font-weight="bold" lengthAdjust="spacing" textLength="7" x="50" y="276.4346">5</text><text fill="#000000" font-family="sans-serif" font-size="13" lengthAdjust="spacing" textLength="78" x="61" y="276.4346">confirms data</text><polygon fill="#181818" points="54,308.9883,44,312.9883,54,316.9883,50,312.9883" style="stroke:#181818;stroke-width:1.0;"/><line style="stroke:#181818;stroke-width:1.0;stroke-dasharray:2.0,2.0;" x1="48" x2="328" y1="312.9883" y2="312.9883"/><text fill="#000000" font-family="sans-serif" font-size="13" font-weight="bold" lengthAdjust="spacing" textLength="7" x="60" y="307.7256">6</text><text fill="#000000" font-family="sans-serif" font-size="13" lengthAdjust="spacing" textLength="99" x="71" y="307.7256">requests skill set</text><polygon fill="#181818" points="312,340.2793,322,344.2793,312,348.2793,316,344.2793" style="stroke:#181818;stroke-width:1.0;"/><line style="stroke:#181818;stroke-width:1.0;" x1="43" x2="318" y1="344.2793" y2="344.2793"/><text fill="#000000" font-family="sans-serif" font-size="13" font-weight="bold" lengthAdjust="spacing" textLength="7" x="50" y="339.0166">7</text><text fill="#000000" font-family="sans-serif" font-size="13" lengthAdjust="spacing" textLength="89" x="61" y="339.0166">provide skill set</text><polygon fill="#181818" points="54,371.5703,44,375.5703,54,379.5703,50,375.5703" style="stroke:#181818;stroke-width:1.0;"/><line style="stroke:#181818;stroke-width:1.0;stroke-dasharray:2.0,2.0;" x1="48" x2="328" y1="375.5703" y2="375.5703"/><text fill="#000000" font-family="sans-serif" font-size="13" font-weight="bold" lengthAdjust="spacing" textLength="7" x="60" y="370.3076">8</text><text fill="#000000" font-family="sans-serif" font-size="13" lengthAdjust="spacing" textLength="82" x="71" y="370.3076">data validation</text><polygon fill="#181818" points="312,402.8613,322,406.8613,312,410.8613,316,406.8613" style="stroke:#181818;stroke-width:1.0;"/><line style="stroke:#181818;stroke-width:1.0;" x1="43" x2="318" y1="406.8613" y2="406.8613"/><text fill="#000000" font-family="sans-serif" font-size="13" font-weight="bold" lengthAdjust="spacing" textLength="7" x="50" y="401.5986">9</text><text fill="#000000" font-family="sans-serif" font-size="13" lengthAdjust="spacing" textLength="78" x="61" y="401.5986">confirms data</text><polygon fill="#181818" points="54,451.4434,44,455.4434,54,459.4434,50,455.4434" style="stroke:#181818;stroke-width:1.0;"/><line style="stroke:#181818;stroke-width:1.0;stroke-dasharray:2.0,2.0;" x1="48" x2="328" y1="455.4434" y2="455.4434"/><text fill="#000000" font-family="sans-serif" font-size="13" font-weight="bold" lengthAdjust="spacing" textLength="14" x="60" y="441.5352">10</text><text fill="#000000" font-family="sans-serif" font-size="13" lengthAdjust="spacing" textLength="220" x="78" y="432.8896">shows a team suggestion and asks to</text><text fill="#000000" font-family="sans-serif" font-size="13" lengthAdjust="spacing" textLength="213" x="82" y="450.1807">accept, accept and modify or decline</text><path d="M10,470.4434 L71,470.4434 L71,479.7344 L61,489.7344 L10,489.7344 L10,470.4434 " fill="#EEEEEE" style="stroke:#000000;stroke-width:1.5;"/><rect fill="none" height="146.4258" style="stroke:#000000;stroke-width:1.5;" width="361" x="10" y="470.4434"/><text fill="#000000" font-family="sans-serif" font-size="13" font-weight="bold" lengthAdjust="spacing" textLength="16" x="25" y="485.4717">alt</text><text fill="#000000" font-family="sans-serif" font-size="11" font-weight="bold" lengthAdjust="spacing" textLength="46" x="86" y="484.3135">[Accept]</text><polygon fill="#181818" points="312,509.0254,322,513.0254,312,517.0254,316,513.0254" style="stroke:#181818;stroke-width:1.0;"/><line style="stroke:#181818;stroke-width:1.0;" x1="43" x2="318" y1="513.0254" y2="513.0254"/><text fill="#000000" font-family="sans-serif" font-size="13" font-weight="bold" lengthAdjust="spacing" textLength="14" x="50" y="507.7627">11</text><text fill="#000000" font-family="sans-serif" font-size="13" lengthAdjust="spacing" textLength="163" x="68" y="507.7627">Accept the given suggestion</text><line style="stroke:#000000;stroke-width:1.0;stroke-dasharray:2.0,2.0;" x1="10" x2="371" y1="522.0254" y2="522.0254"/><text fill="#000000" font-family="sans-serif" font-size="11" font-weight="bold" lengthAdjust="spacing" textLength="97" x="15" y="533.8955">[Accept &amp; Modify]</text><polygon fill="#181818" points="312,556.9473,322,560.9473,312,564.9473,316,560.9473" style="stroke:#181818;stroke-width:1.0;"/><line style="stroke:#181818;stroke-width:1.0;" x1="43" x2="318" y1="560.9473" y2="560.9473"/><text fill="#000000" font-family="sans-serif" font-size="13" font-weight="bold" lengthAdjust="spacing" textLength="14" x="50" y="555.6846">12</text><text fill="#000000" font-family="sans-serif" font-size="13" lengthAdjust="spacing" textLength="239" x="68" y="555.6846">modify the given suggestion and inserts it</text><line style="stroke:#000000;stroke-width:1.0;stroke-dasharray:2.0,2.0;" x1="10" x2="371" y1="569.9473" y2="569.9473"/><text fill="#000000" font-family="sans-serif" font-size="11" font-weight="bold" lengthAdjust="spacing" textLength="48" x="15" y="581.8174">[Decline]</text><polygon fill="#181818" points="312,604.8691,322,608.8691,312,612.8691,316,608.8691" style="stroke:#181818;stroke-width:1.0;"/><line style="stroke:#181818;stroke-width:1.0;" x1="43" x2="318" y1="608.8691" y2="608.8691"/><text fill="#000000" font-family="sans-serif" font-size="13" font-weight="bold" lengthAdjust="spacing" textLength="14" x="50" y="603.6064">13</text><text fill="#000000" font-family="sans-serif" font-size="13" lengthAdjust="spacing" textLength="170" x="68" y="603.6064">declines the given suggestion</text><polygon fill="#181818" points="54,643.1602,44,647.1602,54,651.1602,50,647.1602" style="stroke:#181818;stroke-width:1.0;"/><line style="stroke:#181818;stroke-width:1.0;stroke-dasharray:2.0,2.0;" x1="48" x2="323" y1="647.1602" y2="647.1602"/><text fill="#000000" font-family="sans-serif" font-size="13" font-weight="bold" lengthAdjust="spacing" textLength="14" x="60" y="641.8975">14</text><text fill="#000000" font-family="sans-serif" font-size="13" lengthAdjust="spacing" textLength="82" x="78" y="641.8975">data validation</text><polygon fill="#181818" points="317,674.4512,327,678.4512,317,682.4512,321,678.4512" style="stroke:#181818;stroke-width:1.0;"/><line style="stroke:#181818;stroke-width:1.0;" x1="43" x2="323" y1="678.4512" y2="678.4512"/><text fill="#000000" font-family="sans-serif" font-size="13" font-weight="bold" lengthAdjust="spacing" textLength="14" x="50" y="673.1885">15</text><text fill="#000000" font-family="sans-serif" font-size="13" lengthAdjust="spacing" textLength="78" x="68" y="673.1885">confirms data</text><polygon fill="#181818" points="54,705.7422,44,709.7422,54,713.7422,50,709.7422" style="stroke:#181818;stroke-width:1.0;"/><line style="stroke:#181818;stroke-width:1.0;stroke-dasharray:2.0,2.0;" x1="48" x2="323" y1="709.7422" y2="709.7422"/><text fill="#000000" font-family="sans-serif" font-size="13" font-weight="bold" lengthAdjust="spacing" textLength="14" x="60" y="704.4795">16</text><text fill="#000000" font-family="sans-serif" font-size="13" lengthAdjust="spacing" textLength="158" x="78" y="704.4795">displays operation success</text><!--SRC=[hPH1hzCm3CVl_HJM3ZoGUDAxSDa12MbFSE52nOsBIRpEMfkKsDtKRu-RjcE8Th0dUcXJnVxdvt-SFEonLWHxKS9KF80zda_iEK64q3MK8dW2-j5nYq200dBakfR2Fg75X0qqCKHtIB4XqDJHrKoBxeWLbThN18cSOgZgwm0ve8zd3XKOY51HAAk5bhqeDL3QiXGSmOwn6i9Vb-Nk3NmjdvxU5GLs6etmEoKREuq9DX-_VDeCYCzDMyUUgB1Lb9sX1uNDTfJD4UCm9_89bNwb58C7ynyylfzXjfPs5D08Bj6GWH3e34f3dIcsKR3EkHV9UGsOdadeqJGl-bkpnOeK5HXhWRWVDMaAaPplQL5saTDeR0Vfjk0gwJAbHskJ4zPi0uxX8l4drogMYs7FgP6izHA6YrEv0q58Rs3ytPxVLVw35pT0xZJb1MqaXtWMwycyrT9LbJbbS831putxpVwSerRVJjyysKJF-nxi-7XoDGTQwJUx8-13JbktTfm7FH1KVA9m1R9eCjcPdvDUmUTCigu-aIwfvqeu22Lh3zPHU3VLioWs5IlBiC_1tzC1_xYrTswfPsbhx0LYQxTpBbCwCqjMheIV]--></g></svg>