<?xml version="1.0" encoding="us-ascii" standalone="no"?><svg xmlns="http://www.w3.org/2000/svg" xmlns:xlink="http://www.w3.org/1999/xlink" contentStyleType="text/css" height="468px" preserveAspectRatio="none" style="width:533px;height:468px;background:#FFFFFF;" version="1.1" viewBox="0 0 533 468" width="533px" zoomAndPan="magnify"><defs/><g><text fill="#000000" font-family="sans-serif" font-size="14" font-weight="bold" lengthAdjust="spacing" textLength="351" x="90.25" y="30.1074">System Sequence Diagram (SSD) - Alternative One</text><rect fill="#FFFFFF" height="206.0371" style="stroke:#181818;stroke-width:1.0;" width="10" x="53.5" y="151.8633"/><rect fill="#FFFFFF" height="48.582" style="stroke:#181818;stroke-width:1.0;" width="10" x="490.5" y="175.1543"/><rect fill="#FFFFFF" height="31.291" style="stroke:#181818;stroke-width:1.0;" width="10" x="490.5" y="255.0273"/><rect fill="#FFFFFF" height="31.291" style="stroke:#181818;stroke-width:1.0;" width="10" x="490.5" y="317.6094"/><line style="stroke:#181818;stroke-width:0.5;stroke-dasharray:5.0,5.0;" x1="58" x2="58" y1="141.8633" y2="366.9004"/><line style="stroke:#181818;stroke-width:0.5;stroke-dasharray:5.0,5.0;" x1="495.5" x2="495.5" y1="141.8633" y2="366.9004"/><text fill="#000000" font-family="sans-serif" font-size="14" lengthAdjust="spacing" textLength="84" x="13.5" y="119.7285">Green Space</text><text fill="#000000" font-family="sans-serif" font-size="14" lengthAdjust="spacing" textLength="101" x="5" y="138.3496">Manager (GSM)</text><ellipse cx="58.5" cy="53.1211" fill="#E3E3E3" rx="8" ry="8" style="stroke:#181818;stroke-width:0.5;"/><path d="M58.5,61.1211 L58.5,88.1211 M45.5,69.1211 L71.5,69.1211 M58.5,88.1211 L45.5,103.1211 M58.5,88.1211 L71.5,103.1211 " fill="none" style="stroke:#181818;stroke-width:0.5;"/><text fill="#000000" font-family="sans-serif" font-size="14" lengthAdjust="spacing" textLength="84" x="13.5" y="381.0078">Green Space</text><text fill="#000000" font-family="sans-serif" font-size="14" lengthAdjust="spacing" textLength="101" x="5" y="399.6289">Manager (GSM)</text><ellipse cx="58.5" cy="411.6426" fill="#E3E3E3" rx="8" ry="8" style="stroke:#181818;stroke-width:0.5;"/><path d="M58.5,419.6426 L58.5,446.6426 M45.5,427.6426 L71.5,427.6426 M58.5,446.6426 L45.5,461.6426 M58.5,446.6426 L71.5,461.6426 " fill="none" style="stroke:#181818;stroke-width:0.5;"/><rect fill="#E3E3E3" height="32.6211" rx="2.5" ry="2.5" style="stroke:#181818;stroke-width:0.5;" width="64" x="463.5" y="108.2422"/><text fill="#000000" font-family="sans-serif" font-size="14" lengthAdjust="spacing" textLength="50" x="470.5" y="130.3496">:System</text><rect fill="#E3E3E3" height="32.6211" rx="2.5" ry="2.5" style="stroke:#181818;stroke-width:0.5;" width="64" x="463.5" y="365.9004"/><text fill="#000000" font-family="sans-serif" font-size="14" lengthAdjust="spacing" textLength="50" x="470.5" y="388.0078">:System</text><rect fill="#FFFFFF" height="206.0371" style="stroke:#181818;stroke-width:1.0;" width="10" x="53.5" y="151.8633"/><rect fill="#FFFFFF" height="48.582" style="stroke:#181818;stroke-width:1.0;" width="10" x="490.5" y="175.1543"/><rect fill="#FFFFFF" height="31.291" style="stroke:#181818;stroke-width:1.0;" width="10" x="490.5" y="255.0273"/><rect fill="#FFFFFF" height="31.291" style="stroke:#181818;stroke-width:1.0;" width="10" x="490.5" y="317.6094"/><polygon fill="#181818" points="478.5,171.1543,488.5,175.1543,478.5,179.1543,482.5,175.1543" style="stroke:#181818;stroke-width:1.0;"/><line style="stroke:#181818;stroke-width:1.0;" x1="63.5" x2="484.5" y1="175.1543" y2="175.1543"/><text fill="#000000" font-family="sans-serif" font-size="13" font-weight="bold" lengthAdjust="spacing" textLength="7" x="70.5" y="169.8916">1</text><text fill="#000000" font-family="sans-serif" font-size="13" lengthAdjust="spacing" textLength="260" x="81.5" y="169.8916">asks to assign teams to tasks in the Agenda</text><polygon fill="#181818" points="74.5,219.7363,64.5,223.7363,74.5,227.7363,70.5,223.7363" style="stroke:#181818;stroke-width:1.0;"/><line style="stroke:#181818;stroke-width:1.0;" x1="68.5" x2="494.5" y1="223.7363" y2="223.7363"/><text fill="#000000" font-family="sans-serif" font-size="13" font-weight="bold" lengthAdjust="spacing" textLength="7" x="80.5" y="209.8281">2</text><text fill="#000000" font-family="sans-serif" font-size="13" lengthAdjust="spacing" textLength="388" x="91.5" y="201.1826">shows list of available tasks in the Agenda ordered by park location</text><text fill="#000000" font-family="sans-serif" font-size="13" lengthAdjust="spacing" textLength="132" x="95.5" y="218.4736">and asks to select one</text><polygon fill="#181818" points="478.5,251.0273,488.5,255.0273,478.5,259.0273,482.5,255.0273" style="stroke:#181818;stroke-width:1.0;"/><line style="stroke:#181818;stroke-width:1.0;" x1="63.5" x2="484.5" y1="255.0273" y2="255.0273"/><text fill="#000000" font-family="sans-serif" font-size="13" font-weight="bold" lengthAdjust="spacing" textLength="7" x="70.5" y="249.7646">3</text><text fill="#000000" font-family="sans-serif" font-size="13" lengthAdjust="spacing" textLength="154" x="81.5" y="249.7646">selects a task from the list</text><polygon fill="#181818" points="74.5,282.3184,64.5,286.3184,74.5,290.3184,70.5,286.3184" style="stroke:#181818;stroke-width:1.0;"/><line style="stroke:#181818;stroke-width:1.0;stroke-dasharray:2.0,2.0;" x1="68.5" x2="494.5" y1="286.3184" y2="286.3184"/><text fill="#000000" font-family="sans-serif" font-size="13" font-weight="bold" lengthAdjust="spacing" textLength="7" x="80.5" y="281.0557">4</text><text fill="#000000" font-family="sans-serif" font-size="13" lengthAdjust="spacing" textLength="367" x="91.5" y="281.0557">shows list of available teams that can perform the selected task</text><polygon fill="#181818" points="478.5,313.6094,488.5,317.6094,478.5,321.6094,482.5,317.6094" style="stroke:#181818;stroke-width:1.0;"/><line style="stroke:#181818;stroke-width:1.0;" x1="63.5" x2="484.5" y1="317.6094" y2="317.6094"/><text fill="#000000" font-family="sans-serif" font-size="13" font-weight="bold" lengthAdjust="spacing" textLength="7" x="70.5" y="312.3467">5</text><text fill="#000000" font-family="sans-serif" font-size="13" lengthAdjust="spacing" textLength="237" x="81.5" y="312.3467">selects a team and assigns it to the task</text><polygon fill="#181818" points="74.5,344.9004,64.5,348.9004,74.5,352.9004,70.5,348.9004" style="stroke:#181818;stroke-width:1.0;"/><line style="stroke:#181818;stroke-width:1.0;stroke-dasharray:2.0,2.0;" x1="68.5" x2="494.5" y1="348.9004" y2="348.9004"/><text fill="#000000" font-family="sans-serif" font-size="13" font-weight="bold" lengthAdjust="spacing" textLength="7" x="80.5" y="343.6377">6</text><text fill="#000000" font-family="sans-serif" font-size="13" lengthAdjust="spacing" textLength="158" x="91.5" y="343.6377">displays operation success</text><!--SRC=[dL6nJiGm3Dtx5KytmS0Ft824XCI46Bgo-59V6rtgbDWzT7-Fcnu7GY0GMUB4zdlFptg8Cb6X4MEM78QIHuQLcHkzP2OA1-gvjLDY50v6qgVF1JfGbr-ZzDXJKcuQY-QbxKcDHxJyChC4ndsaVYc_QjlxQzpWBXaN8Oj7nfDu6ysMPHvtN3mEbWis3uLPqBe4VfP74jTHSFNGFbvlG0eF6jTWCSI9nB3PhgGrkOOLAXx9k5OtyEC1RcxV1Mwz-A2mxBV6Nc1COtrRJKJ_6HXtFKj7jV-2-4w1ypaZElP2iNLdygiYHJNaFUX8CT7EhVa66BbqNBZ3xkIEbmDI3kvD5ZmBIBgBIENaEq1snnRAZhzLytN4jKj1bHjxNtGbNxJzRQRVXrfj6yWGI31nsUUoigpiFjn2_a_PZdxsOLcIksTrHGD_WFvzXYxgbEYao2vpjLdd45Zr9tND6m00]--></g></svg>