<?xml version="1.0" encoding="us-ascii" standalone="no"?><svg xmlns="http://www.w3.org/2000/svg" xmlns:xlink="http://www.w3.org/1999/xlink" contentStyleType="text/css" height="844.8px" preserveAspectRatio="none" style="width:1204px;height:844px;background:#FFFFFF;" version="1.1" viewBox="0 0 1204 844" width="1204.8px" zoomAndPan="magnify"><defs/><g><rect fill="#FFFFFF" height="689.2219" style="stroke:#181818;stroke-width:0.8000000000000002;" width="8" x="14.8" y="74.8969"/><rect fill="#FFFFFF" height="225.2953" style="stroke:#181818;stroke-width:0.8000000000000002;" width="8" x="261.2" y="132.1313"/><rect fill="#FFFFFF" height="25.0328" style="stroke:#181818;stroke-width:0.8000000000000002;" width="8" x="261.2" y="382.4594"/><rect fill="#FFFFFF" height="331.5938" style="stroke:#181818;stroke-width:0.8000000000000002;" width="8" x="261.2" y="432.525"/><rect fill="#FFFFFF" height="175.2297" style="stroke:#181818;stroke-width:0.8000000000000002;" width="8" x="454" y="157.1641"/><rect fill="#FFFFFF" height="246.0953" style="stroke:#181818;stroke-width:0.8000000000000002;" width="8" x="454" y="492.9906"/><rect fill="#FFFFFF" height="25.0328" style="stroke:#181818;stroke-width:0.8000000000000002;" width="8" x="603.2" y="182.1969"/><rect fill="#FFFFFF" height="25.0328" style="stroke:#181818;stroke-width:0.8000000000000002;" width="8" x="688.8" y="232.2625"/><rect fill="#FFFFFF" height="145.9641" style="stroke:#181818;stroke-width:0.8000000000000002;" width="8" x="767.6" y="518.0234"/><rect fill="#FFFFFF" height="25.0328" style="stroke:#181818;stroke-width:0.8000000000000002;" width="8" x="854.4" y="282.3281"/><rect fill="#FFFFFF" height="25.0328" style="stroke:#181818;stroke-width:0.8000000000000002;" width="8" x="854.4" y="689.0203"/><rect fill="#FFFFFF" height="95.8984" style="stroke:#181818;stroke-width:0.8000000000000002;" width="8" x="1032.8" y="543.0563"/><line style="stroke:#181818;stroke-width:0.4000000000000001;stroke-dasharray:5.0,5.0;" x1="18.4" x2="18.4" y1="66.8969" y2="778.5188"/><line style="stroke:#181818;stroke-width:0.4000000000000001;stroke-dasharray:5.0,5.0;" x1="265.2" x2="265.2" y1="66.8969" y2="778.5188"/><line style="stroke:#181818;stroke-width:0.4000000000000001;stroke-dasharray:5.0,5.0;" x1="458" x2="458" y1="66.8969" y2="778.5188"/><line style="stroke:#181818;stroke-width:0.4000000000000001;stroke-dasharray:5.0,5.0;" x1="606.8" x2="606.8" y1="66.8969" y2="778.5188"/><line style="stroke:#181818;stroke-width:0.4000000000000001;stroke-dasharray:5.0,5.0;" x1="692.4" x2="692.4" y1="66.8969" y2="778.5188"/><line style="stroke:#181818;stroke-width:0.4000000000000001;stroke-dasharray:5.0,5.0;" x1="771.6" x2="771.6" y1="66.8969" y2="778.5188"/><line style="stroke:#181818;stroke-width:0.4000000000000001;stroke-dasharray:5.0,5.0;" x1="858" x2="858" y1="66.8969" y2="778.5188"/><line style="stroke:#181818;stroke-width:0.4000000000000001;stroke-dasharray:5.0,5.0;" x1="962" x2="962" y1="66.8969" y2="778.5188"/><line style="stroke:#181818;stroke-width:0.4000000000000001;stroke-dasharray:5.0,5.0;" x1="1036.4" x2="1036.4" y1="66.8969" y2="778.5188"/><text fill="#000000" font-family="sans-serif" font-size="11.2" lengthAdjust="spacing" textLength="24.8" x="4" y="64.0859">GSM</text><ellipse cx="18.8" cy="10.8" fill="#E3E3E3" rx="6.4" ry="6.4" style="stroke:#181818;stroke-width:0.4000000000000001;"/><path d="M18.8,17.2 L18.8,38.8 M8.4,23.6 L29.2,23.6 M18.8,38.8 L8.4,50.8 M18.8,38.8 L29.2,50.8 " fill="none" style="stroke:#181818;stroke-width:0.4000000000000001;"/><text fill="#000000" font-family="sans-serif" font-size="11.2" lengthAdjust="spacing" textLength="24.8" x="4" y="789.8047">GSM</text><ellipse cx="18.8" cy="799.4156" fill="#E3E3E3" rx="6.4" ry="6.4" style="stroke:#181818;stroke-width:0.4000000000000001;"/><path d="M18.8,805.8156 L18.8,827.4156 M8.4,812.2156 L29.2,812.2156 M18.8,827.4156 L8.4,839.4156 M18.8,827.4156 L29.2,839.4156 " fill="none" style="stroke:#181818;stroke-width:0.4000000000000001;"/><rect fill="#E3E3E3" height="26.0969" rx="2" ry="2" style="stroke:#181818;stroke-width:0.4000000000000001;" width="164.8" x="182.8" y="40"/><text fill="#000000" font-family="sans-serif" font-size="11.2" lengthAdjust="spacing" textLength="153.6" x="188.4" y="57.6859">:PostponeTaskInTheAgendaUI</text><rect fill="#E3E3E3" height="26.0969" rx="2" ry="2" style="stroke:#181818;stroke-width:0.4000000000000001;" width="164.8" x="182.8" y="777.7188"/><text fill="#000000" font-family="sans-serif" font-size="11.2" lengthAdjust="spacing" textLength="153.6" x="188.4" y="795.4047">:PostponeTaskInTheAgendaUI</text><rect fill="#E3E3E3" height="26.0969" rx="2" ry="2" style="stroke:#181818;stroke-width:0.4000000000000001;" width="204.8" x="355.6" y="40"/><text fill="#000000" font-family="sans-serif" font-size="11.2" lengthAdjust="spacing" textLength="193.6" x="361.2" y="57.6859">:PostponeTaskInTheAgendaController</text><rect fill="#E3E3E3" height="26.0969" rx="2" ry="2" style="stroke:#181818;stroke-width:0.4000000000000001;" width="204.8" x="355.6" y="777.7188"/><text fill="#000000" font-family="sans-serif" font-size="11.2" lengthAdjust="spacing" textLength="193.6" x="361.2" y="795.4047">:PostponeTaskInTheAgendaController</text><rect fill="#E3E3E3" height="26.0969" rx="2" ry="2" style="stroke:#181818;stroke-width:0.4000000000000001;" width="77.6" x="568.4" y="40"/><text fill="#000000" font-family="sans-serif" font-size="11.2" lengthAdjust="spacing" textLength="66.4" x="574" y="57.6859">:Repositories</text><rect fill="#E3E3E3" height="26.0969" rx="2" ry="2" style="stroke:#181818;stroke-width:0.4000000000000001;" width="77.6" x="568.4" y="777.7188"/><text fill="#000000" font-family="sans-serif" font-size="11.2" lengthAdjust="spacing" textLength="66.4" x="574" y="795.4047">:Repositories</text><rect fill="#E3E3E3" height="40.9938" rx="2" ry="2" style="stroke:#181818;stroke-width:0.4000000000000001;" width="77.6" x="654" y="25.1031"/><text fill="#000000" font-family="sans-serif" font-size="11.2" lengthAdjust="spacing" textLength="62.4" x="661.6" y="42.7891">:repositories</text><text fill="#000000" font-family="sans-serif" font-size="11.2" lengthAdjust="spacing" textLength="66.4" x="659.6" y="57.6859">:Repositories</text><rect fill="#E3E3E3" height="40.9938" rx="2" ry="2" style="stroke:#181818;stroke-width:0.4000000000000001;" width="77.6" x="654" y="777.7188"/><text fill="#000000" font-family="sans-serif" font-size="11.2" lengthAdjust="spacing" textLength="62.4" x="661.6" y="795.4047">:repositories</text><text fill="#000000" font-family="sans-serif" font-size="11.2" lengthAdjust="spacing" textLength="66.4" x="659.6" y="810.3016">:Repositories</text><rect fill="#E3E3E3" height="26.0969" rx="2" ry="2" style="stroke:#181818;stroke-width:0.4000000000000001;" width="64" x="739.6" y="40"/><text fill="#000000" font-family="sans-serif" font-size="11.2" lengthAdjust="spacing" textLength="52.8" x="745.2" y="57.6859">:Employee</text><rect fill="#E3E3E3" height="26.0969" rx="2" ry="2" style="stroke:#181818;stroke-width:0.4000000000000001;" width="64" x="739.6" y="777.7188"/><text fill="#000000" font-family="sans-serif" font-size="11.2" lengthAdjust="spacing" textLength="52.8" x="745.2" y="795.4047">:Employee</text><rect fill="#E3E3E3" height="26.0969" rx="2" ry="2" style="stroke:#181818;stroke-width:0.4000000000000001;" width="93.6" x="811.6" y="40"/><text fill="#000000" font-family="sans-serif" font-size="11.2" lengthAdjust="spacing" textLength="82.4" x="817.2" y="57.6859">:TaskRepository</text><rect fill="#E3E3E3" height="26.0969" rx="2" ry="2" style="stroke:#181818;stroke-width:0.4000000000000001;" width="93.6" x="811.6" y="777.7188"/><text fill="#000000" font-family="sans-serif" font-size="11.2" lengthAdjust="spacing" textLength="82.4" x="817.2" y="795.4047">:TaskRepository</text><rect fill="#E3E3E3" height="26.0969" rx="2" ry="2" style="stroke:#181818;stroke-width:0.4000000000000001;" width="97.6" x="913.2" y="40"/><text fill="#000000" font-family="sans-serif" font-size="11.2" lengthAdjust="spacing" textLength="86.4" x="918.8" y="57.6859">:TeamRepository</text><rect fill="#E3E3E3" height="26.0969" rx="2" ry="2" style="stroke:#181818;stroke-width:0.4000000000000001;" width="97.6" x="913.2" y="777.7188"/><text fill="#000000" font-family="sans-serif" font-size="11.2" lengthAdjust="spacing" textLength="86.4" x="918.8" y="795.4047">:TeamRepository</text><rect fill="#E3E3E3" height="26.0969" rx="2" ry="2" style="stroke:#181818;stroke-width:0.4000000000000001;" width="36" x="1018.8" y="40"/><text fill="#000000" font-family="sans-serif" font-size="11.2" lengthAdjust="spacing" textLength="24.8" x="1024.4" y="57.6859">Task</text><rect fill="#E3E3E3" height="26.0969" rx="2" ry="2" style="stroke:#181818;stroke-width:0.4000000000000001;" width="36" x="1018.8" y="777.7188"/><text fill="#000000" font-family="sans-serif" font-size="11.2" lengthAdjust="spacing" textLength="24.8" x="1024.4" y="795.4047">Task</text><rect fill="#FFFFFF" height="689.2219" style="stroke:#181818;stroke-width:0.8000000000000002;" width="8" x="14.8" y="74.8969"/><rect fill="#FFFFFF" height="225.2953" style="stroke:#181818;stroke-width:0.8000000000000002;" width="8" x="261.2" y="132.1313"/><rect fill="#FFFFFF" height="25.0328" style="stroke:#181818;stroke-width:0.8000000000000002;" width="8" x="261.2" y="382.4594"/><rect fill="#FFFFFF" height="331.5938" style="stroke:#181818;stroke-width:0.8000000000000002;" width="8" x="261.2" y="432.525"/><rect fill="#FFFFFF" height="175.2297" style="stroke:#181818;stroke-width:0.8000000000000002;" width="8" x="454" y="157.1641"/><rect fill="#FFFFFF" height="246.0953" style="stroke:#181818;stroke-width:0.8000000000000002;" width="8" x="454" y="492.9906"/><rect fill="#FFFFFF" height="25.0328" style="stroke:#181818;stroke-width:0.8000000000000002;" width="8" x="603.2" y="182.1969"/><rect fill="#FFFFFF" height="25.0328" style="stroke:#181818;stroke-width:0.8000000000000002;" width="8" x="688.8" y="232.2625"/><rect fill="#FFFFFF" height="145.9641" style="stroke:#181818;stroke-width:0.8000000000000002;" width="8" x="767.6" y="518.0234"/><rect fill="#FFFFFF" height="25.0328" style="stroke:#181818;stroke-width:0.8000000000000002;" width="8" x="854.4" y="282.3281"/><rect fill="#FFFFFF" height="25.0328" style="stroke:#181818;stroke-width:0.8000000000000002;" width="8" x="854.4" y="689.0203"/><rect fill="#FFFFFF" height="95.8984" style="stroke:#181818;stroke-width:0.8000000000000002;" width="8" x="1032.8" y="543.0563"/><rect fill="none" height="34.6016" style="stroke:#000000;stroke-width:1.2000000000000002;" width="348.4" x="1.6" y="74.8969"/><path d="M1.6,74.8969 L51.2,74.8969 L51.2,82.0969 L43.2,90.0969 L1.6,90.0969 L1.6,74.8969 " fill="#EEEEEE" style="stroke:#000000;stroke-width:1.6000000000000003;"/><text fill="#000000" font-family="sans-serif" font-size="10.4" font-weight="bold" lengthAdjust="spacing" textLength="13.6" x="12" y="87.7195">ref</text><text fill="#000000" font-family="sans-serif" font-size="9.6" lengthAdjust="spacing" textLength="246.4" x="52.6" y="103.6563">This action assumes that the user has already logged in</text><polygon fill="#181818" points="251.6,128.9313,259.6,132.1313,251.6,135.3313,254.8,132.1313" style="stroke:#181818;stroke-width:0.8000000000000002;"/><line style="stroke:#181818;stroke-width:0.8000000000000002;" x1="22.8" x2="256.4" y1="132.1313" y2="132.1313"/><text fill="#000000" font-family="sans-serif" font-size="10.4" font-weight="bold" lengthAdjust="spacing" textLength="5.6" x="28.4" y="127.9211">1</text><text fill="#000000" font-family="sans-serif" font-size="10.4" lengthAdjust="spacing" textLength="177.6" x="37.2" y="127.9211">asks to postpone a task in the agenda</text><polygon fill="#181818" points="444.4,153.9641,452.4,157.1641,444.4,160.3641,447.6,157.1641" style="stroke:#181818;stroke-width:0.8000000000000002;"/><line style="stroke:#181818;stroke-width:0.8000000000000002;" x1="269.2" x2="449.2" y1="157.1641" y2="157.1641"/><text fill="#000000" font-family="sans-serif" font-size="10.4" font-weight="bold" lengthAdjust="spacing" textLength="5.6" x="274.8" y="152.9539">2</text><text fill="#000000" font-family="sans-serif" font-size="10.4" lengthAdjust="spacing" textLength="63.2" x="283.6" y="152.9539">requestTask()</text><polygon fill="#181818" points="593.6,178.9969,601.6,182.1969,593.6,185.3969,596.8,182.1969" style="stroke:#181818;stroke-width:0.8000000000000002;"/><line style="stroke:#181818;stroke-width:0.8000000000000002;" x1="462" x2="598.4" y1="182.1969" y2="182.1969"/><text fill="#000000" font-family="sans-serif" font-size="10.4" font-weight="bold" lengthAdjust="spacing" textLength="5.6" x="467.6" y="177.9867">3</text><text fill="#000000" font-family="sans-serif" font-size="10.4" lengthAdjust="spacing" textLength="60" x="476.4" y="177.9867">getInstance()</text><polygon fill="#181818" points="470.8,204.0297,462.8,207.2297,470.8,210.4297,467.6,207.2297" style="stroke:#181818;stroke-width:0.8000000000000002;"/><line style="stroke:#181818;stroke-width:0.8000000000000002;stroke-dasharray:2.0,2.0;" x1="466" x2="606.4" y1="207.2297" y2="207.2297"/><text fill="#000000" font-family="sans-serif" font-size="10.4" font-weight="bold" lengthAdjust="spacing" textLength="5.6" x="475.6" y="203.0195">4</text><text fill="#000000" font-family="sans-serif" font-size="10.4" lengthAdjust="spacing" textLength="53.6" x="484.4" y="203.0195">repositories</text><polygon fill="#181818" points="679.2,229.0625,687.2,232.2625,679.2,235.4625,682.4,232.2625" style="stroke:#181818;stroke-width:0.8000000000000002;"/><line style="stroke:#181818;stroke-width:0.8000000000000002;" x1="462" x2="684" y1="232.2625" y2="232.2625"/><text fill="#000000" font-family="sans-serif" font-size="10.4" font-weight="bold" lengthAdjust="spacing" textLength="5.6" x="467.6" y="228.0523">5</text><text fill="#000000" font-family="sans-serif" font-size="10.4" lengthAdjust="spacing" textLength="92.8" x="476.4" y="228.0523">getTaskRepository()</text><polygon fill="#181818" points="470.8,254.0953,462.8,257.2953,470.8,260.4953,467.6,257.2953" style="stroke:#181818;stroke-width:0.8000000000000002;"/><line style="stroke:#181818;stroke-width:0.8000000000000002;stroke-dasharray:2.0,2.0;" x1="466" x2="692" y1="257.2953" y2="257.2953"/><text fill="#000000" font-family="sans-serif" font-size="10.4" font-weight="bold" lengthAdjust="spacing" textLength="5.6" x="475.6" y="253.0852">6</text><text fill="#000000" font-family="sans-serif" font-size="10.4" lengthAdjust="spacing" textLength="72" x="484.4" y="253.0852">TaskRepository</text><polygon fill="#181818" points="844.8,279.1281,852.8,282.3281,844.8,285.5281,848,282.3281" style="stroke:#181818;stroke-width:0.8000000000000002;"/><line style="stroke:#181818;stroke-width:0.8000000000000002;" x1="462" x2="849.6" y1="282.3281" y2="282.3281"/><text fill="#000000" font-family="sans-serif" font-size="10.4" font-weight="bold" lengthAdjust="spacing" textLength="5.6" x="467.6" y="278.118">7</text><text fill="#000000" font-family="sans-serif" font-size="10.4" lengthAdjust="spacing" textLength="85.6" x="476.4" y="278.118">listPlannedTasks()</text><polygon fill="#181818" points="470.8,304.1609,462.8,307.3609,470.8,310.5609,467.6,307.3609" style="stroke:#181818;stroke-width:0.8000000000000002;"/><line style="stroke:#181818;stroke-width:0.8000000000000002;stroke-dasharray:2.0,2.0;" x1="466" x2="857.6" y1="307.3609" y2="307.3609"/><text fill="#000000" font-family="sans-serif" font-size="10.4" font-weight="bold" lengthAdjust="spacing" textLength="5.6" x="475.6" y="303.1508">8</text><text fill="#000000" font-family="sans-serif" font-size="10.4" lengthAdjust="spacing" textLength="92.8" x="484.4" y="303.1508">list of planned tasks</text><polygon fill="#181818" points="278,329.1938,270,332.3938,278,335.5938,274.8,332.3938" style="stroke:#181818;stroke-width:0.8000000000000002;"/><line style="stroke:#181818;stroke-width:0.8000000000000002;stroke-dasharray:2.0,2.0;" x1="273.2" x2="457.2" y1="332.3938" y2="332.3938"/><text fill="#000000" font-family="sans-serif" font-size="10.4" font-weight="bold" lengthAdjust="spacing" textLength="5.6" x="282.8" y="328.1836">9</text><text fill="#000000" font-family="sans-serif" font-size="10.4" lengthAdjust="spacing" textLength="92.8" x="291.6" y="328.1836">list of planned tasks</text><polygon fill="#181818" points="31.6,354.2266,23.6,357.4266,31.6,360.6266,28.4,357.4266" style="stroke:#181818;stroke-width:0.8000000000000002;"/><line style="stroke:#181818;stroke-width:0.8000000000000002;stroke-dasharray:2.0,2.0;" x1="26.8" x2="264.4" y1="357.4266" y2="357.4266"/><text fill="#000000" font-family="sans-serif" font-size="10.4" font-weight="bold" lengthAdjust="spacing" textLength="11.2" x="36.4" y="353.2164">10</text><text fill="#000000" font-family="sans-serif" font-size="10.4" lengthAdjust="spacing" textLength="196" x="50.8" y="353.2164">lists planned tasks and asks to select one</text><polygon fill="#181818" points="251.6,379.2594,259.6,382.4594,251.6,385.6594,254.8,382.4594" style="stroke:#181818;stroke-width:0.8000000000000002;"/><line style="stroke:#181818;stroke-width:0.8000000000000002;" x1="22.8" x2="256.4" y1="382.4594" y2="382.4594"/><text fill="#000000" font-family="sans-serif" font-size="10.4" font-weight="bold" lengthAdjust="spacing" textLength="11.2" x="28.4" y="378.2492">11</text><text fill="#000000" font-family="sans-serif" font-size="10.4" lengthAdjust="spacing" textLength="123.2" x="42.8" y="378.2492">selects a task from the list</text><polygon fill="#181818" points="31.6,404.2922,23.6,407.4922,31.6,410.6922,28.4,407.4922" style="stroke:#181818;stroke-width:0.8000000000000002;"/><line style="stroke:#181818;stroke-width:0.8000000000000002;stroke-dasharray:2.0,2.0;" x1="26.8" x2="264.4" y1="407.4922" y2="407.4922"/><text fill="#000000" font-family="sans-serif" font-size="10.4" font-weight="bold" lengthAdjust="spacing" textLength="11.2" x="36.4" y="403.282">12</text><text fill="#000000" font-family="sans-serif" font-size="10.4" lengthAdjust="spacing" textLength="99.2" x="50.8" y="403.282">asks for the new date</text><polygon fill="#181818" points="251.6,429.325,259.6,432.525,251.6,435.725,254.8,432.525" style="stroke:#181818;stroke-width:0.8000000000000002;"/><line style="stroke:#181818;stroke-width:0.8000000000000002;" x1="22.8" x2="256.4" y1="432.525" y2="432.525"/><text fill="#000000" font-family="sans-serif" font-size="10.4" font-weight="bold" lengthAdjust="spacing" textLength="11.2" x="28.4" y="428.3148">13</text><text fill="#000000" font-family="sans-serif" font-size="10.4" lengthAdjust="spacing" textLength="208.8" x="42.8" y="428.3148">types the new date and startHour for the task</text><line style="stroke:#181818;stroke-width:0.8000000000000002;" x1="269.2" x2="302.8" y1="457.5578" y2="457.5578"/><line style="stroke:#181818;stroke-width:0.8000000000000002;" x1="302.8" x2="302.8" y1="457.5578" y2="467.9578"/><line style="stroke:#181818;stroke-width:0.8000000000000002;" x1="270" x2="302.8" y1="467.9578" y2="467.9578"/><polygon fill="#181818" points="278,464.7578,270,467.9578,278,471.1578,274.8,467.9578" style="stroke:#181818;stroke-width:0.8000000000000002;"/><text fill="#000000" font-family="sans-serif" font-size="10.4" font-weight="bold" lengthAdjust="spacing" textLength="11.2" x="274.8" y="453.3477">14</text><text fill="#000000" font-family="sans-serif" font-size="10.4" lengthAdjust="spacing" textLength="102.4" x="289.2" y="453.3477">validates the new date</text><polygon fill="#181818" points="444.4,489.7906,452.4,492.9906,444.4,496.1906,447.6,492.9906" style="stroke:#181818;stroke-width:0.8000000000000002;"/><line style="stroke:#181818;stroke-width:0.8000000000000002;" x1="269.2" x2="449.2" y1="492.9906" y2="492.9906"/><text fill="#000000" font-family="sans-serif" font-size="10.4" font-weight="bold" lengthAdjust="spacing" textLength="11.2" x="274.8" y="488.7805">15</text><text fill="#000000" font-family="sans-serif" font-size="10.4" lengthAdjust="spacing" textLength="128.8" x="289.2" y="488.7805">submitData (task, newDate)</text><polygon fill="#181818" points="758,514.8234,766,518.0234,758,521.2234,761.2,518.0234" style="stroke:#181818;stroke-width:0.8000000000000002;"/><line style="stroke:#181818;stroke-width:0.8000000000000002;" x1="462" x2="762.8" y1="518.0234" y2="518.0234"/><text fill="#000000" font-family="sans-serif" font-size="10.4" font-weight="bold" lengthAdjust="spacing" textLength="11.2" x="467.6" y="513.8133">16</text><text fill="#000000" font-family="sans-serif" font-size="10.4" lengthAdjust="spacing" textLength="137.6" x="482" y="513.8133">postponeTask(task, newDate)</text><polygon fill="#181818" points="1023.2,539.8563,1031.2,543.0563,1023.2,546.2563,1026.4,543.0563" style="stroke:#181818;stroke-width:0.8000000000000002;"/><line style="stroke:#181818;stroke-width:0.8000000000000002;" x1="775.6" x2="1028" y1="543.0563" y2="543.0563"/><text fill="#000000" font-family="sans-serif" font-size="10.4" font-weight="bold" lengthAdjust="spacing" textLength="11.2" x="781.2" y="538.8461">17</text><text fill="#000000" font-family="sans-serif" font-size="10.4" lengthAdjust="spacing" textLength="143.2" x="795.6" y="538.8461">postponedTask(task, newDate)</text><line style="stroke:#181818;stroke-width:0.8000000000000002;" x1="1040.8" x2="1074.4" y1="568.0891" y2="568.0891"/><line style="stroke:#181818;stroke-width:0.8000000000000002;" x1="1074.4" x2="1074.4" y1="568.0891" y2="578.4891"/><line style="stroke:#181818;stroke-width:0.8000000000000002;" x1="1041.6" x2="1074.4" y1="578.4891" y2="578.4891"/><polygon fill="#181818" points="1049.6,575.2891,1041.6,578.4891,1049.6,581.6891,1046.4,578.4891" style="stroke:#181818;stroke-width:0.8000000000000002;"/><text fill="#000000" font-family="sans-serif" font-size="10.4" font-weight="bold" lengthAdjust="spacing" textLength="11.2" x="1046.4" y="563.8789">18</text><text fill="#000000" font-family="sans-serif" font-size="10.4" lengthAdjust="spacing" textLength="91.2" x="1060.8" y="563.8789">clearAssignedTeam</text><line style="stroke:#181818;stroke-width:0.8000000000000002;" x1="1040.8" x2="1074.4" y1="603.5219" y2="603.5219"/><line style="stroke:#181818;stroke-width:0.8000000000000002;" x1="1074.4" x2="1074.4" y1="603.5219" y2="613.9219"/><line style="stroke:#181818;stroke-width:0.8000000000000002;" x1="1041.6" x2="1074.4" y1="613.9219" y2="613.9219"/><polygon fill="#181818" points="1049.6,610.7219,1041.6,613.9219,1049.6,617.1219,1046.4,613.9219" style="stroke:#181818;stroke-width:0.8000000000000002;"/><text fill="#000000" font-family="sans-serif" font-size="10.4" font-weight="bold" lengthAdjust="spacing" textLength="11.2" x="1046.4" y="599.3117">19</text><text fill="#000000" font-family="sans-serif" font-size="10.4" lengthAdjust="spacing" textLength="138.4" x="1060.8" y="599.3117">setTaskStatus(POSTPONED)</text><polygon fill="#181818" points="784.4,635.7547,776.4,638.9547,784.4,642.1547,781.2,638.9547" style="stroke:#181818;stroke-width:0.8000000000000002;"/><line style="stroke:#181818;stroke-width:0.8000000000000002;stroke-dasharray:2.0,2.0;" x1="779.6" x2="1036" y1="638.9547" y2="638.9547"/><text fill="#000000" font-family="sans-serif" font-size="10.4" font-weight="bold" lengthAdjust="spacing" textLength="11.2" x="789.2" y="634.7445">20</text><text fill="#000000" font-family="sans-serif" font-size="10.4" lengthAdjust="spacing" textLength="84.8" x="803.6" y="634.7445">postpone success</text><polygon fill="#181818" points="470.8,660.7875,462.8,663.9875,470.8,667.1875,467.6,663.9875" style="stroke:#181818;stroke-width:0.8000000000000002;"/><line style="stroke:#181818;stroke-width:0.8000000000000002;stroke-dasharray:2.0,2.0;" x1="466" x2="770.8" y1="663.9875" y2="663.9875"/><text fill="#000000" font-family="sans-serif" font-size="10.4" font-weight="bold" lengthAdjust="spacing" textLength="11.2" x="475.6" y="659.7773">21</text><text fill="#000000" font-family="sans-serif" font-size="10.4" lengthAdjust="spacing" textLength="84.8" x="490" y="659.7773">postpone success</text><polygon fill="#181818" points="844.8,685.8203,852.8,689.0203,844.8,692.2203,848,689.0203" style="stroke:#181818;stroke-width:0.8000000000000002;"/><line style="stroke:#181818;stroke-width:0.8000000000000002;" x1="462" x2="849.6" y1="689.0203" y2="689.0203"/><text fill="#000000" font-family="sans-serif" font-size="10.4" font-weight="bold" lengthAdjust="spacing" textLength="11.2" x="467.6" y="684.8102">22</text><text fill="#000000" font-family="sans-serif" font-size="10.4" lengthAdjust="spacing" textLength="80" x="482" y="684.8102">updateTask(task)</text><polygon fill="#181818" points="470.8,710.8531,462.8,714.0531,470.8,717.2531,467.6,714.0531" style="stroke:#181818;stroke-width:0.8000000000000002;"/><line style="stroke:#181818;stroke-width:0.8000000000000002;stroke-dasharray:2.0,2.0;" x1="466" x2="857.6" y1="714.0531" y2="714.0531"/><text fill="#000000" font-family="sans-serif" font-size="10.4" font-weight="bold" lengthAdjust="spacing" textLength="11.2" x="475.6" y="709.843">23</text><text fill="#000000" font-family="sans-serif" font-size="10.4" lengthAdjust="spacing" textLength="73.6" x="490" y="709.843">update success</text><polygon fill="#181818" points="278,735.8859,270,739.0859,278,742.2859,274.8,739.0859" style="stroke:#181818;stroke-width:0.8000000000000002;"/><line style="stroke:#181818;stroke-width:0.8000000000000002;" x1="273.2" x2="457.2" y1="739.0859" y2="739.0859"/><text fill="#000000" font-family="sans-serif" font-size="10.4" font-weight="bold" lengthAdjust="spacing" textLength="11.2" x="282.8" y="734.8758">24</text><text fill="#000000" font-family="sans-serif" font-size="10.4" lengthAdjust="spacing" textLength="84.8" x="297.2" y="734.8758">postpone success</text><polygon fill="#181818" points="27.6,760.9188,19.6,764.1188,27.6,767.3188,24.4,764.1188" style="stroke:#181818;stroke-width:0.8000000000000002;"/><line style="stroke:#181818;stroke-width:0.8000000000000002;" x1="22.8" x2="264.4" y1="764.1188" y2="764.1188"/><text fill="#000000" font-family="sans-serif" font-size="10.4" font-weight="bold" lengthAdjust="spacing" textLength="11.2" x="32.4" y="759.9086">25</text><text fill="#000000" font-family="sans-serif" font-size="10.4" lengthAdjust="spacing" textLength="84.8" x="46.8" y="759.9086">postpone success</text><!--SRC=[lLRBRjim4BppAnQ-D06I7_2XGD04ZGzjZDgvzS98Quc8HAfSAgd_laj9bad5UkHI7Go8cftPDqslIbVIoX9AeqsIMrCYE5kZeFvB9PDNcU7E7Gi4YucJEYj20EKoDUzAPt2G1Q4GidP6r-KBMY6-v2f5E1ZZNinV8HDdBAo-xtwi11ixbQXAQWUhzTQGgup6lQJNZTxdU9UXJkNpPWMIu7cp3FxDQ6TDKQ1jpCwl0_DVM1bIx8j2Qf3XmG1hWq-_TMmwW3wKLM6EY0tbwMM0yHxt7CS66HyDyIZB8Juw4Zwhwaqw1Cwhi7W0yuRMlznmuc0D-rmHU93HR4vrYGGkbuv_46fYRCwiih0eqoCK9iim1QM5O0gu_TgIi8ziPQ3gCWyI79ynhg6HJVu5yDExmrM3xc4A9bg5zLbpC_sfaPmF_-gwXqOKeKM4YAWyTLINDMJeDfguLnCSS5_MYSiwXezXS3k8oOSKzD4OIufZkjCXJhOYD377hRGeyka67yt4j3Et7wizwF8boLdksbdAPogMOkr2aTiMKcjC_JTQafY5_WwqVE21Cwqqc0DKhNmpD8jQOq8_ZFOqd_Cw0NUm68C1PIe_yIqNnKmWTThl0CA2xm7WBI0-SlFKztjZtK7fj2qEVCCq-y9BY67ApmiZSgUHFV35uGqrlaFAu5bbTwoQFNSsQMBWdM3Tewbjp-WTct6bo_6RB9GdeekUjC2e-5I_bChTIoVXoilSU2D-nP5rzx4k5xhxTB4mVnLSWrC25yNw2seCsGjr8tNMIpyZU76oPj4UT1BcI9C2fRqZKfbNvmlmimJKBiUTawwcg-tJRhzz-lbmVxsGvtBUkS19WaIp98EvNf3oOIijbWoaBbPuPbNMbU_flhx_Rr6smfy9R-66x8PtCe6pk_6qYyPOuZNKFS6X_sls3m00]--></g></svg>