<?xml version="1.0" encoding="us-ascii" standalone="no"?><svg xmlns="http://www.w3.org/2000/svg" xmlns:xlink="http://www.w3.org/1999/xlink" contentStyleType="text/css" height="1082px" preserveAspectRatio="none" style="width:1400px;height:1082px;background:#FFFFFF;" version="1.1" viewBox="0 0 1400 1082" width="1400px" zoomAndPan="magnify"><defs/><g><rect fill="#FFFFFF" height="887.5273" style="stroke:#181818;stroke-width:1.0;" width="10" x="18.5" y="93.6211"/><rect fill="#FFFFFF" height="281.6191" style="stroke:#181818;stroke-width:1.0;" width="10" x="326.5" y="165.1641"/><rect fill="#FFFFFF" height="31.291" style="stroke:#181818;stroke-width:1.0;" width="10" x="326.5" y="478.0742"/><rect fill="#FFFFFF" height="440.4922" style="stroke:#181818;stroke-width:1.0;" width="10" x="326.5" y="540.6563"/><rect fill="#FFFFFF" height="219.0371" style="stroke:#181818;stroke-width:1.0;" width="10" x="567.5" y="196.4551"/><rect fill="#FFFFFF" height="333.6191" style="stroke:#181818;stroke-width:1.0;" width="10" x="567.5" y="616.2383"/><rect fill="#FFFFFF" height="31.291" style="stroke:#181818;stroke-width:1.0;" width="10" x="754" y="227.7461"/><rect fill="#FFFFFF" height="31.291" style="stroke:#181818;stroke-width:1.0;" width="10" x="861" y="290.3281"/><rect fill="#FFFFFF" height="271.0371" style="stroke:#181818;stroke-width:1.0;" width="10" x="959.5" y="647.5293"/><rect fill="#FFFFFF" height="31.291" style="stroke:#181818;stroke-width:1.0;" width="10" x="1068" y="352.9102"/><rect fill="#FFFFFF" height="208.4551" style="stroke:#181818;stroke-width:1.0;" width="10" x="1185.5" y="678.8203"/><line style="stroke:#181818;stroke-width:0.5;stroke-dasharray:5.0,5.0;" x1="23" x2="23" y1="83.6211" y2="999.1484"/><line style="stroke:#181818;stroke-width:0.5;stroke-dasharray:5.0,5.0;" x1="331.5" x2="331.5" y1="83.6211" y2="999.1484"/><line style="stroke:#181818;stroke-width:0.5;stroke-dasharray:5.0,5.0;" x1="572.5" x2="572.5" y1="83.6211" y2="999.1484"/><line style="stroke:#181818;stroke-width:0.5;stroke-dasharray:5.0,5.0;" x1="758.5" x2="758.5" y1="83.6211" y2="999.1484"/><line style="stroke:#181818;stroke-width:0.5;stroke-dasharray:5.0,5.0;" x1="865.5" x2="865.5" y1="83.6211" y2="999.1484"/><line style="stroke:#181818;stroke-width:0.5;stroke-dasharray:5.0,5.0;" x1="964.5" x2="964.5" y1="83.6211" y2="999.1484"/><line style="stroke:#181818;stroke-width:0.5;stroke-dasharray:5.0,5.0;" x1="1072.5" x2="1072.5" y1="83.6211" y2="999.1484"/><line style="stroke:#181818;stroke-width:0.5;stroke-dasharray:5.0,5.0;" x1="1190" x2="1190" y1="83.6211" y2="999.1484"/><text fill="#000000" font-family="sans-serif" font-size="14" lengthAdjust="spacing" textLength="31" x="5" y="80.1074">GSM</text><ellipse cx="23.5" cy="13.5" fill="#E3E3E3" rx="8" ry="8" style="stroke:#181818;stroke-width:0.5;"/><path d="M23.5,21.5 L23.5,48.5 M10.5,29.5 L36.5,29.5 M23.5,48.5 L10.5,63.5 M23.5,48.5 L36.5,63.5 " fill="none" style="stroke:#181818;stroke-width:0.5;"/><text fill="#000000" font-family="sans-serif" font-size="14" lengthAdjust="spacing" textLength="31" x="5" y="1013.2559">GSM</text><ellipse cx="23.5" cy="1025.2695" fill="#E3E3E3" rx="8" ry="8" style="stroke:#181818;stroke-width:0.5;"/><path d="M23.5,1033.2695 L23.5,1060.2695 M10.5,1041.2695 L36.5,1041.2695 M23.5,1060.2695 L10.5,1075.2695 M23.5,1060.2695 L36.5,1075.2695 " fill="none" style="stroke:#181818;stroke-width:0.5;"/><rect fill="#E3E3E3" height="32.6211" rx="2.5" ry="2.5" style="stroke:#181818;stroke-width:0.5;" width="206" x="228.5" y="50"/><text fill="#000000" font-family="sans-serif" font-size="14" lengthAdjust="spacing" textLength="192" x="235.5" y="72.1074">:PostponeTaskInTheAgendaUI</text><rect fill="#E3E3E3" height="32.6211" rx="2.5" ry="2.5" style="stroke:#181818;stroke-width:0.5;" width="206" x="228.5" y="998.1484"/><text fill="#000000" font-family="sans-serif" font-size="14" lengthAdjust="spacing" textLength="192" x="235.5" y="1020.2559">:PostponeTaskInTheAgendaUI</text><rect fill="#E3E3E3" height="32.6211" rx="2.5" ry="2.5" style="stroke:#181818;stroke-width:0.5;" width="256" x="444.5" y="50"/><text fill="#000000" font-family="sans-serif" font-size="14" lengthAdjust="spacing" textLength="242" x="451.5" y="72.1074">:PostponeTaskInTheAgendaController</text><rect fill="#E3E3E3" height="32.6211" rx="2.5" ry="2.5" style="stroke:#181818;stroke-width:0.5;" width="256" x="444.5" y="998.1484"/><text fill="#000000" font-family="sans-serif" font-size="14" lengthAdjust="spacing" textLength="242" x="451.5" y="1020.2559">:PostponeTaskInTheAgendaController</text><rect fill="#E3E3E3" height="32.6211" rx="2.5" ry="2.5" style="stroke:#181818;stroke-width:0.5;" width="97" x="710.5" y="50"/><text fill="#000000" font-family="sans-serif" font-size="14" lengthAdjust="spacing" textLength="83" x="717.5" y="72.1074">:Repositories</text><rect fill="#E3E3E3" height="32.6211" rx="2.5" ry="2.5" style="stroke:#181818;stroke-width:0.5;" width="97" x="710.5" y="998.1484"/><text fill="#000000" font-family="sans-serif" font-size="14" lengthAdjust="spacing" textLength="83" x="717.5" y="1020.2559">:Repositories</text><rect fill="#E3E3E3" height="51.2422" rx="2.5" ry="2.5" style="stroke:#181818;stroke-width:0.5;" width="97" x="817.5" y="31.3789"/><text fill="#000000" font-family="sans-serif" font-size="14" lengthAdjust="spacing" textLength="78" x="827" y="53.4863">:repositories</text><text fill="#000000" font-family="sans-serif" font-size="14" lengthAdjust="spacing" textLength="83" x="824.5" y="72.1074">:Repositories</text><rect fill="#E3E3E3" height="51.2422" rx="2.5" ry="2.5" style="stroke:#181818;stroke-width:0.5;" width="97" x="817.5" y="998.1484"/><text fill="#000000" font-family="sans-serif" font-size="14" lengthAdjust="spacing" textLength="78" x="827" y="1020.2559">:repositories</text><text fill="#000000" font-family="sans-serif" font-size="14" lengthAdjust="spacing" textLength="83" x="824.5" y="1038.877">:Repositories</text><rect fill="#E3E3E3" height="32.6211" rx="2.5" ry="2.5" style="stroke:#181818;stroke-width:0.5;" width="80" x="924.5" y="50"/><text fill="#000000" font-family="sans-serif" font-size="14" lengthAdjust="spacing" textLength="66" x="931.5" y="72.1074">:Employee</text><rect fill="#E3E3E3" height="32.6211" rx="2.5" ry="2.5" style="stroke:#181818;stroke-width:0.5;" width="80" x="924.5" y="998.1484"/><text fill="#000000" font-family="sans-serif" font-size="14" lengthAdjust="spacing" textLength="66" x="931.5" y="1020.2559">:Employee</text><rect fill="#E3E3E3" height="32.6211" rx="2.5" ry="2.5" style="stroke:#181818;stroke-width:0.5;" width="117" x="1014.5" y="50"/><text fill="#000000" font-family="sans-serif" font-size="14" lengthAdjust="spacing" textLength="103" x="1021.5" y="72.1074">:TaskRepository</text><rect fill="#E3E3E3" height="32.6211" rx="2.5" ry="2.5" style="stroke:#181818;stroke-width:0.5;" width="117" x="1014.5" y="998.1484"/><text fill="#000000" font-family="sans-serif" font-size="14" lengthAdjust="spacing" textLength="103" x="1021.5" y="1020.2559">:TaskRepository</text><rect fill="#E3E3E3" height="32.6211" rx="2.5" ry="2.5" style="stroke:#181818;stroke-width:0.5;" width="45" x="1168" y="50"/><text fill="#000000" font-family="sans-serif" font-size="14" lengthAdjust="spacing" textLength="31" x="1175" y="72.1074">Task</text><rect fill="#E3E3E3" height="32.6211" rx="2.5" ry="2.5" style="stroke:#181818;stroke-width:0.5;" width="45" x="1168" y="998.1484"/><text fill="#000000" font-family="sans-serif" font-size="14" lengthAdjust="spacing" textLength="31" x="1175" y="1020.2559">Task</text><rect fill="#FFFFFF" height="887.5273" style="stroke:#181818;stroke-width:1.0;" width="10" x="18.5" y="93.6211"/><rect fill="#FFFFFF" height="281.6191" style="stroke:#181818;stroke-width:1.0;" width="10" x="326.5" y="165.1641"/><rect fill="#FFFFFF" height="31.291" style="stroke:#181818;stroke-width:1.0;" width="10" x="326.5" y="478.0742"/><rect fill="#FFFFFF" height="440.4922" style="stroke:#181818;stroke-width:1.0;" width="10" x="326.5" y="540.6563"/><rect fill="#FFFFFF" height="219.0371" style="stroke:#181818;stroke-width:1.0;" width="10" x="567.5" y="196.4551"/><rect fill="#FFFFFF" height="333.6191" style="stroke:#181818;stroke-width:1.0;" width="10" x="567.5" y="616.2383"/><rect fill="#FFFFFF" height="31.291" style="stroke:#181818;stroke-width:1.0;" width="10" x="754" y="227.7461"/><rect fill="#FFFFFF" height="31.291" style="stroke:#181818;stroke-width:1.0;" width="10" x="861" y="290.3281"/><rect fill="#FFFFFF" height="271.0371" style="stroke:#181818;stroke-width:1.0;" width="10" x="959.5" y="647.5293"/><rect fill="#FFFFFF" height="31.291" style="stroke:#181818;stroke-width:1.0;" width="10" x="1068" y="352.9102"/><rect fill="#FFFFFF" height="208.4551" style="stroke:#181818;stroke-width:1.0;" width="10" x="1185.5" y="678.8203"/><rect fill="none" height="43.252" style="stroke:#000000;stroke-width:1.5;" width="435.5" x="2" y="93.6211"/><path d="M2,93.6211 L64,93.6211 L64,102.6211 L54,112.6211 L2,112.6211 L2,93.6211 " fill="#EEEEEE" style="stroke:#000000;stroke-width:2.0;"/><text fill="#000000" font-family="sans-serif" font-size="13" font-weight="bold" lengthAdjust="spacing" textLength="17" x="15" y="109.6494">ref</text><text fill="#000000" font-family="sans-serif" font-size="12" lengthAdjust="spacing" textLength="308" x="65.75" y="129.5703">This action assumes that the user has already logged in</text><polygon fill="#181818" points="314.5,161.1641,324.5,165.1641,314.5,169.1641,318.5,165.1641" style="stroke:#181818;stroke-width:1.0;"/><line style="stroke:#181818;stroke-width:1.0;" x1="28.5" x2="320.5" y1="165.1641" y2="165.1641"/><text fill="#000000" font-family="sans-serif" font-size="13" font-weight="bold" lengthAdjust="spacing" textLength="7" x="35.5" y="159.9014">1</text><text fill="#000000" font-family="sans-serif" font-size="13" lengthAdjust="spacing" textLength="222" x="46.5" y="159.9014">asks to postpone a task in the agenda</text><polygon fill="#181818" points="555.5,192.4551,565.5,196.4551,555.5,200.4551,559.5,196.4551" style="stroke:#181818;stroke-width:1.0;"/><line style="stroke:#181818;stroke-width:1.0;" x1="336.5" x2="561.5" y1="196.4551" y2="196.4551"/><text fill="#000000" font-family="sans-serif" font-size="13" font-weight="bold" lengthAdjust="spacing" textLength="7" x="343.5" y="191.1924">2</text><text fill="#000000" font-family="sans-serif" font-size="13" lengthAdjust="spacing" textLength="79" x="354.5" y="191.1924">requestTask()</text><polygon fill="#181818" points="742,223.7461,752,227.7461,742,231.7461,746,227.7461" style="stroke:#181818;stroke-width:1.0;"/><line style="stroke:#181818;stroke-width:1.0;" x1="577.5" x2="748" y1="227.7461" y2="227.7461"/><text fill="#000000" font-family="sans-serif" font-size="13" font-weight="bold" lengthAdjust="spacing" textLength="7" x="584.5" y="222.4834">3</text><text fill="#000000" font-family="sans-serif" font-size="13" lengthAdjust="spacing" textLength="75" x="595.5" y="222.4834">getInstance()</text><polygon fill="#181818" points="588.5,255.0371,578.5,259.0371,588.5,263.0371,584.5,259.0371" style="stroke:#181818;stroke-width:1.0;"/><line style="stroke:#181818;stroke-width:1.0;stroke-dasharray:2.0,2.0;" x1="582.5" x2="758" y1="259.0371" y2="259.0371"/><text fill="#000000" font-family="sans-serif" font-size="13" font-weight="bold" lengthAdjust="spacing" textLength="7" x="594.5" y="253.7744">4</text><text fill="#000000" font-family="sans-serif" font-size="13" lengthAdjust="spacing" textLength="67" x="605.5" y="253.7744">repositories</text><polygon fill="#181818" points="849,286.3281,859,290.3281,849,294.3281,853,290.3281" style="stroke:#181818;stroke-width:1.0;"/><line style="stroke:#181818;stroke-width:1.0;" x1="577.5" x2="855" y1="290.3281" y2="290.3281"/><text fill="#000000" font-family="sans-serif" font-size="13" font-weight="bold" lengthAdjust="spacing" textLength="7" x="584.5" y="285.0654">5</text><text fill="#000000" font-family="sans-serif" font-size="13" lengthAdjust="spacing" textLength="116" x="595.5" y="285.0654">getTaskRepository()</text><polygon fill="#181818" points="588.5,317.6191,578.5,321.6191,588.5,325.6191,584.5,321.6191" style="stroke:#181818;stroke-width:1.0;"/><line style="stroke:#181818;stroke-width:1.0;stroke-dasharray:2.0,2.0;" x1="582.5" x2="865" y1="321.6191" y2="321.6191"/><text fill="#000000" font-family="sans-serif" font-size="13" font-weight="bold" lengthAdjust="spacing" textLength="7" x="594.5" y="316.3564">6</text><text fill="#000000" font-family="sans-serif" font-size="13" lengthAdjust="spacing" textLength="90" x="605.5" y="316.3564">TaskRepository</text><polygon fill="#181818" points="1056,348.9102,1066,352.9102,1056,356.9102,1060,352.9102" style="stroke:#181818;stroke-width:1.0;"/><line style="stroke:#181818;stroke-width:1.0;" x1="577.5" x2="1062" y1="352.9102" y2="352.9102"/><text fill="#000000" font-family="sans-serif" font-size="13" font-weight="bold" lengthAdjust="spacing" textLength="7" x="584.5" y="347.6475">7</text><text fill="#000000" font-family="sans-serif" font-size="13" lengthAdjust="spacing" textLength="107" x="595.5" y="347.6475">listPlannedTasks()</text><polygon fill="#181818" points="588.5,380.2012,578.5,384.2012,588.5,388.2012,584.5,384.2012" style="stroke:#181818;stroke-width:1.0;"/><line style="stroke:#181818;stroke-width:1.0;stroke-dasharray:2.0,2.0;" x1="582.5" x2="1072" y1="384.2012" y2="384.2012"/><text fill="#000000" font-family="sans-serif" font-size="13" font-weight="bold" lengthAdjust="spacing" textLength="7" x="594.5" y="378.9385">8</text><text fill="#000000" font-family="sans-serif" font-size="13" lengthAdjust="spacing" textLength="116" x="605.5" y="378.9385">list of planned tasks</text><polygon fill="#181818" points="347.5,411.4922,337.5,415.4922,347.5,419.4922,343.5,415.4922" style="stroke:#181818;stroke-width:1.0;"/><line style="stroke:#181818;stroke-width:1.0;stroke-dasharray:2.0,2.0;" x1="341.5" x2="571.5" y1="415.4922" y2="415.4922"/><text fill="#000000" font-family="sans-serif" font-size="13" font-weight="bold" lengthAdjust="spacing" textLength="7" x="353.5" y="410.2295">9</text><text fill="#000000" font-family="sans-serif" font-size="13" lengthAdjust="spacing" textLength="116" x="364.5" y="410.2295">list of planned tasks</text><polygon fill="#181818" points="39.5,442.7832,29.5,446.7832,39.5,450.7832,35.5,446.7832" style="stroke:#181818;stroke-width:1.0;"/><line style="stroke:#181818;stroke-width:1.0;stroke-dasharray:2.0,2.0;" x1="33.5" x2="330.5" y1="446.7832" y2="446.7832"/><text fill="#000000" font-family="sans-serif" font-size="13" font-weight="bold" lengthAdjust="spacing" textLength="14" x="45.5" y="441.5205">10</text><text fill="#000000" font-family="sans-serif" font-size="13" lengthAdjust="spacing" textLength="245" x="63.5" y="441.5205">lists planned tasks and asks to select one</text><polygon fill="#181818" points="314.5,474.0742,324.5,478.0742,314.5,482.0742,318.5,478.0742" style="stroke:#181818;stroke-width:1.0;"/><line style="stroke:#181818;stroke-width:1.0;" x1="28.5" x2="320.5" y1="478.0742" y2="478.0742"/><text fill="#000000" font-family="sans-serif" font-size="13" font-weight="bold" lengthAdjust="spacing" textLength="14" x="35.5" y="472.8115">11</text><text fill="#000000" font-family="sans-serif" font-size="13" lengthAdjust="spacing" textLength="154" x="53.5" y="472.8115">selects a task from the list</text><polygon fill="#181818" points="39.5,505.3652,29.5,509.3652,39.5,513.3652,35.5,509.3652" style="stroke:#181818;stroke-width:1.0;"/><line style="stroke:#181818;stroke-width:1.0;stroke-dasharray:2.0,2.0;" x1="33.5" x2="330.5" y1="509.3652" y2="509.3652"/><text fill="#000000" font-family="sans-serif" font-size="13" font-weight="bold" lengthAdjust="spacing" textLength="14" x="45.5" y="504.1025">12</text><text fill="#000000" font-family="sans-serif" font-size="13" lengthAdjust="spacing" textLength="124" x="63.5" y="504.1025">asks for the new date</text><polygon fill="#181818" points="314.5,536.6563,324.5,540.6563,314.5,544.6563,318.5,540.6563" style="stroke:#181818;stroke-width:1.0;"/><line style="stroke:#181818;stroke-width:1.0;" x1="28.5" x2="320.5" y1="540.6563" y2="540.6563"/><text fill="#000000" font-family="sans-serif" font-size="13" font-weight="bold" lengthAdjust="spacing" textLength="14" x="35.5" y="535.3936">13</text><text fill="#000000" font-family="sans-serif" font-size="13" lengthAdjust="spacing" textLength="261" x="53.5" y="535.3936">types the new date and startHour for the task</text><line style="stroke:#181818;stroke-width:1.0;" x1="336.5" x2="378.5" y1="571.9473" y2="571.9473"/><line style="stroke:#181818;stroke-width:1.0;" x1="378.5" x2="378.5" y1="571.9473" y2="584.9473"/><line style="stroke:#181818;stroke-width:1.0;" x1="337.5" x2="378.5" y1="584.9473" y2="584.9473"/><polygon fill="#181818" points="347.5,580.9473,337.5,584.9473,347.5,588.9473,343.5,584.9473" style="stroke:#181818;stroke-width:1.0;"/><text fill="#000000" font-family="sans-serif" font-size="13" font-weight="bold" lengthAdjust="spacing" textLength="14" x="343.5" y="566.6846">14</text><text fill="#000000" font-family="sans-serif" font-size="13" lengthAdjust="spacing" textLength="128" x="361.5" y="566.6846">validates the new date</text><polygon fill="#181818" points="555.5,612.2383,565.5,616.2383,555.5,620.2383,559.5,616.2383" style="stroke:#181818;stroke-width:1.0;"/><line style="stroke:#181818;stroke-width:1.0;" x1="336.5" x2="561.5" y1="616.2383" y2="616.2383"/><text fill="#000000" font-family="sans-serif" font-size="13" font-weight="bold" lengthAdjust="spacing" textLength="14" x="343.5" y="610.9756">15</text><text fill="#000000" font-family="sans-serif" font-size="13" lengthAdjust="spacing" textLength="161" x="361.5" y="610.9756">submitData (task, newDate)</text><polygon fill="#181818" points="947.5,643.5293,957.5,647.5293,947.5,651.5293,951.5,647.5293" style="stroke:#181818;stroke-width:1.0;"/><line style="stroke:#181818;stroke-width:1.0;" x1="577.5" x2="953.5" y1="647.5293" y2="647.5293"/><text fill="#000000" font-family="sans-serif" font-size="13" font-weight="bold" lengthAdjust="spacing" textLength="14" x="584.5" y="642.2666">16</text><text fill="#000000" font-family="sans-serif" font-size="13" lengthAdjust="spacing" textLength="172" x="602.5" y="642.2666">postponeTask(task, newDate)</text><polygon fill="#181818" points="1173.5,674.8203,1183.5,678.8203,1173.5,682.8203,1177.5,678.8203" style="stroke:#181818;stroke-width:1.0;"/><line style="stroke:#181818;stroke-width:1.0;" x1="969.5" x2="1179.5" y1="678.8203" y2="678.8203"/><text fill="#000000" font-family="sans-serif" font-size="13" font-weight="bold" lengthAdjust="spacing" textLength="14" x="976.5" y="673.5576">17</text><text fill="#000000" font-family="sans-serif" font-size="13" lengthAdjust="spacing" textLength="179" x="994.5" y="673.5576">postponedTask(task, newDate)</text><line style="stroke:#181818;stroke-width:1.0;" x1="1195.5" x2="1237.5" y1="710.1113" y2="710.1113"/><line style="stroke:#181818;stroke-width:1.0;" x1="1237.5" x2="1237.5" y1="710.1113" y2="723.1113"/><line style="stroke:#181818;stroke-width:1.0;" x1="1196.5" x2="1237.5" y1="723.1113" y2="723.1113"/><polygon fill="#181818" points="1206.5,719.1113,1196.5,723.1113,1206.5,727.1113,1202.5,723.1113" style="stroke:#181818;stroke-width:1.0;"/><text fill="#000000" font-family="sans-serif" font-size="13" font-weight="bold" lengthAdjust="spacing" textLength="14" x="1202.5" y="704.8486">18</text><text fill="#000000" font-family="sans-serif" font-size="13" lengthAdjust="spacing" textLength="131" x="1220.5" y="704.8486">setStartDate(newDate)</text><line style="stroke:#181818;stroke-width:1.0;" x1="1195.5" x2="1237.5" y1="754.4023" y2="754.4023"/><line style="stroke:#181818;stroke-width:1.0;" x1="1237.5" x2="1237.5" y1="754.4023" y2="767.4023"/><line style="stroke:#181818;stroke-width:1.0;" x1="1196.5" x2="1237.5" y1="767.4023" y2="767.4023"/><polygon fill="#181818" points="1206.5,763.4023,1196.5,767.4023,1206.5,771.4023,1202.5,767.4023" style="stroke:#181818;stroke-width:1.0;"/><text fill="#000000" font-family="sans-serif" font-size="13" font-weight="bold" lengthAdjust="spacing" textLength="14" x="1202.5" y="749.1396">19</text><text fill="#000000" font-family="sans-serif" font-size="13" lengthAdjust="spacing" textLength="114" x="1220.5" y="749.1396">clearAssignedTeam</text><line style="stroke:#181818;stroke-width:1.0;" x1="1195.5" x2="1237.5" y1="798.6934" y2="798.6934"/><line style="stroke:#181818;stroke-width:1.0;" x1="1237.5" x2="1237.5" y1="798.6934" y2="811.6934"/><line style="stroke:#181818;stroke-width:1.0;" x1="1196.5" x2="1237.5" y1="811.6934" y2="811.6934"/><polygon fill="#181818" points="1206.5,807.6934,1196.5,811.6934,1206.5,815.6934,1202.5,811.6934" style="stroke:#181818;stroke-width:1.0;"/><text fill="#000000" font-family="sans-serif" font-size="13" font-weight="bold" lengthAdjust="spacing" textLength="14" x="1202.5" y="793.4307">20</text><text fill="#000000" font-family="sans-serif" font-size="13" lengthAdjust="spacing" textLength="114" x="1220.5" y="793.4307">clearAssignedTeam</text><line style="stroke:#181818;stroke-width:1.0;" x1="1195.5" x2="1237.5" y1="842.9844" y2="842.9844"/><line style="stroke:#181818;stroke-width:1.0;" x1="1237.5" x2="1237.5" y1="842.9844" y2="855.9844"/><line style="stroke:#181818;stroke-width:1.0;" x1="1196.5" x2="1237.5" y1="855.9844" y2="855.9844"/><polygon fill="#181818" points="1206.5,851.9844,1196.5,855.9844,1206.5,859.9844,1202.5,855.9844" style="stroke:#181818;stroke-width:1.0;"/><text fill="#000000" font-family="sans-serif" font-size="13" font-weight="bold" lengthAdjust="spacing" textLength="14" x="1202.5" y="837.7217">21</text><text fill="#000000" font-family="sans-serif" font-size="13" lengthAdjust="spacing" textLength="173" x="1220.5" y="837.7217">setTaskStatus(POSTPONED)</text><polygon fill="#181818" points="980.5,883.2754,970.5,887.2754,980.5,891.2754,976.5,887.2754" style="stroke:#181818;stroke-width:1.0;"/><line style="stroke:#181818;stroke-width:1.0;stroke-dasharray:2.0,2.0;" x1="974.5" x2="1189.5" y1="887.2754" y2="887.2754"/><text fill="#000000" font-family="sans-serif" font-size="13" font-weight="bold" lengthAdjust="spacing" textLength="14" x="986.5" y="882.0127">22</text><text fill="#000000" font-family="sans-serif" font-size="13" lengthAdjust="spacing" textLength="106" x="1004.5" y="882.0127">postpone success</text><polygon fill="#181818" points="588.5,914.5664,578.5,918.5664,588.5,922.5664,584.5,918.5664" style="stroke:#181818;stroke-width:1.0;"/><line style="stroke:#181818;stroke-width:1.0;stroke-dasharray:2.0,2.0;" x1="582.5" x2="963.5" y1="918.5664" y2="918.5664"/><text fill="#000000" font-family="sans-serif" font-size="13" font-weight="bold" lengthAdjust="spacing" textLength="14" x="594.5" y="913.3037">23</text><text fill="#000000" font-family="sans-serif" font-size="13" lengthAdjust="spacing" textLength="106" x="612.5" y="913.3037">postpone success</text><polygon fill="#181818" points="347.5,945.8574,337.5,949.8574,347.5,953.8574,343.5,949.8574" style="stroke:#181818;stroke-width:1.0;"/><line style="stroke:#181818;stroke-width:1.0;" x1="341.5" x2="571.5" y1="949.8574" y2="949.8574"/><text fill="#000000" font-family="sans-serif" font-size="13" font-weight="bold" lengthAdjust="spacing" textLength="14" x="353.5" y="944.5947">24</text><text fill="#000000" font-family="sans-serif" font-size="13" lengthAdjust="spacing" textLength="106" x="371.5" y="944.5947">postpone success</text><polygon fill="#181818" points="34.5,977.1484,24.5,981.1484,34.5,985.1484,30.5,981.1484" style="stroke:#181818;stroke-width:1.0;"/><line style="stroke:#181818;stroke-width:1.0;" x1="28.5" x2="330.5" y1="981.1484" y2="981.1484"/><text fill="#000000" font-family="sans-serif" font-size="13" font-weight="bold" lengthAdjust="spacing" textLength="14" x="40.5" y="975.8857">25</text><text fill="#000000" font-family="sans-serif" font-size="13" lengthAdjust="spacing" textLength="106" x="58.5" y="975.8857">postpone success</text><!--SRC=[lLOzRzim4DtvAmvUwWB97_1G86Y2naCRetQsBenqbeXGfCgZalhVzoZRCgb8ihfKWm5HxzwxRvfUbQcbanLKrjYiTBP2yAv1GTsNMcQlii2jFsW4XvcNfj0nW4gPstTb2jXBJIY4RBmrJVM2JeXFfSeHzjRw5_j7oCnR1ujls-yBmSPUPQgMniDYjR7aQsjm9-brRNObtXLeSlcyNe0aU5xFWt-rnZkhDRhMxFBQC_-9jIN5lYYa5XaVzB0k-lJBfAOzw4DLQtj0R2dFBprCyBZZEBJ8z4Y4BAatwH4uJyBX7kmRkl1omuc05UnAHH10rh0vDHKI-59w_a5eYB4biqhjKEO7qBOeC0TbX60AkFro965Djh9Gdp894ZoVCQwbaMq-1V3JkSDLWDF354oqYFEzukRutI3v4CxoSmTDA6AB195G1UeapoieqAyDSUzbsECUradBD8PFON3RYoc45FN564kEOxhJ8Kws5hGnfwqnA_BfXXtDnBGpjn-htUlQEScPxzf5AcGgbM9jhSXlj3G6y_2DvYHcfhyzhH1uvCnH6kmUwgDyEpIpMcD2FuxsF9_NTIBkQD550yfKOUAFN9GoWJHvjmC8DUzru2qWFdBpr7TxOtM2qdbRxFd6QFT5a13zb5yMHk9EAxldYo0O6do7dC5NbVsXRlVSnQIDWNU2yu-sSHrZSEoAAwSSlqcj0X4DUd849iMdvgLI_bvw2SiWSnEC-1L7rjt7kWnqz_cYOFuwkjQc10R5kWjd3Da9dKRgefV_Y-3WP5r51z1PE6GI_JPKBaWjPqlsI3ADqjqHgIA4WBBwxmHqND4SYczekNdQxZPFFnxkvqOoN7rkion3egialUqoe_3zXfuj6KaDzbdQqkrqJN9VNLxdPJ76akw9qnCTXlzEVm40]--></g></svg>