<?xml version="1.0" encoding="us-ascii" standalone="no"?><svg xmlns="http://www.w3.org/2000/svg" xmlns:xlink="http://www.w3.org/1999/xlink" contentStyleType="text/css" height="1680px" preserveAspectRatio="none" style="width:680px;height:1680px;background:#FFFFFF;" version="1.1" viewBox="0 0 680 1680" width="680px" zoomAndPan="magnify"><defs/><g><!--class GSMUI--><g id="elem_GSMUI"><rect codeLine="11" fill="#F1F1F1" height="48" id="GSMUI" rx="2.5" ry="2.5" style="stroke:#181818;stroke-width:0.5;" width="75" x="104.5" y="7"/><ellipse cx="119.5" cy="23" fill="#ADD1B2" rx="11" ry="11" style="stroke:#181818;stroke-width:1.0;"/><path d="M122.2656,18.875 Q122.4219,18.6563 122.6094,18.5469 Q122.7969,18.4375 123.0156,18.4375 Q123.3906,18.4375 123.625,18.7031 Q123.8594,18.9531 123.8594,19.5625 L123.8594,21.0156 Q123.8594,21.625 123.625,21.8906 Q123.3906,22.1563 123.0156,22.1563 Q122.6719,22.1563 122.4688,21.9531 Q122.2656,21.7656 122.1563,21.25 Q122.1094,20.8906 121.9219,20.7031 Q121.5938,20.3281 120.9844,20.1094 Q120.375,19.8906 119.75,19.8906 Q118.9844,19.8906 118.3438,20.2188 Q117.7188,20.5469 117.2188,21.2969 Q116.7344,22.0469 116.7344,23.0781 L116.7344,24.1719 Q116.7344,25.4063 117.625,26.2344 Q118.5156,27.0469 120.1094,27.0469 Q121.0469,27.0469 121.7031,26.7969 Q122.0938,26.6406 122.5156,26.2031 Q122.7813,25.9375 122.9219,25.8594 Q123.0781,25.7813 123.2813,25.7813 Q123.6094,25.7813 123.8594,26.0469 Q124.125,26.2969 124.125,26.6406 Q124.125,26.9844 123.7813,27.3906 Q123.2813,27.9688 122.4844,28.2969 Q121.4063,28.75 120.1094,28.75 Q118.5938,28.75 117.3906,28.125 Q116.4063,27.625 115.7188,26.5625 Q115.0313,25.4844 115.0313,24.2031 L115.0313,23.0469 Q115.0313,21.7188 115.6406,20.5781 Q116.2656,19.4219 117.3594,18.8125 Q118.4531,18.1875 119.6875,18.1875 Q120.4219,18.1875 121.0625,18.3594 Q121.7188,18.5156 122.2656,18.875 Z " fill="#000000"/><text fill="#000000" font-family="sans-serif" font-size="14" lengthAdjust="spacing" textLength="43" x="133.5" y="28.7969">GSMUI</text><line style="stroke:#181818;stroke-width:0.5;" x1="105.5" x2="178.5" y1="39" y2="39"/><line style="stroke:#181818;stroke-width:0.5;" x1="105.5" x2="178.5" y1="47" y2="47"/></g><!--class PostponeTaskInTheAgendaUI--><g id="elem_PostponeTaskInTheAgendaUI"><rect codeLine="14" fill="#F1F1F1" height="141.1055" id="PostponeTaskInTheAgendaUI" rx="2.5" ry="2.5" style="stroke:#181818;stroke-width:0.5;" width="268" x="8" y="116"/><ellipse cx="44.6" cy="132" fill="#ADD1B2" rx="11" ry="11" style="stroke:#181818;stroke-width:1.0;"/><path d="M47.3656,127.875 Q47.5219,127.6563 47.7094,127.5469 Q47.8969,127.4375 48.1156,127.4375 Q48.4906,127.4375 48.725,127.7031 Q48.9594,127.9531 48.9594,128.5625 L48.9594,130.0156 Q48.9594,130.625 48.725,130.8906 Q48.4906,131.1563 48.1156,131.1563 Q47.7719,131.1563 47.5688,130.9531 Q47.3656,130.7656 47.2563,130.25 Q47.2094,129.8906 47.0219,129.7031 Q46.6938,129.3281 46.0844,129.1094 Q45.475,128.8906 44.85,128.8906 Q44.0844,128.8906 43.4438,129.2188 Q42.8188,129.5469 42.3188,130.2969 Q41.8344,131.0469 41.8344,132.0781 L41.8344,133.1719 Q41.8344,134.4063 42.725,135.2344 Q43.6156,136.0469 45.2094,136.0469 Q46.1469,136.0469 46.8031,135.7969 Q47.1938,135.6406 47.6156,135.2031 Q47.8813,134.9375 48.0219,134.8594 Q48.1781,134.7813 48.3813,134.7813 Q48.7094,134.7813 48.9594,135.0469 Q49.225,135.2969 49.225,135.6406 Q49.225,135.9844 48.8813,136.3906 Q48.3813,136.9688 47.5844,137.2969 Q46.5063,137.75 45.2094,137.75 Q43.6938,137.75 42.4906,137.125 Q41.5063,136.625 40.8188,135.5625 Q40.1313,134.4844 40.1313,133.2031 L40.1313,132.0469 Q40.1313,130.7188 40.7406,129.5781 Q41.3656,128.4219 42.4594,127.8125 Q43.5531,127.1875 44.7875,127.1875 Q45.5219,127.1875 46.1625,127.3594 Q46.8188,127.5156 47.3656,127.875 Z " fill="#000000"/><text fill="#000000" font-family="sans-serif" font-size="14" lengthAdjust="spacing" textLength="188" x="63.4" y="137.7969">PostponeTaskInTheAgendaUI</text><line style="stroke:#181818;stroke-width:0.5;" x1="9" x2="275" y1="148" y2="148"/><line style="stroke:#181818;stroke-width:0.5;" x1="9" x2="275" y1="156" y2="156"/><text fill="#000000" font-family="sans-serif" font-size="14" lengthAdjust="spacing" textLength="39" x="14" y="175.1074">+run()</text><text fill="#000000" font-family="sans-serif" font-size="14" lengthAdjust="spacing" textLength="256" x="14" y="193.7285">+PostponeTaskInTheAgendaController()</text><text fill="#000000" font-family="sans-serif" font-size="14" lengthAdjust="spacing" textLength="94" x="14" y="212.3496">-requestTask()</text><text fill="#000000" font-family="sans-serif" font-size="14" lengthAdjust="spacing" textLength="119" x="14" y="230.9707">-requestNewDate()</text><text fill="#000000" font-family="sans-serif" font-size="14" lengthAdjust="spacing" textLength="175" x="14" y="249.5918">-submitData(task, newDate)</text></g><!--class PostponeTaskInTheAgendaController--><g id="elem_PostponeTaskInTheAgendaController"><rect codeLine="22" fill="#F1F1F1" height="178.3477" id="PostponeTaskInTheAgendaController" rx="2.5" ry="2.5" style="stroke:#181818;stroke-width:0.5;" width="270" x="7" y="318"/><ellipse cx="22" cy="334" fill="#ADD1B2" rx="11" ry="11" style="stroke:#181818;stroke-width:1.0;"/><path d="M24.7656,329.875 Q24.9219,329.6563 25.1094,329.5469 Q25.2969,329.4375 25.5156,329.4375 Q25.8906,329.4375 26.125,329.7031 Q26.3594,329.9531 26.3594,330.5625 L26.3594,332.0156 Q26.3594,332.625 26.125,332.8906 Q25.8906,333.1563 25.5156,333.1563 Q25.1719,333.1563 24.9688,332.9531 Q24.7656,332.7656 24.6563,332.25 Q24.6094,331.8906 24.4219,331.7031 Q24.0938,331.3281 23.4844,331.1094 Q22.875,330.8906 22.25,330.8906 Q21.4844,330.8906 20.8438,331.2188 Q20.2188,331.5469 19.7188,332.2969 Q19.2344,333.0469 19.2344,334.0781 L19.2344,335.1719 Q19.2344,336.4063 20.125,337.2344 Q21.0156,338.0469 22.6094,338.0469 Q23.5469,338.0469 24.2031,337.7969 Q24.5938,337.6406 25.0156,337.2031 Q25.2813,336.9375 25.4219,336.8594 Q25.5781,336.7813 25.7813,336.7813 Q26.1094,336.7813 26.3594,337.0469 Q26.625,337.2969 26.625,337.6406 Q26.625,337.9844 26.2813,338.3906 Q25.7813,338.9688 24.9844,339.2969 Q23.9063,339.75 22.6094,339.75 Q21.0938,339.75 19.8906,339.125 Q18.9063,338.625 18.2188,337.5625 Q17.5313,336.4844 17.5313,335.2031 L17.5313,334.0469 Q17.5313,332.7188 18.1406,331.5781 Q18.7656,330.4219 19.8594,329.8125 Q20.9531,329.1875 22.1875,329.1875 Q22.9219,329.1875 23.5625,329.3594 Q24.2188,329.5156 24.7656,329.875 Z " fill="#000000"/><text fill="#000000" font-family="sans-serif" font-size="14" lengthAdjust="spacing" textLength="238" x="36" y="339.7969">PostponeTaskInTheAgendaController</text><line style="stroke:#181818;stroke-width:0.5;" x1="8" x2="276" y1="350" y2="350"/><line style="stroke:#181818;stroke-width:0.5;" x1="8" x2="276" y1="358" y2="358"/><text fill="#000000" font-family="sans-serif" font-size="14" lengthAdjust="spacing" textLength="183" x="13" y="377.1074">-getGreenSpaceRepository()</text><text fill="#000000" font-family="sans-serif" font-size="14" lengthAdjust="spacing" textLength="183" x="13" y="395.7285">-getGreenSpaceRepository()</text><text fill="#000000" font-family="sans-serif" font-size="14" lengthAdjust="spacing" textLength="256" x="13" y="414.3496">+PostponeTaskInTheAgendaController()</text><text fill="#000000" font-family="sans-serif" font-size="14" lengthAdjust="spacing" textLength="134" x="13" y="432.9707">-getTaskRepository()</text><text fill="#000000" font-family="sans-serif" font-size="14" lengthAdjust="spacing" textLength="125" x="13" y="451.5918">+listPlannedTasks()</text><text fill="#000000" font-family="sans-serif" font-size="14" lengthAdjust="spacing" textLength="112" x="13" y="470.2129">+getTeamTasks()</text><text fill="#000000" font-family="sans-serif" font-size="14" lengthAdjust="spacing" textLength="197" x="13" y="488.834">+postponeTask(task, newDate)</text></g><!--class Employee--><g id="elem_Employee"><rect codeLine="32" fill="#F1F1F1" height="66.6211" id="Employee" rx="2.5" ry="2.5" style="stroke:#181818;stroke-width:0.5;" width="244" x="181" y="998"/><ellipse cx="267.75" cy="1014" fill="#ADD1B2" rx="11" ry="11" style="stroke:#181818;stroke-width:1.0;"/><path d="M270.5156,1009.875 Q270.6719,1009.6563 270.8594,1009.5469 Q271.0469,1009.4375 271.2656,1009.4375 Q271.6406,1009.4375 271.875,1009.7031 Q272.1094,1009.9531 272.1094,1010.5625 L272.1094,1012.0156 Q272.1094,1012.625 271.875,1012.8906 Q271.6406,1013.1563 271.2656,1013.1563 Q270.9219,1013.1563 270.7188,1012.9531 Q270.5156,1012.7656 270.4063,1012.25 Q270.3594,1011.8906 270.1719,1011.7031 Q269.8438,1011.3281 269.2344,1011.1094 Q268.625,1010.8906 268,1010.8906 Q267.2344,1010.8906 266.5938,1011.2188 Q265.9688,1011.5469 265.4688,1012.2969 Q264.9844,1013.0469 264.9844,1014.0781 L264.9844,1015.1719 Q264.9844,1016.4063 265.875,1017.2344 Q266.7656,1018.0469 268.3594,1018.0469 Q269.2969,1018.0469 269.9531,1017.7969 Q270.3438,1017.6406 270.7656,1017.2031 Q271.0313,1016.9375 271.1719,1016.8594 Q271.3281,1016.7813 271.5313,1016.7813 Q271.8594,1016.7813 272.1094,1017.0469 Q272.375,1017.2969 272.375,1017.6406 Q272.375,1017.9844 272.0313,1018.3906 Q271.5313,1018.9688 270.7344,1019.2969 Q269.6563,1019.75 268.3594,1019.75 Q266.8438,1019.75 265.6406,1019.125 Q264.6563,1018.625 263.9688,1017.5625 Q263.2813,1016.4844 263.2813,1015.2031 L263.2813,1014.0469 Q263.2813,1012.7188 263.8906,1011.5781 Q264.5156,1010.4219 265.6094,1009.8125 Q266.7031,1009.1875 267.9375,1009.1875 Q268.6719,1009.1875 269.3125,1009.3594 Q269.9688,1009.5156 270.5156,1009.875 Z " fill="#000000"/><text fill="#000000" font-family="sans-serif" font-size="14" lengthAdjust="spacing" textLength="62" x="288.25" y="1019.7969">Employee</text><line style="stroke:#181818;stroke-width:0.5;" x1="182" x2="424" y1="1030" y2="1030"/><line style="stroke:#181818;stroke-width:0.5;" x1="182" x2="424" y1="1038" y2="1038"/><text fill="#000000" font-family="sans-serif" font-size="14" lengthAdjust="spacing" textLength="232" x="187" y="1057.1074">+postponeTask(team, newStartDate)</text></g><!--class Task--><g id="elem_Task"><rect codeLine="36" fill="#F1F1F1" height="401.8008" id="Task" rx="2.5" ry="2.5" style="stroke:#181818;stroke-width:0.5;" width="257" x="174.5" y="1272"/><ellipse cx="283.25" cy="1288" fill="#ADD1B2" rx="11" ry="11" style="stroke:#181818;stroke-width:1.0;"/><path d="M286.0156,1283.875 Q286.1719,1283.6563 286.3594,1283.5469 Q286.5469,1283.4375 286.7656,1283.4375 Q287.1406,1283.4375 287.375,1283.7031 Q287.6094,1283.9531 287.6094,1284.5625 L287.6094,1286.0156 Q287.6094,1286.625 287.375,1286.8906 Q287.1406,1287.1563 286.7656,1287.1563 Q286.4219,1287.1563 286.2188,1286.9531 Q286.0156,1286.7656 285.9063,1286.25 Q285.8594,1285.8906 285.6719,1285.7031 Q285.3438,1285.3281 284.7344,1285.1094 Q284.125,1284.8906 283.5,1284.8906 Q282.7344,1284.8906 282.0938,1285.2188 Q281.4688,1285.5469 280.9688,1286.2969 Q280.4844,1287.0469 280.4844,1288.0781 L280.4844,1289.1719 Q280.4844,1290.4063 281.375,1291.2344 Q282.2656,1292.0469 283.8594,1292.0469 Q284.7969,1292.0469 285.4531,1291.7969 Q285.8438,1291.6406 286.2656,1291.2031 Q286.5313,1290.9375 286.6719,1290.8594 Q286.8281,1290.7813 287.0313,1290.7813 Q287.3594,1290.7813 287.6094,1291.0469 Q287.875,1291.2969 287.875,1291.6406 Q287.875,1291.9844 287.5313,1292.3906 Q287.0313,1292.9688 286.2344,1293.2969 Q285.1563,1293.75 283.8594,1293.75 Q282.3438,1293.75 281.1406,1293.125 Q280.1563,1292.625 279.4688,1291.5625 Q278.7813,1290.4844 278.7813,1289.2031 L278.7813,1288.0469 Q278.7813,1286.7188 279.3906,1285.5781 Q280.0156,1284.4219 281.1094,1283.8125 Q282.2031,1283.1875 283.4375,1283.1875 Q284.1719,1283.1875 284.8125,1283.3594 Q285.4688,1283.5156 286.0156,1283.875 Z " fill="#000000"/><text fill="#000000" font-family="sans-serif" font-size="14" lengthAdjust="spacing" textLength="31" x="303.75" y="1293.7969">Task</text><line style="stroke:#181818;stroke-width:0.5;" x1="175.5" x2="430.5" y1="1304" y2="1304"/><text fill="#000000" font-family="sans-serif" font-size="14" lengthAdjust="spacing" textLength="76" x="180.5" y="1323.1074">-title : String</text><text fill="#000000" font-family="sans-serif" font-size="14" lengthAdjust="spacing" textLength="123" x="180.5" y="1341.7285">-description : String</text><text fill="#000000" font-family="sans-serif" font-size="14" lengthAdjust="spacing" textLength="105" x="180.5" y="1360.3496">-startDate : Date</text><text fill="#000000" font-family="sans-serif" font-size="14" lengthAdjust="spacing" textLength="101" x="180.5" y="1378.9707">-endDate : Date</text><text fill="#000000" font-family="sans-serif" font-size="14" lengthAdjust="spacing" textLength="155" x="180.5" y="1397.5918">-taskStatus : EnumName</text><text fill="#000000" font-family="sans-serif" font-size="14" lengthAdjust="spacing" textLength="81" x="180.5" y="1416.2129">-type : String</text><text fill="#000000" font-family="sans-serif" font-size="14" lengthAdjust="spacing" textLength="174" x="180.5" y="1434.834">-greenSpace : GreenSpace</text><text fill="#000000" font-family="sans-serif" font-size="14" lengthAdjust="spacing" textLength="167" x="180.5" y="1453.4551">-taskUrgency : EnumName</text><text fill="#000000" font-family="sans-serif" font-size="14" lengthAdjust="spacing" textLength="146" x="180.5" y="1472.0762">-assignedTeam : Team</text><text fill="#000000" font-family="sans-serif" font-size="14" lengthAdjust="spacing" textLength="245" x="180.5" y="1490.6973">-assignedVehicles : ArrayList&lt;Vehicle&gt;</text><text fill="#000000" font-family="sans-serif" font-size="14" lengthAdjust="spacing" textLength="71" x="180.5" y="1509.3184">-taskID : int</text><text fill="#000000" font-family="sans-serif" font-size="14" lengthAdjust="spacing" textLength="165" x="180.5" y="1527.9395">-taskPosition : EnumName</text><line style="stroke:#181818;stroke-width:0.5;" x1="175.5" x2="430.5" y1="1535.4531" y2="1535.4531"/><text fill="#000000" font-family="sans-serif" font-size="14" lengthAdjust="spacing" textLength="128" x="180.5" y="1554.5605">+setTaskStartDate()</text><text fill="#000000" font-family="sans-serif" font-size="14" lengthAdjust="spacing" textLength="108" x="180.5" y="1573.1816">+setTaskStatus()</text><text fill="#000000" font-family="sans-serif" font-size="14" lengthAdjust="spacing" textLength="95" x="180.5" y="1591.8027">+assignTeam()</text><text fill="#000000" font-family="sans-serif" font-size="14" lengthAdjust="spacing" textLength="119" x="180.5" y="1610.4238">+getTaskPosition()</text><text fill="#000000" font-family="sans-serif" font-size="14" lengthAdjust="spacing" textLength="92" x="180.5" y="1629.0449">+setEndDate()</text><text fill="#000000" font-family="sans-serif" font-size="14" lengthAdjust="spacing" textLength="94" x="180.5" y="1647.666">+taskOverlap()</text><text fill="#000000" font-family="sans-serif" font-size="14" lengthAdjust="spacing" textLength="126" x="180.5" y="1666.2871">-calculateEndDate()</text></g><!--class TaskRepository--><g id="elem_TaskRepository"><rect codeLine="59" fill="#F1F1F1" height="178.3477" id="TaskRepository" rx="2.5" ry="2.5" style="stroke:#181818;stroke-width:0.5;" width="140" x="147" y="759"/><ellipse cx="166.05" cy="775" fill="#ADD1B2" rx="11" ry="11" style="stroke:#181818;stroke-width:1.0;"/><path d="M168.8156,770.875 Q168.9719,770.6563 169.1594,770.5469 Q169.3469,770.4375 169.5656,770.4375 Q169.9406,770.4375 170.175,770.7031 Q170.4094,770.9531 170.4094,771.5625 L170.4094,773.0156 Q170.4094,773.625 170.175,773.8906 Q169.9406,774.1563 169.5656,774.1563 Q169.2219,774.1563 169.0188,773.9531 Q168.8156,773.7656 168.7063,773.25 Q168.6594,772.8906 168.4719,772.7031 Q168.1438,772.3281 167.5344,772.1094 Q166.925,771.8906 166.3,771.8906 Q165.5344,771.8906 164.8938,772.2188 Q164.2688,772.5469 163.7688,773.2969 Q163.2844,774.0469 163.2844,775.0781 L163.2844,776.1719 Q163.2844,777.4063 164.175,778.2344 Q165.0656,779.0469 166.6594,779.0469 Q167.5969,779.0469 168.2531,778.7969 Q168.6438,778.6406 169.0656,778.2031 Q169.3313,777.9375 169.4719,777.8594 Q169.6281,777.7813 169.8313,777.7813 Q170.1594,777.7813 170.4094,778.0469 Q170.675,778.2969 170.675,778.6406 Q170.675,778.9844 170.3313,779.3906 Q169.8313,779.9688 169.0344,780.2969 Q167.9563,780.75 166.6594,780.75 Q165.1438,780.75 163.9406,780.125 Q162.9563,779.625 162.2688,778.5625 Q161.5813,777.4844 161.5813,776.2031 L161.5813,775.0469 Q161.5813,773.7188 162.1906,772.5781 Q162.8156,771.4219 163.9094,770.8125 Q165.0031,770.1875 166.2375,770.1875 Q166.9719,770.1875 167.6125,770.3594 Q168.2688,770.5156 168.8156,770.875 Z " fill="#000000"/><text fill="#000000" font-family="sans-serif" font-size="14" lengthAdjust="spacing" textLength="99" x="180.95" y="780.7969">TaskRepository</text><line style="stroke:#181818;stroke-width:0.5;" x1="148" x2="286" y1="791" y2="791"/><line style="stroke:#181818;stroke-width:0.5;" x1="148" x2="286" y1="799" y2="799"/><text fill="#000000" font-family="sans-serif" font-size="14" lengthAdjust="spacing" textLength="87" x="153" y="818.1074">+getAgenda()</text><text fill="#000000" font-family="sans-serif" font-size="14" lengthAdjust="spacing" textLength="93" x="153" y="836.7285">+updateTask()</text><text fill="#000000" font-family="sans-serif" font-size="14" lengthAdjust="spacing" textLength="115" x="153" y="855.3496">+teamAvailability()</text><text fill="#000000" font-family="sans-serif" font-size="14" lengthAdjust="spacing" textLength="127" x="153" y="873.9707">+getAllTeamTasks()</text><text fill="#000000" font-family="sans-serif" font-size="14" lengthAdjust="spacing" textLength="128" x="153" y="892.5918">+getPlannedTasks()</text><text fill="#000000" font-family="sans-serif" font-size="14" lengthAdjust="spacing" textLength="128" x="153" y="911.2129">+getPendingTasks()</text><text fill="#000000" font-family="sans-serif" font-size="14" lengthAdjust="spacing" textLength="91" x="153" y="929.834">+existsTasks()</text></g><!--class TeamRepository--><g id="elem_TeamRepository"><rect codeLine="69" fill="#F1F1F1" height="85.2422" id="TeamRepository" rx="2.5" ry="2.5" style="stroke:#181818;stroke-width:0.5;" width="136" x="322" y="805.5"/><ellipse cx="337" cy="821.5" fill="#ADD1B2" rx="11" ry="11" style="stroke:#181818;stroke-width:1.0;"/><path d="M339.7656,817.375 Q339.9219,817.1563 340.1094,817.0469 Q340.2969,816.9375 340.5156,816.9375 Q340.8906,816.9375 341.125,817.2031 Q341.3594,817.4531 341.3594,818.0625 L341.3594,819.5156 Q341.3594,820.125 341.125,820.3906 Q340.8906,820.6563 340.5156,820.6563 Q340.1719,820.6563 339.9688,820.4531 Q339.7656,820.2656 339.6563,819.75 Q339.6094,819.3906 339.4219,819.2031 Q339.0938,818.8281 338.4844,818.6094 Q337.875,818.3906 337.25,818.3906 Q336.4844,818.3906 335.8438,818.7188 Q335.2188,819.0469 334.7188,819.7969 Q334.2344,820.5469 334.2344,821.5781 L334.2344,822.6719 Q334.2344,823.9063 335.125,824.7344 Q336.0156,825.5469 337.6094,825.5469 Q338.5469,825.5469 339.2031,825.2969 Q339.5938,825.1406 340.0156,824.7031 Q340.2813,824.4375 340.4219,824.3594 Q340.5781,824.2813 340.7813,824.2813 Q341.1094,824.2813 341.3594,824.5469 Q341.625,824.7969 341.625,825.1406 Q341.625,825.4844 341.2813,825.8906 Q340.7813,826.4688 339.9844,826.7969 Q338.9063,827.25 337.6094,827.25 Q336.0938,827.25 334.8906,826.625 Q333.9063,826.125 333.2188,825.0625 Q332.5313,823.9844 332.5313,822.7031 L332.5313,821.5469 Q332.5313,820.2188 333.1406,819.0781 Q333.7656,817.9219 334.8594,817.3125 Q335.9531,816.6875 337.1875,816.6875 Q337.9219,816.6875 338.5625,816.8594 Q339.2188,817.0156 339.7656,817.375 Z " fill="#000000"/><text fill="#000000" font-family="sans-serif" font-size="14" lengthAdjust="spacing" textLength="104" x="351" y="827.2969">TeamRepository</text><line style="stroke:#181818;stroke-width:0.5;" x1="323" x2="457" y1="837.5" y2="837.5"/><line style="stroke:#181818;stroke-width:0.5;" x1="323" x2="457" y1="845.5" y2="845.5"/><text fill="#000000" font-family="sans-serif" font-size="14" lengthAdjust="spacing" textLength="100" x="328" y="864.6074">-validateTeam()</text><text fill="#000000" font-family="sans-serif" font-size="14" lengthAdjust="spacing" textLength="96" x="328" y="883.2285">+getAllTeams()</text></g><!--class GreenSpaceRepository--><g id="elem_GreenSpaceRepository"><rect codeLine="74" fill="#F1F1F1" height="66.6211" id="GreenSpaceRepository" rx="2.5" ry="2.5" style="stroke:#181818;stroke-width:0.5;" width="180" x="493" y="814.5"/><ellipse cx="508" cy="830.5" fill="#ADD1B2" rx="11" ry="11" style="stroke:#181818;stroke-width:1.0;"/><path d="M510.7656,826.375 Q510.9219,826.1563 511.1094,826.0469 Q511.2969,825.9375 511.5156,825.9375 Q511.8906,825.9375 512.125,826.2031 Q512.3594,826.4531 512.3594,827.0625 L512.3594,828.5156 Q512.3594,829.125 512.125,829.3906 Q511.8906,829.6563 511.5156,829.6563 Q511.1719,829.6563 510.9688,829.4531 Q510.7656,829.2656 510.6563,828.75 Q510.6094,828.3906 510.4219,828.2031 Q510.0938,827.8281 509.4844,827.6094 Q508.875,827.3906 508.25,827.3906 Q507.4844,827.3906 506.8438,827.7188 Q506.2188,828.0469 505.7188,828.7969 Q505.2344,829.5469 505.2344,830.5781 L505.2344,831.6719 Q505.2344,832.9063 506.125,833.7344 Q507.0156,834.5469 508.6094,834.5469 Q509.5469,834.5469 510.2031,834.2969 Q510.5938,834.1406 511.0156,833.7031 Q511.2813,833.4375 511.4219,833.3594 Q511.5781,833.2813 511.7813,833.2813 Q512.1094,833.2813 512.3594,833.5469 Q512.625,833.7969 512.625,834.1406 Q512.625,834.4844 512.2813,834.8906 Q511.7813,835.4688 510.9844,835.7969 Q509.9063,836.25 508.6094,836.25 Q507.0938,836.25 505.8906,835.625 Q504.9063,835.125 504.2188,834.0625 Q503.5313,832.9844 503.5313,831.7031 L503.5313,830.5469 Q503.5313,829.2188 504.1406,828.0781 Q504.7656,826.9219 505.8594,826.3125 Q506.9531,825.6875 508.1875,825.6875 Q508.9219,825.6875 509.5625,825.8594 Q510.2188,826.0156 510.7656,826.375 Z " fill="#000000"/><text fill="#000000" font-family="sans-serif" font-size="14" lengthAdjust="spacing" textLength="148" x="522" y="836.2969">GreenSpaceRepository</text><line style="stroke:#181818;stroke-width:0.5;" x1="494" x2="672" y1="846.5" y2="846.5"/><line style="stroke:#181818;stroke-width:0.5;" x1="494" x2="672" y1="854.5" y2="854.5"/><text fill="#000000" font-family="sans-serif" font-size="14" lengthAdjust="spacing" textLength="132" x="499" y="873.6074">getGreenSpaceList()</text></g><!--class Repositories--><g id="elem_Repositories"><rect codeLine="78" fill="#F1F1F1" height="141.1055" id="Repositories" rx="2.5" ry="2.5" style="stroke:#181818;stroke-width:0.5;" width="198" x="189" y="557"/><ellipse cx="244.25" cy="573" fill="#ADD1B2" rx="11" ry="11" style="stroke:#181818;stroke-width:1.0;"/><path d="M247.0156,568.875 Q247.1719,568.6563 247.3594,568.5469 Q247.5469,568.4375 247.7656,568.4375 Q248.1406,568.4375 248.375,568.7031 Q248.6094,568.9531 248.6094,569.5625 L248.6094,571.0156 Q248.6094,571.625 248.375,571.8906 Q248.1406,572.1563 247.7656,572.1563 Q247.4219,572.1563 247.2188,571.9531 Q247.0156,571.7656 246.9063,571.25 Q246.8594,570.8906 246.6719,570.7031 Q246.3438,570.3281 245.7344,570.1094 Q245.125,569.8906 244.5,569.8906 Q243.7344,569.8906 243.0938,570.2188 Q242.4688,570.5469 241.9688,571.2969 Q241.4844,572.0469 241.4844,573.0781 L241.4844,574.1719 Q241.4844,575.4063 242.375,576.2344 Q243.2656,577.0469 244.8594,577.0469 Q245.7969,577.0469 246.4531,576.7969 Q246.8438,576.6406 247.2656,576.2031 Q247.5313,575.9375 247.6719,575.8594 Q247.8281,575.7813 248.0313,575.7813 Q248.3594,575.7813 248.6094,576.0469 Q248.875,576.2969 248.875,576.6406 Q248.875,576.9844 248.5313,577.3906 Q248.0313,577.9688 247.2344,578.2969 Q246.1563,578.75 244.8594,578.75 Q243.3438,578.75 242.1406,578.125 Q241.1563,577.625 240.4688,576.5625 Q239.7813,575.4844 239.7813,574.2031 L239.7813,573.0469 Q239.7813,571.7188 240.3906,570.5781 Q241.0156,569.4219 242.1094,568.8125 Q243.2031,568.1875 244.4375,568.1875 Q245.1719,568.1875 245.8125,568.3594 Q246.4688,568.5156 247.0156,568.875 Z " fill="#000000"/><text fill="#000000" font-family="sans-serif" font-size="14" lengthAdjust="spacing" textLength="79" x="264.75" y="578.7969">Repositories</text><line style="stroke:#181818;stroke-width:0.5;" x1="190" x2="386" y1="589" y2="589"/><line style="stroke:#181818;stroke-width:0.5;" x1="190" x2="386" y1="597" y2="597"/><text fill="#000000" font-family="sans-serif" font-size="14" lengthAdjust="spacing" textLength="94" x="195" y="616.1074">-Repositories()</text><text fill="#000000" font-family="sans-serif" font-size="14" lengthAdjust="spacing" textLength="182" x="195" y="634.7285">+getInstance() : Repositories</text><text fill="#000000" font-family="sans-serif" font-size="14" lengthAdjust="spacing" textLength="137" x="195" y="653.3496">+getTaskRepository()</text><text fill="#000000" font-family="sans-serif" font-size="14" lengthAdjust="spacing" textLength="142" x="195" y="671.9707">+getTeamRepository()</text><text fill="#000000" font-family="sans-serif" font-size="14" lengthAdjust="spacing" textLength="186" x="195" y="690.5918">+getGreenSpaceRepository()</text></g><!--class Tasks--><g id="elem_Tasks"><rect codeLine="87" fill="#F1F1F1" height="66.6211" id="Tasks" rx="2.5" ry="2.5" style="stroke:#181818;stroke-width:0.5;" width="157" x="224.5" y="1144"/><ellipse cx="279.75" cy="1160" fill="#ADD1B2" rx="11" ry="11" style="stroke:#181818;stroke-width:1.0;"/><path d="M282.5156,1155.875 Q282.6719,1155.6563 282.8594,1155.5469 Q283.0469,1155.4375 283.2656,1155.4375 Q283.6406,1155.4375 283.875,1155.7031 Q284.1094,1155.9531 284.1094,1156.5625 L284.1094,1158.0156 Q284.1094,1158.625 283.875,1158.8906 Q283.6406,1159.1563 283.2656,1159.1563 Q282.9219,1159.1563 282.7188,1158.9531 Q282.5156,1158.7656 282.4063,1158.25 Q282.3594,1157.8906 282.1719,1157.7031 Q281.8438,1157.3281 281.2344,1157.1094 Q280.625,1156.8906 280,1156.8906 Q279.2344,1156.8906 278.5938,1157.2188 Q277.9688,1157.5469 277.4688,1158.2969 Q276.9844,1159.0469 276.9844,1160.0781 L276.9844,1161.1719 Q276.9844,1162.4063 277.875,1163.2344 Q278.7656,1164.0469 280.3594,1164.0469 Q281.2969,1164.0469 281.9531,1163.7969 Q282.3438,1163.6406 282.7656,1163.2031 Q283.0313,1162.9375 283.1719,1162.8594 Q283.3281,1162.7813 283.5313,1162.7813 Q283.8594,1162.7813 284.1094,1163.0469 Q284.375,1163.2969 284.375,1163.6406 Q284.375,1163.9844 284.0313,1164.3906 Q283.5313,1164.9688 282.7344,1165.2969 Q281.6563,1165.75 280.3594,1165.75 Q278.8438,1165.75 277.6406,1165.125 Q276.6563,1164.625 275.9688,1163.5625 Q275.2813,1162.4844 275.2813,1161.2031 L275.2813,1160.0469 Q275.2813,1158.7188 275.8906,1157.5781 Q276.5156,1156.4219 277.6094,1155.8125 Q278.7031,1155.1875 279.9375,1155.1875 Q280.6719,1155.1875 281.3125,1155.3594 Q281.9688,1155.5156 282.5156,1155.875 Z " fill="#000000"/><text fill="#000000" font-family="sans-serif" font-size="14" lengthAdjust="spacing" textLength="38" x="300.25" y="1165.7969">Tasks</text><line style="stroke:#181818;stroke-width:0.5;" x1="225.5" x2="380.5" y1="1176" y2="1176"/><text fill="#000000" font-family="sans-serif" font-size="14" lengthAdjust="spacing" textLength="145" x="230.5" y="1195.1074">-ArrayList&lt;Task&gt; tasks</text><line style="stroke:#181818;stroke-width:0.5;" x1="225.5" x2="380.5" y1="1202.6211" y2="1202.6211"/></g><!--link GSMUI to PostponeTaskInTheAgendaUI--><g id="link_GSMUI_PostponeTaskInTheAgendaUI"><path codeLine="93" d="M142,55.31 C142,71.5 142,87.98 142,109.71 " fill="none" id="GSMUI-to-PostponeTaskInTheAgendaUI" style="stroke:#181818;stroke-width:1.0;stroke-dasharray:7.0,7.0;"/><polygon fill="#181818" points="142,115.71,146,106.71,142,110.71,138,106.71,142,115.71" style="stroke:#181818;stroke-width:1.0;"/><text fill="#000000" font-family="sans-serif" font-size="13" lengthAdjust="spacing" textLength="7" x="134.1906" y="76.9593">1</text><text fill="#000000" font-family="sans-serif" font-size="13" lengthAdjust="spacing" textLength="7" x="134.6391" y="104.5711">1</text></g><!--link Repositories to Repositories--><g id="link_Repositories_Repositories"><path codeLine="95" d="M387.05,609.44 C407.4,611.37 422,617.39 422,627.5 C422,637.61 413.3732,643.0635 393.0232,644.9935 " fill="none" id="Repositories-to-Repositories" style="stroke:#181818;stroke-width:1.0;"/><polygon fill="#181818" points="387.05,645.56,396.3875,648.6924,392.0277,645.0879,395.6321,640.7281,387.05,645.56" style="stroke:#181818;stroke-width:1.0;"/><text fill="#000000" font-family="sans-serif" font-size="13" lengthAdjust="spacing" textLength="49" x="428" y="633.0283">instance</text></g><!--link PostponeTaskInTheAgendaUI to PostponeTaskInTheAgendaController--><g id="link_PostponeTaskInTheAgendaUI_PostponeTaskInTheAgendaController"><path codeLine="98" d="M142,257.24 C142,276.47 142,291.59 142,311.73 " fill="none" id="PostponeTaskInTheAgendaUI-to-PostponeTaskInTheAgendaController" style="stroke:#181818;stroke-width:1.0;stroke-dasharray:7.0,7.0;"/><polygon fill="#181818" points="142,317.73,146,308.73,142,312.73,138,308.73,142,317.73" style="stroke:#181818;stroke-width:1.0;"/></g><!--link PostponeTaskInTheAgendaController to Repositories--><g id="link_PostponeTaskInTheAgendaController_Repositories"><path codeLine="100" d="M200.96,496.24 C214.42,516.38 225.1958,532.5117 238.0558,551.7517 " fill="none" id="PostponeTaskInTheAgendaController-to-Repositories" style="stroke:#181818;stroke-width:1.0;stroke-dasharray:7.0,7.0;"/><polygon fill="#181818" points="241.39,556.74,239.7143,547.0347,238.6115,552.5831,233.0632,551.4803,241.39,556.74" style="stroke:#181818;stroke-width:1.0;"/></g><!--link Repositories to TaskRepository--><g id="link_Repositories_TaskRepository"><path codeLine="103" d="M265.34,698.24 C259.09,717.47 254.0857,732.8842 247.5357,753.0242 " fill="none" id="Repositories-to-TaskRepository" style="stroke:#181818;stroke-width:1.0;"/><polygon fill="#181818" points="245.68,758.73,252.2674,751.4084,247.2264,753.9751,244.6596,748.9341,245.68,758.73" style="stroke:#181818;stroke-width:1.0;"/><text fill="#000000" font-family="sans-serif" font-size="13" lengthAdjust="spacing" textLength="7" x="255.7649" y="720.0776">1</text><text fill="#000000" font-family="sans-serif" font-size="13" lengthAdjust="spacing" textLength="7" x="240.7652" y="747.6594">1</text></g><!--link Repositories to TeamRepository--><g id="link_Repositories_TeamRepository"><path codeLine="104" d="M320.55,698.24 C337,733.46 353.8516,769.5734 367.9616,799.7934 " fill="none" id="Repositories-to-TeamRepository" style="stroke:#181818;stroke-width:1.0;"/><polygon fill="#181818" points="370.5,805.23,370.3168,795.3828,368.3847,800.6995,363.068,798.7674,370.5,805.23" style="stroke:#181818;stroke-width:1.0;"/><text fill="#000000" font-family="sans-serif" font-size="13" lengthAdjust="spacing" textLength="7" x="316.4096" y="720.0776">1</text><text fill="#000000" font-family="sans-serif" font-size="13" lengthAdjust="spacing" textLength="7" x="359.8344" y="794.0911">1</text></g><!--link Repositories to GreenSpaceRepository--><g id="link_Repositories_GreenSpaceRepository"><path codeLine="105" d="M387.23,697.38 C432.42,728.75 476,759 476,759 C476,759 508.3461,785.5986 538.8261,810.6686 " fill="none" id="Repositories-to-GreenSpaceRepository" style="stroke:#181818;stroke-width:1.0;"/><polygon fill="#181818" points="543.46,814.48,539.0501,805.6736,539.5984,811.3038,533.9682,811.8521,543.46,814.48" style="stroke:#181818;stroke-width:1.0;"/><text fill="#000000" font-family="sans-serif" font-size="13" lengthAdjust="spacing" textLength="7" x="390.7005" y="719.9913">1</text><text fill="#000000" font-family="sans-serif" font-size="13" lengthAdjust="spacing" textLength="7" x="527.9865" y="803.3016">1</text></g><!--link TaskRepository to Employee--><g id="link_TaskRepository_Employee"><path codeLine="107" d="M258.74,937.09 C269.01,958.77 276.8126,975.2271 284.9226,992.3571 " fill="none" id="TaskRepository-to-Employee" style="stroke:#181818;stroke-width:1.0;"/><polygon fill="#181818" points="287.49,997.78,287.2542,987.934,285.3505,993.2609,280.0236,991.3572,287.49,997.78" style="stroke:#181818;stroke-width:1.0;"/><text fill="#000000" font-family="sans-serif" font-size="13" lengthAdjust="spacing" textLength="7" x="255.0263" y="959.5025">1</text><text fill="#000000" font-family="sans-serif" font-size="13" lengthAdjust="spacing" textLength="5" x="279.0568" y="986.824">*</text></g><!--link TeamRepository to Employee--><g id="link_TeamRepository_Employee"><path codeLine="108" d="M370.04,890.64 C354.44,923.19 335.6542,962.3898 321.2642,992.3998 " fill="none" id="TeamRepository-to-Employee" style="stroke:#181818;stroke-width:1.0;"/><polygon fill="#181818" points="318.67,997.81,326.1681,991.4242,320.8318,993.3015,318.9545,987.9653,318.67,997.81" style="stroke:#181818;stroke-width:1.0;"/><text fill="#000000" font-family="sans-serif" font-size="13" lengthAdjust="spacing" textLength="7" x="359.3011" y="912.8226">1</text><text fill="#000000" font-family="sans-serif" font-size="13" lengthAdjust="spacing" textLength="5" x="316.1805" y="986.8597">*</text></g><!--link GreenSpaceRepository to Employee--><g id="link_GreenSpaceRepository_Employee"><path codeLine="109" d="M543.46,881.52 C512.98,906.59 476,937 476,937 C476,937 418.6786,967.9875 368.7886,994.9475 " fill="none" id="GreenSpaceRepository-to-Employee" style="stroke:#181818;stroke-width:1.0;"/><polygon fill="#181818" points="363.51,997.8,373.3295,997.0403,367.9088,995.4229,369.5262,990.0022,363.51,997.8" style="stroke:#181818;stroke-width:1.0;"/><text fill="#000000" font-family="sans-serif" font-size="13" lengthAdjust="spacing" textLength="7" x="528.7935" y="903.0928">1</text><text fill="#000000" font-family="sans-serif" font-size="13" lengthAdjust="spacing" textLength="5" x="369.5682" y="986.8478">*</text></g><!--link PostponeTaskInTheAgendaController to Employee--><g id="link_PostponeTaskInTheAgendaController_Employee"><path codeLine="113" d="M138.74,496.12 C134.89,600.09 129,759 129,759 C129,759 129,937 129,937 C129,937 186.6848,967.9999 236.8548,994.9599 " fill="none" id="PostponeTaskInTheAgendaController-to-Employee" style="stroke:#181818;stroke-width:1.0;stroke-dasharray:7.0,7.0;"/><polygon fill="#181818" points="242.14,997.8,236.1056,990.0163,237.7356,995.4332,232.3187,997.0633,242.14,997.8" style="stroke:#181818;stroke-width:1.0;"/></g><!--link Employee to Tasks--><g id="link_Employee_Tasks"><path codeLine="115" d="M303,1065.18 C303,1088.74 303,1114.42 303,1137.95 " fill="none" id="Employee-to-Tasks" style="stroke:#181818;stroke-width:1.0;"/><polygon fill="#181818" points="303,1143.95,307,1134.95,303,1138.95,299,1134.95,303,1143.95" style="stroke:#181818;stroke-width:1.0;"/><text fill="#000000" font-family="sans-serif" font-size="13" lengthAdjust="spacing" textLength="186" x="304" y="1110.0283">list planned tasks in the Agenda</text><text fill="#000000" font-family="sans-serif" font-size="13" lengthAdjust="spacing" textLength="7" x="295.3766" y="1086.7813">1</text><text fill="#000000" font-family="sans-serif" font-size="13" lengthAdjust="spacing" textLength="7" x="295.3109" y="1132.7657">1</text></g><!--link Tasks to Task--><g id="link_Tasks_Task"><path codeLine="116" d="M303,1211.03 C303,1227.3 303,1242.47 303,1265.71 " fill="none" id="Tasks-to-Task" style="stroke:#181818;stroke-width:1.0;"/><polygon fill="#181818" points="303,1271.71,307,1262.71,303,1266.71,299,1262.71,303,1271.71" style="stroke:#181818;stroke-width:1.0;"/><text fill="#000000" font-family="sans-serif" font-size="13" lengthAdjust="spacing" textLength="7" x="295.3766" y="1232.6046">1</text><text fill="#000000" font-family="sans-serif" font-size="13" lengthAdjust="spacing" textLength="5" x="297.9023" y="1260.553">*</text></g><!--SRC=[ZLHDRzim3BthLmYzz2DpiLs78K2m5aM0hGkMjdVLOHsXikH9T3ils7yV6IMMbSLeVJ54FZwIZvHEmxEsZVAgbhMphbnxLuD4tu98daQLpwg29NO6f8SIbQtC413MQkLUjQtaap9Xw37Q0dODoCQPZW_Yz8ZJUNHY45KQ5S8CqUl75c5UEhlKVq1-5EBKm1DATDBhQerofRaSxQmGsnXvi_n-Fz-8l_lpmWLid8Kx5PxdzcuDimhiIZ5cubjxTYuc8v2lpg9tne0dKE7XLmi16JCutiBhbK9WIsWVQurqKcT8e0_IHj_vcxMaH78ZYWhmnWFO9OaEFw5nGQFp7QSOTxsl1ufdVnvfTC25KTR2Yfs1RGm4LVVdPi0-sjrrtHZN0L0J1m54jGrOel9u4CK8wXerqcfzbaiQkQr4iO9GUjtmP0VMi2SW6_z4GKrcPowEqc0Ro7Hjs_fMrMpc9KiyLQyY6PEaCVpUatHbbyLJfRfYXQWLSl0l6HzWhKi3d77clUg-aQ9VTiPfv9nVaLDRZAS5onyxwrE8IOZJwKLYuPEDEc93pCdvztCQyEqYhgCcVE9iFrx06zNm0fJAbAqXNu9aWqYRmKCazhX5pDGsAmhOhV-4HpfxKTgeHsqqThjYPiPaUqEc8wkr84uQGs-2toHOs1zJGSIK2g8TUL56Ruj8tUyIPd77hiX6P7U79pGCwO6QfhWHahuYCnAOZHD9D7DBQsXB4e_cDmGbo7-tB7cofeQUaPkT3uYhAzAIiMagUSY1SK9iNpzvykb4NbvEj__Hzq-8hEkYcEOoyBx6Hebtb6MRvyt7PvHWyFGnKQRcGO7K3DV8FUNoZiCohKTXnuGNuk0wxF4N9_qx9tB-ev1Zt4U1uhqIfOZ-lUKcXjBmxFXLbqsyUt51Q9mIro0ZguZ0FlGYXWhn3m00]--></g></svg>