<?xml version="1.0" encoding="us-ascii" standalone="no"?><svg xmlns="http://www.w3.org/2000/svg" xmlns:xlink="http://www.w3.org/1999/xlink" contentStyleType="text/css" height="1534px" preserveAspectRatio="none" style="width:525px;height:1534px;background:#FFFFFF;" version="1.1" viewBox="0 0 525 1534" width="525px" zoomAndPan="magnify"><defs/><g><!--class GSMUI--><g id="elem_GSMUI"><rect codeLine="11" fill="#F1F1F1" height="48" id="GSMUI" rx="2.5" ry="2.5" style="stroke:#181818;stroke-width:0.5;" width="75" x="104.5" y="7"/><ellipse cx="119.5" cy="23" fill="#ADD1B2" rx="11" ry="11" style="stroke:#181818;stroke-width:1.0;"/><path d="M122.2656,18.875 Q122.4219,18.6563 122.6094,18.5469 Q122.7969,18.4375 123.0156,18.4375 Q123.3906,18.4375 123.625,18.7031 Q123.8594,18.9531 123.8594,19.5625 L123.8594,21.0156 Q123.8594,21.625 123.625,21.8906 Q123.3906,22.1563 123.0156,22.1563 Q122.6719,22.1563 122.4688,21.9531 Q122.2656,21.7656 122.1563,21.25 Q122.1094,20.8906 121.9219,20.7031 Q121.5938,20.3281 120.9844,20.1094 Q120.375,19.8906 119.75,19.8906 Q118.9844,19.8906 118.3438,20.2188 Q117.7188,20.5469 117.2188,21.2969 Q116.7344,22.0469 116.7344,23.0781 L116.7344,24.1719 Q116.7344,25.4063 117.625,26.2344 Q118.5156,27.0469 120.1094,27.0469 Q121.0469,27.0469 121.7031,26.7969 Q122.0938,26.6406 122.5156,26.2031 Q122.7813,25.9375 122.9219,25.8594 Q123.0781,25.7813 123.2813,25.7813 Q123.6094,25.7813 123.8594,26.0469 Q124.125,26.2969 124.125,26.6406 Q124.125,26.9844 123.7813,27.3906 Q123.2813,27.9688 122.4844,28.2969 Q121.4063,28.75 120.1094,28.75 Q118.5938,28.75 117.3906,28.125 Q116.4063,27.625 115.7188,26.5625 Q115.0313,25.4844 115.0313,24.2031 L115.0313,23.0469 Q115.0313,21.7188 115.6406,20.5781 Q116.2656,19.4219 117.3594,18.8125 Q118.4531,18.1875 119.6875,18.1875 Q120.4219,18.1875 121.0625,18.3594 Q121.7188,18.5156 122.2656,18.875 Z " fill="#000000"/><text fill="#000000" font-family="sans-serif" font-size="14" lengthAdjust="spacing" textLength="43" x="133.5" y="28.7969">GSMUI</text><line style="stroke:#181818;stroke-width:0.5;" x1="105.5" x2="178.5" y1="39" y2="39"/><line style="stroke:#181818;stroke-width:0.5;" x1="105.5" x2="178.5" y1="47" y2="47"/></g><!--class PostponeTaskInTheAgendaUI--><g id="elem_PostponeTaskInTheAgendaUI"><rect codeLine="14" fill="#F1F1F1" height="141.1055" id="PostponeTaskInTheAgendaUI" rx="2.5" ry="2.5" style="stroke:#181818;stroke-width:0.5;" width="268" x="8" y="116"/><ellipse cx="44.6" cy="132" fill="#ADD1B2" rx="11" ry="11" style="stroke:#181818;stroke-width:1.0;"/><path d="M47.3656,127.875 Q47.5219,127.6563 47.7094,127.5469 Q47.8969,127.4375 48.1156,127.4375 Q48.4906,127.4375 48.725,127.7031 Q48.9594,127.9531 48.9594,128.5625 L48.9594,130.0156 Q48.9594,130.625 48.725,130.8906 Q48.4906,131.1563 48.1156,131.1563 Q47.7719,131.1563 47.5688,130.9531 Q47.3656,130.7656 47.2563,130.25 Q47.2094,129.8906 47.0219,129.7031 Q46.6938,129.3281 46.0844,129.1094 Q45.475,128.8906 44.85,128.8906 Q44.0844,128.8906 43.4438,129.2188 Q42.8188,129.5469 42.3188,130.2969 Q41.8344,131.0469 41.8344,132.0781 L41.8344,133.1719 Q41.8344,134.4063 42.725,135.2344 Q43.6156,136.0469 45.2094,136.0469 Q46.1469,136.0469 46.8031,135.7969 Q47.1938,135.6406 47.6156,135.2031 Q47.8813,134.9375 48.0219,134.8594 Q48.1781,134.7813 48.3813,134.7813 Q48.7094,134.7813 48.9594,135.0469 Q49.225,135.2969 49.225,135.6406 Q49.225,135.9844 48.8813,136.3906 Q48.3813,136.9688 47.5844,137.2969 Q46.5063,137.75 45.2094,137.75 Q43.6938,137.75 42.4906,137.125 Q41.5063,136.625 40.8188,135.5625 Q40.1313,134.4844 40.1313,133.2031 L40.1313,132.0469 Q40.1313,130.7188 40.7406,129.5781 Q41.3656,128.4219 42.4594,127.8125 Q43.5531,127.1875 44.7875,127.1875 Q45.5219,127.1875 46.1625,127.3594 Q46.8188,127.5156 47.3656,127.875 Z " fill="#000000"/><text fill="#000000" font-family="sans-serif" font-size="14" lengthAdjust="spacing" textLength="188" x="63.4" y="137.7969">PostponeTaskInTheAgendaUI</text><line style="stroke:#181818;stroke-width:0.5;" x1="9" x2="275" y1="148" y2="148"/><line style="stroke:#181818;stroke-width:0.5;" x1="9" x2="275" y1="156" y2="156"/><text fill="#000000" font-family="sans-serif" font-size="14" lengthAdjust="spacing" textLength="39" x="14" y="175.1074">+run()</text><text fill="#000000" font-family="sans-serif" font-size="14" lengthAdjust="spacing" textLength="256" x="14" y="193.7285">+PostponeTaskInTheAgendaController()</text><text fill="#000000" font-family="sans-serif" font-size="14" lengthAdjust="spacing" textLength="94" x="14" y="212.3496">-requestTask()</text><text fill="#000000" font-family="sans-serif" font-size="14" lengthAdjust="spacing" textLength="119" x="14" y="230.9707">-requestNewDate()</text><text fill="#000000" font-family="sans-serif" font-size="14" lengthAdjust="spacing" textLength="175" x="14" y="249.5918">-submitData(task, newDate)</text></g><!--class PostponeTaskInTheAgendaController--><g id="elem_PostponeTaskInTheAgendaController"><rect codeLine="22" fill="#F1F1F1" height="159.7266" id="PostponeTaskInTheAgendaController" rx="2.5" ry="2.5" style="stroke:#181818;stroke-width:0.5;" width="270" x="7" y="318"/><ellipse cx="22" cy="334" fill="#ADD1B2" rx="11" ry="11" style="stroke:#181818;stroke-width:1.0;"/><path d="M24.7656,329.875 Q24.9219,329.6563 25.1094,329.5469 Q25.2969,329.4375 25.5156,329.4375 Q25.8906,329.4375 26.125,329.7031 Q26.3594,329.9531 26.3594,330.5625 L26.3594,332.0156 Q26.3594,332.625 26.125,332.8906 Q25.8906,333.1563 25.5156,333.1563 Q25.1719,333.1563 24.9688,332.9531 Q24.7656,332.7656 24.6563,332.25 Q24.6094,331.8906 24.4219,331.7031 Q24.0938,331.3281 23.4844,331.1094 Q22.875,330.8906 22.25,330.8906 Q21.4844,330.8906 20.8438,331.2188 Q20.2188,331.5469 19.7188,332.2969 Q19.2344,333.0469 19.2344,334.0781 L19.2344,335.1719 Q19.2344,336.4063 20.125,337.2344 Q21.0156,338.0469 22.6094,338.0469 Q23.5469,338.0469 24.2031,337.7969 Q24.5938,337.6406 25.0156,337.2031 Q25.2813,336.9375 25.4219,336.8594 Q25.5781,336.7813 25.7813,336.7813 Q26.1094,336.7813 26.3594,337.0469 Q26.625,337.2969 26.625,337.6406 Q26.625,337.9844 26.2813,338.3906 Q25.7813,338.9688 24.9844,339.2969 Q23.9063,339.75 22.6094,339.75 Q21.0938,339.75 19.8906,339.125 Q18.9063,338.625 18.2188,337.5625 Q17.5313,336.4844 17.5313,335.2031 L17.5313,334.0469 Q17.5313,332.7188 18.1406,331.5781 Q18.7656,330.4219 19.8594,329.8125 Q20.9531,329.1875 22.1875,329.1875 Q22.9219,329.1875 23.5625,329.3594 Q24.2188,329.5156 24.7656,329.875 Z " fill="#000000"/><text fill="#000000" font-family="sans-serif" font-size="14" lengthAdjust="spacing" textLength="238" x="36" y="339.7969">PostponeTaskInTheAgendaController</text><line style="stroke:#181818;stroke-width:0.5;" x1="8" x2="276" y1="350" y2="350"/><text fill="#000000" font-family="sans-serif" font-size="14" lengthAdjust="spacing" textLength="99" x="13" y="369.1074">-taskRepository</text><line style="stroke:#181818;stroke-width:0.5;" x1="8" x2="276" y1="376.6211" y2="376.6211"/><text fill="#000000" font-family="sans-serif" font-size="14" lengthAdjust="spacing" textLength="256" x="13" y="395.7285">+PostponeTaskInTheAgendaController()</text><text fill="#000000" font-family="sans-serif" font-size="14" lengthAdjust="spacing" textLength="134" x="13" y="414.3496">-getTaskRepository()</text><text fill="#000000" font-family="sans-serif" font-size="14" lengthAdjust="spacing" textLength="125" x="13" y="432.9707">+listPlannedTasks()</text><text fill="#000000" font-family="sans-serif" font-size="14" lengthAdjust="spacing" textLength="112" x="13" y="451.5918">+getTeamTasks()</text><text fill="#000000" font-family="sans-serif" font-size="14" lengthAdjust="spacing" textLength="197" x="13" y="470.2129">+postponeTask(task, newDate)</text></g><!--class Employee--><g id="elem_Employee"><rect codeLine="31" fill="#F1F1F1" height="66.6211" id="Employee" rx="2.5" ry="2.5" style="stroke:#181818;stroke-width:0.5;" width="244" x="82" y="998"/><ellipse cx="168.75" cy="1014" fill="#ADD1B2" rx="11" ry="11" style="stroke:#181818;stroke-width:1.0;"/><path d="M171.5156,1009.875 Q171.6719,1009.6563 171.8594,1009.5469 Q172.0469,1009.4375 172.2656,1009.4375 Q172.6406,1009.4375 172.875,1009.7031 Q173.1094,1009.9531 173.1094,1010.5625 L173.1094,1012.0156 Q173.1094,1012.625 172.875,1012.8906 Q172.6406,1013.1563 172.2656,1013.1563 Q171.9219,1013.1563 171.7188,1012.9531 Q171.5156,1012.7656 171.4063,1012.25 Q171.3594,1011.8906 171.1719,1011.7031 Q170.8438,1011.3281 170.2344,1011.1094 Q169.625,1010.8906 169,1010.8906 Q168.2344,1010.8906 167.5938,1011.2188 Q166.9688,1011.5469 166.4688,1012.2969 Q165.9844,1013.0469 165.9844,1014.0781 L165.9844,1015.1719 Q165.9844,1016.4063 166.875,1017.2344 Q167.7656,1018.0469 169.3594,1018.0469 Q170.2969,1018.0469 170.9531,1017.7969 Q171.3438,1017.6406 171.7656,1017.2031 Q172.0313,1016.9375 172.1719,1016.8594 Q172.3281,1016.7813 172.5313,1016.7813 Q172.8594,1016.7813 173.1094,1017.0469 Q173.375,1017.2969 173.375,1017.6406 Q173.375,1017.9844 173.0313,1018.3906 Q172.5313,1018.9688 171.7344,1019.2969 Q170.6563,1019.75 169.3594,1019.75 Q167.8438,1019.75 166.6406,1019.125 Q165.6563,1018.625 164.9688,1017.5625 Q164.2813,1016.4844 164.2813,1015.2031 L164.2813,1014.0469 Q164.2813,1012.7188 164.8906,1011.5781 Q165.5156,1010.4219 166.6094,1009.8125 Q167.7031,1009.1875 168.9375,1009.1875 Q169.6719,1009.1875 170.3125,1009.3594 Q170.9688,1009.5156 171.5156,1009.875 Z " fill="#000000"/><text fill="#000000" font-family="sans-serif" font-size="14" lengthAdjust="spacing" textLength="62" x="189.25" y="1019.7969">Employee</text><line style="stroke:#181818;stroke-width:0.5;" x1="83" x2="325" y1="1030" y2="1030"/><line style="stroke:#181818;stroke-width:0.5;" x1="83" x2="325" y1="1038" y2="1038"/><text fill="#000000" font-family="sans-serif" font-size="14" lengthAdjust="spacing" textLength="232" x="88" y="1057.1074">+postponeTask(team, newStartDate)</text></g><!--class Task--><g id="elem_Task"><rect codeLine="35" fill="#F1F1F1" height="401.8008" id="Task" rx="2.5" ry="2.5" style="stroke:#181818;stroke-width:0.5;" width="257" x="192.5" y="1126"/><ellipse cx="301.25" cy="1142" fill="#ADD1B2" rx="11" ry="11" style="stroke:#181818;stroke-width:1.0;"/><path d="M304.0156,1137.875 Q304.1719,1137.6563 304.3594,1137.5469 Q304.5469,1137.4375 304.7656,1137.4375 Q305.1406,1137.4375 305.375,1137.7031 Q305.6094,1137.9531 305.6094,1138.5625 L305.6094,1140.0156 Q305.6094,1140.625 305.375,1140.8906 Q305.1406,1141.1563 304.7656,1141.1563 Q304.4219,1141.1563 304.2188,1140.9531 Q304.0156,1140.7656 303.9063,1140.25 Q303.8594,1139.8906 303.6719,1139.7031 Q303.3438,1139.3281 302.7344,1139.1094 Q302.125,1138.8906 301.5,1138.8906 Q300.7344,1138.8906 300.0938,1139.2188 Q299.4688,1139.5469 298.9688,1140.2969 Q298.4844,1141.0469 298.4844,1142.0781 L298.4844,1143.1719 Q298.4844,1144.4063 299.375,1145.2344 Q300.2656,1146.0469 301.8594,1146.0469 Q302.7969,1146.0469 303.4531,1145.7969 Q303.8438,1145.6406 304.2656,1145.2031 Q304.5313,1144.9375 304.6719,1144.8594 Q304.8281,1144.7813 305.0313,1144.7813 Q305.3594,1144.7813 305.6094,1145.0469 Q305.875,1145.2969 305.875,1145.6406 Q305.875,1145.9844 305.5313,1146.3906 Q305.0313,1146.9688 304.2344,1147.2969 Q303.1563,1147.75 301.8594,1147.75 Q300.3438,1147.75 299.1406,1147.125 Q298.1563,1146.625 297.4688,1145.5625 Q296.7813,1144.4844 296.7813,1143.2031 L296.7813,1142.0469 Q296.7813,1140.7188 297.3906,1139.5781 Q298.0156,1138.4219 299.1094,1137.8125 Q300.2031,1137.1875 301.4375,1137.1875 Q302.1719,1137.1875 302.8125,1137.3594 Q303.4688,1137.5156 304.0156,1137.875 Z " fill="#000000"/><text fill="#000000" font-family="sans-serif" font-size="14" lengthAdjust="spacing" textLength="31" x="321.75" y="1147.7969">Task</text><line style="stroke:#181818;stroke-width:0.5;" x1="193.5" x2="448.5" y1="1158" y2="1158"/><text fill="#000000" font-family="sans-serif" font-size="14" lengthAdjust="spacing" textLength="76" x="198.5" y="1177.1074">-title : String</text><text fill="#000000" font-family="sans-serif" font-size="14" lengthAdjust="spacing" textLength="123" x="198.5" y="1195.7285">-description : String</text><text fill="#000000" font-family="sans-serif" font-size="14" lengthAdjust="spacing" textLength="105" x="198.5" y="1214.3496">-startDate : Date</text><text fill="#000000" font-family="sans-serif" font-size="14" lengthAdjust="spacing" textLength="101" x="198.5" y="1232.9707">-endDate : Date</text><text fill="#000000" font-family="sans-serif" font-size="14" lengthAdjust="spacing" textLength="155" x="198.5" y="1251.5918">-taskStatus : EnumName</text><text fill="#000000" font-family="sans-serif" font-size="14" lengthAdjust="spacing" textLength="81" x="198.5" y="1270.2129">-type : String</text><text fill="#000000" font-family="sans-serif" font-size="14" lengthAdjust="spacing" textLength="174" x="198.5" y="1288.834">-greenSpace : GreenSpace</text><text fill="#000000" font-family="sans-serif" font-size="14" lengthAdjust="spacing" textLength="167" x="198.5" y="1307.4551">-taskUrgency : EnumName</text><text fill="#000000" font-family="sans-serif" font-size="14" lengthAdjust="spacing" textLength="146" x="198.5" y="1326.0762">-assignedTeam : Team</text><text fill="#000000" font-family="sans-serif" font-size="14" lengthAdjust="spacing" textLength="245" x="198.5" y="1344.6973">-assignedVehicles : ArrayList&lt;Vehicle&gt;</text><text fill="#000000" font-family="sans-serif" font-size="14" lengthAdjust="spacing" textLength="71" x="198.5" y="1363.3184">-taskID : int</text><text fill="#000000" font-family="sans-serif" font-size="14" lengthAdjust="spacing" textLength="165" x="198.5" y="1381.9395">-taskPosition : EnumName</text><line style="stroke:#181818;stroke-width:0.5;" x1="193.5" x2="448.5" y1="1389.4531" y2="1389.4531"/><text fill="#000000" font-family="sans-serif" font-size="14" lengthAdjust="spacing" textLength="128" x="198.5" y="1408.5605">+setTaskStartDate()</text><text fill="#000000" font-family="sans-serif" font-size="14" lengthAdjust="spacing" textLength="108" x="198.5" y="1427.1816">+setTaskStatus()</text><text fill="#000000" font-family="sans-serif" font-size="14" lengthAdjust="spacing" textLength="95" x="198.5" y="1445.8027">+assignTeam()</text><text fill="#000000" font-family="sans-serif" font-size="14" lengthAdjust="spacing" textLength="119" x="198.5" y="1464.4238">+getTaskPosition()</text><text fill="#000000" font-family="sans-serif" font-size="14" lengthAdjust="spacing" textLength="92" x="198.5" y="1483.0449">+setEndDate()</text><text fill="#000000" font-family="sans-serif" font-size="14" lengthAdjust="spacing" textLength="94" x="198.5" y="1501.666">+taskOverlap()</text><text fill="#000000" font-family="sans-serif" font-size="14" lengthAdjust="spacing" textLength="126" x="198.5" y="1520.2871">-calculateEndDate()</text></g><!--class TaskRepository--><g id="elem_TaskRepository"><rect codeLine="58" fill="#F1F1F1" height="178.3477" id="TaskRepository" rx="2.5" ry="2.5" style="stroke:#181818;stroke-width:0.5;" width="140" x="346" y="741"/><ellipse cx="365.05" cy="757" fill="#ADD1B2" rx="11" ry="11" style="stroke:#181818;stroke-width:1.0;"/><path d="M367.8156,752.875 Q367.9719,752.6563 368.1594,752.5469 Q368.3469,752.4375 368.5656,752.4375 Q368.9406,752.4375 369.175,752.7031 Q369.4094,752.9531 369.4094,753.5625 L369.4094,755.0156 Q369.4094,755.625 369.175,755.8906 Q368.9406,756.1563 368.5656,756.1563 Q368.2219,756.1563 368.0188,755.9531 Q367.8156,755.7656 367.7063,755.25 Q367.6594,754.8906 367.4719,754.7031 Q367.1438,754.3281 366.5344,754.1094 Q365.925,753.8906 365.3,753.8906 Q364.5344,753.8906 363.8938,754.2188 Q363.2688,754.5469 362.7688,755.2969 Q362.2844,756.0469 362.2844,757.0781 L362.2844,758.1719 Q362.2844,759.4063 363.175,760.2344 Q364.0656,761.0469 365.6594,761.0469 Q366.5969,761.0469 367.2531,760.7969 Q367.6438,760.6406 368.0656,760.2031 Q368.3313,759.9375 368.4719,759.8594 Q368.6281,759.7813 368.8313,759.7813 Q369.1594,759.7813 369.4094,760.0469 Q369.675,760.2969 369.675,760.6406 Q369.675,760.9844 369.3313,761.3906 Q368.8313,761.9688 368.0344,762.2969 Q366.9563,762.75 365.6594,762.75 Q364.1438,762.75 362.9406,762.125 Q361.9563,761.625 361.2688,760.5625 Q360.5813,759.4844 360.5813,758.2031 L360.5813,757.0469 Q360.5813,755.7188 361.1906,754.5781 Q361.8156,753.4219 362.9094,752.8125 Q364.0031,752.1875 365.2375,752.1875 Q365.9719,752.1875 366.6125,752.3594 Q367.2688,752.5156 367.8156,752.875 Z " fill="#000000"/><text fill="#000000" font-family="sans-serif" font-size="14" lengthAdjust="spacing" textLength="99" x="379.95" y="762.7969">TaskRepository</text><line style="stroke:#181818;stroke-width:0.5;" x1="347" x2="485" y1="773" y2="773"/><line style="stroke:#181818;stroke-width:0.5;" x1="347" x2="485" y1="781" y2="781"/><text fill="#000000" font-family="sans-serif" font-size="14" lengthAdjust="spacing" textLength="87" x="352" y="800.1074">+getAgenda()</text><text fill="#000000" font-family="sans-serif" font-size="14" lengthAdjust="spacing" textLength="93" x="352" y="818.7285">+updateTask()</text><text fill="#000000" font-family="sans-serif" font-size="14" lengthAdjust="spacing" textLength="115" x="352" y="837.3496">+teamAvailability()</text><text fill="#000000" font-family="sans-serif" font-size="14" lengthAdjust="spacing" textLength="127" x="352" y="855.9707">+getAllTeamTasks()</text><text fill="#000000" font-family="sans-serif" font-size="14" lengthAdjust="spacing" textLength="128" x="352" y="874.5918">+getPlannedTasks()</text><text fill="#000000" font-family="sans-serif" font-size="14" lengthAdjust="spacing" textLength="128" x="352" y="893.2129">+getPendingTasks()</text><text fill="#000000" font-family="sans-serif" font-size="14" lengthAdjust="spacing" textLength="91" x="352" y="911.834">+existsTasks()</text></g><!--class TeamRepository--><g id="elem_TeamRepository"><rect codeLine="68" fill="#F1F1F1" height="85.2422" id="TeamRepository" rx="2.5" ry="2.5" style="stroke:#181818;stroke-width:0.5;" width="136" x="175" y="787.5"/><ellipse cx="190" cy="803.5" fill="#ADD1B2" rx="11" ry="11" style="stroke:#181818;stroke-width:1.0;"/><path d="M192.7656,799.375 Q192.9219,799.1563 193.1094,799.0469 Q193.2969,798.9375 193.5156,798.9375 Q193.8906,798.9375 194.125,799.2031 Q194.3594,799.4531 194.3594,800.0625 L194.3594,801.5156 Q194.3594,802.125 194.125,802.3906 Q193.8906,802.6563 193.5156,802.6563 Q193.1719,802.6563 192.9688,802.4531 Q192.7656,802.2656 192.6563,801.75 Q192.6094,801.3906 192.4219,801.2031 Q192.0938,800.8281 191.4844,800.6094 Q190.875,800.3906 190.25,800.3906 Q189.4844,800.3906 188.8438,800.7188 Q188.2188,801.0469 187.7188,801.7969 Q187.2344,802.5469 187.2344,803.5781 L187.2344,804.6719 Q187.2344,805.9063 188.125,806.7344 Q189.0156,807.5469 190.6094,807.5469 Q191.5469,807.5469 192.2031,807.2969 Q192.5938,807.1406 193.0156,806.7031 Q193.2813,806.4375 193.4219,806.3594 Q193.5781,806.2813 193.7813,806.2813 Q194.1094,806.2813 194.3594,806.5469 Q194.625,806.7969 194.625,807.1406 Q194.625,807.4844 194.2813,807.8906 Q193.7813,808.4688 192.9844,808.7969 Q191.9063,809.25 190.6094,809.25 Q189.0938,809.25 187.8906,808.625 Q186.9063,808.125 186.2188,807.0625 Q185.5313,805.9844 185.5313,804.7031 L185.5313,803.5469 Q185.5313,802.2188 186.1406,801.0781 Q186.7656,799.9219 187.8594,799.3125 Q188.9531,798.6875 190.1875,798.6875 Q190.9219,798.6875 191.5625,798.8594 Q192.2188,799.0156 192.7656,799.375 Z " fill="#000000"/><text fill="#000000" font-family="sans-serif" font-size="14" lengthAdjust="spacing" textLength="104" x="204" y="809.2969">TeamRepository</text><line style="stroke:#181818;stroke-width:0.5;" x1="176" x2="310" y1="819.5" y2="819.5"/><line style="stroke:#181818;stroke-width:0.5;" x1="176" x2="310" y1="827.5" y2="827.5"/><text fill="#000000" font-family="sans-serif" font-size="14" lengthAdjust="spacing" textLength="100" x="181" y="846.6074">-validateTeam()</text><text fill="#000000" font-family="sans-serif" font-size="14" lengthAdjust="spacing" textLength="96" x="181" y="865.2285">+getAllTeams()</text></g><!--class Repositories--><g id="elem_Repositories"><rect codeLine="73" fill="#F1F1F1" height="141.1055" id="Repositories" rx="2.5" ry="2.5" style="stroke:#181818;stroke-width:0.5;" width="194" x="175" y="539"/><ellipse cx="228.25" cy="555" fill="#ADD1B2" rx="11" ry="11" style="stroke:#181818;stroke-width:1.0;"/><path d="M231.0156,550.875 Q231.1719,550.6563 231.3594,550.5469 Q231.5469,550.4375 231.7656,550.4375 Q232.1406,550.4375 232.375,550.7031 Q232.6094,550.9531 232.6094,551.5625 L232.6094,553.0156 Q232.6094,553.625 232.375,553.8906 Q232.1406,554.1563 231.7656,554.1563 Q231.4219,554.1563 231.2188,553.9531 Q231.0156,553.7656 230.9063,553.25 Q230.8594,552.8906 230.6719,552.7031 Q230.3438,552.3281 229.7344,552.1094 Q229.125,551.8906 228.5,551.8906 Q227.7344,551.8906 227.0938,552.2188 Q226.4688,552.5469 225.9688,553.2969 Q225.4844,554.0469 225.4844,555.0781 L225.4844,556.1719 Q225.4844,557.4063 226.375,558.2344 Q227.2656,559.0469 228.8594,559.0469 Q229.7969,559.0469 230.4531,558.7969 Q230.8438,558.6406 231.2656,558.2031 Q231.5313,557.9375 231.6719,557.8594 Q231.8281,557.7813 232.0313,557.7813 Q232.3594,557.7813 232.6094,558.0469 Q232.875,558.2969 232.875,558.6406 Q232.875,558.9844 232.5313,559.3906 Q232.0313,559.9688 231.2344,560.2969 Q230.1563,560.75 228.8594,560.75 Q227.3438,560.75 226.1406,560.125 Q225.1563,559.625 224.4688,558.5625 Q223.7813,557.4844 223.7813,556.2031 L223.7813,555.0469 Q223.7813,553.7188 224.3906,552.5781 Q225.0156,551.4219 226.1094,550.8125 Q227.2031,550.1875 228.4375,550.1875 Q229.1719,550.1875 229.8125,550.3594 Q230.4688,550.5156 231.0156,550.875 Z " fill="#000000"/><text fill="#000000" font-family="sans-serif" font-size="14" lengthAdjust="spacing" textLength="79" x="248.75" y="560.7969">Repositories</text><line style="stroke:#181818;stroke-width:0.5;" x1="176" x2="368" y1="571" y2="571"/><line style="stroke:#181818;stroke-width:0.5;" x1="176" x2="368" y1="579" y2="579"/><text fill="#000000" font-family="sans-serif" font-size="14" lengthAdjust="spacing" textLength="94" x="181" y="598.1074">-Repositories()</text><text fill="#000000" font-family="sans-serif" font-size="14" lengthAdjust="spacing" textLength="182" x="181" y="616.7285">+getInstance() : Repositories</text><text fill="#000000" font-family="sans-serif" font-size="14" lengthAdjust="spacing" textLength="137" x="181" y="635.3496">+getTaskRepository()</text><text fill="#000000" font-family="sans-serif" font-size="14" lengthAdjust="spacing" textLength="168" x="181" y="653.9707">+getEmployeeRepository()</text><text fill="#000000" font-family="sans-serif" font-size="14" lengthAdjust="spacing" textLength="152" x="181" y="672.5918">+getVehicleRepository()</text></g><!--class Tasks--><g id="elem_Tasks"><rect codeLine="82" fill="#F1F1F1" height="66.6211" id="Tasks" rx="2.5" ry="2.5" style="stroke:#181818;stroke-width:0.5;" width="157" x="361.5" y="998"/><ellipse cx="416.75" cy="1014" fill="#ADD1B2" rx="11" ry="11" style="stroke:#181818;stroke-width:1.0;"/><path d="M419.5156,1009.875 Q419.6719,1009.6563 419.8594,1009.5469 Q420.0469,1009.4375 420.2656,1009.4375 Q420.6406,1009.4375 420.875,1009.7031 Q421.1094,1009.9531 421.1094,1010.5625 L421.1094,1012.0156 Q421.1094,1012.625 420.875,1012.8906 Q420.6406,1013.1563 420.2656,1013.1563 Q419.9219,1013.1563 419.7188,1012.9531 Q419.5156,1012.7656 419.4063,1012.25 Q419.3594,1011.8906 419.1719,1011.7031 Q418.8438,1011.3281 418.2344,1011.1094 Q417.625,1010.8906 417,1010.8906 Q416.2344,1010.8906 415.5938,1011.2188 Q414.9688,1011.5469 414.4688,1012.2969 Q413.9844,1013.0469 413.9844,1014.0781 L413.9844,1015.1719 Q413.9844,1016.4063 414.875,1017.2344 Q415.7656,1018.0469 417.3594,1018.0469 Q418.2969,1018.0469 418.9531,1017.7969 Q419.3438,1017.6406 419.7656,1017.2031 Q420.0313,1016.9375 420.1719,1016.8594 Q420.3281,1016.7813 420.5313,1016.7813 Q420.8594,1016.7813 421.1094,1017.0469 Q421.375,1017.2969 421.375,1017.6406 Q421.375,1017.9844 421.0313,1018.3906 Q420.5313,1018.9688 419.7344,1019.2969 Q418.6563,1019.75 417.3594,1019.75 Q415.8438,1019.75 414.6406,1019.125 Q413.6563,1018.625 412.9688,1017.5625 Q412.2813,1016.4844 412.2813,1015.2031 L412.2813,1014.0469 Q412.2813,1012.7188 412.8906,1011.5781 Q413.5156,1010.4219 414.6094,1009.8125 Q415.7031,1009.1875 416.9375,1009.1875 Q417.6719,1009.1875 418.3125,1009.3594 Q418.9688,1009.5156 419.5156,1009.875 Z " fill="#000000"/><text fill="#000000" font-family="sans-serif" font-size="14" lengthAdjust="spacing" textLength="38" x="437.25" y="1019.7969">Tasks</text><line style="stroke:#181818;stroke-width:0.5;" x1="362.5" x2="517.5" y1="1030" y2="1030"/><text fill="#000000" font-family="sans-serif" font-size="14" lengthAdjust="spacing" textLength="145" x="367.5" y="1049.1074">-ArrayList&lt;Task&gt; tasks</text><line style="stroke:#181818;stroke-width:0.5;" x1="362.5" x2="517.5" y1="1056.6211" y2="1056.6211"/></g><!--link GSMUI to PostponeTaskInTheAgendaUI--><g id="link_GSMUI_PostponeTaskInTheAgendaUI"><path codeLine="88" d="M142,55.31 C142,71.5 142,87.98 142,109.71 " fill="none" id="GSMUI-to-PostponeTaskInTheAgendaUI" style="stroke:#181818;stroke-width:1.0;stroke-dasharray:7.0,7.0;"/><polygon fill="#181818" points="142,115.71,146,106.71,142,110.71,138,106.71,142,115.71" style="stroke:#181818;stroke-width:1.0;"/><text fill="#000000" font-family="sans-serif" font-size="13" lengthAdjust="spacing" textLength="7" x="134.1906" y="76.9593">1</text><text fill="#000000" font-family="sans-serif" font-size="13" lengthAdjust="spacing" textLength="7" x="134.6391" y="104.5711">1</text></g><!--link Repositories to Repositories--><g id="link_Repositories_Repositories"><path codeLine="90" d="M369.28,591.41 C389.48,593.31 404,599.34 404,609.5 C404,619.66 395.4536,625.1281 375.2536,627.0281 " fill="none" id="Repositories-to-Repositories" style="stroke:#181818;stroke-width:1.0;"/><polygon fill="#181818" points="369.28,627.59,378.615,630.7296,374.258,627.1218,377.8659,622.7648,369.28,627.59" style="stroke:#181818;stroke-width:1.0;"/><text fill="#000000" font-family="sans-serif" font-size="13" lengthAdjust="spacing" textLength="49" x="410" y="615.0283">instance</text></g><!--link PostponeTaskInTheAgendaUI to PostponeTaskInTheAgendaController--><g id="link_PostponeTaskInTheAgendaUI_PostponeTaskInTheAgendaController"><path codeLine="93" d="M142,257.26 C142,276.66 142,291.87 142,311.78 " fill="none" id="PostponeTaskInTheAgendaUI-to-PostponeTaskInTheAgendaController" style="stroke:#181818;stroke-width:1.0;stroke-dasharray:7.0,7.0;"/><polygon fill="#181818" points="142,317.78,146,308.78,142,312.78,138,308.78,142,317.78" style="stroke:#181818;stroke-width:1.0;"/></g><!--link PostponeTaskInTheAgendaController to Repositories--><g id="link_PostponeTaskInTheAgendaController_Repositories"><path codeLine="95" d="M191.15,478.2 C203.51,498.13 213.5365,514.2817 225.5865,533.7017 " fill="none" id="PostponeTaskInTheAgendaController-to-Repositories" style="stroke:#181818;stroke-width:1.0;stroke-dasharray:7.0,7.0;"/><polygon fill="#181818" points="228.75,538.8,227.4037,529.0436,226.1138,534.5514,220.606,533.2615,228.75,538.8" style="stroke:#181818;stroke-width:1.0;"/></g><!--link Repositories to TaskRepository--><g id="link_Repositories_TaskRepository"><path codeLine="98" d="M317.96,680.24 C330.63,699.47 341.2488,715.5798 354.5188,735.7198 " fill="none" id="Repositories-to-TaskRepository" style="stroke:#181818;stroke-width:1.0;"/><polygon fill="#181818" points="357.82,740.73,356.2084,731.0139,355.069,736.5548,349.5281,735.4155,357.82,740.73" style="stroke:#181818;stroke-width:1.0;"/><text fill="#000000" font-family="sans-serif" font-size="13" lengthAdjust="spacing" textLength="7" x="315.1397" y="702.0776">1</text><text fill="#000000" font-family="sans-serif" font-size="13" lengthAdjust="spacing" textLength="7" x="345.7121" y="729.6594">1</text></g><!--link Repositories to TeamRepository--><g id="link_Repositories_TeamRepository"><path codeLine="99" d="M262.74,680.24 C258.07,715.46 253.3512,751.0624 249.3312,781.2824 " fill="none" id="Repositories-to-TeamRepository" style="stroke:#181818;stroke-width:1.0;"/><polygon fill="#181818" points="248.54,787.23,253.6918,778.836,249.1993,782.2737,245.7617,777.7811,248.54,787.23" style="stroke:#181818;stroke-width:1.0;"/><text fill="#000000" font-family="sans-serif" font-size="13" lengthAdjust="spacing" textLength="7" x="254.4839" y="702.0776">1</text><text fill="#000000" font-family="sans-serif" font-size="13" lengthAdjust="spacing" textLength="7" x="241.8651" y="776.0911">1</text></g><!--link TaskRepository to Employee--><g id="link_TaskRepository_Employee"><path codeLine="101" d="M345.77,902.03 C335.88,912.04 329,919 329,919 C329,919 281.8678,961.0464 244.9678,993.9564 " fill="none" id="TaskRepository-to-Employee" style="stroke:#181818;stroke-width:1.0;"/><polygon fill="#181818" points="240.49,997.95,249.8692,994.9448,244.2215,994.622,244.5443,988.9743,240.49,997.95" style="stroke:#181818;stroke-width:1.0;"/><text fill="#000000" font-family="sans-serif" font-size="13" lengthAdjust="spacing" textLength="7" x="331.1666" y="905.6069">1</text><text fill="#000000" font-family="sans-serif" font-size="13" lengthAdjust="spacing" textLength="5" x="242.1818" y="986.7657">*</text></g><!--link TeamRepository to Employee--><g id="link_TeamRepository_Employee"><path codeLine="102" d="M234.82,872.82 C227.54,910.07 218.1908,957.9214 211.5208,992.0514 " fill="none" id="TeamRepository-to-Employee" style="stroke:#181818;stroke-width:1.0;"/><polygon fill="#181818" points="210.37,997.94,216.0219,989.8743,211.329,993.0328,208.1705,988.3399,210.37,997.94" style="stroke:#181818;stroke-width:1.0;"/><text fill="#000000" font-family="sans-serif" font-size="13" lengthAdjust="spacing" textLength="7" x="226.0315" y="894.7104">1</text><text fill="#000000" font-family="sans-serif" font-size="13" lengthAdjust="spacing" textLength="5" x="206.1319" y="986.7537">*</text></g><!--link Employee to Task--><g id="link_Employee_Task"><path codeLine="104" d="M216.97,1065.03 C223.45,1081.3 229.667,1096.897 238.937,1120.137 " fill="none" id="Employee-to-Task" style="stroke:#181818;stroke-width:1.0;"/><polygon fill="#181818" points="241.16,1125.71,241.5409,1115.8685,239.3075,1121.0658,234.1102,1118.8325,241.16,1125.71" style="stroke:#181818;stroke-width:1.0;"/><text fill="#000000" font-family="sans-serif" font-size="13" lengthAdjust="spacing" textLength="7" x="211.6568" y="1086.6046">1</text><text fill="#000000" font-family="sans-serif" font-size="13" lengthAdjust="spacing" textLength="5" x="232.9436" y="1114.553">*</text></g><!--link PostponeTaskInTheAgendaController to Employee--><g id="link_PostponeTaskInTheAgendaController_Employee"><path codeLine="107" d="M144.29,478.26 C148.49,623.83 157,919 157,919 C157,919 174.0798,959.511 187.9498,992.421 " fill="none" id="PostponeTaskInTheAgendaController-to-Employee" style="stroke:#181818;stroke-width:1.0;stroke-dasharray:7.0,7.0;"/><polygon fill="#181818" points="190.28,997.95,190.4707,988.103,188.3382,993.3425,183.0987,991.2099,190.28,997.95" style="stroke:#181818;stroke-width:1.0;"/></g><!--link TaskRepository to Tasks--><g id="link_TaskRepository_Tasks"><path codeLine="109" d="M426.6,919.08 C429.96,947.06 432.7651,970.3127 435.3451,991.8127 " fill="none" id="TaskRepository-to-Tasks" style="stroke:#181818;stroke-width:1.0;"/><polygon fill="#181818" points="436.06,997.77,438.9592,988.3575,435.4643,992.8056,431.0162,989.3107,436.06,997.77" style="stroke:#181818;stroke-width:1.0;"/><text fill="#000000" font-family="sans-serif" font-size="13" lengthAdjust="spacing" textLength="53" x="433" y="964.0283">list tasks</text><text fill="#000000" font-family="sans-serif" font-size="13" lengthAdjust="spacing" textLength="7" x="420.2102" y="941.4917">1</text><text fill="#000000" font-family="sans-serif" font-size="13" lengthAdjust="spacing" textLength="7" x="427.6418" y="986.8121">1</text></g><!--link Tasks to Task--><g id="link_Tasks_Task"><path codeLine="110" d="M426.81,1065.03 C420.21,1081.3 413.8839,1096.9094 404.4639,1120.1494 " fill="none" id="Tasks-to-Task" style="stroke:#181818;stroke-width:1.0;"/><polygon fill="#181818" points="402.21,1125.71,409.2979,1118.8717,404.0882,1121.0762,401.8838,1115.8665,402.21,1125.71" style="stroke:#181818;stroke-width:1.0;"/><text fill="#000000" font-family="sans-serif" font-size="13" lengthAdjust="spacing" textLength="7" x="416.8371" y="1086.6046">1</text><text fill="#000000" font-family="sans-serif" font-size="13" lengthAdjust="spacing" textLength="5" x="400.2846" y="1114.553">*</text></g><!--SRC=[ZLHDRzim3BthLmYzf5tcOhiEGu1W3Oe0MnSiRU-Ampf2PScJw7PUiVy-qdOiAqtGvcBmaNpyUj4aF6fRAQzAMJhhyfrt9KZqDOZegLJ-g0fOOsD0UiXHsSAC0y9ERTspjeLyK2QCFKPRmAO2MJdJi24cHvpEenEZhDoe4EQ8NczgX6Nkx5h_1Vb9Y8c11vJefDV53kLMSplQMI7Q77cz_d6tV17_zlRA1QoSXLiL7fVsTWVp0knMSSpKr_RyGanFX7np5hqp1Zm5PHv-rn2GOqRc3JnVAGH6GhqfDPAbpf62FahR-IxUx2KMaYyYavpz2oeND3hVlBEz0jhMOXuFPdJ0bL7MmfQTWJ4E15KETZLYFzduegoCQm2eluC4eceJrgWy7cHn10s46aarN-IQhcaBaMqXv5vNVBGH6lO4XF57P3HaOdDpL0RhGD32rkMDAXbc_KIUmWFODGcMmUl1wDBlFAqkRv9ywbGNl24QXHpyYU0zx7HkW2lElLVDTzhernwSTPpBAt9gYvsrulLtamqbn3HqrncMn8kF64t4G5UJw-_lDEBhCnRTJjZYQZ-Vm1jLiG1oPVBQa2-698U8ok0Z4dkd8cQggoqbzCgUyaddJqeRjT56OzCtCpScqGr1HwIr8auwmm317rfOs9kn8MAA3P56dfJHRHDn-hvWaZVaQ3h9Yv3qonAGWXcSIY9OMjAKpMaJT8nnK0nvzPSPF7l57_Vs2aYSwRgvlInAXg5P-yyE72T4-qp9iyzdyl9ordvFFbH296DdsIpT0wklcvHuJxAqTTvyIauIZDue9ahMUT0W3SCzyapfVa-79N8Gua2l-yWFPyD39DAKeo5YUBMuHkzcQl7UAIFLwuxaU4O-0Z-s_OKxQ5HLTcN_0m00]--></g></svg>