<?xml version="1.0" encoding="us-ascii" standalone="no"?><svg xmlns="http://www.w3.org/2000/svg" xmlns:xlink="http://www.w3.org/1999/xlink" contentStyleType="text/css" height="1129px" preserveAspectRatio="none" style="width:1113px;height:1129px;background:#FFFFFF;" version="1.1" viewBox="0 0 1113 1129" width="1113px" zoomAndPan="magnify"><defs/><g><!--class RegisterGreenSpaceUI--><g id="elem_RegisterGreenSpaceUI"><rect codeLine="11" fill="#F1F1F1" height="48" id="RegisterGreenSpaceUI" rx="2.5" ry="2.5" style="stroke:#181818;stroke-width:0.5;" width="177" x="7" y="100"/><ellipse cx="22" cy="116" fill="#ADD1B2" rx="11" ry="11" style="stroke:#181818;stroke-width:1.0;"/><path d="M24.7656,111.875 Q24.9219,111.6563 25.1094,111.5469 Q25.2969,111.4375 25.5156,111.4375 Q25.8906,111.4375 26.125,111.7031 Q26.3594,111.9531 26.3594,112.5625 L26.3594,114.0156 Q26.3594,114.625 26.125,114.8906 Q25.8906,115.1563 25.5156,115.1563 Q25.1719,115.1563 24.9688,114.9531 Q24.7656,114.7656 24.6563,114.25 Q24.6094,113.8906 24.4219,113.7031 Q24.0938,113.3281 23.4844,113.1094 Q22.875,112.8906 22.25,112.8906 Q21.4844,112.8906 20.8438,113.2188 Q20.2188,113.5469 19.7188,114.2969 Q19.2344,115.0469 19.2344,116.0781 L19.2344,117.1719 Q19.2344,118.4063 20.125,119.2344 Q21.0156,120.0469 22.6094,120.0469 Q23.5469,120.0469 24.2031,119.7969 Q24.5938,119.6406 25.0156,119.2031 Q25.2813,118.9375 25.4219,118.8594 Q25.5781,118.7813 25.7813,118.7813 Q26.1094,118.7813 26.3594,119.0469 Q26.625,119.2969 26.625,119.6406 Q26.625,119.9844 26.2813,120.3906 Q25.7813,120.9688 24.9844,121.2969 Q23.9063,121.75 22.6094,121.75 Q21.0938,121.75 19.8906,121.125 Q18.9063,120.625 18.2188,119.5625 Q17.5313,118.4844 17.5313,117.2031 L17.5313,116.0469 Q17.5313,114.7188 18.1406,113.5781 Q18.7656,112.4219 19.8594,111.8125 Q20.9531,111.1875 22.1875,111.1875 Q22.9219,111.1875 23.5625,111.3594 Q24.2188,111.5156 24.7656,111.875 Z " fill="#000000"/><text fill="#000000" font-family="sans-serif" font-size="14" lengthAdjust="spacing" textLength="145" x="36" y="121.7969">RegisterGreenSpaceUI</text><line style="stroke:#181818;stroke-width:0.5;" x1="8" x2="183" y1="132" y2="132"/><line style="stroke:#181818;stroke-width:0.5;" x1="8" x2="183" y1="140" y2="140"/></g><!--class RegisterGreenSpaceController--><g id="elem_RegisterGreenSpaceController"><rect codeLine="15" fill="#F1F1F1" height="234.2109" id="RegisterGreenSpaceController" rx="2.5" ry="2.5" style="stroke:#181818;stroke-width:0.5;" width="887" x="219" y="7"/><ellipse cx="560.75" cy="23" fill="#ADD1B2" rx="11" ry="11" style="stroke:#181818;stroke-width:1.0;"/><path d="M563.5156,18.875 Q563.6719,18.6563 563.8594,18.5469 Q564.0469,18.4375 564.2656,18.4375 Q564.6406,18.4375 564.875,18.7031 Q565.1094,18.9531 565.1094,19.5625 L565.1094,21.0156 Q565.1094,21.625 564.875,21.8906 Q564.6406,22.1563 564.2656,22.1563 Q563.9219,22.1563 563.7188,21.9531 Q563.5156,21.7656 563.4063,21.25 Q563.3594,20.8906 563.1719,20.7031 Q562.8438,20.3281 562.2344,20.1094 Q561.625,19.8906 561,19.8906 Q560.2344,19.8906 559.5938,20.2188 Q558.9688,20.5469 558.4688,21.2969 Q557.9844,22.0469 557.9844,23.0781 L557.9844,24.1719 Q557.9844,25.4063 558.875,26.2344 Q559.7656,27.0469 561.3594,27.0469 Q562.2969,27.0469 562.9531,26.7969 Q563.3438,26.6406 563.7656,26.2031 Q564.0313,25.9375 564.1719,25.8594 Q564.3281,25.7813 564.5313,25.7813 Q564.8594,25.7813 565.1094,26.0469 Q565.375,26.2969 565.375,26.6406 Q565.375,26.9844 565.0313,27.3906 Q564.5313,27.9688 563.7344,28.2969 Q562.6563,28.75 561.3594,28.75 Q559.8438,28.75 558.6406,28.125 Q557.6563,27.625 556.9688,26.5625 Q556.2813,25.4844 556.2813,24.2031 L556.2813,23.0469 Q556.2813,21.7188 556.8906,20.5781 Q557.5156,19.4219 558.6094,18.8125 Q559.7031,18.1875 560.9375,18.1875 Q561.6719,18.1875 562.3125,18.3594 Q562.9688,18.5156 563.5156,18.875 Z " fill="#000000"/><text fill="#000000" font-family="sans-serif" font-size="14" lengthAdjust="spacing" textLength="195" x="581.25" y="28.7969">RegisterGreenSpaceController</text><line style="stroke:#181818;stroke-width:0.5;" x1="220" x2="1105" y1="39" y2="39"/><line style="stroke:#181818;stroke-width:0.5;" x1="220" x2="1105" y1="47" y2="47"/><text fill="#000000" font-family="sans-serif" font-size="14" lengthAdjust="spacing" textLength="254" x="225" y="66.1074">+initializeRegisterGreenSpaceUI () : void</text><text fill="#000000" font-family="sans-serif" font-size="14" lengthAdjust="spacing" textLength="232" x="225" y="84.7285">+handleRegisterButtonAction() : void</text><text fill="#000000" font-family="sans-serif" font-size="14" lengthAdjust="spacing" textLength="275" x="225" y="103.3496">+parseAreaField(areaText : String) : double</text><text fill="#000000" font-family="sans-serif" font-size="14" lengthAdjust="spacing" textLength="136" x="225" y="121.9707">+validateInput() : void</text><text fill="#000000" font-family="sans-serif" font-size="14" lengthAdjust="spacing" textLength="309" x="225" y="140.5918">+getEmployeeRepository() : employeeRepository</text><text fill="#000000" font-family="sans-serif" font-size="14" lengthAdjust="spacing" textLength="304" x="225" y="159.2129">+getAuthRepository() : authenticationRepository</text><text fill="#000000" font-family="sans-serif" font-size="14" lengthAdjust="spacing" textLength="252" x="225" y="177.834">+currentUserLogInValidation() : boolean</text><text fill="#000000" font-family="sans-serif" font-size="14" lengthAdjust="spacing" textLength="237" x="225" y="196.4551">+matchEmployeeByRole() : Employee</text><text fill="#000000" font-family="sans-serif" font-size="14" lengthAdjust="spacing" textLength="211" x="225" y="215.0762">+setGreenSpaceManager() : void</text><text fill="#000000" font-family="sans-serif" font-size="14" lengthAdjust="spacing" textLength="875" x="225" y="233.6973">+registerGreenSpace(name: String, address: String, area: double, typology : String, greenSpaceManager: String) : Optional&lt;GreenSpace&gt;</text></g><!--class Repositories--><g id="elem_Repositories"><rect codeLine="29" fill="#F1F1F1" height="122.4844" id="Repositories" rx="2.5" ry="2.5" style="stroke:#181818;stroke-width:0.5;" width="321" x="305" y="320"/><ellipse cx="421.75" cy="336" fill="#ADD1B2" rx="11" ry="11" style="stroke:#181818;stroke-width:1.0;"/><path d="M424.5156,331.875 Q424.6719,331.6563 424.8594,331.5469 Q425.0469,331.4375 425.2656,331.4375 Q425.6406,331.4375 425.875,331.7031 Q426.1094,331.9531 426.1094,332.5625 L426.1094,334.0156 Q426.1094,334.625 425.875,334.8906 Q425.6406,335.1563 425.2656,335.1563 Q424.9219,335.1563 424.7188,334.9531 Q424.5156,334.7656 424.4063,334.25 Q424.3594,333.8906 424.1719,333.7031 Q423.8438,333.3281 423.2344,333.1094 Q422.625,332.8906 422,332.8906 Q421.2344,332.8906 420.5938,333.2188 Q419.9688,333.5469 419.4688,334.2969 Q418.9844,335.0469 418.9844,336.0781 L418.9844,337.1719 Q418.9844,338.4063 419.875,339.2344 Q420.7656,340.0469 422.3594,340.0469 Q423.2969,340.0469 423.9531,339.7969 Q424.3438,339.6406 424.7656,339.2031 Q425.0313,338.9375 425.1719,338.8594 Q425.3281,338.7813 425.5313,338.7813 Q425.8594,338.7813 426.1094,339.0469 Q426.375,339.2969 426.375,339.6406 Q426.375,339.9844 426.0313,340.3906 Q425.5313,340.9688 424.7344,341.2969 Q423.6563,341.75 422.3594,341.75 Q420.8438,341.75 419.6406,341.125 Q418.6563,340.625 417.9688,339.5625 Q417.2813,338.4844 417.2813,337.2031 L417.2813,336.0469 Q417.2813,334.7188 417.8906,333.5781 Q418.5156,332.4219 419.6094,331.8125 Q420.7031,331.1875 421.9375,331.1875 Q422.6719,331.1875 423.3125,331.3594 Q423.9688,331.5156 424.5156,331.875 Z " fill="#000000"/><text fill="#000000" font-family="sans-serif" font-size="14" lengthAdjust="spacing" textLength="79" x="442.25" y="341.7969">Repositories</text><line style="stroke:#181818;stroke-width:0.5;" x1="306" x2="625" y1="352" y2="352"/><line style="stroke:#181818;stroke-width:0.5;" x1="306" x2="625" y1="360" y2="360"/><text fill="#000000" font-family="sans-serif" font-size="14" lengthAdjust="spacing" textLength="94" x="311" y="379.1074">-Repositories()</text><text fill="#000000" font-family="sans-serif" font-size="14" lengthAdjust="spacing" textLength="182" x="311" y="397.7285">+getInstance() : Repositories</text><text fill="#000000" font-family="sans-serif" font-size="14" lengthAdjust="spacing" textLength="309" x="311" y="416.3496">+getEmployeeRepository() : employeeRepository</text><text fill="#000000" font-family="sans-serif" font-size="14" lengthAdjust="spacing" textLength="304" x="311" y="434.9707">+getAuthRepository() : authenticationRepository</text></g><!--class Employee--><g id="elem_Employee"><rect codeLine="37" fill="#F1F1F1" height="271.4531" id="Employee" rx="2.5" ry="2.5" style="stroke:#181818;stroke-width:0.5;" width="887" x="128" y="631"/><ellipse cx="536.25" cy="647" fill="#ADD1B2" rx="11" ry="11" style="stroke:#181818;stroke-width:1.0;"/><path d="M539.0156,642.875 Q539.1719,642.6563 539.3594,642.5469 Q539.5469,642.4375 539.7656,642.4375 Q540.1406,642.4375 540.375,642.7031 Q540.6094,642.9531 540.6094,643.5625 L540.6094,645.0156 Q540.6094,645.625 540.375,645.8906 Q540.1406,646.1563 539.7656,646.1563 Q539.4219,646.1563 539.2188,645.9531 Q539.0156,645.7656 538.9063,645.25 Q538.8594,644.8906 538.6719,644.7031 Q538.3438,644.3281 537.7344,644.1094 Q537.125,643.8906 536.5,643.8906 Q535.7344,643.8906 535.0938,644.2188 Q534.4688,644.5469 533.9688,645.2969 Q533.4844,646.0469 533.4844,647.0781 L533.4844,648.1719 Q533.4844,649.4063 534.375,650.2344 Q535.2656,651.0469 536.8594,651.0469 Q537.7969,651.0469 538.4531,650.7969 Q538.8438,650.6406 539.2656,650.2031 Q539.5313,649.9375 539.6719,649.8594 Q539.8281,649.7813 540.0313,649.7813 Q540.3594,649.7813 540.6094,650.0469 Q540.875,650.2969 540.875,650.6406 Q540.875,650.9844 540.5313,651.3906 Q540.0313,651.9688 539.2344,652.2969 Q538.1563,652.75 536.8594,652.75 Q535.3438,652.75 534.1406,652.125 Q533.1563,651.625 532.4688,650.5625 Q531.7813,649.4844 531.7813,648.2031 L531.7813,647.0469 Q531.7813,645.7188 532.3906,644.5781 Q533.0156,643.4219 534.1094,642.8125 Q535.2031,642.1875 536.4375,642.1875 Q537.1719,642.1875 537.8125,642.3594 Q538.4688,642.5156 539.0156,642.875 Z " fill="#000000"/><text fill="#000000" font-family="sans-serif" font-size="14" lengthAdjust="spacing" textLength="62" x="556.75" y="652.7969">Employee</text><line style="stroke:#181818;stroke-width:0.5;" x1="129" x2="1014" y1="663" y2="663"/><text fill="#000000" font-family="sans-serif" font-size="14" lengthAdjust="spacing" textLength="89" x="134" y="682.1074">-name : String</text><text fill="#000000" font-family="sans-serif" font-size="14" lengthAdjust="spacing" textLength="103" x="134" y="700.7285">-birthdate : Date</text><text fill="#000000" font-family="sans-serif" font-size="14" lengthAdjust="spacing" textLength="87" x="134" y="719.3496">-email : String</text><text fill="#000000" font-family="sans-serif" font-size="14" lengthAdjust="spacing" textLength="121" x="134" y="737.9707">-phoneNumber : int</text><text fill="#000000" font-family="sans-serif" font-size="14" lengthAdjust="spacing" textLength="142" x="134" y="756.5918">-admission date : Date</text><text fill="#000000" font-family="sans-serif" font-size="14" lengthAdjust="spacing" textLength="157" x="134" y="775.2129">-taxpayerNumber : String</text><text fill="#000000" font-family="sans-serif" font-size="14" lengthAdjust="spacing" textLength="105" x="134" y="793.834">-address : String</text><text fill="#000000" font-family="sans-serif" font-size="14" lengthAdjust="spacing" textLength="126" x="134" y="812.4551">-docNumber : String</text><text fill="#000000" font-family="sans-serif" font-size="14" lengthAdjust="spacing" textLength="100" x="134" y="831.0762">-jobTitle : String</text><line style="stroke:#181818;stroke-width:0.5;" x1="129" x2="1014" y1="838.5898" y2="838.5898"/><text fill="#000000" font-family="sans-serif" font-size="14" lengthAdjust="spacing" textLength="875" x="134" y="857.6973">+registerGreenSpace(name: String, address: String, area: double, typology : String, greenSpaceManager: String) : Optional&lt;GreenSpace&gt;</text><text fill="#000000" font-family="sans-serif" font-size="14" lengthAdjust="spacing" textLength="360" x="134" y="876.3184">+addGreenSpace(greenSpace) : Optional&lt;GreenSpace&gt;</text><text fill="#000000" font-family="sans-serif" font-size="14" lengthAdjust="spacing" textLength="287" x="134" y="894.9395">+validateGreenSpace(greenSpace) : boolean</text></g><!--class EmployeeRepository--><g id="elem_EmployeeRepository"><rect codeLine="53" fill="#F1F1F1" height="66.6211" id="EmployeeRepository" rx="2.5" ry="2.5" style="stroke:#181818;stroke-width:0.5;" width="185" x="217" y="503"/><ellipse cx="242.35" cy="519" fill="#ADD1B2" rx="11" ry="11" style="stroke:#181818;stroke-width:1.0;"/><path d="M245.1156,514.875 Q245.2719,514.6563 245.4594,514.5469 Q245.6469,514.4375 245.8656,514.4375 Q246.2406,514.4375 246.475,514.7031 Q246.7094,514.9531 246.7094,515.5625 L246.7094,517.0156 Q246.7094,517.625 246.475,517.8906 Q246.2406,518.1563 245.8656,518.1563 Q245.5219,518.1563 245.3188,517.9531 Q245.1156,517.7656 245.0063,517.25 Q244.9594,516.8906 244.7719,516.7031 Q244.4438,516.3281 243.8344,516.1094 Q243.225,515.8906 242.6,515.8906 Q241.8344,515.8906 241.1938,516.2188 Q240.5688,516.5469 240.0688,517.2969 Q239.5844,518.0469 239.5844,519.0781 L239.5844,520.1719 Q239.5844,521.4063 240.475,522.2344 Q241.3656,523.0469 242.9594,523.0469 Q243.8969,523.0469 244.5531,522.7969 Q244.9438,522.6406 245.3656,522.2031 Q245.6313,521.9375 245.7719,521.8594 Q245.9281,521.7813 246.1313,521.7813 Q246.4594,521.7813 246.7094,522.0469 Q246.975,522.2969 246.975,522.6406 Q246.975,522.9844 246.6313,523.3906 Q246.1313,523.9688 245.3344,524.2969 Q244.2563,524.75 242.9594,524.75 Q241.4438,524.75 240.2406,524.125 Q239.2563,523.625 238.5688,522.5625 Q237.8813,521.4844 237.8813,520.2031 L237.8813,519.0469 Q237.8813,517.7188 238.4906,516.5781 Q239.1156,515.4219 240.2094,514.8125 Q241.3031,514.1875 242.5375,514.1875 Q243.2719,514.1875 243.9125,514.3594 Q244.5688,514.5156 245.1156,514.875 Z " fill="#000000"/><text fill="#000000" font-family="sans-serif" font-size="14" lengthAdjust="spacing" textLength="130" x="258.65" y="524.7969">EmployeeRepository</text><line style="stroke:#181818;stroke-width:0.5;" x1="218" x2="401" y1="535" y2="535"/><line style="stroke:#181818;stroke-width:0.5;" x1="218" x2="401" y1="543" y2="543"/><text fill="#000000" font-family="sans-serif" font-size="14" lengthAdjust="spacing" textLength="173" x="223" y="562.1074">+getEmployee() : employee</text></g><!--class AuthenticationRepository--><g id="elem_AuthenticationRepository"><rect codeLine="57" fill="#F1F1F1" height="66.6211" id="AuthenticationRepository" rx="2.5" ry="2.5" style="stroke:#181818;stroke-width:0.5;" width="268" x="437.5" y="503"/><ellipse cx="488.25" cy="519" fill="#ADD1B2" rx="11" ry="11" style="stroke:#181818;stroke-width:1.0;"/><path d="M491.0156,514.875 Q491.1719,514.6563 491.3594,514.5469 Q491.5469,514.4375 491.7656,514.4375 Q492.1406,514.4375 492.375,514.7031 Q492.6094,514.9531 492.6094,515.5625 L492.6094,517.0156 Q492.6094,517.625 492.375,517.8906 Q492.1406,518.1563 491.7656,518.1563 Q491.4219,518.1563 491.2188,517.9531 Q491.0156,517.7656 490.9063,517.25 Q490.8594,516.8906 490.6719,516.7031 Q490.3438,516.3281 489.7344,516.1094 Q489.125,515.8906 488.5,515.8906 Q487.7344,515.8906 487.0938,516.2188 Q486.4688,516.5469 485.9688,517.2969 Q485.4844,518.0469 485.4844,519.0781 L485.4844,520.1719 Q485.4844,521.4063 486.375,522.2344 Q487.2656,523.0469 488.8594,523.0469 Q489.7969,523.0469 490.4531,522.7969 Q490.8438,522.6406 491.2656,522.2031 Q491.5313,521.9375 491.6719,521.8594 Q491.8281,521.7813 492.0313,521.7813 Q492.3594,521.7813 492.6094,522.0469 Q492.875,522.2969 492.875,522.6406 Q492.875,522.9844 492.5313,523.3906 Q492.0313,523.9688 491.2344,524.2969 Q490.1563,524.75 488.8594,524.75 Q487.3438,524.75 486.1406,524.125 Q485.1563,523.625 484.4688,522.5625 Q483.7813,521.4844 483.7813,520.2031 L483.7813,519.0469 Q483.7813,517.7188 484.3906,516.5781 Q485.0156,515.4219 486.1094,514.8125 Q487.2031,514.1875 488.4375,514.1875 Q489.1719,514.1875 489.8125,514.3594 Q490.4688,514.5156 491.0156,514.875 Z " fill="#000000"/><text fill="#000000" font-family="sans-serif" font-size="14" lengthAdjust="spacing" textLength="158" x="508.75" y="524.7969">AuthenticationRepository</text><line style="stroke:#181818;stroke-width:0.5;" x1="438.5" x2="704.5" y1="535" y2="535"/><line style="stroke:#181818;stroke-width:0.5;" x1="438.5" x2="704.5" y1="543" y2="543"/><text fill="#000000" font-family="sans-serif" font-size="14" lengthAdjust="spacing" textLength="256" x="443.5" y="562.1074">+getCurrentUserSession() : UserSession</text></g><!--class GreenSpace--><g id="elem_GreenSpace"><rect codeLine="61" fill="#F1F1F1" height="141.1055" id="GreenSpace" rx="2.5" ry="2.5" style="stroke:#181818;stroke-width:0.5;" width="199" x="472" y="981"/><ellipse cx="527.25" cy="997" fill="#ADD1B2" rx="11" ry="11" style="stroke:#181818;stroke-width:1.0;"/><path d="M530.0156,992.875 Q530.1719,992.6563 530.3594,992.5469 Q530.5469,992.4375 530.7656,992.4375 Q531.1406,992.4375 531.375,992.7031 Q531.6094,992.9531 531.6094,993.5625 L531.6094,995.0156 Q531.6094,995.625 531.375,995.8906 Q531.1406,996.1563 530.7656,996.1563 Q530.4219,996.1563 530.2188,995.9531 Q530.0156,995.7656 529.9063,995.25 Q529.8594,994.8906 529.6719,994.7031 Q529.3438,994.3281 528.7344,994.1094 Q528.125,993.8906 527.5,993.8906 Q526.7344,993.8906 526.0938,994.2188 Q525.4688,994.5469 524.9688,995.2969 Q524.4844,996.0469 524.4844,997.0781 L524.4844,998.1719 Q524.4844,999.4063 525.375,1000.2344 Q526.2656,1001.0469 527.8594,1001.0469 Q528.7969,1001.0469 529.4531,1000.7969 Q529.8438,1000.6406 530.2656,1000.2031 Q530.5313,999.9375 530.6719,999.8594 Q530.8281,999.7813 531.0313,999.7813 Q531.3594,999.7813 531.6094,1000.0469 Q531.875,1000.2969 531.875,1000.6406 Q531.875,1000.9844 531.5313,1001.3906 Q531.0313,1001.9688 530.2344,1002.2969 Q529.1563,1002.75 527.8594,1002.75 Q526.3438,1002.75 525.1406,1002.125 Q524.1563,1001.625 523.4688,1000.5625 Q522.7813,999.4844 522.7813,998.2031 L522.7813,997.0469 Q522.7813,995.7188 523.3906,994.5781 Q524.0156,993.4219 525.1094,992.8125 Q526.2031,992.1875 527.4375,992.1875 Q528.1719,992.1875 528.8125,992.3594 Q529.4688,992.5156 530.0156,992.875 Z " fill="#000000"/><text fill="#000000" font-family="sans-serif" font-size="14" lengthAdjust="spacing" textLength="80" x="547.75" y="1002.7969">GreenSpace</text><line style="stroke:#181818;stroke-width:0.5;" x1="473" x2="670" y1="1013" y2="1013"/><text fill="#000000" font-family="sans-serif" font-size="14" lengthAdjust="spacing" textLength="89" x="478" y="1032.1074">-name : String</text><text fill="#000000" font-family="sans-serif" font-size="14" lengthAdjust="spacing" textLength="105" x="478" y="1050.7285">-address : String</text><text fill="#000000" font-family="sans-serif" font-size="14" lengthAdjust="spacing" textLength="89" x="478" y="1069.3496">-area : double</text><text fill="#000000" font-family="sans-serif" font-size="14" lengthAdjust="spacing" textLength="107" x="478" y="1087.9707">-typology : String</text><text fill="#000000" font-family="sans-serif" font-size="14" lengthAdjust="spacing" textLength="187" x="478" y="1106.5918">-greenSpaceManager : String</text><line style="stroke:#181818;stroke-width:0.5;" x1="473" x2="670" y1="1114.1055" y2="1114.1055"/></g><!--link RegisterGreenSpaceController to Repositories--><g id="link_RegisterGreenSpaceController_Repositories"><path codeLine="73" d="M572.65,241.31 C551.64,268.5 533.7793,291.6227 515.5693,315.1827 " fill="none" id="RegisterGreenSpaceController-to-Repositories" style="stroke:#181818;stroke-width:1.0;stroke-dasharray:7.0,7.0;"/><polygon fill="#181818" points="511.9,319.93,520.5687,315.2553,514.9577,315.9739,514.239,310.3629,511.9,319.93" style="stroke:#181818;stroke-width:1.0;"/><text fill="#000000" font-family="sans-serif" font-size="13" lengthAdjust="spacing" textLength="67" x="546.5" y="286.0283">repositories</text></g><!--link RegisterGreenSpaceController to Employee--><g id="link_RegisterGreenSpaceController_Employee"><path codeLine="74" d="M698.27,241.25 C711.12,283.01 722.5,320 722.5,320 C722.5,320 723.5,503 723.5,503 C723.5,503 723.5,570 723.5,570 C723.5,570 706.2525,592.183 679.9225,626.053 " fill="none" id="RegisterGreenSpaceController-to-Employee" style="stroke:#181818;stroke-width:1.0;stroke-dasharray:7.0,7.0;"/><polygon fill="#181818" points="676.24,630.79,684.9217,626.1395,679.3087,626.8425,678.6057,621.2295,676.24,630.79" style="stroke:#181818;stroke-width:1.0;"/></g><!--link RegisterGreenSpaceUI to RegisterGreenSpaceController--><g id="link_RegisterGreenSpaceUI_RegisterGreenSpaceController"><path codeLine="75" d="M184.19,124 C195.89,124 201.71,124 212.93,124 " fill="none" id="RegisterGreenSpaceUI-to-RegisterGreenSpaceController" style="stroke:#181818;stroke-width:1.0;stroke-dasharray:7.0,7.0;"/><polygon fill="#181818" points="218.93,124,209.93,120,213.93,124,209.93,128,218.93,124" style="stroke:#181818;stroke-width:1.0;"/></g><!--link Repositories to Repositories--><g id="link_Repositories_Repositories"><path codeLine="76" d="M626.19,366.16 C647.13,368.72 661,373.66 661,381 C661,388.34 653.0857,392.5519 632.1457,395.1119 " fill="none" id="Repositories-to-Repositories" style="stroke:#181818;stroke-width:1.0;"/><polygon fill="#181818" points="626.19,395.84,635.6089,398.7183,631.153,395.2332,634.6381,390.7774,626.19,395.84" style="stroke:#181818;stroke-width:1.0;"/><text fill="#000000" font-family="sans-serif" font-size="13" lengthAdjust="spacing" textLength="49" x="667" y="386.5283">instance</text></g><!--link EmployeeRepository to Employee--><g id="link_EmployeeRepository_Employee"><path codeLine="77" d="M347.04,570.17 C366.14,586.79 386.2433,604.2918 412.1633,626.8418 " fill="none" id="EmployeeRepository-to-Employee" style="stroke:#181818;stroke-width:1.0;"/><polygon fill="#181818" points="416.69,630.78,412.5254,621.855,412.9178,627.4982,407.2745,627.8906,416.69,630.78" style="stroke:#181818;stroke-width:1.0;"/><text fill="#000000" font-family="sans-serif" font-size="13" lengthAdjust="spacing" textLength="7" x="346.1034" y="591.7695">1</text><text fill="#000000" font-family="sans-serif" font-size="13" lengthAdjust="spacing" textLength="5" x="403.0871" y="619.9169">*</text></g><!--link AuthenticationRepository to Employee--><g id="link_AuthenticationRepository_Employee"><path codeLine="78" d="M571.5,570.17 C571.5,586.79 571.5,602.23 571.5,624.78 " fill="none" id="AuthenticationRepository-to-Employee" style="stroke:#181818;stroke-width:1.0;"/><polygon fill="#181818" points="571.5,630.78,575.5,621.78,571.5,625.78,567.5,621.78,571.5,630.78" style="stroke:#181818;stroke-width:1.0;"/><text fill="#000000" font-family="sans-serif" font-size="13" lengthAdjust="spacing" textLength="7" x="563.8766" y="591.7695">1</text><text fill="#000000" font-family="sans-serif" font-size="13" lengthAdjust="spacing" textLength="5" x="566.3633" y="619.9169">*</text></g><!--link Employee to GreenSpace--><g id="link_Employee_GreenSpace"><path codeLine="79" d="M571.5,902.37 C571.5,929.56 571.5,951.08 571.5,974.9 " fill="none" id="Employee-to-GreenSpace" style="stroke:#181818;stroke-width:1.0;"/><polygon fill="#181818" points="571.5,980.9,575.5,971.9,571.5,975.9,567.5,971.9,571.5,980.9" style="stroke:#181818;stroke-width:1.0;"/><text fill="#000000" font-family="sans-serif" font-size="13" lengthAdjust="spacing" textLength="115" x="572.5" y="947.0283">registerGreenSpace</text><text fill="#000000" font-family="sans-serif" font-size="13" lengthAdjust="spacing" textLength="7" x="564.3086" y="924.2891">1</text><text fill="#000000" font-family="sans-serif" font-size="13" lengthAdjust="spacing" textLength="5" x="566.2422" y="969.7807">*</text></g><!--link Repositories to EmployeeRepository--><g id="link_Repositories_EmployeeRepository"><path codeLine="80" d="M404.29,442.23 C383.29,462.89 364.8671,481.0221 346.9471,498.6521 " fill="none" id="Repositories-to-EmployeeRepository" style="stroke:#181818;stroke-width:1.0;"/><polygon fill="#181818" points="342.67,502.86,351.8909,499.3996,346.2343,499.3534,346.2804,493.6968,342.67,502.86" style="stroke:#181818;stroke-width:1.0;"/><text fill="#000000" font-family="sans-serif" font-size="13" lengthAdjust="spacing" textLength="7" x="389.8079" y="464.3097">1</text><text fill="#000000" font-family="sans-serif" font-size="13" lengthAdjust="spacing" textLength="7" x="341.5113" y="491.658">1</text></g><!--link Repositories to AuthenticationRepository--><g id="link_Repositories_AuthenticationRepository"><path codeLine="81" d="M507.09,442.23 C521.36,462.89 533.3695,480.2935 545.5495,497.9235 " fill="none" id="Repositories-to-AuthenticationRepository" style="stroke:#181818;stroke-width:1.0;"/><polygon fill="#181818" points="548.96,502.86,547.1353,493.1816,546.118,498.7463,540.5533,497.7289,548.96,502.86" style="stroke:#181818;stroke-width:1.0;"/><text fill="#000000" font-family="sans-serif" font-size="13" lengthAdjust="spacing" textLength="7" x="504.4942" y="464.3097">1</text><text fill="#000000" font-family="sans-serif" font-size="13" lengthAdjust="spacing" textLength="7" x="536.8334" y="491.658">1</text></g><!--SRC=[pLLBRzim3BxxLmYvD5sROhq6Gu6qUo307a3JxgxOhArL5Ws9xkeD- - -ZNv7is1rwco-9oO_K9tuaVU8UbIcabRd8qM2SMSn1a2qXyfv2neyoXHrL6eI5cAH9TGXmcKpmfpAfU93QXHwj351LW2XGL_LBT3BXH4iO1L6nbivjYApQbmJR6CrE_GBnDefED3oG81HMfHc9HDLq59eeQcB4BQJA4TXF5i3ic3ZSRyNlAFep3xX1GnQr1ij0mS-PK4QHafhFdCotF1LhyOGgwU2PD8a-GAzB8ZIRXjOOoTTpiB4WFohGoLBolpju9WRj-B8chU49bdkkRXlmn2mIoJKmHKdZR2dGXxpGM04VNg1JXBPgG71azY6Rah8HNB893AbOrgIFWkBIMdRVEx2VCTsQxosf_dvxH0tITE1SKfprjAwhM_OrgDxKmHoGh-aNQRY_xFX-zgZuIoDpw8jrBcIIM70kC711-mgU2-ujr9XMmWFIyPbXvRyLzPsaVkSFl1gqJbSN1Qvh5R4QM9UdhRMfyzOu7fIulNs82Z2la-_r-ddo_KaTyLLTo4DTMjDUMShgPcFxU_vfhP1BfKV88aC3NyjyppEpvccXrYoJN3d73CHH5fBFXQp07eB2T9sC8sk2yIJw1-xl5EaH-xF_ebaQ9dnGGC8dUJcgd_JPq7xCZZNrWlSRB6YjGKFvsCrComGPRlpOxw3HjSaLlFjqddK_6TDDDgztws59XYkmxPwnDjvrB987CRlwUN7bNrnS3OPppLid6DL_nXxMskINeaa-do4Qh9JLa4apMUqAYIQKNbmkn8f35cyMdiIigfFemqu8lO6IwuaDFAHy2BnSJ7JZF7Opkx2Yw2y0]--></g></svg>