<?xml version="1.0" encoding="us-ascii" standalone="no"?><svg xmlns="http://www.w3.org/2000/svg" xmlns:xlink="http://www.w3.org/1999/xlink" contentStyleType="text/css" height="853px" preserveAspectRatio="none" style="width:994px;height:853px;background:#FFFFFF;" version="1.1" viewBox="0 0 994 853" width="994px" zoomAndPan="magnify"><defs/><g><!--class RegisterGreenSpaceUI--><g id="elem_RegisterGreenSpaceUI"><rect codeLine="11" fill="#F1F1F1" height="48" id="RegisterGreenSpaceUI" rx="2.5" ry="2.5" style="stroke:#181818;stroke-width:0.5;" width="177" x="7" y="72"/><ellipse cx="22" cy="88" fill="#ADD1B2" rx="11" ry="11" style="stroke:#181818;stroke-width:1.0;"/><path d="M24.7656,83.875 Q24.9219,83.6563 25.1094,83.5469 Q25.2969,83.4375 25.5156,83.4375 Q25.8906,83.4375 26.125,83.7031 Q26.3594,83.9531 26.3594,84.5625 L26.3594,86.0156 Q26.3594,86.625 26.125,86.8906 Q25.8906,87.1563 25.5156,87.1563 Q25.1719,87.1563 24.9688,86.9531 Q24.7656,86.7656 24.6563,86.25 Q24.6094,85.8906 24.4219,85.7031 Q24.0938,85.3281 23.4844,85.1094 Q22.875,84.8906 22.25,84.8906 Q21.4844,84.8906 20.8438,85.2188 Q20.2188,85.5469 19.7188,86.2969 Q19.2344,87.0469 19.2344,88.0781 L19.2344,89.1719 Q19.2344,90.4063 20.125,91.2344 Q21.0156,92.0469 22.6094,92.0469 Q23.5469,92.0469 24.2031,91.7969 Q24.5938,91.6406 25.0156,91.2031 Q25.2813,90.9375 25.4219,90.8594 Q25.5781,90.7813 25.7813,90.7813 Q26.1094,90.7813 26.3594,91.0469 Q26.625,91.2969 26.625,91.6406 Q26.625,91.9844 26.2813,92.3906 Q25.7813,92.9688 24.9844,93.2969 Q23.9063,93.75 22.6094,93.75 Q21.0938,93.75 19.8906,93.125 Q18.9063,92.625 18.2188,91.5625 Q17.5313,90.4844 17.5313,89.2031 L17.5313,88.0469 Q17.5313,86.7188 18.1406,85.5781 Q18.7656,84.4219 19.8594,83.8125 Q20.9531,83.1875 22.1875,83.1875 Q22.9219,83.1875 23.5625,83.3594 Q24.2188,83.5156 24.7656,83.875 Z " fill="#000000"/><text fill="#000000" font-family="sans-serif" font-size="14" lengthAdjust="spacing" textLength="145" x="36" y="93.7969">RegisterGreenSpaceUI</text><line style="stroke:#181818;stroke-width:0.5;" x1="8" x2="183" y1="104" y2="104"/><line style="stroke:#181818;stroke-width:0.5;" x1="8" x2="183" y1="112" y2="112"/></g><!--class RegisterGreenSpaceController--><g id="elem_RegisterGreenSpaceController"><rect codeLine="15" fill="#F1F1F1" height="178.3477" id="RegisterGreenSpaceController" rx="2.5" ry="2.5" style="stroke:#181818;stroke-width:0.5;" width="726" x="219.5" y="7"/><ellipse cx="480.75" cy="23" fill="#ADD1B2" rx="11" ry="11" style="stroke:#181818;stroke-width:1.0;"/><path d="M483.5156,18.875 Q483.6719,18.6563 483.8594,18.5469 Q484.0469,18.4375 484.2656,18.4375 Q484.6406,18.4375 484.875,18.7031 Q485.1094,18.9531 485.1094,19.5625 L485.1094,21.0156 Q485.1094,21.625 484.875,21.8906 Q484.6406,22.1563 484.2656,22.1563 Q483.9219,22.1563 483.7188,21.9531 Q483.5156,21.7656 483.4063,21.25 Q483.3594,20.8906 483.1719,20.7031 Q482.8438,20.3281 482.2344,20.1094 Q481.625,19.8906 481,19.8906 Q480.2344,19.8906 479.5938,20.2188 Q478.9688,20.5469 478.4688,21.2969 Q477.9844,22.0469 477.9844,23.0781 L477.9844,24.1719 Q477.9844,25.4063 478.875,26.2344 Q479.7656,27.0469 481.3594,27.0469 Q482.2969,27.0469 482.9531,26.7969 Q483.3438,26.6406 483.7656,26.2031 Q484.0313,25.9375 484.1719,25.8594 Q484.3281,25.7813 484.5313,25.7813 Q484.8594,25.7813 485.1094,26.0469 Q485.375,26.2969 485.375,26.6406 Q485.375,26.9844 485.0313,27.3906 Q484.5313,27.9688 483.7344,28.2969 Q482.6563,28.75 481.3594,28.75 Q479.8438,28.75 478.6406,28.125 Q477.6563,27.625 476.9688,26.5625 Q476.2813,25.4844 476.2813,24.2031 L476.2813,23.0469 Q476.2813,21.7188 476.8906,20.5781 Q477.5156,19.4219 478.6094,18.8125 Q479.7031,18.1875 480.9375,18.1875 Q481.6719,18.1875 482.3125,18.3594 Q482.9688,18.5156 483.5156,18.875 Z " fill="#000000"/><text fill="#000000" font-family="sans-serif" font-size="14" lengthAdjust="spacing" textLength="195" x="501.25" y="28.7969">RegisterGreenSpaceController</text><line style="stroke:#181818;stroke-width:0.5;" x1="220.5" x2="944.5" y1="39" y2="39"/><text fill="#000000" font-family="sans-serif" font-size="14" lengthAdjust="spacing" textLength="242" x="225.5" y="58.1074">+currentUserLogInValidation : boolean</text><line style="stroke:#181818;stroke-width:0.5;" x1="220.5" x2="944.5" y1="65.6211" y2="65.6211"/><text fill="#000000" font-family="sans-serif" font-size="14" lengthAdjust="spacing" textLength="714" x="225.5" y="84.7285">+registerGreenSpace(name: String, address: String, area: double, typology : String, greenSpaceManager: String)</text><text fill="#000000" font-family="sans-serif" font-size="14" lengthAdjust="spacing" textLength="281" x="225.5" y="103.3496">+existsGreenSpace(name : String) : Boolean</text><text fill="#000000" font-family="sans-serif" font-size="14" lengthAdjust="spacing" textLength="346" x="225.5" y="121.9707">+getGreenSpaceRepository() : GreenSpaceRepository</text><text fill="#000000" font-family="sans-serif" font-size="14" lengthAdjust="spacing" textLength="244" x="225.5" y="140.5918">+getAuthRepository() : AuthRepository</text><text fill="#000000" font-family="sans-serif" font-size="14" lengthAdjust="spacing" textLength="328" x="225.5" y="159.2129">+getEmployeeRepository() : GreenSpaceRepository</text><text fill="#000000" font-family="sans-serif" font-size="14" lengthAdjust="spacing" textLength="237" x="225.5" y="177.834">+matchEmployeeByRole() : Employee</text></g><!--class Repositories--><g id="elem_Repositories"><rect codeLine="27" fill="#F1F1F1" height="103.8633" id="Repositories" rx="2.5" ry="2.5" style="stroke:#181818;stroke-width:0.5;" width="198" x="320.5" y="264"/><ellipse cx="375.75" cy="280" fill="#ADD1B2" rx="11" ry="11" style="stroke:#181818;stroke-width:1.0;"/><path d="M378.5156,275.875 Q378.6719,275.6563 378.8594,275.5469 Q379.0469,275.4375 379.2656,275.4375 Q379.6406,275.4375 379.875,275.7031 Q380.1094,275.9531 380.1094,276.5625 L380.1094,278.0156 Q380.1094,278.625 379.875,278.8906 Q379.6406,279.1563 379.2656,279.1563 Q378.9219,279.1563 378.7188,278.9531 Q378.5156,278.7656 378.4063,278.25 Q378.3594,277.8906 378.1719,277.7031 Q377.8438,277.3281 377.2344,277.1094 Q376.625,276.8906 376,276.8906 Q375.2344,276.8906 374.5938,277.2188 Q373.9688,277.5469 373.4688,278.2969 Q372.9844,279.0469 372.9844,280.0781 L372.9844,281.1719 Q372.9844,282.4063 373.875,283.2344 Q374.7656,284.0469 376.3594,284.0469 Q377.2969,284.0469 377.9531,283.7969 Q378.3438,283.6406 378.7656,283.2031 Q379.0313,282.9375 379.1719,282.8594 Q379.3281,282.7813 379.5313,282.7813 Q379.8594,282.7813 380.1094,283.0469 Q380.375,283.2969 380.375,283.6406 Q380.375,283.9844 380.0313,284.3906 Q379.5313,284.9688 378.7344,285.2969 Q377.6563,285.75 376.3594,285.75 Q374.8438,285.75 373.6406,285.125 Q372.6563,284.625 371.9688,283.5625 Q371.2813,282.4844 371.2813,281.2031 L371.2813,280.0469 Q371.2813,278.7188 371.8906,277.5781 Q372.5156,276.4219 373.6094,275.8125 Q374.7031,275.1875 375.9375,275.1875 Q376.6719,275.1875 377.3125,275.3594 Q377.9688,275.5156 378.5156,275.875 Z " fill="#000000"/><text fill="#000000" font-family="sans-serif" font-size="14" lengthAdjust="spacing" textLength="79" x="396.25" y="285.7969">Repositories</text><line style="stroke:#181818;stroke-width:0.5;" x1="321.5" x2="517.5" y1="296" y2="296"/><line style="stroke:#181818;stroke-width:0.5;" x1="321.5" x2="517.5" y1="304" y2="304"/><text fill="#000000" font-family="sans-serif" font-size="14" lengthAdjust="spacing" textLength="94" x="326.5" y="323.1074">-Repositories()</text><text fill="#000000" font-family="sans-serif" font-size="14" lengthAdjust="spacing" textLength="182" x="326.5" y="341.7285">+getInstance() : Repositories</text><text fill="#000000" font-family="sans-serif" font-size="14" lengthAdjust="spacing" textLength="186" x="326.5" y="360.3496">+getGreenSpaceRepository()</text></g><!--class GreenSpaceRepository--><g id="elem_GreenSpaceRepository"><rect codeLine="35" fill="#F1F1F1" height="141.1055" id="GreenSpaceRepository" rx="2.5" ry="2.5" style="stroke:#181818;stroke-width:0.5;" width="384" x="351.5" y="429"/><ellipse cx="465.25" cy="445" fill="#ADD1B2" rx="11" ry="11" style="stroke:#181818;stroke-width:1.0;"/><path d="M468.0156,440.875 Q468.1719,440.6563 468.3594,440.5469 Q468.5469,440.4375 468.7656,440.4375 Q469.1406,440.4375 469.375,440.7031 Q469.6094,440.9531 469.6094,441.5625 L469.6094,443.0156 Q469.6094,443.625 469.375,443.8906 Q469.1406,444.1563 468.7656,444.1563 Q468.4219,444.1563 468.2188,443.9531 Q468.0156,443.7656 467.9063,443.25 Q467.8594,442.8906 467.6719,442.7031 Q467.3438,442.3281 466.7344,442.1094 Q466.125,441.8906 465.5,441.8906 Q464.7344,441.8906 464.0938,442.2188 Q463.4688,442.5469 462.9688,443.2969 Q462.4844,444.0469 462.4844,445.0781 L462.4844,446.1719 Q462.4844,447.4063 463.375,448.2344 Q464.2656,449.0469 465.8594,449.0469 Q466.7969,449.0469 467.4531,448.7969 Q467.8438,448.6406 468.2656,448.2031 Q468.5313,447.9375 468.6719,447.8594 Q468.8281,447.7813 469.0313,447.7813 Q469.3594,447.7813 469.6094,448.0469 Q469.875,448.2969 469.875,448.6406 Q469.875,448.9844 469.5313,449.3906 Q469.0313,449.9688 468.2344,450.2969 Q467.1563,450.75 465.8594,450.75 Q464.3438,450.75 463.1406,450.125 Q462.1563,449.625 461.4688,448.5625 Q460.7813,447.4844 460.7813,446.2031 L460.7813,445.0469 Q460.7813,443.7188 461.3906,442.5781 Q462.0156,441.4219 463.1094,440.8125 Q464.2031,440.1875 465.4375,440.1875 Q466.1719,440.1875 466.8125,440.3594 Q467.4688,440.5156 468.0156,440.875 Z " fill="#000000"/><text fill="#000000" font-family="sans-serif" font-size="14" lengthAdjust="spacing" textLength="148" x="485.75" y="450.7969">GreenSpaceRepository</text><line style="stroke:#181818;stroke-width:0.5;" x1="352.5" x2="734.5" y1="461" y2="461"/><text fill="#000000" font-family="sans-serif" font-size="14" lengthAdjust="spacing" textLength="234" x="357.5" y="480.1074">-greenSpaceList : List&lt;GreenSpace&gt;</text><line style="stroke:#181818;stroke-width:0.5;" x1="352.5" x2="734.5" y1="487.6211" y2="487.6211"/><text fill="#000000" font-family="sans-serif" font-size="14" lengthAdjust="spacing" textLength="248" x="357.5" y="506.7285">+getGreenSpace() : List&lt;GreenSpace&gt;</text><text fill="#000000" font-family="sans-serif" font-size="14" lengthAdjust="spacing" textLength="346" x="357.5" y="525.3496">+addGreenSpace(greenSpace:GreenSpace) : boolean</text><text fill="#000000" font-family="sans-serif" font-size="14" lengthAdjust="spacing" textLength="372" x="357.5" y="543.9707">+validateGreenSpace(greenSpace:GreenSpace) : Boolean</text><text fill="#000000" font-family="sans-serif" font-size="14" lengthAdjust="spacing" textLength="240" x="357.5" y="562.5918">+printRegisteredGreenSpaces() : void</text></g><!--class GreenSpace--><g id="elem_GreenSpace"><rect codeLine="45" fill="#F1F1F1" height="215.5898" id="GreenSpace" rx="2.5" ry="2.5" style="stroke:#181818;stroke-width:0.5;" width="887" x="100" y="631"/><ellipse cx="499.25" cy="647" fill="#ADD1B2" rx="11" ry="11" style="stroke:#181818;stroke-width:1.0;"/><path d="M502.0156,642.875 Q502.1719,642.6563 502.3594,642.5469 Q502.5469,642.4375 502.7656,642.4375 Q503.1406,642.4375 503.375,642.7031 Q503.6094,642.9531 503.6094,643.5625 L503.6094,645.0156 Q503.6094,645.625 503.375,645.8906 Q503.1406,646.1563 502.7656,646.1563 Q502.4219,646.1563 502.2188,645.9531 Q502.0156,645.7656 501.9063,645.25 Q501.8594,644.8906 501.6719,644.7031 Q501.3438,644.3281 500.7344,644.1094 Q500.125,643.8906 499.5,643.8906 Q498.7344,643.8906 498.0938,644.2188 Q497.4688,644.5469 496.9688,645.2969 Q496.4844,646.0469 496.4844,647.0781 L496.4844,648.1719 Q496.4844,649.4063 497.375,650.2344 Q498.2656,651.0469 499.8594,651.0469 Q500.7969,651.0469 501.4531,650.7969 Q501.8438,650.6406 502.2656,650.2031 Q502.5313,649.9375 502.6719,649.8594 Q502.8281,649.7813 503.0313,649.7813 Q503.3594,649.7813 503.6094,650.0469 Q503.875,650.2969 503.875,650.6406 Q503.875,650.9844 503.5313,651.3906 Q503.0313,651.9688 502.2344,652.2969 Q501.1563,652.75 499.8594,652.75 Q498.3438,652.75 497.1406,652.125 Q496.1563,651.625 495.4688,650.5625 Q494.7813,649.4844 494.7813,648.2031 L494.7813,647.0469 Q494.7813,645.7188 495.3906,644.5781 Q496.0156,643.4219 497.1094,642.8125 Q498.2031,642.1875 499.4375,642.1875 Q500.1719,642.1875 500.8125,642.3594 Q501.4688,642.5156 502.0156,642.875 Z " fill="#000000"/><text fill="#000000" font-family="sans-serif" font-size="14" lengthAdjust="spacing" textLength="80" x="519.75" y="652.7969">GreenSpace</text><line style="stroke:#181818;stroke-width:0.5;" x1="101" x2="986" y1="663" y2="663"/><text fill="#000000" font-family="sans-serif" font-size="14" lengthAdjust="spacing" textLength="89" x="106" y="682.1074">-name : String</text><text fill="#000000" font-family="sans-serif" font-size="14" lengthAdjust="spacing" textLength="105" x="106" y="700.7285">-address : String</text><text fill="#000000" font-family="sans-serif" font-size="14" lengthAdjust="spacing" textLength="89" x="106" y="719.3496">-area : double</text><text fill="#000000" font-family="sans-serif" font-size="14" lengthAdjust="spacing" textLength="107" x="106" y="737.9707">-typology : String</text><text fill="#000000" font-family="sans-serif" font-size="14" lengthAdjust="spacing" textLength="187" x="106" y="756.5918">-greenSpaceManager : String</text><line style="stroke:#181818;stroke-width:0.5;" x1="101" x2="986" y1="764.1055" y2="764.1055"/><text fill="#000000" font-family="sans-serif" font-size="14" lengthAdjust="spacing" textLength="875" x="106" y="783.2129">+registerGreenSpace(name: String, address: String, area: double, typology : String, greenSpaceManager: String) : Optional&lt;GreenSpace&gt;</text><text fill="#000000" font-family="sans-serif" font-size="14" lengthAdjust="spacing" textLength="98" x="106" y="801.834">+GreenSpace()</text><text fill="#000000" font-family="sans-serif" font-size="14" lengthAdjust="spacing" textLength="144" x="106" y="820.4551">+clone() : GreenSpace</text><text fill="#000000" font-family="sans-serif" font-size="14" lengthAdjust="spacing" textLength="209" x="106" y="839.0762">+compareTo(o:GreenSpace) : int</text></g><!--link RegisterGreenSpaceController to Repositories--><g id="link_RegisterGreenSpaceController_Repositories"><path codeLine="62" d="M516.67,185.04 C496.61,211.87 478.8331,235.6449 461.2531,259.1549 " fill="none" id="RegisterGreenSpaceController-to-Repositories" style="stroke:#181818;stroke-width:1.0;stroke-dasharray:7.0,7.0;"/><polygon fill="#181818" points="457.66,263.96,466.2531,259.1477,460.6543,259.9557,459.8463,254.3569,457.66,263.96" style="stroke:#181818;stroke-width:1.0;"/><text fill="#000000" font-family="sans-serif" font-size="13" lengthAdjust="spacing" textLength="67" x="492.5" y="230.0283">repositories</text></g><!--link RegisterGreenSpaceController to GreenSpaceRepository--><g id="link_RegisterGreenSpaceController_GreenSpaceRepository"><path codeLine="63" d="M599.44,185.39 C607.11,225.45 614.5,264 614.5,264 C614.5,264 614.5,368 614.5,368 C614.5,368 601.2485,392.3701 584.3585,423.4001 " fill="none" id="RegisterGreenSpaceController-to-GreenSpaceRepository" style="stroke:#181818;stroke-width:1.0;stroke-dasharray:7.0,7.0;"/><polygon fill="#181818" points="581.49,428.67,589.306,422.6775,583.8804,424.2784,582.2794,418.8528,581.49,428.67" style="stroke:#181818;stroke-width:1.0;"/><text fill="#000000" font-family="sans-serif" font-size="13" lengthAdjust="spacing" textLength="131" x="615.5" y="321.5283">greenSpaceRepository</text></g><!--link GreenSpaceRepository to GreenSpace--><g id="link_GreenSpaceRepository_GreenSpace"><path codeLine="64" d="M543.5,570.15 C543.5,589.18 543.5,604.24 543.5,624.84 " fill="none" id="GreenSpaceRepository-to-GreenSpace" style="stroke:#181818;stroke-width:1.0;"/><polygon fill="#181818" points="543.5,630.84,547.5,621.84,543.5,625.84,539.5,621.84,543.5,630.84" style="stroke:#181818;stroke-width:1.0;"/><text fill="#000000" font-family="sans-serif" font-size="13" lengthAdjust="spacing" textLength="7" x="536.1391" y="592.3502">1</text><text fill="#000000" font-family="sans-serif" font-size="13" lengthAdjust="spacing" textLength="5" x="538.3242" y="619.6903">*</text></g><!--link Repositories to GreenSpaceRepository--><g id="link_Repositories_GreenSpaceRepository"><path codeLine="65" d="M454.37,368.04 C467.26,386.91 478.725,403.6861 492.555,423.9261 " fill="none" id="Repositories-to-GreenSpaceRepository" style="stroke:#181818;stroke-width:1.0;"/><polygon fill="#181818" points="495.94,428.88,494.1651,419.1924,493.1191,424.7517,487.5598,423.7058,495.94,428.88" style="stroke:#181818;stroke-width:1.0;"/><text fill="#000000" font-family="sans-serif" font-size="13" lengthAdjust="spacing" textLength="7" x="451.3893" y="389.8524">1</text><text fill="#000000" font-family="sans-serif" font-size="13" lengthAdjust="spacing" textLength="7" x="483.6744" y="417.7586">1</text></g><!--link RegisterGreenSpaceUI to RegisterGreenSpaceController--><g id="link_RegisterGreenSpaceUI_RegisterGreenSpaceController"><path codeLine="66" d="M184.27,96 C196.55,96 202.61,96 213.29,96 " fill="none" id="RegisterGreenSpaceUI-to-RegisterGreenSpaceController" style="stroke:#181818;stroke-width:1.0;stroke-dasharray:7.0,7.0;"/><polygon fill="#181818" points="219.29,96,210.29,92,214.29,96,210.29,100,219.29,96" style="stroke:#181818;stroke-width:1.0;"/></g><!--link Repositories to Repositories--><g id="link_Repositories_Repositories"><path codeLine="67" d="M518.55,301.19 C538.9,302.77 553.5,307.71 553.5,316 C553.5,324.29 544.882,328.7656 524.532,330.3456 " fill="none" id="Repositories-to-Repositories" style="stroke:#181818;stroke-width:1.0;"/><polygon fill="#181818" points="518.55,330.81,527.8326,334.1013,523.535,330.423,527.2134,326.1253,518.55,330.81" style="stroke:#181818;stroke-width:1.0;"/><text fill="#000000" font-family="sans-serif" font-size="13" lengthAdjust="spacing" textLength="49" x="559.5" y="321.5283">instance</text></g><!--SRC=[lLHBRnCn4BxxLunoIG9DHQyHYjGYX28L8IMKkxCxtLZrUbQsKrWG_vtPLsnljZmkv99avflND_DvxfwKgQIL9PHaA3jQAX6yFQ48dafcJxB0lQyrWiNCIrFe6E2ECgUloXJmABMBFLePz7M5K96kcpzYFk4awoaAohHqxjPxgmudZzkCp5vzHtWZn5pZemTFO5Lnz92hfXj5HWZH1i4E2-KysWyMqUovSNpOmWyXVhuCU4V6Mz8QRGC4_hpc8SUeXP4bhc7FJPdY2cIUMtGkCbYKQyZfTD1u1JmLQIfg283YdEgZDCoc7LpBlYP-uv9kLF6SOCc_xeWqIjFZ2_G1lCEAdF9awqM3d7A4iDkJFuu2KbE0lYyhJJN-G_xiP2qQ_-3GtbEnDL-aLhbibiHnXsI2KlhiE5IugtViQxCFfcHjVHc5ZjVKnCCgiIuw7hksjyRnaMPTkXWLOQR9Qm5HuIbKty0ghFIULyULcg-t8MBJpPdKQZkQnl5DHRYGV1siop67pnsx-3U1oVbKV5H-40D6XLtRuJEfl27XaeQ1_OQ0v4A3kHV7b8TL0eDCWlb2Bi5rgPi0wYRvhrfbqAUgEMQfBnSORxcpP9eCZXJJUwZanmu_qu96Q-AzTCmByTl7wlfwavpscb-jwD3_63jrsUjez4ZPaoAOtSnWjTh0xDKidYvHwXbpCvj-CoRVwtQmbxjFIwnI5be2E_6BNm00]--></g></svg>