<?xml version="1.0" encoding="us-ascii" standalone="no"?><svg xmlns="http://www.w3.org/2000/svg" xmlns:xlink="http://www.w3.org/1999/xlink" contentStyleType="text/css" height="1111px" preserveAspectRatio="none" style="width:1214px;height:1111px;background:#FFFFFF;" version="1.1" viewBox="0 0 1214 1111" width="1214px" zoomAndPan="magnify"><defs/><g><!--class RegisterGreenSpaceUI--><g id="elem_RegisterGreenSpaceUI"><rect codeLine="11" fill="#F1F1F1" height="48" id="RegisterGreenSpaceUI" rx="2.5" ry="2.5" style="stroke:#181818;stroke-width:0.5;" width="177" x="7" y="91"/><ellipse cx="22" cy="107" fill="#ADD1B2" rx="11" ry="11" style="stroke:#181818;stroke-width:1.0;"/><path d="M24.7656,102.875 Q24.9219,102.6563 25.1094,102.5469 Q25.2969,102.4375 25.5156,102.4375 Q25.8906,102.4375 26.125,102.7031 Q26.3594,102.9531 26.3594,103.5625 L26.3594,105.0156 Q26.3594,105.625 26.125,105.8906 Q25.8906,106.1563 25.5156,106.1563 Q25.1719,106.1563 24.9688,105.9531 Q24.7656,105.7656 24.6563,105.25 Q24.6094,104.8906 24.4219,104.7031 Q24.0938,104.3281 23.4844,104.1094 Q22.875,103.8906 22.25,103.8906 Q21.4844,103.8906 20.8438,104.2188 Q20.2188,104.5469 19.7188,105.2969 Q19.2344,106.0469 19.2344,107.0781 L19.2344,108.1719 Q19.2344,109.4063 20.125,110.2344 Q21.0156,111.0469 22.6094,111.0469 Q23.5469,111.0469 24.2031,110.7969 Q24.5938,110.6406 25.0156,110.2031 Q25.2813,109.9375 25.4219,109.8594 Q25.5781,109.7813 25.7813,109.7813 Q26.1094,109.7813 26.3594,110.0469 Q26.625,110.2969 26.625,110.6406 Q26.625,110.9844 26.2813,111.3906 Q25.7813,111.9688 24.9844,112.2969 Q23.9063,112.75 22.6094,112.75 Q21.0938,112.75 19.8906,112.125 Q18.9063,111.625 18.2188,110.5625 Q17.5313,109.4844 17.5313,108.2031 L17.5313,107.0469 Q17.5313,105.7188 18.1406,104.5781 Q18.7656,103.4219 19.8594,102.8125 Q20.9531,102.1875 22.1875,102.1875 Q22.9219,102.1875 23.5625,102.3594 Q24.2188,102.5156 24.7656,102.875 Z " fill="#000000"/><text fill="#000000" font-family="sans-serif" font-size="14" lengthAdjust="spacing" textLength="145" x="36" y="112.7969">RegisterGreenSpaceUI</text><line style="stroke:#181818;stroke-width:0.5;" x1="8" x2="183" y1="123" y2="123"/><line style="stroke:#181818;stroke-width:0.5;" x1="8" x2="183" y1="131" y2="131"/></g><!--class RegisterGreenSpaceController--><g id="elem_RegisterGreenSpaceController"><rect codeLine="15" fill="#F1F1F1" height="215.5898" id="RegisterGreenSpaceController" rx="2.5" ry="2.5" style="stroke:#181818;stroke-width:0.5;" width="988" x="219.5" y="7"/><ellipse cx="611.75" cy="23" fill="#ADD1B2" rx="11" ry="11" style="stroke:#181818;stroke-width:1.0;"/><path d="M614.5156,18.875 Q614.6719,18.6563 614.8594,18.5469 Q615.0469,18.4375 615.2656,18.4375 Q615.6406,18.4375 615.875,18.7031 Q616.1094,18.9531 616.1094,19.5625 L616.1094,21.0156 Q616.1094,21.625 615.875,21.8906 Q615.6406,22.1563 615.2656,22.1563 Q614.9219,22.1563 614.7188,21.9531 Q614.5156,21.7656 614.4063,21.25 Q614.3594,20.8906 614.1719,20.7031 Q613.8438,20.3281 613.2344,20.1094 Q612.625,19.8906 612,19.8906 Q611.2344,19.8906 610.5938,20.2188 Q609.9688,20.5469 609.4688,21.2969 Q608.9844,22.0469 608.9844,23.0781 L608.9844,24.1719 Q608.9844,25.4063 609.875,26.2344 Q610.7656,27.0469 612.3594,27.0469 Q613.2969,27.0469 613.9531,26.7969 Q614.3438,26.6406 614.7656,26.2031 Q615.0313,25.9375 615.1719,25.8594 Q615.3281,25.7813 615.5313,25.7813 Q615.8594,25.7813 616.1094,26.0469 Q616.375,26.2969 616.375,26.6406 Q616.375,26.9844 616.0313,27.3906 Q615.5313,27.9688 614.7344,28.2969 Q613.6563,28.75 612.3594,28.75 Q610.8438,28.75 609.6406,28.125 Q608.6563,27.625 607.9688,26.5625 Q607.2813,25.4844 607.2813,24.2031 L607.2813,23.0469 Q607.2813,21.7188 607.8906,20.5781 Q608.5156,19.4219 609.6094,18.8125 Q610.7031,18.1875 611.9375,18.1875 Q612.6719,18.1875 613.3125,18.3594 Q613.9688,18.5156 614.5156,18.875 Z " fill="#000000"/><text fill="#000000" font-family="sans-serif" font-size="14" lengthAdjust="spacing" textLength="195" x="632.25" y="28.7969">RegisterGreenSpaceController</text><line style="stroke:#181818;stroke-width:0.5;" x1="220.5" x2="1206.5" y1="39" y2="39"/><line style="stroke:#181818;stroke-width:0.5;" x1="220.5" x2="1206.5" y1="47" y2="47"/><text fill="#000000" font-family="sans-serif" font-size="14" lengthAdjust="spacing" textLength="310" x="225.5" y="66.1074">+getEmployeeRepository() : EmployeeRepository</text><text fill="#000000" font-family="sans-serif" font-size="14" lengthAdjust="spacing" textLength="305" x="225.5" y="84.7285">+getAuthRepository() : AuthenticationRepository</text><text fill="#000000" font-family="sans-serif" font-size="14" lengthAdjust="spacing" textLength="101" x="225.5" y="103.3496">+initialize(): void</text><text fill="#000000" font-family="sans-serif" font-size="14" lengthAdjust="spacing" textLength="296" x="225.5" y="121.9707">+existsWithAddress(address : String) : boolean</text><text fill="#000000" font-family="sans-serif" font-size="14" lengthAdjust="spacing" textLength="264" x="225.5" y="140.5918">+existsWithName(name : String) : boolean</text><text fill="#000000" font-family="sans-serif" font-size="14" lengthAdjust="spacing" textLength="252" x="225.5" y="159.2129">+currentUserLogInValidation() : boolean</text><text fill="#000000" font-family="sans-serif" font-size="14" lengthAdjust="spacing" textLength="237" x="225.5" y="177.834">+matchEmployeeByRole() : Employee</text><text fill="#000000" font-family="sans-serif" font-size="14" lengthAdjust="spacing" textLength="976" x="225.5" y="196.4551">+registerGreenSpace(name: String, address: String, area: double, typology : GreenSpaceTypology, greenSpaceManager: String) : Optional&lt;GreenSpace&gt;</text><text fill="#000000" font-family="sans-serif" font-size="14" lengthAdjust="spacing" textLength="345" x="225.5" y="215.0762">+getGreenSpaceTypologies() : GreenSpaceTypology[]</text></g><!--class Repositories--><g id="elem_Repositories"><rect codeLine="27" fill="#F1F1F1" height="122.4844" id="Repositories" rx="2.5" ry="2.5" style="stroke:#181818;stroke-width:0.5;" width="322" x="355.5" y="302"/><ellipse cx="472.75" cy="318" fill="#ADD1B2" rx="11" ry="11" style="stroke:#181818;stroke-width:1.0;"/><path d="M475.5156,313.875 Q475.6719,313.6563 475.8594,313.5469 Q476.0469,313.4375 476.2656,313.4375 Q476.6406,313.4375 476.875,313.7031 Q477.1094,313.9531 477.1094,314.5625 L477.1094,316.0156 Q477.1094,316.625 476.875,316.8906 Q476.6406,317.1563 476.2656,317.1563 Q475.9219,317.1563 475.7188,316.9531 Q475.5156,316.7656 475.4063,316.25 Q475.3594,315.8906 475.1719,315.7031 Q474.8438,315.3281 474.2344,315.1094 Q473.625,314.8906 473,314.8906 Q472.2344,314.8906 471.5938,315.2188 Q470.9688,315.5469 470.4688,316.2969 Q469.9844,317.0469 469.9844,318.0781 L469.9844,319.1719 Q469.9844,320.4063 470.875,321.2344 Q471.7656,322.0469 473.3594,322.0469 Q474.2969,322.0469 474.9531,321.7969 Q475.3438,321.6406 475.7656,321.2031 Q476.0313,320.9375 476.1719,320.8594 Q476.3281,320.7813 476.5313,320.7813 Q476.8594,320.7813 477.1094,321.0469 Q477.375,321.2969 477.375,321.6406 Q477.375,321.9844 477.0313,322.3906 Q476.5313,322.9688 475.7344,323.2969 Q474.6563,323.75 473.3594,323.75 Q471.8438,323.75 470.6406,323.125 Q469.6563,322.625 468.9688,321.5625 Q468.2813,320.4844 468.2813,319.2031 L468.2813,318.0469 Q468.2813,316.7188 468.8906,315.5781 Q469.5156,314.4219 470.6094,313.8125 Q471.7031,313.1875 472.9375,313.1875 Q473.6719,313.1875 474.3125,313.3594 Q474.9688,313.5156 475.5156,313.875 Z " fill="#000000"/><text fill="#000000" font-family="sans-serif" font-size="14" lengthAdjust="spacing" textLength="79" x="493.25" y="323.7969">Repositories</text><line style="stroke:#181818;stroke-width:0.5;" x1="356.5" x2="676.5" y1="334" y2="334"/><line style="stroke:#181818;stroke-width:0.5;" x1="356.5" x2="676.5" y1="342" y2="342"/><text fill="#000000" font-family="sans-serif" font-size="14" lengthAdjust="spacing" textLength="94" x="361.5" y="361.1074">-Repositories()</text><text fill="#000000" font-family="sans-serif" font-size="14" lengthAdjust="spacing" textLength="182" x="361.5" y="379.7285">+getInstance() : Repositories</text><text fill="#000000" font-family="sans-serif" font-size="14" lengthAdjust="spacing" textLength="310" x="361.5" y="398.3496">+getEmployeeRepository() : EmployeeRepository</text><text fill="#000000" font-family="sans-serif" font-size="14" lengthAdjust="spacing" textLength="305" x="361.5" y="416.9707">+getAuthRepository() : AuthenticationRepository</text></g><!--class Employee--><g id="elem_Employee"><rect codeLine="35" fill="#F1F1F1" height="271.4531" id="Employee" rx="2.5" ry="2.5" style="stroke:#181818;stroke-width:0.5;" width="1149" x="48" y="613"/><ellipse cx="587.25" cy="629" fill="#ADD1B2" rx="11" ry="11" style="stroke:#181818;stroke-width:1.0;"/><path d="M590.0156,624.875 Q590.1719,624.6563 590.3594,624.5469 Q590.5469,624.4375 590.7656,624.4375 Q591.1406,624.4375 591.375,624.7031 Q591.6094,624.9531 591.6094,625.5625 L591.6094,627.0156 Q591.6094,627.625 591.375,627.8906 Q591.1406,628.1563 590.7656,628.1563 Q590.4219,628.1563 590.2188,627.9531 Q590.0156,627.7656 589.9063,627.25 Q589.8594,626.8906 589.6719,626.7031 Q589.3438,626.3281 588.7344,626.1094 Q588.125,625.8906 587.5,625.8906 Q586.7344,625.8906 586.0938,626.2188 Q585.4688,626.5469 584.9688,627.2969 Q584.4844,628.0469 584.4844,629.0781 L584.4844,630.1719 Q584.4844,631.4063 585.375,632.2344 Q586.2656,633.0469 587.8594,633.0469 Q588.7969,633.0469 589.4531,632.7969 Q589.8438,632.6406 590.2656,632.2031 Q590.5313,631.9375 590.6719,631.8594 Q590.8281,631.7813 591.0313,631.7813 Q591.3594,631.7813 591.6094,632.0469 Q591.875,632.2969 591.875,632.6406 Q591.875,632.9844 591.5313,633.3906 Q591.0313,633.9688 590.2344,634.2969 Q589.1563,634.75 587.8594,634.75 Q586.3438,634.75 585.1406,634.125 Q584.1563,633.625 583.4688,632.5625 Q582.7813,631.4844 582.7813,630.2031 L582.7813,629.0469 Q582.7813,627.7188 583.3906,626.5781 Q584.0156,625.4219 585.1094,624.8125 Q586.2031,624.1875 587.4375,624.1875 Q588.1719,624.1875 588.8125,624.3594 Q589.4688,624.5156 590.0156,624.875 Z " fill="#000000"/><text fill="#000000" font-family="sans-serif" font-size="14" lengthAdjust="spacing" textLength="62" x="607.75" y="634.7969">Employee</text><line style="stroke:#181818;stroke-width:0.5;" x1="49" x2="1196" y1="645" y2="645"/><text fill="#000000" font-family="sans-serif" font-size="14" lengthAdjust="spacing" textLength="89" x="54" y="664.1074">-name : String</text><text fill="#000000" font-family="sans-serif" font-size="14" lengthAdjust="spacing" textLength="103" x="54" y="682.7285">-birthdate : Date</text><text fill="#000000" font-family="sans-serif" font-size="14" lengthAdjust="spacing" textLength="87" x="54" y="701.3496">-email : String</text><text fill="#000000" font-family="sans-serif" font-size="14" lengthAdjust="spacing" textLength="121" x="54" y="719.9707">-phoneNumber : int</text><text fill="#000000" font-family="sans-serif" font-size="14" lengthAdjust="spacing" textLength="142" x="54" y="738.5918">-admission date : Date</text><text fill="#000000" font-family="sans-serif" font-size="14" lengthAdjust="spacing" textLength="157" x="54" y="757.2129">-taxpayerNumber : String</text><text fill="#000000" font-family="sans-serif" font-size="14" lengthAdjust="spacing" textLength="105" x="54" y="775.834">-address : String</text><text fill="#000000" font-family="sans-serif" font-size="14" lengthAdjust="spacing" textLength="126" x="54" y="794.4551">-docNumber : String</text><text fill="#000000" font-family="sans-serif" font-size="14" lengthAdjust="spacing" textLength="100" x="54" y="813.0762">-jobTitle : String</text><line style="stroke:#181818;stroke-width:0.5;" x1="49" x2="1196" y1="820.5898" y2="820.5898"/><text fill="#000000" font-family="sans-serif" font-size="14" lengthAdjust="spacing" textLength="1137" x="54" y="839.6973">+registerGreenSpace(name: String, address: String, area: double, typology : GreenSpaceTypology, greenSpaceManager: String, userValidation : boolean) : Optional&lt;GreenSpace&gt;</text><text fill="#000000" font-family="sans-serif" font-size="14" lengthAdjust="spacing" textLength="360" x="54" y="858.3184">+addGreenSpace(greenSpace) : Optional&lt;GreenSpace&gt;</text><text fill="#000000" font-family="sans-serif" font-size="14" lengthAdjust="spacing" textLength="287" x="54" y="876.9395">+validateGreenSpace(greenSpace) : boolean</text></g><!--class EmployeeRepository--><g id="elem_EmployeeRepository"><rect codeLine="51" fill="#F1F1F1" height="66.6211" id="EmployeeRepository" rx="2.5" ry="2.5" style="stroke:#181818;stroke-width:0.5;" width="185" x="268" y="485"/><ellipse cx="293.35" cy="501" fill="#ADD1B2" rx="11" ry="11" style="stroke:#181818;stroke-width:1.0;"/><path d="M296.1156,496.875 Q296.2719,496.6563 296.4594,496.5469 Q296.6469,496.4375 296.8656,496.4375 Q297.2406,496.4375 297.475,496.7031 Q297.7094,496.9531 297.7094,497.5625 L297.7094,499.0156 Q297.7094,499.625 297.475,499.8906 Q297.2406,500.1563 296.8656,500.1563 Q296.5219,500.1563 296.3188,499.9531 Q296.1156,499.7656 296.0063,499.25 Q295.9594,498.8906 295.7719,498.7031 Q295.4438,498.3281 294.8344,498.1094 Q294.225,497.8906 293.6,497.8906 Q292.8344,497.8906 292.1938,498.2188 Q291.5688,498.5469 291.0688,499.2969 Q290.5844,500.0469 290.5844,501.0781 L290.5844,502.1719 Q290.5844,503.4063 291.475,504.2344 Q292.3656,505.0469 293.9594,505.0469 Q294.8969,505.0469 295.5531,504.7969 Q295.9438,504.6406 296.3656,504.2031 Q296.6313,503.9375 296.7719,503.8594 Q296.9281,503.7813 297.1313,503.7813 Q297.4594,503.7813 297.7094,504.0469 Q297.975,504.2969 297.975,504.6406 Q297.975,504.9844 297.6313,505.3906 Q297.1313,505.9688 296.3344,506.2969 Q295.2563,506.75 293.9594,506.75 Q292.4438,506.75 291.2406,506.125 Q290.2563,505.625 289.5688,504.5625 Q288.8813,503.4844 288.8813,502.2031 L288.8813,501.0469 Q288.8813,499.7188 289.4906,498.5781 Q290.1156,497.4219 291.2094,496.8125 Q292.3031,496.1875 293.5375,496.1875 Q294.2719,496.1875 294.9125,496.3594 Q295.5688,496.5156 296.1156,496.875 Z " fill="#000000"/><text fill="#000000" font-family="sans-serif" font-size="14" lengthAdjust="spacing" textLength="130" x="309.65" y="506.7969">EmployeeRepository</text><line style="stroke:#181818;stroke-width:0.5;" x1="269" x2="452" y1="517" y2="517"/><line style="stroke:#181818;stroke-width:0.5;" x1="269" x2="452" y1="525" y2="525"/><text fill="#000000" font-family="sans-serif" font-size="14" lengthAdjust="spacing" textLength="173" x="274" y="544.1074">+getEmployee() : employee</text></g><!--class AuthenticationRepository--><g id="elem_AuthenticationRepository"><rect codeLine="55" fill="#F1F1F1" height="66.6211" id="AuthenticationRepository" rx="2.5" ry="2.5" style="stroke:#181818;stroke-width:0.5;" width="268" x="488.5" y="485"/><ellipse cx="539.25" cy="501" fill="#ADD1B2" rx="11" ry="11" style="stroke:#181818;stroke-width:1.0;"/><path d="M542.0156,496.875 Q542.1719,496.6563 542.3594,496.5469 Q542.5469,496.4375 542.7656,496.4375 Q543.1406,496.4375 543.375,496.7031 Q543.6094,496.9531 543.6094,497.5625 L543.6094,499.0156 Q543.6094,499.625 543.375,499.8906 Q543.1406,500.1563 542.7656,500.1563 Q542.4219,500.1563 542.2188,499.9531 Q542.0156,499.7656 541.9063,499.25 Q541.8594,498.8906 541.6719,498.7031 Q541.3438,498.3281 540.7344,498.1094 Q540.125,497.8906 539.5,497.8906 Q538.7344,497.8906 538.0938,498.2188 Q537.4688,498.5469 536.9688,499.2969 Q536.4844,500.0469 536.4844,501.0781 L536.4844,502.1719 Q536.4844,503.4063 537.375,504.2344 Q538.2656,505.0469 539.8594,505.0469 Q540.7969,505.0469 541.4531,504.7969 Q541.8438,504.6406 542.2656,504.2031 Q542.5313,503.9375 542.6719,503.8594 Q542.8281,503.7813 543.0313,503.7813 Q543.3594,503.7813 543.6094,504.0469 Q543.875,504.2969 543.875,504.6406 Q543.875,504.9844 543.5313,505.3906 Q543.0313,505.9688 542.2344,506.2969 Q541.1563,506.75 539.8594,506.75 Q538.3438,506.75 537.1406,506.125 Q536.1563,505.625 535.4688,504.5625 Q534.7813,503.4844 534.7813,502.2031 L534.7813,501.0469 Q534.7813,499.7188 535.3906,498.5781 Q536.0156,497.4219 537.1094,496.8125 Q538.2031,496.1875 539.4375,496.1875 Q540.1719,496.1875 540.8125,496.3594 Q541.4688,496.5156 542.0156,496.875 Z " fill="#000000"/><text fill="#000000" font-family="sans-serif" font-size="14" lengthAdjust="spacing" textLength="158" x="559.75" y="506.7969">AuthenticationRepository</text><line style="stroke:#181818;stroke-width:0.5;" x1="489.5" x2="755.5" y1="517" y2="517"/><line style="stroke:#181818;stroke-width:0.5;" x1="489.5" x2="755.5" y1="525" y2="525"/><text fill="#000000" font-family="sans-serif" font-size="14" lengthAdjust="spacing" textLength="256" x="494.5" y="544.1074">+getCurrentUserSession() : UserSession</text></g><!--class GreenSpace--><g id="elem_GreenSpace"><rect codeLine="59" fill="#F1F1F1" height="141.1055" id="GreenSpace" rx="2.5" ry="2.5" style="stroke:#181818;stroke-width:0.5;" width="220" x="512.5" y="963"/><ellipse cx="578.25" cy="979" fill="#ADD1B2" rx="11" ry="11" style="stroke:#181818;stroke-width:1.0;"/><path d="M581.0156,974.875 Q581.1719,974.6563 581.3594,974.5469 Q581.5469,974.4375 581.7656,974.4375 Q582.1406,974.4375 582.375,974.7031 Q582.6094,974.9531 582.6094,975.5625 L582.6094,977.0156 Q582.6094,977.625 582.375,977.8906 Q582.1406,978.1563 581.7656,978.1563 Q581.4219,978.1563 581.2188,977.9531 Q581.0156,977.7656 580.9063,977.25 Q580.8594,976.8906 580.6719,976.7031 Q580.3438,976.3281 579.7344,976.1094 Q579.125,975.8906 578.5,975.8906 Q577.7344,975.8906 577.0938,976.2188 Q576.4688,976.5469 575.9688,977.2969 Q575.4844,978.0469 575.4844,979.0781 L575.4844,980.1719 Q575.4844,981.4063 576.375,982.2344 Q577.2656,983.0469 578.8594,983.0469 Q579.7969,983.0469 580.4531,982.7969 Q580.8438,982.6406 581.2656,982.2031 Q581.5313,981.9375 581.6719,981.8594 Q581.8281,981.7813 582.0313,981.7813 Q582.3594,981.7813 582.6094,982.0469 Q582.875,982.2969 582.875,982.6406 Q582.875,982.9844 582.5313,983.3906 Q582.0313,983.9688 581.2344,984.2969 Q580.1563,984.75 578.8594,984.75 Q577.3438,984.75 576.1406,984.125 Q575.1563,983.625 574.4688,982.5625 Q573.7813,981.4844 573.7813,980.2031 L573.7813,979.0469 Q573.7813,977.7188 574.3906,976.5781 Q575.0156,975.4219 576.1094,974.8125 Q577.2031,974.1875 578.4375,974.1875 Q579.1719,974.1875 579.8125,974.3594 Q580.4688,974.5156 581.0156,974.875 Z " fill="#000000"/><text fill="#000000" font-family="sans-serif" font-size="14" lengthAdjust="spacing" textLength="80" x="598.75" y="984.7969">GreenSpace</text><line style="stroke:#181818;stroke-width:0.5;" x1="513.5" x2="731.5" y1="995" y2="995"/><text fill="#000000" font-family="sans-serif" font-size="14" lengthAdjust="spacing" textLength="89" x="518.5" y="1014.1074">-name : String</text><text fill="#000000" font-family="sans-serif" font-size="14" lengthAdjust="spacing" textLength="105" x="518.5" y="1032.7285">-address : String</text><text fill="#000000" font-family="sans-serif" font-size="14" lengthAdjust="spacing" textLength="89" x="518.5" y="1051.3496">-area : double</text><text fill="#000000" font-family="sans-serif" font-size="14" lengthAdjust="spacing" textLength="208" x="518.5" y="1069.9707">-typology : GreenSpaceTypology</text><text fill="#000000" font-family="sans-serif" font-size="14" lengthAdjust="spacing" textLength="187" x="518.5" y="1088.5918">-greenSpaceManager : String</text><line style="stroke:#181818;stroke-width:0.5;" x1="513.5" x2="731.5" y1="1096.1055" y2="1096.1055"/></g><!--class GreenSpaceTypology--><g id="elem_GreenSpaceTypology"><rect codeLine="67" fill="#F1F1F1" height="103.8633" id="GreenSpaceTypology" rx="2.5" ry="2.5" style="stroke:#181818;stroke-width:0.5;" width="170" x="767.5" y="981.5"/><ellipse cx="782.5" cy="997.5" fill="#EB937F" rx="11" ry="11" style="stroke:#181818;stroke-width:1.0;"/><path d="M781.3594,998.2969 L781.3594,1000.7969 L785.6875,1000.7969 L785.6875,999.875 Q785.6875,999.2656 785.9219,999 Q786.1719,998.7344 786.5469,998.7344 Q786.9219,998.7344 787.1563,999 Q787.3906,999.2656 787.3906,999.875 L787.3906,1002.5 L779.3906,1002.5 Q778.7656,1002.5 778.5,1002.2656 Q778.25,1002.0313 778.25,1001.6406 Q778.25,1001.2656 778.5156,1001.0313 Q778.7813,1000.7969 779.3906,1000.7969 L779.6563,1000.7969 L779.6563,994.1406 L779.3906,994.1406 Q778.7656,994.1406 778.5,993.9063 Q778.25,993.6719 778.25,993.2813 Q778.25,992.9063 778.5,992.6719 Q778.7656,992.4375 779.3906,992.4375 L787.0156,992.4375 L787.0156,995.0313 Q787.0156,995.6406 786.7813,995.9063 Q786.5625,996.1563 786.1719,996.1563 Q785.7969,996.1563 785.5625,995.9063 Q785.3281,995.6406 785.3281,995.0313 L785.3281,994.1406 L781.3594,994.1406 L781.3594,996.5938 L782.8438,996.5938 Q782.8438,995.9375 782.9688,995.75 Q783.2344,995.3438 783.7031,995.3438 Q784.0781,995.3438 784.3125,995.6094 Q784.5469,995.8594 784.5469,996.4688 L784.5469,998.4375 Q784.5469,998.9844 784.4219,999.1719 Q784.1563,999.5625 783.7031,999.5625 Q783.2344,999.5625 782.9688,999.1563 Q782.8438,998.9688 782.8438,998.2969 L781.3594,998.2969 Z " fill="#000000"/><text fill="#000000" font-family="sans-serif" font-size="14" lengthAdjust="spacing" textLength="138" x="796.5" y="1003.2969">GreenSpaceTypology</text><line style="stroke:#181818;stroke-width:0.5;" x1="768.5" x2="936.5" y1="1013.5" y2="1013.5"/><text fill="#000000" font-family="sans-serif" font-size="14" lengthAdjust="spacing" textLength="58" x="773.5" y="1032.6074">GARDEN</text><text fill="#000000" font-family="sans-serif" font-size="14" lengthAdjust="spacing" textLength="53" x="773.5" y="1051.2285">MEDIUM</text><text fill="#000000" font-family="sans-serif" font-size="14" lengthAdjust="spacing" textLength="47" x="773.5" y="1069.8496">LARGE</text><line style="stroke:#181818;stroke-width:0.5;" x1="768.5" x2="936.5" y1="1077.3633" y2="1077.3633"/></g><!--link RegisterGreenSpaceController to Repositories--><g id="link_RegisterGreenSpaceController_Repositories"><path codeLine="75" d="M627.67,223.18 C606.1,250.11 587.4608,273.3869 568.4708,297.0969 " fill="none" id="RegisterGreenSpaceController-to-Repositories" style="stroke:#181818;stroke-width:1.0;stroke-dasharray:7.0,7.0;"/><polygon fill="#181818" points="564.72,301.78,573.4683,297.2559,567.8457,297.8774,567.2242,292.2548,564.72,301.78" style="stroke:#181818;stroke-width:1.0;"/><text fill="#000000" font-family="sans-serif" font-size="13" lengthAdjust="spacing" textLength="67" x="603.5" y="268.0283">repositories</text></g><!--link RegisterGreenSpaceController to Employee--><g id="link_RegisterGreenSpaceController_Employee"><path codeLine="76" d="M748.63,223.12 C762.19,264.47 774.5,302 774.5,302 C774.5,302 774.5,552 774.5,552 C774.5,552 757.2525,574.183 730.9225,608.053 " fill="none" id="RegisterGreenSpaceController-to-Employee" style="stroke:#181818;stroke-width:1.0;stroke-dasharray:7.0,7.0;"/><polygon fill="#181818" points="727.24,612.79,735.9217,608.1395,730.3087,608.8425,729.6057,603.2295,727.24,612.79" style="stroke:#181818;stroke-width:1.0;"/></g><!--link RegisterGreenSpaceUI to RegisterGreenSpaceController--><g id="link_RegisterGreenSpaceUI_RegisterGreenSpaceController"><path codeLine="77" d="M184.06,115 C195.73,115 201.65,115 213.2,115 " fill="none" id="RegisterGreenSpaceUI-to-RegisterGreenSpaceController" style="stroke:#181818;stroke-width:1.0;stroke-dasharray:7.0,7.0;"/><polygon fill="#181818" points="219.2,115,210.2,111,214.2,115,210.2,119,219.2,115" style="stroke:#181818;stroke-width:1.0;"/></g><!--link Repositories to Repositories--><g id="link_Repositories_Repositories"><path codeLine="78" d="M677.6,348.16 C698.6,350.72 712.5,355.66 712.5,363 C712.5,370.34 704.5559,374.5539 683.5559,377.1139 " fill="none" id="Repositories-to-Repositories" style="stroke:#181818;stroke-width:1.0;"/><polygon fill="#181818" points="677.6,377.84,687.0179,380.7215,682.5633,377.235,686.0498,372.7803,677.6,377.84" style="stroke:#181818;stroke-width:1.0;"/><text fill="#000000" font-family="sans-serif" font-size="13" lengthAdjust="spacing" textLength="49" x="718.5" y="368.5283">instance</text></g><!--link EmployeeRepository to Employee--><g id="link_EmployeeRepository_Employee"><path codeLine="79" d="M398.04,552.17 C417.14,568.79 437.2433,586.2918 463.1633,608.8418 " fill="none" id="EmployeeRepository-to-Employee" style="stroke:#181818;stroke-width:1.0;"/><polygon fill="#181818" points="467.69,612.78,463.5254,603.855,463.9178,609.4982,458.2745,609.8906,467.69,612.78" style="stroke:#181818;stroke-width:1.0;"/><text fill="#000000" font-family="sans-serif" font-size="13" lengthAdjust="spacing" textLength="7" x="397.1034" y="573.7695">1</text><text fill="#000000" font-family="sans-serif" font-size="13" lengthAdjust="spacing" textLength="5" x="454.0871" y="601.9169">*</text></g><!--link AuthenticationRepository to Employee--><g id="link_AuthenticationRepository_Employee"><path codeLine="80" d="M622.5,552.17 C622.5,568.79 622.5,584.23 622.5,606.78 " fill="none" id="AuthenticationRepository-to-Employee" style="stroke:#181818;stroke-width:1.0;"/><polygon fill="#181818" points="622.5,612.78,626.5,603.78,622.5,607.78,618.5,603.78,622.5,612.78" style="stroke:#181818;stroke-width:1.0;"/><text fill="#000000" font-family="sans-serif" font-size="13" lengthAdjust="spacing" textLength="7" x="614.8766" y="573.7695">1</text><text fill="#000000" font-family="sans-serif" font-size="13" lengthAdjust="spacing" textLength="5" x="617.3633" y="601.9169">*</text></g><!--link Employee to GreenSpace--><g id="link_Employee_GreenSpace"><path codeLine="81" d="M622.5,884.37 C622.5,911.56 622.5,933.08 622.5,956.9 " fill="none" id="Employee-to-GreenSpace" style="stroke:#181818;stroke-width:1.0;"/><polygon fill="#181818" points="622.5,962.9,626.5,953.9,622.5,957.9,618.5,953.9,622.5,962.9" style="stroke:#181818;stroke-width:1.0;"/><text fill="#000000" font-family="sans-serif" font-size="13" lengthAdjust="spacing" textLength="115" x="623.5" y="929.0283">registerGreenSpace</text><text fill="#000000" font-family="sans-serif" font-size="13" lengthAdjust="spacing" textLength="7" x="615.3086" y="906.2891">1</text><text fill="#000000" font-family="sans-serif" font-size="13" lengthAdjust="spacing" textLength="5" x="617.2422" y="951.7807">*</text></g><!--link Repositories to EmployeeRepository--><g id="link_Repositories_EmployeeRepository"><path codeLine="82" d="M455.29,424.23 C434.29,444.89 415.8671,463.0221 397.9471,480.6521 " fill="none" id="Repositories-to-EmployeeRepository" style="stroke:#181818;stroke-width:1.0;"/><polygon fill="#181818" points="393.67,484.86,402.8909,481.3996,397.2343,481.3534,397.2804,475.6968,393.67,484.86" style="stroke:#181818;stroke-width:1.0;"/><text fill="#000000" font-family="sans-serif" font-size="13" lengthAdjust="spacing" textLength="7" x="440.8079" y="446.3097">1</text><text fill="#000000" font-family="sans-serif" font-size="13" lengthAdjust="spacing" textLength="7" x="392.5113" y="473.658">1</text></g><!--link Repositories to AuthenticationRepository--><g id="link_Repositories_AuthenticationRepository"><path codeLine="83" d="M558.09,424.23 C572.36,444.89 584.3695,462.2935 596.5495,479.9235 " fill="none" id="Repositories-to-AuthenticationRepository" style="stroke:#181818;stroke-width:1.0;"/><polygon fill="#181818" points="599.96,484.86,598.1353,475.1816,597.118,480.7463,591.5533,479.7289,599.96,484.86" style="stroke:#181818;stroke-width:1.0;"/><text fill="#000000" font-family="sans-serif" font-size="13" lengthAdjust="spacing" textLength="7" x="555.4942" y="446.3097">1</text><text fill="#000000" font-family="sans-serif" font-size="13" lengthAdjust="spacing" textLength="7" x="587.8334" y="473.658">1</text></g><!--link GreenSpace to GreenSpaceTypology--><g id="link_GreenSpace_GreenSpaceTypology"><path codeLine="84" d="M732.57,1033.5 C745.32,1033.5 752.81,1033.5 761.27,1033.5 " fill="none" id="GreenSpace-to-GreenSpaceTypology" style="stroke:#181818;stroke-width:1.0;stroke-dasharray:7.0,7.0;"/><polygon fill="#181818" points="767.27,1033.5,758.27,1029.5,762.27,1033.5,758.27,1037.5,767.27,1033.5" style="stroke:#181818;stroke-width:1.0;"/><text fill="#000000" font-family="sans-serif" font-size="13" lengthAdjust="spacing" textLength="7" x="740.5554" y="1029.9372">1</text><text fill="#000000" font-family="sans-serif" font-size="13" lengthAdjust="spacing" textLength="7" x="752.3675" y="1029.7903">1</text></g><!--SRC=[nLNBRjim4BppAmXVR3Tsq5oD8e0R6u6190NiE3qKFT3IHc93aG99fL6B_djNBvEo91SvLGSRMiuiXzpPrTYyS9aopHAQAAc2MAi4gDKP4BUIik25HR2pkG2g8R1CHi87c9Y5wYUN4NrcmlWhWakmUGeqLI8lNiYuPr5fguZ72WGpPccjveVCmYPGSiT_0Vr8o5Z0iwLMKSsZsDAG5tAuaeIK7Bg5Y1iB-bO3o1qAX_s6_YRapp3WHachbH2W4KZnkQ0Hs7MI2fK3R25LXbkbyycKBcWtx2ZBpCOdy284qlA05I8x92wvvKpWsIRJ1NrLFAmNu0r5cg_Sniimr63CX5N_c7E7roAZ8lj1AG5CTZWFB869n9ypw23J6fNj3UWx5Mta4ye8IvMJBZXXDeYRet_EjxZMkeqQfZjtMwfeHCneVGWle84jQAYoWu0PHIyeeQ8SCxiKZtLmHgDZx9v9zAFsJ_SbBRGpySanhrrfEkaucF84tNs-VIzfdc7geY6bDWYTjwAJQHKjTzf8W-qHLFVZeppC-xprVdCvjpSfQ-7pbYcgq85h6sFbY_WA_wee98oB4sGQAmaFMNB0JbcWTsqLPc72ZK45j9F5ihUKvQ2F93_TgQEhQAY2NlGFTNZaLfoel_XVbflH33l7DOrhcVDcH3cUL9V-FEkrsWS6gKsxTYllRD5CDy-0fOsWQU8ZTyXONeORDpvsK5Q_pEMzktHETTC__LOSTaMrWeMZJULS-6m57QnRIhS5AWMP9JtyMl3jShjQFv3xzMgploTto-tjkY0HSlPhSdbvtPe02noGtZpu9_SuNNi_QcNouGoaDRVcRILb-rPpYlGOPNGredEaZ3wCd8X1K_IYZuF7N_MCiEZvMBGb7ubNexx9E8WTd8hUxWNkieBtU0QVlm00]--></g></svg>