<?xml version="1.0" encoding="us-ascii" standalone="no"?><svg xmlns="http://www.w3.org/2000/svg" xmlns:xlink="http://www.w3.org/1999/xlink" contentStyleType="text/css" height="1073px" preserveAspectRatio="none" style="width:984px;height:1073px;background:#FFFFFF;" version="1.1" viewBox="0 0 984 1073" width="984px" zoomAndPan="magnify"><defs/><g><!--class RegisterGreenSpaceUI--><g id="elem_RegisterGreenSpaceUI"><rect codeLine="11" fill="#F1F1F1" height="48" id="RegisterGreenSpaceUI" rx="2.5" ry="2.5" style="stroke:#181818;stroke-width:0.5;" width="177" x="7" y="72"/><ellipse cx="22" cy="88" fill="#ADD1B2" rx="11" ry="11" style="stroke:#181818;stroke-width:1.0;"/><path d="M24.7656,83.875 Q24.9219,83.6563 25.1094,83.5469 Q25.2969,83.4375 25.5156,83.4375 Q25.8906,83.4375 26.125,83.7031 Q26.3594,83.9531 26.3594,84.5625 L26.3594,86.0156 Q26.3594,86.625 26.125,86.8906 Q25.8906,87.1563 25.5156,87.1563 Q25.1719,87.1563 24.9688,86.9531 Q24.7656,86.7656 24.6563,86.25 Q24.6094,85.8906 24.4219,85.7031 Q24.0938,85.3281 23.4844,85.1094 Q22.875,84.8906 22.25,84.8906 Q21.4844,84.8906 20.8438,85.2188 Q20.2188,85.5469 19.7188,86.2969 Q19.2344,87.0469 19.2344,88.0781 L19.2344,89.1719 Q19.2344,90.4063 20.125,91.2344 Q21.0156,92.0469 22.6094,92.0469 Q23.5469,92.0469 24.2031,91.7969 Q24.5938,91.6406 25.0156,91.2031 Q25.2813,90.9375 25.4219,90.8594 Q25.5781,90.7813 25.7813,90.7813 Q26.1094,90.7813 26.3594,91.0469 Q26.625,91.2969 26.625,91.6406 Q26.625,91.9844 26.2813,92.3906 Q25.7813,92.9688 24.9844,93.2969 Q23.9063,93.75 22.6094,93.75 Q21.0938,93.75 19.8906,93.125 Q18.9063,92.625 18.2188,91.5625 Q17.5313,90.4844 17.5313,89.2031 L17.5313,88.0469 Q17.5313,86.7188 18.1406,85.5781 Q18.7656,84.4219 19.8594,83.8125 Q20.9531,83.1875 22.1875,83.1875 Q22.9219,83.1875 23.5625,83.3594 Q24.2188,83.5156 24.7656,83.875 Z " fill="#000000"/><text fill="#000000" font-family="sans-serif" font-size="14" lengthAdjust="spacing" textLength="145" x="36" y="93.7969">RegisterGreenSpaceUI</text><line style="stroke:#181818;stroke-width:0.5;" x1="8" x2="183" y1="104" y2="104"/><line style="stroke:#181818;stroke-width:0.5;" x1="8" x2="183" y1="112" y2="112"/></g><!--class RegisterGreenSpaceController--><g id="elem_RegisterGreenSpaceController"><rect codeLine="15" fill="#F1F1F1" height="178.3477" id="RegisterGreenSpaceController" rx="2.5" ry="2.5" style="stroke:#181818;stroke-width:0.5;" width="726" x="219.5" y="7"/><ellipse cx="480.75" cy="23" fill="#ADD1B2" rx="11" ry="11" style="stroke:#181818;stroke-width:1.0;"/><path d="M483.5156,18.875 Q483.6719,18.6563 483.8594,18.5469 Q484.0469,18.4375 484.2656,18.4375 Q484.6406,18.4375 484.875,18.7031 Q485.1094,18.9531 485.1094,19.5625 L485.1094,21.0156 Q485.1094,21.625 484.875,21.8906 Q484.6406,22.1563 484.2656,22.1563 Q483.9219,22.1563 483.7188,21.9531 Q483.5156,21.7656 483.4063,21.25 Q483.3594,20.8906 483.1719,20.7031 Q482.8438,20.3281 482.2344,20.1094 Q481.625,19.8906 481,19.8906 Q480.2344,19.8906 479.5938,20.2188 Q478.9688,20.5469 478.4688,21.2969 Q477.9844,22.0469 477.9844,23.0781 L477.9844,24.1719 Q477.9844,25.4063 478.875,26.2344 Q479.7656,27.0469 481.3594,27.0469 Q482.2969,27.0469 482.9531,26.7969 Q483.3438,26.6406 483.7656,26.2031 Q484.0313,25.9375 484.1719,25.8594 Q484.3281,25.7813 484.5313,25.7813 Q484.8594,25.7813 485.1094,26.0469 Q485.375,26.2969 485.375,26.6406 Q485.375,26.9844 485.0313,27.3906 Q484.5313,27.9688 483.7344,28.2969 Q482.6563,28.75 481.3594,28.75 Q479.8438,28.75 478.6406,28.125 Q477.6563,27.625 476.9688,26.5625 Q476.2813,25.4844 476.2813,24.2031 L476.2813,23.0469 Q476.2813,21.7188 476.8906,20.5781 Q477.5156,19.4219 478.6094,18.8125 Q479.7031,18.1875 480.9375,18.1875 Q481.6719,18.1875 482.3125,18.3594 Q482.9688,18.5156 483.5156,18.875 Z " fill="#000000"/><text fill="#000000" font-family="sans-serif" font-size="14" lengthAdjust="spacing" textLength="195" x="501.25" y="28.7969">RegisterGreenSpaceController</text><line style="stroke:#181818;stroke-width:0.5;" x1="220.5" x2="944.5" y1="39" y2="39"/><text fill="#000000" font-family="sans-serif" font-size="14" lengthAdjust="spacing" textLength="242" x="225.5" y="58.1074">+currentUserLogInValidation : boolean</text><line style="stroke:#181818;stroke-width:0.5;" x1="220.5" x2="944.5" y1="65.6211" y2="65.6211"/><text fill="#000000" font-family="sans-serif" font-size="14" lengthAdjust="spacing" textLength="714" x="225.5" y="84.7285">+registerGreenSpace(name: String, address: String, area: double, typology : String, greenSpaceManager: String)</text><text fill="#000000" font-family="sans-serif" font-size="14" lengthAdjust="spacing" textLength="281" x="225.5" y="103.3496">+existsGreenSpace(name : String) : Boolean</text><text fill="#000000" font-family="sans-serif" font-size="14" lengthAdjust="spacing" textLength="346" x="225.5" y="121.9707">+getGreenSpaceRepository() : GreenSpaceRepository</text><text fill="#000000" font-family="sans-serif" font-size="14" lengthAdjust="spacing" textLength="244" x="225.5" y="140.5918">+getAuthRepository() : AuthRepository</text><text fill="#000000" font-family="sans-serif" font-size="14" lengthAdjust="spacing" textLength="328" x="225.5" y="159.2129">+getEmployeeRepository() : GreenSpaceRepository</text><text fill="#000000" font-family="sans-serif" font-size="14" lengthAdjust="spacing" textLength="237" x="225.5" y="177.834">+matchEmployeeByRole() : Employee</text></g><!--class Repositories--><g id="elem_Repositories"><rect codeLine="27" fill="#F1F1F1" height="103.8633" id="Repositories" rx="2.5" ry="2.5" style="stroke:#181818;stroke-width:0.5;" width="194" x="329.5" y="264"/><ellipse cx="382.75" cy="280" fill="#ADD1B2" rx="11" ry="11" style="stroke:#181818;stroke-width:1.0;"/><path d="M385.5156,275.875 Q385.6719,275.6563 385.8594,275.5469 Q386.0469,275.4375 386.2656,275.4375 Q386.6406,275.4375 386.875,275.7031 Q387.1094,275.9531 387.1094,276.5625 L387.1094,278.0156 Q387.1094,278.625 386.875,278.8906 Q386.6406,279.1563 386.2656,279.1563 Q385.9219,279.1563 385.7188,278.9531 Q385.5156,278.7656 385.4063,278.25 Q385.3594,277.8906 385.1719,277.7031 Q384.8438,277.3281 384.2344,277.1094 Q383.625,276.8906 383,276.8906 Q382.2344,276.8906 381.5938,277.2188 Q380.9688,277.5469 380.4688,278.2969 Q379.9844,279.0469 379.9844,280.0781 L379.9844,281.1719 Q379.9844,282.4063 380.875,283.2344 Q381.7656,284.0469 383.3594,284.0469 Q384.2969,284.0469 384.9531,283.7969 Q385.3438,283.6406 385.7656,283.2031 Q386.0313,282.9375 386.1719,282.8594 Q386.3281,282.7813 386.5313,282.7813 Q386.8594,282.7813 387.1094,283.0469 Q387.375,283.2969 387.375,283.6406 Q387.375,283.9844 387.0313,284.3906 Q386.5313,284.9688 385.7344,285.2969 Q384.6563,285.75 383.3594,285.75 Q381.8438,285.75 380.6406,285.125 Q379.6563,284.625 378.9688,283.5625 Q378.2813,282.4844 378.2813,281.2031 L378.2813,280.0469 Q378.2813,278.7188 378.8906,277.5781 Q379.5156,276.4219 380.6094,275.8125 Q381.7031,275.1875 382.9375,275.1875 Q383.6719,275.1875 384.3125,275.3594 Q384.9688,275.5156 385.5156,275.875 Z " fill="#000000"/><text fill="#000000" font-family="sans-serif" font-size="14" lengthAdjust="spacing" textLength="79" x="403.25" y="285.7969">Repositories</text><line style="stroke:#181818;stroke-width:0.5;" x1="330.5" x2="522.5" y1="296" y2="296"/><line style="stroke:#181818;stroke-width:0.5;" x1="330.5" x2="522.5" y1="304" y2="304"/><text fill="#000000" font-family="sans-serif" font-size="14" lengthAdjust="spacing" textLength="94" x="335.5" y="323.1074">-Repositories()</text><text fill="#000000" font-family="sans-serif" font-size="14" lengthAdjust="spacing" textLength="182" x="335.5" y="341.7285">+getInstance() : Repositories</text><text fill="#000000" font-family="sans-serif" font-size="14" lengthAdjust="spacing" textLength="168" x="335.5" y="360.3496">+getEmployeeRepository()</text></g><!--class Employee--><g id="elem_Employee"><rect codeLine="34" fill="#F1F1F1" height="196.9688" id="Employee" rx="2.5" ry="2.5" style="stroke:#181818;stroke-width:0.5;" width="163" x="452" y="575"/><ellipse cx="498.25" cy="591" fill="#ADD1B2" rx="11" ry="11" style="stroke:#181818;stroke-width:1.0;"/><path d="M501.0156,586.875 Q501.1719,586.6563 501.3594,586.5469 Q501.5469,586.4375 501.7656,586.4375 Q502.1406,586.4375 502.375,586.7031 Q502.6094,586.9531 502.6094,587.5625 L502.6094,589.0156 Q502.6094,589.625 502.375,589.8906 Q502.1406,590.1563 501.7656,590.1563 Q501.4219,590.1563 501.2188,589.9531 Q501.0156,589.7656 500.9063,589.25 Q500.8594,588.8906 500.6719,588.7031 Q500.3438,588.3281 499.7344,588.1094 Q499.125,587.8906 498.5,587.8906 Q497.7344,587.8906 497.0938,588.2188 Q496.4688,588.5469 495.9688,589.2969 Q495.4844,590.0469 495.4844,591.0781 L495.4844,592.1719 Q495.4844,593.4063 496.375,594.2344 Q497.2656,595.0469 498.8594,595.0469 Q499.7969,595.0469 500.4531,594.7969 Q500.8438,594.6406 501.2656,594.2031 Q501.5313,593.9375 501.6719,593.8594 Q501.8281,593.7813 502.0313,593.7813 Q502.3594,593.7813 502.6094,594.0469 Q502.875,594.2969 502.875,594.6406 Q502.875,594.9844 502.5313,595.3906 Q502.0313,595.9688 501.2344,596.2969 Q500.1563,596.75 498.8594,596.75 Q497.3438,596.75 496.1406,596.125 Q495.1563,595.625 494.4688,594.5625 Q493.7813,593.4844 493.7813,592.2031 L493.7813,591.0469 Q493.7813,589.7188 494.3906,588.5781 Q495.0156,587.4219 496.1094,586.8125 Q497.2031,586.1875 498.4375,586.1875 Q499.1719,586.1875 499.8125,586.3594 Q500.4688,586.5156 501.0156,586.875 Z " fill="#000000"/><text fill="#000000" font-family="sans-serif" font-size="14" lengthAdjust="spacing" textLength="62" x="518.75" y="596.7969">Employee</text><line style="stroke:#181818;stroke-width:0.5;" x1="453" x2="614" y1="607" y2="607"/><text fill="#000000" font-family="sans-serif" font-size="14" lengthAdjust="spacing" textLength="35" x="458" y="626.1074">name</text><text fill="#000000" font-family="sans-serif" font-size="14" lengthAdjust="spacing" textLength="60" x="458" y="644.7285">birth date</text><text fill="#000000" font-family="sans-serif" font-size="14" lengthAdjust="spacing" textLength="95" x="458" y="663.3496">admission date</text><text fill="#000000" font-family="sans-serif" font-size="14" lengthAdjust="spacing" textLength="106" x="458" y="681.9707">taxpayer number</text><text fill="#000000" font-family="sans-serif" font-size="14" lengthAdjust="spacing" textLength="51" x="458" y="700.5918">address</text><text fill="#000000" font-family="sans-serif" font-size="14" lengthAdjust="spacing" textLength="151" x="458" y="719.2129">ID doc type and number</text><text fill="#000000" font-family="sans-serif" font-size="14" lengthAdjust="spacing" textLength="24" x="458" y="737.834">role</text><line style="stroke:#181818;stroke-width:0.5;" x1="453" x2="614" y1="745.3477" y2="745.3477"/><text fill="#000000" font-family="sans-serif" font-size="14" lengthAdjust="spacing" textLength="137" x="458" y="764.4551">contact (email/phone)</text></g><!--class EmployeeRepository--><g id="elem_EmployeeRepository"><rect codeLine="45" fill="#F1F1F1" height="85.2422" id="EmployeeRepository" rx="2.5" ry="2.5" style="stroke:#181818;stroke-width:0.5;" width="407" x="202" y="429"/><ellipse cx="336.25" cy="445" fill="#ADD1B2" rx="11" ry="11" style="stroke:#181818;stroke-width:1.0;"/><path d="M339.0156,440.875 Q339.1719,440.6563 339.3594,440.5469 Q339.5469,440.4375 339.7656,440.4375 Q340.1406,440.4375 340.375,440.7031 Q340.6094,440.9531 340.6094,441.5625 L340.6094,443.0156 Q340.6094,443.625 340.375,443.8906 Q340.1406,444.1563 339.7656,444.1563 Q339.4219,444.1563 339.2188,443.9531 Q339.0156,443.7656 338.9063,443.25 Q338.8594,442.8906 338.6719,442.7031 Q338.3438,442.3281 337.7344,442.1094 Q337.125,441.8906 336.5,441.8906 Q335.7344,441.8906 335.0938,442.2188 Q334.4688,442.5469 333.9688,443.2969 Q333.4844,444.0469 333.4844,445.0781 L333.4844,446.1719 Q333.4844,447.4063 334.375,448.2344 Q335.2656,449.0469 336.8594,449.0469 Q337.7969,449.0469 338.4531,448.7969 Q338.8438,448.6406 339.2656,448.2031 Q339.5313,447.9375 339.6719,447.8594 Q339.8281,447.7813 340.0313,447.7813 Q340.3594,447.7813 340.6094,448.0469 Q340.875,448.2969 340.875,448.6406 Q340.875,448.9844 340.5313,449.3906 Q340.0313,449.9688 339.2344,450.2969 Q338.1563,450.75 336.8594,450.75 Q335.3438,450.75 334.1406,450.125 Q333.1563,449.625 332.4688,448.5625 Q331.7813,447.4844 331.7813,446.2031 L331.7813,445.0469 Q331.7813,443.7188 332.3906,442.5781 Q333.0156,441.4219 334.1094,440.8125 Q335.2031,440.1875 336.4375,440.1875 Q337.1719,440.1875 337.8125,440.3594 Q338.4688,440.5156 339.0156,440.875 Z " fill="#000000"/><text fill="#000000" font-family="sans-serif" font-size="14" lengthAdjust="spacing" textLength="130" x="356.75" y="450.7969">EmployeeRepository</text><line style="stroke:#181818;stroke-width:0.5;" x1="203" x2="608" y1="461" y2="461"/><text fill="#000000" font-family="sans-serif" font-size="14" lengthAdjust="spacing" textLength="200" x="208" y="480.1074">-employeeList : List&lt;Employee&gt;</text><line style="stroke:#181818;stroke-width:0.5;" x1="203" x2="608" y1="487.6211" y2="487.6211"/><text fill="#000000" font-family="sans-serif" font-size="14" lengthAdjust="spacing" textLength="395" x="208" y="506.7285">+getEmployee(taxpayerNumber : String) : Optional&lt;Employee&gt;</text></g><!--class GreenSpace--><g id="elem_GreenSpace"><rect codeLine="52" fill="#F1F1F1" height="215.5898" id="GreenSpace" rx="2.5" ry="2.5" style="stroke:#181818;stroke-width:0.5;" width="887" x="90" y="851"/><ellipse cx="489.25" cy="867" fill="#ADD1B2" rx="11" ry="11" style="stroke:#181818;stroke-width:1.0;"/><path d="M492.0156,862.875 Q492.1719,862.6563 492.3594,862.5469 Q492.5469,862.4375 492.7656,862.4375 Q493.1406,862.4375 493.375,862.7031 Q493.6094,862.9531 493.6094,863.5625 L493.6094,865.0156 Q493.6094,865.625 493.375,865.8906 Q493.1406,866.1563 492.7656,866.1563 Q492.4219,866.1563 492.2188,865.9531 Q492.0156,865.7656 491.9063,865.25 Q491.8594,864.8906 491.6719,864.7031 Q491.3438,864.3281 490.7344,864.1094 Q490.125,863.8906 489.5,863.8906 Q488.7344,863.8906 488.0938,864.2188 Q487.4688,864.5469 486.9688,865.2969 Q486.4844,866.0469 486.4844,867.0781 L486.4844,868.1719 Q486.4844,869.4063 487.375,870.2344 Q488.2656,871.0469 489.8594,871.0469 Q490.7969,871.0469 491.4531,870.7969 Q491.8438,870.6406 492.2656,870.2031 Q492.5313,869.9375 492.6719,869.8594 Q492.8281,869.7813 493.0313,869.7813 Q493.3594,869.7813 493.6094,870.0469 Q493.875,870.2969 493.875,870.6406 Q493.875,870.9844 493.5313,871.3906 Q493.0313,871.9688 492.2344,872.2969 Q491.1563,872.75 489.8594,872.75 Q488.3438,872.75 487.1406,872.125 Q486.1563,871.625 485.4688,870.5625 Q484.7813,869.4844 484.7813,868.2031 L484.7813,867.0469 Q484.7813,865.7188 485.3906,864.5781 Q486.0156,863.4219 487.1094,862.8125 Q488.2031,862.1875 489.4375,862.1875 Q490.1719,862.1875 490.8125,862.3594 Q491.4688,862.5156 492.0156,862.875 Z " fill="#000000"/><text fill="#000000" font-family="sans-serif" font-size="14" lengthAdjust="spacing" textLength="80" x="509.75" y="872.7969">GreenSpace</text><line style="stroke:#181818;stroke-width:0.5;" x1="91" x2="976" y1="883" y2="883"/><text fill="#000000" font-family="sans-serif" font-size="14" lengthAdjust="spacing" textLength="89" x="96" y="902.1074">-name : String</text><text fill="#000000" font-family="sans-serif" font-size="14" lengthAdjust="spacing" textLength="105" x="96" y="920.7285">-address : String</text><text fill="#000000" font-family="sans-serif" font-size="14" lengthAdjust="spacing" textLength="89" x="96" y="939.3496">-area : double</text><text fill="#000000" font-family="sans-serif" font-size="14" lengthAdjust="spacing" textLength="107" x="96" y="957.9707">-typology : String</text><text fill="#000000" font-family="sans-serif" font-size="14" lengthAdjust="spacing" textLength="187" x="96" y="976.5918">-greenSpaceManager : String</text><line style="stroke:#181818;stroke-width:0.5;" x1="91" x2="976" y1="984.1055" y2="984.1055"/><text fill="#000000" font-family="sans-serif" font-size="14" lengthAdjust="spacing" textLength="875" x="96" y="1003.2129">+registerGreenSpace(name: String, address: String, area: double, typology : String, greenSpaceManager: String) : Optional&lt;GreenSpace&gt;</text><text fill="#000000" font-family="sans-serif" font-size="14" lengthAdjust="spacing" textLength="98" x="96" y="1021.834">+GreenSpace()</text><text fill="#000000" font-family="sans-serif" font-size="14" lengthAdjust="spacing" textLength="144" x="96" y="1040.4551">+clone() : GreenSpace</text><text fill="#000000" font-family="sans-serif" font-size="14" lengthAdjust="spacing" textLength="209" x="96" y="1059.0762">+compareTo(o:GreenSpace) : int</text></g><!--link RegisterGreenSpaceController to Repositories--><g id="link_RegisterGreenSpaceController_Repositories"><path codeLine="69" d="M519.5,185.04 C500.3,211.87 483.3425,235.5712 466.5125,259.0812 " fill="none" id="RegisterGreenSpaceController-to-Repositories" style="stroke:#181818;stroke-width:1.0;stroke-dasharray:7.0,7.0;"/><polygon fill="#181818" points="463.02,263.96,471.5113,258.9702,465.9304,259.8944,465.0063,254.3135,463.02,263.96" style="stroke:#181818;stroke-width:1.0;"/><text fill="#000000" font-family="sans-serif" font-size="13" lengthAdjust="spacing" textLength="67" x="496.5" y="230.0283">repositories</text></g><!--link RegisterGreenSpaceController to Employee--><g id="link_RegisterGreenSpaceController_Employee"><path codeLine="70" d="M602.61,185.39 C611.73,225.45 620.5,264 620.5,264 C620.5,264 626.5,429 626.5,429 C626.5,429 626.5,514 626.5,514 C626.5,514 612.9864,537.0351 593.8464,569.6551 " fill="none" id="RegisterGreenSpaceController-to-Employee" style="stroke:#181818;stroke-width:1.0;stroke-dasharray:7.0,7.0;"/><polygon fill="#181818" points="590.81,574.83,598.8146,569.0919,593.3404,570.5175,591.9147,565.0433,590.81,574.83" style="stroke:#181818;stroke-width:1.0;"/></g><!--link RegisterGreenSpaceUI to RegisterGreenSpaceController--><g id="link_RegisterGreenSpaceUI_RegisterGreenSpaceController"><path codeLine="71" d="M184.27,96 C196.55,96 202.61,96 213.29,96 " fill="none" id="RegisterGreenSpaceUI-to-RegisterGreenSpaceController" style="stroke:#181818;stroke-width:1.0;stroke-dasharray:7.0,7.0;"/><polygon fill="#181818" points="219.29,96,210.29,92,214.29,96,210.29,100,219.29,96" style="stroke:#181818;stroke-width:1.0;"/></g><!--link Repositories to Repositories--><g id="link_Repositories_Repositories"><path codeLine="72" d="M523.78,301.17 C543.98,302.73 558.5,307.67 558.5,316 C558.5,324.33 549.9622,328.808 529.7622,330.368 " fill="none" id="Repositories-to-Repositories" style="stroke:#181818;stroke-width:1.0;"/><polygon fill="#181818" points="523.78,330.83,533.0613,334.1251,528.7652,330.445,532.4453,326.1489,523.78,330.83" style="stroke:#181818;stroke-width:1.0;"/><text fill="#000000" font-family="sans-serif" font-size="13" lengthAdjust="spacing" textLength="49" x="564.5" y="321.5283">instance</text></g><!--link EmployeeRepository to Employee--><g id="link_EmployeeRepository_Employee"><path codeLine="73" d="M432.33,514.43 C443.62,532.07 454.0353,548.3466 467.6053,569.5466 " fill="none" id="EmployeeRepository-to-Employee" style="stroke:#181818;stroke-width:1.0;"/><polygon fill="#181818" points="470.84,574.6,469.357,564.8634,468.1444,570.3888,462.6191,569.1763,470.84,574.6" style="stroke:#181818;stroke-width:1.0;"/><text fill="#000000" font-family="sans-serif" font-size="13" lengthAdjust="spacing" textLength="7" x="428.9024" y="536.3373">1</text><text fill="#000000" font-family="sans-serif" font-size="13" lengthAdjust="spacing" textLength="5" x="461.0548" y="563.753">*</text></g><!--link Employee to GreenSpace--><g id="link_Employee_GreenSpace"><path codeLine="74" d="M533.5,772.06 C533.5,797.37 533.5,818.77 533.5,844.55 " fill="none" id="Employee-to-GreenSpace" style="stroke:#181818;stroke-width:1.0;"/><polygon fill="#181818" points="533.5,850.55,537.5,841.55,533.5,845.55,529.5,841.55,533.5,850.55" style="stroke:#181818;stroke-width:1.0;"/><text fill="#000000" font-family="sans-serif" font-size="13" lengthAdjust="spacing" textLength="43" x="534.5" y="817.0283">register</text><text fill="#000000" font-family="sans-serif" font-size="13" lengthAdjust="spacing" textLength="7" x="526.243" y="793.9624">1</text><text fill="#000000" font-family="sans-serif" font-size="13" lengthAdjust="spacing" textLength="5" x="528.332" y="839.7443">*</text></g><!--link Repositories to EmployeeRepository--><g id="link_Repositories_EmployeeRepository"><path codeLine="75" d="M419.51,368.11 C416.81,387.82 414.5861,404.1358 412.0161,422.8558 " fill="none" id="Repositories-to-EmployeeRepository" style="stroke:#181818;stroke-width:1.0;"/><polygon fill="#181818" points="411.2,428.8,416.3869,420.4277,411.8801,423.8465,408.4613,419.3396,411.2,428.8" style="stroke:#181818;stroke-width:1.0;"/><text fill="#000000" font-family="sans-serif" font-size="13" lengthAdjust="spacing" textLength="7" x="411.166" y="389.9314">1</text><text fill="#000000" font-family="sans-serif" font-size="13" lengthAdjust="spacing" textLength="7" x="404.5506" y="417.6722">1</text></g><!--SRC=[lLHDRzGm4BtxLrXxsHIwXLvNg58B2ArKGEhItht9DB7gU2BR4Gs8_yuuSM9dDmLnOI_hpBpvz7jUsoUf6s54pMlKc5S6Q-3EjC2Yfn7vaoXXxpe5t43kX2vL2h2LAF2xr2L_5Cgc7YKrkAu1tg3g_0TRBpZHE4o2SYMilNREo4FhO9UZtiiVmDyojbRmwBX3RcHPELv8tur4pHZhW_WTbD8wC9yCWDvJut2_upyP-_Kou3rgPr0fC1x8wVUQXZn6PLhKiELxQagNvrmKXG5h4uC1iUK5jWS5vvocGeLbnoEWd59z5fgsQKRNMQW9prJI7bMS4fpHwGPHWT01NuABu3jeq4g7fiiySiaHmwvRLnq5p4qH-h5k57Rm3_dprXZGxjw2kSLofn-4aeNmbqHnXza4jN1vDLQuwUx8rsSVJRDh2sKaMBec7yytCsisx75eUwSjaJGVqgMe1BCqMb9nT8Tg_ZBwmq4QLt6QQFWaSZgHEvv1BQHwqrIeOUX45BMqriyzWPruRaH7HDDjVG0JO3sJ-lFk0p4evxqcX2vI634KJfkBlOSsDn0yjqGccjt_lHlHLyFUazcpiQClVQKPsxus_jA4IiAf_jX1PC1u7RxwZBBH76PSyf1i-AYRQ3xHJtIT2Yc2Xld-gtZJHSM2OTD91q7bkI9-74aeUB2crm- -OORRwFD8gTsmUSR- -7fTN5pDkBwbPonX_bzZ9zajFg9zyfSpi9b2D_DE-Y46HR85wgukLtn38QjNgzZ4fB_Kcx1kEptIyz8J_7Ar81FQuMy0]--></g></svg>