<?xml version="1.0" encoding="us-ascii" standalone="no"?><svg xmlns="http://www.w3.org/2000/svg" xmlns:xlink="http://www.w3.org/1999/xlink" contentStyleType="text/css" height="981px" preserveAspectRatio="none" style="width:1117px;height:981px;background:#FFFFFF;" version="1.1" viewBox="0 0 1117 981" width="1117px" zoomAndPan="magnify"><defs/><g><!--class RegisterGreenSpaceUI--><g id="elem_RegisterGreenSpaceUI"><rect codeLine="11" fill="#F1F1F1" height="48" id="RegisterGreenSpaceUI" rx="2.5" ry="2.5" style="stroke:#181818;stroke-width:0.5;" width="177" x="7" y="35"/><ellipse cx="22" cy="51" fill="#ADD1B2" rx="11" ry="11" style="stroke:#181818;stroke-width:1.0;"/><path d="M24.7656,46.875 Q24.9219,46.6563 25.1094,46.5469 Q25.2969,46.4375 25.5156,46.4375 Q25.8906,46.4375 26.125,46.7031 Q26.3594,46.9531 26.3594,47.5625 L26.3594,49.0156 Q26.3594,49.625 26.125,49.8906 Q25.8906,50.1563 25.5156,50.1563 Q25.1719,50.1563 24.9688,49.9531 Q24.7656,49.7656 24.6563,49.25 Q24.6094,48.8906 24.4219,48.7031 Q24.0938,48.3281 23.4844,48.1094 Q22.875,47.8906 22.25,47.8906 Q21.4844,47.8906 20.8438,48.2188 Q20.2188,48.5469 19.7188,49.2969 Q19.2344,50.0469 19.2344,51.0781 L19.2344,52.1719 Q19.2344,53.4063 20.125,54.2344 Q21.0156,55.0469 22.6094,55.0469 Q23.5469,55.0469 24.2031,54.7969 Q24.5938,54.6406 25.0156,54.2031 Q25.2813,53.9375 25.4219,53.8594 Q25.5781,53.7813 25.7813,53.7813 Q26.1094,53.7813 26.3594,54.0469 Q26.625,54.2969 26.625,54.6406 Q26.625,54.9844 26.2813,55.3906 Q25.7813,55.9688 24.9844,56.2969 Q23.9063,56.75 22.6094,56.75 Q21.0938,56.75 19.8906,56.125 Q18.9063,55.625 18.2188,54.5625 Q17.5313,53.4844 17.5313,52.2031 L17.5313,51.0469 Q17.5313,49.7188 18.1406,48.5781 Q18.7656,47.4219 19.8594,46.8125 Q20.9531,46.1875 22.1875,46.1875 Q22.9219,46.1875 23.5625,46.3594 Q24.2188,46.5156 24.7656,46.875 Z " fill="#000000"/><text fill="#000000" font-family="sans-serif" font-size="14" lengthAdjust="spacing" textLength="145" x="36" y="56.7969">RegisterGreenSpaceUI</text><line style="stroke:#181818;stroke-width:0.5;" x1="8" x2="183" y1="67" y2="67"/><line style="stroke:#181818;stroke-width:0.5;" x1="8" x2="183" y1="75" y2="75"/></g><!--class RegisterGreenSpaceController--><g id="elem_RegisterGreenSpaceController"><rect codeLine="15" fill="#F1F1F1" height="103.8633" id="RegisterGreenSpaceController" rx="2.5" ry="2.5" style="stroke:#181818;stroke-width:0.5;" width="887" x="219" y="7"/><ellipse cx="560.75" cy="23" fill="#ADD1B2" rx="11" ry="11" style="stroke:#181818;stroke-width:1.0;"/><path d="M563.5156,18.875 Q563.6719,18.6563 563.8594,18.5469 Q564.0469,18.4375 564.2656,18.4375 Q564.6406,18.4375 564.875,18.7031 Q565.1094,18.9531 565.1094,19.5625 L565.1094,21.0156 Q565.1094,21.625 564.875,21.8906 Q564.6406,22.1563 564.2656,22.1563 Q563.9219,22.1563 563.7188,21.9531 Q563.5156,21.7656 563.4063,21.25 Q563.3594,20.8906 563.1719,20.7031 Q562.8438,20.3281 562.2344,20.1094 Q561.625,19.8906 561,19.8906 Q560.2344,19.8906 559.5938,20.2188 Q558.9688,20.5469 558.4688,21.2969 Q557.9844,22.0469 557.9844,23.0781 L557.9844,24.1719 Q557.9844,25.4063 558.875,26.2344 Q559.7656,27.0469 561.3594,27.0469 Q562.2969,27.0469 562.9531,26.7969 Q563.3438,26.6406 563.7656,26.2031 Q564.0313,25.9375 564.1719,25.8594 Q564.3281,25.7813 564.5313,25.7813 Q564.8594,25.7813 565.1094,26.0469 Q565.375,26.2969 565.375,26.6406 Q565.375,26.9844 565.0313,27.3906 Q564.5313,27.9688 563.7344,28.2969 Q562.6563,28.75 561.3594,28.75 Q559.8438,28.75 558.6406,28.125 Q557.6563,27.625 556.9688,26.5625 Q556.2813,25.4844 556.2813,24.2031 L556.2813,23.0469 Q556.2813,21.7188 556.8906,20.5781 Q557.5156,19.4219 558.6094,18.8125 Q559.7031,18.1875 560.9375,18.1875 Q561.6719,18.1875 562.3125,18.3594 Q562.9688,18.5156 563.5156,18.875 Z " fill="#000000"/><text fill="#000000" font-family="sans-serif" font-size="14" lengthAdjust="spacing" textLength="195" x="581.25" y="28.7969">RegisterGreenSpaceController</text><line style="stroke:#181818;stroke-width:0.5;" x1="220" x2="1105" y1="39" y2="39"/><line style="stroke:#181818;stroke-width:0.5;" x1="220" x2="1105" y1="47" y2="47"/><text fill="#000000" font-family="sans-serif" font-size="14" lengthAdjust="spacing" textLength="309" x="225" y="66.1074">+getEmployeeRepository() : employeeRepository</text><text fill="#000000" font-family="sans-serif" font-size="14" lengthAdjust="spacing" textLength="875" x="225" y="84.7285">+registerGreenSpace(name: String, address: String, area: double, typology : String, greenSpaceManager: String) : Optional&lt;GreenSpace&gt;</text><text fill="#000000" font-family="sans-serif" font-size="14" lengthAdjust="spacing" textLength="281" x="225" y="103.3496">+existsGreenSpace(name : String) : Boolean</text></g><!--class Repositories--><g id="elem_Repositories"><rect codeLine="22" fill="#F1F1F1" height="103.8633" id="Repositories" rx="2.5" ry="2.5" style="stroke:#181818;stroke-width:0.5;" width="321" x="305" y="190"/><ellipse cx="421.75" cy="206" fill="#ADD1B2" rx="11" ry="11" style="stroke:#181818;stroke-width:1.0;"/><path d="M424.5156,201.875 Q424.6719,201.6563 424.8594,201.5469 Q425.0469,201.4375 425.2656,201.4375 Q425.6406,201.4375 425.875,201.7031 Q426.1094,201.9531 426.1094,202.5625 L426.1094,204.0156 Q426.1094,204.625 425.875,204.8906 Q425.6406,205.1563 425.2656,205.1563 Q424.9219,205.1563 424.7188,204.9531 Q424.5156,204.7656 424.4063,204.25 Q424.3594,203.8906 424.1719,203.7031 Q423.8438,203.3281 423.2344,203.1094 Q422.625,202.8906 422,202.8906 Q421.2344,202.8906 420.5938,203.2188 Q419.9688,203.5469 419.4688,204.2969 Q418.9844,205.0469 418.9844,206.0781 L418.9844,207.1719 Q418.9844,208.4063 419.875,209.2344 Q420.7656,210.0469 422.3594,210.0469 Q423.2969,210.0469 423.9531,209.7969 Q424.3438,209.6406 424.7656,209.2031 Q425.0313,208.9375 425.1719,208.8594 Q425.3281,208.7813 425.5313,208.7813 Q425.8594,208.7813 426.1094,209.0469 Q426.375,209.2969 426.375,209.6406 Q426.375,209.9844 426.0313,210.3906 Q425.5313,210.9688 424.7344,211.2969 Q423.6563,211.75 422.3594,211.75 Q420.8438,211.75 419.6406,211.125 Q418.6563,210.625 417.9688,209.5625 Q417.2813,208.4844 417.2813,207.2031 L417.2813,206.0469 Q417.2813,204.7188 417.8906,203.5781 Q418.5156,202.4219 419.6094,201.8125 Q420.7031,201.1875 421.9375,201.1875 Q422.6719,201.1875 423.3125,201.3594 Q423.9688,201.5156 424.5156,201.875 Z " fill="#000000"/><text fill="#000000" font-family="sans-serif" font-size="14" lengthAdjust="spacing" textLength="79" x="442.25" y="211.7969">Repositories</text><line style="stroke:#181818;stroke-width:0.5;" x1="306" x2="625" y1="222" y2="222"/><line style="stroke:#181818;stroke-width:0.5;" x1="306" x2="625" y1="230" y2="230"/><text fill="#000000" font-family="sans-serif" font-size="14" lengthAdjust="spacing" textLength="94" x="311" y="249.1074">-Repositories()</text><text fill="#000000" font-family="sans-serif" font-size="14" lengthAdjust="spacing" textLength="182" x="311" y="267.7285">+getInstance() : Repositories</text><text fill="#000000" font-family="sans-serif" font-size="14" lengthAdjust="spacing" textLength="309" x="311" y="286.3496">+getEmployeeRepository() : employeeRepository</text></g><!--class Employee--><g id="elem_Employee"><rect codeLine="29" fill="#F1F1F1" height="271.4531" id="Employee" rx="2.5" ry="2.5" style="stroke:#181818;stroke-width:0.5;" width="887" x="223" y="483"/><ellipse cx="631.25" cy="499" fill="#ADD1B2" rx="11" ry="11" style="stroke:#181818;stroke-width:1.0;"/><path d="M634.0156,494.875 Q634.1719,494.6563 634.3594,494.5469 Q634.5469,494.4375 634.7656,494.4375 Q635.1406,494.4375 635.375,494.7031 Q635.6094,494.9531 635.6094,495.5625 L635.6094,497.0156 Q635.6094,497.625 635.375,497.8906 Q635.1406,498.1563 634.7656,498.1563 Q634.4219,498.1563 634.2188,497.9531 Q634.0156,497.7656 633.9063,497.25 Q633.8594,496.8906 633.6719,496.7031 Q633.3438,496.3281 632.7344,496.1094 Q632.125,495.8906 631.5,495.8906 Q630.7344,495.8906 630.0938,496.2188 Q629.4688,496.5469 628.9688,497.2969 Q628.4844,498.0469 628.4844,499.0781 L628.4844,500.1719 Q628.4844,501.4063 629.375,502.2344 Q630.2656,503.0469 631.8594,503.0469 Q632.7969,503.0469 633.4531,502.7969 Q633.8438,502.6406 634.2656,502.2031 Q634.5313,501.9375 634.6719,501.8594 Q634.8281,501.7813 635.0313,501.7813 Q635.3594,501.7813 635.6094,502.0469 Q635.875,502.2969 635.875,502.6406 Q635.875,502.9844 635.5313,503.3906 Q635.0313,503.9688 634.2344,504.2969 Q633.1563,504.75 631.8594,504.75 Q630.3438,504.75 629.1406,504.125 Q628.1563,503.625 627.4688,502.5625 Q626.7813,501.4844 626.7813,500.2031 L626.7813,499.0469 Q626.7813,497.7188 627.3906,496.5781 Q628.0156,495.4219 629.1094,494.8125 Q630.2031,494.1875 631.4375,494.1875 Q632.1719,494.1875 632.8125,494.3594 Q633.4688,494.5156 634.0156,494.875 Z " fill="#000000"/><text fill="#000000" font-family="sans-serif" font-size="14" lengthAdjust="spacing" textLength="62" x="651.75" y="504.7969">Employee</text><line style="stroke:#181818;stroke-width:0.5;" x1="224" x2="1109" y1="515" y2="515"/><text fill="#000000" font-family="sans-serif" font-size="14" lengthAdjust="spacing" textLength="89" x="229" y="534.1074">-name : String</text><text fill="#000000" font-family="sans-serif" font-size="14" lengthAdjust="spacing" textLength="103" x="229" y="552.7285">-birthdate : Date</text><text fill="#000000" font-family="sans-serif" font-size="14" lengthAdjust="spacing" textLength="87" x="229" y="571.3496">-email : String</text><text fill="#000000" font-family="sans-serif" font-size="14" lengthAdjust="spacing" textLength="121" x="229" y="589.9707">-phoneNumber : int</text><text fill="#000000" font-family="sans-serif" font-size="14" lengthAdjust="spacing" textLength="142" x="229" y="608.5918">-admission date : Date</text><text fill="#000000" font-family="sans-serif" font-size="14" lengthAdjust="spacing" textLength="157" x="229" y="627.2129">-taxpayerNumber : String</text><text fill="#000000" font-family="sans-serif" font-size="14" lengthAdjust="spacing" textLength="105" x="229" y="645.834">-address : String</text><text fill="#000000" font-family="sans-serif" font-size="14" lengthAdjust="spacing" textLength="126" x="229" y="664.4551">-docNumber : String</text><text fill="#000000" font-family="sans-serif" font-size="14" lengthAdjust="spacing" textLength="100" x="229" y="683.0762">-jobTitle : String</text><line style="stroke:#181818;stroke-width:0.5;" x1="224" x2="1109" y1="690.5898" y2="690.5898"/><text fill="#000000" font-family="sans-serif" font-size="14" lengthAdjust="spacing" textLength="875" x="229" y="709.6973">+registerGreenSpace(name: String, address: String, area: double, typology : String, greenSpaceManager: String) : Optional&lt;GreenSpace&gt;</text><text fill="#000000" font-family="sans-serif" font-size="14" lengthAdjust="spacing" textLength="262" x="229" y="728.3184">+addGreenSpace(greenSpace) : boolean</text><text fill="#000000" font-family="sans-serif" font-size="14" lengthAdjust="spacing" textLength="288" x="229" y="746.9395">+validateGreenSPace(greenSpace) : boolean</text></g><!--class EmployeeRepository--><g id="elem_EmployeeRepository"><rect codeLine="45" fill="#F1F1F1" height="66.6211" id="EmployeeRepository" rx="2.5" ry="2.5" style="stroke:#181818;stroke-width:0.5;" width="185" x="483" y="355"/><ellipse cx="508.35" cy="371" fill="#ADD1B2" rx="11" ry="11" style="stroke:#181818;stroke-width:1.0;"/><path d="M511.1156,366.875 Q511.2719,366.6563 511.4594,366.5469 Q511.6469,366.4375 511.8656,366.4375 Q512.2406,366.4375 512.475,366.7031 Q512.7094,366.9531 512.7094,367.5625 L512.7094,369.0156 Q512.7094,369.625 512.475,369.8906 Q512.2406,370.1563 511.8656,370.1563 Q511.5219,370.1563 511.3188,369.9531 Q511.1156,369.7656 511.0063,369.25 Q510.9594,368.8906 510.7719,368.7031 Q510.4438,368.3281 509.8344,368.1094 Q509.225,367.8906 508.6,367.8906 Q507.8344,367.8906 507.1938,368.2188 Q506.5688,368.5469 506.0688,369.2969 Q505.5844,370.0469 505.5844,371.0781 L505.5844,372.1719 Q505.5844,373.4063 506.475,374.2344 Q507.3656,375.0469 508.9594,375.0469 Q509.8969,375.0469 510.5531,374.7969 Q510.9438,374.6406 511.3656,374.2031 Q511.6313,373.9375 511.7719,373.8594 Q511.9281,373.7813 512.1313,373.7813 Q512.4594,373.7813 512.7094,374.0469 Q512.975,374.2969 512.975,374.6406 Q512.975,374.9844 512.6313,375.3906 Q512.1313,375.9688 511.3344,376.2969 Q510.2563,376.75 508.9594,376.75 Q507.4438,376.75 506.2406,376.125 Q505.2563,375.625 504.5688,374.5625 Q503.8813,373.4844 503.8813,372.2031 L503.8813,371.0469 Q503.8813,369.7188 504.4906,368.5781 Q505.1156,367.4219 506.2094,366.8125 Q507.3031,366.1875 508.5375,366.1875 Q509.2719,366.1875 509.9125,366.3594 Q510.5688,366.5156 511.1156,366.875 Z " fill="#000000"/><text fill="#000000" font-family="sans-serif" font-size="14" lengthAdjust="spacing" textLength="130" x="524.65" y="376.7969">EmployeeRepository</text><line style="stroke:#181818;stroke-width:0.5;" x1="484" x2="667" y1="387" y2="387"/><line style="stroke:#181818;stroke-width:0.5;" x1="484" x2="667" y1="395" y2="395"/><text fill="#000000" font-family="sans-serif" font-size="14" lengthAdjust="spacing" textLength="173" x="489" y="414.1074">+getEmployee() : employee</text></g><!--class GreenSpace--><g id="elem_GreenSpace"><rect codeLine="51" fill="#F1F1F1" height="141.1055" id="GreenSpace" rx="2.5" ry="2.5" style="stroke:#181818;stroke-width:0.5;" width="199" x="567" y="833"/><ellipse cx="622.25" cy="849" fill="#ADD1B2" rx="11" ry="11" style="stroke:#181818;stroke-width:1.0;"/><path d="M625.0156,844.875 Q625.1719,844.6563 625.3594,844.5469 Q625.5469,844.4375 625.7656,844.4375 Q626.1406,844.4375 626.375,844.7031 Q626.6094,844.9531 626.6094,845.5625 L626.6094,847.0156 Q626.6094,847.625 626.375,847.8906 Q626.1406,848.1563 625.7656,848.1563 Q625.4219,848.1563 625.2188,847.9531 Q625.0156,847.7656 624.9063,847.25 Q624.8594,846.8906 624.6719,846.7031 Q624.3438,846.3281 623.7344,846.1094 Q623.125,845.8906 622.5,845.8906 Q621.7344,845.8906 621.0938,846.2188 Q620.4688,846.5469 619.9688,847.2969 Q619.4844,848.0469 619.4844,849.0781 L619.4844,850.1719 Q619.4844,851.4063 620.375,852.2344 Q621.2656,853.0469 622.8594,853.0469 Q623.7969,853.0469 624.4531,852.7969 Q624.8438,852.6406 625.2656,852.2031 Q625.5313,851.9375 625.6719,851.8594 Q625.8281,851.7813 626.0313,851.7813 Q626.3594,851.7813 626.6094,852.0469 Q626.875,852.2969 626.875,852.6406 Q626.875,852.9844 626.5313,853.3906 Q626.0313,853.9688 625.2344,854.2969 Q624.1563,854.75 622.8594,854.75 Q621.3438,854.75 620.1406,854.125 Q619.1563,853.625 618.4688,852.5625 Q617.7813,851.4844 617.7813,850.2031 L617.7813,849.0469 Q617.7813,847.7188 618.3906,846.5781 Q619.0156,845.4219 620.1094,844.8125 Q621.2031,844.1875 622.4375,844.1875 Q623.1719,844.1875 623.8125,844.3594 Q624.4688,844.5156 625.0156,844.875 Z " fill="#000000"/><text fill="#000000" font-family="sans-serif" font-size="14" lengthAdjust="spacing" textLength="80" x="642.75" y="854.7969">GreenSpace</text><line style="stroke:#181818;stroke-width:0.5;" x1="568" x2="765" y1="865" y2="865"/><text fill="#000000" font-family="sans-serif" font-size="14" lengthAdjust="spacing" textLength="89" x="573" y="884.1074">-name : String</text><text fill="#000000" font-family="sans-serif" font-size="14" lengthAdjust="spacing" textLength="105" x="573" y="902.7285">-address : String</text><text fill="#000000" font-family="sans-serif" font-size="14" lengthAdjust="spacing" textLength="89" x="573" y="921.3496">-area : double</text><text fill="#000000" font-family="sans-serif" font-size="14" lengthAdjust="spacing" textLength="107" x="573" y="939.9707">-typology : String</text><text fill="#000000" font-family="sans-serif" font-size="14" lengthAdjust="spacing" textLength="187" x="573" y="958.5918">-greenSpaceManager : String</text><line style="stroke:#181818;stroke-width:0.5;" x1="568" x2="765" y1="966.1055" y2="966.1055"/></g><!--link RegisterGreenSpaceController to Repositories--><g id="link_RegisterGreenSpaceController_Repositories"><path codeLine="63" d="M606.84,111.14 C579.99,135.81 552.2791,161.2715 525.4391,185.9215 " fill="none" id="RegisterGreenSpaceController-to-Repositories" style="stroke:#181818;stroke-width:1.0;stroke-dasharray:7.0,7.0;"/><polygon fill="#181818" points="521.02,189.98,530.3543,186.8383,524.7026,186.5979,524.943,180.9462,521.02,189.98" style="stroke:#181818;stroke-width:1.0;"/><text fill="#000000" font-family="sans-serif" font-size="13" lengthAdjust="spacing" textLength="67" x="571.5" y="156.0283">repositories</text></g><!--link RegisterGreenSpaceController to Employee--><g id="link_RegisterGreenSpaceController_Employee"><path codeLine="64" d="M686.04,111.01 C702.85,147.43 722.5,190 722.5,190 C722.5,190 722.5,294 722.5,294 C722.5,294 706.2336,387.968 690.8636,476.738 " fill="none" id="RegisterGreenSpaceController-to-Employee" style="stroke:#181818;stroke-width:1.0;stroke-dasharray:7.0,7.0;"/><polygon fill="#181818" points="689.84,482.65,695.3168,474.4644,690.693,477.7233,687.4341,473.0995,689.84,482.65" style="stroke:#181818;stroke-width:1.0;"/></g><!--link RegisterGreenSpaceUI to RegisterGreenSpaceController--><g id="link_RegisterGreenSpaceUI_RegisterGreenSpaceController"><path codeLine="65" d="M184.19,59 C195.89,59 201.71,59 212.93,59 " fill="none" id="RegisterGreenSpaceUI-to-RegisterGreenSpaceController" style="stroke:#181818;stroke-width:1.0;stroke-dasharray:7.0,7.0;"/><polygon fill="#181818" points="218.93,59,209.93,55,213.93,59,209.93,63,218.93,59" style="stroke:#181818;stroke-width:1.0;"/></g><!--link Repositories to Repositories--><g id="link_Repositories_Repositories"><path codeLine="66" d="M626.19,228.48 C647.13,230.81 661,235.31 661,242 C661,248.69 653.0932,252.5265 632.1532,254.8565 " fill="none" id="Repositories-to-Repositories" style="stroke:#181818;stroke-width:1.0;"/><polygon fill="#181818" points="626.19,255.52,635.5771,258.5002,631.1593,254.9671,634.6924,250.5492,626.19,255.52" style="stroke:#181818;stroke-width:1.0;"/><text fill="#000000" font-family="sans-serif" font-size="13" lengthAdjust="spacing" textLength="49" x="667" y="247.5283">instance</text></g><!--link EmployeeRepository to Employee--><g id="link_EmployeeRepository_Employee"><path codeLine="67" d="M588.54,422.17 C595.17,438.79 601.5059,454.6574 610.5059,477.2074 " fill="none" id="EmployeeRepository-to-Employee" style="stroke:#181818;stroke-width:1.0;"/><polygon fill="#181818" points="612.73,482.78,613.1089,472.9384,610.8766,478.1362,605.6788,475.9039,612.73,482.78" style="stroke:#181818;stroke-width:1.0;"/><text fill="#000000" font-family="sans-serif" font-size="13" lengthAdjust="spacing" textLength="7" x="583.2393" y="443.7695">1</text><text fill="#000000" font-family="sans-serif" font-size="13" lengthAdjust="spacing" textLength="5" x="604.6527" y="471.9169">*</text></g><!--link Employee to GreenSpace--><g id="link_Employee_GreenSpace"><path codeLine="68" d="M666.5,754.37 C666.5,781.56 666.5,803.08 666.5,826.9 " fill="none" id="Employee-to-GreenSpace" style="stroke:#181818;stroke-width:1.0;"/><polygon fill="#181818" points="666.5,832.9,670.5,823.9,666.5,827.9,662.5,823.9,666.5,832.9" style="stroke:#181818;stroke-width:1.0;"/><text fill="#000000" font-family="sans-serif" font-size="13" lengthAdjust="spacing" textLength="115" x="667.5" y="799.0283">registerGreenSpace</text><text fill="#000000" font-family="sans-serif" font-size="13" lengthAdjust="spacing" textLength="7" x="659.3086" y="776.2891">1</text><text fill="#000000" font-family="sans-serif" font-size="13" lengthAdjust="spacing" textLength="5" x="661.2422" y="821.7807">*</text></g><!--link Repositories to EmployeeRepository--><g id="link_Repositories_EmployeeRepository"><path codeLine="69" d="M504.59,294.35 C519.91,314.47 533.3858,332.1758 546.9658,350.0158 " fill="none" id="Repositories-to-EmployeeRepository" style="stroke:#181818;stroke-width:1.0;"/><polygon fill="#181818" points="550.6,354.79,548.3315,345.2059,547.5715,350.8115,541.966,350.0515,550.6,354.79" style="stroke:#181818;stroke-width:1.0;"/><text fill="#000000" font-family="sans-serif" font-size="13" lengthAdjust="spacing" textLength="7" x="501.9275" y="315.8205">1</text><text fill="#000000" font-family="sans-serif" font-size="13" lengthAdjust="spacing" textLength="7" x="538.1863" y="343.8359">1</text></g><!--SRC=[pLHDRzGm4BtxLupsiblQhUWrGfM08hG7FjI57-0aqyIjuudiMMX0_7UShxMpoG97Seaoyzxa-SsCr-v9cLfQMK55XhBIKeN0ze0YP6gPFSa2zzne18iPIrFe6E1AcTDtPGfuaDh56QqCSbCZrAIRzaEi5v9acI9IfgLphvcjIW-CkupCNlr0U2d4MkC30nDOLPGCkMhLA392Y8u4zrWensZVMqIpzyBnwmv-2l7hFE0j6RQaDLeF1FzSGe7yhgerDOZtM9DJJBRPN402E0iF53khkp6omWJs_XYck0APvnQTYm8MPG8v7LADL-1z84r50m5G74jzaCRxRyTKA-HJtPvRwbVXXxU357psIjo948Z9RuWqIZEnPJYFGZVO0Dj9T7FHHpjtTiRv8V2bssenAiBykuD1niWP96mdoljGgYoNkUGsVkTVVHGhgVG9iYx9uCT3bVhE9g0Czs6PLyevRnxCgh1yhcM3zaYAomqDF8dcb2sY7odzebYVgB_yVyR4_oWI4Ogqh7IOZmxuJMhLEjMZFvz7pziOUZokLZGNasbekICxo1edSNaKpdUbptZZO7GkX6SEXjJSoW3gz0dnn-lZ-lfsiWo9lnMYrVWhTtH6BDvYNV7p5SHaXRTJ9Ttyzoih5fgpkbd1rbDMBrP1n74NuspKcsJXpfkAE19lLWiZuTty3G00]--></g></svg>