<?xml version="1.0" encoding="us-ascii" standalone="no"?><svg xmlns="http://www.w3.org/2000/svg" xmlns:xlink="http://www.w3.org/1999/xlink" contentStyleType="text/css" height="1024px" preserveAspectRatio="none" style="width:1426px;height:1024px;background:#FFFFFF;" version="1.1" viewBox="0 0 1426 1024" width="1426px" zoomAndPan="magnify"><defs/><g><rect fill="#FFFFFF" height="839.2363" style="stroke:#181818;stroke-width:1.0;" width="10" x="18.5" y="93.6211"/><rect fill="#FFFFFF" height="31.291" style="stroke:#181818;stroke-width:1.0;" width="10" x="332.5" y="165.1641"/><rect fill="#FFFFFF" height="281.6191" style="stroke:#181818;stroke-width:1.0;" width="10" x="332.5" y="227.7461"/><rect fill="#FFFFFF" height="31.291" style="stroke:#181818;stroke-width:1.0;" width="10" x="332.5" y="540.6563"/><rect fill="#FFFFFF" height="320.6191" style="stroke:#181818;stroke-width:1.0;" width="10" x="332.5" y="603.2383"/><rect fill="#FFFFFF" height="219.0371" style="stroke:#181818;stroke-width:1.0;" width="10" x="678.5" y="259.0371"/><rect fill="#FFFFFF" height="258.0371" style="stroke:#181818;stroke-width:1.0;" width="10" x="678.5" y="634.5293"/><rect fill="#FFFFFF" height="31.291" style="stroke:#181818;stroke-width:1.0;" width="10" x="841.5" y="290.3281"/><rect fill="#FFFFFF" height="31.291" style="stroke:#181818;stroke-width:1.0;" width="10" x="948.5" y="352.9102"/><rect fill="#FFFFFF" height="31.291" style="stroke:#181818;stroke-width:1.0;" width="10" x="1088.5" y="415.4922"/><rect fill="#FFFFFF" height="75.582" style="stroke:#181818;stroke-width:1.0;" width="10" x="1088.5" y="785.6934"/><rect fill="#FFFFFF" height="119.873" style="stroke:#181818;stroke-width:1.0;" width="10" x="1229.5" y="665.8203"/><line style="stroke:#181818;stroke-width:0.5;stroke-dasharray:5.0,5.0;" x1="23" x2="23" y1="83.6211" y2="941.8574"/><line style="stroke:#181818;stroke-width:0.5;stroke-dasharray:5.0,5.0;" x1="337" x2="337" y1="83.6211" y2="941.8574"/><line style="stroke:#181818;stroke-width:0.5;stroke-dasharray:5.0,5.0;" x1="683" x2="683" y1="83.6211" y2="941.8574"/><line style="stroke:#181818;stroke-width:0.5;stroke-dasharray:5.0,5.0;" x1="846" x2="846" y1="83.6211" y2="941.8574"/><line style="stroke:#181818;stroke-width:0.5;stroke-dasharray:5.0,5.0;" x1="953" x2="953" y1="83.6211" y2="941.8574"/><line style="stroke:#181818;stroke-width:0.5;stroke-dasharray:5.0,5.0;" x1="1093" x2="1093" y1="83.6211" y2="941.8574"/><line style="stroke:#181818;stroke-width:0.5;stroke-dasharray:5.0,5.0;" x1="1234" x2="1234" y1="83.6211" y2="941.8574"/><text fill="#000000" font-family="sans-serif" font-size="14" lengthAdjust="spacing" textLength="31" x="5" y="80.1074">GSM</text><ellipse cx="23.5" cy="13.5" fill="#E3E3E3" rx="8" ry="8" style="stroke:#181818;stroke-width:0.5;"/><path d="M23.5,21.5 L23.5,48.5 M10.5,29.5 L36.5,29.5 M23.5,48.5 L10.5,63.5 M23.5,48.5 L36.5,63.5 " fill="none" style="stroke:#181818;stroke-width:0.5;"/><text fill="#000000" font-family="sans-serif" font-size="14" lengthAdjust="spacing" textLength="31" x="5" y="955.9648">GSM</text><ellipse cx="23.5" cy="967.9785" fill="#E3E3E3" rx="8" ry="8" style="stroke:#181818;stroke-width:0.5;"/><path d="M23.5,975.9785 L23.5,1002.9785 M10.5,983.9785 L36.5,983.9785 M23.5,1002.9785 L10.5,1017.9785 M23.5,1002.9785 L36.5,1017.9785 " fill="none" style="stroke:#181818;stroke-width:0.5;"/><rect fill="#E3E3E3" height="32.6211" rx="2.5" ry="2.5" style="stroke:#181818;stroke-width:0.5;" width="159" x="258" y="50"/><text fill="#000000" font-family="sans-serif" font-size="14" lengthAdjust="spacing" textLength="145" x="265" y="72.1074">RegisterGreenSpaceUI</text><rect fill="#E3E3E3" height="32.6211" rx="2.5" ry="2.5" style="stroke:#181818;stroke-width:0.5;" width="159" x="258" y="940.8574"/><text fill="#000000" font-family="sans-serif" font-size="14" lengthAdjust="spacing" textLength="145" x="265" y="962.9648">RegisterGreenSpaceUI</text><rect fill="#E3E3E3" height="32.6211" rx="2.5" ry="2.5" style="stroke:#181818;stroke-width:0.5;" width="209" x="579" y="50"/><text fill="#000000" font-family="sans-serif" font-size="14" lengthAdjust="spacing" textLength="195" x="586" y="72.1074">RegisterGreenSpaceController</text><rect fill="#E3E3E3" height="32.6211" rx="2.5" ry="2.5" style="stroke:#181818;stroke-width:0.5;" width="209" x="579" y="940.8574"/><text fill="#000000" font-family="sans-serif" font-size="14" lengthAdjust="spacing" textLength="195" x="586" y="962.9648">RegisterGreenSpaceController</text><rect fill="#E3E3E3" height="32.6211" rx="2.5" ry="2.5" style="stroke:#181818;stroke-width:0.5;" width="97" x="798" y="50"/><text fill="#000000" font-family="sans-serif" font-size="14" lengthAdjust="spacing" textLength="83" x="805" y="72.1074">:Repositories</text><rect fill="#E3E3E3" height="32.6211" rx="2.5" ry="2.5" style="stroke:#181818;stroke-width:0.5;" width="97" x="798" y="940.8574"/><text fill="#000000" font-family="sans-serif" font-size="14" lengthAdjust="spacing" textLength="83" x="805" y="962.9648">:Repositories</text><rect fill="#E3E3E3" height="51.2422" rx="2.5" ry="2.5" style="stroke:#181818;stroke-width:0.5;" width="97" x="905" y="31.3789"/><text fill="#000000" font-family="sans-serif" font-size="14" lengthAdjust="spacing" textLength="74" x="916.5" y="53.4863">repositories</text><text fill="#000000" font-family="sans-serif" font-size="14" lengthAdjust="spacing" textLength="83" x="912" y="72.1074">:Repositories</text><rect fill="#E3E3E3" height="51.2422" rx="2.5" ry="2.5" style="stroke:#181818;stroke-width:0.5;" width="97" x="905" y="940.8574"/><text fill="#000000" font-family="sans-serif" font-size="14" lengthAdjust="spacing" textLength="74" x="916.5" y="962.9648">repositories</text><text fill="#000000" font-family="sans-serif" font-size="14" lengthAdjust="spacing" textLength="83" x="912" y="981.5859">:Repositories</text><rect fill="#E3E3E3" height="51.2422" rx="2.5" ry="2.5" style="stroke:#181818;stroke-width:0.5;" width="163" x="1012" y="31.3789"/><text fill="#000000" font-family="sans-serif" font-size="14" lengthAdjust="spacing" textLength="149" x="1019" y="53.4863">greenSpaceRepository:</text><text fill="#000000" font-family="sans-serif" font-size="14" lengthAdjust="spacing" textLength="148" x="1019.5" y="72.1074">GreenSpaceRepository</text><rect fill="#E3E3E3" height="51.2422" rx="2.5" ry="2.5" style="stroke:#181818;stroke-width:0.5;" width="163" x="1012" y="940.8574"/><text fill="#000000" font-family="sans-serif" font-size="14" lengthAdjust="spacing" textLength="149" x="1019" y="962.9648">greenSpaceRepository:</text><text fill="#000000" font-family="sans-serif" font-size="14" lengthAdjust="spacing" textLength="148" x="1019.5" y="981.5859">GreenSpaceRepository</text><rect fill="#E3E3E3" height="51.2422" rx="2.5" ry="2.5" style="stroke:#181818;stroke-width:0.5;" width="99" x="1185" y="31.3789"/><text fill="#000000" font-family="sans-serif" font-size="14" lengthAdjust="spacing" textLength="85" x="1192" y="53.4863">green Space:</text><text fill="#000000" font-family="sans-serif" font-size="14" lengthAdjust="spacing" textLength="84" x="1192.5" y="72.1074">Green Space</text><rect fill="#E3E3E3" height="51.2422" rx="2.5" ry="2.5" style="stroke:#181818;stroke-width:0.5;" width="99" x="1185" y="940.8574"/><text fill="#000000" font-family="sans-serif" font-size="14" lengthAdjust="spacing" textLength="85" x="1192" y="962.9648">green Space:</text><text fill="#000000" font-family="sans-serif" font-size="14" lengthAdjust="spacing" textLength="84" x="1192.5" y="981.5859">Green Space</text><rect fill="#FFFFFF" height="839.2363" style="stroke:#181818;stroke-width:1.0;" width="10" x="18.5" y="93.6211"/><rect fill="#FFFFFF" height="31.291" style="stroke:#181818;stroke-width:1.0;" width="10" x="332.5" y="165.1641"/><rect fill="#FFFFFF" height="281.6191" style="stroke:#181818;stroke-width:1.0;" width="10" x="332.5" y="227.7461"/><rect fill="#FFFFFF" height="31.291" style="stroke:#181818;stroke-width:1.0;" width="10" x="332.5" y="540.6563"/><rect fill="#FFFFFF" height="320.6191" style="stroke:#181818;stroke-width:1.0;" width="10" x="332.5" y="603.2383"/><rect fill="#FFFFFF" height="219.0371" style="stroke:#181818;stroke-width:1.0;" width="10" x="678.5" y="259.0371"/><rect fill="#FFFFFF" height="258.0371" style="stroke:#181818;stroke-width:1.0;" width="10" x="678.5" y="634.5293"/><rect fill="#FFFFFF" height="31.291" style="stroke:#181818;stroke-width:1.0;" width="10" x="841.5" y="290.3281"/><rect fill="#FFFFFF" height="31.291" style="stroke:#181818;stroke-width:1.0;" width="10" x="948.5" y="352.9102"/><rect fill="#FFFFFF" height="31.291" style="stroke:#181818;stroke-width:1.0;" width="10" x="1088.5" y="415.4922"/><rect fill="#FFFFFF" height="75.582" style="stroke:#181818;stroke-width:1.0;" width="10" x="1088.5" y="785.6934"/><rect fill="#FFFFFF" height="119.873" style="stroke:#181818;stroke-width:1.0;" width="10" x="1229.5" y="665.8203"/><rect fill="none" height="43.252" style="stroke:#000000;stroke-width:1.5;" width="418" x="2" y="93.6211"/><path d="M2,93.6211 L64,93.6211 L64,102.6211 L54,112.6211 L2,112.6211 L2,93.6211 " fill="#EEEEEE" style="stroke:#000000;stroke-width:2.0;"/><text fill="#000000" font-family="sans-serif" font-size="13" font-weight="bold" lengthAdjust="spacing" textLength="17" x="15" y="109.6494">ref</text><text fill="#000000" font-family="sans-serif" font-size="12" lengthAdjust="spacing" textLength="308" x="57" y="129.5703">This action assumes that the user has already logged in</text><polygon fill="#181818" points="320.5,161.1641,330.5,165.1641,320.5,169.1641,324.5,165.1641" style="stroke:#181818;stroke-width:1.0;"/><line style="stroke:#181818;stroke-width:1.0;" x1="28.5" x2="326.5" y1="165.1641" y2="165.1641"/><text fill="#000000" font-family="sans-serif" font-size="13" font-weight="bold" lengthAdjust="spacing" textLength="7" x="35.5" y="159.9014">1</text><text fill="#000000" font-family="sans-serif" font-size="13" lengthAdjust="spacing" textLength="203" x="46.5" y="159.9014">asks to register a new green space</text><polygon fill="#181818" points="39.5,192.4551,29.5,196.4551,39.5,200.4551,35.5,196.4551" style="stroke:#181818;stroke-width:1.0;"/><line style="stroke:#181818;stroke-width:1.0;" x1="33.5" x2="336.5" y1="196.4551" y2="196.4551"/><text fill="#000000" font-family="sans-serif" font-size="13" font-weight="bold" lengthAdjust="spacing" textLength="7" x="45.5" y="191.1924">2</text><text fill="#000000" font-family="sans-serif" font-size="13" lengthAdjust="spacing" textLength="115" x="56.5" y="191.1924">requests typed data</text><polygon fill="#181818" points="320.5,223.7461,330.5,227.7461,320.5,231.7461,324.5,227.7461" style="stroke:#181818;stroke-width:1.0;"/><line style="stroke:#181818;stroke-width:1.0;" x1="28.5" x2="326.5" y1="227.7461" y2="227.7461"/><text fill="#000000" font-family="sans-serif" font-size="13" font-weight="bold" lengthAdjust="spacing" textLength="7" x="35.5" y="222.4834">3</text><text fill="#000000" font-family="sans-serif" font-size="13" lengthAdjust="spacing" textLength="253" x="46.5" y="222.4834">types requested data (name, address, area)</text><polygon fill="#181818" points="666.5,255.0371,676.5,259.0371,666.5,263.0371,670.5,259.0371" style="stroke:#181818;stroke-width:1.0;"/><line style="stroke:#181818;stroke-width:1.0;" x1="342.5" x2="672.5" y1="259.0371" y2="259.0371"/><text fill="#000000" font-family="sans-serif" font-size="13" font-weight="bold" lengthAdjust="spacing" textLength="7" x="349.5" y="253.7744">4</text><text fill="#000000" font-family="sans-serif" font-size="13" lengthAdjust="spacing" textLength="150" x="360.5" y="253.7744">getGreenSpaceTypology()</text><polygon fill="#181818" points="829.5,286.3281,839.5,290.3281,829.5,294.3281,833.5,290.3281" style="stroke:#181818;stroke-width:1.0;"/><line style="stroke:#181818;stroke-width:1.0;" x1="688.5" x2="835.5" y1="290.3281" y2="290.3281"/><text fill="#000000" font-family="sans-serif" font-size="13" font-weight="bold" lengthAdjust="spacing" textLength="7" x="695.5" y="285.0654">5</text><text fill="#000000" font-family="sans-serif" font-size="13" lengthAdjust="spacing" textLength="75" x="706.5" y="285.0654">getInstance()</text><polygon fill="#181818" points="699.5,317.6191,689.5,321.6191,699.5,325.6191,695.5,321.6191" style="stroke:#181818;stroke-width:1.0;"/><line style="stroke:#181818;stroke-width:1.0;stroke-dasharray:2.0,2.0;" x1="693.5" x2="845.5" y1="321.6191" y2="321.6191"/><text fill="#000000" font-family="sans-serif" font-size="13" font-weight="bold" lengthAdjust="spacing" textLength="7" x="705.5" y="316.3564">6</text><text fill="#000000" font-family="sans-serif" font-size="13" lengthAdjust="spacing" textLength="67" x="716.5" y="316.3564">repositories</text><polygon fill="#181818" points="936.5,348.9102,946.5,352.9102,936.5,356.9102,940.5,352.9102" style="stroke:#181818;stroke-width:1.0;"/><line style="stroke:#181818;stroke-width:1.0;" x1="688.5" x2="942.5" y1="352.9102" y2="352.9102"/><text fill="#000000" font-family="sans-serif" font-size="13" font-weight="bold" lengthAdjust="spacing" textLength="7" x="695.5" y="347.6475">7</text><text fill="#000000" font-family="sans-serif" font-size="13" lengthAdjust="spacing" textLength="160" x="706.5" y="347.6475">getGreenSpaceRepository()</text><polygon fill="#181818" points="699.5,380.2012,689.5,384.2012,699.5,388.2012,695.5,384.2012" style="stroke:#181818;stroke-width:1.0;"/><line style="stroke:#181818;stroke-width:1.0;stroke-dasharray:2.0,2.0;" x1="693.5" x2="952.5" y1="384.2012" y2="384.2012"/><text fill="#000000" font-family="sans-serif" font-size="13" font-weight="bold" lengthAdjust="spacing" textLength="7" x="705.5" y="378.9385">8</text><text fill="#000000" font-family="sans-serif" font-size="13" lengthAdjust="spacing" textLength="131" x="716.5" y="378.9385">greenSpaceRepository</text><polygon fill="#181818" points="1076.5,411.4922,1086.5,415.4922,1076.5,419.4922,1080.5,415.4922" style="stroke:#181818;stroke-width:1.0;"/><line style="stroke:#181818;stroke-width:1.0;" x1="688.5" x2="1082.5" y1="415.4922" y2="415.4922"/><text fill="#000000" font-family="sans-serif" font-size="13" font-weight="bold" lengthAdjust="spacing" textLength="7" x="695.5" y="410.2295">9</text><text fill="#000000" font-family="sans-serif" font-size="13" lengthAdjust="spacing" textLength="129" x="706.5" y="410.2295">greenSpaceTypology()</text><polygon fill="#181818" points="699.5,442.7832,689.5,446.7832,699.5,450.7832,695.5,446.7832" style="stroke:#181818;stroke-width:1.0;"/><line style="stroke:#181818;stroke-width:1.0;stroke-dasharray:2.0,2.0;" x1="693.5" x2="1092.5" y1="446.7832" y2="446.7832"/><text fill="#000000" font-family="sans-serif" font-size="13" font-weight="bold" lengthAdjust="spacing" textLength="14" x="705.5" y="441.5205">10</text><text fill="#000000" font-family="sans-serif" font-size="13" lengthAdjust="spacing" textLength="121" x="723.5" y="441.5205">greenSpaceTypology</text><polygon fill="#181818" points="353.5,474.0742,343.5,478.0742,353.5,482.0742,349.5,478.0742" style="stroke:#181818;stroke-width:1.0;"/><line style="stroke:#181818;stroke-width:1.0;stroke-dasharray:2.0,2.0;" x1="347.5" x2="682.5" y1="478.0742" y2="478.0742"/><text fill="#000000" font-family="sans-serif" font-size="13" font-weight="bold" lengthAdjust="spacing" textLength="14" x="359.5" y="472.8115">11</text><text fill="#000000" font-family="sans-serif" font-size="13" lengthAdjust="spacing" textLength="142" x="377.5" y="472.8115">getGreenSpaceTypology</text><polygon fill="#181818" points="39.5,505.3652,29.5,509.3652,39.5,513.3652,35.5,509.3652" style="stroke:#181818;stroke-width:1.0;"/><line style="stroke:#181818;stroke-width:1.0;stroke-dasharray:2.0,2.0;" x1="33.5" x2="336.5" y1="509.3652" y2="509.3652"/><text fill="#000000" font-family="sans-serif" font-size="13" font-weight="bold" lengthAdjust="spacing" textLength="14" x="45.5" y="504.1025">12</text><text fill="#000000" font-family="sans-serif" font-size="13" lengthAdjust="spacing" textLength="262" x="63.5" y="504.1025">shows green spaces typology (selected data)</text><polygon fill="#181818" points="320.5,536.6563,330.5,540.6563,320.5,544.6563,324.5,540.6563" style="stroke:#181818;stroke-width:1.0;"/><line style="stroke:#181818;stroke-width:1.0;" x1="28.5" x2="326.5" y1="540.6563" y2="540.6563"/><text fill="#000000" font-family="sans-serif" font-size="13" font-weight="bold" lengthAdjust="spacing" textLength="14" x="35.5" y="535.3936">13</text><text fill="#000000" font-family="sans-serif" font-size="13" lengthAdjust="spacing" textLength="185" x="53.5" y="535.3936">selects one type of green space</text><polygon fill="#181818" points="39.5,567.9473,29.5,571.9473,39.5,575.9473,35.5,571.9473" style="stroke:#181818;stroke-width:1.0;"/><line style="stroke:#181818;stroke-width:1.0;stroke-dasharray:2.0,2.0;" x1="33.5" x2="336.5" y1="571.9473" y2="571.9473"/><text fill="#000000" font-family="sans-serif" font-size="13" font-weight="bold" lengthAdjust="spacing" textLength="14" x="45.5" y="566.6846">14</text><text fill="#000000" font-family="sans-serif" font-size="13" lengthAdjust="spacing" textLength="236" x="63.5" y="566.6846">shows all data and requests confirmation</text><polygon fill="#181818" points="320.5,599.2383,330.5,603.2383,320.5,607.2383,324.5,603.2383" style="stroke:#181818;stroke-width:1.0;"/><line style="stroke:#181818;stroke-width:1.0;" x1="28.5" x2="326.5" y1="603.2383" y2="603.2383"/><text fill="#000000" font-family="sans-serif" font-size="13" font-weight="bold" lengthAdjust="spacing" textLength="14" x="35.5" y="597.9756">15</text><text fill="#000000" font-family="sans-serif" font-size="13" lengthAdjust="spacing" textLength="78" x="53.5" y="597.9756">confirms data</text><polygon fill="#181818" points="666.5,630.5293,676.5,634.5293,666.5,638.5293,670.5,634.5293" style="stroke:#181818;stroke-width:1.0;"/><line style="stroke:#181818;stroke-width:1.0;" x1="342.5" x2="672.5" y1="634.5293" y2="634.5293"/><text fill="#000000" font-family="sans-serif" font-size="13" font-weight="bold" lengthAdjust="spacing" textLength="14" x="349.5" y="629.2666">16</text><text fill="#000000" font-family="sans-serif" font-size="13" lengthAdjust="spacing" textLength="299" x="367.5" y="629.2666">registerGreenSpace(name, address, area, typology)</text><polygon fill="#181818" points="1217.5,661.8203,1227.5,665.8203,1217.5,669.8203,1221.5,665.8203" style="stroke:#181818;stroke-width:1.0;"/><line style="stroke:#181818;stroke-width:1.0;" x1="688.5" x2="1223.5" y1="665.8203" y2="665.8203"/><text fill="#000000" font-family="sans-serif" font-size="13" font-weight="bold" lengthAdjust="spacing" textLength="14" x="695.5" y="660.5576">17</text><text fill="#000000" font-family="sans-serif" font-size="13" lengthAdjust="spacing" textLength="299" x="713.5" y="660.5576">registerGreenSpace(name, address, area, typology)</text><line style="stroke:#181818;stroke-width:1.0;" x1="1239.5" x2="1281.5" y1="697.1113" y2="697.1113"/><line style="stroke:#181818;stroke-width:1.0;" x1="1281.5" x2="1281.5" y1="697.1113" y2="710.1113"/><line style="stroke:#181818;stroke-width:1.0;" x1="1240.5" x2="1281.5" y1="710.1113" y2="710.1113"/><polygon fill="#181818" points="1250.5,706.1113,1240.5,710.1113,1250.5,714.1113,1246.5,710.1113" style="stroke:#181818;stroke-width:1.0;"/><text fill="#000000" font-family="sans-serif" font-size="13" font-weight="bold" lengthAdjust="spacing" textLength="14" x="1246.5" y="691.8486">18</text><text fill="#000000" font-family="sans-serif" font-size="13" lengthAdjust="spacing" textLength="155" x="1264.5" y="691.8486">validateGreenSpace(name)</text><line style="stroke:#181818;stroke-width:1.0;" x1="1239.5" x2="1281.5" y1="741.4023" y2="741.4023"/><line style="stroke:#181818;stroke-width:1.0;" x1="1281.5" x2="1281.5" y1="741.4023" y2="754.4023"/><line style="stroke:#181818;stroke-width:1.0;" x1="1240.5" x2="1281.5" y1="754.4023" y2="754.4023"/><polygon fill="#181818" points="1250.5,750.4023,1240.5,754.4023,1250.5,758.4023,1246.5,754.4023" style="stroke:#181818;stroke-width:1.0;"/><text fill="#000000" font-family="sans-serif" font-size="13" font-weight="bold" lengthAdjust="spacing" textLength="14" x="1246.5" y="736.1396">19</text><text fill="#000000" font-family="sans-serif" font-size="13" lengthAdjust="spacing" textLength="115" x="1264.5" y="736.1396">registerGreenSpace</text><polygon fill="#181818" points="1109.5,781.6934,1099.5,785.6934,1109.5,789.6934,1105.5,785.6934" style="stroke:#181818;stroke-width:1.0;"/><line style="stroke:#181818;stroke-width:1.0;" x1="1103.5" x2="1233.5" y1="785.6934" y2="785.6934"/><text fill="#000000" font-family="sans-serif" font-size="13" font-weight="bold" lengthAdjust="spacing" textLength="14" x="1115.5" y="780.4307">20</text><text fill="#000000" font-family="sans-serif" font-size="13" lengthAdjust="spacing" textLength="69" x="1133.5" y="780.4307">greenSpace</text><line style="stroke:#181818;stroke-width:1.0;" x1="1098.5" x2="1140.5" y1="816.9844" y2="816.9844"/><line style="stroke:#181818;stroke-width:1.0;" x1="1140.5" x2="1140.5" y1="816.9844" y2="829.9844"/><line style="stroke:#181818;stroke-width:1.0;" x1="1099.5" x2="1140.5" y1="829.9844" y2="829.9844"/><polygon fill="#181818" points="1109.5,825.9844,1099.5,829.9844,1109.5,833.9844,1105.5,829.9844" style="stroke:#181818;stroke-width:1.0;"/><text fill="#000000" font-family="sans-serif" font-size="13" font-weight="bold" lengthAdjust="spacing" textLength="14" x="1105.5" y="811.7217">21</text><text fill="#000000" font-family="sans-serif" font-size="13" lengthAdjust="spacing" textLength="98" x="1123.5" y="811.7217">add(greenSpace)</text><polygon fill="#181818" points="699.5,857.2754,689.5,861.2754,699.5,865.2754,695.5,861.2754" style="stroke:#181818;stroke-width:1.0;"/><line style="stroke:#181818;stroke-width:1.0;" x1="693.5" x2="1092.5" y1="861.2754" y2="861.2754"/><text fill="#000000" font-family="sans-serif" font-size="13" font-weight="bold" lengthAdjust="spacing" textLength="14" x="705.5" y="856.0127">22</text><text fill="#000000" font-family="sans-serif" font-size="13" lengthAdjust="spacing" textLength="69" x="723.5" y="856.0127">greenSpace</text><polygon fill="#181818" points="353.5,888.5664,343.5,892.5664,353.5,896.5664,349.5,892.5664" style="stroke:#181818;stroke-width:1.0;"/><line style="stroke:#181818;stroke-width:1.0;" x1="347.5" x2="682.5" y1="892.5664" y2="892.5664"/><text fill="#000000" font-family="sans-serif" font-size="13" font-weight="bold" lengthAdjust="spacing" textLength="14" x="359.5" y="887.3037">23</text><text fill="#000000" font-family="sans-serif" font-size="13" lengthAdjust="spacing" textLength="69" x="377.5" y="887.3037">greenSpace</text><polygon fill="#181818" points="39.5,919.8574,29.5,923.8574,39.5,927.8574,35.5,923.8574" style="stroke:#181818;stroke-width:1.0;"/><line style="stroke:#181818;stroke-width:1.0;" x1="33.5" x2="336.5" y1="923.8574" y2="923.8574"/><text fill="#000000" font-family="sans-serif" font-size="13" font-weight="bold" lengthAdjust="spacing" textLength="14" x="45.5" y="918.5947">24</text><text fill="#000000" font-family="sans-serif" font-size="13" lengthAdjust="spacing" textLength="106" x="63.5" y="918.5947">operation success</text><!--SRC=[fLJDRk8m4BxxAKQzB4Zb1JYiLA6ggjHTLK1llKoJ8R6Qs5cF0ylRxpW6Oi2bXxq02T_FUEORywSs7JfieRN65hMpBO5tFIa-_TDXyOaLhVo-8N1KU3HLamAunjBkjAbWWmsJKjXxQ_hsWvnIFsfT4coizH_shyB2MmTtJwjVTu0Cygr4m-j2TsWyBAdIxCazEIAp4cDwUmwuj-TlO0jhlBDDGox05-lbondXRhwaph8MSqqyM9zUx5Swd4SgFgUuXF5khWLUNnxMvupgLCueFdytJvdNyVIPFpAAC42EGl4fyfUFZxzNhm-Bnz1NlKLFGqULemtOhVH2dkwbUJ27TQqP0ieQeNBV4eElqSi7GS-2hKKH6qTOxg6nLKKbQAEKIC3iPnH1_XIMbH34_WE2eHt4AZdKDHOY8rD24cfGc0ldJq_iXR_lHBf4ZwgaCtXg5L1y91tmC37OqZrWMJfYbXzIxVJCCZg6-Oj6HNviyNhVMJdMVf8GXfoe0IsiJ2AYoBDXoNn1AJKN7vLJc1tg2HqO4vGUFIjrB2gaxF8e8o6jQCYZ6l2ZPowIgNSa7Sro5f2Av9gOJR7AIisIsLnffcNbDMEPnuHafvkAnEc6H9n2oBNTSPhN8Ou34oPCZLnkXwnDRuKp8XcieI6eO3Utb-2Y06oQ66WqvRWOXJKRxLeCEthB_O3Zk4EPXJkqs5tTahdzkJzruCl56E-P_rDDxYkLQ5uwRB7HSZIwS9ZUubnNTMNnNRRFyfUxMNEPpCVyIpVfqMHqd7v9lrgIRvVZEAku6bdUCDJqIhOTkI5jm7qXky0NgVi7]--></g></svg>