<?xml version="1.0" encoding="us-ascii" standalone="no"?><svg xmlns="http://www.w3.org/2000/svg" xmlns:xlink="http://www.w3.org/1999/xlink" contentStyleType="text/css" height="712px" preserveAspectRatio="none" style="width:1448px;height:712px;background:#FFFFFF;" version="1.1" viewBox="0 0 1448 712" width="1448px" zoomAndPan="magnify"><defs/><g><rect fill="#FFFFFF" height="526.3262" style="stroke:#181818;stroke-width:1.0;" width="10" x="18.5" y="93.6211"/><rect fill="#FFFFFF" height="31.291" style="stroke:#181818;stroke-width:1.0;" width="10" x="368.5" y="165.1641"/><rect fill="#FFFFFF" height="31.291" style="stroke:#181818;stroke-width:1.0;" width="10" x="368.5" y="227.7461"/><rect fill="#FFFFFF" height="320.6191" style="stroke:#181818;stroke-width:1.0;" width="10" x="368.5" y="290.3281"/><rect fill="#FFFFFF" height="258.0371" style="stroke:#181818;stroke-width:1.0;" width="10" x="707.5" y="321.6191"/><rect fill="#FFFFFF" height="75.582" style="stroke:#181818;stroke-width:1.0;" width="10" x="1117.5" y="472.7832"/><rect fill="#FFFFFF" height="119.873" style="stroke:#181818;stroke-width:1.0;" width="10" x="1258.5" y="352.9102"/><line style="stroke:#181818;stroke-width:0.5;stroke-dasharray:5.0,5.0;" x1="23" x2="23" y1="83.6211" y2="628.9473"/><line style="stroke:#181818;stroke-width:0.5;stroke-dasharray:5.0,5.0;" x1="373" x2="373" y1="83.6211" y2="628.9473"/><line style="stroke:#181818;stroke-width:0.5;stroke-dasharray:5.0,5.0;" x1="712" x2="712" y1="83.6211" y2="628.9473"/><line style="stroke:#181818;stroke-width:0.5;stroke-dasharray:5.0,5.0;" x1="875" x2="875" y1="83.6211" y2="628.9473"/><line style="stroke:#181818;stroke-width:0.5;stroke-dasharray:5.0,5.0;" x1="982" x2="982" y1="83.6211" y2="628.9473"/><line style="stroke:#181818;stroke-width:0.5;stroke-dasharray:5.0,5.0;" x1="1122" x2="1122" y1="83.6211" y2="628.9473"/><line style="stroke:#181818;stroke-width:0.5;stroke-dasharray:5.0,5.0;" x1="1263" x2="1263" y1="83.6211" y2="628.9473"/><text fill="#000000" font-family="sans-serif" font-size="14" lengthAdjust="spacing" textLength="31" x="5" y="80.1074">GSM</text><ellipse cx="23.5" cy="13.5" fill="#E3E3E3" rx="8" ry="8" style="stroke:#181818;stroke-width:0.5;"/><path d="M23.5,21.5 L23.5,48.5 M10.5,29.5 L36.5,29.5 M23.5,48.5 L10.5,63.5 M23.5,48.5 L36.5,63.5 " fill="none" style="stroke:#181818;stroke-width:0.5;"/><text fill="#000000" font-family="sans-serif" font-size="14" lengthAdjust="spacing" textLength="31" x="5" y="643.0547">GSM</text><ellipse cx="23.5" cy="655.0684" fill="#E3E3E3" rx="8" ry="8" style="stroke:#181818;stroke-width:0.5;"/><path d="M23.5,663.0684 L23.5,690.0684 M10.5,671.0684 L36.5,671.0684 M23.5,690.0684 L10.5,705.0684 M23.5,690.0684 L36.5,705.0684 " fill="none" style="stroke:#181818;stroke-width:0.5;"/><rect fill="#E3E3E3" height="32.6211" rx="2.5" ry="2.5" style="stroke:#181818;stroke-width:0.5;" width="159" x="294" y="50"/><text fill="#000000" font-family="sans-serif" font-size="14" lengthAdjust="spacing" textLength="145" x="301" y="72.1074">RegisterGreenSpaceUI</text><rect fill="#E3E3E3" height="32.6211" rx="2.5" ry="2.5" style="stroke:#181818;stroke-width:0.5;" width="159" x="294" y="627.9473"/><text fill="#000000" font-family="sans-serif" font-size="14" lengthAdjust="spacing" textLength="145" x="301" y="650.0547">RegisterGreenSpaceUI</text><rect fill="#E3E3E3" height="32.6211" rx="2.5" ry="2.5" style="stroke:#181818;stroke-width:0.5;" width="209" x="608" y="50"/><text fill="#000000" font-family="sans-serif" font-size="14" lengthAdjust="spacing" textLength="195" x="615" y="72.1074">RegisterGreenSpaceController</text><rect fill="#E3E3E3" height="32.6211" rx="2.5" ry="2.5" style="stroke:#181818;stroke-width:0.5;" width="209" x="608" y="627.9473"/><text fill="#000000" font-family="sans-serif" font-size="14" lengthAdjust="spacing" textLength="195" x="615" y="650.0547">RegisterGreenSpaceController</text><rect fill="#E3E3E3" height="32.6211" rx="2.5" ry="2.5" style="stroke:#181818;stroke-width:0.5;" width="97" x="827" y="50"/><text fill="#000000" font-family="sans-serif" font-size="14" lengthAdjust="spacing" textLength="83" x="834" y="72.1074">:Repositories</text><rect fill="#E3E3E3" height="32.6211" rx="2.5" ry="2.5" style="stroke:#181818;stroke-width:0.5;" width="97" x="827" y="627.9473"/><text fill="#000000" font-family="sans-serif" font-size="14" lengthAdjust="spacing" textLength="83" x="834" y="650.0547">:Repositories</text><rect fill="#E3E3E3" height="51.2422" rx="2.5" ry="2.5" style="stroke:#181818;stroke-width:0.5;" width="97" x="934" y="31.3789"/><text fill="#000000" font-family="sans-serif" font-size="14" lengthAdjust="spacing" textLength="74" x="945.5" y="53.4863">repositories</text><text fill="#000000" font-family="sans-serif" font-size="14" lengthAdjust="spacing" textLength="83" x="941" y="72.1074">:Repositories</text><rect fill="#E3E3E3" height="51.2422" rx="2.5" ry="2.5" style="stroke:#181818;stroke-width:0.5;" width="97" x="934" y="627.9473"/><text fill="#000000" font-family="sans-serif" font-size="14" lengthAdjust="spacing" textLength="74" x="945.5" y="650.0547">repositories</text><text fill="#000000" font-family="sans-serif" font-size="14" lengthAdjust="spacing" textLength="83" x="941" y="668.6758">:Repositories</text><rect fill="#E3E3E3" height="51.2422" rx="2.5" ry="2.5" style="stroke:#181818;stroke-width:0.5;" width="163" x="1041" y="31.3789"/><text fill="#000000" font-family="sans-serif" font-size="14" lengthAdjust="spacing" textLength="149" x="1048" y="53.4863">greenSpaceRepository:</text><text fill="#000000" font-family="sans-serif" font-size="14" lengthAdjust="spacing" textLength="148" x="1048.5" y="72.1074">GreenSpaceRepository</text><rect fill="#E3E3E3" height="51.2422" rx="2.5" ry="2.5" style="stroke:#181818;stroke-width:0.5;" width="163" x="1041" y="627.9473"/><text fill="#000000" font-family="sans-serif" font-size="14" lengthAdjust="spacing" textLength="149" x="1048" y="650.0547">greenSpaceRepository:</text><text fill="#000000" font-family="sans-serif" font-size="14" lengthAdjust="spacing" textLength="148" x="1048.5" y="668.6758">GreenSpaceRepository</text><rect fill="#E3E3E3" height="51.2422" rx="2.5" ry="2.5" style="stroke:#181818;stroke-width:0.5;" width="99" x="1214" y="31.3789"/><text fill="#000000" font-family="sans-serif" font-size="14" lengthAdjust="spacing" textLength="85" x="1221" y="53.4863">green Space:</text><text fill="#000000" font-family="sans-serif" font-size="14" lengthAdjust="spacing" textLength="84" x="1221.5" y="72.1074">Green Space</text><rect fill="#E3E3E3" height="51.2422" rx="2.5" ry="2.5" style="stroke:#181818;stroke-width:0.5;" width="99" x="1214" y="627.9473"/><text fill="#000000" font-family="sans-serif" font-size="14" lengthAdjust="spacing" textLength="85" x="1221" y="650.0547">green Space:</text><text fill="#000000" font-family="sans-serif" font-size="14" lengthAdjust="spacing" textLength="84" x="1221.5" y="668.6758">Green Space</text><rect fill="#FFFFFF" height="526.3262" style="stroke:#181818;stroke-width:1.0;" width="10" x="18.5" y="93.6211"/><rect fill="#FFFFFF" height="31.291" style="stroke:#181818;stroke-width:1.0;" width="10" x="368.5" y="165.1641"/><rect fill="#FFFFFF" height="31.291" style="stroke:#181818;stroke-width:1.0;" width="10" x="368.5" y="227.7461"/><rect fill="#FFFFFF" height="320.6191" style="stroke:#181818;stroke-width:1.0;" width="10" x="368.5" y="290.3281"/><rect fill="#FFFFFF" height="258.0371" style="stroke:#181818;stroke-width:1.0;" width="10" x="707.5" y="321.6191"/><rect fill="#FFFFFF" height="75.582" style="stroke:#181818;stroke-width:1.0;" width="10" x="1117.5" y="472.7832"/><rect fill="#FFFFFF" height="119.873" style="stroke:#181818;stroke-width:1.0;" width="10" x="1258.5" y="352.9102"/><rect fill="none" height="43.252" style="stroke:#000000;stroke-width:1.5;" width="454" x="2" y="93.6211"/><path d="M2,93.6211 L64,93.6211 L64,102.6211 L54,112.6211 L2,112.6211 L2,93.6211 " fill="#EEEEEE" style="stroke:#000000;stroke-width:2.0;"/><text fill="#000000" font-family="sans-serif" font-size="13" font-weight="bold" lengthAdjust="spacing" textLength="17" x="15" y="109.6494">ref</text><text fill="#000000" font-family="sans-serif" font-size="12" lengthAdjust="spacing" textLength="308" x="75" y="129.5703">This action assumes that the user has already logged in</text><polygon fill="#181818" points="356.5,161.1641,366.5,165.1641,356.5,169.1641,360.5,165.1641" style="stroke:#181818;stroke-width:1.0;"/><line style="stroke:#181818;stroke-width:1.0;" x1="28.5" x2="362.5" y1="165.1641" y2="165.1641"/><text fill="#000000" font-family="sans-serif" font-size="13" font-weight="bold" lengthAdjust="spacing" textLength="7" x="35.5" y="159.9014">1</text><text fill="#000000" font-family="sans-serif" font-size="13" lengthAdjust="spacing" textLength="203" x="46.5" y="159.9014">asks to register a new green space</text><polygon fill="#181818" points="39.5,192.4551,29.5,196.4551,39.5,200.4551,35.5,196.4551" style="stroke:#181818;stroke-width:1.0;"/><line style="stroke:#181818;stroke-width:1.0;" x1="33.5" x2="372.5" y1="196.4551" y2="196.4551"/><text fill="#000000" font-family="sans-serif" font-size="13" font-weight="bold" lengthAdjust="spacing" textLength="7" x="45.5" y="191.1924">2</text><text fill="#000000" font-family="sans-serif" font-size="13" lengthAdjust="spacing" textLength="115" x="56.5" y="191.1924">requests typed data</text><polygon fill="#181818" points="356.5,223.7461,366.5,227.7461,356.5,231.7461,360.5,227.7461" style="stroke:#181818;stroke-width:1.0;"/><line style="stroke:#181818;stroke-width:1.0;" x1="28.5" x2="362.5" y1="227.7461" y2="227.7461"/><text fill="#000000" font-family="sans-serif" font-size="13" font-weight="bold" lengthAdjust="spacing" textLength="7" x="35.5" y="222.4834">3</text><text fill="#000000" font-family="sans-serif" font-size="13" lengthAdjust="spacing" textLength="310" x="46.5" y="222.4834">types requested data (name, address, area, typology)</text><polygon fill="#181818" points="39.5,255.0371,29.5,259.0371,39.5,263.0371,35.5,259.0371" style="stroke:#181818;stroke-width:1.0;"/><line style="stroke:#181818;stroke-width:1.0;stroke-dasharray:2.0,2.0;" x1="33.5" x2="372.5" y1="259.0371" y2="259.0371"/><text fill="#000000" font-family="sans-serif" font-size="13" font-weight="bold" lengthAdjust="spacing" textLength="7" x="45.5" y="253.7744">4</text><text fill="#000000" font-family="sans-serif" font-size="13" lengthAdjust="spacing" textLength="236" x="56.5" y="253.7744">shows all data and requests confirmation</text><polygon fill="#181818" points="356.5,286.3281,366.5,290.3281,356.5,294.3281,360.5,290.3281" style="stroke:#181818;stroke-width:1.0;"/><line style="stroke:#181818;stroke-width:1.0;" x1="28.5" x2="362.5" y1="290.3281" y2="290.3281"/><text fill="#000000" font-family="sans-serif" font-size="13" font-weight="bold" lengthAdjust="spacing" textLength="7" x="35.5" y="285.0654">5</text><text fill="#000000" font-family="sans-serif" font-size="13" lengthAdjust="spacing" textLength="78" x="46.5" y="285.0654">confirms data</text><polygon fill="#181818" points="695.5,317.6191,705.5,321.6191,695.5,325.6191,699.5,321.6191" style="stroke:#181818;stroke-width:1.0;"/><line style="stroke:#181818;stroke-width:1.0;" x1="378.5" x2="701.5" y1="321.6191" y2="321.6191"/><text fill="#000000" font-family="sans-serif" font-size="13" font-weight="bold" lengthAdjust="spacing" textLength="7" x="385.5" y="316.3564">6</text><text fill="#000000" font-family="sans-serif" font-size="13" lengthAdjust="spacing" textLength="299" x="396.5" y="316.3564">registerGreenSpace(name, address, area, typology)</text><polygon fill="#181818" points="1246.5,348.9102,1256.5,352.9102,1246.5,356.9102,1250.5,352.9102" style="stroke:#181818;stroke-width:1.0;"/><line style="stroke:#181818;stroke-width:1.0;" x1="717.5" x2="1252.5" y1="352.9102" y2="352.9102"/><text fill="#000000" font-family="sans-serif" font-size="13" font-weight="bold" lengthAdjust="spacing" textLength="7" x="724.5" y="347.6475">7</text><text fill="#000000" font-family="sans-serif" font-size="13" lengthAdjust="spacing" textLength="299" x="735.5" y="347.6475">registerGreenSpace(name, address, area, typology)</text><line style="stroke:#181818;stroke-width:1.0;" x1="1268.5" x2="1310.5" y1="384.2012" y2="384.2012"/><line style="stroke:#181818;stroke-width:1.0;" x1="1310.5" x2="1310.5" y1="384.2012" y2="397.2012"/><line style="stroke:#181818;stroke-width:1.0;" x1="1269.5" x2="1310.5" y1="397.2012" y2="397.2012"/><polygon fill="#181818" points="1279.5,393.2012,1269.5,397.2012,1279.5,401.2012,1275.5,397.2012" style="stroke:#181818;stroke-width:1.0;"/><text fill="#000000" font-family="sans-serif" font-size="13" font-weight="bold" lengthAdjust="spacing" textLength="7" x="1275.5" y="378.9385">8</text><text fill="#000000" font-family="sans-serif" font-size="13" lengthAdjust="spacing" textLength="155" x="1286.5" y="378.9385">validateGreenSpace(name)</text><line style="stroke:#181818;stroke-width:1.0;" x1="1268.5" x2="1310.5" y1="428.4922" y2="428.4922"/><line style="stroke:#181818;stroke-width:1.0;" x1="1310.5" x2="1310.5" y1="428.4922" y2="441.4922"/><line style="stroke:#181818;stroke-width:1.0;" x1="1269.5" x2="1310.5" y1="441.4922" y2="441.4922"/><polygon fill="#181818" points="1279.5,437.4922,1269.5,441.4922,1279.5,445.4922,1275.5,441.4922" style="stroke:#181818;stroke-width:1.0;"/><text fill="#000000" font-family="sans-serif" font-size="13" font-weight="bold" lengthAdjust="spacing" textLength="7" x="1275.5" y="423.2295">9</text><text fill="#000000" font-family="sans-serif" font-size="13" lengthAdjust="spacing" textLength="115" x="1286.5" y="423.2295">registerGreenSpace</text><polygon fill="#181818" points="1138.5,468.7832,1128.5,472.7832,1138.5,476.7832,1134.5,472.7832" style="stroke:#181818;stroke-width:1.0;"/><line style="stroke:#181818;stroke-width:1.0;" x1="1132.5" x2="1262.5" y1="472.7832" y2="472.7832"/><text fill="#000000" font-family="sans-serif" font-size="13" font-weight="bold" lengthAdjust="spacing" textLength="14" x="1144.5" y="467.5205">10</text><text fill="#000000" font-family="sans-serif" font-size="13" lengthAdjust="spacing" textLength="69" x="1162.5" y="467.5205">greenSpace</text><line style="stroke:#181818;stroke-width:1.0;" x1="1127.5" x2="1169.5" y1="504.0742" y2="504.0742"/><line style="stroke:#181818;stroke-width:1.0;" x1="1169.5" x2="1169.5" y1="504.0742" y2="517.0742"/><line style="stroke:#181818;stroke-width:1.0;" x1="1128.5" x2="1169.5" y1="517.0742" y2="517.0742"/><polygon fill="#181818" points="1138.5,513.0742,1128.5,517.0742,1138.5,521.0742,1134.5,517.0742" style="stroke:#181818;stroke-width:1.0;"/><text fill="#000000" font-family="sans-serif" font-size="13" font-weight="bold" lengthAdjust="spacing" textLength="14" x="1134.5" y="498.8115">11</text><text fill="#000000" font-family="sans-serif" font-size="13" lengthAdjust="spacing" textLength="98" x="1152.5" y="498.8115">add(greenSpace)</text><polygon fill="#181818" points="728.5,544.3652,718.5,548.3652,728.5,552.3652,724.5,548.3652" style="stroke:#181818;stroke-width:1.0;"/><line style="stroke:#181818;stroke-width:1.0;" x1="722.5" x2="1121.5" y1="548.3652" y2="548.3652"/><text fill="#000000" font-family="sans-serif" font-size="13" font-weight="bold" lengthAdjust="spacing" textLength="14" x="734.5" y="543.1025">12</text><text fill="#000000" font-family="sans-serif" font-size="13" lengthAdjust="spacing" textLength="69" x="752.5" y="543.1025">greenSpace</text><polygon fill="#181818" points="389.5,575.6563,379.5,579.6563,389.5,583.6563,385.5,579.6563" style="stroke:#181818;stroke-width:1.0;"/><line style="stroke:#181818;stroke-width:1.0;" x1="383.5" x2="711.5" y1="579.6563" y2="579.6563"/><text fill="#000000" font-family="sans-serif" font-size="13" font-weight="bold" lengthAdjust="spacing" textLength="14" x="395.5" y="574.3936">13</text><text fill="#000000" font-family="sans-serif" font-size="13" lengthAdjust="spacing" textLength="69" x="413.5" y="574.3936">greenSpace</text><polygon fill="#181818" points="39.5,606.9473,29.5,610.9473,39.5,614.9473,35.5,610.9473" style="stroke:#181818;stroke-width:1.0;"/><line style="stroke:#181818;stroke-width:1.0;" x1="33.5" x2="372.5" y1="610.9473" y2="610.9473"/><text fill="#000000" font-family="sans-serif" font-size="13" font-weight="bold" lengthAdjust="spacing" textLength="14" x="45.5" y="605.6846">14</text><text fill="#000000" font-family="sans-serif" font-size="13" lengthAdjust="spacing" textLength="106" x="63.5" y="605.6846">operation success</text><!--SRC=[fLDBR-8m4BxxLuouj4Zi7-2mKeKGgjIjAa9llKoJ8R58xAp7WSs_tt428O1fLzfBdjzh7kQTDZKwhA2ongQ5inM1Tmqf7lxKcEumfyIt9O6ZrAF9op602ypiGPiSjbWoAOMDjwQfFiafzL3eZ61hhV-qVnIctZgOh99V4q06kIlHy3hLDHeFQyerUt8hHsGICQRtvu1xV_u6jh36ErkMv09yiLc_N10cypNLbhMOQ-BEUlZG9ZhK8ualAMx4-32t0cylJvjBHZx4EOlFFymgyhclFl8ZeWWTv2JKl_NyzNBvchmzBPQXhtgFdhgEAaTRi7lfXRpDf7amXqsX6GBA6g5oKn63Bz3BXQ1XmHQYYAKZp5eeRPvJ1jee9HBmusSlWhmJbfKbwFiF28OEqAVaaEiSH4QcX2JKe30Npk-6s0k_hKKwGuygemlus2gW-4Gwuk7HO4Kpm2npn2mFadOMe5O2jzDRyy6T2ti8vPMz49hi72YrPgjTXQ4tNqKwuhZF7Yaqh5rNwVLs_dFkRd5LfnEY3_FzFzNHdgYHvhN37aijfT6Lm_Ghpcsg6ul8aWlnV5R6BOzkTEoKH5NlkqcF7i-EqxlqumJlX8i5ESsgsv0uhnlg-2ZOcbotRS1DcihihhRkBm00]--></g></svg>