<?xml version="1.0" encoding="us-ascii" standalone="no"?><svg xmlns="http://www.w3.org/2000/svg" xmlns:xlink="http://www.w3.org/1999/xlink" contentStyleType="text/css" height="1125px" preserveAspectRatio="none" style="width:2218px;height:1125px;background:#FFFFFF;" version="1.1" viewBox="0 0 2218 1125" width="2218px" zoomAndPan="magnify"><defs/><g><rect fill="#FFFFFF" height="930.4785" style="stroke:#181818;stroke-width:1.0;" width="10" x="18.5" y="93.6211"/><rect fill="#FFFFFF" height="156.4551" style="stroke:#181818;stroke-width:1.0;" width="10" x="553.5" y="165.1641"/><rect fill="#FFFFFF" height="31.291" style="stroke:#181818;stroke-width:1.0;" width="10" x="553.5" y="352.9102"/><rect fill="#FFFFFF" height="608.6074" style="stroke:#181818;stroke-width:1.0;" width="10" x="553.5" y="415.4922"/><rect fill="#FFFFFF" height="93.873" style="stroke:#181818;stroke-width:1.0;" width="10" x="957.5" y="196.4551"/><rect fill="#FFFFFF" height="546.0254" style="stroke:#181818;stroke-width:1.0;" width="10" x="957.5" y="446.7832"/><rect fill="#FFFFFF" height="230.0371" style="stroke:#181818;stroke-width:1.0;" width="10" x="962.5" y="486.0742"/><rect fill="#FFFFFF" height="31.291" style="stroke:#181818;stroke-width:1.0;" width="10" x="1175.5" y="522.3652"/><rect fill="#FFFFFF" height="31.291" style="stroke:#181818;stroke-width:1.0;" width="10" x="1282.5" y="584.9473"/><rect fill="#FFFFFF" height="31.291" style="stroke:#181818;stroke-width:1.0;" width="10" x="1414.5" y="647.5293"/><rect fill="#FFFFFF" height="31.291" style="stroke:#181818;stroke-width:1.0;" width="10" x="1576" y="227.7461"/><rect fill="#FFFFFF" height="182.1152" style="stroke:#181818;stroke-width:1.0;" width="10" x="1704" y="779.4023"/><line style="stroke:#181818;stroke-width:0.5;stroke-dasharray:5.0,5.0;" x1="23" x2="23" y1="83.6211" y2="1042.0996"/><line style="stroke:#181818;stroke-width:0.5;stroke-dasharray:5.0,5.0;" x1="558" x2="558" y1="83.6211" y2="1042.0996"/><line style="stroke:#181818;stroke-width:0.5;stroke-dasharray:5.0,5.0;" x1="962" x2="962" y1="83.6211" y2="1042.0996"/><line style="stroke:#181818;stroke-width:0.5;stroke-dasharray:5.0,5.0;" x1="1180" x2="1180" y1="83.6211" y2="1042.0996"/><line style="stroke:#181818;stroke-width:0.5;stroke-dasharray:5.0,5.0;" x1="1287" x2="1287" y1="83.6211" y2="1042.0996"/><line style="stroke:#181818;stroke-width:0.5;stroke-dasharray:5.0,5.0;" x1="1419" x2="1419" y1="83.6211" y2="1042.0996"/><line style="stroke:#181818;stroke-width:0.5;stroke-dasharray:5.0,5.0;" x1="1581" x2="1581" y1="83.6211" y2="1042.0996"/><line style="stroke:#181818;stroke-width:0.5;stroke-dasharray:5.0,5.0;" x1="1709" x2="1709" y1="83.6211" y2="1042.0996"/><line style="stroke:#181818;stroke-width:0.5;stroke-dasharray:5.0,5.0;" x1="2162" x2="2162" y1="828.5234" y2="1042.0996"/><text fill="#000000" font-family="sans-serif" font-size="14" lengthAdjust="spacing" textLength="31" x="5" y="80.1074">GSM</text><ellipse cx="23.5" cy="13.5" fill="#E3E3E3" rx="8" ry="8" style="stroke:#181818;stroke-width:0.5;"/><path d="M23.5,21.5 L23.5,48.5 M10.5,29.5 L36.5,29.5 M23.5,48.5 L10.5,63.5 M23.5,48.5 L36.5,63.5 " fill="none" style="stroke:#181818;stroke-width:0.5;"/><text fill="#000000" font-family="sans-serif" font-size="14" lengthAdjust="spacing" textLength="31" x="5" y="1056.207">GSM</text><ellipse cx="23.5" cy="1068.2207" fill="#E3E3E3" rx="8" ry="8" style="stroke:#181818;stroke-width:0.5;"/><path d="M23.5,1076.2207 L23.5,1103.2207 M10.5,1084.2207 L36.5,1084.2207 M23.5,1103.2207 L10.5,1118.2207 M23.5,1103.2207 L36.5,1118.2207 " fill="none" style="stroke:#181818;stroke-width:0.5;"/><rect fill="#E3E3E3" height="32.6211" rx="2.5" ry="2.5" style="stroke:#181818;stroke-width:0.5;" width="159" x="479" y="50"/><text fill="#000000" font-family="sans-serif" font-size="14" lengthAdjust="spacing" textLength="145" x="486" y="72.1074">RegisterGreenSpaceUI</text><rect fill="#E3E3E3" height="32.6211" rx="2.5" ry="2.5" style="stroke:#181818;stroke-width:0.5;" width="159" x="479" y="1041.0996"/><text fill="#000000" font-family="sans-serif" font-size="14" lengthAdjust="spacing" textLength="145" x="486" y="1063.207">RegisterGreenSpaceUI</text><rect fill="#E3E3E3" height="32.6211" rx="2.5" ry="2.5" style="stroke:#181818;stroke-width:0.5;" width="209" x="858" y="50"/><text fill="#000000" font-family="sans-serif" font-size="14" lengthAdjust="spacing" textLength="195" x="865" y="72.1074">RegisterGreenSpaceController</text><rect fill="#E3E3E3" height="32.6211" rx="2.5" ry="2.5" style="stroke:#181818;stroke-width:0.5;" width="209" x="858" y="1041.0996"/><text fill="#000000" font-family="sans-serif" font-size="14" lengthAdjust="spacing" textLength="195" x="865" y="1063.207">RegisterGreenSpaceController</text><rect fill="#E3E3E3" height="32.6211" rx="2.5" ry="2.5" style="stroke:#181818;stroke-width:0.5;" width="97" x="1132" y="50"/><text fill="#000000" font-family="sans-serif" font-size="14" lengthAdjust="spacing" textLength="83" x="1139" y="72.1074">:Repositories</text><rect fill="#E3E3E3" height="32.6211" rx="2.5" ry="2.5" style="stroke:#181818;stroke-width:0.5;" width="97" x="1132" y="1041.0996"/><text fill="#000000" font-family="sans-serif" font-size="14" lengthAdjust="spacing" textLength="83" x="1139" y="1063.207">:Repositories</text><rect fill="#E3E3E3" height="51.2422" rx="2.5" ry="2.5" style="stroke:#181818;stroke-width:0.5;" width="97" x="1239" y="31.3789"/><text fill="#000000" font-family="sans-serif" font-size="14" lengthAdjust="spacing" textLength="74" x="1250.5" y="53.4863">repositories</text><text fill="#000000" font-family="sans-serif" font-size="14" lengthAdjust="spacing" textLength="83" x="1246" y="72.1074">:Repositories</text><rect fill="#E3E3E3" height="51.2422" rx="2.5" ry="2.5" style="stroke:#181818;stroke-width:0.5;" width="97" x="1239" y="1041.0996"/><text fill="#000000" font-family="sans-serif" font-size="14" lengthAdjust="spacing" textLength="74" x="1250.5" y="1063.207">repositories</text><text fill="#000000" font-family="sans-serif" font-size="14" lengthAdjust="spacing" textLength="83" x="1246" y="1081.8281">:Repositories</text><rect fill="#E3E3E3" height="51.2422" rx="2.5" ry="2.5" style="stroke:#181818;stroke-width:0.5;" width="147" x="1346" y="31.3789"/><text fill="#000000" font-family="sans-serif" font-size="14" lengthAdjust="spacing" textLength="133" x="1353" y="53.4863">employeeRepository:</text><text fill="#000000" font-family="sans-serif" font-size="14" lengthAdjust="spacing" textLength="130" x="1354.5" y="72.1074">EmployeeRepository</text><rect fill="#E3E3E3" height="51.2422" rx="2.5" ry="2.5" style="stroke:#181818;stroke-width:0.5;" width="147" x="1346" y="1041.0996"/><text fill="#000000" font-family="sans-serif" font-size="14" lengthAdjust="spacing" textLength="133" x="1353" y="1063.207">employeeRepository:</text><text fill="#000000" font-family="sans-serif" font-size="14" lengthAdjust="spacing" textLength="130" x="1354.5" y="1081.8281">EmployeeRepository</text><rect fill="#E3E3E3" height="51.2422" rx="2.5" ry="2.5" style="stroke:#181818;stroke-width:0.5;" width="156" x="1503" y="31.3789"/><text fill="#000000" font-family="sans-serif" font-size="14" lengthAdjust="spacing" textLength="135" x="1513.5" y="53.4863">greenSpaceTypology</text><text fill="#000000" font-family="sans-serif" font-size="14" lengthAdjust="spacing" textLength="142" x="1510" y="72.1074">:GreenSpaceTypology</text><rect fill="#E3E3E3" height="51.2422" rx="2.5" ry="2.5" style="stroke:#181818;stroke-width:0.5;" width="156" x="1503" y="1041.0996"/><text fill="#000000" font-family="sans-serif" font-size="14" lengthAdjust="spacing" textLength="135" x="1513.5" y="1063.207">greenSpaceTypology</text><text fill="#000000" font-family="sans-serif" font-size="14" lengthAdjust="spacing" textLength="142" x="1510" y="1081.8281">:GreenSpaceTypology</text><rect fill="#E3E3E3" height="51.2422" rx="2.5" ry="2.5" style="stroke:#181818;stroke-width:0.5;" width="80" x="1669" y="31.3789"/><text fill="#000000" font-family="sans-serif" font-size="14" lengthAdjust="spacing" textLength="61" x="1678.5" y="53.4863">employee</text><text fill="#000000" font-family="sans-serif" font-size="14" lengthAdjust="spacing" textLength="66" x="1676" y="72.1074">:Employee</text><rect fill="#E3E3E3" height="51.2422" rx="2.5" ry="2.5" style="stroke:#181818;stroke-width:0.5;" width="80" x="1669" y="1041.0996"/><text fill="#000000" font-family="sans-serif" font-size="14" lengthAdjust="spacing" textLength="61" x="1678.5" y="1063.207">employee</text><text fill="#000000" font-family="sans-serif" font-size="14" lengthAdjust="spacing" textLength="66" x="1676" y="1081.8281">:Employee</text><rect fill="#E3E3E3" height="51.2422" rx="2.5" ry="2.5" style="stroke:#181818;stroke-width:0.5;" width="99" x="2113" y="1041.0996"/><text fill="#000000" font-family="sans-serif" font-size="14" lengthAdjust="spacing" textLength="85" x="2120" y="1063.207">green Space:</text><text fill="#000000" font-family="sans-serif" font-size="14" lengthAdjust="spacing" textLength="84" x="2120.5" y="1081.8281">Green Space</text><rect fill="#FFFFFF" height="930.4785" style="stroke:#181818;stroke-width:1.0;" width="10" x="18.5" y="93.6211"/><rect fill="#FFFFFF" height="156.4551" style="stroke:#181818;stroke-width:1.0;" width="10" x="553.5" y="165.1641"/><rect fill="#FFFFFF" height="31.291" style="stroke:#181818;stroke-width:1.0;" width="10" x="553.5" y="352.9102"/><rect fill="#FFFFFF" height="608.6074" style="stroke:#181818;stroke-width:1.0;" width="10" x="553.5" y="415.4922"/><rect fill="#FFFFFF" height="93.873" style="stroke:#181818;stroke-width:1.0;" width="10" x="957.5" y="196.4551"/><rect fill="#FFFFFF" height="546.0254" style="stroke:#181818;stroke-width:1.0;" width="10" x="957.5" y="446.7832"/><rect fill="#FFFFFF" height="230.0371" style="stroke:#181818;stroke-width:1.0;" width="10" x="962.5" y="486.0742"/><rect fill="#FFFFFF" height="31.291" style="stroke:#181818;stroke-width:1.0;" width="10" x="1175.5" y="522.3652"/><rect fill="#FFFFFF" height="31.291" style="stroke:#181818;stroke-width:1.0;" width="10" x="1282.5" y="584.9473"/><rect fill="#FFFFFF" height="31.291" style="stroke:#181818;stroke-width:1.0;" width="10" x="1414.5" y="647.5293"/><rect fill="#FFFFFF" height="31.291" style="stroke:#181818;stroke-width:1.0;" width="10" x="1576" y="227.7461"/><rect fill="#FFFFFF" height="182.1152" style="stroke:#181818;stroke-width:1.0;" width="10" x="1704" y="779.4023"/><rect fill="none" height="43.252" style="stroke:#000000;stroke-width:1.5;" width="639" x="2" y="93.6211"/><path d="M2,93.6211 L64,93.6211 L64,102.6211 L54,112.6211 L2,112.6211 L2,93.6211 " fill="#EEEEEE" style="stroke:#000000;stroke-width:2.0;"/><text fill="#000000" font-family="sans-serif" font-size="13" font-weight="bold" lengthAdjust="spacing" textLength="17" x="15" y="109.6494">ref</text><text fill="#000000" font-family="sans-serif" font-size="12" lengthAdjust="spacing" textLength="308" x="167.5" y="129.5703">This action assumes that the user has already logged in</text><polygon fill="#181818" points="541.5,161.1641,551.5,165.1641,541.5,169.1641,545.5,165.1641" style="stroke:#181818;stroke-width:1.0;"/><line style="stroke:#181818;stroke-width:1.0;" x1="28.5" x2="547.5" y1="165.1641" y2="165.1641"/><text fill="#000000" font-family="sans-serif" font-size="13" font-weight="bold" lengthAdjust="spacing" textLength="7" x="35.5" y="159.9014">1</text><text fill="#000000" font-family="sans-serif" font-size="13" lengthAdjust="spacing" textLength="203" x="46.5" y="159.9014">asks to register a new green space</text><polygon fill="#181818" points="945.5,192.4551,955.5,196.4551,945.5,200.4551,949.5,196.4551" style="stroke:#181818;stroke-width:1.0;"/><line style="stroke:#181818;stroke-width:1.0;" x1="563.5" x2="951.5" y1="196.4551" y2="196.4551"/><text fill="#000000" font-family="sans-serif" font-size="13" font-weight="bold" lengthAdjust="spacing" textLength="7" x="570.5" y="191.1924">2</text><text fill="#000000" font-family="sans-serif" font-size="13" lengthAdjust="spacing" textLength="150" x="581.5" y="191.1924">getGreenSpaceTypology()</text><polygon fill="#181818" points="1564,223.7461,1574,227.7461,1564,231.7461,1568,227.7461" style="stroke:#181818;stroke-width:1.0;"/><line style="stroke:#181818;stroke-width:1.0;" x1="967.5" x2="1570" y1="227.7461" y2="227.7461"/><text fill="#000000" font-family="sans-serif" font-size="13" font-weight="bold" lengthAdjust="spacing" textLength="7" x="974.5" y="222.4834">3</text><text fill="#000000" font-family="sans-serif" font-size="13" lengthAdjust="spacing" textLength="150" x="985.5" y="222.4834">getGreenSpaceTypology()</text><polygon fill="#181818" points="978.5,255.0371,968.5,259.0371,978.5,263.0371,974.5,259.0371" style="stroke:#181818;stroke-width:1.0;"/><line style="stroke:#181818;stroke-width:1.0;" x1="972.5" x2="1580" y1="259.0371" y2="259.0371"/><text fill="#000000" font-family="sans-serif" font-size="13" font-weight="bold" lengthAdjust="spacing" textLength="7" x="984.5" y="253.7744">4</text><text fill="#000000" font-family="sans-serif" font-size="13" lengthAdjust="spacing" textLength="121" x="995.5" y="253.7744">greenSpaceTypology</text><polygon fill="#181818" points="574.5,286.3281,564.5,290.3281,574.5,294.3281,570.5,290.3281" style="stroke:#181818;stroke-width:1.0;"/><line style="stroke:#181818;stroke-width:1.0;" x1="568.5" x2="961.5" y1="290.3281" y2="290.3281"/><text fill="#000000" font-family="sans-serif" font-size="13" font-weight="bold" lengthAdjust="spacing" textLength="7" x="580.5" y="285.0654">5</text><text fill="#000000" font-family="sans-serif" font-size="13" lengthAdjust="spacing" textLength="121" x="591.5" y="285.0654">greenSpaceTypology</text><polygon fill="#181818" points="39.5,317.6191,29.5,321.6191,39.5,325.6191,35.5,321.6191" style="stroke:#181818;stroke-width:1.0;"/><line style="stroke:#181818;stroke-width:1.0;" x1="33.5" x2="557.5" y1="321.6191" y2="321.6191"/><text fill="#000000" font-family="sans-serif" font-size="13" font-weight="bold" lengthAdjust="spacing" textLength="7" x="45.5" y="316.3564">6</text><text fill="#000000" font-family="sans-serif" font-size="13" lengthAdjust="spacing" textLength="490" x="56.5" y="316.3564">shows green space typology to be selected and requests data (name, address, area)</text><polygon fill="#181818" points="541.5,348.9102,551.5,352.9102,541.5,356.9102,545.5,352.9102" style="stroke:#181818;stroke-width:1.0;"/><line style="stroke:#181818;stroke-width:1.0;" x1="28.5" x2="547.5" y1="352.9102" y2="352.9102"/><text fill="#000000" font-family="sans-serif" font-size="13" font-weight="bold" lengthAdjust="spacing" textLength="7" x="35.5" y="347.6475">7</text><text fill="#000000" font-family="sans-serif" font-size="13" lengthAdjust="spacing" textLength="321" x="46.5" y="347.6475">selects green space typology and types requested data</text><polygon fill="#181818" points="39.5,380.2012,29.5,384.2012,39.5,388.2012,35.5,384.2012" style="stroke:#181818;stroke-width:1.0;"/><line style="stroke:#181818;stroke-width:1.0;stroke-dasharray:2.0,2.0;" x1="33.5" x2="557.5" y1="384.2012" y2="384.2012"/><text fill="#000000" font-family="sans-serif" font-size="13" font-weight="bold" lengthAdjust="spacing" textLength="7" x="45.5" y="378.9385">8</text><text fill="#000000" font-family="sans-serif" font-size="13" lengthAdjust="spacing" textLength="236" x="56.5" y="378.9385">shows all data and requests confirmation</text><polygon fill="#181818" points="541.5,411.4922,551.5,415.4922,541.5,419.4922,545.5,415.4922" style="stroke:#181818;stroke-width:1.0;"/><line style="stroke:#181818;stroke-width:1.0;" x1="28.5" x2="547.5" y1="415.4922" y2="415.4922"/><text fill="#000000" font-family="sans-serif" font-size="13" font-weight="bold" lengthAdjust="spacing" textLength="7" x="35.5" y="410.2295">9</text><text fill="#000000" font-family="sans-serif" font-size="13" lengthAdjust="spacing" textLength="78" x="46.5" y="410.2295">confirms data</text><polygon fill="#181818" points="945.5,442.7832,955.5,446.7832,945.5,450.7832,949.5,446.7832" style="stroke:#181818;stroke-width:1.0;"/><line style="stroke:#181818;stroke-width:1.0;" x1="563.5" x2="951.5" y1="446.7832" y2="446.7832"/><text fill="#000000" font-family="sans-serif" font-size="13" font-weight="bold" lengthAdjust="spacing" textLength="14" x="570.5" y="441.5205">10</text><text fill="#000000" font-family="sans-serif" font-size="13" lengthAdjust="spacing" textLength="357" x="588.5" y="441.5205">registerGreenSpace(name, address, area, typology, manager)</text><line style="stroke:#181818;stroke-width:1.0;" x1="967.5" x2="1014.5" y1="473.0742" y2="473.0742"/><line style="stroke:#181818;stroke-width:1.0;" x1="1014.5" x2="1014.5" y1="473.0742" y2="486.0742"/><line style="stroke:#181818;stroke-width:1.0;" x1="973.5" x2="1014.5" y1="486.0742" y2="486.0742"/><polygon fill="#181818" points="983.5,482.0742,973.5,486.0742,983.5,490.0742,979.5,486.0742" style="stroke:#181818;stroke-width:1.0;"/><text fill="#000000" font-family="sans-serif" font-size="13" font-weight="bold" lengthAdjust="spacing" textLength="14" x="979.5" y="467.8115">11</text><text fill="#000000" font-family="sans-serif" font-size="13" lengthAdjust="spacing" textLength="176" x="997.5" y="467.8115">getEmployeeFromRepository()</text><polygon fill="#181818" points="1163.5,518.3652,1173.5,522.3652,1163.5,526.3652,1167.5,522.3652" style="stroke:#181818;stroke-width:1.0;"/><line style="stroke:#181818;stroke-width:1.0;" x1="972.5" x2="1169.5" y1="522.3652" y2="522.3652"/><text fill="#000000" font-family="sans-serif" font-size="13" font-weight="bold" lengthAdjust="spacing" textLength="14" x="979.5" y="517.1025">12</text><text fill="#000000" font-family="sans-serif" font-size="13" lengthAdjust="spacing" textLength="75" x="997.5" y="517.1025">getInstance()</text><polygon fill="#181818" points="983.5,549.6563,973.5,553.6563,983.5,557.6563,979.5,553.6563" style="stroke:#181818;stroke-width:1.0;"/><line style="stroke:#181818;stroke-width:1.0;stroke-dasharray:2.0,2.0;" x1="977.5" x2="1179.5" y1="553.6563" y2="553.6563"/><text fill="#000000" font-family="sans-serif" font-size="13" font-weight="bold" lengthAdjust="spacing" textLength="14" x="989.5" y="548.3936">13</text><text fill="#000000" font-family="sans-serif" font-size="13" lengthAdjust="spacing" textLength="67" x="1007.5" y="548.3936">repositories</text><polygon fill="#181818" points="1270.5,580.9473,1280.5,584.9473,1270.5,588.9473,1274.5,584.9473" style="stroke:#181818;stroke-width:1.0;"/><line style="stroke:#181818;stroke-width:1.0;" x1="972.5" x2="1276.5" y1="584.9473" y2="584.9473"/><text fill="#000000" font-family="sans-serif" font-size="13" font-weight="bold" lengthAdjust="spacing" textLength="14" x="979.5" y="579.6846">14</text><text fill="#000000" font-family="sans-serif" font-size="13" lengthAdjust="spacing" textLength="156" x="997.5" y="579.6846">getEmployeeRepositories()</text><polygon fill="#181818" points="983.5,612.2383,973.5,616.2383,983.5,620.2383,979.5,616.2383" style="stroke:#181818;stroke-width:1.0;"/><line style="stroke:#181818;stroke-width:1.0;stroke-dasharray:2.0,2.0;" x1="977.5" x2="1286.5" y1="616.2383" y2="616.2383"/><text fill="#000000" font-family="sans-serif" font-size="13" font-weight="bold" lengthAdjust="spacing" textLength="14" x="989.5" y="610.9756">15</text><text fill="#000000" font-family="sans-serif" font-size="13" lengthAdjust="spacing" textLength="130" x="1007.5" y="610.9756">EmployeeRepositories</text><polygon fill="#181818" points="1402.5,643.5293,1412.5,647.5293,1402.5,651.5293,1406.5,647.5293" style="stroke:#181818;stroke-width:1.0;"/><line style="stroke:#181818;stroke-width:1.0;" x1="972.5" x2="1408.5" y1="647.5293" y2="647.5293"/><text fill="#000000" font-family="sans-serif" font-size="13" font-weight="bold" lengthAdjust="spacing" textLength="14" x="979.5" y="642.2666">16</text><text fill="#000000" font-family="sans-serif" font-size="13" lengthAdjust="spacing" textLength="84" x="997.5" y="642.2666">getEmployee()</text><polygon fill="#181818" points="983.5,674.8203,973.5,678.8203,983.5,682.8203,979.5,678.8203" style="stroke:#181818;stroke-width:1.0;"/><line style="stroke:#181818;stroke-width:1.0;stroke-dasharray:2.0,2.0;" x1="977.5" x2="1418.5" y1="678.8203" y2="678.8203"/><text fill="#000000" font-family="sans-serif" font-size="13" font-weight="bold" lengthAdjust="spacing" textLength="14" x="989.5" y="673.5576">17</text><text fill="#000000" font-family="sans-serif" font-size="13" lengthAdjust="spacing" textLength="56" x="1007.5" y="673.5576">employee</text><line style="stroke:#181818;stroke-width:1.0;stroke-dasharray:2.0,2.0;" x1="972.5" x2="1014.5" y1="715.1113" y2="715.1113"/><line style="stroke:#181818;stroke-width:1.0;stroke-dasharray:2.0,2.0;" x1="1014.5" x2="1014.5" y1="715.1113" y2="728.1113"/><line style="stroke:#181818;stroke-width:1.0;stroke-dasharray:2.0,2.0;" x1="967.5" x2="1014.5" y1="728.1113" y2="728.1113"/><polygon fill="#181818" points="977.5,724.1113,967.5,728.1113,977.5,732.1113,973.5,728.1113" style="stroke:#181818;stroke-width:1.0;"/><text fill="#000000" font-family="sans-serif" font-size="13" font-weight="bold" lengthAdjust="spacing" textLength="14" x="979.5" y="709.8486">18</text><text fill="#000000" font-family="sans-serif" font-size="13" lengthAdjust="spacing" textLength="56" x="997.5" y="709.8486">employee</text><polygon fill="#181818" points="1692,775.4023,1702,779.4023,1692,783.4023,1696,779.4023" style="stroke:#181818;stroke-width:1.0;"/><line style="stroke:#181818;stroke-width:1.0;" x1="967.5" x2="1698" y1="779.4023" y2="779.4023"/><text fill="#000000" font-family="sans-serif" font-size="13" font-weight="bold" lengthAdjust="spacing" textLength="14" x="974.5" y="774.1396">19</text><text fill="#000000" font-family="sans-serif" font-size="13" lengthAdjust="spacing" textLength="357" x="992.5" y="774.1396">registerGreenSpace(name, address, area, typology, manager)</text><polygon fill="#181818" points="2101,806.6934,2111,810.6934,2101,814.6934,2105,810.6934" style="stroke:#181818;stroke-width:1.0;"/><line style="stroke:#181818;stroke-width:1.0;" x1="1714" x2="2107" y1="810.6934" y2="810.6934"/><text fill="#000000" font-family="sans-serif" font-size="13" font-weight="bold" lengthAdjust="spacing" textLength="14" x="1721" y="805.4307">20</text><text fill="#000000" font-family="sans-serif" font-size="13" lengthAdjust="spacing" textLength="357" x="1739" y="805.4307">registerGreenSpace(name, address, area, typology, manager)</text><rect fill="#E3E3E3" height="51.2422" rx="2.5" ry="2.5" style="stroke:#181818;stroke-width:0.5;" width="99" x="2113" y="787.4023"/><text fill="#000000" font-family="sans-serif" font-size="14" lengthAdjust="spacing" textLength="85" x="2120" y="809.5098">green Space:</text><text fill="#000000" font-family="sans-serif" font-size="14" lengthAdjust="spacing" textLength="84" x="2120.5" y="828.1309">Green Space</text><line style="stroke:#181818;stroke-width:1.0;" x1="1714" x2="1756" y1="872.9355" y2="872.9355"/><line style="stroke:#181818;stroke-width:1.0;" x1="1756" x2="1756" y1="872.9355" y2="885.9355"/><line style="stroke:#181818;stroke-width:1.0;" x1="1715" x2="1756" y1="885.9355" y2="885.9355"/><polygon fill="#181818" points="1725,881.9355,1715,885.9355,1725,889.9355,1721,885.9355" style="stroke:#181818;stroke-width:1.0;"/><text fill="#000000" font-family="sans-serif" font-size="13" font-weight="bold" lengthAdjust="spacing" textLength="14" x="1721" y="867.6729">21</text><text fill="#000000" font-family="sans-serif" font-size="13" lengthAdjust="spacing" textLength="155" x="1739" y="867.6729">validateGreenSpace(name)</text><line style="stroke:#181818;stroke-width:1.0;" x1="1714" x2="1756" y1="917.2266" y2="917.2266"/><line style="stroke:#181818;stroke-width:1.0;" x1="1756" x2="1756" y1="917.2266" y2="930.2266"/><line style="stroke:#181818;stroke-width:1.0;" x1="1715" x2="1756" y1="930.2266" y2="930.2266"/><polygon fill="#181818" points="1725,926.2266,1715,930.2266,1725,934.2266,1721,930.2266" style="stroke:#181818;stroke-width:1.0;"/><text fill="#000000" font-family="sans-serif" font-size="13" font-weight="bold" lengthAdjust="spacing" textLength="14" x="1721" y="911.9639">22</text><text fill="#000000" font-family="sans-serif" font-size="13" lengthAdjust="spacing" textLength="133" x="1739" y="911.9639">addGreenSpace(name)</text><polygon fill="#181818" points="978.5,957.5176,968.5,961.5176,978.5,965.5176,974.5,961.5176" style="stroke:#181818;stroke-width:1.0;"/><line style="stroke:#181818;stroke-width:1.0;stroke-dasharray:2.0,2.0;" x1="972.5" x2="1708" y1="961.5176" y2="961.5176"/><text fill="#000000" font-family="sans-serif" font-size="13" font-weight="bold" lengthAdjust="spacing" textLength="14" x="984.5" y="956.2549">23</text><text fill="#000000" font-family="sans-serif" font-size="13" lengthAdjust="spacing" textLength="69" x="1002.5" y="956.2549">greenSpace</text><polygon fill="#181818" points="574.5,988.8086,564.5,992.8086,574.5,996.8086,570.5,992.8086" style="stroke:#181818;stroke-width:1.0;"/><line style="stroke:#181818;stroke-width:1.0;stroke-dasharray:2.0,2.0;" x1="568.5" x2="961.5" y1="992.8086" y2="992.8086"/><text fill="#000000" font-family="sans-serif" font-size="13" font-weight="bold" lengthAdjust="spacing" textLength="14" x="580.5" y="987.5459">24</text><text fill="#000000" font-family="sans-serif" font-size="13" lengthAdjust="spacing" textLength="69" x="598.5" y="987.5459">greenSpace</text><polygon fill="#181818" points="34.5,1020.0996,24.5,1024.0996,34.5,1028.0996,30.5,1024.0996" style="stroke:#181818;stroke-width:1.0;"/><line style="stroke:#181818;stroke-width:1.0;stroke-dasharray:2.0,2.0;" x1="28.5" x2="557.5" y1="1024.0996" y2="1024.0996"/><text fill="#000000" font-family="sans-serif" font-size="13" font-weight="bold" lengthAdjust="spacing" textLength="14" x="40.5" y="1018.8369">25</text><text fill="#000000" font-family="sans-serif" font-size="13" lengthAdjust="spacing" textLength="158" x="58.5" y="1018.8369">displays operation success</text><!--SRC=[fLLDRwCm4BtxLunwsQPA_W27IbMLZIgrgoX9RxrCOKAiWitQfjr8_V4xXX0W1bgf79BWpBptveE7VPEgG8Cvv5hf-61qJk1CISAU_oamViEKjkwO4HYA7QeqwmRO0oRwGweKzfXP4W9BfrMPlv8HujT19WHxhTsh_YSmTjh0rMhxT0LeWRy5OpWPomALWmsbqZeoAqEajanCpmy-xldXYx1xhPpHMKR6Xz_lDe-zXAjeGuMsaiabsOhwV73SIbyFA-wdc4x6Yme1reztktu6vKMcZqGjTFIYbi5XbRryMZzkbki-G7gkPtSiTARJ8nElWiEwTS6n65R348s6Xdc05IeerhjgxsgUpNBvPxk-kr_wuSbtT5IDJHZQWtxdXlFTd2S44UmEqeAFqefJRPcJ1NT0nny4fUNO0oDYPWYJ8x3cb1AGIWY6WCLj3OBsZRCqRrezP41Gz06rIkjrjK9uBtmIf_gHHv2I2_joFHDmkiw9rOP0v_877YTCXwzXUz03Wu6BQu2aBM4wFQ7l43NLL0sTGEoWLHsfU-cd4V5JhJzij-tW6h4ydLS2IncR0KyGLSBJ-bkITHOIT0ZN2dEQ0oQ98Mlv1qzy9aI7ZYVNcteDDiBd2VY6j-b4mwIUfxS8bVWBzPXbjQ2Un5YhlJGv-ZsTqdIAioDSzSGupWHsD5J__5pF779KxAXc9lhjzn-Bs_CgDu_jRtRbrZvuxuA56j_hxZOCM5wzt0_AigcpxDauyf1V1j5338jkereF3N8xW_WMLrELzs7ezQjhrLCbLGuU0bU07TL3i5FgHs0RlIVdxocUKjcyAIu3JkTUQRqnZU5FQMl00k-RHhdqYTwVdv-VOgJGdpqSO-teqtkQnMtxchgv-Hdh0BZ_Yk0TCybEG1UOiz44vWfYm-01vnVZqnD233IxSgpl88JJQrqpWaJQ8iEZ1LsGgUmHR1d7tAynFE-5tLVIzka_]--></g></svg>