<?xml version="1.0" encoding="us-ascii" standalone="no"?><svg xmlns="http://www.w3.org/2000/svg" xmlns:xlink="http://www.w3.org/1999/xlink" contentStyleType="text/css" height="712px" preserveAspectRatio="none" style="width:1564px;height:712px;background:#FFFFFF;" version="1.1" viewBox="0 0 1564 712" width="1564px" zoomAndPan="magnify"><defs/><g><rect fill="#FFFFFF" height="526.3262" style="stroke:#181818;stroke-width:1.0;" width="10" x="18.5" y="93.6211"/><rect fill="#FFFFFF" height="31.291" style="stroke:#181818;stroke-width:1.0;" width="10" x="426.5" y="165.1641"/><rect fill="#FFFFFF" height="31.291" style="stroke:#181818;stroke-width:1.0;" width="10" x="426.5" y="227.7461"/><rect fill="#FFFFFF" height="320.6191" style="stroke:#181818;stroke-width:1.0;" width="10" x="426.5" y="290.3281"/><rect fill="#FFFFFF" height="258.0371" style="stroke:#181818;stroke-width:1.0;" width="10" x="823.5" y="321.6191"/><rect fill="#FFFFFF" height="75.582" style="stroke:#181818;stroke-width:1.0;" width="10" x="1233.5" y="472.7832"/><rect fill="#FFFFFF" height="119.873" style="stroke:#181818;stroke-width:1.0;" width="10" x="1374.5" y="352.9102"/><line style="stroke:#181818;stroke-width:0.5;stroke-dasharray:5.0,5.0;" x1="23" x2="23" y1="83.6211" y2="628.9473"/><line style="stroke:#181818;stroke-width:0.5;stroke-dasharray:5.0,5.0;" x1="431" x2="431" y1="83.6211" y2="628.9473"/><line style="stroke:#181818;stroke-width:0.5;stroke-dasharray:5.0,5.0;" x1="828" x2="828" y1="83.6211" y2="628.9473"/><line style="stroke:#181818;stroke-width:0.5;stroke-dasharray:5.0,5.0;" x1="991" x2="991" y1="83.6211" y2="628.9473"/><line style="stroke:#181818;stroke-width:0.5;stroke-dasharray:5.0,5.0;" x1="1098" x2="1098" y1="83.6211" y2="628.9473"/><line style="stroke:#181818;stroke-width:0.5;stroke-dasharray:5.0,5.0;" x1="1238" x2="1238" y1="83.6211" y2="628.9473"/><line style="stroke:#181818;stroke-width:0.5;stroke-dasharray:5.0,5.0;" x1="1379" x2="1379" y1="83.6211" y2="628.9473"/><text fill="#000000" font-family="sans-serif" font-size="14" lengthAdjust="spacing" textLength="31" x="5" y="80.1074">GSM</text><ellipse cx="23.5" cy="13.5" fill="#E3E3E3" rx="8" ry="8" style="stroke:#181818;stroke-width:0.5;"/><path d="M23.5,21.5 L23.5,48.5 M10.5,29.5 L36.5,29.5 M23.5,48.5 L10.5,63.5 M23.5,48.5 L36.5,63.5 " fill="none" style="stroke:#181818;stroke-width:0.5;"/><text fill="#000000" font-family="sans-serif" font-size="14" lengthAdjust="spacing" textLength="31" x="5" y="643.0547">GSM</text><ellipse cx="23.5" cy="655.0684" fill="#E3E3E3" rx="8" ry="8" style="stroke:#181818;stroke-width:0.5;"/><path d="M23.5,663.0684 L23.5,690.0684 M10.5,671.0684 L36.5,671.0684 M23.5,690.0684 L10.5,705.0684 M23.5,690.0684 L36.5,705.0684 " fill="none" style="stroke:#181818;stroke-width:0.5;"/><rect fill="#E3E3E3" height="32.6211" rx="2.5" ry="2.5" style="stroke:#181818;stroke-width:0.5;" width="159" x="352" y="50"/><text fill="#000000" font-family="sans-serif" font-size="14" lengthAdjust="spacing" textLength="145" x="359" y="72.1074">RegisterGreenSpaceUI</text><rect fill="#E3E3E3" height="32.6211" rx="2.5" ry="2.5" style="stroke:#181818;stroke-width:0.5;" width="159" x="352" y="627.9473"/><text fill="#000000" font-family="sans-serif" font-size="14" lengthAdjust="spacing" textLength="145" x="359" y="650.0547">RegisterGreenSpaceUI</text><rect fill="#E3E3E3" height="32.6211" rx="2.5" ry="2.5" style="stroke:#181818;stroke-width:0.5;" width="209" x="724" y="50"/><text fill="#000000" font-family="sans-serif" font-size="14" lengthAdjust="spacing" textLength="195" x="731" y="72.1074">RegisterGreenSpaceController</text><rect fill="#E3E3E3" height="32.6211" rx="2.5" ry="2.5" style="stroke:#181818;stroke-width:0.5;" width="209" x="724" y="627.9473"/><text fill="#000000" font-family="sans-serif" font-size="14" lengthAdjust="spacing" textLength="195" x="731" y="650.0547">RegisterGreenSpaceController</text><rect fill="#E3E3E3" height="32.6211" rx="2.5" ry="2.5" style="stroke:#181818;stroke-width:0.5;" width="97" x="943" y="50"/><text fill="#000000" font-family="sans-serif" font-size="14" lengthAdjust="spacing" textLength="83" x="950" y="72.1074">:Repositories</text><rect fill="#E3E3E3" height="32.6211" rx="2.5" ry="2.5" style="stroke:#181818;stroke-width:0.5;" width="97" x="943" y="627.9473"/><text fill="#000000" font-family="sans-serif" font-size="14" lengthAdjust="spacing" textLength="83" x="950" y="650.0547">:Repositories</text><rect fill="#E3E3E3" height="51.2422" rx="2.5" ry="2.5" style="stroke:#181818;stroke-width:0.5;" width="97" x="1050" y="31.3789"/><text fill="#000000" font-family="sans-serif" font-size="14" lengthAdjust="spacing" textLength="74" x="1061.5" y="53.4863">repositories</text><text fill="#000000" font-family="sans-serif" font-size="14" lengthAdjust="spacing" textLength="83" x="1057" y="72.1074">:Repositories</text><rect fill="#E3E3E3" height="51.2422" rx="2.5" ry="2.5" style="stroke:#181818;stroke-width:0.5;" width="97" x="1050" y="627.9473"/><text fill="#000000" font-family="sans-serif" font-size="14" lengthAdjust="spacing" textLength="74" x="1061.5" y="650.0547">repositories</text><text fill="#000000" font-family="sans-serif" font-size="14" lengthAdjust="spacing" textLength="83" x="1057" y="668.6758">:Repositories</text><rect fill="#E3E3E3" height="51.2422" rx="2.5" ry="2.5" style="stroke:#181818;stroke-width:0.5;" width="163" x="1157" y="31.3789"/><text fill="#000000" font-family="sans-serif" font-size="14" lengthAdjust="spacing" textLength="149" x="1164" y="53.4863">greenSpaceRepository:</text><text fill="#000000" font-family="sans-serif" font-size="14" lengthAdjust="spacing" textLength="148" x="1164.5" y="72.1074">GreenSpaceRepository</text><rect fill="#E3E3E3" height="51.2422" rx="2.5" ry="2.5" style="stroke:#181818;stroke-width:0.5;" width="163" x="1157" y="627.9473"/><text fill="#000000" font-family="sans-serif" font-size="14" lengthAdjust="spacing" textLength="149" x="1164" y="650.0547">greenSpaceRepository:</text><text fill="#000000" font-family="sans-serif" font-size="14" lengthAdjust="spacing" textLength="148" x="1164.5" y="668.6758">GreenSpaceRepository</text><rect fill="#E3E3E3" height="51.2422" rx="2.5" ry="2.5" style="stroke:#181818;stroke-width:0.5;" width="99" x="1330" y="31.3789"/><text fill="#000000" font-family="sans-serif" font-size="14" lengthAdjust="spacing" textLength="85" x="1337" y="53.4863">green Space:</text><text fill="#000000" font-family="sans-serif" font-size="14" lengthAdjust="spacing" textLength="84" x="1337.5" y="72.1074">Green Space</text><rect fill="#E3E3E3" height="51.2422" rx="2.5" ry="2.5" style="stroke:#181818;stroke-width:0.5;" width="99" x="1330" y="627.9473"/><text fill="#000000" font-family="sans-serif" font-size="14" lengthAdjust="spacing" textLength="85" x="1337" y="650.0547">green Space:</text><text fill="#000000" font-family="sans-serif" font-size="14" lengthAdjust="spacing" textLength="84" x="1337.5" y="668.6758">Green Space</text><rect fill="#FFFFFF" height="526.3262" style="stroke:#181818;stroke-width:1.0;" width="10" x="18.5" y="93.6211"/><rect fill="#FFFFFF" height="31.291" style="stroke:#181818;stroke-width:1.0;" width="10" x="426.5" y="165.1641"/><rect fill="#FFFFFF" height="31.291" style="stroke:#181818;stroke-width:1.0;" width="10" x="426.5" y="227.7461"/><rect fill="#FFFFFF" height="320.6191" style="stroke:#181818;stroke-width:1.0;" width="10" x="426.5" y="290.3281"/><rect fill="#FFFFFF" height="258.0371" style="stroke:#181818;stroke-width:1.0;" width="10" x="823.5" y="321.6191"/><rect fill="#FFFFFF" height="75.582" style="stroke:#181818;stroke-width:1.0;" width="10" x="1233.5" y="472.7832"/><rect fill="#FFFFFF" height="119.873" style="stroke:#181818;stroke-width:1.0;" width="10" x="1374.5" y="352.9102"/><rect fill="none" height="43.252" style="stroke:#000000;stroke-width:1.5;" width="512" x="2" y="93.6211"/><path d="M2,93.6211 L64,93.6211 L64,102.6211 L54,112.6211 L2,112.6211 L2,93.6211 " fill="#EEEEEE" style="stroke:#000000;stroke-width:2.0;"/><text fill="#000000" font-family="sans-serif" font-size="13" font-weight="bold" lengthAdjust="spacing" textLength="17" x="15" y="109.6494">ref</text><text fill="#000000" font-family="sans-serif" font-size="12" lengthAdjust="spacing" textLength="308" x="104" y="129.5703">This action assumes that the user has already logged in</text><polygon fill="#181818" points="414.5,161.1641,424.5,165.1641,414.5,169.1641,418.5,165.1641" style="stroke:#181818;stroke-width:1.0;"/><line style="stroke:#181818;stroke-width:1.0;" x1="28.5" x2="420.5" y1="165.1641" y2="165.1641"/><text fill="#000000" font-family="sans-serif" font-size="13" font-weight="bold" lengthAdjust="spacing" textLength="7" x="35.5" y="159.9014">1</text><text fill="#000000" font-family="sans-serif" font-size="13" lengthAdjust="spacing" textLength="203" x="46.5" y="159.9014">asks to register a new green space</text><polygon fill="#181818" points="39.5,192.4551,29.5,196.4551,39.5,200.4551,35.5,196.4551" style="stroke:#181818;stroke-width:1.0;"/><line style="stroke:#181818;stroke-width:1.0;" x1="33.5" x2="430.5" y1="196.4551" y2="196.4551"/><text fill="#000000" font-family="sans-serif" font-size="13" font-weight="bold" lengthAdjust="spacing" textLength="7" x="45.5" y="191.1924">2</text><text fill="#000000" font-family="sans-serif" font-size="13" lengthAdjust="spacing" textLength="115" x="56.5" y="191.1924">requests typed data</text><polygon fill="#181818" points="414.5,223.7461,424.5,227.7461,414.5,231.7461,418.5,227.7461" style="stroke:#181818;stroke-width:1.0;"/><line style="stroke:#181818;stroke-width:1.0;" x1="28.5" x2="420.5" y1="227.7461" y2="227.7461"/><text fill="#000000" font-family="sans-serif" font-size="13" font-weight="bold" lengthAdjust="spacing" textLength="7" x="35.5" y="222.4834">3</text><text fill="#000000" font-family="sans-serif" font-size="13" lengthAdjust="spacing" textLength="368" x="46.5" y="222.4834">types requested data (name, address, area, typology, manager)</text><polygon fill="#181818" points="39.5,255.0371,29.5,259.0371,39.5,263.0371,35.5,259.0371" style="stroke:#181818;stroke-width:1.0;"/><line style="stroke:#181818;stroke-width:1.0;stroke-dasharray:2.0,2.0;" x1="33.5" x2="430.5" y1="259.0371" y2="259.0371"/><text fill="#000000" font-family="sans-serif" font-size="13" font-weight="bold" lengthAdjust="spacing" textLength="7" x="45.5" y="253.7744">4</text><text fill="#000000" font-family="sans-serif" font-size="13" lengthAdjust="spacing" textLength="236" x="56.5" y="253.7744">shows all data and requests confirmation</text><polygon fill="#181818" points="414.5,286.3281,424.5,290.3281,414.5,294.3281,418.5,290.3281" style="stroke:#181818;stroke-width:1.0;"/><line style="stroke:#181818;stroke-width:1.0;" x1="28.5" x2="420.5" y1="290.3281" y2="290.3281"/><text fill="#000000" font-family="sans-serif" font-size="13" font-weight="bold" lengthAdjust="spacing" textLength="7" x="35.5" y="285.0654">5</text><text fill="#000000" font-family="sans-serif" font-size="13" lengthAdjust="spacing" textLength="78" x="46.5" y="285.0654">confirms data</text><polygon fill="#181818" points="811.5,317.6191,821.5,321.6191,811.5,325.6191,815.5,321.6191" style="stroke:#181818;stroke-width:1.0;"/><line style="stroke:#181818;stroke-width:1.0;" x1="436.5" x2="817.5" y1="321.6191" y2="321.6191"/><text fill="#000000" font-family="sans-serif" font-size="13" font-weight="bold" lengthAdjust="spacing" textLength="7" x="443.5" y="316.3564">6</text><text fill="#000000" font-family="sans-serif" font-size="13" lengthAdjust="spacing" textLength="357" x="454.5" y="316.3564">registerGreenSpace(name, address, area, typology, manager)</text><polygon fill="#181818" points="1362.5,348.9102,1372.5,352.9102,1362.5,356.9102,1366.5,352.9102" style="stroke:#181818;stroke-width:1.0;"/><line style="stroke:#181818;stroke-width:1.0;" x1="833.5" x2="1368.5" y1="352.9102" y2="352.9102"/><text fill="#000000" font-family="sans-serif" font-size="13" font-weight="bold" lengthAdjust="spacing" textLength="7" x="840.5" y="347.6475">7</text><text fill="#000000" font-family="sans-serif" font-size="13" lengthAdjust="spacing" textLength="357" x="851.5" y="347.6475">registerGreenSpace(name, address, area, typology, manager)</text><line style="stroke:#181818;stroke-width:1.0;" x1="1384.5" x2="1426.5" y1="384.2012" y2="384.2012"/><line style="stroke:#181818;stroke-width:1.0;" x1="1426.5" x2="1426.5" y1="384.2012" y2="397.2012"/><line style="stroke:#181818;stroke-width:1.0;" x1="1385.5" x2="1426.5" y1="397.2012" y2="397.2012"/><polygon fill="#181818" points="1395.5,393.2012,1385.5,397.2012,1395.5,401.2012,1391.5,397.2012" style="stroke:#181818;stroke-width:1.0;"/><text fill="#000000" font-family="sans-serif" font-size="13" font-weight="bold" lengthAdjust="spacing" textLength="7" x="1391.5" y="378.9385">8</text><text fill="#000000" font-family="sans-serif" font-size="13" lengthAdjust="spacing" textLength="155" x="1402.5" y="378.9385">validateGreenSpace(name)</text><line style="stroke:#181818;stroke-width:1.0;" x1="1384.5" x2="1426.5" y1="428.4922" y2="428.4922"/><line style="stroke:#181818;stroke-width:1.0;" x1="1426.5" x2="1426.5" y1="428.4922" y2="441.4922"/><line style="stroke:#181818;stroke-width:1.0;" x1="1385.5" x2="1426.5" y1="441.4922" y2="441.4922"/><polygon fill="#181818" points="1395.5,437.4922,1385.5,441.4922,1395.5,445.4922,1391.5,441.4922" style="stroke:#181818;stroke-width:1.0;"/><text fill="#000000" font-family="sans-serif" font-size="13" font-weight="bold" lengthAdjust="spacing" textLength="7" x="1391.5" y="423.2295">9</text><text fill="#000000" font-family="sans-serif" font-size="13" lengthAdjust="spacing" textLength="115" x="1402.5" y="423.2295">registerGreenSpace</text><polygon fill="#181818" points="1254.5,468.7832,1244.5,472.7832,1254.5,476.7832,1250.5,472.7832" style="stroke:#181818;stroke-width:1.0;"/><line style="stroke:#181818;stroke-width:1.0;" x1="1248.5" x2="1378.5" y1="472.7832" y2="472.7832"/><text fill="#000000" font-family="sans-serif" font-size="13" font-weight="bold" lengthAdjust="spacing" textLength="14" x="1260.5" y="467.5205">10</text><text fill="#000000" font-family="sans-serif" font-size="13" lengthAdjust="spacing" textLength="69" x="1278.5" y="467.5205">greenSpace</text><line style="stroke:#181818;stroke-width:1.0;" x1="1243.5" x2="1285.5" y1="504.0742" y2="504.0742"/><line style="stroke:#181818;stroke-width:1.0;" x1="1285.5" x2="1285.5" y1="504.0742" y2="517.0742"/><line style="stroke:#181818;stroke-width:1.0;" x1="1244.5" x2="1285.5" y1="517.0742" y2="517.0742"/><polygon fill="#181818" points="1254.5,513.0742,1244.5,517.0742,1254.5,521.0742,1250.5,517.0742" style="stroke:#181818;stroke-width:1.0;"/><text fill="#000000" font-family="sans-serif" font-size="13" font-weight="bold" lengthAdjust="spacing" textLength="14" x="1250.5" y="498.8115">11</text><text fill="#000000" font-family="sans-serif" font-size="13" lengthAdjust="spacing" textLength="98" x="1268.5" y="498.8115">add(greenSpace)</text><polygon fill="#181818" points="844.5,544.3652,834.5,548.3652,844.5,552.3652,840.5,548.3652" style="stroke:#181818;stroke-width:1.0;"/><line style="stroke:#181818;stroke-width:1.0;" x1="838.5" x2="1237.5" y1="548.3652" y2="548.3652"/><text fill="#000000" font-family="sans-serif" font-size="13" font-weight="bold" lengthAdjust="spacing" textLength="14" x="850.5" y="543.1025">12</text><text fill="#000000" font-family="sans-serif" font-size="13" lengthAdjust="spacing" textLength="69" x="868.5" y="543.1025">greenSpace</text><polygon fill="#181818" points="447.5,575.6563,437.5,579.6563,447.5,583.6563,443.5,579.6563" style="stroke:#181818;stroke-width:1.0;"/><line style="stroke:#181818;stroke-width:1.0;" x1="441.5" x2="827.5" y1="579.6563" y2="579.6563"/><text fill="#000000" font-family="sans-serif" font-size="13" font-weight="bold" lengthAdjust="spacing" textLength="14" x="453.5" y="574.3936">13</text><text fill="#000000" font-family="sans-serif" font-size="13" lengthAdjust="spacing" textLength="69" x="471.5" y="574.3936">greenSpace</text><polygon fill="#181818" points="39.5,606.9473,29.5,610.9473,39.5,614.9473,35.5,610.9473" style="stroke:#181818;stroke-width:1.0;"/><line style="stroke:#181818;stroke-width:1.0;" x1="33.5" x2="430.5" y1="610.9473" y2="610.9473"/><text fill="#000000" font-family="sans-serif" font-size="13" font-weight="bold" lengthAdjust="spacing" textLength="14" x="45.5" y="605.6846">14</text><text fill="#000000" font-family="sans-serif" font-size="13" lengthAdjust="spacing" textLength="106" x="63.5" y="605.6846">operation success</text><!--SRC=[hLFBRk904BpFLxIu94Zi3t1OAK88HSf64IQtN3fsOu-mPxpJOrZ__VROO0mCYLRQYvzLrTNTDRpJfaQ75LJMsBHmjYBmhY75mvyQqntcbFYs972KUZHvEGPmWPazQ9F35aicfR3nrZJL9pcb7WgT4MojzP_sZyBKMmUJLV9h0iWWToKQNgUwHkDXJRbcJsxbY4mYXUdzEU3Udx-1BQpnpfObkG1VRDOl5uJ9V4srPIt5DN5NUlZG9Zhq8uulAMx4-32t0cylJvjBHZxOEOlFFymgyhdlFl8ZeWWTv2JKl_NyzNBvchmzBPPXhdgFdhg9AaTRi7kPXRpDP7WmXqsX6GBA6g5oKn63Bz3BXQ1XmHQYYAKZp5eeRPvJ1jee9HBmusSlWhmJbfKGzFC714C7w5roy7Ks8YjJGX9gK9WBvtT3x8NVrYATeKULqGLyN2gW-4Gwuk7HO4Kpm2npn2mFudOMe5OCjpEeq4XGtVJMnM232ti8VPQz8fhix2orPgjTXM58NtaxuhXl8j9no5_NydLC_xs1Bigg4mmz31l_J_AZ2AcH-7MfFPPQcgMhKjElEBVsRaf4yY_4yp4QBo4QzjW1YghUhoR3UZnNdDwb7tTwnrpCo6bfNMRYl6wxurDYQt9T_e2RD9KbNkNmBm00]--></g></svg>