<?xml version="1.0" encoding="us-ascii" standalone="no"?><svg xmlns="http://www.w3.org/2000/svg" xmlns:xlink="http://www.w3.org/1999/xlink" contentStyleType="text/css" height="1000px" preserveAspectRatio="none" style="width:1911px;height:1000px;background:#FFFFFF;" version="1.1" viewBox="0 0 1911 1000" width="1911px" zoomAndPan="magnify"><defs/><g><rect fill="#FFFFFF" height="805.3145" style="stroke:#181818;stroke-width:1.0;" width="10" x="18.5" y="93.6211"/><rect fill="#FFFFFF" height="31.291" style="stroke:#181818;stroke-width:1.0;" width="10" x="426.5" y="165.1641"/><rect fill="#FFFFFF" height="31.291" style="stroke:#181818;stroke-width:1.0;" width="10" x="426.5" y="227.7461"/><rect fill="#FFFFFF" height="608.6074" style="stroke:#181818;stroke-width:1.0;" width="10" x="426.5" y="290.3281"/><rect fill="#FFFFFF" height="546.0254" style="stroke:#181818;stroke-width:1.0;" width="10" x="823.5" y="321.6191"/><rect fill="#FFFFFF" height="230.0371" style="stroke:#181818;stroke-width:1.0;" width="10" x="828.5" y="360.9102"/><rect fill="#FFFFFF" height="31.291" style="stroke:#181818;stroke-width:1.0;" width="10" x="1034.5" y="397.2012"/><rect fill="#FFFFFF" height="31.291" style="stroke:#181818;stroke-width:1.0;" width="10" x="1141.5" y="459.7832"/><rect fill="#FFFFFF" height="31.291" style="stroke:#181818;stroke-width:1.0;" width="10" x="1273.5" y="522.3652"/><rect fill="#FFFFFF" height="182.1152" style="stroke:#181818;stroke-width:1.0;" width="10" x="1397" y="654.2383"/><line style="stroke:#181818;stroke-width:0.5;stroke-dasharray:5.0,5.0;" x1="23" x2="23" y1="83.6211" y2="916.9355"/><line style="stroke:#181818;stroke-width:0.5;stroke-dasharray:5.0,5.0;" x1="431" x2="431" y1="83.6211" y2="916.9355"/><line style="stroke:#181818;stroke-width:0.5;stroke-dasharray:5.0,5.0;" x1="828" x2="828" y1="83.6211" y2="916.9355"/><line style="stroke:#181818;stroke-width:0.5;stroke-dasharray:5.0,5.0;" x1="1039" x2="1039" y1="83.6211" y2="916.9355"/><line style="stroke:#181818;stroke-width:0.5;stroke-dasharray:5.0,5.0;" x1="1146" x2="1146" y1="83.6211" y2="916.9355"/><line style="stroke:#181818;stroke-width:0.5;stroke-dasharray:5.0,5.0;" x1="1278" x2="1278" y1="83.6211" y2="916.9355"/><line style="stroke:#181818;stroke-width:0.5;stroke-dasharray:5.0,5.0;" x1="1402" x2="1402" y1="83.6211" y2="916.9355"/><line style="stroke:#181818;stroke-width:0.5;stroke-dasharray:5.0,5.0;" x1="1855" x2="1855" y1="703.3594" y2="916.9355"/><text fill="#000000" font-family="sans-serif" font-size="14" lengthAdjust="spacing" textLength="31" x="5" y="80.1074">GSM</text><ellipse cx="23.5" cy="13.5" fill="#E3E3E3" rx="8" ry="8" style="stroke:#181818;stroke-width:0.5;"/><path d="M23.5,21.5 L23.5,48.5 M10.5,29.5 L36.5,29.5 M23.5,48.5 L10.5,63.5 M23.5,48.5 L36.5,63.5 " fill="none" style="stroke:#181818;stroke-width:0.5;"/><text fill="#000000" font-family="sans-serif" font-size="14" lengthAdjust="spacing" textLength="31" x="5" y="931.043">GSM</text><ellipse cx="23.5" cy="943.0566" fill="#E3E3E3" rx="8" ry="8" style="stroke:#181818;stroke-width:0.5;"/><path d="M23.5,951.0566 L23.5,978.0566 M10.5,959.0566 L36.5,959.0566 M23.5,978.0566 L10.5,993.0566 M23.5,978.0566 L36.5,993.0566 " fill="none" style="stroke:#181818;stroke-width:0.5;"/><rect fill="#E3E3E3" height="32.6211" rx="2.5" ry="2.5" style="stroke:#181818;stroke-width:0.5;" width="159" x="352" y="50"/><text fill="#000000" font-family="sans-serif" font-size="14" lengthAdjust="spacing" textLength="145" x="359" y="72.1074">RegisterGreenSpaceUI</text><rect fill="#E3E3E3" height="32.6211" rx="2.5" ry="2.5" style="stroke:#181818;stroke-width:0.5;" width="159" x="352" y="915.9355"/><text fill="#000000" font-family="sans-serif" font-size="14" lengthAdjust="spacing" textLength="145" x="359" y="938.043">RegisterGreenSpaceUI</text><rect fill="#E3E3E3" height="32.6211" rx="2.5" ry="2.5" style="stroke:#181818;stroke-width:0.5;" width="209" x="724" y="50"/><text fill="#000000" font-family="sans-serif" font-size="14" lengthAdjust="spacing" textLength="195" x="731" y="72.1074">RegisterGreenSpaceController</text><rect fill="#E3E3E3" height="32.6211" rx="2.5" ry="2.5" style="stroke:#181818;stroke-width:0.5;" width="209" x="724" y="915.9355"/><text fill="#000000" font-family="sans-serif" font-size="14" lengthAdjust="spacing" textLength="195" x="731" y="938.043">RegisterGreenSpaceController</text><rect fill="#E3E3E3" height="32.6211" rx="2.5" ry="2.5" style="stroke:#181818;stroke-width:0.5;" width="97" x="991" y="50"/><text fill="#000000" font-family="sans-serif" font-size="14" lengthAdjust="spacing" textLength="83" x="998" y="72.1074">:Repositories</text><rect fill="#E3E3E3" height="32.6211" rx="2.5" ry="2.5" style="stroke:#181818;stroke-width:0.5;" width="97" x="991" y="915.9355"/><text fill="#000000" font-family="sans-serif" font-size="14" lengthAdjust="spacing" textLength="83" x="998" y="938.043">:Repositories</text><rect fill="#E3E3E3" height="51.2422" rx="2.5" ry="2.5" style="stroke:#181818;stroke-width:0.5;" width="97" x="1098" y="31.3789"/><text fill="#000000" font-family="sans-serif" font-size="14" lengthAdjust="spacing" textLength="74" x="1109.5" y="53.4863">repositories</text><text fill="#000000" font-family="sans-serif" font-size="14" lengthAdjust="spacing" textLength="83" x="1105" y="72.1074">:Repositories</text><rect fill="#E3E3E3" height="51.2422" rx="2.5" ry="2.5" style="stroke:#181818;stroke-width:0.5;" width="97" x="1098" y="915.9355"/><text fill="#000000" font-family="sans-serif" font-size="14" lengthAdjust="spacing" textLength="74" x="1109.5" y="938.043">repositories</text><text fill="#000000" font-family="sans-serif" font-size="14" lengthAdjust="spacing" textLength="83" x="1105" y="956.6641">:Repositories</text><rect fill="#E3E3E3" height="51.2422" rx="2.5" ry="2.5" style="stroke:#181818;stroke-width:0.5;" width="147" x="1205" y="31.3789"/><text fill="#000000" font-family="sans-serif" font-size="14" lengthAdjust="spacing" textLength="133" x="1212" y="53.4863">employeeRepository:</text><text fill="#000000" font-family="sans-serif" font-size="14" lengthAdjust="spacing" textLength="130" x="1213.5" y="72.1074">EmployeeRepository</text><rect fill="#E3E3E3" height="51.2422" rx="2.5" ry="2.5" style="stroke:#181818;stroke-width:0.5;" width="147" x="1205" y="915.9355"/><text fill="#000000" font-family="sans-serif" font-size="14" lengthAdjust="spacing" textLength="133" x="1212" y="938.043">employeeRepository:</text><text fill="#000000" font-family="sans-serif" font-size="14" lengthAdjust="spacing" textLength="130" x="1213.5" y="956.6641">EmployeeRepository</text><rect fill="#E3E3E3" height="51.2422" rx="2.5" ry="2.5" style="stroke:#181818;stroke-width:0.5;" width="80" x="1362" y="31.3789"/><text fill="#000000" font-family="sans-serif" font-size="14" lengthAdjust="spacing" textLength="61" x="1371.5" y="53.4863">employee</text><text fill="#000000" font-family="sans-serif" font-size="14" lengthAdjust="spacing" textLength="66" x="1369" y="72.1074">:Employee</text><rect fill="#E3E3E3" height="51.2422" rx="2.5" ry="2.5" style="stroke:#181818;stroke-width:0.5;" width="80" x="1362" y="915.9355"/><text fill="#000000" font-family="sans-serif" font-size="14" lengthAdjust="spacing" textLength="61" x="1371.5" y="938.043">employee</text><text fill="#000000" font-family="sans-serif" font-size="14" lengthAdjust="spacing" textLength="66" x="1369" y="956.6641">:Employee</text><rect fill="#E3E3E3" height="51.2422" rx="2.5" ry="2.5" style="stroke:#181818;stroke-width:0.5;" width="99" x="1806" y="915.9355"/><text fill="#000000" font-family="sans-serif" font-size="14" lengthAdjust="spacing" textLength="85" x="1813" y="938.043">green Space:</text><text fill="#000000" font-family="sans-serif" font-size="14" lengthAdjust="spacing" textLength="84" x="1813.5" y="956.6641">Green Space</text><rect fill="#FFFFFF" height="805.3145" style="stroke:#181818;stroke-width:1.0;" width="10" x="18.5" y="93.6211"/><rect fill="#FFFFFF" height="31.291" style="stroke:#181818;stroke-width:1.0;" width="10" x="426.5" y="165.1641"/><rect fill="#FFFFFF" height="31.291" style="stroke:#181818;stroke-width:1.0;" width="10" x="426.5" y="227.7461"/><rect fill="#FFFFFF" height="608.6074" style="stroke:#181818;stroke-width:1.0;" width="10" x="426.5" y="290.3281"/><rect fill="#FFFFFF" height="546.0254" style="stroke:#181818;stroke-width:1.0;" width="10" x="823.5" y="321.6191"/><rect fill="#FFFFFF" height="230.0371" style="stroke:#181818;stroke-width:1.0;" width="10" x="828.5" y="360.9102"/><rect fill="#FFFFFF" height="31.291" style="stroke:#181818;stroke-width:1.0;" width="10" x="1034.5" y="397.2012"/><rect fill="#FFFFFF" height="31.291" style="stroke:#181818;stroke-width:1.0;" width="10" x="1141.5" y="459.7832"/><rect fill="#FFFFFF" height="31.291" style="stroke:#181818;stroke-width:1.0;" width="10" x="1273.5" y="522.3652"/><rect fill="#FFFFFF" height="182.1152" style="stroke:#181818;stroke-width:1.0;" width="10" x="1397" y="654.2383"/><rect fill="none" height="43.252" style="stroke:#000000;stroke-width:1.5;" width="512" x="2" y="93.6211"/><path d="M2,93.6211 L64,93.6211 L64,102.6211 L54,112.6211 L2,112.6211 L2,93.6211 " fill="#EEEEEE" style="stroke:#000000;stroke-width:2.0;"/><text fill="#000000" font-family="sans-serif" font-size="13" font-weight="bold" lengthAdjust="spacing" textLength="17" x="15" y="109.6494">ref</text><text fill="#000000" font-family="sans-serif" font-size="12" lengthAdjust="spacing" textLength="308" x="104" y="129.5703">This action assumes that the user has already logged in</text><polygon fill="#181818" points="414.5,161.1641,424.5,165.1641,414.5,169.1641,418.5,165.1641" style="stroke:#181818;stroke-width:1.0;"/><line style="stroke:#181818;stroke-width:1.0;" x1="28.5" x2="420.5" y1="165.1641" y2="165.1641"/><text fill="#000000" font-family="sans-serif" font-size="13" font-weight="bold" lengthAdjust="spacing" textLength="7" x="35.5" y="159.9014">1</text><text fill="#000000" font-family="sans-serif" font-size="13" lengthAdjust="spacing" textLength="203" x="46.5" y="159.9014">asks to register a new green space</text><polygon fill="#181818" points="39.5,192.4551,29.5,196.4551,39.5,200.4551,35.5,196.4551" style="stroke:#181818;stroke-width:1.0;"/><line style="stroke:#181818;stroke-width:1.0;" x1="33.5" x2="430.5" y1="196.4551" y2="196.4551"/><text fill="#000000" font-family="sans-serif" font-size="13" font-weight="bold" lengthAdjust="spacing" textLength="7" x="45.5" y="191.1924">2</text><text fill="#000000" font-family="sans-serif" font-size="13" lengthAdjust="spacing" textLength="115" x="56.5" y="191.1924">requests typed data</text><polygon fill="#181818" points="414.5,223.7461,424.5,227.7461,414.5,231.7461,418.5,227.7461" style="stroke:#181818;stroke-width:1.0;"/><line style="stroke:#181818;stroke-width:1.0;" x1="28.5" x2="420.5" y1="227.7461" y2="227.7461"/><text fill="#000000" font-family="sans-serif" font-size="13" font-weight="bold" lengthAdjust="spacing" textLength="7" x="35.5" y="222.4834">3</text><text fill="#000000" font-family="sans-serif" font-size="13" lengthAdjust="spacing" textLength="368" x="46.5" y="222.4834">types requested data (name, address, area, typology, manager)</text><polygon fill="#181818" points="39.5,255.0371,29.5,259.0371,39.5,263.0371,35.5,259.0371" style="stroke:#181818;stroke-width:1.0;"/><line style="stroke:#181818;stroke-width:1.0;stroke-dasharray:2.0,2.0;" x1="33.5" x2="430.5" y1="259.0371" y2="259.0371"/><text fill="#000000" font-family="sans-serif" font-size="13" font-weight="bold" lengthAdjust="spacing" textLength="7" x="45.5" y="253.7744">4</text><text fill="#000000" font-family="sans-serif" font-size="13" lengthAdjust="spacing" textLength="236" x="56.5" y="253.7744">shows all data and requests confirmation</text><polygon fill="#181818" points="414.5,286.3281,424.5,290.3281,414.5,294.3281,418.5,290.3281" style="stroke:#181818;stroke-width:1.0;"/><line style="stroke:#181818;stroke-width:1.0;" x1="28.5" x2="420.5" y1="290.3281" y2="290.3281"/><text fill="#000000" font-family="sans-serif" font-size="13" font-weight="bold" lengthAdjust="spacing" textLength="7" x="35.5" y="285.0654">5</text><text fill="#000000" font-family="sans-serif" font-size="13" lengthAdjust="spacing" textLength="78" x="46.5" y="285.0654">confirms data</text><polygon fill="#181818" points="811.5,317.6191,821.5,321.6191,811.5,325.6191,815.5,321.6191" style="stroke:#181818;stroke-width:1.0;"/><line style="stroke:#181818;stroke-width:1.0;" x1="436.5" x2="817.5" y1="321.6191" y2="321.6191"/><text fill="#000000" font-family="sans-serif" font-size="13" font-weight="bold" lengthAdjust="spacing" textLength="7" x="443.5" y="316.3564">6</text><text fill="#000000" font-family="sans-serif" font-size="13" lengthAdjust="spacing" textLength="357" x="454.5" y="316.3564">registerGreenSpace(name, address, area, typology, manager)</text><line style="stroke:#181818;stroke-width:1.0;" x1="833.5" x2="880.5" y1="347.9102" y2="347.9102"/><line style="stroke:#181818;stroke-width:1.0;" x1="880.5" x2="880.5" y1="347.9102" y2="360.9102"/><line style="stroke:#181818;stroke-width:1.0;" x1="839.5" x2="880.5" y1="360.9102" y2="360.9102"/><polygon fill="#181818" points="849.5,356.9102,839.5,360.9102,849.5,364.9102,845.5,360.9102" style="stroke:#181818;stroke-width:1.0;"/><text fill="#000000" font-family="sans-serif" font-size="13" font-weight="bold" lengthAdjust="spacing" textLength="7" x="845.5" y="342.6475">7</text><text fill="#000000" font-family="sans-serif" font-size="13" lengthAdjust="spacing" textLength="176" x="856.5" y="342.6475">getEmployeeFromRepository()</text><polygon fill="#181818" points="1022.5,393.2012,1032.5,397.2012,1022.5,401.2012,1026.5,397.2012" style="stroke:#181818;stroke-width:1.0;"/><line style="stroke:#181818;stroke-width:1.0;" x1="838.5" x2="1028.5" y1="397.2012" y2="397.2012"/><text fill="#000000" font-family="sans-serif" font-size="13" font-weight="bold" lengthAdjust="spacing" textLength="7" x="845.5" y="391.9385">8</text><text fill="#000000" font-family="sans-serif" font-size="13" lengthAdjust="spacing" textLength="75" x="856.5" y="391.9385">getInstance()</text><polygon fill="#181818" points="849.5,424.4922,839.5,428.4922,849.5,432.4922,845.5,428.4922" style="stroke:#181818;stroke-width:1.0;"/><line style="stroke:#181818;stroke-width:1.0;stroke-dasharray:2.0,2.0;" x1="843.5" x2="1038.5" y1="428.4922" y2="428.4922"/><text fill="#000000" font-family="sans-serif" font-size="13" font-weight="bold" lengthAdjust="spacing" textLength="7" x="855.5" y="423.2295">9</text><text fill="#000000" font-family="sans-serif" font-size="13" lengthAdjust="spacing" textLength="67" x="866.5" y="423.2295">repositories</text><polygon fill="#181818" points="1129.5,455.7832,1139.5,459.7832,1129.5,463.7832,1133.5,459.7832" style="stroke:#181818;stroke-width:1.0;"/><line style="stroke:#181818;stroke-width:1.0;" x1="838.5" x2="1135.5" y1="459.7832" y2="459.7832"/><text fill="#000000" font-family="sans-serif" font-size="13" font-weight="bold" lengthAdjust="spacing" textLength="14" x="845.5" y="454.5205">10</text><text fill="#000000" font-family="sans-serif" font-size="13" lengthAdjust="spacing" textLength="156" x="863.5" y="454.5205">getEmployeeRepositories()</text><polygon fill="#181818" points="849.5,487.0742,839.5,491.0742,849.5,495.0742,845.5,491.0742" style="stroke:#181818;stroke-width:1.0;"/><line style="stroke:#181818;stroke-width:1.0;stroke-dasharray:2.0,2.0;" x1="843.5" x2="1145.5" y1="491.0742" y2="491.0742"/><text fill="#000000" font-family="sans-serif" font-size="13" font-weight="bold" lengthAdjust="spacing" textLength="14" x="855.5" y="485.8115">11</text><text fill="#000000" font-family="sans-serif" font-size="13" lengthAdjust="spacing" textLength="130" x="873.5" y="485.8115">EmployeeRepositories</text><polygon fill="#181818" points="1261.5,518.3652,1271.5,522.3652,1261.5,526.3652,1265.5,522.3652" style="stroke:#181818;stroke-width:1.0;"/><line style="stroke:#181818;stroke-width:1.0;" x1="838.5" x2="1267.5" y1="522.3652" y2="522.3652"/><text fill="#000000" font-family="sans-serif" font-size="13" font-weight="bold" lengthAdjust="spacing" textLength="14" x="845.5" y="517.1025">12</text><text fill="#000000" font-family="sans-serif" font-size="13" lengthAdjust="spacing" textLength="84" x="863.5" y="517.1025">getEmployee()</text><polygon fill="#181818" points="849.5,549.6563,839.5,553.6563,849.5,557.6563,845.5,553.6563" style="stroke:#181818;stroke-width:1.0;"/><line style="stroke:#181818;stroke-width:1.0;stroke-dasharray:2.0,2.0;" x1="843.5" x2="1277.5" y1="553.6563" y2="553.6563"/><text fill="#000000" font-family="sans-serif" font-size="13" font-weight="bold" lengthAdjust="spacing" textLength="14" x="855.5" y="548.3936">13</text><text fill="#000000" font-family="sans-serif" font-size="13" lengthAdjust="spacing" textLength="56" x="873.5" y="548.3936">employee</text><line style="stroke:#181818;stroke-width:1.0;stroke-dasharray:2.0,2.0;" x1="838.5" x2="880.5" y1="589.9473" y2="589.9473"/><line style="stroke:#181818;stroke-width:1.0;stroke-dasharray:2.0,2.0;" x1="880.5" x2="880.5" y1="589.9473" y2="602.9473"/><line style="stroke:#181818;stroke-width:1.0;stroke-dasharray:2.0,2.0;" x1="833.5" x2="880.5" y1="602.9473" y2="602.9473"/><polygon fill="#181818" points="843.5,598.9473,833.5,602.9473,843.5,606.9473,839.5,602.9473" style="stroke:#181818;stroke-width:1.0;"/><text fill="#000000" font-family="sans-serif" font-size="13" font-weight="bold" lengthAdjust="spacing" textLength="14" x="845.5" y="584.6846">14</text><text fill="#000000" font-family="sans-serif" font-size="13" lengthAdjust="spacing" textLength="56" x="863.5" y="584.6846">employee</text><polygon fill="#181818" points="1385,650.2383,1395,654.2383,1385,658.2383,1389,654.2383" style="stroke:#181818;stroke-width:1.0;"/><line style="stroke:#181818;stroke-width:1.0;" x1="833.5" x2="1391" y1="654.2383" y2="654.2383"/><text fill="#000000" font-family="sans-serif" font-size="13" font-weight="bold" lengthAdjust="spacing" textLength="14" x="840.5" y="648.9756">15</text><text fill="#000000" font-family="sans-serif" font-size="13" lengthAdjust="spacing" textLength="357" x="858.5" y="648.9756">registerGreenSpace(name, address, area, typology, manager)</text><polygon fill="#181818" points="1794,681.5293,1804,685.5293,1794,689.5293,1798,685.5293" style="stroke:#181818;stroke-width:1.0;"/><line style="stroke:#181818;stroke-width:1.0;" x1="1407" x2="1800" y1="685.5293" y2="685.5293"/><text fill="#000000" font-family="sans-serif" font-size="13" font-weight="bold" lengthAdjust="spacing" textLength="14" x="1414" y="680.2666">16</text><text fill="#000000" font-family="sans-serif" font-size="13" lengthAdjust="spacing" textLength="357" x="1432" y="680.2666">registerGreenSpace(name, address, area, typology, manager)</text><rect fill="#E3E3E3" height="51.2422" rx="2.5" ry="2.5" style="stroke:#181818;stroke-width:0.5;" width="99" x="1806" y="662.2383"/><text fill="#000000" font-family="sans-serif" font-size="14" lengthAdjust="spacing" textLength="85" x="1813" y="684.3457">green Space:</text><text fill="#000000" font-family="sans-serif" font-size="14" lengthAdjust="spacing" textLength="84" x="1813.5" y="702.9668">Green Space</text><line style="stroke:#181818;stroke-width:1.0;" x1="1407" x2="1449" y1="747.7715" y2="747.7715"/><line style="stroke:#181818;stroke-width:1.0;" x1="1449" x2="1449" y1="747.7715" y2="760.7715"/><line style="stroke:#181818;stroke-width:1.0;" x1="1408" x2="1449" y1="760.7715" y2="760.7715"/><polygon fill="#181818" points="1418,756.7715,1408,760.7715,1418,764.7715,1414,760.7715" style="stroke:#181818;stroke-width:1.0;"/><text fill="#000000" font-family="sans-serif" font-size="13" font-weight="bold" lengthAdjust="spacing" textLength="14" x="1414" y="742.5088">17</text><text fill="#000000" font-family="sans-serif" font-size="13" lengthAdjust="spacing" textLength="155" x="1432" y="742.5088">validateGreenSpace(name)</text><line style="stroke:#181818;stroke-width:1.0;" x1="1407" x2="1449" y1="792.0625" y2="792.0625"/><line style="stroke:#181818;stroke-width:1.0;" x1="1449" x2="1449" y1="792.0625" y2="805.0625"/><line style="stroke:#181818;stroke-width:1.0;" x1="1408" x2="1449" y1="805.0625" y2="805.0625"/><polygon fill="#181818" points="1418,801.0625,1408,805.0625,1418,809.0625,1414,805.0625" style="stroke:#181818;stroke-width:1.0;"/><text fill="#000000" font-family="sans-serif" font-size="13" font-weight="bold" lengthAdjust="spacing" textLength="14" x="1414" y="786.7998">18</text><text fill="#000000" font-family="sans-serif" font-size="13" lengthAdjust="spacing" textLength="133" x="1432" y="786.7998">addGreenSpace(name)</text><polygon fill="#181818" points="844.5,832.3535,834.5,836.3535,844.5,840.3535,840.5,836.3535" style="stroke:#181818;stroke-width:1.0;"/><line style="stroke:#181818;stroke-width:1.0;stroke-dasharray:2.0,2.0;" x1="838.5" x2="1401" y1="836.3535" y2="836.3535"/><text fill="#000000" font-family="sans-serif" font-size="13" font-weight="bold" lengthAdjust="spacing" textLength="14" x="850.5" y="831.0908">19</text><text fill="#000000" font-family="sans-serif" font-size="13" lengthAdjust="spacing" textLength="69" x="868.5" y="831.0908">greenSpace</text><polygon fill="#181818" points="447.5,863.6445,437.5,867.6445,447.5,871.6445,443.5,867.6445" style="stroke:#181818;stroke-width:1.0;"/><line style="stroke:#181818;stroke-width:1.0;stroke-dasharray:2.0,2.0;" x1="441.5" x2="827.5" y1="867.6445" y2="867.6445"/><text fill="#000000" font-family="sans-serif" font-size="13" font-weight="bold" lengthAdjust="spacing" textLength="14" x="453.5" y="862.3818">20</text><text fill="#000000" font-family="sans-serif" font-size="13" lengthAdjust="spacing" textLength="69" x="471.5" y="862.3818">greenSpace</text><polygon fill="#181818" points="34.5,894.9355,24.5,898.9355,34.5,902.9355,30.5,898.9355" style="stroke:#181818;stroke-width:1.0;"/><line style="stroke:#181818;stroke-width:1.0;stroke-dasharray:2.0,2.0;" x1="28.5" x2="430.5" y1="898.9355" y2="898.9355"/><text fill="#000000" font-family="sans-serif" font-size="13" font-weight="bold" lengthAdjust="spacing" textLength="14" x="40.5" y="893.6729">21</text><text fill="#000000" font-family="sans-serif" font-size="13" lengthAdjust="spacing" textLength="158" x="58.5" y="893.6729">displays operation success</text><!--SRC=[fLJ1RgCm4BtxAqQzR5CbFy2XKbLbgqhjAahQMozJc81Li5dRj8lKZz-n2G42PBjg3X3WlJTlnZDZtwGgqM01XLOwpemk29ofIDZZbnBZDqnfv-gSm53iKALv7s0pJFI7L2diCRSa15PEgwfu9IF4Zqmc17kjtQl-8p1ssi35tUxn0j02tmLhE1dB4fM3BQNIEZ9tXaZjE30zttlSy_q_OBTQEQFpd8o7tpvj7mQ4YsXBfRQIWqko8VJnHRsJFXzsFAIO7kD5ZGKs3pTFGmOLPQvheauwUb7hqSl0NZzk7hRhZPXMu7WjhqKFWQdF74Bg7EEkUshAkbslV-qsDxThNt3vZev2gOMXFUXtBX8_BRcg4C5J9Yrub5PCjLL15bo6ZYy4bMLinegO6yAaXbodAIKWbH0i0QlhHWJj6xCqTqTpC82Ww0CQbzRxwepmMGecCTKhHCpvNP5rpAzBbaxGeKXe0E-7yYZRaWvuk5HOq18mIGnPot_OxT93DHkkbr2WuWusYx6BemsRwG-VPzueeaewPx5MUsaAz4Kwv-s0iqqI4ndxnWmfd_Rl_oSGUjnVLjV-6a5AhksPdpp6NRzTBeI0azzGvlHhiCbs9sO4Gg1xPNaBiEt5lFBKW8tGKn5M_K9rGpVYzWxYIx7QhFpWmg1U_Ta-br8O-R5m4Eovdf8zvtv6jlLxM1K3n-TSjglb571uxvqs7TDkctFUZdlgrDbvbPv2wB31ny_FJp6JwFU6OwuSm_0-pEgwsv5NLz-BEY7kRn6yOovv4z29vcAMmB56s37uq6XHiru3LioVdX1YejXXOtr5ONnwtTQC896spB6se4ioOJs2hUAOwpMdvtTXxv5L_W80]--></g></svg>