<?xml version="1.0" encoding="us-ascii" standalone="no"?><svg xmlns="http://www.w3.org/2000/svg" xmlns:xlink="http://www.w3.org/1999/xlink" contentStyleType="text/css" height="539px" preserveAspectRatio="none" style="width:342px;height:539px;background:#FFFFFF;" version="1.1" viewBox="0 0 342 539" width="342px" zoomAndPan="magnify"><defs/><g><text fill="#000000" font-family="sans-serif" font-size="14" font-weight="bold" lengthAdjust="spacing" textLength="275" x="32.75" y="30.1074">System Sequence Diagram (SSD) US022</text><rect fill="#FFFFFF" height="313.9102" style="stroke:#181818;stroke-width:1.0;" width="10" x="18.5" y="133.2422"/><rect fill="#FFFFFF" height="31.291" style="stroke:#181818;stroke-width:1.0;" width="10" x="299.5" y="156.5332"/><rect fill="#FFFFFF" height="31.291" style="stroke:#181818;stroke-width:1.0;" width="10" x="299.5" y="219.1152"/><rect fill="#FFFFFF" height="31.291" style="stroke:#181818;stroke-width:1.0;" width="10" x="299.5" y="281.6973"/><rect fill="#FFFFFF" height="31.291" style="stroke:#181818;stroke-width:1.0;" width="10" x="299.5" y="344.2793"/><rect fill="#FFFFFF" height="31.291" style="stroke:#181818;stroke-width:1.0;" width="10" x="299.5" y="406.8613"/><line style="stroke:#181818;stroke-width:0.5;stroke-dasharray:5.0,5.0;" x1="23" x2="23" y1="123.2422" y2="456.1523"/><line style="stroke:#181818;stroke-width:0.5;stroke-dasharray:5.0,5.0;" x1="304.5" x2="304.5" y1="123.2422" y2="456.1523"/><text fill="#000000" font-family="sans-serif" font-size="14" lengthAdjust="spacing" textLength="31" x="5" y="119.7285">GSM</text><ellipse cx="23.5" cy="53.1211" fill="#E3E3E3" rx="8" ry="8" style="stroke:#181818;stroke-width:0.5;"/><path d="M23.5,61.1211 L23.5,88.1211 M10.5,69.1211 L36.5,69.1211 M23.5,88.1211 L10.5,103.1211 M23.5,88.1211 L36.5,103.1211 " fill="none" style="stroke:#181818;stroke-width:0.5;"/><text fill="#000000" font-family="sans-serif" font-size="14" lengthAdjust="spacing" textLength="31" x="5" y="470.2598">GSM</text><ellipse cx="23.5" cy="482.2734" fill="#E3E3E3" rx="8" ry="8" style="stroke:#181818;stroke-width:0.5;"/><path d="M23.5,490.2734 L23.5,517.2734 M10.5,498.2734 L36.5,498.2734 M23.5,517.2734 L10.5,532.2734 M23.5,517.2734 L36.5,532.2734 " fill="none" style="stroke:#181818;stroke-width:0.5;"/><rect fill="#E3E3E3" height="32.6211" rx="2.5" ry="2.5" style="stroke:#181818;stroke-width:0.5;" width="64" x="272.5" y="89.6211"/><text fill="#000000" font-family="sans-serif" font-size="14" lengthAdjust="spacing" textLength="50" x="279.5" y="111.7285">:System</text><rect fill="#E3E3E3" height="32.6211" rx="2.5" ry="2.5" style="stroke:#181818;stroke-width:0.5;" width="64" x="272.5" y="455.1523"/><text fill="#000000" font-family="sans-serif" font-size="14" lengthAdjust="spacing" textLength="50" x="279.5" y="477.2598">:System</text><rect fill="#FFFFFF" height="313.9102" style="stroke:#181818;stroke-width:1.0;" width="10" x="18.5" y="133.2422"/><rect fill="#FFFFFF" height="31.291" style="stroke:#181818;stroke-width:1.0;" width="10" x="299.5" y="156.5332"/><rect fill="#FFFFFF" height="31.291" style="stroke:#181818;stroke-width:1.0;" width="10" x="299.5" y="219.1152"/><rect fill="#FFFFFF" height="31.291" style="stroke:#181818;stroke-width:1.0;" width="10" x="299.5" y="281.6973"/><rect fill="#FFFFFF" height="31.291" style="stroke:#181818;stroke-width:1.0;" width="10" x="299.5" y="344.2793"/><rect fill="#FFFFFF" height="31.291" style="stroke:#181818;stroke-width:1.0;" width="10" x="299.5" y="406.8613"/><polygon fill="#181818" points="287.5,152.5332,297.5,156.5332,287.5,160.5332,291.5,156.5332" style="stroke:#181818;stroke-width:1.0;"/><line style="stroke:#181818;stroke-width:1.0;" x1="28.5" x2="293.5" y1="156.5332" y2="156.5332"/><text fill="#000000" font-family="sans-serif" font-size="13" font-weight="bold" lengthAdjust="spacing" textLength="7" x="35.5" y="151.2705">1</text><text fill="#000000" font-family="sans-serif" font-size="13" lengthAdjust="spacing" textLength="223" x="46.5" y="151.2705">asks to add a new entry in the Agenda</text><polygon fill="#181818" points="39.5,183.8242,29.5,187.8242,39.5,191.8242,35.5,187.8242" style="stroke:#181818;stroke-width:1.0;"/><line style="stroke:#181818;stroke-width:1.0;stroke-dasharray:2.0,2.0;" x1="33.5" x2="303.5" y1="187.8242" y2="187.8242"/><text fill="#000000" font-family="sans-serif" font-size="13" font-weight="bold" lengthAdjust="spacing" textLength="7" x="45.5" y="182.5615">2</text><text fill="#000000" font-family="sans-serif" font-size="13" lengthAdjust="spacing" textLength="205" x="56.5" y="182.5615">shows green spaces to be selected</text><polygon fill="#181818" points="287.5,215.1152,297.5,219.1152,287.5,223.1152,291.5,219.1152" style="stroke:#181818;stroke-width:1.0;"/><line style="stroke:#181818;stroke-width:1.0;" x1="28.5" x2="293.5" y1="219.1152" y2="219.1152"/><text fill="#000000" font-family="sans-serif" font-size="13" font-weight="bold" lengthAdjust="spacing" textLength="7" x="35.5" y="213.8525">3</text><text fill="#000000" font-family="sans-serif" font-size="13" lengthAdjust="spacing" textLength="117" x="46.5" y="213.8525">selects green space</text><polygon fill="#181818" points="39.5,246.4063,29.5,250.4063,39.5,254.4063,35.5,250.4063" style="stroke:#181818;stroke-width:1.0;"/><line style="stroke:#181818;stroke-width:1.0;stroke-dasharray:2.0,2.0;" x1="33.5" x2="303.5" y1="250.4063" y2="250.4063"/><text fill="#000000" font-family="sans-serif" font-size="13" font-weight="bold" lengthAdjust="spacing" textLength="7" x="45.5" y="245.1436">4</text><text fill="#000000" font-family="sans-serif" font-size="13" lengthAdjust="spacing" textLength="233" x="56.5" y="245.1436">shows To-Do List entries (selected data)</text><polygon fill="#181818" points="287.5,277.6973,297.5,281.6973,287.5,285.6973,291.5,281.6973" style="stroke:#181818;stroke-width:1.0;"/><line style="stroke:#181818;stroke-width:1.0;" x1="28.5" x2="293.5" y1="281.6973" y2="281.6973"/><text fill="#000000" font-family="sans-serif" font-size="13" font-weight="bold" lengthAdjust="spacing" textLength="7" x="35.5" y="276.4346">5</text><text fill="#000000" font-family="sans-serif" font-size="13" lengthAdjust="spacing" textLength="192" x="46.5" y="276.4346">selects one entry from To-Do List</text><polygon fill="#181818" points="39.5,308.9883,29.5,312.9883,39.5,316.9883,35.5,312.9883" style="stroke:#181818;stroke-width:1.0;"/><line style="stroke:#181818;stroke-width:1.0;stroke-dasharray:2.0,2.0;" x1="33.5" x2="303.5" y1="312.9883" y2="312.9883"/><text fill="#000000" font-family="sans-serif" font-size="13" font-weight="bold" lengthAdjust="spacing" textLength="7" x="45.5" y="307.7256">6</text><text fill="#000000" font-family="sans-serif" font-size="13" lengthAdjust="spacing" textLength="115" x="56.5" y="307.7256">requests typed data</text><polygon fill="#181818" points="287.5,340.2793,297.5,344.2793,287.5,348.2793,291.5,344.2793" style="stroke:#181818;stroke-width:1.0;"/><line style="stroke:#181818;stroke-width:1.0;" x1="28.5" x2="293.5" y1="344.2793" y2="344.2793"/><text fill="#000000" font-family="sans-serif" font-size="13" font-weight="bold" lengthAdjust="spacing" textLength="7" x="35.5" y="339.0166">7</text><text fill="#000000" font-family="sans-serif" font-size="13" lengthAdjust="spacing" textLength="187" x="46.5" y="339.0166">types requested data (startDate)</text><polygon fill="#181818" points="39.5,371.5703,29.5,375.5703,39.5,379.5703,35.5,375.5703" style="stroke:#181818;stroke-width:1.0;"/><line style="stroke:#181818;stroke-width:1.0;stroke-dasharray:2.0,2.0;" x1="33.5" x2="303.5" y1="375.5703" y2="375.5703"/><text fill="#000000" font-family="sans-serif" font-size="13" font-weight="bold" lengthAdjust="spacing" textLength="7" x="45.5" y="370.3076">8</text><text fill="#000000" font-family="sans-serif" font-size="13" lengthAdjust="spacing" textLength="236" x="56.5" y="370.3076">shows all data and requests confirmation</text><polygon fill="#181818" points="287.5,402.8613,297.5,406.8613,287.5,410.8613,291.5,406.8613" style="stroke:#181818;stroke-width:1.0;"/><line style="stroke:#181818;stroke-width:1.0;" x1="28.5" x2="293.5" y1="406.8613" y2="406.8613"/><text fill="#000000" font-family="sans-serif" font-size="13" font-weight="bold" lengthAdjust="spacing" textLength="7" x="35.5" y="401.5986">9</text><text fill="#000000" font-family="sans-serif" font-size="13" lengthAdjust="spacing" textLength="78" x="46.5" y="401.5986">confirms data</text><polygon fill="#181818" points="39.5,434.1523,29.5,438.1523,39.5,442.1523,35.5,438.1523" style="stroke:#181818;stroke-width:1.0;"/><line style="stroke:#181818;stroke-width:1.0;stroke-dasharray:2.0,2.0;" x1="33.5" x2="303.5" y1="438.1523" y2="438.1523"/><text fill="#000000" font-family="sans-serif" font-size="13" font-weight="bold" lengthAdjust="spacing" textLength="14" x="45.5" y="432.8896">10</text><text fill="#000000" font-family="sans-serif" font-size="13" lengthAdjust="spacing" textLength="158" x="63.5" y="432.8896">displays operation success</text><!--SRC=[dP8zRiCm38LtduB8b0m1YemP2XH8qQMTt1w0aHX7Y2ov8jt0jo_zcnH8MhYUP9llyUCJ-UH2XGbBA6E8vfXYII2ffeodFnMQ4nQKI-C94Xd1KFZh0ZwYZMSN2ZYWPyeoSQAbUSD29UJqMLCm13k7HLk-pFFT2ZxoXyqcox2M6EfoJqdFHcA2nKl-jW1aU2uh7nkYJBk8Cwx28B3OzhPTHNziTUuBXIwA3FGPts3zEB9iLNLYa0XeBI04EWC5IGsu078aU2eeMEpaa-lGfVlOFeFNMcsd5biD8PuPYaGKW3Kowjhi2PYyPaQsqrkwQNiJjHV-yBmFzXlKUrpl8hmwbcvOfsZBaGei2gwcsUxm_SaO0mr17dI5hZfEyfbnfdPhM9sbgGRAsG6sKXwT1XETN7ITTcgm-lyre_Uz6mPxGJKn75mgKLmCis47CLz6dKbc7LSU6xsBYbB705mRtKE-m_8D]--></g></svg>