<?xml version="1.0" encoding="us-ascii" standalone="no"?><svg xmlns="http://www.w3.org/2000/svg" xmlns:xlink="http://www.w3.org/1999/xlink" contentStyleType="text/css" height="511px" preserveAspectRatio="none" style="width:445px;height:511px;background:#FFFFFF;" version="1.1" viewBox="0 0 445 511" width="445px" zoomAndPan="magnify"><defs/><g><text fill="#000000" font-family="sans-serif" font-size="14" font-weight="bold" lengthAdjust="spacing" textLength="275" x="84" y="30.1074">System Sequence Diagram (SSD) US003</text><rect fill="#FFFFFF" height="276.9102" style="stroke:#181818;stroke-width:1.0;" width="10" x="18" y="133.2422"/><rect fill="#FFFFFF" height="31.291" style="stroke:#181818;stroke-width:1.0;" width="10" x="402" y="156.5332"/><rect fill="#FFFFFF" height="31.291" style="stroke:#181818;stroke-width:1.0;" width="10" x="402" y="253.6973"/><rect fill="#FFFFFF" height="31.291" style="stroke:#181818;stroke-width:1.0;" width="10" x="402" y="316.2793"/><rect fill="#FFFFFF" height="31.291" style="stroke:#181818;stroke-width:1.0;" width="10" x="402" y="378.8613"/><line style="stroke:#181818;stroke-width:0.5;stroke-dasharray:5.0,5.0;" x1="23" x2="23" y1="123.2422" y2="428.1523"/><line style="stroke:#181818;stroke-width:0.5;stroke-dasharray:5.0,5.0;" x1="407" x2="407" y1="123.2422" y2="428.1523"/><text fill="#000000" font-family="sans-serif" font-size="14" lengthAdjust="spacing" textLength="30" x="5" y="119.7285">HRM</text><ellipse cx="23" cy="53.1211" fill="#E2E2F0" rx="8" ry="8" style="stroke:#181818;stroke-width:0.5;"/><path d="M23,61.1211 L23,88.1211 M10,69.1211 L36,69.1211 M23,88.1211 L10,103.1211 M23,88.1211 L36,103.1211 " fill="none" style="stroke:#181818;stroke-width:0.5;"/><text fill="#000000" font-family="sans-serif" font-size="14" lengthAdjust="spacing" textLength="30" x="5" y="442.2598">HRM</text><ellipse cx="23" cy="454.2734" fill="#E2E2F0" rx="8" ry="8" style="stroke:#181818;stroke-width:0.5;"/><path d="M23,462.2734 L23,489.2734 M10,470.2734 L36,470.2734 M23,489.2734 L10,504.2734 M23,489.2734 L36,504.2734 " fill="none" style="stroke:#181818;stroke-width:0.5;"/><rect fill="#E2E2F0" height="32.6211" rx="2.5" ry="2.5" style="stroke:#181818;stroke-width:0.5;" width="64" x="375" y="89.6211"/><text fill="#000000" font-family="sans-serif" font-size="14" lengthAdjust="spacing" textLength="50" x="382" y="111.7285">:System</text><rect fill="#E2E2F0" height="32.6211" rx="2.5" ry="2.5" style="stroke:#181818;stroke-width:0.5;" width="64" x="375" y="427.1523"/><text fill="#000000" font-family="sans-serif" font-size="14" lengthAdjust="spacing" textLength="50" x="382" y="449.2598">:System</text><rect fill="#FFFFFF" height="276.9102" style="stroke:#181818;stroke-width:1.0;" width="10" x="18" y="133.2422"/><rect fill="#FFFFFF" height="31.291" style="stroke:#181818;stroke-width:1.0;" width="10" x="402" y="156.5332"/><rect fill="#FFFFFF" height="31.291" style="stroke:#181818;stroke-width:1.0;" width="10" x="402" y="253.6973"/><rect fill="#FFFFFF" height="31.291" style="stroke:#181818;stroke-width:1.0;" width="10" x="402" y="316.2793"/><rect fill="#FFFFFF" height="31.291" style="stroke:#181818;stroke-width:1.0;" width="10" x="402" y="378.8613"/><polygon fill="#181818" points="390,152.5332,400,156.5332,390,160.5332,394,156.5332" style="stroke:#181818;stroke-width:1.0;"/><line style="stroke:#181818;stroke-width:1.0;" x1="28" x2="396" y1="156.5332" y2="156.5332"/><text fill="#000000" font-family="sans-serif" font-size="13" font-weight="bold" lengthAdjust="spacing" textLength="7" x="35" y="151.2705">1</text><text fill="#000000" font-family="sans-serif" font-size="13" lengthAdjust="spacing" textLength="192" x="46" y="151.2705">asks to create a new collaborator</text><polygon fill="#181818" points="39,183.8242,29,187.8242,39,191.8242,35,187.8242" style="stroke:#181818;stroke-width:1.0;"/><line style="stroke:#181818;stroke-width:1.0;stroke-dasharray:2.0,2.0;" x1="33" x2="406" y1="187.8242" y2="187.8242"/><text fill="#000000" font-family="sans-serif" font-size="13" font-weight="bold" lengthAdjust="spacing" textLength="7" x="45" y="182.5615">2</text><text fill="#000000" font-family="sans-serif" font-size="13" lengthAdjust="spacing" textLength="273" x="56" y="182.5615">shows fundamental characteristics (typed data)</text><polygon fill="#181818" points="390,249.6973,400,253.6973,390,257.6973,394,253.6973" style="stroke:#181818;stroke-width:1.0;"/><line style="stroke:#181818;stroke-width:1.0;" x1="28" x2="396" y1="253.6973" y2="253.6973"/><text fill="#000000" font-family="sans-serif" font-size="13" font-weight="bold" lengthAdjust="spacing" textLength="7" x="35" y="231.1436">3</text><text fill="#000000" font-family="sans-serif" font-size="13" lengthAdjust="spacing" textLength="324" x="46" y="213.8525">types requested data (name, birth date, admission date,</text><text fill="#000000" font-family="sans-serif" font-size="13" lengthAdjust="spacing" textLength="340" x="46" y="231.1436">address, contact info (mobile and email), taxpayer number,</text><text fill="#000000" font-family="sans-serif" font-size="13" lengthAdjust="spacing" textLength="146" x="46" y="248.4346">ID doc type and number))</text><polygon fill="#181818" points="39,280.9883,29,284.9883,39,288.9883,35,284.9883" style="stroke:#181818;stroke-width:1.0;"/><line style="stroke:#181818;stroke-width:1.0;stroke-dasharray:2.0,2.0;" x1="33" x2="406" y1="284.9883" y2="284.9883"/><text fill="#000000" font-family="sans-serif" font-size="13" font-weight="bold" lengthAdjust="spacing" textLength="7" x="45" y="279.7256">4</text><text fill="#000000" font-family="sans-serif" font-size="13" lengthAdjust="spacing" textLength="173" x="56" y="279.7256">shows job list  (selected data)</text><polygon fill="#181818" points="390,312.2793,400,316.2793,390,320.2793,394,316.2793" style="stroke:#181818;stroke-width:1.0;"/><line style="stroke:#181818;stroke-width:1.0;" x1="28" x2="396" y1="316.2793" y2="316.2793"/><text fill="#000000" font-family="sans-serif" font-size="13" font-weight="bold" lengthAdjust="spacing" textLength="7" x="35" y="311.0166">5</text><text fill="#000000" font-family="sans-serif" font-size="13" lengthAdjust="spacing" textLength="191" x="46" y="311.0166">selects one job from available list</text><polygon fill="#181818" points="39,343.5703,29,347.5703,39,351.5703,35,347.5703" style="stroke:#181818;stroke-width:1.0;"/><line style="stroke:#181818;stroke-width:1.0;stroke-dasharray:2.0,2.0;" x1="33" x2="406" y1="347.5703" y2="347.5703"/><text fill="#000000" font-family="sans-serif" font-size="13" font-weight="bold" lengthAdjust="spacing" textLength="7" x="45" y="342.3076">6</text><text fill="#000000" font-family="sans-serif" font-size="13" lengthAdjust="spacing" textLength="236" x="56" y="342.3076">shows all data and requests confirmation</text><polygon fill="#181818" points="390,374.8613,400,378.8613,390,382.8613,394,378.8613" style="stroke:#181818;stroke-width:1.0;"/><line style="stroke:#181818;stroke-width:1.0;" x1="28" x2="396" y1="378.8613" y2="378.8613"/><text fill="#000000" font-family="sans-serif" font-size="13" font-weight="bold" lengthAdjust="spacing" textLength="7" x="35" y="373.5986">7</text><text fill="#000000" font-family="sans-serif" font-size="13" lengthAdjust="spacing" textLength="78" x="46" y="373.5986">confirms data</text><polygon fill="#181818" points="34,406.1523,24,410.1523,34,414.1523,30,410.1523" style="stroke:#181818;stroke-width:1.0;"/><line style="stroke:#181818;stroke-width:1.0;stroke-dasharray:2.0,2.0;" x1="28" x2="406" y1="410.1523" y2="410.1523"/><text fill="#000000" font-family="sans-serif" font-size="13" font-weight="bold" lengthAdjust="spacing" textLength="7" x="40" y="404.8896">8</text><text fill="#000000" font-family="sans-serif" font-size="13" lengthAdjust="spacing" textLength="110" x="51" y="404.8896">operation message</text><!--SRC=[dL8xZzim3DxzAuWijO6a2N1RXauPsg7B6Tswq19prbKFdqXVcdzVIlOL6Nh0fLuiaVmU_EnFeyZ4n_r-yXXb3lwpIM7Fz39JDBIp3fyoXaQSU8B-oa81-hKBfwKBRT-VElZH7muF3SwIuXm6oas3HbA6hu_V0RcycWcpEECcbOBDSQ7RbEPoh0ZtYa9rkW5z2dhtPHquwkml1abWCfKnX4WNCCbx7596bQkWlpHllAMukjyfcv8UWSTqOJZFqMAWAEZ1Z9WLIjcnscHevJgH1Ok2NQMmz4_cul7MP84nv1AJ5XO2QAFAR65mMSPIqJFQu9XTYklzPqHhCp5lTILrP0HSF2TeGngSve_H0WLqljk2uEy9hvHX2Rk0lvt09bFLw-ZIwRfx8tbE0tYD0A1bycJaVp9Oa0mfKYKyvnG0NzKy3hfAuR_N5tg_H5cMMzFbajJPvO2YETvZSCLnfVoubJHHhbeGz4FX4xsdULCgF_CV]--></g></svg>