<?xml version="1.0" encoding="us-ascii" standalone="no"?><svg xmlns="http://www.w3.org/2000/svg" xmlns:xlink="http://www.w3.org/1999/xlink" contentStyleType="text/css" height="1719px" preserveAspectRatio="none" style="width:620px;height:1719px;background:#FFFFFF;" version="1.1" viewBox="0 0 620 1719" width="620px" zoomAndPan="magnify"><defs/><g><!--class GSMUI--><g id="elem_GSMUI"><rect codeLine="11" fill="#F1F1F1" height="48" id="GSMUI" rx="2.5" ry="2.5" style="stroke:#181818;stroke-width:0.5;" width="75" x="212" y="7"/><ellipse cx="227" cy="23" fill="#ADD1B2" rx="11" ry="11" style="stroke:#181818;stroke-width:1.0;"/><path d="M229.7656,18.875 Q229.9219,18.6563 230.1094,18.5469 Q230.2969,18.4375 230.5156,18.4375 Q230.8906,18.4375 231.125,18.7031 Q231.3594,18.9531 231.3594,19.5625 L231.3594,21.0156 Q231.3594,21.625 231.125,21.8906 Q230.8906,22.1563 230.5156,22.1563 Q230.1719,22.1563 229.9688,21.9531 Q229.7656,21.7656 229.6563,21.25 Q229.6094,20.8906 229.4219,20.7031 Q229.0938,20.3281 228.4844,20.1094 Q227.875,19.8906 227.25,19.8906 Q226.4844,19.8906 225.8438,20.2188 Q225.2188,20.5469 224.7188,21.2969 Q224.2344,22.0469 224.2344,23.0781 L224.2344,24.1719 Q224.2344,25.4063 225.125,26.2344 Q226.0156,27.0469 227.6094,27.0469 Q228.5469,27.0469 229.2031,26.7969 Q229.5938,26.6406 230.0156,26.2031 Q230.2813,25.9375 230.4219,25.8594 Q230.5781,25.7813 230.7813,25.7813 Q231.1094,25.7813 231.3594,26.0469 Q231.625,26.2969 231.625,26.6406 Q231.625,26.9844 231.2813,27.3906 Q230.7813,27.9688 229.9844,28.2969 Q228.9063,28.75 227.6094,28.75 Q226.0938,28.75 224.8906,28.125 Q223.9063,27.625 223.2188,26.5625 Q222.5313,25.4844 222.5313,24.2031 L222.5313,23.0469 Q222.5313,21.7188 223.1406,20.5781 Q223.7656,19.4219 224.8594,18.8125 Q225.9531,18.1875 227.1875,18.1875 Q227.9219,18.1875 228.5625,18.3594 Q229.2188,18.5156 229.7656,18.875 Z " fill="#000000"/><text fill="#000000" font-family="sans-serif" font-size="14" lengthAdjust="spacing" textLength="43" x="241" y="28.7969">GSMUI</text><line style="stroke:#181818;stroke-width:0.5;" x1="213" x2="286" y1="39" y2="39"/><line style="stroke:#181818;stroke-width:0.5;" x1="213" x2="286" y1="47" y2="47"/></g><!--class AssignTeamToTaskInTheAgendaUI--><g id="elem_AssignTeamToTaskInTheAgendaUI"><rect codeLine="14" fill="#F1F1F1" height="159.7266" id="AssignTeamToTaskInTheAgendaUI" rx="2.5" ry="2.5" style="stroke:#181818;stroke-width:0.5;" width="255" x="122" y="116"/><ellipse cx="137" cy="132" fill="#ADD1B2" rx="11" ry="11" style="stroke:#181818;stroke-width:1.0;"/><path d="M139.7656,127.875 Q139.9219,127.6563 140.1094,127.5469 Q140.2969,127.4375 140.5156,127.4375 Q140.8906,127.4375 141.125,127.7031 Q141.3594,127.9531 141.3594,128.5625 L141.3594,130.0156 Q141.3594,130.625 141.125,130.8906 Q140.8906,131.1563 140.5156,131.1563 Q140.1719,131.1563 139.9688,130.9531 Q139.7656,130.7656 139.6563,130.25 Q139.6094,129.8906 139.4219,129.7031 Q139.0938,129.3281 138.4844,129.1094 Q137.875,128.8906 137.25,128.8906 Q136.4844,128.8906 135.8438,129.2188 Q135.2188,129.5469 134.7188,130.2969 Q134.2344,131.0469 134.2344,132.0781 L134.2344,133.1719 Q134.2344,134.4063 135.125,135.2344 Q136.0156,136.0469 137.6094,136.0469 Q138.5469,136.0469 139.2031,135.7969 Q139.5938,135.6406 140.0156,135.2031 Q140.2813,134.9375 140.4219,134.8594 Q140.5781,134.7813 140.7813,134.7813 Q141.1094,134.7813 141.3594,135.0469 Q141.625,135.2969 141.625,135.6406 Q141.625,135.9844 141.2813,136.3906 Q140.7813,136.9688 139.9844,137.2969 Q138.9063,137.75 137.6094,137.75 Q136.0938,137.75 134.8906,137.125 Q133.9063,136.625 133.2188,135.5625 Q132.5313,134.4844 132.5313,133.2031 L132.5313,132.0469 Q132.5313,130.7188 133.1406,129.5781 Q133.7656,128.4219 134.8594,127.8125 Q135.9531,127.1875 137.1875,127.1875 Q137.9219,127.1875 138.5625,127.3594 Q139.2188,127.5156 139.7656,127.875 Z " fill="#000000"/><text fill="#000000" font-family="sans-serif" font-size="14" lengthAdjust="spacing" textLength="223" x="151" y="137.7969">AssignTeamToTaskInTheAgendaUI</text><line style="stroke:#181818;stroke-width:0.5;" x1="123" x2="376" y1="148" y2="148"/><line style="stroke:#181818;stroke-width:0.5;" x1="123" x2="376" y1="156" y2="156"/><text fill="#000000" font-family="sans-serif" font-size="14" lengthAdjust="spacing" textLength="39" x="128" y="175.1074">+run()</text><text fill="#000000" font-family="sans-serif" font-size="14" lengthAdjust="spacing" textLength="158" x="128" y="193.7285">+AssignTeamController()</text><text fill="#000000" font-family="sans-serif" font-size="14" lengthAdjust="spacing" textLength="143" x="128" y="212.3496">+assignTeamToTask()</text><text fill="#000000" font-family="sans-serif" font-size="14" lengthAdjust="spacing" textLength="94" x="128" y="230.9707">-requestTask()</text><text fill="#000000" font-family="sans-serif" font-size="14" lengthAdjust="spacing" textLength="99" x="128" y="249.5918">-requestTeam()</text><text fill="#000000" font-family="sans-serif" font-size="14" lengthAdjust="spacing" textLength="151" x="128" y="268.2129">-submitData(team, task)</text></g><!--class AssignTeamController--><g id="elem_AssignTeamController"><rect codeLine="23" fill="#F1F1F1" height="215.5898" id="AssignTeamController" rx="2.5" ry="2.5" style="stroke:#181818;stroke-width:0.5;" width="176" x="161.5" y="337"/><ellipse cx="178.3" cy="353" fill="#ADD1B2" rx="11" ry="11" style="stroke:#181818;stroke-width:1.0;"/><path d="M181.0656,348.875 Q181.2219,348.6563 181.4094,348.5469 Q181.5969,348.4375 181.8156,348.4375 Q182.1906,348.4375 182.425,348.7031 Q182.6594,348.9531 182.6594,349.5625 L182.6594,351.0156 Q182.6594,351.625 182.425,351.8906 Q182.1906,352.1563 181.8156,352.1563 Q181.4719,352.1563 181.2688,351.9531 Q181.0656,351.7656 180.9563,351.25 Q180.9094,350.8906 180.7219,350.7031 Q180.3938,350.3281 179.7844,350.1094 Q179.175,349.8906 178.55,349.8906 Q177.7844,349.8906 177.1438,350.2188 Q176.5188,350.5469 176.0188,351.2969 Q175.5344,352.0469 175.5344,353.0781 L175.5344,354.1719 Q175.5344,355.4063 176.425,356.2344 Q177.3156,357.0469 178.9094,357.0469 Q179.8469,357.0469 180.5031,356.7969 Q180.8938,356.6406 181.3156,356.2031 Q181.5813,355.9375 181.7219,355.8594 Q181.8781,355.7813 182.0813,355.7813 Q182.4094,355.7813 182.6594,356.0469 Q182.925,356.2969 182.925,356.6406 Q182.925,356.9844 182.5813,357.3906 Q182.0813,357.9688 181.2844,358.2969 Q180.2063,358.75 178.9094,358.75 Q177.3938,358.75 176.1906,358.125 Q175.2063,357.625 174.5188,356.5625 Q173.8313,355.4844 173.8313,354.2031 L173.8313,353.0469 Q173.8313,351.7188 174.4406,350.5781 Q175.0656,349.4219 176.1594,348.8125 Q177.2531,348.1875 178.4875,348.1875 Q179.2219,348.1875 179.8625,348.3594 Q180.5188,348.5156 181.0656,348.875 Z " fill="#000000"/><text fill="#000000" font-family="sans-serif" font-size="14" lengthAdjust="spacing" textLength="140" x="192.7" y="358.7969">AssignTeamController</text><line style="stroke:#181818;stroke-width:0.5;" x1="162.5" x2="336.5" y1="369" y2="369"/><line style="stroke:#181818;stroke-width:0.5;" x1="162.5" x2="336.5" y1="377" y2="377"/><text fill="#000000" font-family="sans-serif" font-size="14" lengthAdjust="spacing" textLength="157" x="167.5" y="396.1074">+assignTeamController()</text><text fill="#000000" font-family="sans-serif" font-size="14" lengthAdjust="spacing" textLength="143" x="167.5" y="414.7285">+assignTeamToTask()</text><text fill="#000000" font-family="sans-serif" font-size="14" lengthAdjust="spacing" textLength="135" x="167.5" y="433.3496">+listAvailableTeams()</text><text fill="#000000" font-family="sans-serif" font-size="14" lengthAdjust="spacing" textLength="139" x="167.5" y="451.9707">+listUnfinishedTasks()</text><text fill="#000000" font-family="sans-serif" font-size="14" lengthAdjust="spacing" textLength="87" x="167.5" y="470.5918">+getAgenda()</text><text fill="#000000" font-family="sans-serif" font-size="14" lengthAdjust="spacing" textLength="164" x="167.5" y="489.2129">+loadValidEmailServices()</text><text fill="#000000" font-family="sans-serif" font-size="14" lengthAdjust="spacing" textLength="81" x="167.5" y="507.834">+validEmail()</text><text fill="#000000" font-family="sans-serif" font-size="14" lengthAdjust="spacing" textLength="134" x="167.5" y="526.4551">-getTaskRepository()</text><text fill="#000000" font-family="sans-serif" font-size="14" lengthAdjust="spacing" textLength="139" x="167.5" y="545.0762">-getTeamRepository()</text></g><!--class EmailService--><g id="elem_EmailService"><rect codeLine="35" fill="#F1F1F1" height="66.6211" id="EmailService" rx="2.5" ry="2.5" style="stroke:#181818;stroke-width:0.5;" width="189" x="7" y="651"/><ellipse cx="57.25" cy="667" fill="#B4A7E5" rx="11" ry="11" style="stroke:#181818;stroke-width:1.0;"/><path d="M58.2031,663.6406 L58.2031,670.2969 L59.9219,670.2969 Q60.5313,670.2969 60.7969,670.5313 Q61.0625,670.7656 61.0625,671.1563 Q61.0625,671.5313 60.7969,671.7656 Q60.5313,672 59.9219,672 L54.7813,672 Q54.1719,672 53.9063,671.7656 Q53.6406,671.5313 53.6406,671.1406 Q53.6406,670.7656 53.9063,670.5313 Q54.1719,670.2969 54.7813,670.2969 L56.5,670.2969 L56.5,663.6406 L54.7813,663.6406 Q54.1719,663.6406 53.9063,663.4063 Q53.6406,663.1719 53.6406,662.7813 Q53.6406,662.4063 53.9063,662.1719 Q54.1719,661.9375 54.7813,661.9375 L59.9219,661.9375 Q60.5313,661.9375 60.7969,662.1719 Q61.0625,662.4063 61.0625,662.7813 Q61.0625,663.1719 60.7969,663.4063 Q60.5313,663.6406 59.9219,663.6406 L58.2031,663.6406 Z " fill="#000000"/><text fill="#000000" font-family="sans-serif" font-size="14" font-style="italic" lengthAdjust="spacing" textLength="80" x="77.75" y="672.7969">EmailService</text><line style="stroke:#181818;stroke-width:0.5;" x1="8" x2="195" y1="683" y2="683"/><line style="stroke:#181818;stroke-width:0.5;" x1="8" x2="195" y1="691" y2="691"/><text fill="#000000" font-family="sans-serif" font-size="14" lengthAdjust="spacing" textLength="177" x="13" y="710.1074">+assignTaskToTeamEmail()</text></g><!--class Email--><g id="elem_Email"><rect codeLine="39" fill="#F1F1F1" height="141.1055" id="Email" rx="2.5" ry="2.5" style="stroke:#181818;stroke-width:0.5;" width="189" x="7" y="834.5"/><ellipse cx="80.25" cy="850.5" fill="#ADD1B2" rx="11" ry="11" style="stroke:#181818;stroke-width:1.0;"/><path d="M83.0156,846.375 Q83.1719,846.1563 83.3594,846.0469 Q83.5469,845.9375 83.7656,845.9375 Q84.1406,845.9375 84.375,846.2031 Q84.6094,846.4531 84.6094,847.0625 L84.6094,848.5156 Q84.6094,849.125 84.375,849.3906 Q84.1406,849.6563 83.7656,849.6563 Q83.4219,849.6563 83.2188,849.4531 Q83.0156,849.2656 82.9063,848.75 Q82.8594,848.3906 82.6719,848.2031 Q82.3438,847.8281 81.7344,847.6094 Q81.125,847.3906 80.5,847.3906 Q79.7344,847.3906 79.0938,847.7188 Q78.4688,848.0469 77.9688,848.7969 Q77.4844,849.5469 77.4844,850.5781 L77.4844,851.6719 Q77.4844,852.9063 78.375,853.7344 Q79.2656,854.5469 80.8594,854.5469 Q81.7969,854.5469 82.4531,854.2969 Q82.8438,854.1406 83.2656,853.7031 Q83.5313,853.4375 83.6719,853.3594 Q83.8281,853.2813 84.0313,853.2813 Q84.3594,853.2813 84.6094,853.5469 Q84.875,853.7969 84.875,854.1406 Q84.875,854.4844 84.5313,854.8906 Q84.0313,855.4688 83.2344,855.7969 Q82.1563,856.25 80.8594,856.25 Q79.3438,856.25 78.1406,855.625 Q77.1563,855.125 76.4688,854.0625 Q75.7813,852.9844 75.7813,851.7031 L75.7813,850.5469 Q75.7813,849.2188 76.3906,848.0781 Q77.0156,846.9219 78.1094,846.3125 Q79.2031,845.6875 80.4375,845.6875 Q81.1719,845.6875 81.8125,845.8594 Q82.4688,846.0156 83.0156,846.375 Z " fill="#000000"/><text fill="#000000" font-family="sans-serif" font-size="14" lengthAdjust="spacing" textLength="34" x="100.75" y="856.2969">Email</text><line style="stroke:#181818;stroke-width:0.5;" x1="8" x2="195" y1="866.5" y2="866.5"/><line style="stroke:#181818;stroke-width:0.5;" x1="8" x2="195" y1="874.5" y2="874.5"/><text fill="#000000" font-family="sans-serif" font-size="14" lengthAdjust="spacing" textLength="177" x="13" y="893.6074">+assignTaskToTeamEmail()</text><text fill="#000000" font-family="sans-serif" font-size="14" lengthAdjust="spacing" textLength="116" x="13" y="912.2285">-sendEmailTeam()</text><text fill="#000000" font-family="sans-serif" font-size="14" lengthAdjust="spacing" textLength="170" x="13" y="930.8496">-loadValidEmailServices() {</text><text fill="#000000" font-family="sans-serif" font-size="14" lengthAdjust="spacing" textLength="78" x="13" y="949.4707">-validEmail()</text><text fill="#000000" font-family="sans-serif" font-size="14" lengthAdjust="spacing" textLength="112" x="13" y="968.0918">-createEmailFile()</text></g><!--class Employee--><g id="elem_Employee"><rect codeLine="47" fill="#F1F1F1" height="66.6211" id="Employee" rx="2.5" ry="2.5" style="stroke:#181818;stroke-width:0.5;" width="220" x="262.5" y="1055"/><ellipse cx="337.25" cy="1071" fill="#ADD1B2" rx="11" ry="11" style="stroke:#181818;stroke-width:1.0;"/><path d="M340.0156,1066.875 Q340.1719,1066.6563 340.3594,1066.5469 Q340.5469,1066.4375 340.7656,1066.4375 Q341.1406,1066.4375 341.375,1066.7031 Q341.6094,1066.9531 341.6094,1067.5625 L341.6094,1069.0156 Q341.6094,1069.625 341.375,1069.8906 Q341.1406,1070.1563 340.7656,1070.1563 Q340.4219,1070.1563 340.2188,1069.9531 Q340.0156,1069.7656 339.9063,1069.25 Q339.8594,1068.8906 339.6719,1068.7031 Q339.3438,1068.3281 338.7344,1068.1094 Q338.125,1067.8906 337.5,1067.8906 Q336.7344,1067.8906 336.0938,1068.2188 Q335.4688,1068.5469 334.9688,1069.2969 Q334.4844,1070.0469 334.4844,1071.0781 L334.4844,1072.1719 Q334.4844,1073.4063 335.375,1074.2344 Q336.2656,1075.0469 337.8594,1075.0469 Q338.7969,1075.0469 339.4531,1074.7969 Q339.8438,1074.6406 340.2656,1074.2031 Q340.5313,1073.9375 340.6719,1073.8594 Q340.8281,1073.7813 341.0313,1073.7813 Q341.3594,1073.7813 341.6094,1074.0469 Q341.875,1074.2969 341.875,1074.6406 Q341.875,1074.9844 341.5313,1075.3906 Q341.0313,1075.9688 340.2344,1076.2969 Q339.1563,1076.75 337.8594,1076.75 Q336.3438,1076.75 335.1406,1076.125 Q334.1563,1075.625 333.4688,1074.5625 Q332.7813,1073.4844 332.7813,1072.2031 L332.7813,1071.0469 Q332.7813,1069.7188 333.3906,1068.5781 Q334.0156,1067.4219 335.1094,1066.8125 Q336.2031,1066.1875 337.4375,1066.1875 Q338.1719,1066.1875 338.8125,1066.3594 Q339.4688,1066.5156 340.0156,1066.875 Z " fill="#000000"/><text fill="#000000" font-family="sans-serif" font-size="14" lengthAdjust="spacing" textLength="62" x="357.75" y="1076.7969">Employee</text><line style="stroke:#181818;stroke-width:0.5;" x1="263.5" x2="481.5" y1="1087" y2="1087"/><line style="stroke:#181818;stroke-width:0.5;" x1="263.5" x2="481.5" y1="1095" y2="1095"/><text fill="#000000" font-family="sans-serif" font-size="14" lengthAdjust="spacing" textLength="208" x="268.5" y="1114.1074">+assignTeamToTask(team, task)</text></g><!--class Task--><g id="elem_Task"><rect codeLine="51" fill="#F1F1F1" height="383.1797" id="Task" rx="2.5" ry="2.5" style="stroke:#181818;stroke-width:0.5;" width="257" x="244" y="1329"/><ellipse cx="352.75" cy="1345" fill="#ADD1B2" rx="11" ry="11" style="stroke:#181818;stroke-width:1.0;"/><path d="M355.5156,1340.875 Q355.6719,1340.6563 355.8594,1340.5469 Q356.0469,1340.4375 356.2656,1340.4375 Q356.6406,1340.4375 356.875,1340.7031 Q357.1094,1340.9531 357.1094,1341.5625 L357.1094,1343.0156 Q357.1094,1343.625 356.875,1343.8906 Q356.6406,1344.1563 356.2656,1344.1563 Q355.9219,1344.1563 355.7188,1343.9531 Q355.5156,1343.7656 355.4063,1343.25 Q355.3594,1342.8906 355.1719,1342.7031 Q354.8438,1342.3281 354.2344,1342.1094 Q353.625,1341.8906 353,1341.8906 Q352.2344,1341.8906 351.5938,1342.2188 Q350.9688,1342.5469 350.4688,1343.2969 Q349.9844,1344.0469 349.9844,1345.0781 L349.9844,1346.1719 Q349.9844,1347.4063 350.875,1348.2344 Q351.7656,1349.0469 353.3594,1349.0469 Q354.2969,1349.0469 354.9531,1348.7969 Q355.3438,1348.6406 355.7656,1348.2031 Q356.0313,1347.9375 356.1719,1347.8594 Q356.3281,1347.7813 356.5313,1347.7813 Q356.8594,1347.7813 357.1094,1348.0469 Q357.375,1348.2969 357.375,1348.6406 Q357.375,1348.9844 357.0313,1349.3906 Q356.5313,1349.9688 355.7344,1350.2969 Q354.6563,1350.75 353.3594,1350.75 Q351.8438,1350.75 350.6406,1350.125 Q349.6563,1349.625 348.9688,1348.5625 Q348.2813,1347.4844 348.2813,1346.2031 L348.2813,1345.0469 Q348.2813,1343.7188 348.8906,1342.5781 Q349.5156,1341.4219 350.6094,1340.8125 Q351.7031,1340.1875 352.9375,1340.1875 Q353.6719,1340.1875 354.3125,1340.3594 Q354.9688,1340.5156 355.5156,1340.875 Z " fill="#000000"/><text fill="#000000" font-family="sans-serif" font-size="14" lengthAdjust="spacing" textLength="31" x="373.25" y="1350.7969">Task</text><line style="stroke:#181818;stroke-width:0.5;" x1="245" x2="500" y1="1361" y2="1361"/><text fill="#000000" font-family="sans-serif" font-size="14" lengthAdjust="spacing" textLength="76" x="250" y="1380.1074">-title : String</text><text fill="#000000" font-family="sans-serif" font-size="14" lengthAdjust="spacing" textLength="123" x="250" y="1398.7285">-description : String</text><text fill="#000000" font-family="sans-serif" font-size="14" lengthAdjust="spacing" textLength="105" x="250" y="1417.3496">-startDate : Date</text><text fill="#000000" font-family="sans-serif" font-size="14" lengthAdjust="spacing" textLength="101" x="250" y="1435.9707">-endDate : Date</text><text fill="#000000" font-family="sans-serif" font-size="14" lengthAdjust="spacing" textLength="155" x="250" y="1454.5918">-taskStatus : EnumName</text><text fill="#000000" font-family="sans-serif" font-size="14" lengthAdjust="spacing" textLength="81" x="250" y="1473.2129">-type : String</text><text fill="#000000" font-family="sans-serif" font-size="14" lengthAdjust="spacing" textLength="174" x="250" y="1491.834">-greenSpace : GreenSpace</text><text fill="#000000" font-family="sans-serif" font-size="14" lengthAdjust="spacing" textLength="167" x="250" y="1510.4551">-taskUrgency : EnumName</text><text fill="#000000" font-family="sans-serif" font-size="14" lengthAdjust="spacing" textLength="146" x="250" y="1529.0762">-assignedTeam : Team</text><text fill="#000000" font-family="sans-serif" font-size="14" lengthAdjust="spacing" textLength="245" x="250" y="1547.6973">-assignedVehicles : ArrayList&lt;Vehicle&gt;</text><text fill="#000000" font-family="sans-serif" font-size="14" lengthAdjust="spacing" textLength="71" x="250" y="1566.3184">-taskID : int</text><text fill="#000000" font-family="sans-serif" font-size="14" lengthAdjust="spacing" textLength="165" x="250" y="1584.9395">-taskPosition : EnumName</text><line style="stroke:#181818;stroke-width:0.5;" x1="245" x2="500" y1="1592.4531" y2="1592.4531"/><text fill="#000000" font-family="sans-serif" font-size="14" lengthAdjust="spacing" textLength="95" x="250" y="1611.5605">+assignTeam()</text><text fill="#000000" font-family="sans-serif" font-size="14" lengthAdjust="spacing" textLength="108" x="250" y="1630.1816">+setTaskStatus()</text><text fill="#000000" font-family="sans-serif" font-size="14" lengthAdjust="spacing" textLength="119" x="250" y="1648.8027">+getTaskPosition()</text><text fill="#000000" font-family="sans-serif" font-size="14" lengthAdjust="spacing" textLength="92" x="250" y="1667.4238">+setEndDate()</text><text fill="#000000" font-family="sans-serif" font-size="14" lengthAdjust="spacing" textLength="94" x="250" y="1686.0449">+taskOverlap()</text><text fill="#000000" font-family="sans-serif" font-size="14" lengthAdjust="spacing" textLength="126" x="250" y="1704.666">-calculateEndDate()</text></g><!--class TaskRepository--><g id="elem_TaskRepository"><rect codeLine="74" fill="#F1F1F1" height="178.3477" id="TaskRepository" rx="2.5" ry="2.5" style="stroke:#181818;stroke-width:0.5;" width="140" x="302.5" y="816"/><ellipse cx="321.55" cy="832" fill="#ADD1B2" rx="11" ry="11" style="stroke:#181818;stroke-width:1.0;"/><path d="M324.3156,827.875 Q324.4719,827.6563 324.6594,827.5469 Q324.8469,827.4375 325.0656,827.4375 Q325.4406,827.4375 325.675,827.7031 Q325.9094,827.9531 325.9094,828.5625 L325.9094,830.0156 Q325.9094,830.625 325.675,830.8906 Q325.4406,831.1563 325.0656,831.1563 Q324.7219,831.1563 324.5188,830.9531 Q324.3156,830.7656 324.2063,830.25 Q324.1594,829.8906 323.9719,829.7031 Q323.6438,829.3281 323.0344,829.1094 Q322.425,828.8906 321.8,828.8906 Q321.0344,828.8906 320.3938,829.2188 Q319.7688,829.5469 319.2688,830.2969 Q318.7844,831.0469 318.7844,832.0781 L318.7844,833.1719 Q318.7844,834.4063 319.675,835.2344 Q320.5656,836.0469 322.1594,836.0469 Q323.0969,836.0469 323.7531,835.7969 Q324.1438,835.6406 324.5656,835.2031 Q324.8313,834.9375 324.9719,834.8594 Q325.1281,834.7813 325.3313,834.7813 Q325.6594,834.7813 325.9094,835.0469 Q326.175,835.2969 326.175,835.6406 Q326.175,835.9844 325.8313,836.3906 Q325.3313,836.9688 324.5344,837.2969 Q323.4563,837.75 322.1594,837.75 Q320.6438,837.75 319.4406,837.125 Q318.4563,836.625 317.7688,835.5625 Q317.0813,834.4844 317.0813,833.2031 L317.0813,832.0469 Q317.0813,830.7188 317.6906,829.5781 Q318.3156,828.4219 319.4094,827.8125 Q320.5031,827.1875 321.7375,827.1875 Q322.4719,827.1875 323.1125,827.3594 Q323.7688,827.5156 324.3156,827.875 Z " fill="#000000"/><text fill="#000000" font-family="sans-serif" font-size="14" lengthAdjust="spacing" textLength="99" x="336.45" y="837.7969">TaskRepository</text><line style="stroke:#181818;stroke-width:0.5;" x1="303.5" x2="441.5" y1="848" y2="848"/><line style="stroke:#181818;stroke-width:0.5;" x1="303.5" x2="441.5" y1="856" y2="856"/><text fill="#000000" font-family="sans-serif" font-size="14" lengthAdjust="spacing" textLength="87" x="308.5" y="875.1074">+getAgenda()</text><text fill="#000000" font-family="sans-serif" font-size="14" lengthAdjust="spacing" textLength="93" x="308.5" y="893.7285">+updateTask()</text><text fill="#000000" font-family="sans-serif" font-size="14" lengthAdjust="spacing" textLength="115" x="308.5" y="912.3496">+teamAvailability()</text><text fill="#000000" font-family="sans-serif" font-size="14" lengthAdjust="spacing" textLength="127" x="308.5" y="930.9707">+getAllTeamTasks()</text><text fill="#000000" font-family="sans-serif" font-size="14" lengthAdjust="spacing" textLength="128" x="308.5" y="949.5918">+getPlannedTasks()</text><text fill="#000000" font-family="sans-serif" font-size="14" lengthAdjust="spacing" textLength="128" x="308.5" y="968.2129">+getPendingTasks()</text><text fill="#000000" font-family="sans-serif" font-size="14" lengthAdjust="spacing" textLength="91" x="308.5" y="986.834">+existsTasks()</text></g><!--class TeamRepository--><g id="elem_TeamRepository"><rect codeLine="84" fill="#F1F1F1" height="85.2422" id="TeamRepository" rx="2.5" ry="2.5" style="stroke:#181818;stroke-width:0.5;" width="136" x="477.5" y="862.5"/><ellipse cx="492.5" cy="878.5" fill="#ADD1B2" rx="11" ry="11" style="stroke:#181818;stroke-width:1.0;"/><path d="M495.2656,874.375 Q495.4219,874.1563 495.6094,874.0469 Q495.7969,873.9375 496.0156,873.9375 Q496.3906,873.9375 496.625,874.2031 Q496.8594,874.4531 496.8594,875.0625 L496.8594,876.5156 Q496.8594,877.125 496.625,877.3906 Q496.3906,877.6563 496.0156,877.6563 Q495.6719,877.6563 495.4688,877.4531 Q495.2656,877.2656 495.1563,876.75 Q495.1094,876.3906 494.9219,876.2031 Q494.5938,875.8281 493.9844,875.6094 Q493.375,875.3906 492.75,875.3906 Q491.9844,875.3906 491.3438,875.7188 Q490.7188,876.0469 490.2188,876.7969 Q489.7344,877.5469 489.7344,878.5781 L489.7344,879.6719 Q489.7344,880.9063 490.625,881.7344 Q491.5156,882.5469 493.1094,882.5469 Q494.0469,882.5469 494.7031,882.2969 Q495.0938,882.1406 495.5156,881.7031 Q495.7813,881.4375 495.9219,881.3594 Q496.0781,881.2813 496.2813,881.2813 Q496.6094,881.2813 496.8594,881.5469 Q497.125,881.7969 497.125,882.1406 Q497.125,882.4844 496.7813,882.8906 Q496.2813,883.4688 495.4844,883.7969 Q494.4063,884.25 493.1094,884.25 Q491.5938,884.25 490.3906,883.625 Q489.4063,883.125 488.7188,882.0625 Q488.0313,880.9844 488.0313,879.7031 L488.0313,878.5469 Q488.0313,877.2188 488.6406,876.0781 Q489.2656,874.9219 490.3594,874.3125 Q491.4531,873.6875 492.6875,873.6875 Q493.4219,873.6875 494.0625,873.8594 Q494.7188,874.0156 495.2656,874.375 Z " fill="#000000"/><text fill="#000000" font-family="sans-serif" font-size="14" lengthAdjust="spacing" textLength="104" x="506.5" y="884.2969">TeamRepository</text><line style="stroke:#181818;stroke-width:0.5;" x1="478.5" x2="612.5" y1="894.5" y2="894.5"/><line style="stroke:#181818;stroke-width:0.5;" x1="478.5" x2="612.5" y1="902.5" y2="902.5"/><text fill="#000000" font-family="sans-serif" font-size="14" lengthAdjust="spacing" textLength="100" x="483.5" y="921.6074">-validateTeam()</text><text fill="#000000" font-family="sans-serif" font-size="14" lengthAdjust="spacing" textLength="96" x="483.5" y="940.2285">+getAllTeams()</text></g><!--class Repositories--><g id="elem_Repositories"><rect codeLine="89" fill="#F1F1F1" height="141.1055" id="Repositories" rx="2.5" ry="2.5" style="stroke:#181818;stroke-width:0.5;" width="194" x="302.5" y="614"/><ellipse cx="355.75" cy="630" fill="#ADD1B2" rx="11" ry="11" style="stroke:#181818;stroke-width:1.0;"/><path d="M358.5156,625.875 Q358.6719,625.6563 358.8594,625.5469 Q359.0469,625.4375 359.2656,625.4375 Q359.6406,625.4375 359.875,625.7031 Q360.1094,625.9531 360.1094,626.5625 L360.1094,628.0156 Q360.1094,628.625 359.875,628.8906 Q359.6406,629.1563 359.2656,629.1563 Q358.9219,629.1563 358.7188,628.9531 Q358.5156,628.7656 358.4063,628.25 Q358.3594,627.8906 358.1719,627.7031 Q357.8438,627.3281 357.2344,627.1094 Q356.625,626.8906 356,626.8906 Q355.2344,626.8906 354.5938,627.2188 Q353.9688,627.5469 353.4688,628.2969 Q352.9844,629.0469 352.9844,630.0781 L352.9844,631.1719 Q352.9844,632.4063 353.875,633.2344 Q354.7656,634.0469 356.3594,634.0469 Q357.2969,634.0469 357.9531,633.7969 Q358.3438,633.6406 358.7656,633.2031 Q359.0313,632.9375 359.1719,632.8594 Q359.3281,632.7813 359.5313,632.7813 Q359.8594,632.7813 360.1094,633.0469 Q360.375,633.2969 360.375,633.6406 Q360.375,633.9844 360.0313,634.3906 Q359.5313,634.9688 358.7344,635.2969 Q357.6563,635.75 356.3594,635.75 Q354.8438,635.75 353.6406,635.125 Q352.6563,634.625 351.9688,633.5625 Q351.2813,632.4844 351.2813,631.2031 L351.2813,630.0469 Q351.2813,628.7188 351.8906,627.5781 Q352.5156,626.4219 353.6094,625.8125 Q354.7031,625.1875 355.9375,625.1875 Q356.6719,625.1875 357.3125,625.3594 Q357.9688,625.5156 358.5156,625.875 Z " fill="#000000"/><text fill="#000000" font-family="sans-serif" font-size="14" lengthAdjust="spacing" textLength="79" x="376.25" y="635.7969">Repositories</text><line style="stroke:#181818;stroke-width:0.5;" x1="303.5" x2="495.5" y1="646" y2="646"/><line style="stroke:#181818;stroke-width:0.5;" x1="303.5" x2="495.5" y1="654" y2="654"/><text fill="#000000" font-family="sans-serif" font-size="14" lengthAdjust="spacing" textLength="94" x="308.5" y="673.1074">-Repositories()</text><text fill="#000000" font-family="sans-serif" font-size="14" lengthAdjust="spacing" textLength="182" x="308.5" y="691.7285">+getInstance() : Repositories</text><text fill="#000000" font-family="sans-serif" font-size="14" lengthAdjust="spacing" textLength="137" x="308.5" y="710.3496">+getTaskRepository()</text><text fill="#000000" font-family="sans-serif" font-size="14" lengthAdjust="spacing" textLength="168" x="308.5" y="728.9707">+getEmployeeRepository()</text><text fill="#000000" font-family="sans-serif" font-size="14" lengthAdjust="spacing" textLength="152" x="308.5" y="747.5918">+getVehicleRepository()</text></g><!--class Tasks--><g id="elem_Tasks"><rect codeLine="98" fill="#F1F1F1" height="66.6211" id="Tasks" rx="2.5" ry="2.5" style="stroke:#181818;stroke-width:0.5;" width="157" x="294" y="1201"/><ellipse cx="349.25" cy="1217" fill="#ADD1B2" rx="11" ry="11" style="stroke:#181818;stroke-width:1.0;"/><path d="M352.0156,1212.875 Q352.1719,1212.6563 352.3594,1212.5469 Q352.5469,1212.4375 352.7656,1212.4375 Q353.1406,1212.4375 353.375,1212.7031 Q353.6094,1212.9531 353.6094,1213.5625 L353.6094,1215.0156 Q353.6094,1215.625 353.375,1215.8906 Q353.1406,1216.1563 352.7656,1216.1563 Q352.4219,1216.1563 352.2188,1215.9531 Q352.0156,1215.7656 351.9063,1215.25 Q351.8594,1214.8906 351.6719,1214.7031 Q351.3438,1214.3281 350.7344,1214.1094 Q350.125,1213.8906 349.5,1213.8906 Q348.7344,1213.8906 348.0938,1214.2188 Q347.4688,1214.5469 346.9688,1215.2969 Q346.4844,1216.0469 346.4844,1217.0781 L346.4844,1218.1719 Q346.4844,1219.4063 347.375,1220.2344 Q348.2656,1221.0469 349.8594,1221.0469 Q350.7969,1221.0469 351.4531,1220.7969 Q351.8438,1220.6406 352.2656,1220.2031 Q352.5313,1219.9375 352.6719,1219.8594 Q352.8281,1219.7813 353.0313,1219.7813 Q353.3594,1219.7813 353.6094,1220.0469 Q353.875,1220.2969 353.875,1220.6406 Q353.875,1220.9844 353.5313,1221.3906 Q353.0313,1221.9688 352.2344,1222.2969 Q351.1563,1222.75 349.8594,1222.75 Q348.3438,1222.75 347.1406,1222.125 Q346.1563,1221.625 345.4688,1220.5625 Q344.7813,1219.4844 344.7813,1218.2031 L344.7813,1217.0469 Q344.7813,1215.7188 345.3906,1214.5781 Q346.0156,1213.4219 347.1094,1212.8125 Q348.2031,1212.1875 349.4375,1212.1875 Q350.1719,1212.1875 350.8125,1212.3594 Q351.4688,1212.5156 352.0156,1212.875 Z " fill="#000000"/><text fill="#000000" font-family="sans-serif" font-size="14" lengthAdjust="spacing" textLength="38" x="369.75" y="1222.7969">Tasks</text><line style="stroke:#181818;stroke-width:0.5;" x1="295" x2="450" y1="1233" y2="1233"/><text fill="#000000" font-family="sans-serif" font-size="14" lengthAdjust="spacing" textLength="145" x="300" y="1252.1074">-ArrayList&lt;Task&gt; tasks</text><line style="stroke:#181818;stroke-width:0.5;" x1="295" x2="450" y1="1259.6211" y2="1259.6211"/></g><!--link GSMUI to AssignTeamToTaskInTheAgendaUI--><g id="link_GSMUI_AssignTeamToTaskInTheAgendaUI"><path codeLine="104" d="M249.5,55.01 C249.5,71.07 249.5,87.53 249.5,109.77 " fill="none" id="GSMUI-to-AssignTeamToTaskInTheAgendaUI" style="stroke:#181818;stroke-width:1.0;stroke-dasharray:7.0,7.0;"/><polygon fill="#181818" points="249.5,115.77,253.5,106.77,249.5,110.77,245.5,106.77,249.5,115.77" style="stroke:#181818;stroke-width:1.0;"/><text fill="#000000" font-family="sans-serif" font-size="13" lengthAdjust="spacing" textLength="7" x="241.6469" y="76.9981">1</text><text fill="#000000" font-family="sans-serif" font-size="13" lengthAdjust="spacing" textLength="7" x="242.1773" y="104.6445">1</text></g><!--link Repositories to Repositories--><g id="link_Repositories_Repositories"><path codeLine="106" d="M496.78,666.41 C516.98,668.31 531.5,674.34 531.5,684.5 C531.5,694.66 522.9536,700.1281 502.7536,702.0281 " fill="none" id="Repositories-to-Repositories" style="stroke:#181818;stroke-width:1.0;"/><polygon fill="#181818" points="496.78,702.59,506.115,705.7296,501.758,702.1218,505.3659,697.7648,496.78,702.59" style="stroke:#181818;stroke-width:1.0;"/><text fill="#000000" font-family="sans-serif" font-size="13" lengthAdjust="spacing" textLength="49" x="537.5" y="690.0283">instance</text></g><!--link AssignTeamToTaskInTheAgendaUI to AssignTeamController--><g id="link_AssignTeamToTaskInTheAgendaUI_AssignTeamController"><path codeLine="109" d="M249.5,276.17 C249.5,295.5 249.5,310.51 249.5,330.9 " fill="none" id="AssignTeamToTaskInTheAgendaUI-to-AssignTeamController" style="stroke:#181818;stroke-width:1.0;stroke-dasharray:7.0,7.0;"/><polygon fill="#181818" points="249.5,336.9,253.5,327.9,249.5,331.9,245.5,327.9,249.5,336.9" style="stroke:#181818;stroke-width:1.0;"/><text fill="#000000" font-family="sans-serif" font-size="13" lengthAdjust="spacing" textLength="7" x="242.1992" y="297.8427">1</text><text fill="#000000" font-family="sans-serif" font-size="13" lengthAdjust="spacing" textLength="7" x="242.2539" y="325.7545">1</text></g><!--link AssignTeamController to Repositories--><g id="link_AssignTeamController_Repositories"><path codeLine="111" d="M317.26,553.29 C330.22,573.81 340.2762,589.7269 352.2562,608.6969 " fill="none" id="AssignTeamController-to-Repositories" style="stroke:#181818;stroke-width:1.0;stroke-dasharray:7.0,7.0;"/><polygon fill="#181818" points="355.46,613.77,354.0364,604.0246,352.7902,609.5424,347.2723,608.2962,355.46,613.77" style="stroke:#181818;stroke-width:1.0;"/><text fill="#000000" font-family="sans-serif" font-size="13" lengthAdjust="spacing" textLength="7" x="314.1758" y="574.4566">1</text><text fill="#000000" font-family="sans-serif" font-size="13" lengthAdjust="spacing" textLength="7" x="343.5574" y="602.6373">1</text></g><!--link Repositories to TaskRepository--><g id="link_Repositories_TaskRepository"><path codeLine="114" d="M390.88,755.24 C388.51,774.47 386.6362,789.6353 384.1462,809.7753 " fill="none" id="Repositories-to-TaskRepository" style="stroke:#181818;stroke-width:1.0;"/><polygon fill="#181818" points="383.41,815.73,388.4841,807.2888,384.0235,810.7678,380.5445,806.3072,383.41,815.73" style="stroke:#181818;stroke-width:1.0;"/><text fill="#000000" font-family="sans-serif" font-size="13" lengthAdjust="spacing" textLength="7" x="382.6869" y="777.0776">1</text><text fill="#000000" font-family="sans-serif" font-size="13" lengthAdjust="spacing" textLength="7" x="377.0236" y="804.6594">1</text></g><!--link Repositories to TeamRepository--><g id="link_Repositories_TeamRepository"><path codeLine="115" d="M446.1,755.24 C469.63,790.46 494.0668,827.021 514.2568,857.241 " fill="none" id="Repositories-to-TeamRepository" style="stroke:#181818;stroke-width:1.0;"/><polygon fill="#181818" points="517.59,862.23,515.9163,852.5244,514.8124,858.0725,509.2643,856.9686,517.59,862.23" style="stroke:#181818;stroke-width:1.0;"/><text fill="#000000" font-family="sans-serif" font-size="13" lengthAdjust="spacing" textLength="7" x="443.3427" y="777.0776">1</text><text fill="#000000" font-family="sans-serif" font-size="13" lengthAdjust="spacing" textLength="7" x="505.584" y="851.0911">1</text></g><!--link TaskRepository to Employee--><g id="link_TaskRepository_Employee"><path codeLine="117" d="M372.5,994.09 C372.5,1015.77 372.5,1031.65 372.5,1048.78 " fill="none" id="TaskRepository-to-Employee" style="stroke:#181818;stroke-width:1.0;"/><polygon fill="#181818" points="372.5,1054.78,376.5,1045.78,372.5,1049.78,368.5,1045.78,372.5,1054.78" style="stroke:#181818;stroke-width:1.0;"/><text fill="#000000" font-family="sans-serif" font-size="13" lengthAdjust="spacing" textLength="7" x="365.1992" y="1016.5025">1</text><text fill="#000000" font-family="sans-serif" font-size="13" lengthAdjust="spacing" textLength="5" x="367.0234" y="1043.824">*</text></g><!--link TeamRepository to Employee--><g id="link_TeamRepository_Employee"><path codeLine="118" d="M505.81,947.64 C474.79,980.19 436.3994,1020.4565 407.7994,1050.4665 " fill="none" id="TeamRepository-to-Employee" style="stroke:#181818;stroke-width:1.0;"/><polygon fill="#181818" points="403.66,1054.81,412.7647,1051.0544,407.1095,1051.1905,406.9734,1045.5352,403.66,1054.81" style="stroke:#181818;stroke-width:1.0;"/><text fill="#000000" font-family="sans-serif" font-size="13" lengthAdjust="spacing" textLength="7" x="491.9266" y="969.8226">1</text><text fill="#000000" font-family="sans-serif" font-size="13" lengthAdjust="spacing" textLength="5" x="404.1233" y="1043.8597">*</text></g><!--link AssignTeamController to Employee--><g id="link_AssignTeamController_Employee"><path codeLine="123" d="M256.35,553.29 C266.54,712.82 284.5,994 284.5,994 C284.5,994 312.2382,1023.4705 337.6082,1050.4305 " fill="none" id="AssignTeamController-to-Employee" style="stroke:#181818;stroke-width:1.0;stroke-dasharray:7.0,7.0;"/><polygon fill="#181818" points="341.72,1054.8,338.4653,1045.5045,338.2935,1051.1587,332.6392,1050.9869,341.72,1054.8" style="stroke:#181818;stroke-width:1.0;"/><text fill="#000000" font-family="sans-serif" font-size="13" lengthAdjust="spacing" textLength="7" x="249.5541" y="574.4566">1</text><text fill="#000000" font-family="sans-serif" font-size="13" lengthAdjust="spacing" textLength="7" x="328.1854" y="1043.8478">1</text></g><!--link AssignTeamController to EmailService--><g id="link_AssignTeamController_EmailService"><path codeLine="124" d="M182.64,553.29 C160.58,588.69 140.8426,620.3674 125.0126,645.7774 " fill="none" id="AssignTeamController-to-EmailService" style="stroke:#181818;stroke-width:1.0;stroke-dasharray:7.0,7.0;"/><polygon fill="#181818" points="121.84,650.87,129.994,645.3462,124.4838,646.6262,123.2038,641.116,121.84,650.87" style="stroke:#181818;stroke-width:1.0;"/><text fill="#000000" font-family="sans-serif" font-size="13" lengthAdjust="spacing" textLength="7" x="171.3524" y="574.4566">1</text><text fill="#000000" font-family="sans-serif" font-size="13" lengthAdjust="spacing" textLength="7" x="118.1554" y="639.6699">1</text></g><!--link EmailService to Email--><g id="link_EmailService_Email"><path codeLine="125" d="M101.5,718.21 C101.5,748.81 101.5,789.5 101.5,828.42 " fill="none" id="EmailService-to-Email" style="stroke:#181818;stroke-width:1.0;"/><polygon fill="#181818" points="101.5,834.42,105.5,825.42,101.5,829.42,97.5,825.42,101.5,834.42" style="stroke:#181818;stroke-width:1.0;"/><text fill="#000000" font-family="sans-serif" font-size="13" lengthAdjust="spacing" textLength="7" x="93.8984" y="739.5507">1</text><text fill="#000000" font-family="sans-serif" font-size="13" lengthAdjust="spacing" textLength="5" x="96.2422" y="823.3028">*</text></g><!--link Employee to Tasks--><g id="link_Employee_Tasks"><path codeLine="127" d="M372.5,1122.18 C372.5,1145.74 372.5,1171.42 372.5,1194.95 " fill="none" id="Employee-to-Tasks" style="stroke:#181818;stroke-width:1.0;"/><polygon fill="#181818" points="372.5,1200.95,376.5,1191.95,372.5,1195.95,368.5,1191.95,372.5,1200.95" style="stroke:#181818;stroke-width:1.0;"/><text fill="#000000" font-family="sans-serif" font-size="13" lengthAdjust="spacing" textLength="53" x="373.5" y="1167.0283">list tasks</text><text fill="#000000" font-family="sans-serif" font-size="13" lengthAdjust="spacing" textLength="7" x="364.8766" y="1143.7813">1</text><text fill="#000000" font-family="sans-serif" font-size="13" lengthAdjust="spacing" textLength="7" x="364.8109" y="1189.7657">1</text></g><!--link Tasks to Task--><g id="link_Tasks_Task"><path codeLine="128" d="M372.5,1268.08 C372.5,1284.4 372.5,1299.61 372.5,1322.79 " fill="none" id="Tasks-to-Task" style="stroke:#181818;stroke-width:1.0;"/><polygon fill="#181818" points="372.5,1328.79,376.5,1319.79,372.5,1323.79,368.5,1319.79,372.5,1328.79" style="stroke:#181818;stroke-width:1.0;"/><text fill="#000000" font-family="sans-serif" font-size="13" lengthAdjust="spacing" textLength="7" x="364.8766" y="1289.6635">1</text><text fill="#000000" font-family="sans-serif" font-size="13" lengthAdjust="spacing" textLength="5" x="367.4023" y="1317.9998">*</text></g><!--SRC=[ZLLDRzim3BthLmYzf5tcOhiMGu1WpOe0-oZcf7VLPXoXikH9SZOls7yVwIzPMTer5uEFZwH8FYapzoHr9QmeUMcqoVRMbC2zhO45JoMo9r50wXi5t4BcXIxKbE3s8ZS_fIxuJYWtzIYfmJSLyCgeXWmsE-CqrXisYSgKS6xflPMFjOTrPdGgVmD_nzXCmSvpRxYLnTxpND9nfD6CjJ7yBlsoNH_Pdy5UEYSBlG5HRin6kAUrtknXMO3E1V7cjjQNLsmUQ1-DzjOe1PPmSHAEM6BXHmtEdvh88TFLZwNqjyABIu_GM-wHTtNkGA7ISLhelmUOA-dyyY2a4eyAoEK6TAjtKaktXvouBLo0xzfjEKRa3qB9V5LYU0hs83DeQOSHfIOmY19yXyeuwOrj1X2BHI2s9RK7knCPy6dIq1BcmQDZu91z74KBy1UOYSE3jyOmtUSQm2n9t49cGNXepKzIGLotKgO1uCSpypsxDF9W1IyzNe0Rdg8mTS6I75ncPKNwcw3E2qi282PzM89TH3PbJxtmjKDefUlogoW9fgiGyXGMGASLJVQ6tur65xwrkDIiYUAxNd3ts08ww1F01zZBJ05LN5ehciyebmyzkEXohc_HYUlih7lQSjVPM68wBrADwtJIzTAhRJE9xJchhd-oAFEt0rWbgdPBGcMreaMDb7ZgGMsqhKZCTPLZn70fQ6_zfP1A-cRGlcgrCxqEzqfe7T-GUyo9CnyX-8NJSOCP3XJ9Vv0S7QAVHoWOnOqn4kT_P1n_IGGYcS0vnmHhZGBI6Ou29pyb1Se_TtFq3D8-x-tN7JdZSTFnag0FWXRjPN34OwnzNld5-mj-VRreloy-i8n5hIV98fu5oQth5dE_cEcPck6ndCO7D0gBXdboDFJJwOWMJ_TvMYG6naxKEZ3VN8pl3Oj3pb8OUqKZ8_iLpF1CigdHUaDrT30slekZhvy6BOh-NdebTD0q0I6C_GK0]--></g></svg>