<?xml version="1.0" encoding="us-ascii" standalone="no"?><svg xmlns="http://www.w3.org/2000/svg" xmlns:xlink="http://www.w3.org/1999/xlink" contentStyleType="text/css" height="1519px" preserveAspectRatio="none" style="width:2001px;height:1519px;background:#FFFFFF;" version="1.1" viewBox="0 0 2001 1519" width="2001px" zoomAndPan="magnify"><defs/><g><rect fill="#FFFFFF" height="1324.4746" style="stroke:#181818;stroke-width:1.0;" width="10" x="18.5" y="93.6211"/><rect fill="#FFFFFF" height="486.6563" style="stroke:#181818;stroke-width:1.0;" width="10" x="266.5" y="182.4551"/><rect fill="#FFFFFF" height="218.0371" style="stroke:#181818;stroke-width:1.0;" width="10" x="266.5" y="700.4023"/><rect fill="#FFFFFF" height="468.3652" style="stroke:#181818;stroke-width:1.0;" width="10" x="266.5" y="949.7305"/><rect fill="#FFFFFF" height="406.7832" style="stroke:#181818;stroke-width:1.0;" width="10" x="476" y="213.7461"/><rect fill="#FFFFFF" height="138.1641" style="stroke:#181818;stroke-width:1.0;" width="10" x="476" y="731.6934"/><rect fill="#FFFFFF" height="388.4922" style="stroke:#181818;stroke-width:1.0;" width="10" x="476" y="981.0215"/><rect fill="#FFFFFF" height="31.291" style="stroke:#181818;stroke-width:1.0;" width="10" x="613.5" y="245.0371"/><rect fill="#FFFFFF" height="31.291" style="stroke:#181818;stroke-width:1.0;" width="10" x="720.5" y="307.6191"/><rect fill="#FFFFFF" height="31.291" style="stroke:#181818;stroke-width:1.0;" width="10" x="720.5" y="370.2012"/><rect fill="#FFFFFF" height="31.291" style="stroke:#181818;stroke-width:1.0;" width="10" x="720.5" y="432.7832"/><rect fill="#FFFFFF" height="138.1641" style="stroke:#181818;stroke-width:1.0;" width="10" x="819" y="1012.3125"/><rect fill="#FFFFFF" height="31.291" style="stroke:#181818;stroke-width:1.0;" width="10" x="952" y="495.3652"/><rect fill="#FFFFFF" height="31.291" style="stroke:#181818;stroke-width:1.0;" width="10" x="1103.5" y="557.9473"/><rect fill="#FFFFFF" height="75.582" style="stroke:#181818;stroke-width:1.0;" width="10" x="1233" y="762.9844"/><rect fill="#FFFFFF" height="75.582" style="stroke:#181818;stroke-width:1.0;" width="10" x="1351" y="1043.6035"/><rect fill="#FFFFFF" height="156.4551" style="stroke:#181818;stroke-width:1.0;" width="10" x="1546" y="1181.7676"/><rect fill="#FFFFFF" height="93.873" style="stroke:#181818;stroke-width:1.0;" width="10" x="1761" y="1213.0586"/><rect fill="#FFFFFF" height="31.291" style="stroke:#181818;stroke-width:1.0;" width="10" x="1951" y="1244.3496"/><line style="stroke:#181818;stroke-width:0.5;stroke-dasharray:5.0,5.0;" x1="23" x2="23" y1="83.6211" y2="1436.0957"/><line style="stroke:#181818;stroke-width:0.5;stroke-dasharray:5.0,5.0;" x1="271" x2="271" y1="83.6211" y2="1436.0957"/><line style="stroke:#181818;stroke-width:0.5;stroke-dasharray:5.0,5.0;" x1="481" x2="481" y1="83.6211" y2="1436.0957"/><line style="stroke:#181818;stroke-width:0.5;stroke-dasharray:5.0,5.0;" x1="618" x2="618" y1="83.6211" y2="1436.0957"/><line style="stroke:#181818;stroke-width:0.5;stroke-dasharray:5.0,5.0;" x1="725" x2="725" y1="83.6211" y2="1436.0957"/><line style="stroke:#181818;stroke-width:0.5;stroke-dasharray:5.0,5.0;" x1="824" x2="824" y1="83.6211" y2="1436.0957"/><line style="stroke:#181818;stroke-width:0.5;stroke-dasharray:5.0,5.0;" x1="957" x2="957" y1="83.6211" y2="1436.0957"/><line style="stroke:#181818;stroke-width:0.5;stroke-dasharray:5.0,5.0;" x1="1108" x2="1108" y1="83.6211" y2="1436.0957"/><line style="stroke:#181818;stroke-width:0.5;stroke-dasharray:5.0,5.0;" x1="1238" x2="1238" y1="83.6211" y2="1436.0957"/><line style="stroke:#181818;stroke-width:0.5;stroke-dasharray:5.0,5.0;" x1="1355.5" x2="1355.5" y1="83.6211" y2="1436.0957"/><line style="stroke:#181818;stroke-width:0.5;stroke-dasharray:5.0,5.0;" x1="1550.5" x2="1550.5" y1="83.6211" y2="1436.0957"/><line style="stroke:#181818;stroke-width:0.5;stroke-dasharray:5.0,5.0;" x1="1766" x2="1766" y1="83.6211" y2="1436.0957"/><line style="stroke:#181818;stroke-width:0.5;stroke-dasharray:5.0,5.0;" x1="1956" x2="1956" y1="83.6211" y2="1436.0957"/><text fill="#000000" font-family="sans-serif" font-size="14" lengthAdjust="spacing" textLength="31" x="5" y="80.1074">GSM</text><ellipse cx="23.5" cy="13.5" fill="#E3E3E3" rx="8" ry="8" style="stroke:#181818;stroke-width:0.5;"/><path d="M23.5,21.5 L23.5,48.5 M10.5,29.5 L36.5,29.5 M23.5,48.5 L10.5,63.5 M23.5,48.5 L36.5,63.5 " fill="none" style="stroke:#181818;stroke-width:0.5;"/><text fill="#000000" font-family="sans-serif" font-size="14" lengthAdjust="spacing" textLength="31" x="5" y="1450.2031">GSM</text><ellipse cx="23.5" cy="1462.2168" fill="#E3E3E3" rx="8" ry="8" style="stroke:#181818;stroke-width:0.5;"/><path d="M23.5,1470.2168 L23.5,1497.2168 M10.5,1478.2168 L36.5,1478.2168 M23.5,1497.2168 L10.5,1512.2168 M23.5,1497.2168 L36.5,1512.2168 " fill="none" style="stroke:#181818;stroke-width:0.5;"/><rect fill="#E3E3E3" height="32.6211" rx="2.5" ry="2.5" style="stroke:#181818;stroke-width:0.5;" width="241" x="151" y="50"/><text fill="#000000" font-family="sans-serif" font-size="14" lengthAdjust="spacing" textLength="227" x="158" y="72.1074">:AssignTeamToTaskInTheAgendaUI</text><rect fill="#E3E3E3" height="32.6211" rx="2.5" ry="2.5" style="stroke:#181818;stroke-width:0.5;" width="241" x="151" y="1435.0957"/><text fill="#000000" font-family="sans-serif" font-size="14" lengthAdjust="spacing" textLength="227" x="158" y="1457.2031">:AssignTeamToTaskInTheAgendaUI</text><rect fill="#E3E3E3" height="32.6211" rx="2.5" ry="2.5" style="stroke:#181818;stroke-width:0.5;" width="158" x="402" y="50"/><text fill="#000000" font-family="sans-serif" font-size="14" lengthAdjust="spacing" textLength="144" x="409" y="72.1074">:AssignTeamController</text><rect fill="#E3E3E3" height="32.6211" rx="2.5" ry="2.5" style="stroke:#181818;stroke-width:0.5;" width="158" x="402" y="1435.0957"/><text fill="#000000" font-family="sans-serif" font-size="14" lengthAdjust="spacing" textLength="144" x="409" y="1457.2031">:AssignTeamController</text><rect fill="#E3E3E3" height="32.6211" rx="2.5" ry="2.5" style="stroke:#181818;stroke-width:0.5;" width="97" x="570" y="50"/><text fill="#000000" font-family="sans-serif" font-size="14" lengthAdjust="spacing" textLength="83" x="577" y="72.1074">:Repositories</text><rect fill="#E3E3E3" height="32.6211" rx="2.5" ry="2.5" style="stroke:#181818;stroke-width:0.5;" width="97" x="570" y="1435.0957"/><text fill="#000000" font-family="sans-serif" font-size="14" lengthAdjust="spacing" textLength="83" x="577" y="1457.2031">:Repositories</text><rect fill="#E3E3E3" height="51.2422" rx="2.5" ry="2.5" style="stroke:#181818;stroke-width:0.5;" width="97" x="677" y="31.3789"/><text fill="#000000" font-family="sans-serif" font-size="14" lengthAdjust="spacing" textLength="78" x="686.5" y="53.4863">:repositories</text><text fill="#000000" font-family="sans-serif" font-size="14" lengthAdjust="spacing" textLength="83" x="684" y="72.1074">:Repositories</text><rect fill="#E3E3E3" height="51.2422" rx="2.5" ry="2.5" style="stroke:#181818;stroke-width:0.5;" width="97" x="677" y="1435.0957"/><text fill="#000000" font-family="sans-serif" font-size="14" lengthAdjust="spacing" textLength="78" x="686.5" y="1457.2031">:repositories</text><text fill="#000000" font-family="sans-serif" font-size="14" lengthAdjust="spacing" textLength="83" x="684" y="1475.8242">:Repositories</text><rect fill="#E3E3E3" height="32.6211" rx="2.5" ry="2.5" style="stroke:#181818;stroke-width:0.5;" width="80" x="784" y="50"/><text fill="#000000" font-family="sans-serif" font-size="14" lengthAdjust="spacing" textLength="66" x="791" y="72.1074">:Employee</text><rect fill="#E3E3E3" height="32.6211" rx="2.5" ry="2.5" style="stroke:#181818;stroke-width:0.5;" width="80" x="784" y="1435.0957"/><text fill="#000000" font-family="sans-serif" font-size="14" lengthAdjust="spacing" textLength="66" x="791" y="1457.2031">:Employee</text><rect fill="#E3E3E3" height="32.6211" rx="2.5" ry="2.5" style="stroke:#181818;stroke-width:0.5;" width="166" x="874" y="50"/><text fill="#000000" font-family="sans-serif" font-size="14" lengthAdjust="spacing" textLength="152" x="881" y="72.1074">:GreenSpaceRepository</text><rect fill="#E3E3E3" height="32.6211" rx="2.5" ry="2.5" style="stroke:#181818;stroke-width:0.5;" width="166" x="874" y="1435.0957"/><text fill="#000000" font-family="sans-serif" font-size="14" lengthAdjust="spacing" textLength="152" x="881" y="1457.2031">:GreenSpaceRepository</text><rect fill="#E3E3E3" height="32.6211" rx="2.5" ry="2.5" style="stroke:#181818;stroke-width:0.5;" width="117" x="1050" y="50"/><text fill="#000000" font-family="sans-serif" font-size="14" lengthAdjust="spacing" textLength="103" x="1057" y="72.1074">:TaskRepository</text><rect fill="#E3E3E3" height="32.6211" rx="2.5" ry="2.5" style="stroke:#181818;stroke-width:0.5;" width="117" x="1050" y="1435.0957"/><text fill="#000000" font-family="sans-serif" font-size="14" lengthAdjust="spacing" textLength="103" x="1057" y="1457.2031">:TaskRepository</text><rect fill="#E3E3E3" height="32.6211" rx="2.5" ry="2.5" style="stroke:#181818;stroke-width:0.5;" width="122" x="1177" y="50"/><text fill="#000000" font-family="sans-serif" font-size="14" lengthAdjust="spacing" textLength="108" x="1184" y="72.1074">:TeamRepository</text><rect fill="#E3E3E3" height="32.6211" rx="2.5" ry="2.5" style="stroke:#181818;stroke-width:0.5;" width="122" x="1177" y="1435.0957"/><text fill="#000000" font-family="sans-serif" font-size="14" lengthAdjust="spacing" textLength="108" x="1184" y="1457.2031">:TeamRepository</text><rect fill="#E3E3E3" height="32.6211" rx="2.5" ry="2.5" style="stroke:#181818;stroke-width:0.5;" width="49" x="1331.5" y="50"/><text fill="#000000" font-family="sans-serif" font-size="14" lengthAdjust="spacing" textLength="35" x="1338.5" y="72.1074">:Task</text><rect fill="#E3E3E3" height="32.6211" rx="2.5" ry="2.5" style="stroke:#181818;stroke-width:0.5;" width="49" x="1331.5" y="1435.0957"/><text fill="#000000" font-family="sans-serif" font-size="14" lengthAdjust="spacing" textLength="35" x="1338.5" y="1457.2031">:Task</text><rect fill="#E3E3E3" height="32.6211" rx="2.5" ry="2.5" style="stroke:#181818;stroke-width:0.5;" width="95" x="1503.5" y="50"/><text fill="#000000" font-family="sans-serif" font-size="14" lengthAdjust="spacing" textLength="81" x="1510.5" y="72.1074">EmailService</text><rect fill="#E3E3E3" height="32.6211" rx="2.5" ry="2.5" style="stroke:#181818;stroke-width:0.5;" width="95" x="1503.5" y="1435.0957"/><text fill="#000000" font-family="sans-serif" font-size="14" lengthAdjust="spacing" textLength="81" x="1510.5" y="1457.2031">EmailService</text><rect fill="#E3E3E3" height="32.6211" rx="2.5" ry="2.5" style="stroke:#181818;stroke-width:0.5;" width="48" x="1742" y="50"/><text fill="#000000" font-family="sans-serif" font-size="14" lengthAdjust="spacing" textLength="34" x="1749" y="72.1074">Email</text><rect fill="#E3E3E3" height="32.6211" rx="2.5" ry="2.5" style="stroke:#181818;stroke-width:0.5;" width="48" x="1742" y="1435.0957"/><text fill="#000000" font-family="sans-serif" font-size="14" lengthAdjust="spacing" textLength="34" x="1749" y="1457.2031">Email</text><rect fill="#E3E3E3" height="32.6211" rx="2.5" ry="2.5" style="stroke:#181818;stroke-width:0.5;" width="78" x="1917" y="50"/><text fill="#000000" font-family="sans-serif" font-size="14" lengthAdjust="spacing" textLength="64" x="1924" y="72.1074">ConfigFile</text><rect fill="#E3E3E3" height="32.6211" rx="2.5" ry="2.5" style="stroke:#181818;stroke-width:0.5;" width="78" x="1917" y="1435.0957"/><text fill="#000000" font-family="sans-serif" font-size="14" lengthAdjust="spacing" textLength="64" x="1924" y="1457.2031">ConfigFile</text><rect fill="#FFFFFF" height="1324.4746" style="stroke:#181818;stroke-width:1.0;" width="10" x="18.5" y="93.6211"/><rect fill="#FFFFFF" height="486.6563" style="stroke:#181818;stroke-width:1.0;" width="10" x="266.5" y="182.4551"/><rect fill="#FFFFFF" height="218.0371" style="stroke:#181818;stroke-width:1.0;" width="10" x="266.5" y="700.4023"/><rect fill="#FFFFFF" height="468.3652" style="stroke:#181818;stroke-width:1.0;" width="10" x="266.5" y="949.7305"/><rect fill="#FFFFFF" height="406.7832" style="stroke:#181818;stroke-width:1.0;" width="10" x="476" y="213.7461"/><rect fill="#FFFFFF" height="138.1641" style="stroke:#181818;stroke-width:1.0;" width="10" x="476" y="731.6934"/><rect fill="#FFFFFF" height="388.4922" style="stroke:#181818;stroke-width:1.0;" width="10" x="476" y="981.0215"/><rect fill="#FFFFFF" height="31.291" style="stroke:#181818;stroke-width:1.0;" width="10" x="613.5" y="245.0371"/><rect fill="#FFFFFF" height="31.291" style="stroke:#181818;stroke-width:1.0;" width="10" x="720.5" y="307.6191"/><rect fill="#FFFFFF" height="31.291" style="stroke:#181818;stroke-width:1.0;" width="10" x="720.5" y="370.2012"/><rect fill="#FFFFFF" height="31.291" style="stroke:#181818;stroke-width:1.0;" width="10" x="720.5" y="432.7832"/><rect fill="#FFFFFF" height="138.1641" style="stroke:#181818;stroke-width:1.0;" width="10" x="819" y="1012.3125"/><rect fill="#FFFFFF" height="31.291" style="stroke:#181818;stroke-width:1.0;" width="10" x="952" y="495.3652"/><rect fill="#FFFFFF" height="31.291" style="stroke:#181818;stroke-width:1.0;" width="10" x="1103.5" y="557.9473"/><rect fill="#FFFFFF" height="75.582" style="stroke:#181818;stroke-width:1.0;" width="10" x="1233" y="762.9844"/><rect fill="#FFFFFF" height="75.582" style="stroke:#181818;stroke-width:1.0;" width="10" x="1351" y="1043.6035"/><rect fill="#FFFFFF" height="156.4551" style="stroke:#181818;stroke-width:1.0;" width="10" x="1546" y="1181.7676"/><rect fill="#FFFFFF" height="93.873" style="stroke:#181818;stroke-width:1.0;" width="10" x="1761" y="1213.0586"/><rect fill="#FFFFFF" height="31.291" style="stroke:#181818;stroke-width:1.0;" width="10" x="1951" y="1244.3496"/><rect fill="none" height="43.252" style="stroke:#000000;stroke-width:1.5;" width="393" x="2" y="93.6211"/><path d="M2,93.6211 L64,93.6211 L64,102.6211 L54,112.6211 L2,112.6211 L2,93.6211 " fill="#EEEEEE" style="stroke:#000000;stroke-width:2.0;"/><text fill="#000000" font-family="sans-serif" font-size="13" font-weight="bold" lengthAdjust="spacing" textLength="17" x="15" y="109.6494">ref</text><text fill="#000000" font-family="sans-serif" font-size="12" lengthAdjust="spacing" textLength="308" x="44.5" y="129.5703">This action assumes that the user has already logged in</text><polygon fill="#181818" points="254.5,178.4551,264.5,182.4551,254.5,186.4551,258.5,182.4551" style="stroke:#181818;stroke-width:1.0;"/><line style="stroke:#181818;stroke-width:1.0;" x1="28.5" x2="260.5" y1="182.4551" y2="182.4551"/><text fill="#000000" font-family="sans-serif" font-size="13" font-weight="bold" lengthAdjust="spacing" textLength="7" x="35.5" y="168.5469">1</text><text fill="#000000" font-family="sans-serif" font-size="13" lengthAdjust="spacing" textLength="204" x="46.5" y="159.9014">Initiates team assignment to a task</text><text fill="#000000" font-family="sans-serif" font-size="13" lengthAdjust="spacing" textLength="78" x="46.5" y="177.1924">in the agenda</text><polygon fill="#181818" points="464,209.7461,474,213.7461,464,217.7461,468,213.7461" style="stroke:#181818;stroke-width:1.0;"/><line style="stroke:#181818;stroke-width:1.0;" x1="276.5" x2="470" y1="213.7461" y2="213.7461"/><text fill="#000000" font-family="sans-serif" font-size="13" font-weight="bold" lengthAdjust="spacing" textLength="7" x="283.5" y="208.4834">2</text><text fill="#000000" font-family="sans-serif" font-size="13" lengthAdjust="spacing" textLength="79" x="294.5" y="208.4834">requestTask()</text><polygon fill="#181818" points="601.5,241.0371,611.5,245.0371,601.5,249.0371,605.5,245.0371" style="stroke:#181818;stroke-width:1.0;"/><line style="stroke:#181818;stroke-width:1.0;" x1="486" x2="607.5" y1="245.0371" y2="245.0371"/><text fill="#000000" font-family="sans-serif" font-size="13" font-weight="bold" lengthAdjust="spacing" textLength="7" x="493" y="239.7744">3</text><text fill="#000000" font-family="sans-serif" font-size="13" lengthAdjust="spacing" textLength="75" x="504" y="239.7744">getInstance()</text><polygon fill="#181818" points="497,272.3281,487,276.3281,497,280.3281,493,276.3281" style="stroke:#181818;stroke-width:1.0;"/><line style="stroke:#181818;stroke-width:1.0;stroke-dasharray:2.0,2.0;" x1="491" x2="617.5" y1="276.3281" y2="276.3281"/><text fill="#000000" font-family="sans-serif" font-size="13" font-weight="bold" lengthAdjust="spacing" textLength="7" x="503" y="271.0654">4</text><text fill="#000000" font-family="sans-serif" font-size="13" lengthAdjust="spacing" textLength="67" x="514" y="271.0654">repositories</text><polygon fill="#181818" points="708.5,303.6191,718.5,307.6191,708.5,311.6191,712.5,307.6191" style="stroke:#181818;stroke-width:1.0;"/><line style="stroke:#181818;stroke-width:1.0;" x1="486" x2="714.5" y1="307.6191" y2="307.6191"/><text fill="#000000" font-family="sans-serif" font-size="13" font-weight="bold" lengthAdjust="spacing" textLength="7" x="493" y="302.3564">5</text><text fill="#000000" font-family="sans-serif" font-size="13" lengthAdjust="spacing" textLength="120" x="504" y="302.3564">getTeamRepository()</text><polygon fill="#181818" points="497,334.9102,487,338.9102,497,342.9102,493,338.9102" style="stroke:#181818;stroke-width:1.0;"/><line style="stroke:#181818;stroke-width:1.0;stroke-dasharray:2.0,2.0;" x1="491" x2="724.5" y1="338.9102" y2="338.9102"/><text fill="#000000" font-family="sans-serif" font-size="13" font-weight="bold" lengthAdjust="spacing" textLength="7" x="503" y="333.6475">6</text><text fill="#000000" font-family="sans-serif" font-size="13" lengthAdjust="spacing" textLength="94" x="514" y="333.6475">TeamRepository</text><polygon fill="#181818" points="708.5,366.2012,718.5,370.2012,708.5,374.2012,712.5,370.2012" style="stroke:#181818;stroke-width:1.0;"/><line style="stroke:#181818;stroke-width:1.0;" x1="486" x2="714.5" y1="370.2012" y2="370.2012"/><text fill="#000000" font-family="sans-serif" font-size="13" font-weight="bold" lengthAdjust="spacing" textLength="7" x="493" y="364.9385">7</text><text fill="#000000" font-family="sans-serif" font-size="13" lengthAdjust="spacing" textLength="116" x="504" y="364.9385">getTaskRepository()</text><polygon fill="#181818" points="497,397.4922,487,401.4922,497,405.4922,493,401.4922" style="stroke:#181818;stroke-width:1.0;"/><line style="stroke:#181818;stroke-width:1.0;stroke-dasharray:2.0,2.0;" x1="491" x2="724.5" y1="401.4922" y2="401.4922"/><text fill="#000000" font-family="sans-serif" font-size="13" font-weight="bold" lengthAdjust="spacing" textLength="7" x="503" y="396.2295">8</text><text fill="#000000" font-family="sans-serif" font-size="13" lengthAdjust="spacing" textLength="90" x="514" y="396.2295">TaskRepository</text><polygon fill="#181818" points="708.5,428.7832,718.5,432.7832,708.5,436.7832,712.5,432.7832" style="stroke:#181818;stroke-width:1.0;"/><line style="stroke:#181818;stroke-width:1.0;" x1="486" x2="714.5" y1="432.7832" y2="432.7832"/><text fill="#000000" font-family="sans-serif" font-size="13" font-weight="bold" lengthAdjust="spacing" textLength="7" x="493" y="427.5205">9</text><text fill="#000000" font-family="sans-serif" font-size="13" lengthAdjust="spacing" textLength="160" x="504" y="427.5205">getGreenSpaceRepository()</text><polygon fill="#181818" points="497,460.0742,487,464.0742,497,468.0742,493,464.0742" style="stroke:#181818;stroke-width:1.0;"/><line style="stroke:#181818;stroke-width:1.0;stroke-dasharray:2.0,2.0;" x1="491" x2="724.5" y1="464.0742" y2="464.0742"/><text fill="#000000" font-family="sans-serif" font-size="13" font-weight="bold" lengthAdjust="spacing" textLength="14" x="503" y="458.8115">10</text><text fill="#000000" font-family="sans-serif" font-size="13" lengthAdjust="spacing" textLength="134" x="521" y="458.8115">GreenSpaceRepository</text><polygon fill="#181818" points="940,491.3652,950,495.3652,940,499.3652,944,495.3652" style="stroke:#181818;stroke-width:1.0;"/><line style="stroke:#181818;stroke-width:1.0;" x1="486" x2="946" y1="495.3652" y2="495.3652"/><text fill="#000000" font-family="sans-serif" font-size="13" font-weight="bold" lengthAdjust="spacing" textLength="14" x="493" y="490.1025">11</text><text fill="#000000" font-family="sans-serif" font-size="13" lengthAdjust="spacing" textLength="105" x="511" y="490.1025">getGreenSpaces()</text><polygon fill="#181818" points="497,522.6563,487,526.6563,497,530.6563,493,526.6563" style="stroke:#181818;stroke-width:1.0;"/><line style="stroke:#181818;stroke-width:1.0;stroke-dasharray:2.0,2.0;" x1="491" x2="956" y1="526.6563" y2="526.6563"/><text fill="#000000" font-family="sans-serif" font-size="13" font-weight="bold" lengthAdjust="spacing" textLength="14" x="503" y="521.3936">12</text><text fill="#000000" font-family="sans-serif" font-size="13" lengthAdjust="spacing" textLength="114" x="521" y="521.3936">list of GreenSpaces</text><polygon fill="#181818" points="1091.5,553.9473,1101.5,557.9473,1091.5,561.9473,1095.5,557.9473" style="stroke:#181818;stroke-width:1.0;"/><line style="stroke:#181818;stroke-width:1.0;" x1="486" x2="1097.5" y1="557.9473" y2="557.9473"/><text fill="#000000" font-family="sans-serif" font-size="13" font-weight="bold" lengthAdjust="spacing" textLength="14" x="493" y="552.6846">13</text><text fill="#000000" font-family="sans-serif" font-size="13" lengthAdjust="spacing" textLength="70" x="511" y="552.6846">getAgenda()</text><polygon fill="#181818" points="497,585.2383,487,589.2383,497,593.2383,493,589.2383" style="stroke:#181818;stroke-width:1.0;"/><line style="stroke:#181818;stroke-width:1.0;stroke-dasharray:2.0,2.0;" x1="491" x2="1107.5" y1="589.2383" y2="589.2383"/><text fill="#000000" font-family="sans-serif" font-size="13" font-weight="bold" lengthAdjust="spacing" textLength="14" x="503" y="583.9756">14</text><text fill="#000000" font-family="sans-serif" font-size="13" lengthAdjust="spacing" textLength="151" x="521" y="583.9756">list of tasks in the Agenda</text><polygon fill="#181818" points="287.5,616.5293,277.5,620.5293,287.5,624.5293,283.5,620.5293" style="stroke:#181818;stroke-width:1.0;"/><line style="stroke:#181818;stroke-width:1.0;stroke-dasharray:2.0,2.0;" x1="281.5" x2="480" y1="620.5293" y2="620.5293"/><text fill="#000000" font-family="sans-serif" font-size="13" font-weight="bold" lengthAdjust="spacing" textLength="14" x="293.5" y="615.2666">15</text><text fill="#000000" font-family="sans-serif" font-size="13" lengthAdjust="spacing" textLength="151" x="311.5" y="615.2666">list of tasks in the Agenda</text><polygon fill="#181818" points="39.5,665.1113,29.5,669.1113,39.5,673.1113,35.5,669.1113" style="stroke:#181818;stroke-width:1.0;"/><line style="stroke:#181818;stroke-width:1.0;stroke-dasharray:2.0,2.0;" x1="33.5" x2="270.5" y1="669.1113" y2="669.1113"/><text fill="#000000" font-family="sans-serif" font-size="13" font-weight="bold" lengthAdjust="spacing" textLength="14" x="45.5" y="655.2031">16</text><text fill="#000000" font-family="sans-serif" font-size="13" lengthAdjust="spacing" textLength="144" x="63.5" y="646.5576">lists tasks in the Agenda</text><text fill="#000000" font-family="sans-serif" font-size="13" lengthAdjust="spacing" textLength="132" x="63.5" y="663.8486">and asks to select one</text><polygon fill="#181818" points="254.5,696.4023,264.5,700.4023,254.5,704.4023,258.5,700.4023" style="stroke:#181818;stroke-width:1.0;"/><line style="stroke:#181818;stroke-width:1.0;" x1="28.5" x2="260.5" y1="700.4023" y2="700.4023"/><text fill="#000000" font-family="sans-serif" font-size="13" font-weight="bold" lengthAdjust="spacing" textLength="14" x="35.5" y="695.1396">17</text><text fill="#000000" font-family="sans-serif" font-size="13" lengthAdjust="spacing" textLength="154" x="53.5" y="695.1396">selects a task from the list</text><polygon fill="#181818" points="464,727.6934,474,731.6934,464,735.6934,468,731.6934" style="stroke:#181818;stroke-width:1.0;"/><line style="stroke:#181818;stroke-width:1.0;" x1="276.5" x2="470" y1="731.6934" y2="731.6934"/><text fill="#000000" font-family="sans-serif" font-size="13" font-weight="bold" lengthAdjust="spacing" textLength="14" x="283.5" y="726.4307">18</text><text fill="#000000" font-family="sans-serif" font-size="13" lengthAdjust="spacing" textLength="115" x="301.5" y="726.4307">listAvailableTeams()</text><polygon fill="#181818" points="1221,758.9844,1231,762.9844,1221,766.9844,1225,762.9844" style="stroke:#181818;stroke-width:1.0;"/><line style="stroke:#181818;stroke-width:1.0;" x1="486" x2="1227" y1="762.9844" y2="762.9844"/><text fill="#000000" font-family="sans-serif" font-size="13" font-weight="bold" lengthAdjust="spacing" textLength="14" x="493" y="757.7217">19</text><text fill="#000000" font-family="sans-serif" font-size="13" lengthAdjust="spacing" textLength="108" x="511" y="757.7217">getAllTeamTasks()</text><line style="stroke:#181818;stroke-width:1.0;" x1="1243" x2="1285" y1="794.2754" y2="794.2754"/><line style="stroke:#181818;stroke-width:1.0;" x1="1285" x2="1285" y1="794.2754" y2="807.2754"/><line style="stroke:#181818;stroke-width:1.0;" x1="1244" x2="1285" y1="807.2754" y2="807.2754"/><polygon fill="#181818" points="1254,803.2754,1244,807.2754,1254,811.2754,1250,807.2754" style="stroke:#181818;stroke-width:1.0;"/><text fill="#000000" font-family="sans-serif" font-size="13" font-weight="bold" lengthAdjust="spacing" textLength="14" x="1250" y="789.0127">20</text><text fill="#000000" font-family="sans-serif" font-size="13" lengthAdjust="spacing" textLength="76" x="1268" y="789.0127">taskOverlap()</text><polygon fill="#181818" points="497,834.5664,487,838.5664,497,842.5664,493,838.5664" style="stroke:#181818;stroke-width:1.0;"/><line style="stroke:#181818;stroke-width:1.0;stroke-dasharray:2.0,2.0;" x1="491" x2="1237" y1="838.5664" y2="838.5664"/><text fill="#000000" font-family="sans-serif" font-size="13" font-weight="bold" lengthAdjust="spacing" textLength="14" x="503" y="833.3037">21</text><text fill="#000000" font-family="sans-serif" font-size="13" lengthAdjust="spacing" textLength="124" x="521" y="833.3037">list of available teams</text><polygon fill="#181818" points="287.5,865.8574,277.5,869.8574,287.5,873.8574,283.5,869.8574" style="stroke:#181818;stroke-width:1.0;"/><line style="stroke:#181818;stroke-width:1.0;stroke-dasharray:2.0,2.0;" x1="281.5" x2="480" y1="869.8574" y2="869.8574"/><text fill="#000000" font-family="sans-serif" font-size="13" font-weight="bold" lengthAdjust="spacing" textLength="14" x="293.5" y="864.5947">22</text><text fill="#000000" font-family="sans-serif" font-size="13" lengthAdjust="spacing" textLength="124" x="311.5" y="864.5947">list of available teams</text><polygon fill="#181818" points="39.5,914.4395,29.5,918.4395,39.5,922.4395,35.5,918.4395" style="stroke:#181818;stroke-width:1.0;"/><line style="stroke:#181818;stroke-width:1.0;stroke-dasharray:2.0,2.0;" x1="33.5" x2="270.5" y1="918.4395" y2="918.4395"/><text fill="#000000" font-family="sans-serif" font-size="13" font-weight="bold" lengthAdjust="spacing" textLength="14" x="45.5" y="904.5313">23</text><text fill="#000000" font-family="sans-serif" font-size="13" lengthAdjust="spacing" textLength="117" x="63.5" y="895.8857">lists available teams</text><text fill="#000000" font-family="sans-serif" font-size="13" lengthAdjust="spacing" textLength="132" x="63.5" y="913.1768">and asks to select one</text><polygon fill="#181818" points="254.5,945.7305,264.5,949.7305,254.5,953.7305,258.5,949.7305" style="stroke:#181818;stroke-width:1.0;"/><line style="stroke:#181818;stroke-width:1.0;" x1="28.5" x2="260.5" y1="949.7305" y2="949.7305"/><text fill="#000000" font-family="sans-serif" font-size="13" font-weight="bold" lengthAdjust="spacing" textLength="14" x="35.5" y="944.4678">24</text><text fill="#000000" font-family="sans-serif" font-size="13" lengthAdjust="spacing" textLength="140" x="53.5" y="944.4678">submitData (team, task)</text><polygon fill="#181818" points="464,977.0215,474,981.0215,464,985.0215,468,981.0215" style="stroke:#181818;stroke-width:1.0;"/><line style="stroke:#181818;stroke-width:1.0;" x1="276.5" x2="470" y1="981.0215" y2="981.0215"/><text fill="#000000" font-family="sans-serif" font-size="13" font-weight="bold" lengthAdjust="spacing" textLength="14" x="283.5" y="975.7588">25</text><text fill="#000000" font-family="sans-serif" font-size="13" lengthAdjust="spacing" textLength="125" x="301.5" y="975.7588">"assignTeamToTask()</text><polygon fill="#181818" points="807,1008.3125,817,1012.3125,807,1016.3125,811,1012.3125" style="stroke:#181818;stroke-width:1.0;"/><line style="stroke:#181818;stroke-width:1.0;" x1="486" x2="813" y1="1012.3125" y2="1012.3125"/><text fill="#000000" font-family="sans-serif" font-size="13" font-weight="bold" lengthAdjust="spacing" textLength="14" x="493" y="1007.0498">26</text><text fill="#000000" font-family="sans-serif" font-size="13" lengthAdjust="spacing" textLength="120" x="511" y="1007.0498">assignTeamToTask()</text><polygon fill="#181818" points="1339,1039.6035,1349,1043.6035,1339,1047.6035,1343,1043.6035" style="stroke:#181818;stroke-width:1.0;"/><line style="stroke:#181818;stroke-width:1.0;" x1="829" x2="1345" y1="1043.6035" y2="1043.6035"/><text fill="#000000" font-family="sans-serif" font-size="13" font-weight="bold" lengthAdjust="spacing" textLength="14" x="836" y="1038.3408">27</text><text fill="#000000" font-family="sans-serif" font-size="13" lengthAdjust="spacing" textLength="78" x="854" y="1038.3408">assignTeam()</text><line style="stroke:#181818;stroke-width:1.0;" x1="1361" x2="1403" y1="1074.8945" y2="1074.8945"/><line style="stroke:#181818;stroke-width:1.0;" x1="1403" x2="1403" y1="1074.8945" y2="1087.8945"/><line style="stroke:#181818;stroke-width:1.0;" x1="1362" x2="1403" y1="1087.8945" y2="1087.8945"/><polygon fill="#181818" points="1372,1083.8945,1362,1087.8945,1372,1091.8945,1368,1087.8945" style="stroke:#181818;stroke-width:1.0;"/><text fill="#000000" font-family="sans-serif" font-size="13" font-weight="bold" lengthAdjust="spacing" textLength="14" x="1368" y="1069.6318">28</text><text fill="#000000" font-family="sans-serif" font-size="13" lengthAdjust="spacing" textLength="153" x="1386" y="1069.6318">setTaskStatus(PLANNED)</text><polygon fill="#181818" points="840,1115.1855,830,1119.1855,840,1123.1855,836,1119.1855" style="stroke:#181818;stroke-width:1.0;"/><line style="stroke:#181818;stroke-width:1.0;stroke-dasharray:2.0,2.0;" x1="834" x2="1355" y1="1119.1855" y2="1119.1855"/><text fill="#000000" font-family="sans-serif" font-size="13" font-weight="bold" lengthAdjust="spacing" textLength="14" x="846" y="1113.9229">29</text><text fill="#000000" font-family="sans-serif" font-size="13" lengthAdjust="spacing" textLength="92" x="864" y="1113.9229">update success</text><polygon fill="#181818" points="497,1146.4766,487,1150.4766,497,1154.4766,493,1150.4766" style="stroke:#181818;stroke-width:1.0;"/><line style="stroke:#181818;stroke-width:1.0;stroke-dasharray:2.0,2.0;" x1="491" x2="823" y1="1150.4766" y2="1150.4766"/><text fill="#000000" font-family="sans-serif" font-size="13" font-weight="bold" lengthAdjust="spacing" textLength="14" x="503" y="1145.2139">30</text><text fill="#000000" font-family="sans-serif" font-size="13" lengthAdjust="spacing" textLength="92" x="521" y="1145.2139">update success</text><polygon fill="#181818" points="1534,1177.7676,1544,1181.7676,1534,1185.7676,1538,1181.7676" style="stroke:#181818;stroke-width:1.0;"/><line style="stroke:#181818;stroke-width:1.0;" x1="486" x2="1540" y1="1181.7676" y2="1181.7676"/><text fill="#000000" font-family="sans-serif" font-size="13" font-weight="bold" lengthAdjust="spacing" textLength="14" x="493" y="1176.5049">31</text><text fill="#000000" font-family="sans-serif" font-size="13" lengthAdjust="spacing" textLength="153" x="511" y="1176.5049">assignTaskToTeamEmail()</text><polygon fill="#181818" points="1749,1209.0586,1759,1213.0586,1749,1217.0586,1753,1213.0586" style="stroke:#181818;stroke-width:1.0;"/><line style="stroke:#181818;stroke-width:1.0;" x1="1556" x2="1755" y1="1213.0586" y2="1213.0586"/><text fill="#000000" font-family="sans-serif" font-size="13" font-weight="bold" lengthAdjust="spacing" textLength="14" x="1563" y="1207.7959">32</text><text fill="#000000" font-family="sans-serif" font-size="13" lengthAdjust="spacing" textLength="101" x="1581" y="1207.7959">sendEmailTeam()</text><polygon fill="#181818" points="1939,1240.3496,1949,1244.3496,1939,1248.3496,1943,1244.3496" style="stroke:#181818;stroke-width:1.0;"/><line style="stroke:#181818;stroke-width:1.0;" x1="1771" x2="1945" y1="1244.3496" y2="1244.3496"/><text fill="#000000" font-family="sans-serif" font-size="13" font-weight="bold" lengthAdjust="spacing" textLength="14" x="1778" y="1239.0869">33</text><text fill="#000000" font-family="sans-serif" font-size="13" lengthAdjust="spacing" textLength="143" x="1796" y="1239.0869">loadValidEmailServices()</text><polygon fill="#181818" points="1782,1271.6406,1772,1275.6406,1782,1279.6406,1778,1275.6406" style="stroke:#181818;stroke-width:1.0;"/><line style="stroke:#181818;stroke-width:1.0;stroke-dasharray:2.0,2.0;" x1="1776" x2="1955" y1="1275.6406" y2="1275.6406"/><text fill="#000000" font-family="sans-serif" font-size="13" font-weight="bold" lengthAdjust="spacing" textLength="14" x="1788" y="1270.3779">34</text><text fill="#000000" font-family="sans-serif" font-size="13" lengthAdjust="spacing" textLength="107" x="1806" y="1270.3779">validEmailServices</text><polygon fill="#181818" points="1567,1302.9316,1557,1306.9316,1567,1310.9316,1563,1306.9316" style="stroke:#181818;stroke-width:1.0;"/><line style="stroke:#181818;stroke-width:1.0;stroke-dasharray:2.0,2.0;" x1="1561" x2="1765" y1="1306.9316" y2="1306.9316"/><text fill="#000000" font-family="sans-serif" font-size="13" font-weight="bold" lengthAdjust="spacing" textLength="14" x="1573" y="1301.6689">35</text><text fill="#000000" font-family="sans-serif" font-size="13" lengthAdjust="spacing" textLength="163" x="1591" y="1301.6689">email sent to assignedTeam</text><polygon fill="#181818" points="497,1334.2227,487,1338.2227,497,1342.2227,493,1338.2227" style="stroke:#181818;stroke-width:1.0;"/><line style="stroke:#181818;stroke-width:1.0;stroke-dasharray:2.0,2.0;" x1="491" x2="1550" y1="1338.2227" y2="1338.2227"/><text fill="#000000" font-family="sans-serif" font-size="13" font-weight="bold" lengthAdjust="spacing" textLength="14" x="503" y="1332.96">36</text><text fill="#000000" font-family="sans-serif" font-size="13" lengthAdjust="spacing" textLength="163" x="521" y="1332.96">email sent to assignedTeam</text><polygon fill="#181818" points="287.5,1365.5137,277.5,1369.5137,287.5,1373.5137,283.5,1369.5137" style="stroke:#181818;stroke-width:1.0;"/><line style="stroke:#181818;stroke-width:1.0;stroke-dasharray:2.0,2.0;" x1="281.5" x2="480" y1="1369.5137" y2="1369.5137"/><text fill="#000000" font-family="sans-serif" font-size="13" font-weight="bold" lengthAdjust="spacing" textLength="14" x="293.5" y="1364.251">37</text><text fill="#000000" font-family="sans-serif" font-size="13" lengthAdjust="spacing" textLength="92" x="311.5" y="1364.251">update success</text><polygon fill="#181818" points="34.5,1414.0957,24.5,1418.0957,34.5,1422.0957,30.5,1418.0957" style="stroke:#181818;stroke-width:1.0;"/><line style="stroke:#181818;stroke-width:1.0;stroke-dasharray:2.0,2.0;" x1="28.5" x2="270.5" y1="1418.0957" y2="1418.0957"/><text fill="#000000" font-family="sans-serif" font-size="13" font-weight="bold" lengthAdjust="spacing" textLength="14" x="40.5" y="1404.1875">38</text><text fill="#000000" font-family="sans-serif" font-size="13" lengthAdjust="spacing" textLength="117" x="58.5" y="1395.542">update success and</text><text fill="#000000" font-family="sans-serif" font-size="13" lengthAdjust="spacing" textLength="158" x="58.5" y="1412.833">emailSentToTeamMembers</text><!--SRC=[pLZ1Rjim3BtxAuXSrWBD3-Gm8DYw8i3Q3KksKozgp3X2PIcpv6pz-r5od5Yo72lTCDI70BR9H_BnIPIZdxdSiOgLK2gfrjjAbGYcgZ7JnpSxjdvc1IxDYq2eS6sOB4JNG6zPhdvnMS262OrPncgZP5q-OPLbxxOyHzWePPxKxuojZQfWShUydsJaRFYQxvWqC9dDjUQ5N24hLsh5zFD2hhOuBr3cxFjY0ap3zyMWomSbJQM4mCfPdcu3Zs-uKvfJ2Xori-m-26ohpgj7wRi6fhVbJgWNH0VPtWGsTnMYN1ANU4HwSVQn5u6lvIFmyX-5zaH9QEyzoY81Zh1PPjl4zymWKAEo2ZUWzbZPcnlg0inWjUKQh96IvANh4ZMOBJFqWr1hijqI61CLilm5X2eAp87BB2C8cBvlG1QI6qv1o9MIipZKpH8f8QE0WQ5Ku55owK2PKq86T1sJ8q6u1uUBG0bwqjN2ZFJwiqPjR5rNrrrhyA2wNZqh3zA6yBGmWmBDGcfQ5ckCnEZ7ygKqPE-RmJIepPRMqUuGIewfSNjLdbq1uChsLPLK_FbrDKZ6-MIc_SO7Wa_XvxBKNiMNjshV5b_-Xl8s-8hjZM-AjUZc_H-uYq-JW3ETH5KKQfYYUEG8DO9h0shJeIXjbuhdCqv9E2GT6Sq18ec7m7-OWJ1Gl_QsT3l2D1mcsFmqmSOe64l5hxsTfvT4xKOR67rsd3gfqLdjWAvZs3IZcSp1lQ31hL7G4H6Kn2mUZwPsznJGsEjsu6_e1Eh0RRmirYZo7nlwrdU-Prom9u5s4EX_D_l3irKZCo7SoTMIa2Os7-MCs89myHGiTL_eY2ROxapuFjYWSbdBdZkRfItSiPhEgtOiOhfYhRfQlGQeVwDLachzL7BpaHa6LnRknl5-_IgLpc32WY-UVwVHu_V831A2z8CT_OUbTFhaQVTUBzYPCF6TTp9gtvYTmhczmvsebeQPMbzz_Jn_UBZzU9sCv555SFKkj_deUaspIe_2X3js6biz7IH6xKORxaz42hG0bbZj-ThLU6WHfKjwe4QvzucYw22T9IS8UaoZQPdCtSt5AcaWHXrE2KpQDRVXnISkNFb2iVm74pplfgWJyeYko1OusTlBPkeHi-zbbOmQR8qNPNMaAYOMjFUsPSqdkPCEvhPp5osEXCw5akdFz5VaqijXLBr_Fyv6LlEbKyo70pky7YKsjKZJBE5xjF-qwU4HThY25_QldJy0]--></g></svg>