<?xml version="1.0" encoding="us-ascii" standalone="no"?><svg xmlns="http://www.w3.org/2000/svg" xmlns:xlink="http://www.w3.org/1999/xlink" contentStyleType="text/css" height="1756px" preserveAspectRatio="none" style="width:835px;height:1756px;background:#FFFFFF;" version="1.1" viewBox="0 0 835 1756" width="835px" zoomAndPan="magnify"><defs/><g><!--class GSMUI--><g id="elem_GSMUI"><rect codeLine="11" fill="#F1F1F1" height="48" id="GSMUI" rx="2.5" ry="2.5" style="stroke:#181818;stroke-width:0.5;" width="75" x="212" y="7"/><ellipse cx="227" cy="23" fill="#ADD1B2" rx="11" ry="11" style="stroke:#181818;stroke-width:1.0;"/><path d="M229.7656,18.875 Q229.9219,18.6563 230.1094,18.5469 Q230.2969,18.4375 230.5156,18.4375 Q230.8906,18.4375 231.125,18.7031 Q231.3594,18.9531 231.3594,19.5625 L231.3594,21.0156 Q231.3594,21.625 231.125,21.8906 Q230.8906,22.1563 230.5156,22.1563 Q230.1719,22.1563 229.9688,21.9531 Q229.7656,21.7656 229.6563,21.25 Q229.6094,20.8906 229.4219,20.7031 Q229.0938,20.3281 228.4844,20.1094 Q227.875,19.8906 227.25,19.8906 Q226.4844,19.8906 225.8438,20.2188 Q225.2188,20.5469 224.7188,21.2969 Q224.2344,22.0469 224.2344,23.0781 L224.2344,24.1719 Q224.2344,25.4063 225.125,26.2344 Q226.0156,27.0469 227.6094,27.0469 Q228.5469,27.0469 229.2031,26.7969 Q229.5938,26.6406 230.0156,26.2031 Q230.2813,25.9375 230.4219,25.8594 Q230.5781,25.7813 230.7813,25.7813 Q231.1094,25.7813 231.3594,26.0469 Q231.625,26.2969 231.625,26.6406 Q231.625,26.9844 231.2813,27.3906 Q230.7813,27.9688 229.9844,28.2969 Q228.9063,28.75 227.6094,28.75 Q226.0938,28.75 224.8906,28.125 Q223.9063,27.625 223.2188,26.5625 Q222.5313,25.4844 222.5313,24.2031 L222.5313,23.0469 Q222.5313,21.7188 223.1406,20.5781 Q223.7656,19.4219 224.8594,18.8125 Q225.9531,18.1875 227.1875,18.1875 Q227.9219,18.1875 228.5625,18.3594 Q229.2188,18.5156 229.7656,18.875 Z " fill="#000000"/><text fill="#000000" font-family="sans-serif" font-size="14" lengthAdjust="spacing" textLength="43" x="241" y="28.7969">GSMUI</text><line style="stroke:#181818;stroke-width:0.5;" x1="213" x2="286" y1="39" y2="39"/><line style="stroke:#181818;stroke-width:0.5;" x1="213" x2="286" y1="47" y2="47"/></g><!--class AssignTeamToTaskInTheAgendaUI--><g id="elem_AssignTeamToTaskInTheAgendaUI"><rect codeLine="14" fill="#F1F1F1" height="159.7266" id="AssignTeamToTaskInTheAgendaUI" rx="2.5" ry="2.5" style="stroke:#181818;stroke-width:0.5;" width="255" x="122" y="116"/><ellipse cx="137" cy="132" fill="#ADD1B2" rx="11" ry="11" style="stroke:#181818;stroke-width:1.0;"/><path d="M139.7656,127.875 Q139.9219,127.6563 140.1094,127.5469 Q140.2969,127.4375 140.5156,127.4375 Q140.8906,127.4375 141.125,127.7031 Q141.3594,127.9531 141.3594,128.5625 L141.3594,130.0156 Q141.3594,130.625 141.125,130.8906 Q140.8906,131.1563 140.5156,131.1563 Q140.1719,131.1563 139.9688,130.9531 Q139.7656,130.7656 139.6563,130.25 Q139.6094,129.8906 139.4219,129.7031 Q139.0938,129.3281 138.4844,129.1094 Q137.875,128.8906 137.25,128.8906 Q136.4844,128.8906 135.8438,129.2188 Q135.2188,129.5469 134.7188,130.2969 Q134.2344,131.0469 134.2344,132.0781 L134.2344,133.1719 Q134.2344,134.4063 135.125,135.2344 Q136.0156,136.0469 137.6094,136.0469 Q138.5469,136.0469 139.2031,135.7969 Q139.5938,135.6406 140.0156,135.2031 Q140.2813,134.9375 140.4219,134.8594 Q140.5781,134.7813 140.7813,134.7813 Q141.1094,134.7813 141.3594,135.0469 Q141.625,135.2969 141.625,135.6406 Q141.625,135.9844 141.2813,136.3906 Q140.7813,136.9688 139.9844,137.2969 Q138.9063,137.75 137.6094,137.75 Q136.0938,137.75 134.8906,137.125 Q133.9063,136.625 133.2188,135.5625 Q132.5313,134.4844 132.5313,133.2031 L132.5313,132.0469 Q132.5313,130.7188 133.1406,129.5781 Q133.7656,128.4219 134.8594,127.8125 Q135.9531,127.1875 137.1875,127.1875 Q137.9219,127.1875 138.5625,127.3594 Q139.2188,127.5156 139.7656,127.875 Z " fill="#000000"/><text fill="#000000" font-family="sans-serif" font-size="14" lengthAdjust="spacing" textLength="223" x="151" y="137.7969">AssignTeamToTaskInTheAgendaUI</text><line style="stroke:#181818;stroke-width:0.5;" x1="123" x2="376" y1="148" y2="148"/><line style="stroke:#181818;stroke-width:0.5;" x1="123" x2="376" y1="156" y2="156"/><text fill="#000000" font-family="sans-serif" font-size="14" lengthAdjust="spacing" textLength="39" x="128" y="175.1074">+run()</text><text fill="#000000" font-family="sans-serif" font-size="14" lengthAdjust="spacing" textLength="158" x="128" y="193.7285">+AssignTeamController()</text><text fill="#000000" font-family="sans-serif" font-size="14" lengthAdjust="spacing" textLength="143" x="128" y="212.3496">+assignTeamToTask()</text><text fill="#000000" font-family="sans-serif" font-size="14" lengthAdjust="spacing" textLength="94" x="128" y="230.9707">-requestTask()</text><text fill="#000000" font-family="sans-serif" font-size="14" lengthAdjust="spacing" textLength="99" x="128" y="249.5918">-requestTeam()</text><text fill="#000000" font-family="sans-serif" font-size="14" lengthAdjust="spacing" textLength="151" x="128" y="268.2129">-submitData(team, task)</text></g><!--class AssignTeamController--><g id="elem_AssignTeamController"><rect codeLine="23" fill="#F1F1F1" height="234.2109" id="AssignTeamController" rx="2.5" ry="2.5" style="stroke:#181818;stroke-width:0.5;" width="195" x="152" y="337"/><ellipse cx="177.35" cy="353" fill="#ADD1B2" rx="11" ry="11" style="stroke:#181818;stroke-width:1.0;"/><path d="M180.1156,348.875 Q180.2719,348.6563 180.4594,348.5469 Q180.6469,348.4375 180.8656,348.4375 Q181.2406,348.4375 181.475,348.7031 Q181.7094,348.9531 181.7094,349.5625 L181.7094,351.0156 Q181.7094,351.625 181.475,351.8906 Q181.2406,352.1563 180.8656,352.1563 Q180.5219,352.1563 180.3188,351.9531 Q180.1156,351.7656 180.0063,351.25 Q179.9594,350.8906 179.7719,350.7031 Q179.4438,350.3281 178.8344,350.1094 Q178.225,349.8906 177.6,349.8906 Q176.8344,349.8906 176.1938,350.2188 Q175.5688,350.5469 175.0688,351.2969 Q174.5844,352.0469 174.5844,353.0781 L174.5844,354.1719 Q174.5844,355.4063 175.475,356.2344 Q176.3656,357.0469 177.9594,357.0469 Q178.8969,357.0469 179.5531,356.7969 Q179.9438,356.6406 180.3656,356.2031 Q180.6313,355.9375 180.7719,355.8594 Q180.9281,355.7813 181.1313,355.7813 Q181.4594,355.7813 181.7094,356.0469 Q181.975,356.2969 181.975,356.6406 Q181.975,356.9844 181.6313,357.3906 Q181.1313,357.9688 180.3344,358.2969 Q179.2563,358.75 177.9594,358.75 Q176.4438,358.75 175.2406,358.125 Q174.2563,357.625 173.5688,356.5625 Q172.8813,355.4844 172.8813,354.2031 L172.8813,353.0469 Q172.8813,351.7188 173.4906,350.5781 Q174.1156,349.4219 175.2094,348.8125 Q176.3031,348.1875 177.5375,348.1875 Q178.2719,348.1875 178.9125,348.3594 Q179.5688,348.5156 180.1156,348.875 Z " fill="#000000"/><text fill="#000000" font-family="sans-serif" font-size="14" lengthAdjust="spacing" textLength="140" x="193.65" y="358.7969">AssignTeamController</text><line style="stroke:#181818;stroke-width:0.5;" x1="153" x2="346" y1="369" y2="369"/><line style="stroke:#181818;stroke-width:0.5;" x1="153" x2="346" y1="377" y2="377"/><text fill="#000000" font-family="sans-serif" font-size="14" lengthAdjust="spacing" textLength="157" x="158" y="396.1074">+assignTeamController()</text><text fill="#000000" font-family="sans-serif" font-size="14" lengthAdjust="spacing" textLength="143" x="158" y="414.7285">+assignTeamToTask()</text><text fill="#000000" font-family="sans-serif" font-size="14" lengthAdjust="spacing" textLength="135" x="158" y="433.3496">+listAvailableTeams()</text><text fill="#000000" font-family="sans-serif" font-size="14" lengthAdjust="spacing" textLength="139" x="158" y="451.9707">+listUnfinishedTasks()</text><text fill="#000000" font-family="sans-serif" font-size="14" lengthAdjust="spacing" textLength="87" x="158" y="470.5918">+getAgenda()</text><text fill="#000000" font-family="sans-serif" font-size="14" lengthAdjust="spacing" textLength="164" x="158" y="489.2129">+loadValidEmailServices()</text><text fill="#000000" font-family="sans-serif" font-size="14" lengthAdjust="spacing" textLength="81" x="158" y="507.834">+validEmail()</text><text fill="#000000" font-family="sans-serif" font-size="14" lengthAdjust="spacing" textLength="134" x="158" y="526.4551">-getTaskRepository()</text><text fill="#000000" font-family="sans-serif" font-size="14" lengthAdjust="spacing" textLength="139" x="158" y="545.0762">-getTeamRepository()</text><text fill="#000000" font-family="sans-serif" font-size="14" lengthAdjust="spacing" textLength="183" x="158" y="563.6973">-getGreenSpaceRepository()</text></g><!--class EmailService--><g id="elem_EmailService"><rect codeLine="36" fill="#F1F1F1" height="66.6211" id="EmailService" rx="2.5" ry="2.5" style="stroke:#181818;stroke-width:0.5;" width="189" x="7" y="678.5"/><ellipse cx="57.25" cy="694.5" fill="#B4A7E5" rx="11" ry="11" style="stroke:#181818;stroke-width:1.0;"/><path d="M58.2031,691.1406 L58.2031,697.7969 L59.9219,697.7969 Q60.5313,697.7969 60.7969,698.0313 Q61.0625,698.2656 61.0625,698.6563 Q61.0625,699.0313 60.7969,699.2656 Q60.5313,699.5 59.9219,699.5 L54.7813,699.5 Q54.1719,699.5 53.9063,699.2656 Q53.6406,699.0313 53.6406,698.6406 Q53.6406,698.2656 53.9063,698.0313 Q54.1719,697.7969 54.7813,697.7969 L56.5,697.7969 L56.5,691.1406 L54.7813,691.1406 Q54.1719,691.1406 53.9063,690.9063 Q53.6406,690.6719 53.6406,690.2813 Q53.6406,689.9063 53.9063,689.6719 Q54.1719,689.4375 54.7813,689.4375 L59.9219,689.4375 Q60.5313,689.4375 60.7969,689.6719 Q61.0625,689.9063 61.0625,690.2813 Q61.0625,690.6719 60.7969,690.9063 Q60.5313,691.1406 59.9219,691.1406 L58.2031,691.1406 Z " fill="#000000"/><text fill="#000000" font-family="sans-serif" font-size="14" font-style="italic" lengthAdjust="spacing" textLength="80" x="77.75" y="700.2969">EmailService</text><line style="stroke:#181818;stroke-width:0.5;" x1="8" x2="195" y1="710.5" y2="710.5"/><line style="stroke:#181818;stroke-width:0.5;" x1="8" x2="195" y1="718.5" y2="718.5"/><text fill="#000000" font-family="sans-serif" font-size="14" lengthAdjust="spacing" textLength="177" x="13" y="737.6074">+assignTaskToTeamEmail()</text></g><!--class Email--><g id="elem_Email"><rect codeLine="40" fill="#F1F1F1" height="141.1055" id="Email" rx="2.5" ry="2.5" style="stroke:#181818;stroke-width:0.5;" width="189" x="7" y="871.5"/><ellipse cx="80.25" cy="887.5" fill="#ADD1B2" rx="11" ry="11" style="stroke:#181818;stroke-width:1.0;"/><path d="M83.0156,883.375 Q83.1719,883.1563 83.3594,883.0469 Q83.5469,882.9375 83.7656,882.9375 Q84.1406,882.9375 84.375,883.2031 Q84.6094,883.4531 84.6094,884.0625 L84.6094,885.5156 Q84.6094,886.125 84.375,886.3906 Q84.1406,886.6563 83.7656,886.6563 Q83.4219,886.6563 83.2188,886.4531 Q83.0156,886.2656 82.9063,885.75 Q82.8594,885.3906 82.6719,885.2031 Q82.3438,884.8281 81.7344,884.6094 Q81.125,884.3906 80.5,884.3906 Q79.7344,884.3906 79.0938,884.7188 Q78.4688,885.0469 77.9688,885.7969 Q77.4844,886.5469 77.4844,887.5781 L77.4844,888.6719 Q77.4844,889.9063 78.375,890.7344 Q79.2656,891.5469 80.8594,891.5469 Q81.7969,891.5469 82.4531,891.2969 Q82.8438,891.1406 83.2656,890.7031 Q83.5313,890.4375 83.6719,890.3594 Q83.8281,890.2813 84.0313,890.2813 Q84.3594,890.2813 84.6094,890.5469 Q84.875,890.7969 84.875,891.1406 Q84.875,891.4844 84.5313,891.8906 Q84.0313,892.4688 83.2344,892.7969 Q82.1563,893.25 80.8594,893.25 Q79.3438,893.25 78.1406,892.625 Q77.1563,892.125 76.4688,891.0625 Q75.7813,889.9844 75.7813,888.7031 L75.7813,887.5469 Q75.7813,886.2188 76.3906,885.0781 Q77.0156,883.9219 78.1094,883.3125 Q79.2031,882.6875 80.4375,882.6875 Q81.1719,882.6875 81.8125,882.8594 Q82.4688,883.0156 83.0156,883.375 Z " fill="#000000"/><text fill="#000000" font-family="sans-serif" font-size="14" lengthAdjust="spacing" textLength="34" x="100.75" y="893.2969">Email</text><line style="stroke:#181818;stroke-width:0.5;" x1="8" x2="195" y1="903.5" y2="903.5"/><line style="stroke:#181818;stroke-width:0.5;" x1="8" x2="195" y1="911.5" y2="911.5"/><text fill="#000000" font-family="sans-serif" font-size="14" lengthAdjust="spacing" textLength="177" x="13" y="930.6074">+assignTaskToTeamEmail()</text><text fill="#000000" font-family="sans-serif" font-size="14" lengthAdjust="spacing" textLength="116" x="13" y="949.2285">-sendEmailTeam()</text><text fill="#000000" font-family="sans-serif" font-size="14" lengthAdjust="spacing" textLength="170" x="13" y="967.8496">-loadValidEmailServices() {</text><text fill="#000000" font-family="sans-serif" font-size="14" lengthAdjust="spacing" textLength="78" x="13" y="986.4707">-validEmail()</text><text fill="#000000" font-family="sans-serif" font-size="14" lengthAdjust="spacing" textLength="112" x="13" y="1005.0918">-createEmailFile()</text></g><!--class Employee--><g id="elem_Employee"><rect codeLine="48" fill="#F1F1F1" height="66.6211" id="Employee" rx="2.5" ry="2.5" style="stroke:#181818;stroke-width:0.5;" width="220" x="348.5" y="1092"/><ellipse cx="423.25" cy="1108" fill="#ADD1B2" rx="11" ry="11" style="stroke:#181818;stroke-width:1.0;"/><path d="M426.0156,1103.875 Q426.1719,1103.6563 426.3594,1103.5469 Q426.5469,1103.4375 426.7656,1103.4375 Q427.1406,1103.4375 427.375,1103.7031 Q427.6094,1103.9531 427.6094,1104.5625 L427.6094,1106.0156 Q427.6094,1106.625 427.375,1106.8906 Q427.1406,1107.1563 426.7656,1107.1563 Q426.4219,1107.1563 426.2188,1106.9531 Q426.0156,1106.7656 425.9063,1106.25 Q425.8594,1105.8906 425.6719,1105.7031 Q425.3438,1105.3281 424.7344,1105.1094 Q424.125,1104.8906 423.5,1104.8906 Q422.7344,1104.8906 422.0938,1105.2188 Q421.4688,1105.5469 420.9688,1106.2969 Q420.4844,1107.0469 420.4844,1108.0781 L420.4844,1109.1719 Q420.4844,1110.4063 421.375,1111.2344 Q422.2656,1112.0469 423.8594,1112.0469 Q424.7969,1112.0469 425.4531,1111.7969 Q425.8438,1111.6406 426.2656,1111.2031 Q426.5313,1110.9375 426.6719,1110.8594 Q426.8281,1110.7813 427.0313,1110.7813 Q427.3594,1110.7813 427.6094,1111.0469 Q427.875,1111.2969 427.875,1111.6406 Q427.875,1111.9844 427.5313,1112.3906 Q427.0313,1112.9688 426.2344,1113.2969 Q425.1563,1113.75 423.8594,1113.75 Q422.3438,1113.75 421.1406,1113.125 Q420.1563,1112.625 419.4688,1111.5625 Q418.7813,1110.4844 418.7813,1109.2031 L418.7813,1108.0469 Q418.7813,1106.7188 419.3906,1105.5781 Q420.0156,1104.4219 421.1094,1103.8125 Q422.2031,1103.1875 423.4375,1103.1875 Q424.1719,1103.1875 424.8125,1103.3594 Q425.4688,1103.5156 426.0156,1103.875 Z " fill="#000000"/><text fill="#000000" font-family="sans-serif" font-size="14" lengthAdjust="spacing" textLength="62" x="443.75" y="1113.7969">Employee</text><line style="stroke:#181818;stroke-width:0.5;" x1="349.5" x2="567.5" y1="1124" y2="1124"/><line style="stroke:#181818;stroke-width:0.5;" x1="349.5" x2="567.5" y1="1132" y2="1132"/><text fill="#000000" font-family="sans-serif" font-size="14" lengthAdjust="spacing" textLength="208" x="354.5" y="1151.1074">+assignTeamToTask(team, task)</text></g><!--class Task--><g id="elem_Task"><rect codeLine="52" fill="#F1F1F1" height="383.1797" id="Task" rx="2.5" ry="2.5" style="stroke:#181818;stroke-width:0.5;" width="257" x="330" y="1366"/><ellipse cx="438.75" cy="1382" fill="#ADD1B2" rx="11" ry="11" style="stroke:#181818;stroke-width:1.0;"/><path d="M441.5156,1377.875 Q441.6719,1377.6563 441.8594,1377.5469 Q442.0469,1377.4375 442.2656,1377.4375 Q442.6406,1377.4375 442.875,1377.7031 Q443.1094,1377.9531 443.1094,1378.5625 L443.1094,1380.0156 Q443.1094,1380.625 442.875,1380.8906 Q442.6406,1381.1563 442.2656,1381.1563 Q441.9219,1381.1563 441.7188,1380.9531 Q441.5156,1380.7656 441.4063,1380.25 Q441.3594,1379.8906 441.1719,1379.7031 Q440.8438,1379.3281 440.2344,1379.1094 Q439.625,1378.8906 439,1378.8906 Q438.2344,1378.8906 437.5938,1379.2188 Q436.9688,1379.5469 436.4688,1380.2969 Q435.9844,1381.0469 435.9844,1382.0781 L435.9844,1383.1719 Q435.9844,1384.4063 436.875,1385.2344 Q437.7656,1386.0469 439.3594,1386.0469 Q440.2969,1386.0469 440.9531,1385.7969 Q441.3438,1385.6406 441.7656,1385.2031 Q442.0313,1384.9375 442.1719,1384.8594 Q442.3281,1384.7813 442.5313,1384.7813 Q442.8594,1384.7813 443.1094,1385.0469 Q443.375,1385.2969 443.375,1385.6406 Q443.375,1385.9844 443.0313,1386.3906 Q442.5313,1386.9688 441.7344,1387.2969 Q440.6563,1387.75 439.3594,1387.75 Q437.8438,1387.75 436.6406,1387.125 Q435.6563,1386.625 434.9688,1385.5625 Q434.2813,1384.4844 434.2813,1383.2031 L434.2813,1382.0469 Q434.2813,1380.7188 434.8906,1379.5781 Q435.5156,1378.4219 436.6094,1377.8125 Q437.7031,1377.1875 438.9375,1377.1875 Q439.6719,1377.1875 440.3125,1377.3594 Q440.9688,1377.5156 441.5156,1377.875 Z " fill="#000000"/><text fill="#000000" font-family="sans-serif" font-size="14" lengthAdjust="spacing" textLength="31" x="459.25" y="1387.7969">Task</text><line style="stroke:#181818;stroke-width:0.5;" x1="331" x2="586" y1="1398" y2="1398"/><text fill="#000000" font-family="sans-serif" font-size="14" lengthAdjust="spacing" textLength="76" x="336" y="1417.1074">-title : String</text><text fill="#000000" font-family="sans-serif" font-size="14" lengthAdjust="spacing" textLength="123" x="336" y="1435.7285">-description : String</text><text fill="#000000" font-family="sans-serif" font-size="14" lengthAdjust="spacing" textLength="105" x="336" y="1454.3496">-startDate : Date</text><text fill="#000000" font-family="sans-serif" font-size="14" lengthAdjust="spacing" textLength="101" x="336" y="1472.9707">-endDate : Date</text><text fill="#000000" font-family="sans-serif" font-size="14" lengthAdjust="spacing" textLength="155" x="336" y="1491.5918">-taskStatus : EnumName</text><text fill="#000000" font-family="sans-serif" font-size="14" lengthAdjust="spacing" textLength="81" x="336" y="1510.2129">-type : String</text><text fill="#000000" font-family="sans-serif" font-size="14" lengthAdjust="spacing" textLength="174" x="336" y="1528.834">-greenSpace : GreenSpace</text><text fill="#000000" font-family="sans-serif" font-size="14" lengthAdjust="spacing" textLength="167" x="336" y="1547.4551">-taskUrgency : EnumName</text><text fill="#000000" font-family="sans-serif" font-size="14" lengthAdjust="spacing" textLength="146" x="336" y="1566.0762">-assignedTeam : Team</text><text fill="#000000" font-family="sans-serif" font-size="14" lengthAdjust="spacing" textLength="245" x="336" y="1584.6973">-assignedVehicles : ArrayList&lt;Vehicle&gt;</text><text fill="#000000" font-family="sans-serif" font-size="14" lengthAdjust="spacing" textLength="71" x="336" y="1603.3184">-taskID : int</text><text fill="#000000" font-family="sans-serif" font-size="14" lengthAdjust="spacing" textLength="165" x="336" y="1621.9395">-taskPosition : EnumName</text><line style="stroke:#181818;stroke-width:0.5;" x1="331" x2="586" y1="1629.4531" y2="1629.4531"/><text fill="#000000" font-family="sans-serif" font-size="14" lengthAdjust="spacing" textLength="95" x="336" y="1648.5605">+assignTeam()</text><text fill="#000000" font-family="sans-serif" font-size="14" lengthAdjust="spacing" textLength="108" x="336" y="1667.1816">+setTaskStatus()</text><text fill="#000000" font-family="sans-serif" font-size="14" lengthAdjust="spacing" textLength="119" x="336" y="1685.8027">+getTaskPosition()</text><text fill="#000000" font-family="sans-serif" font-size="14" lengthAdjust="spacing" textLength="92" x="336" y="1704.4238">+setEndDate()</text><text fill="#000000" font-family="sans-serif" font-size="14" lengthAdjust="spacing" textLength="94" x="336" y="1723.0449">+taskOverlap()</text><text fill="#000000" font-family="sans-serif" font-size="14" lengthAdjust="spacing" textLength="126" x="336" y="1741.666">-calculateEndDate()</text></g><!--class TaskRepository--><g id="elem_TaskRepository"><rect codeLine="75" fill="#F1F1F1" height="178.3477" id="TaskRepository" rx="2.5" ry="2.5" style="stroke:#181818;stroke-width:0.5;" width="140" x="302.5" y="853"/><ellipse cx="321.55" cy="869" fill="#ADD1B2" rx="11" ry="11" style="stroke:#181818;stroke-width:1.0;"/><path d="M324.3156,864.875 Q324.4719,864.6563 324.6594,864.5469 Q324.8469,864.4375 325.0656,864.4375 Q325.4406,864.4375 325.675,864.7031 Q325.9094,864.9531 325.9094,865.5625 L325.9094,867.0156 Q325.9094,867.625 325.675,867.8906 Q325.4406,868.1563 325.0656,868.1563 Q324.7219,868.1563 324.5188,867.9531 Q324.3156,867.7656 324.2063,867.25 Q324.1594,866.8906 323.9719,866.7031 Q323.6438,866.3281 323.0344,866.1094 Q322.425,865.8906 321.8,865.8906 Q321.0344,865.8906 320.3938,866.2188 Q319.7688,866.5469 319.2688,867.2969 Q318.7844,868.0469 318.7844,869.0781 L318.7844,870.1719 Q318.7844,871.4063 319.675,872.2344 Q320.5656,873.0469 322.1594,873.0469 Q323.0969,873.0469 323.7531,872.7969 Q324.1438,872.6406 324.5656,872.2031 Q324.8313,871.9375 324.9719,871.8594 Q325.1281,871.7813 325.3313,871.7813 Q325.6594,871.7813 325.9094,872.0469 Q326.175,872.2969 326.175,872.6406 Q326.175,872.9844 325.8313,873.3906 Q325.3313,873.9688 324.5344,874.2969 Q323.4563,874.75 322.1594,874.75 Q320.6438,874.75 319.4406,874.125 Q318.4563,873.625 317.7688,872.5625 Q317.0813,871.4844 317.0813,870.2031 L317.0813,869.0469 Q317.0813,867.7188 317.6906,866.5781 Q318.3156,865.4219 319.4094,864.8125 Q320.5031,864.1875 321.7375,864.1875 Q322.4719,864.1875 323.1125,864.3594 Q323.7688,864.5156 324.3156,864.875 Z " fill="#000000"/><text fill="#000000" font-family="sans-serif" font-size="14" lengthAdjust="spacing" textLength="99" x="336.45" y="874.7969">TaskRepository</text><line style="stroke:#181818;stroke-width:0.5;" x1="303.5" x2="441.5" y1="885" y2="885"/><line style="stroke:#181818;stroke-width:0.5;" x1="303.5" x2="441.5" y1="893" y2="893"/><text fill="#000000" font-family="sans-serif" font-size="14" lengthAdjust="spacing" textLength="87" x="308.5" y="912.1074">+getAgenda()</text><text fill="#000000" font-family="sans-serif" font-size="14" lengthAdjust="spacing" textLength="93" x="308.5" y="930.7285">+updateTask()</text><text fill="#000000" font-family="sans-serif" font-size="14" lengthAdjust="spacing" textLength="115" x="308.5" y="949.3496">+teamAvailability()</text><text fill="#000000" font-family="sans-serif" font-size="14" lengthAdjust="spacing" textLength="127" x="308.5" y="967.9707">+getAllTeamTasks()</text><text fill="#000000" font-family="sans-serif" font-size="14" lengthAdjust="spacing" textLength="128" x="308.5" y="986.5918">+getPlannedTasks()</text><text fill="#000000" font-family="sans-serif" font-size="14" lengthAdjust="spacing" textLength="128" x="308.5" y="1005.2129">+getPendingTasks()</text><text fill="#000000" font-family="sans-serif" font-size="14" lengthAdjust="spacing" textLength="91" x="308.5" y="1023.834">+existsTasks()</text></g><!--class TeamRepository--><g id="elem_TeamRepository"><rect codeLine="85" fill="#F1F1F1" height="85.2422" id="TeamRepository" rx="2.5" ry="2.5" style="stroke:#181818;stroke-width:0.5;" width="136" x="477.5" y="899.5"/><ellipse cx="492.5" cy="915.5" fill="#ADD1B2" rx="11" ry="11" style="stroke:#181818;stroke-width:1.0;"/><path d="M495.2656,911.375 Q495.4219,911.1563 495.6094,911.0469 Q495.7969,910.9375 496.0156,910.9375 Q496.3906,910.9375 496.625,911.2031 Q496.8594,911.4531 496.8594,912.0625 L496.8594,913.5156 Q496.8594,914.125 496.625,914.3906 Q496.3906,914.6563 496.0156,914.6563 Q495.6719,914.6563 495.4688,914.4531 Q495.2656,914.2656 495.1563,913.75 Q495.1094,913.3906 494.9219,913.2031 Q494.5938,912.8281 493.9844,912.6094 Q493.375,912.3906 492.75,912.3906 Q491.9844,912.3906 491.3438,912.7188 Q490.7188,913.0469 490.2188,913.7969 Q489.7344,914.5469 489.7344,915.5781 L489.7344,916.6719 Q489.7344,917.9063 490.625,918.7344 Q491.5156,919.5469 493.1094,919.5469 Q494.0469,919.5469 494.7031,919.2969 Q495.0938,919.1406 495.5156,918.7031 Q495.7813,918.4375 495.9219,918.3594 Q496.0781,918.2813 496.2813,918.2813 Q496.6094,918.2813 496.8594,918.5469 Q497.125,918.7969 497.125,919.1406 Q497.125,919.4844 496.7813,919.8906 Q496.2813,920.4688 495.4844,920.7969 Q494.4063,921.25 493.1094,921.25 Q491.5938,921.25 490.3906,920.625 Q489.4063,920.125 488.7188,919.0625 Q488.0313,917.9844 488.0313,916.7031 L488.0313,915.5469 Q488.0313,914.2188 488.6406,913.0781 Q489.2656,911.9219 490.3594,911.3125 Q491.4531,910.6875 492.6875,910.6875 Q493.4219,910.6875 494.0625,910.8594 Q494.7188,911.0156 495.2656,911.375 Z " fill="#000000"/><text fill="#000000" font-family="sans-serif" font-size="14" lengthAdjust="spacing" textLength="104" x="506.5" y="921.2969">TeamRepository</text><line style="stroke:#181818;stroke-width:0.5;" x1="478.5" x2="612.5" y1="931.5" y2="931.5"/><line style="stroke:#181818;stroke-width:0.5;" x1="478.5" x2="612.5" y1="939.5" y2="939.5"/><text fill="#000000" font-family="sans-serif" font-size="14" lengthAdjust="spacing" textLength="100" x="483.5" y="958.6074">-validateTeam()</text><text fill="#000000" font-family="sans-serif" font-size="14" lengthAdjust="spacing" textLength="96" x="483.5" y="977.2285">+getAllTeams()</text></g><!--class GreenSpaceRepository--><g id="elem_GreenSpaceRepository"><rect codeLine="90" fill="#F1F1F1" height="66.6211" id="GreenSpaceRepository" rx="2.5" ry="2.5" style="stroke:#181818;stroke-width:0.5;" width="180" x="648.5" y="908.5"/><ellipse cx="663.5" cy="924.5" fill="#ADD1B2" rx="11" ry="11" style="stroke:#181818;stroke-width:1.0;"/><path d="M666.2656,920.375 Q666.4219,920.1563 666.6094,920.0469 Q666.7969,919.9375 667.0156,919.9375 Q667.3906,919.9375 667.625,920.2031 Q667.8594,920.4531 667.8594,921.0625 L667.8594,922.5156 Q667.8594,923.125 667.625,923.3906 Q667.3906,923.6563 667.0156,923.6563 Q666.6719,923.6563 666.4688,923.4531 Q666.2656,923.2656 666.1563,922.75 Q666.1094,922.3906 665.9219,922.2031 Q665.5938,921.8281 664.9844,921.6094 Q664.375,921.3906 663.75,921.3906 Q662.9844,921.3906 662.3438,921.7188 Q661.7188,922.0469 661.2188,922.7969 Q660.7344,923.5469 660.7344,924.5781 L660.7344,925.6719 Q660.7344,926.9063 661.625,927.7344 Q662.5156,928.5469 664.1094,928.5469 Q665.0469,928.5469 665.7031,928.2969 Q666.0938,928.1406 666.5156,927.7031 Q666.7813,927.4375 666.9219,927.3594 Q667.0781,927.2813 667.2813,927.2813 Q667.6094,927.2813 667.8594,927.5469 Q668.125,927.7969 668.125,928.1406 Q668.125,928.4844 667.7813,928.8906 Q667.2813,929.4688 666.4844,929.7969 Q665.4063,930.25 664.1094,930.25 Q662.5938,930.25 661.3906,929.625 Q660.4063,929.125 659.7188,928.0625 Q659.0313,926.9844 659.0313,925.7031 L659.0313,924.5469 Q659.0313,923.2188 659.6406,922.0781 Q660.2656,920.9219 661.3594,920.3125 Q662.4531,919.6875 663.6875,919.6875 Q664.4219,919.6875 665.0625,919.8594 Q665.7188,920.0156 666.2656,920.375 Z " fill="#000000"/><text fill="#000000" font-family="sans-serif" font-size="14" lengthAdjust="spacing" textLength="148" x="677.5" y="930.2969">GreenSpaceRepository</text><line style="stroke:#181818;stroke-width:0.5;" x1="649.5" x2="827.5" y1="940.5" y2="940.5"/><line style="stroke:#181818;stroke-width:0.5;" x1="649.5" x2="827.5" y1="948.5" y2="948.5"/><text fill="#000000" font-family="sans-serif" font-size="14" lengthAdjust="spacing" textLength="132" x="654.5" y="967.6074">getGreenSpaceList()</text></g><!--class Repositories--><g id="elem_Repositories"><rect codeLine="94" fill="#F1F1F1" height="159.7266" id="Repositories" rx="2.5" ry="2.5" style="stroke:#181818;stroke-width:0.5;" width="198" x="360.5" y="632"/><ellipse cx="415.75" cy="648" fill="#ADD1B2" rx="11" ry="11" style="stroke:#181818;stroke-width:1.0;"/><path d="M418.5156,643.875 Q418.6719,643.6563 418.8594,643.5469 Q419.0469,643.4375 419.2656,643.4375 Q419.6406,643.4375 419.875,643.7031 Q420.1094,643.9531 420.1094,644.5625 L420.1094,646.0156 Q420.1094,646.625 419.875,646.8906 Q419.6406,647.1563 419.2656,647.1563 Q418.9219,647.1563 418.7188,646.9531 Q418.5156,646.7656 418.4063,646.25 Q418.3594,645.8906 418.1719,645.7031 Q417.8438,645.3281 417.2344,645.1094 Q416.625,644.8906 416,644.8906 Q415.2344,644.8906 414.5938,645.2188 Q413.9688,645.5469 413.4688,646.2969 Q412.9844,647.0469 412.9844,648.0781 L412.9844,649.1719 Q412.9844,650.4063 413.875,651.2344 Q414.7656,652.0469 416.3594,652.0469 Q417.2969,652.0469 417.9531,651.7969 Q418.3438,651.6406 418.7656,651.2031 Q419.0313,650.9375 419.1719,650.8594 Q419.3281,650.7813 419.5313,650.7813 Q419.8594,650.7813 420.1094,651.0469 Q420.375,651.2969 420.375,651.6406 Q420.375,651.9844 420.0313,652.3906 Q419.5313,652.9688 418.7344,653.2969 Q417.6563,653.75 416.3594,653.75 Q414.8438,653.75 413.6406,653.125 Q412.6563,652.625 411.9688,651.5625 Q411.2813,650.4844 411.2813,649.2031 L411.2813,648.0469 Q411.2813,646.7188 411.8906,645.5781 Q412.5156,644.4219 413.6094,643.8125 Q414.7031,643.1875 415.9375,643.1875 Q416.6719,643.1875 417.3125,643.3594 Q417.9688,643.5156 418.5156,643.875 Z " fill="#000000"/><text fill="#000000" font-family="sans-serif" font-size="14" lengthAdjust="spacing" textLength="79" x="436.25" y="653.7969">Repositories</text><line style="stroke:#181818;stroke-width:0.5;" x1="361.5" x2="557.5" y1="664" y2="664"/><line style="stroke:#181818;stroke-width:0.5;" x1="361.5" x2="557.5" y1="672" y2="672"/><text fill="#000000" font-family="sans-serif" font-size="14" lengthAdjust="spacing" textLength="94" x="366.5" y="691.1074">-Repositories()</text><text fill="#000000" font-family="sans-serif" font-size="14" lengthAdjust="spacing" textLength="182" x="366.5" y="709.7285">+getInstance() : Repositories</text><text fill="#000000" font-family="sans-serif" font-size="14" lengthAdjust="spacing" textLength="137" x="366.5" y="728.3496">+getTaskRepository()</text><text fill="#000000" font-family="sans-serif" font-size="14" lengthAdjust="spacing" textLength="168" x="366.5" y="746.9707">+getEmployeeRepository()</text><text fill="#000000" font-family="sans-serif" font-size="14" lengthAdjust="spacing" textLength="152" x="366.5" y="765.5918">+getVehicleRepository()</text><text fill="#000000" font-family="sans-serif" font-size="14" lengthAdjust="spacing" textLength="186" x="366.5" y="784.2129">+getGreenSpaceRepository()</text></g><!--class Tasks--><g id="elem_Tasks"><rect codeLine="104" fill="#F1F1F1" height="66.6211" id="Tasks" rx="2.5" ry="2.5" style="stroke:#181818;stroke-width:0.5;" width="157" x="380" y="1238"/><ellipse cx="435.25" cy="1254" fill="#ADD1B2" rx="11" ry="11" style="stroke:#181818;stroke-width:1.0;"/><path d="M438.0156,1249.875 Q438.1719,1249.6563 438.3594,1249.5469 Q438.5469,1249.4375 438.7656,1249.4375 Q439.1406,1249.4375 439.375,1249.7031 Q439.6094,1249.9531 439.6094,1250.5625 L439.6094,1252.0156 Q439.6094,1252.625 439.375,1252.8906 Q439.1406,1253.1563 438.7656,1253.1563 Q438.4219,1253.1563 438.2188,1252.9531 Q438.0156,1252.7656 437.9063,1252.25 Q437.8594,1251.8906 437.6719,1251.7031 Q437.3438,1251.3281 436.7344,1251.1094 Q436.125,1250.8906 435.5,1250.8906 Q434.7344,1250.8906 434.0938,1251.2188 Q433.4688,1251.5469 432.9688,1252.2969 Q432.4844,1253.0469 432.4844,1254.0781 L432.4844,1255.1719 Q432.4844,1256.4063 433.375,1257.2344 Q434.2656,1258.0469 435.8594,1258.0469 Q436.7969,1258.0469 437.4531,1257.7969 Q437.8438,1257.6406 438.2656,1257.2031 Q438.5313,1256.9375 438.6719,1256.8594 Q438.8281,1256.7813 439.0313,1256.7813 Q439.3594,1256.7813 439.6094,1257.0469 Q439.875,1257.2969 439.875,1257.6406 Q439.875,1257.9844 439.5313,1258.3906 Q439.0313,1258.9688 438.2344,1259.2969 Q437.1563,1259.75 435.8594,1259.75 Q434.3438,1259.75 433.1406,1259.125 Q432.1563,1258.625 431.4688,1257.5625 Q430.7813,1256.4844 430.7813,1255.2031 L430.7813,1254.0469 Q430.7813,1252.7188 431.3906,1251.5781 Q432.0156,1250.4219 433.1094,1249.8125 Q434.2031,1249.1875 435.4375,1249.1875 Q436.1719,1249.1875 436.8125,1249.3594 Q437.4688,1249.5156 438.0156,1249.875 Z " fill="#000000"/><text fill="#000000" font-family="sans-serif" font-size="14" lengthAdjust="spacing" textLength="38" x="455.75" y="1259.7969">Tasks</text><line style="stroke:#181818;stroke-width:0.5;" x1="381" x2="536" y1="1270" y2="1270"/><text fill="#000000" font-family="sans-serif" font-size="14" lengthAdjust="spacing" textLength="145" x="386" y="1289.1074">-ArrayList&lt;Task&gt; tasks</text><line style="stroke:#181818;stroke-width:0.5;" x1="381" x2="536" y1="1296.6211" y2="1296.6211"/></g><!--link GSMUI to AssignTeamToTaskInTheAgendaUI--><g id="link_GSMUI_AssignTeamToTaskInTheAgendaUI"><path codeLine="110" d="M249.5,55.01 C249.5,71.07 249.5,87.53 249.5,109.77 " fill="none" id="GSMUI-to-AssignTeamToTaskInTheAgendaUI" style="stroke:#181818;stroke-width:1.0;stroke-dasharray:7.0,7.0;"/><polygon fill="#181818" points="249.5,115.77,253.5,106.77,249.5,110.77,245.5,106.77,249.5,115.77" style="stroke:#181818;stroke-width:1.0;"/><text fill="#000000" font-family="sans-serif" font-size="13" lengthAdjust="spacing" textLength="7" x="241.6469" y="76.9981">1</text><text fill="#000000" font-family="sans-serif" font-size="13" lengthAdjust="spacing" textLength="7" x="242.1773" y="104.6445">1</text></g><!--link Repositories to Repositories--><g id="link_Repositories_Repositories"><path codeLine="112" d="M558.55,692.13 C578.9,694.26 593.5,700.88 593.5,712 C593.5,723.12 584.8674,729.1154 564.5174,731.2454 " fill="none" id="Repositories-to-Repositories" style="stroke:#181818;stroke-width:1.0;"/><polygon fill="#181818" points="558.55,731.87,567.9175,734.9114,563.5228,731.3495,567.0847,726.9548,558.55,731.87" style="stroke:#181818;stroke-width:1.0;"/><text fill="#000000" font-family="sans-serif" font-size="13" lengthAdjust="spacing" textLength="49" x="599.5" y="717.5283">instance</text></g><!--link AssignTeamToTaskInTheAgendaUI to AssignTeamController--><g id="link_AssignTeamToTaskInTheAgendaUI_AssignTeamController"><path codeLine="115" d="M249.5,276.25 C249.5,295.48 249.5,310.45 249.5,331 " fill="none" id="AssignTeamToTaskInTheAgendaUI-to-AssignTeamController" style="stroke:#181818;stroke-width:1.0;stroke-dasharray:7.0,7.0;"/><polygon fill="#181818" points="249.5,337,253.5,328,249.5,332,245.5,328,249.5,337" style="stroke:#181818;stroke-width:1.0;"/><text fill="#000000" font-family="sans-serif" font-size="13" lengthAdjust="spacing" textLength="7" x="242.2102" y="297.6513">1</text><text fill="#000000" font-family="sans-serif" font-size="13" lengthAdjust="spacing" textLength="7" x="242.2648" y="325.599">1</text></g><!--link AssignTeamController to Repositories--><g id="link_AssignTeamController_Repositories"><path codeLine="117" d="M344.67,571.02 C361.49,591.52 374.8447,607.8011 390.5947,627.0011 " fill="none" id="AssignTeamController-to-Repositories" style="stroke:#181818;stroke-width:1.0;stroke-dasharray:7.0,7.0;"/><polygon fill="#181818" points="394.4,631.64,391.7846,622.1448,391.2289,627.7743,385.5994,627.2186,394.4,631.64" style="stroke:#181818;stroke-width:1.0;"/><text fill="#000000" font-family="sans-serif" font-size="13" lengthAdjust="spacing" textLength="7" x="343.5426" y="593.092">1</text><text fill="#000000" font-family="sans-serif" font-size="13" lengthAdjust="spacing" textLength="7" x="381.2903" y="620.7794">1</text></g><!--link Repositories to TaskRepository--><g id="link_Repositories_TaskRepository"><path codeLine="120" d="M429.32,792.1 C421.86,811.65 415.9599,827.1146 408.3399,847.0746 " fill="none" id="Repositories-to-TaskRepository" style="stroke:#181818;stroke-width:1.0;"/><polygon fill="#181818" points="406.2,852.68,413.1469,845.6985,407.9833,848.0088,405.673,842.8453,406.2,852.68" style="stroke:#181818;stroke-width:1.0;"/><text fill="#000000" font-family="sans-serif" font-size="13" lengthAdjust="spacing" textLength="7" x="419.4256" y="813.7666">1</text><text fill="#000000" font-family="sans-serif" font-size="13" lengthAdjust="spacing" textLength="7" x="401.7009" y="841.6053">1</text></g><!--link Repositories to TeamRepository--><g id="link_Repositories_TeamRepository"><path codeLine="121" d="M489.34,792.1 C502.97,828.24 516.444,863.9455 527.724,893.8755 " fill="none" id="Repositories-to-TeamRepository" style="stroke:#181818;stroke-width:1.0;"/><polygon fill="#181818" points="529.84,899.49,530.409,889.6576,528.0767,894.8113,522.923,892.4789,529.84,899.49" style="stroke:#181818;stroke-width:1.0;"/><text fill="#000000" font-family="sans-serif" font-size="13" lengthAdjust="spacing" textLength="7" x="484.6036" y="813.7666">1</text><text fill="#000000" font-family="sans-serif" font-size="13" lengthAdjust="spacing" textLength="7" x="519.7864" y="888.3925">1</text></g><!--link Repositories to GreenSpaceRepository--><g id="link_Repositories_GreenSpaceRepository"><path codeLine="122" d="M556.56,792 C595.57,823.76 631.5,853 631.5,853 C631.5,853 663.8461,879.5986 694.3261,904.6686 " fill="none" id="Repositories-to-GreenSpaceRepository" style="stroke:#181818;stroke-width:1.0;"/><polygon fill="#181818" points="698.96,908.48,694.5501,899.6736,695.0984,905.3038,689.4682,905.8521,698.96,908.48" style="stroke:#181818;stroke-width:1.0;"/><text fill="#000000" font-family="sans-serif" font-size="13" lengthAdjust="spacing" textLength="7" x="557.6003" y="813.658">1</text><text fill="#000000" font-family="sans-serif" font-size="13" lengthAdjust="spacing" textLength="7" x="683.4865" y="897.3016">1</text></g><!--link TaskRepository to Employee--><g id="link_TaskRepository_Employee"><path codeLine="124" d="M414.24,1031.09 C424.51,1052.77 432.3126,1069.2271 440.4226,1086.3571 " fill="none" id="TaskRepository-to-Employee" style="stroke:#181818;stroke-width:1.0;"/><polygon fill="#181818" points="442.99,1091.78,442.7542,1081.934,440.8505,1087.2609,435.5236,1085.3572,442.99,1091.78" style="stroke:#181818;stroke-width:1.0;"/><text fill="#000000" font-family="sans-serif" font-size="13" lengthAdjust="spacing" textLength="7" x="410.5263" y="1053.5025">1</text><text fill="#000000" font-family="sans-serif" font-size="13" lengthAdjust="spacing" textLength="5" x="434.5568" y="1080.824">*</text></g><!--link TeamRepository to Employee--><g id="link_TeamRepository_Employee"><path codeLine="125" d="M525.54,984.64 C509.94,1017.19 491.1542,1056.3898 476.7642,1086.3998 " fill="none" id="TeamRepository-to-Employee" style="stroke:#181818;stroke-width:1.0;"/><polygon fill="#181818" points="474.17,1091.81,481.6681,1085.4242,476.3318,1087.3015,474.4545,1081.9653,474.17,1091.81" style="stroke:#181818;stroke-width:1.0;"/><text fill="#000000" font-family="sans-serif" font-size="13" lengthAdjust="spacing" textLength="7" x="514.8011" y="1006.8226">1</text><text fill="#000000" font-family="sans-serif" font-size="13" lengthAdjust="spacing" textLength="5" x="471.6805" y="1080.8597">*</text></g><!--link GreenSpaceRepository to Employee--><g id="link_GreenSpaceRepository_Employee"><path codeLine="126" d="M698.96,975.52 C668.48,1000.59 631.5,1031 631.5,1031 C631.5,1031 574.1786,1061.9875 524.2886,1088.9475 " fill="none" id="GreenSpaceRepository-to-Employee" style="stroke:#181818;stroke-width:1.0;"/><polygon fill="#181818" points="519.01,1091.8,528.8295,1091.0403,523.4088,1089.4229,525.0262,1084.0022,519.01,1091.8" style="stroke:#181818;stroke-width:1.0;"/><text fill="#000000" font-family="sans-serif" font-size="13" lengthAdjust="spacing" textLength="7" x="684.2935" y="997.0928">1</text><text fill="#000000" font-family="sans-serif" font-size="13" lengthAdjust="spacing" textLength="5" x="525.0682" y="1080.8478">*</text></g><!--link AssignTeamController to Employee--><g id="link_AssignTeamController_Employee"><path codeLine="131" d="M256.56,571.22 C266.79,739.47 284.5,1031 284.5,1031 C284.5,1031 342.1848,1061.9999 392.3548,1088.9599 " fill="none" id="AssignTeamController-to-Employee" style="stroke:#181818;stroke-width:1.0;stroke-dasharray:7.0,7.0;"/><polygon fill="#181818" points="397.64,1091.8,391.6056,1084.0163,393.2356,1089.4332,387.8187,1091.0633,397.64,1091.8" style="stroke:#181818;stroke-width:1.0;"/><text fill="#000000" font-family="sans-serif" font-size="13" lengthAdjust="spacing" textLength="7" x="249.7881" y="593.3048">1</text><text fill="#000000" font-family="sans-serif" font-size="13" lengthAdjust="spacing" textLength="7" x="378.3714" y="1080.8478">1</text></g><!--link AssignTeamController to EmailService--><g id="link_AssignTeamController_EmailService"><path codeLine="132" d="M182.43,571.02 C159.71,610.31 139.1236,645.9259 123.3136,673.2659 " fill="none" id="AssignTeamController-to-EmailService" style="stroke:#181818;stroke-width:1.0;stroke-dasharray:7.0,7.0;"/><polygon fill="#181818" points="120.31,678.46,128.2781,672.6713,122.813,674.1316,121.3527,668.6665,120.31,678.46" style="stroke:#181818;stroke-width:1.0;"/><text fill="#000000" font-family="sans-serif" font-size="13" lengthAdjust="spacing" textLength="7" x="170.9091" y="593.092">1</text><text fill="#000000" font-family="sans-serif" font-size="13" lengthAdjust="spacing" textLength="7" x="116.3242" y="667.2776">1</text></g><!--link EmailService to Email--><g id="link_EmailService_Email"><path codeLine="133" d="M101.5,745.67 C101.5,778.3 101.5,823.48 101.5,865.26 " fill="none" id="EmailService-to-Email" style="stroke:#181818;stroke-width:1.0;"/><polygon fill="#181818" points="101.5,871.26,105.5,862.26,101.5,866.26,97.5,862.26,101.5,871.26" style="stroke:#181818;stroke-width:1.0;"/><text fill="#000000" font-family="sans-serif" font-size="13" lengthAdjust="spacing" textLength="7" x="93.8766" y="767.2695">1</text><text fill="#000000" font-family="sans-serif" font-size="13" lengthAdjust="spacing" textLength="5" x="96.2422" y="860.1263">*</text></g><!--link Employee to Tasks--><g id="link_Employee_Tasks"><path codeLine="135" d="M458.5,1159.18 C458.5,1182.74 458.5,1208.42 458.5,1231.95 " fill="none" id="Employee-to-Tasks" style="stroke:#181818;stroke-width:1.0;"/><polygon fill="#181818" points="458.5,1237.95,462.5,1228.95,458.5,1232.95,454.5,1228.95,458.5,1237.95" style="stroke:#181818;stroke-width:1.0;"/><text fill="#000000" font-family="sans-serif" font-size="13" lengthAdjust="spacing" textLength="186" x="459.5" y="1204.0283">list pending tasks in the Agenda</text><text fill="#000000" font-family="sans-serif" font-size="13" lengthAdjust="spacing" textLength="7" x="450.8766" y="1180.7813">1</text><text fill="#000000" font-family="sans-serif" font-size="13" lengthAdjust="spacing" textLength="7" x="450.8109" y="1226.7657">1</text></g><!--link Tasks to Task--><g id="link_Tasks_Task"><path codeLine="136" d="M458.5,1305.08 C458.5,1321.4 458.5,1336.61 458.5,1359.79 " fill="none" id="Tasks-to-Task" style="stroke:#181818;stroke-width:1.0;"/><polygon fill="#181818" points="458.5,1365.79,462.5,1356.79,458.5,1360.79,454.5,1356.79,458.5,1365.79" style="stroke:#181818;stroke-width:1.0;"/><text fill="#000000" font-family="sans-serif" font-size="13" lengthAdjust="spacing" textLength="7" x="450.8766" y="1326.6635">1</text><text fill="#000000" font-family="sans-serif" font-size="13" lengthAdjust="spacing" textLength="5" x="453.4023" y="1354.9998">*</text></g><!--SRC=[ZLLDRzim3BthLmYzj5tcOhiEGu1WxOe0-oZcj7VLPXoXikH9SZOls7yVwIzPgTCr5qEFZwH8FYhdxadgIbXHyj9ea-siAO5xMmCBbafaJwA0r3SAk8NC2rseAS7jH6v-ILtmhL1kQb5IWsygu9LH3HtO-OpHM6_On2jJmhcLzrO-rXxMcT6f_0Fy7MFd2hQUUyEjB7QUvvAk8urchFNXj-dN-_M1_HtEA-TaeJSWoetP2FUqrfiTh0hGkI3UmjRwuf8j0ksJqTuQfS0IBexS4Kii_Ap1-UCZSkZewiTI-clXnOL7w2ttoBkSkr38T9Wc-ky55aewlzeBgSIZ0ZAv0RtNMwcbsq5Et1Okm7VbjXmZyWUXP7vJediATYypQ6dx4QKYq8a2_83AEEcDRGOGapq3Ros0Jb4Z49cmOgazs2qQ-3HVg1PJO5KOSqWyTga5-0lCn65DxM5e_AdQC4eILvTP41xQusUf8CvRATC0yCDCwsVdIHRCuAN7tVZ0KzIiBbYIWykih4YQ4zHvOKaRnAGFIx2Aw4pHKozyxH2wqNNvJPG4qvQ4ECNOSWH3_pltUulppfh8lwi5PO4be84-0No0dSmKKCQLjQBvWahws8FBBkRw6equpkvqHrFkAXjJJFj5WdATXBfQUY5k9huzvwQhdquK-ViUh19LEoMXibhHe4PAtFMWDffMfFEwoj5Zs1UQMxylKadV36kXMkrCD-LE2QtZvRd3cDZp4OBVs1qt7CE5eiqO94UNwFiH4aP-SyjpOD5MqJYcBYDHuiWEZEClYK0a4xZW66QjKNCwm-xXiAQaG7cswQDbs8PvQw-GUUE9Ho6U85q_2P8ZQDdkboCUO-rZpi_Ud_6hgsNxVV4vPongJP8iurwHWhjkOEmN8vt86PxcgNz08xUesKTNGplTZcXnzq_J8dsTfCsrdR6ZRHduRyx6zux5yMSfSx5dYOozeZqZ-nNCy9wpwQ6rXkneO6nym4TRtsCQF_r5ygfRw4vdg0ZkTy2xmREEE0rB26F_0000]--></g></svg>