<?xml version="1.0" encoding="us-ascii" standalone="no"?><svg xmlns="http://www.w3.org/2000/svg" xmlns:xlink="http://www.w3.org/1999/xlink" contentStyleType="text/css" height="1572px" preserveAspectRatio="none" style="width:513px;height:1572px;background:#FFFFFF;" version="1.1" viewBox="0 0 513 1572" width="513px" zoomAndPan="magnify"><defs/><g><!--class GSMUI--><g id="elem_GSMUI"><rect codeLine="11" fill="#F1F1F1" height="48" id="GSMUI" rx="2.5" ry="2.5" style="stroke:#181818;stroke-width:0.5;" width="75" x="97" y="7"/><ellipse cx="112" cy="23" fill="#ADD1B2" rx="11" ry="11" style="stroke:#181818;stroke-width:1.0;"/><path d="M114.7656,18.875 Q114.9219,18.6563 115.1094,18.5469 Q115.2969,18.4375 115.5156,18.4375 Q115.8906,18.4375 116.125,18.7031 Q116.3594,18.9531 116.3594,19.5625 L116.3594,21.0156 Q116.3594,21.625 116.125,21.8906 Q115.8906,22.1563 115.5156,22.1563 Q115.1719,22.1563 114.9688,21.9531 Q114.7656,21.7656 114.6563,21.25 Q114.6094,20.8906 114.4219,20.7031 Q114.0938,20.3281 113.4844,20.1094 Q112.875,19.8906 112.25,19.8906 Q111.4844,19.8906 110.8438,20.2188 Q110.2188,20.5469 109.7188,21.2969 Q109.2344,22.0469 109.2344,23.0781 L109.2344,24.1719 Q109.2344,25.4063 110.125,26.2344 Q111.0156,27.0469 112.6094,27.0469 Q113.5469,27.0469 114.2031,26.7969 Q114.5938,26.6406 115.0156,26.2031 Q115.2813,25.9375 115.4219,25.8594 Q115.5781,25.7813 115.7813,25.7813 Q116.1094,25.7813 116.3594,26.0469 Q116.625,26.2969 116.625,26.6406 Q116.625,26.9844 116.2813,27.3906 Q115.7813,27.9688 114.9844,28.2969 Q113.9063,28.75 112.6094,28.75 Q111.0938,28.75 109.8906,28.125 Q108.9063,27.625 108.2188,26.5625 Q107.5313,25.4844 107.5313,24.2031 L107.5313,23.0469 Q107.5313,21.7188 108.1406,20.5781 Q108.7656,19.4219 109.8594,18.8125 Q110.9531,18.1875 112.1875,18.1875 Q112.9219,18.1875 113.5625,18.3594 Q114.2188,18.5156 114.7656,18.875 Z " fill="#000000"/><text fill="#000000" font-family="sans-serif" font-size="14" lengthAdjust="spacing" textLength="43" x="126" y="28.7969">GSMUI</text><line style="stroke:#181818;stroke-width:0.5;" x1="98" x2="171" y1="39" y2="39"/><line style="stroke:#181818;stroke-width:0.5;" x1="98" x2="171" y1="47" y2="47"/></g><!--class AssignTeamToTaskInTheAgendaUI--><g id="elem_AssignTeamToTaskInTheAgendaUI"><rect codeLine="14" fill="#F1F1F1" height="141.1055" id="AssignTeamToTaskInTheAgendaUI" rx="2.5" ry="2.5" style="stroke:#181818;stroke-width:0.5;" width="255" x="7" y="116"/><ellipse cx="22" cy="132" fill="#ADD1B2" rx="11" ry="11" style="stroke:#181818;stroke-width:1.0;"/><path d="M24.7656,127.875 Q24.9219,127.6563 25.1094,127.5469 Q25.2969,127.4375 25.5156,127.4375 Q25.8906,127.4375 26.125,127.7031 Q26.3594,127.9531 26.3594,128.5625 L26.3594,130.0156 Q26.3594,130.625 26.125,130.8906 Q25.8906,131.1563 25.5156,131.1563 Q25.1719,131.1563 24.9688,130.9531 Q24.7656,130.7656 24.6563,130.25 Q24.6094,129.8906 24.4219,129.7031 Q24.0938,129.3281 23.4844,129.1094 Q22.875,128.8906 22.25,128.8906 Q21.4844,128.8906 20.8438,129.2188 Q20.2188,129.5469 19.7188,130.2969 Q19.2344,131.0469 19.2344,132.0781 L19.2344,133.1719 Q19.2344,134.4063 20.125,135.2344 Q21.0156,136.0469 22.6094,136.0469 Q23.5469,136.0469 24.2031,135.7969 Q24.5938,135.6406 25.0156,135.2031 Q25.2813,134.9375 25.4219,134.8594 Q25.5781,134.7813 25.7813,134.7813 Q26.1094,134.7813 26.3594,135.0469 Q26.625,135.2969 26.625,135.6406 Q26.625,135.9844 26.2813,136.3906 Q25.7813,136.9688 24.9844,137.2969 Q23.9063,137.75 22.6094,137.75 Q21.0938,137.75 19.8906,137.125 Q18.9063,136.625 18.2188,135.5625 Q17.5313,134.4844 17.5313,133.2031 L17.5313,132.0469 Q17.5313,130.7188 18.1406,129.5781 Q18.7656,128.4219 19.8594,127.8125 Q20.9531,127.1875 22.1875,127.1875 Q22.9219,127.1875 23.5625,127.3594 Q24.2188,127.5156 24.7656,127.875 Z " fill="#000000"/><text fill="#000000" font-family="sans-serif" font-size="14" lengthAdjust="spacing" textLength="223" x="36" y="137.7969">AssignTeamToTaskInTheAgendaUI</text><line style="stroke:#181818;stroke-width:0.5;" x1="8" x2="261" y1="148" y2="148"/><line style="stroke:#181818;stroke-width:0.5;" x1="8" x2="261" y1="156" y2="156"/><text fill="#000000" font-family="sans-serif" font-size="14" lengthAdjust="spacing" textLength="39" x="13" y="175.1074">+run()</text><text fill="#000000" font-family="sans-serif" font-size="14" lengthAdjust="spacing" textLength="158" x="13" y="193.7285">+AssignTeamController()</text><text fill="#000000" font-family="sans-serif" font-size="14" lengthAdjust="spacing" textLength="94" x="13" y="212.3496">-requestTask()</text><text fill="#000000" font-family="sans-serif" font-size="14" lengthAdjust="spacing" textLength="99" x="13" y="230.9707">-requestTeam()</text><text fill="#000000" font-family="sans-serif" font-size="14" lengthAdjust="spacing" textLength="151" x="13" y="249.5918">-submitData(team, task)</text></g><!--class AssignTeamController--><g id="elem_AssignTeamController"><rect codeLine="22" fill="#F1F1F1" height="215.5898" id="AssignTeamController" rx="2.5" ry="2.5" style="stroke:#181818;stroke-width:0.5;" width="176" x="46.5" y="318"/><ellipse cx="63.3" cy="334" fill="#ADD1B2" rx="11" ry="11" style="stroke:#181818;stroke-width:1.0;"/><path d="M66.0656,329.875 Q66.2219,329.6563 66.4094,329.5469 Q66.5969,329.4375 66.8156,329.4375 Q67.1906,329.4375 67.425,329.7031 Q67.6594,329.9531 67.6594,330.5625 L67.6594,332.0156 Q67.6594,332.625 67.425,332.8906 Q67.1906,333.1563 66.8156,333.1563 Q66.4719,333.1563 66.2688,332.9531 Q66.0656,332.7656 65.9563,332.25 Q65.9094,331.8906 65.7219,331.7031 Q65.3938,331.3281 64.7844,331.1094 Q64.175,330.8906 63.55,330.8906 Q62.7844,330.8906 62.1438,331.2188 Q61.5188,331.5469 61.0188,332.2969 Q60.5344,333.0469 60.5344,334.0781 L60.5344,335.1719 Q60.5344,336.4063 61.425,337.2344 Q62.3156,338.0469 63.9094,338.0469 Q64.8469,338.0469 65.5031,337.7969 Q65.8938,337.6406 66.3156,337.2031 Q66.5813,336.9375 66.7219,336.8594 Q66.8781,336.7813 67.0813,336.7813 Q67.4094,336.7813 67.6594,337.0469 Q67.925,337.2969 67.925,337.6406 Q67.925,337.9844 67.5813,338.3906 Q67.0813,338.9688 66.2844,339.2969 Q65.2063,339.75 63.9094,339.75 Q62.3938,339.75 61.1906,339.125 Q60.2063,338.625 59.5188,337.5625 Q58.8313,336.4844 58.8313,335.2031 L58.8313,334.0469 Q58.8313,332.7188 59.4406,331.5781 Q60.0656,330.4219 61.1594,329.8125 Q62.2531,329.1875 63.4875,329.1875 Q64.2219,329.1875 64.8625,329.3594 Q65.5188,329.5156 66.0656,329.875 Z " fill="#000000"/><text fill="#000000" font-family="sans-serif" font-size="14" lengthAdjust="spacing" textLength="140" x="77.7" y="339.7969">AssignTeamController</text><line style="stroke:#181818;stroke-width:0.5;" x1="47.5" x2="221.5" y1="350" y2="350"/><line style="stroke:#181818;stroke-width:0.5;" x1="47.5" x2="221.5" y1="358" y2="358"/><text fill="#000000" font-family="sans-serif" font-size="14" lengthAdjust="spacing" textLength="157" x="52.5" y="377.1074">+assignTeamController()</text><text fill="#000000" font-family="sans-serif" font-size="14" lengthAdjust="spacing" textLength="143" x="52.5" y="395.7285">+assignTeamToTask()</text><text fill="#000000" font-family="sans-serif" font-size="14" lengthAdjust="spacing" textLength="135" x="52.5" y="414.3496">+listAvailableTeams()</text><text fill="#000000" font-family="sans-serif" font-size="14" lengthAdjust="spacing" textLength="139" x="52.5" y="432.9707">+listUnfinishedTasks()</text><text fill="#000000" font-family="sans-serif" font-size="14" lengthAdjust="spacing" textLength="87" x="52.5" y="451.5918">+getAgenda()</text><text fill="#000000" font-family="sans-serif" font-size="14" lengthAdjust="spacing" textLength="164" x="52.5" y="470.2129">+loadValidEmailServices()</text><text fill="#000000" font-family="sans-serif" font-size="14" lengthAdjust="spacing" textLength="81" x="52.5" y="488.834">+validEmail()</text><text fill="#000000" font-family="sans-serif" font-size="14" lengthAdjust="spacing" textLength="134" x="52.5" y="507.4551">-getTaskRepository()</text><text fill="#000000" font-family="sans-serif" font-size="14" lengthAdjust="spacing" textLength="139" x="52.5" y="526.0762">-getTeamRepository()</text></g><!--class Employee--><g id="elem_Employee"><rect codeLine="34" fill="#F1F1F1" height="66.6211" id="Employee" rx="2.5" ry="2.5" style="stroke:#181818;stroke-width:0.5;" width="220" x="93.5" y="1054"/><ellipse cx="168.25" cy="1070" fill="#ADD1B2" rx="11" ry="11" style="stroke:#181818;stroke-width:1.0;"/><path d="M171.0156,1065.875 Q171.1719,1065.6563 171.3594,1065.5469 Q171.5469,1065.4375 171.7656,1065.4375 Q172.1406,1065.4375 172.375,1065.7031 Q172.6094,1065.9531 172.6094,1066.5625 L172.6094,1068.0156 Q172.6094,1068.625 172.375,1068.8906 Q172.1406,1069.1563 171.7656,1069.1563 Q171.4219,1069.1563 171.2188,1068.9531 Q171.0156,1068.7656 170.9063,1068.25 Q170.8594,1067.8906 170.6719,1067.7031 Q170.3438,1067.3281 169.7344,1067.1094 Q169.125,1066.8906 168.5,1066.8906 Q167.7344,1066.8906 167.0938,1067.2188 Q166.4688,1067.5469 165.9688,1068.2969 Q165.4844,1069.0469 165.4844,1070.0781 L165.4844,1071.1719 Q165.4844,1072.4063 166.375,1073.2344 Q167.2656,1074.0469 168.8594,1074.0469 Q169.7969,1074.0469 170.4531,1073.7969 Q170.8438,1073.6406 171.2656,1073.2031 Q171.5313,1072.9375 171.6719,1072.8594 Q171.8281,1072.7813 172.0313,1072.7813 Q172.3594,1072.7813 172.6094,1073.0469 Q172.875,1073.2969 172.875,1073.6406 Q172.875,1073.9844 172.5313,1074.3906 Q172.0313,1074.9688 171.2344,1075.2969 Q170.1563,1075.75 168.8594,1075.75 Q167.3438,1075.75 166.1406,1075.125 Q165.1563,1074.625 164.4688,1073.5625 Q163.7813,1072.4844 163.7813,1071.2031 L163.7813,1070.0469 Q163.7813,1068.7188 164.3906,1067.5781 Q165.0156,1066.4219 166.1094,1065.8125 Q167.2031,1065.1875 168.4375,1065.1875 Q169.1719,1065.1875 169.8125,1065.3594 Q170.4688,1065.5156 171.0156,1065.875 Z " fill="#000000"/><text fill="#000000" font-family="sans-serif" font-size="14" lengthAdjust="spacing" textLength="62" x="188.75" y="1075.7969">Employee</text><line style="stroke:#181818;stroke-width:0.5;" x1="94.5" x2="312.5" y1="1086" y2="1086"/><line style="stroke:#181818;stroke-width:0.5;" x1="94.5" x2="312.5" y1="1094" y2="1094"/><text fill="#000000" font-family="sans-serif" font-size="14" lengthAdjust="spacing" textLength="208" x="99.5" y="1113.1074">+assignTeamToTask(team, task)</text></g><!--class Task--><g id="elem_Task"><rect codeLine="38" fill="#F1F1F1" height="383.1797" id="Task" rx="2.5" ry="2.5" style="stroke:#181818;stroke-width:0.5;" width="257" x="186" y="1182"/><ellipse cx="294.75" cy="1198" fill="#ADD1B2" rx="11" ry="11" style="stroke:#181818;stroke-width:1.0;"/><path d="M297.5156,1193.875 Q297.6719,1193.6563 297.8594,1193.5469 Q298.0469,1193.4375 298.2656,1193.4375 Q298.6406,1193.4375 298.875,1193.7031 Q299.1094,1193.9531 299.1094,1194.5625 L299.1094,1196.0156 Q299.1094,1196.625 298.875,1196.8906 Q298.6406,1197.1563 298.2656,1197.1563 Q297.9219,1197.1563 297.7188,1196.9531 Q297.5156,1196.7656 297.4063,1196.25 Q297.3594,1195.8906 297.1719,1195.7031 Q296.8438,1195.3281 296.2344,1195.1094 Q295.625,1194.8906 295,1194.8906 Q294.2344,1194.8906 293.5938,1195.2188 Q292.9688,1195.5469 292.4688,1196.2969 Q291.9844,1197.0469 291.9844,1198.0781 L291.9844,1199.1719 Q291.9844,1200.4063 292.875,1201.2344 Q293.7656,1202.0469 295.3594,1202.0469 Q296.2969,1202.0469 296.9531,1201.7969 Q297.3438,1201.6406 297.7656,1201.2031 Q298.0313,1200.9375 298.1719,1200.8594 Q298.3281,1200.7813 298.5313,1200.7813 Q298.8594,1200.7813 299.1094,1201.0469 Q299.375,1201.2969 299.375,1201.6406 Q299.375,1201.9844 299.0313,1202.3906 Q298.5313,1202.9688 297.7344,1203.2969 Q296.6563,1203.75 295.3594,1203.75 Q293.8438,1203.75 292.6406,1203.125 Q291.6563,1202.625 290.9688,1201.5625 Q290.2813,1200.4844 290.2813,1199.2031 L290.2813,1198.0469 Q290.2813,1196.7188 290.8906,1195.5781 Q291.5156,1194.4219 292.6094,1193.8125 Q293.7031,1193.1875 294.9375,1193.1875 Q295.6719,1193.1875 296.3125,1193.3594 Q296.9688,1193.5156 297.5156,1193.875 Z " fill="#000000"/><text fill="#000000" font-family="sans-serif" font-size="14" lengthAdjust="spacing" textLength="31" x="315.25" y="1203.7969">Task</text><line style="stroke:#181818;stroke-width:0.5;" x1="187" x2="442" y1="1214" y2="1214"/><text fill="#000000" font-family="sans-serif" font-size="14" lengthAdjust="spacing" textLength="76" x="192" y="1233.1074">-title : String</text><text fill="#000000" font-family="sans-serif" font-size="14" lengthAdjust="spacing" textLength="123" x="192" y="1251.7285">-description : String</text><text fill="#000000" font-family="sans-serif" font-size="14" lengthAdjust="spacing" textLength="105" x="192" y="1270.3496">-startDate : Date</text><text fill="#000000" font-family="sans-serif" font-size="14" lengthAdjust="spacing" textLength="101" x="192" y="1288.9707">-endDate : Date</text><text fill="#000000" font-family="sans-serif" font-size="14" lengthAdjust="spacing" textLength="155" x="192" y="1307.5918">-taskStatus : EnumName</text><text fill="#000000" font-family="sans-serif" font-size="14" lengthAdjust="spacing" textLength="81" x="192" y="1326.2129">-type : String</text><text fill="#000000" font-family="sans-serif" font-size="14" lengthAdjust="spacing" textLength="174" x="192" y="1344.834">-greenSpace : GreenSpace</text><text fill="#000000" font-family="sans-serif" font-size="14" lengthAdjust="spacing" textLength="167" x="192" y="1363.4551">-taskUrgency : EnumName</text><text fill="#000000" font-family="sans-serif" font-size="14" lengthAdjust="spacing" textLength="146" x="192" y="1382.0762">-assignedTeam : Team</text><text fill="#000000" font-family="sans-serif" font-size="14" lengthAdjust="spacing" textLength="245" x="192" y="1400.6973">-assignedVehicles : ArrayList&lt;Vehicle&gt;</text><text fill="#000000" font-family="sans-serif" font-size="14" lengthAdjust="spacing" textLength="71" x="192" y="1419.3184">-taskID : int</text><text fill="#000000" font-family="sans-serif" font-size="14" lengthAdjust="spacing" textLength="165" x="192" y="1437.9395">-taskPosition : EnumName</text><line style="stroke:#181818;stroke-width:0.5;" x1="187" x2="442" y1="1445.4531" y2="1445.4531"/><text fill="#000000" font-family="sans-serif" font-size="14" lengthAdjust="spacing" textLength="95" x="192" y="1464.5605">+assignTeam()</text><text fill="#000000" font-family="sans-serif" font-size="14" lengthAdjust="spacing" textLength="108" x="192" y="1483.1816">+setTaskStatus()</text><text fill="#000000" font-family="sans-serif" font-size="14" lengthAdjust="spacing" textLength="119" x="192" y="1501.8027">+getTaskPosition()</text><text fill="#000000" font-family="sans-serif" font-size="14" lengthAdjust="spacing" textLength="92" x="192" y="1520.4238">+setEndDate()</text><text fill="#000000" font-family="sans-serif" font-size="14" lengthAdjust="spacing" textLength="94" x="192" y="1539.0449">+taskOverlap()</text><text fill="#000000" font-family="sans-serif" font-size="14" lengthAdjust="spacing" textLength="126" x="192" y="1557.666">-calculateEndDate()</text></g><!--class TaskRepository--><g id="elem_TaskRepository"><rect codeLine="61" fill="#F1F1F1" height="178.3477" id="TaskRepository" rx="2.5" ry="2.5" style="stroke:#181818;stroke-width:0.5;" width="140" x="338.5" y="797"/><ellipse cx="357.55" cy="813" fill="#ADD1B2" rx="11" ry="11" style="stroke:#181818;stroke-width:1.0;"/><path d="M360.3156,808.875 Q360.4719,808.6563 360.6594,808.5469 Q360.8469,808.4375 361.0656,808.4375 Q361.4406,808.4375 361.675,808.7031 Q361.9094,808.9531 361.9094,809.5625 L361.9094,811.0156 Q361.9094,811.625 361.675,811.8906 Q361.4406,812.1563 361.0656,812.1563 Q360.7219,812.1563 360.5188,811.9531 Q360.3156,811.7656 360.2063,811.25 Q360.1594,810.8906 359.9719,810.7031 Q359.6438,810.3281 359.0344,810.1094 Q358.425,809.8906 357.8,809.8906 Q357.0344,809.8906 356.3938,810.2188 Q355.7688,810.5469 355.2688,811.2969 Q354.7844,812.0469 354.7844,813.0781 L354.7844,814.1719 Q354.7844,815.4063 355.675,816.2344 Q356.5656,817.0469 358.1594,817.0469 Q359.0969,817.0469 359.7531,816.7969 Q360.1438,816.6406 360.5656,816.2031 Q360.8313,815.9375 360.9719,815.8594 Q361.1281,815.7813 361.3313,815.7813 Q361.6594,815.7813 361.9094,816.0469 Q362.175,816.2969 362.175,816.6406 Q362.175,816.9844 361.8313,817.3906 Q361.3313,817.9688 360.5344,818.2969 Q359.4563,818.75 358.1594,818.75 Q356.6438,818.75 355.4406,818.125 Q354.4563,817.625 353.7688,816.5625 Q353.0813,815.4844 353.0813,814.2031 L353.0813,813.0469 Q353.0813,811.7188 353.6906,810.5781 Q354.3156,809.4219 355.4094,808.8125 Q356.5031,808.1875 357.7375,808.1875 Q358.4719,808.1875 359.1125,808.3594 Q359.7688,808.5156 360.3156,808.875 Z " fill="#000000"/><text fill="#000000" font-family="sans-serif" font-size="14" lengthAdjust="spacing" textLength="99" x="372.45" y="818.7969">TaskRepository</text><line style="stroke:#181818;stroke-width:0.5;" x1="339.5" x2="477.5" y1="829" y2="829"/><line style="stroke:#181818;stroke-width:0.5;" x1="339.5" x2="477.5" y1="837" y2="837"/><text fill="#000000" font-family="sans-serif" font-size="14" lengthAdjust="spacing" textLength="87" x="344.5" y="856.1074">+getAgenda()</text><text fill="#000000" font-family="sans-serif" font-size="14" lengthAdjust="spacing" textLength="93" x="344.5" y="874.7285">+updateTask()</text><text fill="#000000" font-family="sans-serif" font-size="14" lengthAdjust="spacing" textLength="115" x="344.5" y="893.3496">+teamAvailability()</text><text fill="#000000" font-family="sans-serif" font-size="14" lengthAdjust="spacing" textLength="127" x="344.5" y="911.9707">+getAllTeamTasks()</text><text fill="#000000" font-family="sans-serif" font-size="14" lengthAdjust="spacing" textLength="128" x="344.5" y="930.5918">+getPlannedTasks()</text><text fill="#000000" font-family="sans-serif" font-size="14" lengthAdjust="spacing" textLength="128" x="344.5" y="949.2129">+getPendingTasks()</text><text fill="#000000" font-family="sans-serif" font-size="14" lengthAdjust="spacing" textLength="91" x="344.5" y="967.834">+existsTasks()</text></g><!--class TeamRepository--><g id="elem_TeamRepository"><rect codeLine="71" fill="#F1F1F1" height="85.2422" id="TeamRepository" rx="2.5" ry="2.5" style="stroke:#181818;stroke-width:0.5;" width="136" x="167.5" y="843.5"/><ellipse cx="182.5" cy="859.5" fill="#ADD1B2" rx="11" ry="11" style="stroke:#181818;stroke-width:1.0;"/><path d="M185.2656,855.375 Q185.4219,855.1563 185.6094,855.0469 Q185.7969,854.9375 186.0156,854.9375 Q186.3906,854.9375 186.625,855.2031 Q186.8594,855.4531 186.8594,856.0625 L186.8594,857.5156 Q186.8594,858.125 186.625,858.3906 Q186.3906,858.6563 186.0156,858.6563 Q185.6719,858.6563 185.4688,858.4531 Q185.2656,858.2656 185.1563,857.75 Q185.1094,857.3906 184.9219,857.2031 Q184.5938,856.8281 183.9844,856.6094 Q183.375,856.3906 182.75,856.3906 Q181.9844,856.3906 181.3438,856.7188 Q180.7188,857.0469 180.2188,857.7969 Q179.7344,858.5469 179.7344,859.5781 L179.7344,860.6719 Q179.7344,861.9063 180.625,862.7344 Q181.5156,863.5469 183.1094,863.5469 Q184.0469,863.5469 184.7031,863.2969 Q185.0938,863.1406 185.5156,862.7031 Q185.7813,862.4375 185.9219,862.3594 Q186.0781,862.2813 186.2813,862.2813 Q186.6094,862.2813 186.8594,862.5469 Q187.125,862.7969 187.125,863.1406 Q187.125,863.4844 186.7813,863.8906 Q186.2813,864.4688 185.4844,864.7969 Q184.4063,865.25 183.1094,865.25 Q181.5938,865.25 180.3906,864.625 Q179.4063,864.125 178.7188,863.0625 Q178.0313,861.9844 178.0313,860.7031 L178.0313,859.5469 Q178.0313,858.2188 178.6406,857.0781 Q179.2656,855.9219 180.3594,855.3125 Q181.4531,854.6875 182.6875,854.6875 Q183.4219,854.6875 184.0625,854.8594 Q184.7188,855.0156 185.2656,855.375 Z " fill="#000000"/><text fill="#000000" font-family="sans-serif" font-size="14" lengthAdjust="spacing" textLength="104" x="196.5" y="865.2969">TeamRepository</text><line style="stroke:#181818;stroke-width:0.5;" x1="168.5" x2="302.5" y1="875.5" y2="875.5"/><line style="stroke:#181818;stroke-width:0.5;" x1="168.5" x2="302.5" y1="883.5" y2="883.5"/><text fill="#000000" font-family="sans-serif" font-size="14" lengthAdjust="spacing" textLength="100" x="173.5" y="902.6074">-validateTeam()</text><text fill="#000000" font-family="sans-serif" font-size="14" lengthAdjust="spacing" textLength="96" x="173.5" y="921.2285">+getAllTeams()</text></g><!--class Repositories--><g id="elem_Repositories"><rect codeLine="76" fill="#F1F1F1" height="141.1055" id="Repositories" rx="2.5" ry="2.5" style="stroke:#181818;stroke-width:0.5;" width="194" x="167.5" y="595"/><ellipse cx="220.75" cy="611" fill="#ADD1B2" rx="11" ry="11" style="stroke:#181818;stroke-width:1.0;"/><path d="M223.5156,606.875 Q223.6719,606.6563 223.8594,606.5469 Q224.0469,606.4375 224.2656,606.4375 Q224.6406,606.4375 224.875,606.7031 Q225.1094,606.9531 225.1094,607.5625 L225.1094,609.0156 Q225.1094,609.625 224.875,609.8906 Q224.6406,610.1563 224.2656,610.1563 Q223.9219,610.1563 223.7188,609.9531 Q223.5156,609.7656 223.4063,609.25 Q223.3594,608.8906 223.1719,608.7031 Q222.8438,608.3281 222.2344,608.1094 Q221.625,607.8906 221,607.8906 Q220.2344,607.8906 219.5938,608.2188 Q218.9688,608.5469 218.4688,609.2969 Q217.9844,610.0469 217.9844,611.0781 L217.9844,612.1719 Q217.9844,613.4063 218.875,614.2344 Q219.7656,615.0469 221.3594,615.0469 Q222.2969,615.0469 222.9531,614.7969 Q223.3438,614.6406 223.7656,614.2031 Q224.0313,613.9375 224.1719,613.8594 Q224.3281,613.7813 224.5313,613.7813 Q224.8594,613.7813 225.1094,614.0469 Q225.375,614.2969 225.375,614.6406 Q225.375,614.9844 225.0313,615.3906 Q224.5313,615.9688 223.7344,616.2969 Q222.6563,616.75 221.3594,616.75 Q219.8438,616.75 218.6406,616.125 Q217.6563,615.625 216.9688,614.5625 Q216.2813,613.4844 216.2813,612.2031 L216.2813,611.0469 Q216.2813,609.7188 216.8906,608.5781 Q217.5156,607.4219 218.6094,606.8125 Q219.7031,606.1875 220.9375,606.1875 Q221.6719,606.1875 222.3125,606.3594 Q222.9688,606.5156 223.5156,606.875 Z " fill="#000000"/><text fill="#000000" font-family="sans-serif" font-size="14" lengthAdjust="spacing" textLength="79" x="241.25" y="616.7969">Repositories</text><line style="stroke:#181818;stroke-width:0.5;" x1="168.5" x2="360.5" y1="627" y2="627"/><line style="stroke:#181818;stroke-width:0.5;" x1="168.5" x2="360.5" y1="635" y2="635"/><text fill="#000000" font-family="sans-serif" font-size="14" lengthAdjust="spacing" textLength="94" x="173.5" y="654.1074">-Repositories()</text><text fill="#000000" font-family="sans-serif" font-size="14" lengthAdjust="spacing" textLength="182" x="173.5" y="672.7285">+getInstance() : Repositories</text><text fill="#000000" font-family="sans-serif" font-size="14" lengthAdjust="spacing" textLength="137" x="173.5" y="691.3496">+getTaskRepository()</text><text fill="#000000" font-family="sans-serif" font-size="14" lengthAdjust="spacing" textLength="168" x="173.5" y="709.9707">+getEmployeeRepository()</text><text fill="#000000" font-family="sans-serif" font-size="14" lengthAdjust="spacing" textLength="152" x="173.5" y="728.5918">+getVehicleRepository()</text></g><!--class Tasks--><g id="elem_Tasks"><rect codeLine="85" fill="#F1F1F1" height="66.6211" id="Tasks" rx="2.5" ry="2.5" style="stroke:#181818;stroke-width:0.5;" width="157" x="349" y="1054"/><ellipse cx="404.25" cy="1070" fill="#ADD1B2" rx="11" ry="11" style="stroke:#181818;stroke-width:1.0;"/><path d="M407.0156,1065.875 Q407.1719,1065.6563 407.3594,1065.5469 Q407.5469,1065.4375 407.7656,1065.4375 Q408.1406,1065.4375 408.375,1065.7031 Q408.6094,1065.9531 408.6094,1066.5625 L408.6094,1068.0156 Q408.6094,1068.625 408.375,1068.8906 Q408.1406,1069.1563 407.7656,1069.1563 Q407.4219,1069.1563 407.2188,1068.9531 Q407.0156,1068.7656 406.9063,1068.25 Q406.8594,1067.8906 406.6719,1067.7031 Q406.3438,1067.3281 405.7344,1067.1094 Q405.125,1066.8906 404.5,1066.8906 Q403.7344,1066.8906 403.0938,1067.2188 Q402.4688,1067.5469 401.9688,1068.2969 Q401.4844,1069.0469 401.4844,1070.0781 L401.4844,1071.1719 Q401.4844,1072.4063 402.375,1073.2344 Q403.2656,1074.0469 404.8594,1074.0469 Q405.7969,1074.0469 406.4531,1073.7969 Q406.8438,1073.6406 407.2656,1073.2031 Q407.5313,1072.9375 407.6719,1072.8594 Q407.8281,1072.7813 408.0313,1072.7813 Q408.3594,1072.7813 408.6094,1073.0469 Q408.875,1073.2969 408.875,1073.6406 Q408.875,1073.9844 408.5313,1074.3906 Q408.0313,1074.9688 407.2344,1075.2969 Q406.1563,1075.75 404.8594,1075.75 Q403.3438,1075.75 402.1406,1075.125 Q401.1563,1074.625 400.4688,1073.5625 Q399.7813,1072.4844 399.7813,1071.2031 L399.7813,1070.0469 Q399.7813,1068.7188 400.3906,1067.5781 Q401.0156,1066.4219 402.1094,1065.8125 Q403.2031,1065.1875 404.4375,1065.1875 Q405.1719,1065.1875 405.8125,1065.3594 Q406.4688,1065.5156 407.0156,1065.875 Z " fill="#000000"/><text fill="#000000" font-family="sans-serif" font-size="14" lengthAdjust="spacing" textLength="38" x="424.75" y="1075.7969">Tasks</text><line style="stroke:#181818;stroke-width:0.5;" x1="350" x2="505" y1="1086" y2="1086"/><text fill="#000000" font-family="sans-serif" font-size="14" lengthAdjust="spacing" textLength="145" x="355" y="1105.1074">-ArrayList&lt;Task&gt; tasks</text><line style="stroke:#181818;stroke-width:0.5;" x1="350" x2="505" y1="1112.6211" y2="1112.6211"/></g><!--link GSMUI to AssignTeamToTaskInTheAgendaUI--><g id="link_GSMUI_AssignTeamToTaskInTheAgendaUI"><path codeLine="91" d="M134.5,55.31 C134.5,71.5 134.5,87.98 134.5,109.71 " fill="none" id="GSMUI-to-AssignTeamToTaskInTheAgendaUI" style="stroke:#181818;stroke-width:1.0;stroke-dasharray:7.0,7.0;"/><polygon fill="#181818" points="134.5,115.71,138.5,106.71,134.5,110.71,130.5,106.71,134.5,115.71" style="stroke:#181818;stroke-width:1.0;"/><text fill="#000000" font-family="sans-serif" font-size="13" lengthAdjust="spacing" textLength="7" x="126.6906" y="76.9593">1</text><text fill="#000000" font-family="sans-serif" font-size="13" lengthAdjust="spacing" textLength="7" x="127.1391" y="104.5711">1</text></g><!--link Repositories to Repositories--><g id="link_Repositories_Repositories"><path codeLine="93" d="M361.78,647.41 C381.98,649.31 396.5,655.34 396.5,665.5 C396.5,675.66 387.9536,681.1281 367.7536,683.0281 " fill="none" id="Repositories-to-Repositories" style="stroke:#181818;stroke-width:1.0;"/><polygon fill="#181818" points="361.78,683.59,371.115,686.7296,366.758,683.1218,370.3659,678.7648,361.78,683.59" style="stroke:#181818;stroke-width:1.0;"/><text fill="#000000" font-family="sans-serif" font-size="13" lengthAdjust="spacing" textLength="49" x="402.5" y="671.0283">instance</text></g><!--link AssignTeamToTaskInTheAgendaUI to AssignTeamController--><g id="link_AssignTeamToTaskInTheAgendaUI_AssignTeamController"><path codeLine="96" d="M134.5,257.15 C134.5,276.18 134.5,291.24 134.5,311.84 " fill="none" id="AssignTeamToTaskInTheAgendaUI-to-AssignTeamController" style="stroke:#181818;stroke-width:1.0;stroke-dasharray:7.0,7.0;"/><polygon fill="#181818" points="134.5,317.84,138.5,308.84,134.5,312.84,130.5,308.84,134.5,317.84" style="stroke:#181818;stroke-width:1.0;"/></g><!--link AssignTeamController to Repositories--><g id="link_AssignTeamController_Repositories"><path codeLine="98" d="M193.22,534.29 C204.46,554.81 213.0699,570.5364 223.4499,589.5064 " fill="none" id="AssignTeamController-to-Repositories" style="stroke:#181818;stroke-width:1.0;stroke-dasharray:7.0,7.0;"/><polygon fill="#181818" points="226.33,594.77,225.5189,584.9546,223.9299,590.3837,218.5008,588.7947,226.33,594.77" style="stroke:#181818;stroke-width:1.0;"/></g><!--link Repositories to TaskRepository--><g id="link_Repositories_TaskRepository"><path codeLine="101" d="M310.46,736.24 C323.13,755.47 333.7488,771.5798 347.0188,791.7198 " fill="none" id="Repositories-to-TaskRepository" style="stroke:#181818;stroke-width:1.0;"/><polygon fill="#181818" points="350.32,796.73,348.7084,787.0139,347.569,792.5548,342.0281,791.4155,350.32,796.73" style="stroke:#181818;stroke-width:1.0;"/><text fill="#000000" font-family="sans-serif" font-size="13" lengthAdjust="spacing" textLength="7" x="307.6397" y="758.0776">1</text><text fill="#000000" font-family="sans-serif" font-size="13" lengthAdjust="spacing" textLength="7" x="338.2121" y="785.6594">1</text></g><!--link Repositories to TeamRepository--><g id="link_Repositories_TeamRepository"><path codeLine="102" d="M255.24,736.24 C250.57,771.46 245.8512,807.0624 241.8312,837.2824 " fill="none" id="Repositories-to-TeamRepository" style="stroke:#181818;stroke-width:1.0;"/><polygon fill="#181818" points="241.04,843.23,246.1918,834.836,241.6993,838.2737,238.2617,833.7811,241.04,843.23" style="stroke:#181818;stroke-width:1.0;"/><text fill="#000000" font-family="sans-serif" font-size="13" lengthAdjust="spacing" textLength="7" x="246.9839" y="758.0776">1</text><text fill="#000000" font-family="sans-serif" font-size="13" lengthAdjust="spacing" textLength="7" x="234.3651" y="832.0911">1</text></g><!--link TaskRepository to Employee--><g id="link_TaskRepository_Employee"><path codeLine="104" d="M338.27,958.03 C328.38,968.04 321.5,975 321.5,975 C321.5,975 277.1411,1016.9193 242.3111,1049.8293 " fill="none" id="TaskRepository-to-Employee" style="stroke:#181818;stroke-width:1.0;"/><polygon fill="#181818" points="237.95,1053.95,247.2389,1050.6763,241.5843,1050.5161,241.7446,1044.8615,237.95,1053.95" style="stroke:#181818;stroke-width:1.0;"/><text fill="#000000" font-family="sans-serif" font-size="13" lengthAdjust="spacing" textLength="7" x="323.6666" y="961.6069">1</text><text fill="#000000" font-family="sans-serif" font-size="13" lengthAdjust="spacing" textLength="5" x="239.2402" y="1042.7657">*</text></g><!--link TeamRepository to Employee--><g id="link_TeamRepository_Employee"><path codeLine="105" d="M228.79,928.82 C222.82,966.07 215.1512,1013.8859 209.6712,1048.0159 " fill="none" id="TeamRepository-to-Employee" style="stroke:#181818;stroke-width:1.0;"/><polygon fill="#181818" points="208.72,1053.94,214.0962,1045.6879,209.5127,1049.0032,206.1974,1044.4197,208.72,1053.94" style="stroke:#181818;stroke-width:1.0;"/><text fill="#000000" font-family="sans-serif" font-size="13" lengthAdjust="spacing" textLength="7" x="220.2266" y="950.7104">1</text><text fill="#000000" font-family="sans-serif" font-size="13" lengthAdjust="spacing" textLength="5" x="204.2555" y="1042.7537">*</text></g><!--link Employee to Task--><g id="link_Employee_Task"><path codeLine="107" d="M216.23,1121.08 C222.61,1137.4 228.7158,1153.0217 237.7758,1176.2017 " fill="none" id="Employee-to-Task" style="stroke:#181818;stroke-width:1.0;"/><polygon fill="#181818" points="239.96,1181.79,240.4092,1171.9514,238.1398,1177.1331,232.9581,1174.8637,239.96,1181.79" style="stroke:#181818;stroke-width:1.0;"/><text fill="#000000" font-family="sans-serif" font-size="13" lengthAdjust="spacing" textLength="7" x="210.8741" y="1142.6635">1</text><text fill="#000000" font-family="sans-serif" font-size="13" lengthAdjust="spacing" textLength="5" x="231.9506" y="1170.9998">*</text></g><!--link AssignTeamController to Employee--><g id="link_AssignTeamController_Employee"><path codeLine="110" d="M137.44,534.29 C141.8,693.82 149.5,975 149.5,975 C149.5,975 169.1845,1015.6401 185.1245,1048.5501 " fill="none" id="AssignTeamController-to-Employee" style="stroke:#181818;stroke-width:1.0;stroke-dasharray:7.0,7.0;"/><polygon fill="#181818" points="187.74,1053.95,187.4168,1044.1064,185.5604,1049.4501,180.2168,1047.5937,187.74,1053.95" style="stroke:#181818;stroke-width:1.0;"/></g><!--link TaskRepository to Tasks--><g id="link_TaskRepository_Tasks"><path codeLine="112" d="M416.89,975.08 C419.55,1003.06 421.7732,1026.2968 423.8132,1047.7968 " fill="none" id="TaskRepository-to-Tasks" style="stroke:#181818;stroke-width:1.0;"/><polygon fill="#181818" points="424.38,1053.77,427.512,1044.4324,423.9077,1048.7924,419.5477,1045.1881,424.38,1053.77" style="stroke:#181818;stroke-width:1.0;"/><text fill="#000000" font-family="sans-serif" font-size="13" lengthAdjust="spacing" textLength="53" x="421.5" y="1020.0283">list tasks</text><text fill="#000000" font-family="sans-serif" font-size="13" lengthAdjust="spacing" textLength="7" x="410.3102" y="997.4917">1</text><text fill="#000000" font-family="sans-serif" font-size="13" lengthAdjust="spacing" textLength="7" x="416.1181" y="1042.8121">1</text></g><!--link Tasks to Task--><g id="link_Tasks_Task"><path codeLine="113" d="M414.54,1121.08 C408.04,1137.4 401.8296,1153.0357 392.5996,1176.2157 " fill="none" id="Tasks-to-Task" style="stroke:#181818;stroke-width:1.0;"/><polygon fill="#181818" points="390.38,1181.79,397.4257,1174.9083,392.2297,1177.1447,389.9932,1171.9487,390.38,1181.79" style="stroke:#181818;stroke-width:1.0;"/><text fill="#000000" font-family="sans-serif" font-size="13" lengthAdjust="spacing" textLength="7" x="404.6081" y="1142.6635">1</text><text fill="#000000" font-family="sans-serif" font-size="13" lengthAdjust="spacing" textLength="5" x="388.2464" y="1170.9998">*</text></g><!--SRC=[VLJRRjim37tNLmXzQRlEnVOw3062DIW2x5BCQTyLctM4of8dqTcyOFy-qdUrRlDYyF3mTiZeF3nfMoclIbawwxA3ToL8z3M8oLEfx4aLa69ZG7h8KDd2p0dXe7BtMzj2FYeJvXwZBM1JWQoSQTWGvmjEvz69MLHcL0XhHA_tDS8sSpRLVq5-4EBSm2DATDBhue0orzoETbQ8DaRUfj_kjoVnRx3N8UZ2xa2LExTJuMbhTmTO5s1pnRmhNzkBIt4rqRuuYzuP0vxmnCEl6W9ovDma7fkXtfSQRnIg2oJelKJYNIuLdx9IJRLSR8PtlJ9cTC3rKMcZzWRO5GRqtZvggyC1SkQsS07OZTPodCeVbD7vfgJm5FnHPz3IZYFAGr0G9_W9bGiQdMy6a8f5u3ZMfgoCQm3aQQ7dHI7OSn89QgG3-YHJMgmjH993oBokU7ypDA3oB2ep-ICI6YcoENkA2kj0qCRMvNTLCiodDEKfF81DwNOPl1sDBlpUar1P4yLtiv2UD08v-3E13t3GcG6kkFPUDLzf1PzxSDNbtDwGKrlih3jMhfjiB37NYpSHEksxMVeDxcQnFMVJpSyMP_vn16zKnNlAbCbgGxw94gi-RP2t5Hr8NUKKCHmQxwq_D6qqDiCz6TCkTtPYTqPP6r_T7UKapKS8_f0wOJ2dXgAJeeDeBv6RwFMO2aPnOumc_Kz2qY-9G28pU2KfmTRI0TcCf23bvwI9ykBUHyzmsilUVjsHCvQRsqkc-s1erVuP0lE4Q9ydUVRnJ5vVhzhlcm-K4D7eIRAAjU1pwwQbt6zcQkijlKVpk0bjwP5uprgXrhaRdY1MytLQj7mXdbtdm7ntDhul8WvPf8ZnCU8QlPjJYpS6cw9VDY7dOx72_DRsA-oWMI7PLVeF]--></g></svg>