<?xml version="1.0" encoding="us-ascii" standalone="no"?><svg xmlns="http://www.w3.org/2000/svg" xmlns:xlink="http://www.w3.org/1999/xlink" contentStyleType="text/css" height="853px" preserveAspectRatio="none" style="width:1820px;height:853px;background:#FFFFFF;" version="1.1" viewBox="0 0 1820 853" width="1820px" zoomAndPan="magnify"><defs/><g><rect fill="#FFFFFF" height="667.625" style="stroke:#181818;stroke-width:1.0;" width="10" x="23" y="93.6211"/><rect fill="#FFFFFF" height="658.625" style="stroke:#181818;stroke-width:1.0;" width="10" x="23" y="93.6211"/><rect fill="#FFFFFF" height="31.291" style="stroke:#181818;stroke-width:1.0;" width="10" x="516" y="165.1641"/><rect fill="#FFFFFF" height="158.0859" style="stroke:#181818;stroke-width:1.0;" width="10" x="516" y="245.0371"/><rect fill="#FFFFFF" height="31.291" style="stroke:#181818;stroke-width:1.0;" width="10" x="516" y="434.4141"/><rect fill="#FFFFFF" height="255.25" style="stroke:#181818;stroke-width:1.0;" width="10" x="516" y="496.9961"/><rect fill="#FFFFFF" height="95.5039" style="stroke:#181818;stroke-width:1.0;" width="10" x="1002" y="276.3281"/><rect fill="#FFFFFF" height="175.377" style="stroke:#181818;stroke-width:1.0;" width="10" x="1002" y="545.5781"/><rect fill="#FFFFFF" height="95.5039" style="stroke:#181818;stroke-width:1.0;" width="10" x="1488" y="594.1602"/><line style="stroke:#181818;stroke-width:0.5;stroke-dasharray:5.0,5.0;" x1="23" x2="23" y1="83.6211" y2="770.2461"/><line style="stroke:#181818;stroke-width:0.5;stroke-dasharray:5.0,5.0;" x1="520.5" x2="520.5" y1="83.6211" y2="770.2461"/><line style="stroke:#181818;stroke-width:0.5;stroke-dasharray:5.0,5.0;" x1="1006.5" x2="1006.5" y1="83.6211" y2="770.2461"/><line style="stroke:#181818;stroke-width:0.5;stroke-dasharray:5.0,5.0;" x1="1493" x2="1493" y1="83.6211" y2="770.2461"/><text fill="#000000" font-family="sans-serif" font-size="14" lengthAdjust="spacing" textLength="30" x="5" y="80.1074">HRM</text><ellipse cx="23" cy="13.5" fill="#E3E3E3" rx="8" ry="8" style="stroke:#181818;stroke-width:0.5;"/><path d="M23,21.5 L23,48.5 M10,29.5 L36,29.5 M23,48.5 L10,63.5 M23,48.5 L36,63.5 " fill="none" style="stroke:#181818;stroke-width:0.5;"/><text fill="#000000" font-family="sans-serif" font-size="14" lengthAdjust="spacing" textLength="30" x="5" y="784.3535">HRM</text><ellipse cx="23" cy="796.3672" fill="#E3E3E3" rx="8" ry="8" style="stroke:#181818;stroke-width:0.5;"/><path d="M23,804.3672 L23,831.3672 M10,812.3672 L36,812.3672 M23,831.3672 L10,846.3672 M23,831.3672 L36,846.3672 " fill="none" style="stroke:#181818;stroke-width:0.5;"/><rect fill="#E3E3E3" height="32.6211" rx="2.5" ry="2.5" style="stroke:#181818;stroke-width:0.5;" width="161" x="440.5" y="50"/><text fill="#000000" font-family="sans-serif" font-size="14" lengthAdjust="spacing" textLength="147" x="447.5" y="72.1074">:RegisterCollaboratorUI</text><rect fill="#E3E3E3" height="32.6211" rx="2.5" ry="2.5" style="stroke:#181818;stroke-width:0.5;" width="161" x="440.5" y="769.2461"/><text fill="#000000" font-family="sans-serif" font-size="14" lengthAdjust="spacing" textLength="147" x="447.5" y="791.3535">:RegisterCollaboratorUI</text><rect fill="#E3E3E3" height="32.6211" rx="2.5" ry="2.5" style="stroke:#181818;stroke-width:0.5;" width="211" x="901.5" y="50"/><text fill="#000000" font-family="sans-serif" font-size="14" lengthAdjust="spacing" textLength="197" x="908.5" y="72.1074">:RegisterCollaboratorController</text><rect fill="#E3E3E3" height="32.6211" rx="2.5" ry="2.5" style="stroke:#181818;stroke-width:0.5;" width="211" x="901.5" y="769.2461"/><text fill="#000000" font-family="sans-serif" font-size="14" lengthAdjust="spacing" textLength="197" x="908.5" y="791.3535">:RegisterCollaboratorController</text><rect fill="#E3E3E3" height="51.2422" rx="2.5" ry="2.5" style="stroke:#181818;stroke-width:0.5;" width="80" x="1453" y="31.3789"/><text fill="#000000" font-family="sans-serif" font-size="14" lengthAdjust="spacing" textLength="61" x="1462.5" y="53.4863">employee</text><text fill="#000000" font-family="sans-serif" font-size="14" lengthAdjust="spacing" textLength="66" x="1460" y="72.1074">:Employee</text><rect fill="#E3E3E3" height="51.2422" rx="2.5" ry="2.5" style="stroke:#181818;stroke-width:0.5;" width="80" x="1453" y="769.2461"/><text fill="#000000" font-family="sans-serif" font-size="14" lengthAdjust="spacing" textLength="61" x="1462.5" y="791.3535">employee</text><text fill="#000000" font-family="sans-serif" font-size="14" lengthAdjust="spacing" textLength="66" x="1460" y="809.9746">:Employee</text><rect fill="#FFFFFF" height="667.625" style="stroke:#181818;stroke-width:1.0;" width="10" x="23" y="93.6211"/><rect fill="#FFFFFF" height="658.625" style="stroke:#181818;stroke-width:1.0;" width="10" x="23" y="93.6211"/><rect fill="#FFFFFF" height="31.291" style="stroke:#181818;stroke-width:1.0;" width="10" x="516" y="165.1641"/><rect fill="#FFFFFF" height="158.0859" style="stroke:#181818;stroke-width:1.0;" width="10" x="516" y="245.0371"/><rect fill="#FFFFFF" height="31.291" style="stroke:#181818;stroke-width:1.0;" width="10" x="516" y="434.4141"/><rect fill="#FFFFFF" height="255.25" style="stroke:#181818;stroke-width:1.0;" width="10" x="516" y="496.9961"/><rect fill="#FFFFFF" height="95.5039" style="stroke:#181818;stroke-width:1.0;" width="10" x="1002" y="276.3281"/><rect fill="#FFFFFF" height="175.377" style="stroke:#181818;stroke-width:1.0;" width="10" x="1002" y="545.5781"/><rect fill="#FFFFFF" height="95.5039" style="stroke:#181818;stroke-width:1.0;" width="10" x="1488" y="594.1602"/><rect fill="none" height="43.252" style="stroke:#000000;stroke-width:1.5;" width="602.5" x="2" y="93.6211"/><path d="M2,93.6211 L64,93.6211 L64,102.6211 L54,112.6211 L2,112.6211 L2,93.6211 " fill="#EEEEEE" style="stroke:#000000;stroke-width:2.0;"/><text fill="#000000" font-family="sans-serif" font-size="13" font-weight="bold" lengthAdjust="spacing" textLength="17" x="15" y="109.6494">ref</text><text fill="#000000" font-family="sans-serif" font-size="12" lengthAdjust="spacing" textLength="308" x="149.25" y="129.5703">This action assumes that the user has already logged in</text><polygon fill="#181818" points="504,161.1641,514,165.1641,504,169.1641,508,165.1641" style="stroke:#181818;stroke-width:1.0;"/><line style="stroke:#181818;stroke-width:1.0;" x1="33" x2="510" y1="165.1641" y2="165.1641"/><text fill="#000000" font-family="sans-serif" font-size="13" font-weight="bold" lengthAdjust="spacing" textLength="7" x="40" y="159.9014">1</text><text fill="#000000" font-family="sans-serif" font-size="13" lengthAdjust="spacing" textLength="192" x="51" y="159.9014">asks to create a new collaborator</text><polygon fill="#181818" points="44,192.4551,34,196.4551,44,200.4551,40,196.4551" style="stroke:#181818;stroke-width:1.0;"/><line style="stroke:#181818;stroke-width:1.0;stroke-dasharray:2.0,2.0;" x1="38" x2="520" y1="196.4551" y2="196.4551"/><text fill="#000000" font-family="sans-serif" font-size="13" font-weight="bold" lengthAdjust="spacing" textLength="7" x="50" y="191.1924">2</text><text fill="#000000" font-family="sans-serif" font-size="13" lengthAdjust="spacing" textLength="284" x="61" y="191.1924">shows fundamental characteristics (request data)</text><polygon fill="#181818" points="504,241.0371,514,245.0371,504,249.0371,508,245.0371" style="stroke:#181818;stroke-width:1.0;"/><line style="stroke:#181818;stroke-width:1.0;" x1="33" x2="510" y1="245.0371" y2="245.0371"/><text fill="#000000" font-family="sans-serif" font-size="13" font-weight="bold" lengthAdjust="spacing" textLength="7" x="40" y="231.1289">3</text><text fill="#000000" font-family="sans-serif" font-size="13" lengthAdjust="spacing" textLength="453" x="51" y="222.4834">types requested data (name, birth date, admission date, email, phone number,</text><text fill="#000000" font-family="sans-serif" font-size="13" lengthAdjust="spacing" textLength="343" x="55" y="239.7744">admission date, taxpayer number, ID doc type and number)</text><polygon fill="#181818" points="990,272.3281,1000,276.3281,990,280.3281,994,276.3281" style="stroke:#181818;stroke-width:1.0;"/><line style="stroke:#181818;stroke-width:1.0;" x1="526" x2="996" y1="276.3281" y2="276.3281"/><text fill="#000000" font-family="sans-serif" font-size="13" font-weight="bold" lengthAdjust="spacing" textLength="7" x="533" y="271.0654">4</text><text fill="#000000" font-family="sans-serif" font-size="13" lengthAdjust="spacing" textLength="74" x="544" y="271.0654">getJobsList()</text><rect fill="none" height="59.2129" style="stroke:#000000;stroke-width:1.5;" width="217" x="898.5" y="284.3281"/><path d="M898.5,284.3281 L960.5,284.3281 L960.5,293.3281 L950.5,303.3281 L898.5,303.3281 L898.5,284.3281 " fill="#EEEEEE" style="stroke:#000000;stroke-width:2.0;"/><text fill="#000000" font-family="sans-serif" font-size="13" font-weight="bold" lengthAdjust="spacing" textLength="17" x="911.5" y="300.3564">ref</text><text fill="#000000" font-family="sans-serif" font-size="12" lengthAdjust="spacing" textLength="72" x="971" y="320.2773">Get Jobs List</text><text fill="#000000" font-family="sans-serif" font-size="12" lengthAdjust="spacing" textLength="3" x="1005.5" y="336.2383">&#160;</text><polygon fill="#181818" points="537,367.832,527,371.832,537,375.832,533,371.832" style="stroke:#181818;stroke-width:1.0;"/><line style="stroke:#181818;stroke-width:1.0;stroke-dasharray:2.0,2.0;" x1="531" x2="1006" y1="371.832" y2="371.832"/><text fill="#000000" font-family="sans-serif" font-size="13" font-weight="bold" lengthAdjust="spacing" textLength="7" x="543" y="366.5693">5</text><text fill="#000000" font-family="sans-serif" font-size="13" lengthAdjust="spacing" textLength="45" x="554" y="366.5693">jobsList</text><polygon fill="#181818" points="44,399.123,34,403.123,44,407.123,40,403.123" style="stroke:#181818;stroke-width:1.0;"/><line style="stroke:#181818;stroke-width:1.0;stroke-dasharray:2.0,2.0;" x1="38" x2="520" y1="403.123" y2="403.123"/><text fill="#000000" font-family="sans-serif" font-size="13" font-weight="bold" lengthAdjust="spacing" textLength="7" x="50" y="397.8604">6</text><text fill="#000000" font-family="sans-serif" font-size="13" lengthAdjust="spacing" textLength="173" x="61" y="397.8604">shows job list  (selected data)</text><polygon fill="#181818" points="504,430.4141,514,434.4141,504,438.4141,508,434.4141" style="stroke:#181818;stroke-width:1.0;"/><line style="stroke:#181818;stroke-width:1.0;" x1="33" x2="510" y1="434.4141" y2="434.4141"/><text fill="#000000" font-family="sans-serif" font-size="13" font-weight="bold" lengthAdjust="spacing" textLength="7" x="40" y="429.1514">7</text><text fill="#000000" font-family="sans-serif" font-size="13" lengthAdjust="spacing" textLength="191" x="51" y="429.1514">selects one job from available list</text><polygon fill="#181818" points="44,461.7051,34,465.7051,44,469.7051,40,465.7051" style="stroke:#181818;stroke-width:1.0;"/><line style="stroke:#181818;stroke-width:1.0;stroke-dasharray:2.0,2.0;" x1="38" x2="520" y1="465.7051" y2="465.7051"/><text fill="#000000" font-family="sans-serif" font-size="13" font-weight="bold" lengthAdjust="spacing" textLength="7" x="50" y="460.4424">8</text><text fill="#000000" font-family="sans-serif" font-size="13" lengthAdjust="spacing" textLength="236" x="61" y="460.4424">shows all data and requests confirmation</text><polygon fill="#181818" points="504,492.9961,514,496.9961,504,500.9961,508,496.9961" style="stroke:#181818;stroke-width:1.0;"/><line style="stroke:#181818;stroke-width:1.0;" x1="33" x2="510" y1="496.9961" y2="496.9961"/><text fill="#000000" font-family="sans-serif" font-size="13" font-weight="bold" lengthAdjust="spacing" textLength="7" x="40" y="491.7334">9</text><text fill="#000000" font-family="sans-serif" font-size="13" lengthAdjust="spacing" textLength="78" x="51" y="491.7334">confirms data</text><polygon fill="#181818" points="990,541.5781,1000,545.5781,990,549.5781,994,545.5781" style="stroke:#181818;stroke-width:1.0;"/><line style="stroke:#181818;stroke-width:1.0;" x1="526" x2="996" y1="545.5781" y2="545.5781"/><text fill="#000000" font-family="sans-serif" font-size="13" font-weight="bold" lengthAdjust="spacing" textLength="14" x="533" y="531.6699">10</text><text fill="#000000" font-family="sans-serif" font-size="13" lengthAdjust="spacing" textLength="439" x="551" y="523.0244">registerCollaborator(name, birth date, admission date, email, phone number,</text><text fill="#000000" font-family="sans-serif" font-size="13" lengthAdjust="spacing" textLength="372" x="555" y="540.3154">admission date, taxpayer number, ID doc type and number), job)</text><polygon fill="#181818" points="1476,590.1602,1486,594.1602,1476,598.1602,1480,594.1602" style="stroke:#181818;stroke-width:1.0;"/><line style="stroke:#181818;stroke-width:1.0;" x1="1012" x2="1482" y1="594.1602" y2="594.1602"/><text fill="#000000" font-family="sans-serif" font-size="13" font-weight="bold" lengthAdjust="spacing" textLength="14" x="1019" y="580.252">11</text><text fill="#000000" font-family="sans-serif" font-size="13" lengthAdjust="spacing" textLength="439" x="1037" y="571.6064">registerCollaborator(name, birth date, admission date, email, phone number,</text><text fill="#000000" font-family="sans-serif" font-size="13" lengthAdjust="spacing" textLength="372" x="1041" y="588.8975">admission date, taxpayer number, ID doc type and number), job)</text><rect fill="none" height="59.2129" style="stroke:#000000;stroke-width:1.5;" width="364" x="1450" y="602.1602"/><path d="M1450,602.1602 L1512,602.1602 L1512,611.1602 L1502,621.1602 L1450,621.1602 L1450,602.1602 " fill="#EEEEEE" style="stroke:#000000;stroke-width:2.0;"/><text fill="#000000" font-family="sans-serif" font-size="13" font-weight="bold" lengthAdjust="spacing" textLength="17" x="1463" y="618.1885">ref</text><text fill="#000000" font-family="sans-serif" font-size="12" lengthAdjust="spacing" textLength="3" x="1630.5" y="638.1094">&#160;</text><text fill="#000000" font-family="sans-serif" font-size="12" lengthAdjust="spacing" textLength="356" x="1454" y="654.0703">Register Collaborator with a Job and Fundamental Charateristics</text><polygon fill="#181818" points="1023,685.6641,1013,689.6641,1023,693.6641,1019,689.6641" style="stroke:#181818;stroke-width:1.0;"/><line style="stroke:#181818;stroke-width:1.0;stroke-dasharray:2.0,2.0;" x1="1017" x2="1492" y1="689.6641" y2="689.6641"/><text fill="#000000" font-family="sans-serif" font-size="13" font-weight="bold" lengthAdjust="spacing" textLength="14" x="1029" y="684.4014">12</text><text fill="#000000" font-family="sans-serif" font-size="13" lengthAdjust="spacing" textLength="56" x="1047" y="684.4014">employee</text><polygon fill="#181818" points="537,716.9551,527,720.9551,537,724.9551,533,720.9551" style="stroke:#181818;stroke-width:1.0;"/><line style="stroke:#181818;stroke-width:1.0;stroke-dasharray:2.0,2.0;" x1="531" x2="1006" y1="720.9551" y2="720.9551"/><text fill="#000000" font-family="sans-serif" font-size="13" font-weight="bold" lengthAdjust="spacing" textLength="14" x="543" y="715.6924">13</text><text fill="#000000" font-family="sans-serif" font-size="13" lengthAdjust="spacing" textLength="56" x="561" y="715.6924">employee</text><polygon fill="#181818" points="39,748.2461,29,752.2461,39,756.2461,35,752.2461" style="stroke:#181818;stroke-width:1.0;"/><line style="stroke:#181818;stroke-width:1.0;stroke-dasharray:2.0,2.0;" x1="33" x2="520" y1="752.2461" y2="752.2461"/><text fill="#000000" font-family="sans-serif" font-size="13" font-weight="bold" lengthAdjust="spacing" textLength="14" x="45" y="746.9834">14</text><text fill="#000000" font-family="sans-serif" font-size="13" lengthAdjust="spacing" textLength="110" x="63" y="746.9834">operation message</text><!--SRC=[pLHDazem3BtxLsWumGpyWHouq7PBPpkTeRktlGX792wEdLeEb7zVsGbBMEXEJvro257yz2mzVV3Uk1O3Dj1uvtKTV4CGGqUANqzQr7kiw7iyMO90EgAhx1Z0DPR-Q5m5ExHCIc4NlUkQBGKbXeu-mEJpvki4a47-bRX5eqsBBiAas51bE59OUMjnwmCA_dcTmS_hly2kl8j1R0hPP_MqURpsegQr_aJquegFmsj6Vjiyg3v0Sy18ERHhAz0E_852CkOI3HJmL1k61F9EEBXhY27M6EL1qB5WQw566mZB4rXVLLI2SKeOOB7iEP3tukH12qXkGd1q13rAwHA5AA34Po6kYQ4GiVsHOTUv4Xjo4IteMggWHHHHncY6QQ2V7N644YFEL4bNPECuugcLw0UuX9aSOEg4U0vR4sATliWxberXJXdtDZLex1pQsZk2lj3p5tS3Y_YhnPCeCa1W_G5Ah_ErWAuSlizkirtcAeA4M57yuhVyABbDPvTwv28_K8Hq2EbKAH960LpOCaYfJBKuv_nZO1lhqWFlo2nWi086c39PQVr1f7TLxP4CIPn4i9EX0Zo8PBYL2KfyrndVkncjxSk1EQjS8POUSJiJ6apTzru80uupnH_bBOJuTfp-VVtdIQRPcxhrLLkc8VtV0hsqOTuWvvq4u-3WQ2GgJFsP6JwD1dQL1lPrNc_xDhEcl1T3fGeuhx1nqHFikhVleTxsTW6-fP0x26HtiMpsjvqqClDA7Fr-0m00]--></g></svg>