<?xml version="1.0" encoding="us-ascii" standalone="no"?><svg xmlns="http://www.w3.org/2000/svg" xmlns:xlink="http://www.w3.org/1999/xlink" contentStyleType="text/css" height="945px" preserveAspectRatio="none" style="width:884px;height:945px;background:#FFFFFF;" version="1.1" viewBox="0 0 884 945" width="884px" zoomAndPan="magnify"><defs/><g><!--class RegisterCollaboratorUI--><g id="elem_RegisterCollaboratorUI"><rect codeLine="11" fill="#F1F1F1" height="48" id="RegisterCollaboratorUI" rx="2.5" ry="2.5" style="stroke:#181818;stroke-width:0.5;" width="175" x="9" y="72"/><ellipse cx="24" cy="88" fill="#ADD1B2" rx="11" ry="11" style="stroke:#181818;stroke-width:1.0;"/><path d="M26.7656,83.875 Q26.9219,83.6563 27.1094,83.5469 Q27.2969,83.4375 27.5156,83.4375 Q27.8906,83.4375 28.125,83.7031 Q28.3594,83.9531 28.3594,84.5625 L28.3594,86.0156 Q28.3594,86.625 28.125,86.8906 Q27.8906,87.1563 27.5156,87.1563 Q27.1719,87.1563 26.9688,86.9531 Q26.7656,86.7656 26.6563,86.25 Q26.6094,85.8906 26.4219,85.7031 Q26.0938,85.3281 25.4844,85.1094 Q24.875,84.8906 24.25,84.8906 Q23.4844,84.8906 22.8438,85.2188 Q22.2188,85.5469 21.7188,86.2969 Q21.2344,87.0469 21.2344,88.0781 L21.2344,89.1719 Q21.2344,90.4063 22.125,91.2344 Q23.0156,92.0469 24.6094,92.0469 Q25.5469,92.0469 26.2031,91.7969 Q26.5938,91.6406 27.0156,91.2031 Q27.2813,90.9375 27.4219,90.8594 Q27.5781,90.7813 27.7813,90.7813 Q28.1094,90.7813 28.3594,91.0469 Q28.625,91.2969 28.625,91.6406 Q28.625,91.9844 28.2813,92.3906 Q27.7813,92.9688 26.9844,93.2969 Q25.9063,93.75 24.6094,93.75 Q23.0938,93.75 21.8906,93.125 Q20.9063,92.625 20.2188,91.5625 Q19.5313,90.4844 19.5313,89.2031 L19.5313,88.0469 Q19.5313,86.7188 20.1406,85.5781 Q20.7656,84.4219 21.8594,83.8125 Q22.9531,83.1875 24.1875,83.1875 Q24.9219,83.1875 25.5625,83.3594 Q26.2188,83.5156 26.7656,83.875 Z " fill="#000000"/><text fill="#000000" font-family="sans-serif" font-size="14" lengthAdjust="spacing" textLength="143" x="38" y="93.7969">RegisterCollaboratorUI</text><line style="stroke:#181818;stroke-width:0.5;" x1="10" x2="183" y1="104" y2="104"/><line style="stroke:#181818;stroke-width:0.5;" x1="10" x2="183" y1="112" y2="112"/></g><!--class RegisterCollaboratorController--><g id="elem_RegisterCollaboratorController"><rect codeLine="15" fill="#F1F1F1" height="178.3477" id="RegisterCollaboratorController" rx="2.5" ry="2.5" style="stroke:#181818;stroke-width:0.5;" width="658" x="219.5" y="7"/><ellipse cx="447.75" cy="23" fill="#ADD1B2" rx="11" ry="11" style="stroke:#181818;stroke-width:1.0;"/><path d="M450.5156,18.875 Q450.6719,18.6563 450.8594,18.5469 Q451.0469,18.4375 451.2656,18.4375 Q451.6406,18.4375 451.875,18.7031 Q452.1094,18.9531 452.1094,19.5625 L452.1094,21.0156 Q452.1094,21.625 451.875,21.8906 Q451.6406,22.1563 451.2656,22.1563 Q450.9219,22.1563 450.7188,21.9531 Q450.5156,21.7656 450.4063,21.25 Q450.3594,20.8906 450.1719,20.7031 Q449.8438,20.3281 449.2344,20.1094 Q448.625,19.8906 448,19.8906 Q447.2344,19.8906 446.5938,20.2188 Q445.9688,20.5469 445.4688,21.2969 Q444.9844,22.0469 444.9844,23.0781 L444.9844,24.1719 Q444.9844,25.4063 445.875,26.2344 Q446.7656,27.0469 448.3594,27.0469 Q449.2969,27.0469 449.9531,26.7969 Q450.3438,26.6406 450.7656,26.2031 Q451.0313,25.9375 451.1719,25.8594 Q451.3281,25.7813 451.5313,25.7813 Q451.8594,25.7813 452.1094,26.0469 Q452.375,26.2969 452.375,26.6406 Q452.375,26.9844 452.0313,27.3906 Q451.5313,27.9688 450.7344,28.2969 Q449.6563,28.75 448.3594,28.75 Q446.8438,28.75 445.6406,28.125 Q444.6563,27.625 443.9688,26.5625 Q443.2813,25.4844 443.2813,24.2031 L443.2813,23.0469 Q443.2813,21.7188 443.8906,20.5781 Q444.5156,19.4219 445.6094,18.8125 Q446.7031,18.1875 447.9375,18.1875 Q448.6719,18.1875 449.3125,18.3594 Q449.9688,18.5156 450.5156,18.875 Z " fill="#000000"/><text fill="#000000" font-family="sans-serif" font-size="14" lengthAdjust="spacing" textLength="193" x="468.25" y="28.7969">RegisterCollaboratorController</text><line style="stroke:#181818;stroke-width:0.5;" x1="220.5" x2="876.5" y1="39" y2="39"/><line style="stroke:#181818;stroke-width:0.5;" x1="220.5" x2="876.5" y1="47" y2="47"/><text fill="#000000" font-family="sans-serif" font-size="14" lengthAdjust="spacing" textLength="551" x="225.5" y="66.1074">+registerCollaborator(name : String, birthdate : Date,  email : String, phoneNumber : int,</text><text fill="#000000" font-family="sans-serif" font-size="14" lengthAdjust="spacing" textLength="642" x="229.5" y="84.7285">admission date : Date, taxpayerNumber : String, address : String, docNumber : String, jobTitle : String)</text><text fill="#000000" font-family="sans-serif" font-size="14" lengthAdjust="spacing" textLength="347" x="225.5" y="103.3496">+existsCollaborator(taxpayerNumber : String) : Boolean</text><text fill="#000000" font-family="sans-serif" font-size="14" lengthAdjust="spacing" textLength="230" x="225.5" y="121.9707">+getJobRepository() : JobRepository</text><text fill="#000000" font-family="sans-serif" font-size="14" lengthAdjust="spacing" textLength="310" x="225.5" y="140.5918">+getEmployeeRepository() : EmployeeRepository</text><text fill="#000000" font-family="sans-serif" font-size="14" lengthAdjust="spacing" textLength="176" x="225.5" y="159.2129">+getJobsList() : List&lt;String&gt;</text><text fill="#000000" font-family="sans-serif" font-size="14" lengthAdjust="spacing" textLength="145" x="225.5" y="177.834">+printEmployes() : void</text></g><!--class Repositories--><g id="elem_Repositories"><rect codeLine="26" fill="#F1F1F1" height="122.4844" id="Repositories" rx="2.5" ry="2.5" style="stroke:#181818;stroke-width:0.5;" width="194" x="267.5" y="264"/><ellipse cx="320.75" cy="280" fill="#ADD1B2" rx="11" ry="11" style="stroke:#181818;stroke-width:1.0;"/><path d="M323.5156,275.875 Q323.6719,275.6563 323.8594,275.5469 Q324.0469,275.4375 324.2656,275.4375 Q324.6406,275.4375 324.875,275.7031 Q325.1094,275.9531 325.1094,276.5625 L325.1094,278.0156 Q325.1094,278.625 324.875,278.8906 Q324.6406,279.1563 324.2656,279.1563 Q323.9219,279.1563 323.7188,278.9531 Q323.5156,278.7656 323.4063,278.25 Q323.3594,277.8906 323.1719,277.7031 Q322.8438,277.3281 322.2344,277.1094 Q321.625,276.8906 321,276.8906 Q320.2344,276.8906 319.5938,277.2188 Q318.9688,277.5469 318.4688,278.2969 Q317.9844,279.0469 317.9844,280.0781 L317.9844,281.1719 Q317.9844,282.4063 318.875,283.2344 Q319.7656,284.0469 321.3594,284.0469 Q322.2969,284.0469 322.9531,283.7969 Q323.3438,283.6406 323.7656,283.2031 Q324.0313,282.9375 324.1719,282.8594 Q324.3281,282.7813 324.5313,282.7813 Q324.8594,282.7813 325.1094,283.0469 Q325.375,283.2969 325.375,283.6406 Q325.375,283.9844 325.0313,284.3906 Q324.5313,284.9688 323.7344,285.2969 Q322.6563,285.75 321.3594,285.75 Q319.8438,285.75 318.6406,285.125 Q317.6563,284.625 316.9688,283.5625 Q316.2813,282.4844 316.2813,281.2031 L316.2813,280.0469 Q316.2813,278.7188 316.8906,277.5781 Q317.5156,276.4219 318.6094,275.8125 Q319.7031,275.1875 320.9375,275.1875 Q321.6719,275.1875 322.3125,275.3594 Q322.9688,275.5156 323.5156,275.875 Z " fill="#000000"/><text fill="#000000" font-family="sans-serif" font-size="14" lengthAdjust="spacing" textLength="79" x="341.25" y="285.7969">Repositories</text><line style="stroke:#181818;stroke-width:0.5;" x1="268.5" x2="460.5" y1="296" y2="296"/><line style="stroke:#181818;stroke-width:0.5;" x1="268.5" x2="460.5" y1="304" y2="304"/><text fill="#000000" font-family="sans-serif" font-size="14" lengthAdjust="spacing" textLength="94" x="273.5" y="323.1074">-Repositories()</text><text fill="#000000" font-family="sans-serif" font-size="14" lengthAdjust="spacing" textLength="182" x="273.5" y="341.7285">+getInstance() : Repositories</text><text fill="#000000" font-family="sans-serif" font-size="14" lengthAdjust="spacing" textLength="128" x="273.5" y="360.3496">+getJobRepository()</text><text fill="#000000" font-family="sans-serif" font-size="14" lengthAdjust="spacing" textLength="168" x="273.5" y="378.9707">+getEmployeeRepository()</text></g><!--class EmployeeRepository--><g id="elem_EmployeeRepository"><rect codeLine="34" fill="#F1F1F1" height="141.1055" id="EmployeeRepository" rx="2.5" ry="2.5" style="stroke:#181818;stroke-width:0.5;" width="407" x="331" y="465"/><ellipse cx="465.25" cy="481" fill="#ADD1B2" rx="11" ry="11" style="stroke:#181818;stroke-width:1.0;"/><path d="M468.0156,476.875 Q468.1719,476.6563 468.3594,476.5469 Q468.5469,476.4375 468.7656,476.4375 Q469.1406,476.4375 469.375,476.7031 Q469.6094,476.9531 469.6094,477.5625 L469.6094,479.0156 Q469.6094,479.625 469.375,479.8906 Q469.1406,480.1563 468.7656,480.1563 Q468.4219,480.1563 468.2188,479.9531 Q468.0156,479.7656 467.9063,479.25 Q467.8594,478.8906 467.6719,478.7031 Q467.3438,478.3281 466.7344,478.1094 Q466.125,477.8906 465.5,477.8906 Q464.7344,477.8906 464.0938,478.2188 Q463.4688,478.5469 462.9688,479.2969 Q462.4844,480.0469 462.4844,481.0781 L462.4844,482.1719 Q462.4844,483.4063 463.375,484.2344 Q464.2656,485.0469 465.8594,485.0469 Q466.7969,485.0469 467.4531,484.7969 Q467.8438,484.6406 468.2656,484.2031 Q468.5313,483.9375 468.6719,483.8594 Q468.8281,483.7813 469.0313,483.7813 Q469.3594,483.7813 469.6094,484.0469 Q469.875,484.2969 469.875,484.6406 Q469.875,484.9844 469.5313,485.3906 Q469.0313,485.9688 468.2344,486.2969 Q467.1563,486.75 465.8594,486.75 Q464.3438,486.75 463.1406,486.125 Q462.1563,485.625 461.4688,484.5625 Q460.7813,483.4844 460.7813,482.2031 L460.7813,481.0469 Q460.7813,479.7188 461.3906,478.5781 Q462.0156,477.4219 463.1094,476.8125 Q464.2031,476.1875 465.4375,476.1875 Q466.1719,476.1875 466.8125,476.3594 Q467.4688,476.5156 468.0156,476.875 Z " fill="#000000"/><text fill="#000000" font-family="sans-serif" font-size="14" lengthAdjust="spacing" textLength="130" x="485.75" y="486.7969">EmployeeRepository</text><line style="stroke:#181818;stroke-width:0.5;" x1="332" x2="737" y1="497" y2="497"/><text fill="#000000" font-family="sans-serif" font-size="14" lengthAdjust="spacing" textLength="200" x="337" y="516.1074">-employeeList : List&lt;Employee&gt;</text><line style="stroke:#181818;stroke-width:0.5;" x1="332" x2="737" y1="523.6211" y2="523.6211"/><text fill="#000000" font-family="sans-serif" font-size="14" lengthAdjust="spacing" textLength="395" x="337" y="542.7285">+getEmployee(taxpayerNumber : String) : Optional&lt;Employee&gt;</text><text fill="#000000" font-family="sans-serif" font-size="14" lengthAdjust="spacing" textLength="382" x="337" y="561.3496">+addEmployee(employee : Employee) : Optional&lt;Employee&gt;</text><text fill="#000000" font-family="sans-serif" font-size="14" lengthAdjust="spacing" textLength="328" x="337" y="579.9707">+validateEmployee(employee : Employee) : Boolean</text><text fill="#000000" font-family="sans-serif" font-size="14" lengthAdjust="spacing" textLength="222" x="337" y="598.5918">+printRegisteredEmployees() : void</text></g><!--class JobRepository--><g id="elem_JobRepository"><rect codeLine="42" fill="#F1F1F1" height="103.8633" id="JobRepository" rx="2.5" ry="2.5" style="stroke:#181818;stroke-width:0.5;" width="289" x="7" y="483.5"/><ellipse cx="102.25" cy="499.5" fill="#ADD1B2" rx="11" ry="11" style="stroke:#181818;stroke-width:1.0;"/><path d="M105.0156,495.375 Q105.1719,495.1563 105.3594,495.0469 Q105.5469,494.9375 105.7656,494.9375 Q106.1406,494.9375 106.375,495.2031 Q106.6094,495.4531 106.6094,496.0625 L106.6094,497.5156 Q106.6094,498.125 106.375,498.3906 Q106.1406,498.6563 105.7656,498.6563 Q105.4219,498.6563 105.2188,498.4531 Q105.0156,498.2656 104.9063,497.75 Q104.8594,497.3906 104.6719,497.2031 Q104.3438,496.8281 103.7344,496.6094 Q103.125,496.3906 102.5,496.3906 Q101.7344,496.3906 101.0938,496.7188 Q100.4688,497.0469 99.9688,497.7969 Q99.4844,498.5469 99.4844,499.5781 L99.4844,500.6719 Q99.4844,501.9063 100.375,502.7344 Q101.2656,503.5469 102.8594,503.5469 Q103.7969,503.5469 104.4531,503.2969 Q104.8438,503.1406 105.2656,502.7031 Q105.5313,502.4375 105.6719,502.3594 Q105.8281,502.2813 106.0313,502.2813 Q106.3594,502.2813 106.6094,502.5469 Q106.875,502.7969 106.875,503.1406 Q106.875,503.4844 106.5313,503.8906 Q106.0313,504.4688 105.2344,504.7969 Q104.1563,505.25 102.8594,505.25 Q101.3438,505.25 100.1406,504.625 Q99.1563,504.125 98.4688,503.0625 Q97.7813,501.9844 97.7813,500.7031 L97.7813,499.5469 Q97.7813,498.2188 98.3906,497.0781 Q99.0156,495.9219 100.1094,495.3125 Q101.2031,494.6875 102.4375,494.6875 Q103.1719,494.6875 103.8125,494.8594 Q104.4688,495.0156 105.0156,495.375 Z " fill="#000000"/><text fill="#000000" font-family="sans-serif" font-size="14" lengthAdjust="spacing" textLength="90" x="122.75" y="505.2969">JobRepository</text><line style="stroke:#181818;stroke-width:0.5;" x1="8" x2="295" y1="515.5" y2="515.5"/><text fill="#000000" font-family="sans-serif" font-size="14" lengthAdjust="spacing" textLength="128" x="13" y="534.6074">+jobsList : List&lt;Job&gt;</text><line style="stroke:#181818;stroke-width:0.5;" x1="8" x2="295" y1="542.1211" y2="542.1211"/><text fill="#000000" font-family="sans-serif" font-size="14" lengthAdjust="spacing" textLength="161" x="13" y="561.2285">+getJobsList() : List&lt;Job&gt;</text><text fill="#000000" font-family="sans-serif" font-size="14" lengthAdjust="spacing" textLength="277" x="13" y="579.8496">+getJobTitle(jobTitle String) : Optional&lt;Job&gt;</text></g><!--class Employee--><g id="elem_Employee"><rect codeLine="48" fill="#F1F1F1" height="271.4531" id="Employee" rx="2.5" ry="2.5" style="stroke:#181818;stroke-width:0.5;" width="169" x="450" y="667"/><ellipse cx="499.25" cy="683" fill="#ADD1B2" rx="11" ry="11" style="stroke:#181818;stroke-width:1.0;"/><path d="M502.0156,678.875 Q502.1719,678.6563 502.3594,678.5469 Q502.5469,678.4375 502.7656,678.4375 Q503.1406,678.4375 503.375,678.7031 Q503.6094,678.9531 503.6094,679.5625 L503.6094,681.0156 Q503.6094,681.625 503.375,681.8906 Q503.1406,682.1563 502.7656,682.1563 Q502.4219,682.1563 502.2188,681.9531 Q502.0156,681.7656 501.9063,681.25 Q501.8594,680.8906 501.6719,680.7031 Q501.3438,680.3281 500.7344,680.1094 Q500.125,679.8906 499.5,679.8906 Q498.7344,679.8906 498.0938,680.2188 Q497.4688,680.5469 496.9688,681.2969 Q496.4844,682.0469 496.4844,683.0781 L496.4844,684.1719 Q496.4844,685.4063 497.375,686.2344 Q498.2656,687.0469 499.8594,687.0469 Q500.7969,687.0469 501.4531,686.7969 Q501.8438,686.6406 502.2656,686.2031 Q502.5313,685.9375 502.6719,685.8594 Q502.8281,685.7813 503.0313,685.7813 Q503.3594,685.7813 503.6094,686.0469 Q503.875,686.2969 503.875,686.6406 Q503.875,686.9844 503.5313,687.3906 Q503.0313,687.9688 502.2344,688.2969 Q501.1563,688.75 499.8594,688.75 Q498.3438,688.75 497.1406,688.125 Q496.1563,687.625 495.4688,686.5625 Q494.7813,685.4844 494.7813,684.2031 L494.7813,683.0469 Q494.7813,681.7188 495.3906,680.5781 Q496.0156,679.4219 497.1094,678.8125 Q498.2031,678.1875 499.4375,678.1875 Q500.1719,678.1875 500.8125,678.3594 Q501.4688,678.5156 502.0156,678.875 Z " fill="#000000"/><text fill="#000000" font-family="sans-serif" font-size="14" lengthAdjust="spacing" textLength="62" x="519.75" y="688.7969">Employee</text><line style="stroke:#181818;stroke-width:0.5;" x1="451" x2="618" y1="699" y2="699"/><text fill="#000000" font-family="sans-serif" font-size="14" lengthAdjust="spacing" textLength="89" x="456" y="718.1074">-name : String</text><text fill="#000000" font-family="sans-serif" font-size="14" lengthAdjust="spacing" textLength="103" x="456" y="736.7285">-birthdate : Date</text><text fill="#000000" font-family="sans-serif" font-size="14" lengthAdjust="spacing" textLength="87" x="456" y="755.3496">-email : String</text><text fill="#000000" font-family="sans-serif" font-size="14" lengthAdjust="spacing" textLength="121" x="456" y="773.9707">-phoneNumber : int</text><text fill="#000000" font-family="sans-serif" font-size="14" lengthAdjust="spacing" textLength="142" x="456" y="792.5918">-admission date : Date</text><text fill="#000000" font-family="sans-serif" font-size="14" lengthAdjust="spacing" textLength="157" x="456" y="811.2129">-taxpayerNumber : String</text><text fill="#000000" font-family="sans-serif" font-size="14" lengthAdjust="spacing" textLength="105" x="456" y="829.834">-address : String</text><text fill="#000000" font-family="sans-serif" font-size="14" lengthAdjust="spacing" textLength="126" x="456" y="848.4551">-docNumber : String</text><text fill="#000000" font-family="sans-serif" font-size="14" lengthAdjust="spacing" textLength="100" x="456" y="867.0762">-jobTitle : String</text><line style="stroke:#181818;stroke-width:0.5;" x1="451" x2="618" y1="874.5898" y2="874.5898"/><text fill="#000000" font-family="sans-serif" font-size="14" lengthAdjust="spacing" textLength="80" x="456" y="893.6973">+Employee()</text><text fill="#000000" font-family="sans-serif" font-size="14" lengthAdjust="spacing" textLength="123" x="456" y="912.3184">+equals() : boolean</text><text fill="#000000" font-family="sans-serif" font-size="14" lengthAdjust="spacing" textLength="126" x="456" y="930.9395">+clone() : Employee</text></g><!--link RegisterCollaboratorController to Repositories--><g id="link_RegisterCollaboratorController_Repositories"><path codeLine="68" d="M477.1,185.09 C455.78,211.38 436.6883,234.9391 417.1683,259.0191 " fill="none" id="RegisterCollaboratorController-to-Repositories" style="stroke:#181818;stroke-width:1.0;stroke-dasharray:7.0,7.0;"/><polygon fill="#181818" points="413.39,263.68,422.1648,259.2075,416.5386,259.7959,415.9502,254.1697,413.39,263.68" style="stroke:#181818;stroke-width:1.0;"/><text fill="#000000" font-family="sans-serif" font-size="13" lengthAdjust="spacing" textLength="67" x="452.5" y="230.0283">repositories</text></g><!--link RegisterCollaboratorController to Employee--><g id="link_RegisterCollaboratorController_Employee"><path codeLine="69" d="M621.01,185.39 C653.87,225.45 685.5,264 685.5,264 C685.5,264 755.5,465 755.5,465 C755.5,465 755.5,606 755.5,606 C755.5,606 686.1343,667.3649 623.8043,722.4949 " fill="none" id="RegisterCollaboratorController-to-Employee" style="stroke:#181818;stroke-width:1.0;stroke-dasharray:7.0,7.0;"/><polygon fill="#181818" points="619.31,726.47,628.7015,723.5035,623.0552,723.1574,623.4013,717.5111,619.31,726.47" style="stroke:#181818;stroke-width:1.0;"/><text fill="#000000" font-family="sans-serif" font-size="13" lengthAdjust="spacing" textLength="126" x="745.5" y="431.0283">employee : Employee</text></g><!--link RegisterCollaboratorController to JobRepository--><g id="link_RegisterCollaboratorController_JobRepository"><path codeLine="70" d="M348.21,185.02 C256.76,225.21 168.5,264 168.5,264 C168.5,264 160.0265,398.8918 155.0965,477.3118 " fill="none" id="RegisterCollaboratorController-to-JobRepository" style="stroke:#181818;stroke-width:1.0;stroke-dasharray:7.0,7.0;"/><polygon fill="#181818" points="154.72,483.3,159.2768,474.5687,155.0337,478.3099,151.2926,474.0668,154.72,483.3" style="stroke:#181818;stroke-width:1.0;"/><text fill="#000000" font-family="sans-serif" font-size="13" lengthAdjust="spacing" textLength="79" x="169.5" y="330.5283">jobRepository</text></g><!--link RegisterCollaboratorController to EmployeeRepository--><g id="link_RegisterCollaboratorController_EmployeeRepository"><path codeLine="71" d="M553.26,185.39 C555.42,225.45 557.5,264 557.5,264 C557.5,264 557.5,386 557.5,386 C557.5,386 552.2074,420.1506 546.2474,458.6706 " fill="none" id="RegisterCollaboratorController-to-EmployeeRepository" style="stroke:#181818;stroke-width:1.0;stroke-dasharray:7.0,7.0;"/><polygon fill="#181818" points="545.33,464.6,550.6591,456.3175,546.0945,459.6588,542.7532,455.0942,545.33,464.6" style="stroke:#181818;stroke-width:1.0;"/><text fill="#000000" font-family="sans-serif" font-size="13" lengthAdjust="spacing" textLength="118" x="558.5" y="330.5283">employeeRepository</text></g><!--link JobRepository to Employee--><g id="link_JobRepository_Employee"><path codeLine="72" d="M225.35,587.59 C289.58,632.04 377.7159,693.0161 444.9359,739.5261 " fill="none" id="JobRepository-to-Employee" style="stroke:#181818;stroke-width:1.0;"/><polygon fill="#181818" points="449.87,742.94,444.7448,734.5297,445.7583,740.0951,440.1929,741.1085,449.87,742.94" style="stroke:#181818;stroke-width:1.0;"/><text fill="#000000" font-family="sans-serif" font-size="13" lengthAdjust="spacing" textLength="7" x="227.3636" y="609.4088">1</text><text fill="#000000" font-family="sans-serif" font-size="13" lengthAdjust="spacing" textLength="5" x="437.11" y="733.8995">*</text></g><!--link EmployeeRepository to Employee--><g id="link_EmployeeRepository_Employee"><path codeLine="73" d="M534.5,606.13 C534.5,624.91 534.5,639.89 534.5,660.94 " fill="none" id="EmployeeRepository-to-Employee" style="stroke:#181818;stroke-width:1.0;"/><polygon fill="#181818" points="534.5,666.94,538.5,657.94,534.5,661.94,530.5,657.94,534.5,666.94" style="stroke:#181818;stroke-width:1.0;"/><text fill="#000000" font-family="sans-serif" font-size="13" lengthAdjust="spacing" textLength="7" x="527.1391" y="628.3282">1</text><text fill="#000000" font-family="sans-serif" font-size="13" lengthAdjust="spacing" textLength="5" x="529.3555" y="655.6352">*</text></g><!--link Repositories to JobRepository--><g id="link_Repositories_JobRepository"><path codeLine="74" d="M303.18,386.03 C271.72,416.82 238.088,449.7433 208.028,479.1633 " fill="none" id="Repositories-to-JobRepository" style="stroke:#181818;stroke-width:1.0;"/><polygon fill="#181818" points="203.74,483.36,212.9699,479.9236,207.3134,479.8627,207.3742,474.2062,203.74,483.36" style="stroke:#181818;stroke-width:1.0;"/><text fill="#000000" font-family="sans-serif" font-size="13" lengthAdjust="spacing" textLength="7" x="288.2801" y="408.5205">1</text><text fill="#000000" font-family="sans-serif" font-size="13" lengthAdjust="spacing" textLength="7" x="203.2894" y="472.2686">1</text></g><!--link Repositories to EmployeeRepository--><g id="link_Repositories_EmployeeRepository"><path codeLine="75" d="M413.44,386.03 C433.55,410.69 453.1683,434.7499 474.0183,460.3199 " fill="none" id="Repositories-to-EmployeeRepository" style="stroke:#181818;stroke-width:1.0;"/><polygon fill="#181818" points="477.81,464.97,475.2225,455.4671,474.6503,461.095,469.0224,460.5227,477.81,464.97" style="stroke:#181818;stroke-width:1.0;"/><text fill="#000000" font-family="sans-serif" font-size="13" lengthAdjust="spacing" textLength="7" x="411.978" y="408.5205">1</text><text fill="#000000" font-family="sans-serif" font-size="13" lengthAdjust="spacing" textLength="7" x="464.6029" y="453.8579">1</text></g><!--link RegisterCollaboratorUI to RegisterCollaboratorController--><g id="link_RegisterCollaboratorUI_RegisterCollaboratorController"><path codeLine="76" d="M184.14,96 C196.83,96 203.04,96 213.28,96 " fill="none" id="RegisterCollaboratorUI-to-RegisterCollaboratorController" style="stroke:#181818;stroke-width:1.0;stroke-dasharray:7.0,7.0;"/><polygon fill="#181818" points="219.28,96,210.28,92,214.28,96,210.28,100,219.28,96" style="stroke:#181818;stroke-width:1.0;"/></g><!--link Repositories to Repositories--><g id="link_Repositories_Repositories"><path codeLine="77" d="M461.78,306.91 C481.98,308.81 496.5,314.84 496.5,325 C496.5,335.16 487.9536,340.6281 467.7536,342.5281 " fill="none" id="Repositories-to-Repositories" style="stroke:#181818;stroke-width:1.0;"/><polygon fill="#181818" points="461.78,343.09,471.115,346.2296,466.758,342.6218,470.3659,338.2648,461.78,343.09" style="stroke:#181818;stroke-width:1.0;"/><text fill="#000000" font-family="sans-serif" font-size="13" lengthAdjust="spacing" textLength="49" x="502.5" y="330.5283">instance</text></g><!--SRC=[bLLDSzCm4BtxLsXoIKgJ3bmpJ6QWz90E0pCDtBZ8zjPHAskDf9GQXl_Eoh4joNRIuejZxTlLVhnzcPj7eIgkUSbAL9ZjDPR0h3v0uYqLpnvv0JjRIs0QCijL8KE0sVCSVmbLi7ikJMYHGe6jAs0Lojfz9FC98sgBWLCckJ4VhDKYFLZOPgXsuZUmjqaobt1lcKMcHR6tB1Sk6u4gIPB6YTr18Om5VOrIyXGrjwY_RzcV9Fbx3dADochw1ksWZ9vBAdICMoXExLcp7UMcYYLBXRRxd5jtzebUIyQWv486a6gF2huSofHYhvbGTlb3CPwNmXXAd4NEbZzNl0RTmxiWFCyrKEx-9CTiX7h0z9kmqYTuqPO2prI9YGevSTK5_Vg8A86hrhS0Uulf7LHe13dM2mU9JZpmfgmarW03zFWuYcq-KtODqFruVqnaqq8g-kZYcWRqX2AFnja65M1eUCwBhQBJnR4Dn_ksoX1zCsX2XQW0CwWti4mL6EGoDhSPhQ2rk0gxGZjqMseG_jnqlbQEy5mEtOaYlNjtMz3xSwvFN0h7mvVy8s8qW-bs2VgxWndrROdwsNRayg4TVDSD0lb6Z5anD3T4N_ICd-XFup4QJKSHDvHecVtnSAcz9TvjVpxQSM-Qt7HlFZ7eq3_UV6yPAu2tZPIW5RL-mgqomCy32NRJvJGSRYQfe6XtNIVTyu9wNbrjegrQaum6E_OAxnlFlGaQlYP2HBUrKyL0UFuZWp08Z2KiPlNitOojLXisUpFpoKxemIGkqh0UGU_RGUudO1C2U-AFi1dFkGx4bwpYQJRaFkfdyWy0]--></g></svg>