<?xml version="1.0" encoding="us-ascii" standalone="no"?><svg xmlns="http://www.w3.org/2000/svg" xmlns:xlink="http://www.w3.org/1999/xlink" contentStyleType="text/css" height="2005px" preserveAspectRatio="none" style="width:825px;height:2005px;background:#FFFFFF;" version="1.1" viewBox="0 0 825 2005" width="825px" zoomAndPan="magnify"><defs/><g><text fill="#000000" font-family="sans-serif" font-size="14" font-weight="bold" lengthAdjust="spacing" textLength="127" x="342.2528" y="25.1074">Use Case Diagram</text><!--entity Collaborator--><g id="elem_Collaborator"><ellipse cx="45" cy="1883.1211" fill="#F1F1F1" rx="8" ry="8" style="stroke:#181818;stroke-width:0.5;"/><path d="M45,1891.1211 L45,1918.1211 M32,1899.1211 L58,1899.1211 M45,1918.1211 L32,1933.1211 M45,1918.1211 L58,1933.1211 " fill="none" style="stroke:#181818;stroke-width:0.5;"/><text fill="#000000" font-family="sans-serif" font-size="14" lengthAdjust="spacing" textLength="78" x="6" y="1949.7285">Collaborator</text></g><!--entity GSM--><g id="elem_GSM"><ellipse cx="45" cy="1324.1211" fill="#F1F1F1" rx="8" ry="8" style="stroke:#181818;stroke-width:0.5;"/><path d="M45,1332.1211 L45,1359.1211 M32,1340.1211 L58,1340.1211 M45,1359.1211 L32,1374.1211 M45,1359.1211 L58,1374.1211 " fill="none" style="stroke:#181818;stroke-width:0.5;"/><text fill="#000000" font-family="sans-serif" font-size="14" lengthAdjust="spacing" textLength="31" x="29.5" y="1390.7285">GSM</text></g><!--entity VFM--><g id="elem_VFM"><ellipse cx="45" cy="693.1211" fill="#F1F1F1" rx="8" ry="8" style="stroke:#181818;stroke-width:0.5;"/><path d="M45,701.1211 L45,728.1211 M32,709.1211 L58,709.1211 M45,728.1211 L32,743.1211 M45,728.1211 L58,743.1211 " fill="none" style="stroke:#181818;stroke-width:0.5;"/><text fill="#000000" font-family="sans-serif" font-size="14" lengthAdjust="spacing" textLength="29" x="30.5" y="759.7285">VFM</text></g><!--entity HRM--><g id="elem_HRM"><ellipse cx="45" cy="287.1211" fill="#F1F1F1" rx="8" ry="8" style="stroke:#181818;stroke-width:0.5;"/><path d="M45,295.1211 L45,322.1211 M32,303.1211 L58,303.1211 M45,322.1211 L32,337.1211 M45,322.1211 L58,337.1211 " fill="none" style="stroke:#181818;stroke-width:0.5;"/><text fill="#000000" font-family="sans-serif" font-size="14" lengthAdjust="spacing" textLength="30" x="30" y="353.7285">HRM</text></g><g id="elem_UC1"><ellipse cx="482.0756" cy="82.2362" fill="#F1F1F1" rx="171.0756" ry="36.6151" style="stroke:#181818;stroke-width:0.5;"/><text fill="#000000" font-family="sans-serif" font-size="14" lengthAdjust="spacing" textLength="311" x="326.5756" y="86.0331">UC1 - Register skills that a collaborator may have</text></g><g id="elem_UC2"><ellipse cx="482.154" cy="192.9519" fill="#F1F1F1" rx="182.154" ry="38.8308" style="stroke:#181818;stroke-width:0.5;"/><text fill="#000000" font-family="sans-serif" font-size="14" lengthAdjust="spacing" textLength="334" x="315.154" y="196.7488">UC2 - Register a job that a collaborator need to have</text></g><g id="elem_UC3"><ellipse cx="482.1245" cy="317.946" fill="#F1F1F1" rx="239.6245" ry="50.3249" style="stroke:#181818;stroke-width:0.5;"/><text fill="#000000" font-family="sans-serif" font-size="14" lengthAdjust="spacing" textLength="452" x="256.1245" y="321.7429">UC3 - Register a collaborator with a job and fundamental characteristics</text></g><g id="elem_UC4"><ellipse cx="482.2154" cy="440.0642" fill="#F1F1F1" rx="167.7154" ry="35.9431" style="stroke:#181818;stroke-width:0.5;"/><text fill="#000000" font-family="sans-serif" font-size="14" lengthAdjust="spacing" textLength="304" x="330.2154" y="443.861">UC4 - Assign one or more skills to a collaborator</text></g><g id="elem_UC5"><ellipse cx="481.969" cy="545.9149" fill="#F1F1F1" rx="161.969" ry="34.7938" style="stroke:#181818;stroke-width:0.5;"/><text fill="#000000" font-family="sans-serif" font-size="14" lengthAdjust="spacing" textLength="292" x="335.969" y="549.7118">UC5 - Generate a team proposal automatically</text></g><g id="elem_UC6"><ellipse cx="481.7971" cy="638.0805" fill="#F1F1F1" rx="97.7971" ry="21.9594" style="stroke:#181818;stroke-width:0.5;"/><text fill="#000000" font-family="sans-serif" font-size="14" lengthAdjust="spacing" textLength="153" x="403.519" y="642.5076">UC6 - Register a vehicle</text></g><g id="elem_UC7"><ellipse cx="481.8162" cy="724.0843" fill="#F1F1F1" rx="130.3162" ry="28.4632" style="stroke:#181818;stroke-width:0.5;"/><text fill="#000000" font-family="sans-serif" font-size="14" lengthAdjust="spacing" textLength="225" x="369.3162" y="727.8812">UC7 - Register a vehicle&#8217;s check-up</text></g><g id="elem_UC8"><ellipse cx="482.1952" cy="821.9601" fill="#F1F1F1" rx="157.1952" ry="33.839" style="stroke:#181818;stroke-width:0.5;"/><text fill="#000000" font-family="sans-serif" font-size="14" lengthAdjust="spacing" textLength="282" x="341.1952" y="825.757">UC8 - List the vehicles needing the check-up</text></g><g id="elem_UC20"><ellipse cx="481.7528" cy="961.0716" fill="#F1F1F1" rx="337.7528" ry="69.9506" style="stroke:#181818;stroke-width:0.5;"/><text fill="#000000" font-family="sans-serif" font-size="14" lengthAdjust="spacing" textLength="651" x="156.2528" y="964.8685">UC20 - Register a green space (garden, medium-sized park or large-sized park) and its respective area</text></g><g id="elem_UC21"><ellipse cx="482.2469" cy="1098.3705" fill="#F1F1F1" rx="146.7469" ry="31.7494" style="stroke:#181818;stroke-width:0.5;"/><text fill="#000000" font-family="sans-serif" font-size="14" lengthAdjust="spacing" textLength="260" x="352.2469" y="1102.1673">UC21 - Add a new entry to the To-Do List</text></g><g id="elem_UC22"><ellipse cx="481.7633" cy="1195.1738" fill="#F1F1F1" rx="138.2633" ry="30.0527" style="stroke:#181818;stroke-width:0.5;"/><text fill="#000000" font-family="sans-serif" font-size="14" lengthAdjust="spacing" textLength="242" x="360.7633" y="1198.9706">UC22 - Add a new entry in the Agenda</text></g><g id="elem_UC23"><ellipse cx="482.1749" cy="1296.2561" fill="#F1F1F1" rx="168.6749" ry="36.135" style="stroke:#181818;stroke-width:0.5;"/><text fill="#000000" font-family="sans-serif" font-size="14" lengthAdjust="spacing" textLength="306" x="329.1749" y="1300.0529">UC23 - Assign a Team to an entry in the Agenda</text></g><g id="elem_UC24"><ellipse cx="482.098" cy="1413.1407" fill="#F1F1F1" rx="218.098" ry="46.0196" style="stroke:#181818;stroke-width:0.5;"/><text fill="#000000" font-family="sans-serif" font-size="14" lengthAdjust="spacing" textLength="408" x="278.098" y="1416.9376">UC24 - Postpone an entry in the Agenda to a specific future date</text></g><g id="elem_UC25"><ellipse cx="481.8248" cy="1523.9861" fill="#F1F1F1" rx="137.3248" ry="29.865" style="stroke:#181818;stroke-width:0.5;"/><text fill="#000000" font-family="sans-serif" font-size="14" lengthAdjust="spacing" textLength="240" x="361.8248" y="1527.7829">UC25 - Cancel an entry in the Agenda</text></g><g id="elem_UC26"><ellipse cx="481.8205" cy="1633.8852" fill="#F1F1F1" rx="209.3205" ry="44.2641" style="stroke:#181818;stroke-width:0.5;"/><text fill="#000000" font-family="sans-serif" font-size="14" lengthAdjust="spacing" textLength="390" x="286.8205" y="1637.6821">UC26 - Assign one or more vehicles to an entry in the Agenda</text></g><g id="elem_UC27"><ellipse cx="482.1719" cy="1748.0555" fill="#F1F1F1" rx="157.6719" ry="33.9344" style="stroke:#181818;stroke-width:0.5;"/><text fill="#000000" font-family="sans-serif" font-size="14" lengthAdjust="spacing" textLength="283" x="340.6719" y="1751.8524">UC27 - List all green spaces managed by me</text></g><g id="elem_UC28"><ellipse cx="481.9798" cy="1860.2171" fill="#F1F1F1" rx="203.4798" ry="43.096" style="stroke:#181818;stroke-width:0.5;"/><text fill="#000000" font-family="sans-serif" font-size="14" lengthAdjust="spacing" textLength="378" x="292.9798" y="1864.0139">UC28 - Consult the tasks assigned to me between two dates</text></g><g id="elem_UC29"><ellipse cx="482.0839" cy="1969.2379" fill="#F1F1F1" rx="141.0839" ry="30.6168" style="stroke:#181818;stroke-width:0.5;"/><text fill="#000000" font-family="sans-serif" font-size="14" lengthAdjust="spacing" textLength="248" x="358.0839" y="1973.0347">UC29 - Record the completion of a task</text></g><!--link HRM to UC1--><g id="link_HRM_UC1"><path d="M56.05,278.4811 C68.98,236.1111 95.73,170.4211 144,136.1211 C192.06,101.9711 247.7082,86.8767 305.0682,80.3767 " fill="none" id="HRM-to-UC1" style="stroke:#181818;stroke-width:1.0;"/><polygon fill="#181818" points="311.03,79.7011,301.6368,76.7399,306.0618,80.2641,302.5376,84.689,311.03,79.7011" style="stroke:#181818;stroke-width:1.0;"/></g><!--link HRM to UC2--><g id="link_HRM_UC2"><path d="M60.08,305.3011 C78.12,289.6411 111.02,263.5711 144,250.1211 C196.48,228.7311 250.7683,216.2736 305.6483,207.9236 " fill="none" id="HRM-to-UC2" style="stroke:#181818;stroke-width:1.0;"/><polygon fill="#181818" points="311.58,207.0211,302.0807,204.4204,306.6369,207.7732,303.2841,212.3294,311.58,207.0211" style="stroke:#181818;stroke-width:1.0;"/></g><!--link HRM to UC3--><g id="link_HRM_UC3"><path d="M60.47,318.1211 C90.84,318.1211 158.85,318.1211 236.46,318.1211 " fill="none" id="HRM-to-UC3" style="stroke:#181818;stroke-width:1.0;"/><polygon fill="#181818" points="242.46,318.1211,233.46,314.1211,237.46,318.1211,233.46,322.1211,242.46,318.1211" style="stroke:#181818;stroke-width:1.0;"/></g><!--link HRM to UC4--><g id="link_HRM_UC4"><path d="M60.06,330.9811 C78.08,346.6911 110.96,372.8211 144,386.1211 C199.79,408.5811 258.3727,420.9276 315.9327,428.6076 " fill="none" id="HRM-to-UC4" style="stroke:#181818;stroke-width:1.0;"/><polygon fill="#181818" points="321.88,429.4011,313.4881,424.2459,316.9239,428.7398,312.43,432.1757,321.88,429.4011" style="stroke:#181818;stroke-width:1.0;"/></g><!--link HRM to UC5--><g id="link_HRM_UC5"><path d="M56.96,357.7911 C70.42,398.6111 97.42,460.6911 144,493.1211 C194.92,528.5711 254.6172,543.31 314.4372,549.03 " fill="none" id="HRM-to-UC5" style="stroke:#181818;stroke-width:1.0;"/><polygon fill="#181818" points="320.41,549.6011,311.8316,544.7626,315.4327,549.1252,311.0701,552.7263,320.41,549.6011" style="stroke:#181818;stroke-width:1.0;"/></g><!--link VFM to UC6--><g id="link_VFM_UC6"><path d="M59.73,715.9311 C78.19,705.3411 112.38,687.1611 144,678.1211 C223.31,655.4411 310.6716,645.9845 378.9916,641.7245 " fill="none" id="VFM-to-UC6" style="stroke:#181818;stroke-width:1.0;"/><polygon fill="#181818" points="384.98,641.3511,375.7485,637.9189,379.9897,641.6623,376.2464,645.9034,384.98,641.3511" style="stroke:#181818;stroke-width:1.0;"/></g><!--link VFM to UC7--><g id="link_VFM_UC7"><path d="M59.98,724.1211 C104.26,724.1211 238.79,724.1211 345.42,724.1211 " fill="none" id="VFM-to-UC7" style="stroke:#181818;stroke-width:1.0;"/><polygon fill="#181818" points="351.42,724.1211,342.42,720.1211,346.42,724.1211,342.42,728.1211,351.42,724.1211" style="stroke:#181818;stroke-width:1.0;"/></g><!--link VFM to UC8--><g id="link_VFM_UC8"><path d="M59.78,732.1411 C78.3,742.5511 112.54,760.5311 144,770.1211 C205.86,788.9811 270.3496,800.4511 330.7796,808.2711 " fill="none" id="VFM-to-UC8" style="stroke:#181818;stroke-width:1.0;"/><polygon fill="#181818" points="336.73,809.0411,328.3178,803.9191,331.7713,808.3994,327.2911,811.853,336.73,809.0411" style="stroke:#181818;stroke-width:1.0;"/></g><!--link GSM to UC20--><g id="link_GSM_UC20"><path d="M47.04,1315.5211 C50.97,1250.3611 68.46,1120.6511 144,1049.1211 C163.87,1030.3111 181.8133,1017.9505 206.8333,1006.1505 " fill="none" id="GSM-to-UC20" style="stroke:#181818;stroke-width:1.0;"/><polygon fill="#181818" points="212.26,1003.5911,202.4136,1003.8123,207.7377,1005.7239,205.8261,1011.048,212.26,1003.5911" style="stroke:#181818;stroke-width:1.0;"/></g><!--link GSM to UC21--><g id="link_GSM_UC21"><path d="M53.17,1315.2011 C64,1267.3711 89.38,1188.6111 144,1148.1211 C199.71,1106.8211 269.0863,1093.1363 334.4263,1090.1363 " fill="none" id="GSM-to-UC21" style="stroke:#181818;stroke-width:1.0;"/><polygon fill="#181818" points="340.42,1089.8611,331.246,1086.2781,335.4253,1090.0904,331.6129,1094.2697,340.42,1089.8611" style="stroke:#181818;stroke-width:1.0;"/></g><!--link GSM to UC22--><g id="link_GSM_UC22"><path d="M60.74,1329.4611 C77.37,1303.1111 106.98,1263.1911 144,1243.1211 C204.53,1210.3111 273.7735,1197.8232 337.7835,1193.5232 " fill="none" id="GSM-to-UC22" style="stroke:#181818;stroke-width:1.0;"/><polygon fill="#181818" points="343.77,1193.1211,334.5221,1189.7333,338.7812,1193.4562,335.0583,1197.7153,343.77,1193.1211" style="stroke:#181818;stroke-width:1.0;"/></g><!--link GSM to UC23--><g id="link_GSM_UC23"><path d="M60.72,1353.1211 C104.13,1347.2411 229.1644,1330.2776 333.4844,1316.1276 " fill="none" id="GSM-to-UC23" style="stroke:#181818;stroke-width:1.0;"/><polygon fill="#181818" points="339.43,1315.3211,329.974,1312.5671,334.4754,1315.9931,331.0493,1320.4945,339.43,1315.3211" style="stroke:#181818;stroke-width:1.0;"/></g><!--link GSM to UC24--><g id="link_GSM_UC24"><path d="M60.72,1357.0811 C98.46,1362.1111 196.4026,1375.1782 291.4426,1387.8482 " fill="none" id="GSM-to-UC24" style="stroke:#181818;stroke-width:1.0;"/><polygon fill="#181818" points="297.39,1388.6411,288.9975,1383.4869,292.4338,1387.9804,287.9404,1391.4167,297.39,1388.6411" style="stroke:#181818;stroke-width:1.0;"/></g><!--link GSM to UC25--><g id="link_GSM_UC25"><path d="M60.6,1383.8611 C76.83,1412.5711 105.84,1455.4611 144,1477.1211 C204.49,1511.4611 274.6398,1523.808 339.2398,1527.508 " fill="none" id="GSM-to-UC25" style="stroke:#181818;stroke-width:1.0;"/><polygon fill="#181818" points="345.23,1527.8511,336.4735,1523.343,340.2382,1527.5652,336.016,1531.3299,345.23,1527.8511" style="stroke:#181818;stroke-width:1.0;"/></g><!--link GSM to UC26--><g id="link_GSM_UC26"><path d="M52.47,1394.8611 C62.73,1444.4311 87.69,1528.0311 144,1572.1211 C181.24,1601.2811 221.9741,1617.0873 268.5441,1626.7073 " fill="none" id="GSM-to-UC26" style="stroke:#181818;stroke-width:1.0;"/><polygon fill="#181818" points="274.42,1627.9211,266.4153,1622.1831,269.5234,1626.9096,264.7969,1630.0177,274.42,1627.9211" style="stroke:#181818;stroke-width:1.0;"/></g><!--link GSM to UC27--><g id="link_GSM_UC27"><path d="M51.96,1394.7211 C64.98,1475.7011 98.47,1656.0211 144,1696.1211 C194.87,1740.9211 261.6565,1755.7714 326.5765,1758.8014 " fill="none" id="GSM-to-UC27" style="stroke:#181818;stroke-width:1.0;"/><polygon fill="#181818" points="332.57,1759.0811,323.7663,1754.6658,327.5754,1758.848,323.3933,1762.6571,332.57,1759.0811" style="stroke:#181818;stroke-width:1.0;"/></g><!--link Collaborator to UC28--><g id="link_Collaborator_UC28"><path d="M84.22,1909.3811 C133.98,1903.2011 218.3157,1892.7306 300.2057,1882.5606 " fill="none" id="Collaborator-to-UC28" style="stroke:#181818;stroke-width:1.0;"/><polygon fill="#181818" points="306.16,1881.8211,296.7356,1878.9608,301.1981,1882.4373,297.7216,1886.8998,306.16,1881.8211" style="stroke:#181818;stroke-width:1.0;"/></g><!--link Collaborator to UC29--><g id="link_Collaborator_UC29"><path d="M84.22,1918.9511 C145.17,1926.6611 261.0074,1941.3087 353.6574,1953.0187 " fill="none" id="Collaborator-to-UC29" style="stroke:#181818;stroke-width:1.0;"/><polygon fill="#181818" points="359.61,1953.7711,351.1826,1948.6741,354.6495,1953.1441,350.1795,1956.611,359.61,1953.7711" style="stroke:#181818;stroke-width:1.0;"/></g><!--SRC=[XPJFRjim3CRlVWgYfmrOWDRvsyk08iMwmmeCNRSxOpEE5bao9Bb1TjfhxFNs9ACSgwMAOCqX80LzdqJnPmOLDC5tJx16_hjLs3XiYqBJDa2mu5Ip2r0hHrLGrXG5Li4wM5kjSMCTSZ8ktNsx7wCVdrBq-U6-u5_lgOhk5z_NLp211sgK3-J0xvNM7i8E0o1KmXDQFC8Ed-W2q0FBf4SfFH1-sirP2qDKnnA4JIbjfhbDfZsei1kjqTImxKsDBPc06geTEgwE70jLvKVdgNIUiVEDzwenO0r1BCSwUYxNlZfjj9X9YpbRt94Xta2yFH2sq3dRMSzNm3xO5lbqrFeugkTIlSXBUwATgdHwX8NSkJoxy-_lFvuBfMe_wRjHjfIo5Sk-i8WVdfB83o-kJ3CilbAliWPUvgSsZiY0xx0YUDUWgybyW9Qz-dRYrIzkOuTk7zzHesj8hBqVsgE21qU-Yum-yNCvmjJmo-pSIDzDNVEHXWx0_NJ7s8vutqSxkRL3JKcQCrUUaIepI6yQOZoIB6EidBwWWF0OknZRR_vdaA5KHfQ-MX-wID9vuOceMBxQgefX3JtJLZCvoJ93gunihT5KfD-uISPKkJXFzNFttomi0wzS9eGOOac0vs_VOCCDtXmPWYJEy2iZVsjhVAzF20RqUyyxu-rENtrBiA5mYBRXO8VNIDzgcSDuFS1OMLUVmBLjfoaEEx3R-EcnTH9Uyp3ZcGQJoSTXABt4fOYd8fw9U5xmP1pZXOYN8buLF4UJvwLChcHIocGgavbCvZ9Po6HPo16ULbTdLw-BVm00]--></g></svg>