<?xml version="1.0" encoding="us-ascii" standalone="no"?><svg xmlns="http://www.w3.org/2000/svg" xmlns:xlink="http://www.w3.org/1999/xlink" contentStyleType="text/css" height="1420px" preserveAspectRatio="none" style="width:471px;height:1420px;background:#FFFFFF;" version="1.1" viewBox="0 0 471 1420" width="471px" zoomAndPan="magnify"><defs/><g><!--class ListVehiclesDueToCheckUpUI--><g id="elem_ListVehiclesDueToCheckUpUI"><rect codeLine="7" fill="#F1F1F1" height="122.4844" id="ListVehiclesDueToCheckUpUI" rx="2.5" ry="2.5" style="stroke:#181818;stroke-width:0.5;" width="254" x="146" y="7"/><ellipse cx="176.75" cy="23" fill="#ADD1B2" rx="11" ry="11" style="stroke:#181818;stroke-width:1.0;"/><path d="M179.5156,18.875 Q179.6719,18.6563 179.8594,18.5469 Q180.0469,18.4375 180.2656,18.4375 Q180.6406,18.4375 180.875,18.7031 Q181.1094,18.9531 181.1094,19.5625 L181.1094,21.0156 Q181.1094,21.625 180.875,21.8906 Q180.6406,22.1563 180.2656,22.1563 Q179.9219,22.1563 179.7188,21.9531 Q179.5156,21.7656 179.4063,21.25 Q179.3594,20.8906 179.1719,20.7031 Q178.8438,20.3281 178.2344,20.1094 Q177.625,19.8906 177,19.8906 Q176.2344,19.8906 175.5938,20.2188 Q174.9688,20.5469 174.4688,21.2969 Q173.9844,22.0469 173.9844,23.0781 L173.9844,24.1719 Q173.9844,25.4063 174.875,26.2344 Q175.7656,27.0469 177.3594,27.0469 Q178.2969,27.0469 178.9531,26.7969 Q179.3438,26.6406 179.7656,26.2031 Q180.0313,25.9375 180.1719,25.8594 Q180.3281,25.7813 180.5313,25.7813 Q180.8594,25.7813 181.1094,26.0469 Q181.375,26.2969 181.375,26.6406 Q181.375,26.9844 181.0313,27.3906 Q180.5313,27.9688 179.7344,28.2969 Q178.6563,28.75 177.3594,28.75 Q175.8438,28.75 174.6406,28.125 Q173.6563,27.625 172.9688,26.5625 Q172.2813,25.4844 172.2813,24.2031 L172.2813,23.0469 Q172.2813,21.7188 172.8906,20.5781 Q173.5156,19.4219 174.6094,18.8125 Q175.7031,18.1875 176.9375,18.1875 Q177.6719,18.1875 178.3125,18.3594 Q178.9688,18.5156 179.5156,18.875 Z " fill="#000000"/><text fill="#000000" font-family="sans-serif" font-size="14" lengthAdjust="spacing" textLength="187" x="194.25" y="28.7969">ListVehiclesDueToCheckUpUI</text><line style="stroke:#181818;stroke-width:0.5;" x1="147" x2="399" y1="39" y2="39"/><text fill="#000000" font-family="sans-serif" font-size="14" lengthAdjust="spacing" textLength="242" x="152" y="58.1074">-ListVehiclesDueToCheckUpController</text><line style="stroke:#181818;stroke-width:0.5;" x1="147" x2="399" y1="65.6211" y2="65.6211"/><text fill="#000000" font-family="sans-serif" font-size="14" lengthAdjust="spacing" textLength="205" x="152" y="84.7285">+ListVehiclesDueToCheckUpUI()</text><text fill="#000000" font-family="sans-serif" font-size="14" lengthAdjust="spacing" textLength="39" x="152" y="103.3496">+run()</text><text fill="#000000" font-family="sans-serif" font-size="14" lengthAdjust="spacing" textLength="188" x="152" y="121.9707">+listVehiclesDueToCheckUp()</text></g><!--class ListVehiclesDueToCheckUpController--><g id="elem_ListVehiclesDueToCheckUpController"><rect codeLine="14" fill="#F1F1F1" height="122.4844" id="ListVehiclesDueToCheckUpController" rx="2.5" ry="2.5" style="stroke:#181818;stroke-width:0.5;" width="269" x="138.5" y="190"/><ellipse cx="153.5" cy="206" fill="#ADD1B2" rx="11" ry="11" style="stroke:#181818;stroke-width:1.0;"/><path d="M156.2656,201.875 Q156.4219,201.6563 156.6094,201.5469 Q156.7969,201.4375 157.0156,201.4375 Q157.3906,201.4375 157.625,201.7031 Q157.8594,201.9531 157.8594,202.5625 L157.8594,204.0156 Q157.8594,204.625 157.625,204.8906 Q157.3906,205.1563 157.0156,205.1563 Q156.6719,205.1563 156.4688,204.9531 Q156.2656,204.7656 156.1563,204.25 Q156.1094,203.8906 155.9219,203.7031 Q155.5938,203.3281 154.9844,203.1094 Q154.375,202.8906 153.75,202.8906 Q152.9844,202.8906 152.3438,203.2188 Q151.7188,203.5469 151.2188,204.2969 Q150.7344,205.0469 150.7344,206.0781 L150.7344,207.1719 Q150.7344,208.4063 151.625,209.2344 Q152.5156,210.0469 154.1094,210.0469 Q155.0469,210.0469 155.7031,209.7969 Q156.0938,209.6406 156.5156,209.2031 Q156.7813,208.9375 156.9219,208.8594 Q157.0781,208.7813 157.2813,208.7813 Q157.6094,208.7813 157.8594,209.0469 Q158.125,209.2969 158.125,209.6406 Q158.125,209.9844 157.7813,210.3906 Q157.2813,210.9688 156.4844,211.2969 Q155.4063,211.75 154.1094,211.75 Q152.5938,211.75 151.3906,211.125 Q150.4063,210.625 149.7188,209.5625 Q149.0313,208.4844 149.0313,207.2031 L149.0313,206.0469 Q149.0313,204.7188 149.6406,203.5781 Q150.2656,202.4219 151.3594,201.8125 Q152.4531,201.1875 153.6875,201.1875 Q154.4219,201.1875 155.0625,201.3594 Q155.7188,201.5156 156.2656,201.875 Z " fill="#000000"/><text fill="#000000" font-family="sans-serif" font-size="14" lengthAdjust="spacing" textLength="237" x="167.5" y="211.7969">ListVehiclesDueToCheckUpController</text><line style="stroke:#181818;stroke-width:0.5;" x1="139.5" x2="406.5" y1="222" y2="222"/><text fill="#000000" font-family="sans-serif" font-size="14" lengthAdjust="spacing" textLength="119" x="144.5" y="241.1074">-VehicleRepository</text><line style="stroke:#181818;stroke-width:0.5;" x1="139.5" x2="406.5" y1="248.6211" y2="248.6211"/><text fill="#000000" font-family="sans-serif" font-size="14" lengthAdjust="spacing" textLength="149" x="144.5" y="267.7285">-getVehicleRepository()</text><text fill="#000000" font-family="sans-serif" font-size="14" lengthAdjust="spacing" textLength="255" x="144.5" y="286.3496">+ListVehiclesDueToCheckUpController()</text><text fill="#000000" font-family="sans-serif" font-size="14" lengthAdjust="spacing" textLength="169" x="144.5" y="304.9707">+vehiclesDueToCheckUp()</text></g><!--class Repositories--><g id="elem_Repositories"><rect codeLine="21" fill="#F1F1F1" height="122.4844" id="Repositories" rx="2.5" ry="2.5" style="stroke:#181818;stroke-width:0.5;" width="164" x="7" y="422"/><ellipse cx="45.85" cy="438" fill="#ADD1B2" rx="11" ry="11" style="stroke:#181818;stroke-width:1.0;"/><path d="M48.6156,433.875 Q48.7719,433.6563 48.9594,433.5469 Q49.1469,433.4375 49.3656,433.4375 Q49.7406,433.4375 49.975,433.7031 Q50.2094,433.9531 50.2094,434.5625 L50.2094,436.0156 Q50.2094,436.625 49.975,436.8906 Q49.7406,437.1563 49.3656,437.1563 Q49.0219,437.1563 48.8188,436.9531 Q48.6156,436.7656 48.5063,436.25 Q48.4594,435.8906 48.2719,435.7031 Q47.9438,435.3281 47.3344,435.1094 Q46.725,434.8906 46.1,434.8906 Q45.3344,434.8906 44.6938,435.2188 Q44.0688,435.5469 43.5688,436.2969 Q43.0844,437.0469 43.0844,438.0781 L43.0844,439.1719 Q43.0844,440.4063 43.975,441.2344 Q44.8656,442.0469 46.4594,442.0469 Q47.3969,442.0469 48.0531,441.7969 Q48.4438,441.6406 48.8656,441.2031 Q49.1313,440.9375 49.2719,440.8594 Q49.4281,440.7813 49.6313,440.7813 Q49.9594,440.7813 50.2094,441.0469 Q50.475,441.2969 50.475,441.6406 Q50.475,441.9844 50.1313,442.3906 Q49.6313,442.9688 48.8344,443.2969 Q47.7563,443.75 46.4594,443.75 Q44.9438,443.75 43.7406,443.125 Q42.7563,442.625 42.0688,441.5625 Q41.3813,440.4844 41.3813,439.2031 L41.3813,438.0469 Q41.3813,436.7188 41.9906,435.5781 Q42.6156,434.4219 43.7094,433.8125 Q44.8031,433.1875 46.0375,433.1875 Q46.7719,433.1875 47.4125,433.3594 Q48.0688,433.5156 48.6156,433.875 Z " fill="#000000"/><text fill="#000000" font-family="sans-serif" font-size="14" lengthAdjust="spacing" textLength="79" x="65.15" y="443.7969">Repositories</text><line style="stroke:#181818;stroke-width:0.5;" x1="8" x2="170" y1="454" y2="454"/><text fill="#000000" font-family="sans-serif" font-size="14" lengthAdjust="spacing" textLength="119" x="13" y="473.1074">-VehicleRepository</text><line style="stroke:#181818;stroke-width:0.5;" x1="8" x2="170" y1="480.6211" y2="480.6211"/><text fill="#000000" font-family="sans-serif" font-size="14" lengthAdjust="spacing" textLength="94" x="13" y="499.7285">-Repositories()</text><text fill="#000000" font-family="sans-serif" font-size="14" lengthAdjust="spacing" textLength="91" x="13" y="518.3496">+getInstance()</text><text fill="#000000" font-family="sans-serif" font-size="14" lengthAdjust="spacing" textLength="152" x="13" y="536.9707">+getVehicleRepository()</text></g><!--class VehicleRepository--><g id="elem_VehicleRepository"><rect codeLine="28" fill="#F1F1F1" height="178.3477" id="VehicleRepository" rx="2.5" ry="2.5" style="stroke:#181818;stroke-width:0.5;" width="258" x="33" y="574"/><ellipse cx="100.75" cy="590" fill="#ADD1B2" rx="11" ry="11" style="stroke:#181818;stroke-width:1.0;"/><path d="M103.5156,585.875 Q103.6719,585.6563 103.8594,585.5469 Q104.0469,585.4375 104.2656,585.4375 Q104.6406,585.4375 104.875,585.7031 Q105.1094,585.9531 105.1094,586.5625 L105.1094,588.0156 Q105.1094,588.625 104.875,588.8906 Q104.6406,589.1563 104.2656,589.1563 Q103.9219,589.1563 103.7188,588.9531 Q103.5156,588.7656 103.4063,588.25 Q103.3594,587.8906 103.1719,587.7031 Q102.8438,587.3281 102.2344,587.1094 Q101.625,586.8906 101,586.8906 Q100.2344,586.8906 99.5938,587.2188 Q98.9688,587.5469 98.4688,588.2969 Q97.9844,589.0469 97.9844,590.0781 L97.9844,591.1719 Q97.9844,592.4063 98.875,593.2344 Q99.7656,594.0469 101.3594,594.0469 Q102.2969,594.0469 102.9531,593.7969 Q103.3438,593.6406 103.7656,593.2031 Q104.0313,592.9375 104.1719,592.8594 Q104.3281,592.7813 104.5313,592.7813 Q104.8594,592.7813 105.1094,593.0469 Q105.375,593.2969 105.375,593.6406 Q105.375,593.9844 105.0313,594.3906 Q104.5313,594.9688 103.7344,595.2969 Q102.6563,595.75 101.3594,595.75 Q99.8438,595.75 98.6406,595.125 Q97.6563,594.625 96.9688,593.5625 Q96.2813,592.4844 96.2813,591.2031 L96.2813,590.0469 Q96.2813,588.7188 96.8906,587.5781 Q97.5156,586.4219 98.6094,585.8125 Q99.7031,585.1875 100.9375,585.1875 Q101.6719,585.1875 102.3125,585.3594 Q102.9688,585.5156 103.5156,585.875 Z " fill="#000000"/><text fill="#000000" font-family="sans-serif" font-size="14" lengthAdjust="spacing" textLength="114" x="121.25" y="595.7969">VehicleRepository</text><line style="stroke:#181818;stroke-width:0.5;" x1="34" x2="290" y1="606" y2="606"/><text fill="#000000" font-family="sans-serif" font-size="14" lengthAdjust="spacing" textLength="92" x="39" y="625.1074">+List&lt;Vehicle&gt;</text><line style="stroke:#181818;stroke-width:0.5;" x1="34" x2="290" y1="632.6211" y2="632.6211"/><text fill="#000000" font-family="sans-serif" font-size="14" lengthAdjust="spacing" textLength="228" x="39" y="651.7285">+getVehicle(String registrationPlate)</text><text fill="#000000" font-family="sans-serif" font-size="14" lengthAdjust="spacing" textLength="246" x="39" y="670.3496">+getVehicles(ArrayList&lt;&gt;(vehiclesList))</text><text fill="#000000" font-family="sans-serif" font-size="14" lengthAdjust="spacing" textLength="108" x="39" y="688.9707">+updateVehicle()</text><text fill="#000000" font-family="sans-serif" font-size="14" lengthAdjust="spacing" textLength="99" x="39" y="707.5918">+existsVehicle()</text><text fill="#000000" font-family="sans-serif" font-size="14" lengthAdjust="spacing" textLength="42" x="39" y="726.2129">+add()</text><text fill="#000000" font-family="sans-serif" font-size="14" lengthAdjust="spacing" textLength="113" x="39" y="744.834">+validateVehicle()</text></g><!--class Vehicle--><g id="elem_Vehicle"><rect codeLine="38" fill="#F1F1F1" height="234.2109" id="Vehicle" rx="2.5" ry="2.5" style="stroke:#181818;stroke-width:0.5;" width="423" x="41.5" y="813"/><ellipse cx="225.75" cy="829" fill="#ADD1B2" rx="11" ry="11" style="stroke:#181818;stroke-width:1.0;"/><path d="M228.5156,824.875 Q228.6719,824.6563 228.8594,824.5469 Q229.0469,824.4375 229.2656,824.4375 Q229.6406,824.4375 229.875,824.7031 Q230.1094,824.9531 230.1094,825.5625 L230.1094,827.0156 Q230.1094,827.625 229.875,827.8906 Q229.6406,828.1563 229.2656,828.1563 Q228.9219,828.1563 228.7188,827.9531 Q228.5156,827.7656 228.4063,827.25 Q228.3594,826.8906 228.1719,826.7031 Q227.8438,826.3281 227.2344,826.1094 Q226.625,825.8906 226,825.8906 Q225.2344,825.8906 224.5938,826.2188 Q223.9688,826.5469 223.4688,827.2969 Q222.9844,828.0469 222.9844,829.0781 L222.9844,830.1719 Q222.9844,831.4063 223.875,832.2344 Q224.7656,833.0469 226.3594,833.0469 Q227.2969,833.0469 227.9531,832.7969 Q228.3438,832.6406 228.7656,832.2031 Q229.0313,831.9375 229.1719,831.8594 Q229.3281,831.7813 229.5313,831.7813 Q229.8594,831.7813 230.1094,832.0469 Q230.375,832.2969 230.375,832.6406 Q230.375,832.9844 230.0313,833.3906 Q229.5313,833.9688 228.7344,834.2969 Q227.6563,834.75 226.3594,834.75 Q224.8438,834.75 223.6406,834.125 Q222.6563,833.625 221.9688,832.5625 Q221.2813,831.4844 221.2813,830.2031 L221.2813,829.0469 Q221.2813,827.7188 221.8906,826.5781 Q222.5156,825.4219 223.6094,824.8125 Q224.7031,824.1875 225.9375,824.1875 Q226.6719,824.1875 227.3125,824.3594 Q227.9688,824.5156 228.5156,824.875 Z " fill="#000000"/><text fill="#000000" font-family="sans-serif" font-size="14" lengthAdjust="spacing" textLength="46" x="246.25" y="834.7969">Vehicle</text><line style="stroke:#181818;stroke-width:0.5;" x1="42.5" x2="463.5" y1="845" y2="845"/><text fill="#000000" font-family="sans-serif" font-size="14" lengthAdjust="spacing" textLength="157" x="47.5" y="864.1074">-registrationPlate : String</text><text fill="#000000" font-family="sans-serif" font-size="14" lengthAdjust="spacing" textLength="125" x="47.5" y="882.7285">-currentKm : double</text><text fill="#000000" font-family="sans-serif" font-size="14" lengthAdjust="spacing" textLength="202" x="47.5" y="901.3496">-checkUpKmFrequency : double</text><text fill="#000000" font-family="sans-serif" font-size="14" lengthAdjust="spacing" textLength="175" x="47.5" y="919.9707">-kmAtLastCheckUp : double</text><text fill="#000000" font-family="sans-serif" font-size="14" lengthAdjust="spacing" textLength="134" x="47.5" y="938.5918">-checkUpKm : double</text><line style="stroke:#181818;stroke-width:0.5;" x1="42.5" x2="463.5" y1="946.1055" y2="946.1055"/><text fill="#000000" font-family="sans-serif" font-size="14" lengthAdjust="spacing" textLength="254" x="47.5" y="965.2129">-validateVehicle(String registrationPlate)</text><text fill="#000000" font-family="sans-serif" font-size="14" lengthAdjust="spacing" textLength="411" x="47.5" y="983.834">+registerCheckUp(double kmAtLastCheckUp, Date checkUpDate)</text><text fill="#000000" font-family="sans-serif" font-size="14" lengthAdjust="spacing" textLength="111" x="47.5" y="1002.4551">+isCheckUpDue()</text><text fill="#000000" font-family="sans-serif" font-size="14" lengthAdjust="spacing" textLength="117" x="47.5" y="1021.0762">+getCheckUpList()</text><text fill="#000000" font-family="sans-serif" font-size="14" lengthAdjust="spacing" textLength="90" x="47.5" y="1039.6973">+compareTo()</text></g><!--class CheckUp--><g id="elem_CheckUp"><rect codeLine="51" fill="#F1F1F1" height="141.1055" id="CheckUp" rx="2.5" ry="2.5" style="stroke:#181818;stroke-width:0.5;" width="375" x="65.5" y="1272"/><ellipse cx="220.25" cy="1288" fill="#ADD1B2" rx="11" ry="11" style="stroke:#181818;stroke-width:1.0;"/><path d="M223.0156,1283.875 Q223.1719,1283.6563 223.3594,1283.5469 Q223.5469,1283.4375 223.7656,1283.4375 Q224.1406,1283.4375 224.375,1283.7031 Q224.6094,1283.9531 224.6094,1284.5625 L224.6094,1286.0156 Q224.6094,1286.625 224.375,1286.8906 Q224.1406,1287.1563 223.7656,1287.1563 Q223.4219,1287.1563 223.2188,1286.9531 Q223.0156,1286.7656 222.9063,1286.25 Q222.8594,1285.8906 222.6719,1285.7031 Q222.3438,1285.3281 221.7344,1285.1094 Q221.125,1284.8906 220.5,1284.8906 Q219.7344,1284.8906 219.0938,1285.2188 Q218.4688,1285.5469 217.9688,1286.2969 Q217.4844,1287.0469 217.4844,1288.0781 L217.4844,1289.1719 Q217.4844,1290.4063 218.375,1291.2344 Q219.2656,1292.0469 220.8594,1292.0469 Q221.7969,1292.0469 222.4531,1291.7969 Q222.8438,1291.6406 223.2656,1291.2031 Q223.5313,1290.9375 223.6719,1290.8594 Q223.8281,1290.7813 224.0313,1290.7813 Q224.3594,1290.7813 224.6094,1291.0469 Q224.875,1291.2969 224.875,1291.6406 Q224.875,1291.9844 224.5313,1292.3906 Q224.0313,1292.9688 223.2344,1293.2969 Q222.1563,1293.75 220.8594,1293.75 Q219.3438,1293.75 218.1406,1293.125 Q217.1563,1292.625 216.4688,1291.5625 Q215.7813,1290.4844 215.7813,1289.2031 L215.7813,1288.0469 Q215.7813,1286.7188 216.3906,1285.5781 Q217.0156,1284.4219 218.1094,1283.8125 Q219.2031,1283.1875 220.4375,1283.1875 Q221.1719,1283.1875 221.8125,1283.3594 Q222.4688,1283.5156 223.0156,1283.875 Z " fill="#000000"/><text fill="#000000" font-family="sans-serif" font-size="14" lengthAdjust="spacing" textLength="57" x="240.75" y="1293.7969">CheckUp</text><line style="stroke:#181818;stroke-width:0.5;" x1="66.5" x2="439.5" y1="1304" y2="1304"/><text fill="#000000" font-family="sans-serif" font-size="14" lengthAdjust="spacing" textLength="175" x="71.5" y="1323.1074">-kmAtLastCheckUp : double</text><text fill="#000000" font-family="sans-serif" font-size="14" lengthAdjust="spacing" textLength="131" x="71.5" y="1341.7285">-checkUpDate : Date</text><line style="stroke:#181818;stroke-width:0.5;" x1="66.5" x2="439.5" y1="1349.2422" y2="1349.2422"/><text fill="#000000" font-family="sans-serif" font-size="14" lengthAdjust="spacing" textLength="363" x="71.5" y="1368.3496">+CheckUp(double kmAtLastCheckUp, Date checkUpDate)</text><text fill="#000000" font-family="sans-serif" font-size="14" lengthAdjust="spacing" textLength="155" x="71.5" y="1386.9707">+getKmAtLastCheckUp()</text><text fill="#000000" font-family="sans-serif" font-size="14" lengthAdjust="spacing" textLength="125" x="71.5" y="1405.5918">+getCheckUpDate()</text></g><!--class CheckUps--><g id="elem_CheckUps"><rect codeLine="59" fill="#F1F1F1" height="85.2422" id="CheckUps" rx="2.5" ry="2.5" style="stroke:#181818;stroke-width:0.5;" width="263" x="121.5" y="1126"/><ellipse cx="216.75" cy="1142" fill="#ADD1B2" rx="11" ry="11" style="stroke:#181818;stroke-width:1.0;"/><path d="M219.5156,1137.875 Q219.6719,1137.6563 219.8594,1137.5469 Q220.0469,1137.4375 220.2656,1137.4375 Q220.6406,1137.4375 220.875,1137.7031 Q221.1094,1137.9531 221.1094,1138.5625 L221.1094,1140.0156 Q221.1094,1140.625 220.875,1140.8906 Q220.6406,1141.1563 220.2656,1141.1563 Q219.9219,1141.1563 219.7188,1140.9531 Q219.5156,1140.7656 219.4063,1140.25 Q219.3594,1139.8906 219.1719,1139.7031 Q218.8438,1139.3281 218.2344,1139.1094 Q217.625,1138.8906 217,1138.8906 Q216.2344,1138.8906 215.5938,1139.2188 Q214.9688,1139.5469 214.4688,1140.2969 Q213.9844,1141.0469 213.9844,1142.0781 L213.9844,1143.1719 Q213.9844,1144.4063 214.875,1145.2344 Q215.7656,1146.0469 217.3594,1146.0469 Q218.2969,1146.0469 218.9531,1145.7969 Q219.3438,1145.6406 219.7656,1145.2031 Q220.0313,1144.9375 220.1719,1144.8594 Q220.3281,1144.7813 220.5313,1144.7813 Q220.8594,1144.7813 221.1094,1145.0469 Q221.375,1145.2969 221.375,1145.6406 Q221.375,1145.9844 221.0313,1146.3906 Q220.5313,1146.9688 219.7344,1147.2969 Q218.6563,1147.75 217.3594,1147.75 Q215.8438,1147.75 214.6406,1147.125 Q213.6563,1146.625 212.9688,1145.5625 Q212.2813,1144.4844 212.2813,1143.2031 L212.2813,1142.0469 Q212.2813,1140.7188 212.8906,1139.5781 Q213.5156,1138.4219 214.6094,1137.8125 Q215.7031,1137.1875 216.9375,1137.1875 Q217.6719,1137.1875 218.3125,1137.3594 Q218.9688,1137.5156 219.5156,1137.875 Z " fill="#000000"/><text fill="#000000" font-family="sans-serif" font-size="14" lengthAdjust="spacing" textLength="64" x="237.25" y="1147.7969">CheckUps</text><line style="stroke:#181818;stroke-width:0.5;" x1="122.5" x2="383.5" y1="1158" y2="1158"/><text fill="#000000" font-family="sans-serif" font-size="14" lengthAdjust="spacing" textLength="199" x="127.5" y="1177.1074">-ArrayList&lt;CheckUp&gt; checkUps</text><line style="stroke:#181818;stroke-width:0.5;" x1="122.5" x2="383.5" y1="1184.6211" y2="1184.6211"/><text fill="#000000" font-family="sans-serif" font-size="14" lengthAdjust="spacing" textLength="251" x="127.5" y="1203.7285">+getSortedCheckUps() : List&lt;CheckUp&gt;</text></g><!--link ListVehiclesDueToCheckUpUI to ListVehiclesDueToCheckUpController--><g id="link_ListVehiclesDueToCheckUpUI_ListVehiclesDueToCheckUpController"><path codeLine="65" d="M273,129.02 C273,148.57 273,164.27 273,183.83 " fill="none" id="ListVehiclesDueToCheckUpUI-to-ListVehiclesDueToCheckUpController" style="stroke:#181818;stroke-width:1.0;stroke-dasharray:7.0,7.0;"/><polygon fill="#181818" points="273,189.83,277,180.83,273,184.83,269,180.83,273,189.83" style="stroke:#181818;stroke-width:1.0;"/><text fill="#000000" font-family="sans-serif" font-size="13" lengthAdjust="spacing" textLength="7" x="265.5734" y="151.5093">1</text><text fill="#000000" font-family="sans-serif" font-size="13" lengthAdjust="spacing" textLength="7" x="265.5953" y="178.7915">1</text></g><!--link ListVehiclesDueToCheckUpController to Repositories--><g id="link_ListVehiclesDueToCheckUpController_Repositories"><path codeLine="66" d="M209.63,312.03 C192.21,328.54 178,342 178,342 C178,342 154.599,378.8066 130.479,416.7466 " fill="none" id="ListVehiclesDueToCheckUpController-to-Repositories" style="stroke:#181818;stroke-width:1.0;stroke-dasharray:7.0,7.0;"/><polygon fill="#181818" points="127.26,421.81,135.4641,416.3609,129.9425,417.5905,128.7129,412.0689,127.26,421.81" style="stroke:#181818;stroke-width:1.0;"/><text fill="#000000" font-family="sans-serif" font-size="13" lengthAdjust="spacing" textLength="67" x="179" y="357.0283">repositories</text><text fill="#000000" font-family="sans-serif" font-size="13" lengthAdjust="spacing" textLength="7" x="194.4802" y="334.5205">1</text><text fill="#000000" font-family="sans-serif" font-size="13" lengthAdjust="spacing" textLength="7" x="124.2791" y="410.7692">1</text></g><!--link Repositories to VehicleRepository--><g id="link_Repositories_VehicleRepository"><path codeLine="67" d="M113.71,544.26 C117.64,553.84 119.508,558.3668 123.628,568.4368 " fill="none" id="Repositories-to-VehicleRepository" style="stroke:#181818;stroke-width:1.0;"/><polygon fill="#181818" points="125.9,573.99,126.1941,564.1455,124.0067,569.3623,118.7899,567.1749,125.9,573.99" style="stroke:#181818;stroke-width:1.0;"/><text fill="#000000" font-family="sans-serif" font-size="13" lengthAdjust="spacing" textLength="7" x="107.3893" y="562.6698">1</text><text fill="#000000" font-family="sans-serif" font-size="13" lengthAdjust="spacing" textLength="7" x="115.4969" y="562.6361">1</text></g><!--link VehicleRepository to Vehicle--><g id="link_VehicleRepository_Vehicle"><path codeLine="68" d="M192.3,752.24 C198.97,771.66 204.1791,786.846 211.1691,807.176 " fill="none" id="VehicleRepository-to-Vehicle" style="stroke:#181818;stroke-width:1.0;"/><polygon fill="#181818" points="213.12,812.85,213.9764,803.0384,211.4943,808.1217,206.411,805.6396,213.12,812.85" style="stroke:#181818;stroke-width:1.0;"/><text fill="#000000" font-family="sans-serif" font-size="13" lengthAdjust="spacing" textLength="7" x="187.5194" y="774.3601">1</text><text fill="#000000" font-family="sans-serif" font-size="13" lengthAdjust="spacing" textLength="5" x="205.405" y="801.8314">*</text></g><!--link ListVehiclesDueToCheckUpController to Vehicle--><g id="link_ListVehiclesDueToCheckUpController_Vehicle"><path codeLine="69" d="M285.67,312.03 C289.16,328.54 292,342 292,342 C292,342 309,574 309,574 C309,574 309,752 309,752 C309,752 302.0892,773.8293 291.5392,807.1893 " fill="none" id="ListVehiclesDueToCheckUpController-to-Vehicle" style="stroke:#181818;stroke-width:1.0;stroke-dasharray:7.0,7.0;"/><polygon fill="#181818" points="289.73,812.91,296.2576,805.535,291.2376,808.1427,288.6299,803.1228,289.73,812.91" style="stroke:#181818;stroke-width:1.0;"/><text fill="#000000" font-family="sans-serif" font-size="13" lengthAdjust="spacing" textLength="7" x="279.7876" y="334.5205">1</text><text fill="#000000" font-family="sans-serif" font-size="13" lengthAdjust="spacing" textLength="5" x="286.9229" y="801.8953">*</text></g><!--link ListVehiclesDueToCheckUpController to VehicleRepository--><g id="link_ListVehiclesDueToCheckUpController_VehicleRepository"><path codeLine="70" d="M268.47,312.15 C262.03,397.63 251,544 251,544 C251,544 245.0326,551.9094 232.1526,568.9894 " fill="none" id="ListVehiclesDueToCheckUpController-to-VehicleRepository" style="stroke:#181818;stroke-width:1.0;"/><polygon fill="#181818" points="228.54,573.78,237.1525,569.0025,231.5505,569.7879,230.7651,564.1858,228.54,573.78" style="stroke:#181818;stroke-width:1.0;"/><text fill="#000000" font-family="sans-serif" font-size="13" lengthAdjust="spacing" textLength="7" x="260.4913" y="334.6551">1</text><text fill="#000000" font-family="sans-serif" font-size="13" lengthAdjust="spacing" textLength="7" x="226.7605" y="562.7135">1</text></g><!--link Repositories to Repositories--><g id="link_Repositories_Repositories"><path codeLine="71" d="M171.01,466.39 C191.07,467.62 206,473.16 206,483 C206,492.84 197.0588,498.0128 176.9988,499.2428 " fill="none" id="Repositories-to-Repositories" style="stroke:#181818;stroke-width:1.0;"/><polygon fill="#181818" points="171.01,499.61,180.2379,503.0517,176.0006,499.304,179.7483,495.0667,171.01,499.61" style="stroke:#181818;stroke-width:1.0;"/><text fill="#000000" font-family="sans-serif" font-size="13" lengthAdjust="spacing" textLength="49" x="212" y="488.5283">instance</text></g><!--link Vehicle to CheckUps--><g id="link_Vehicle_CheckUps"><path codeLine="72" d="M253,1047.17 C253,1075.44 253,1097.87 253,1119.99 " fill="none" id="Vehicle-to-CheckUps" style="stroke:#181818;stroke-width:1.0;"/><polygon fill="#181818" points="253,1125.99,257,1116.99,253,1120.99,249,1116.99,253,1125.99" style="stroke:#181818;stroke-width:1.0;"/><text fill="#000000" font-family="sans-serif" font-size="13" lengthAdjust="spacing" textLength="81" x="254" y="1092.0283">list check-ups</text><text fill="#000000" font-family="sans-serif" font-size="13" lengthAdjust="spacing" textLength="7" x="245.7758" y="1069.2516">1</text><text fill="#000000" font-family="sans-serif" font-size="13" lengthAdjust="spacing" textLength="7" x="245.4422" y="1114.8925">1</text></g><!--link CheckUps to CheckUp--><g id="link_CheckUps_CheckUp"><path codeLine="73" d="M253,1211.14 C253,1229.33 253,1245.17 253,1265.73 " fill="none" id="CheckUps-to-CheckUp" style="stroke:#181818;stroke-width:1.0;"/><polygon fill="#181818" points="253,1271.73,257,1262.73,253,1266.73,249,1262.73,253,1271.73" style="stroke:#181818;stroke-width:1.0;"/><text fill="#000000" font-family="sans-serif" font-size="13" lengthAdjust="spacing" textLength="7" x="245.4422" y="1233.3226">1</text><text fill="#000000" font-family="sans-serif" font-size="13" lengthAdjust="spacing" textLength="5" x="247.7422" y="1260.5932">*</text></g><!--SRC=[bLHDRzim3BthLmWzESjSRDTW210a612aXs5PTrTjpX4YIvuaR_EA_VTHjkJFkcvoSVJuI3wA5CsLou9fbjE29LUMmTbM0gY6n3AP2I2c9PWBIzLlBZFwWmdJjmWkmLO5q4A9oXrwjaGmOtRMQlvKMZWcIfxvNw0V226rYJvmOx_3XIS2pA64Rsf_WUJwM3mUwJEX-8ld67ibhLP2WAvvw_b8qQfXw5A6lsA6ZFP_IzAwn46YPts5GXbkbQuQE0CxiGG1oy43yzU2p3Os1xCWg4yDuL7aKHfiTm8zw2NTRSQ9qQUjY_hahTjnhEYCKu3Zeo53ccQMA_b5C0kJh2RQQSsgEjes2lMxuyfpoo95nn3OW_076MO4iZHjBv89FdGRLnIkRwgHRcWZtnEIKckGzfIZ8LNb4_e6IzEXK_vPmyyIP59DADTyPn-OiRwPyo76bd452pVQuA33qFXOe_JlwS4Lw9CUEdTkF0CdhpSQ7dJj26YYSdpkE9xzEmtLFPFNAexxYH6lFsHDRzUyfYZkDEH57jvtn1SakcVZAZihRI4DOBH2EVKCUcHBucuk0nOq61ULlBBDxZxUqVlxRVrzmqfxm_BfHnmiWGrEH7Sa0viZnutFT4bC7tPDT_ntBVycQRUxnV6il44XZZQgcliz5kherEEtxVN6xVwcRN69VMiD_LezIFu3]--></g></svg>