<?xml version="1.0" encoding="us-ascii" standalone="no"?><svg xmlns="http://www.w3.org/2000/svg" xmlns:xlink="http://www.w3.org/1999/xlink" contentStyleType="text/css" height="897px" preserveAspectRatio="none" style="width:1134px;height:897px;background:#FFFFFF;" version="1.1" viewBox="0 0 1134 897" width="1134px" zoomAndPan="magnify"><defs/><g><rect fill="#FFFFFF" height="710.7813" style="stroke:#181818;stroke-width:1.0;" width="10" x="32.5" y="93.6211"/><rect fill="#FFFFFF" height="296.9883" style="stroke:#181818;stroke-width:1.0;" width="10" x="322.5" y="116.9121"/><rect fill="#FFFFFF" height="33.6211" style="stroke:#181818;stroke-width:1.0;" width="10" x="458.5" y="158.2031"/><rect fill="#FFFFFF" height="61.291" style="stroke:#181818;stroke-width:1.0;" width="10" x="458.5" y="383.9004"/><rect fill="#FFFFFF" height="236.6289" style="stroke:#181818;stroke-width:1.0;" width="10" x="458.5" y="527.7734"/><rect fill="#FFFFFF" height="150.7852" style="stroke:#181818;stroke-width:1.0;" width="10" x="619.5" y="201.8242"/><rect fill="#FFFFFF" height="174.0469" style="stroke:#181818;stroke-width:1.0;" width="10" x="619.5" y="559.0645"/><rect fill="#FFFFFF" height="42.9365" style="stroke:#181818;stroke-width:1.0;" width="10" x="781" y="247.0908"/><rect fill="#FFFFFF" height="111.4648" style="stroke:#181818;stroke-width:1.0;" width="10" x="781" y="590.3555"/><rect fill="#FFFFFF" height="31.291" style="stroke:#181818;stroke-width:1.0;" width="10" x="926" y="321.3184"/><rect fill="none" height="312.2109" style="stroke:#000000;stroke-width:1.5;" width="1118.5" x="10" y="485.1914"/><line style="stroke:#181818;stroke-width:0.5;stroke-dasharray:5.0,5.0;" x1="37" x2="37" y1="83.6211" y2="814.4023"/><line style="stroke:#181818;stroke-width:0.5;stroke-dasharray:5.0,5.0;" x1="327" x2="327" y1="83.6211" y2="814.4023"/><line style="stroke:#181818;stroke-width:0.5;stroke-dasharray:5.0,5.0;" x1="463.5" x2="463.5" y1="156.7227" y2="814.4023"/><line style="stroke:#181818;stroke-width:0.5;stroke-dasharray:5.0,5.0;" x1="624.5" x2="624.5" y1="200.3438" y2="814.4023"/><line style="stroke:#181818;stroke-width:0.5;stroke-dasharray:5.0,5.0;" x1="785.5" x2="785.5" y1="83.6211" y2="814.4023"/><line style="stroke:#181818;stroke-width:0.5;stroke-dasharray:5.0,5.0;" x1="930.5" x2="930.5" y1="83.6211" y2="814.4023"/><line style="stroke:#181818;stroke-width:0.5;stroke-dasharray:5.0,5.0;" x1="1063.5" x2="1063.5" y1="83.6211" y2="814.4023"/><text fill="#000000" font-family="sans-serif" font-size="14" lengthAdjust="spacing" textLength="29" x="20" y="80.1074">User</text><ellipse cx="37.5" cy="13.5" fill="#E3E3E3" rx="8" ry="8" style="stroke:#181818;stroke-width:0.5;"/><path d="M37.5,21.5 L37.5,48.5 M24.5,29.5 L50.5,29.5 M37.5,48.5 L24.5,63.5 M37.5,48.5 L50.5,63.5 " fill="none" style="stroke:#181818;stroke-width:0.5;"/><text fill="#000000" font-family="sans-serif" font-size="14" lengthAdjust="spacing" textLength="29" x="20" y="828.5098">User</text><ellipse cx="37.5" cy="840.5234" fill="#E3E3E3" rx="8" ry="8" style="stroke:#181818;stroke-width:0.5;"/><path d="M37.5,848.5234 L37.5,875.5234 M24.5,856.5234 L50.5,856.5234 M37.5,875.5234 L24.5,890.5234 M37.5,875.5234 L50.5,890.5234 " fill="none" style="stroke:#181818;stroke-width:0.5;"/><rect fill="#E3E3E3" height="32.6211" rx="2.5" ry="2.5" style="stroke:#181818;stroke-width:0.5;" width="95" x="280" y="50"/><text fill="#000000" font-family="sans-serif" font-size="14" lengthAdjust="spacing" textLength="81" x="287" y="72.1074">:MainMenuUI</text><rect fill="#E3E3E3" height="32.6211" rx="2.5" ry="2.5" style="stroke:#181818;stroke-width:0.5;" width="95" x="280" y="813.4023"/><text fill="#000000" font-family="sans-serif" font-size="14" lengthAdjust="spacing" textLength="81" x="287" y="835.5098">:MainMenuUI</text><rect fill="#E3E3E3" height="32.6211" rx="2.5" ry="2.5" style="stroke:#181818;stroke-width:0.5;" width="120" x="403.5" y="813.4023"/><text fill="#000000" font-family="sans-serif" font-size="14" lengthAdjust="spacing" textLength="106" x="410.5" y="835.5098">:AuthenticationUI</text><rect fill="#E3E3E3" height="32.6211" rx="2.5" ry="2.5" style="stroke:#181818;stroke-width:0.5;" width="170" x="539.5" y="813.4023"/><text fill="#000000" font-family="sans-serif" font-size="14" lengthAdjust="spacing" textLength="156" x="546.5" y="835.5098">:AuthenticationController</text><rect fill="#E3E3E3" height="32.6211" rx="2.5" ry="2.5" style="stroke:#181818;stroke-width:0.5;" width="133" x="719.5" y="50"/><text fill="#000000" font-family="sans-serif" font-size="14" lengthAdjust="spacing" textLength="119" x="726.5" y="72.1074">ApplicationSession</text><rect fill="#E3E3E3" height="32.6211" rx="2.5" ry="2.5" style="stroke:#181818;stroke-width:0.5;" width="133" x="719.5" y="813.4023"/><text fill="#000000" font-family="sans-serif" font-size="14" lengthAdjust="spacing" textLength="119" x="726.5" y="835.5098">ApplicationSession</text><rect fill="#E3E3E3" height="51.2422" rx="2.5" ry="2.5" style="stroke:#181818;stroke-width:0.5;" width="137" x="862.5" y="31.3789"/><text fill="#000000" font-family="sans-serif" font-size="14" lengthAdjust="spacing" textLength="74" x="894" y="53.4863">appSession</text><text fill="#000000" font-family="sans-serif" font-size="14" lengthAdjust="spacing" textLength="123" x="869.5" y="72.1074">:ApplicationSession</text><rect fill="#E3E3E3" height="51.2422" rx="2.5" ry="2.5" style="stroke:#181818;stroke-width:0.5;" width="137" x="862.5" y="813.4023"/><text fill="#000000" font-family="sans-serif" font-size="14" lengthAdjust="spacing" textLength="74" x="894" y="835.5098">appSession</text><text fill="#000000" font-family="sans-serif" font-size="14" lengthAdjust="spacing" textLength="123" x="869.5" y="854.1309">:ApplicationSession</text><rect fill="#E3E3E3" height="51.2422" rx="2.5" ry="2.5" style="stroke:#181818;stroke-width:0.5;" width="109" x="1009.5" y="31.3789"/><text fill="#000000" font-family="sans-serif" font-size="14" lengthAdjust="spacing" textLength="95" x="1016.5" y="53.4863">currentSession</text><text fill="#000000" font-family="sans-serif" font-size="14" lengthAdjust="spacing" textLength="83" x="1022.5" y="72.1074">:UserSession</text><rect fill="#E3E3E3" height="51.2422" rx="2.5" ry="2.5" style="stroke:#181818;stroke-width:0.5;" width="109" x="1009.5" y="813.4023"/><text fill="#000000" font-family="sans-serif" font-size="14" lengthAdjust="spacing" textLength="95" x="1016.5" y="835.5098">currentSession</text><text fill="#000000" font-family="sans-serif" font-size="14" lengthAdjust="spacing" textLength="83" x="1022.5" y="854.1309">:UserSession</text><rect fill="#FFFFFF" height="710.7813" style="stroke:#181818;stroke-width:1.0;" width="10" x="32.5" y="93.6211"/><rect fill="#FFFFFF" height="296.9883" style="stroke:#181818;stroke-width:1.0;" width="10" x="322.5" y="116.9121"/><rect fill="#FFFFFF" height="33.6211" style="stroke:#181818;stroke-width:1.0;" width="10" x="458.5" y="158.2031"/><rect fill="#FFFFFF" height="61.291" style="stroke:#181818;stroke-width:1.0;" width="10" x="458.5" y="383.9004"/><rect fill="#FFFFFF" height="236.6289" style="stroke:#181818;stroke-width:1.0;" width="10" x="458.5" y="527.7734"/><rect fill="#FFFFFF" height="150.7852" style="stroke:#181818;stroke-width:1.0;" width="10" x="619.5" y="201.8242"/><rect fill="#FFFFFF" height="174.0469" style="stroke:#181818;stroke-width:1.0;" width="10" x="619.5" y="559.0645"/><rect fill="#FFFFFF" height="42.9365" style="stroke:#181818;stroke-width:1.0;" width="10" x="781" y="247.0908"/><rect fill="#FFFFFF" height="111.4648" style="stroke:#181818;stroke-width:1.0;" width="10" x="781" y="590.3555"/><rect fill="#FFFFFF" height="31.291" style="stroke:#181818;stroke-width:1.0;" width="10" x="926" y="321.3184"/><polygon fill="#181818" points="310.5,112.9121,320.5,116.9121,310.5,120.9121,314.5,116.9121" style="stroke:#181818;stroke-width:1.0;"/><line style="stroke:#181818;stroke-width:1.0;" x1="42.5" x2="316.5" y1="116.9121" y2="116.9121"/><text fill="#000000" font-family="sans-serif" font-size="13" font-weight="bold" lengthAdjust="spacing" textLength="7" x="49.5" y="111.6494">1</text><text fill="#000000" font-family="sans-serif" font-size="13" lengthAdjust="spacing" textLength="250" x="60.5" y="111.6494">selects an option and types requested data</text><polygon fill="#181818" points="391.5,144.2031,401.5,148.2031,391.5,152.2031,395.5,148.2031" style="stroke:#181818;stroke-width:1.0;"/><line style="stroke:#181818;stroke-width:1.0;stroke-dasharray:2.0,2.0;" x1="332.5" x2="397.5" y1="148.2031" y2="148.2031"/><text fill="#000000" font-family="sans-serif" font-size="13" font-weight="bold" lengthAdjust="spacing" textLength="7" x="339.5" y="142.9404">2</text><text fill="#000000" font-family="sans-serif" font-size="13" lengthAdjust="spacing" textLength="36" x="350.5" y="142.9404">create</text><rect fill="#E3E3E3" height="32.6211" rx="2.5" ry="2.5" style="stroke:#181818;stroke-width:0.5;" width="120" x="403.5" y="124.9121"/><text fill="#000000" font-family="sans-serif" font-size="14" lengthAdjust="spacing" textLength="106" x="410.5" y="147.0195">:AuthenticationUI</text><polygon fill="#181818" points="527.5,187.8242,537.5,191.8242,527.5,195.8242,531.5,191.8242" style="stroke:#181818;stroke-width:1.0;"/><line style="stroke:#181818;stroke-width:1.0;stroke-dasharray:2.0,2.0;" x1="463.5" x2="533.5" y1="191.8242" y2="191.8242"/><text fill="#000000" font-family="sans-serif" font-size="13" font-weight="bold" lengthAdjust="spacing" textLength="7" x="470.5" y="186.5615">3</text><text fill="#000000" font-family="sans-serif" font-size="13" lengthAdjust="spacing" textLength="36" x="481.5" y="186.5615">create</text><rect fill="#E3E3E3" height="32.6211" rx="2.5" ry="2.5" style="stroke:#181818;stroke-width:0.5;" width="170" x="539.5" y="168.5332"/><text fill="#000000" font-family="sans-serif" font-size="14" lengthAdjust="spacing" textLength="156" x="546.5" y="190.6406">:AuthenticationController</text><polygon fill="#181818" points="769,243.0908,779,247.0908,769,251.0908,773,247.0908" style="stroke:#181818;stroke-width:1.0;"/><line style="stroke:#181818;stroke-width:1.0;" x1="629.5" x2="775" y1="247.0908" y2="247.0908"/><text fill="#000000" font-family="sans-serif" font-size="13" font-weight="bold" lengthAdjust="spacing" textLength="7" x="636.5" y="241.8281">4</text><text fill="#000000" font-family="sans-serif" font-size="13" lengthAdjust="spacing" textLength="75" x="647.5" y="241.8281">getinstance()</text><path d="M796,217.1543 L796,261.1543 L923,261.1543 L923,227.1543 L913,217.1543 L796,217.1543 " fill="#FAFAFA" style="stroke:#181818;stroke-width:0.5;"/><path d="M913,217.1543 L913,227.1543 L923,227.1543 L913,217.1543 " fill="#FAFAFA" style="stroke:#181818;stroke-width:0.5;"/><text fill="#000000" font-family="sans-serif" font-size="13" lengthAdjust="spacing" textLength="79" x="802" y="236.1826">static method</text><text fill="#000000" font-family="sans-serif" font-size="13" lengthAdjust="spacing" textLength="106" x="802" y="253.4736">(Singleton pattern)</text><polygon fill="#181818" points="640.5,286.0273,630.5,290.0273,640.5,294.0273,636.5,290.0273" style="stroke:#181818;stroke-width:1.0;"/><line style="stroke:#181818;stroke-width:1.0;stroke-dasharray:2.0,2.0;" x1="634.5" x2="785" y1="290.0273" y2="290.0273"/><text fill="#000000" font-family="sans-serif" font-size="13" font-weight="bold" lengthAdjust="spacing" textLength="7" x="646.5" y="284.7646">5</text><text fill="#000000" font-family="sans-serif" font-size="13" lengthAdjust="spacing" textLength="68" x="657.5" y="284.7646">appSession</text><polygon fill="#181818" points="914,317.3184,924,321.3184,914,325.3184,918,321.3184" style="stroke:#181818;stroke-width:1.0;"/><line style="stroke:#181818;stroke-width:1.0;" x1="629.5" x2="920" y1="321.3184" y2="321.3184"/><text fill="#000000" font-family="sans-serif" font-size="13" font-weight="bold" lengthAdjust="spacing" textLength="7" x="636.5" y="316.0557">6</text><text fill="#000000" font-family="sans-serif" font-size="13" lengthAdjust="spacing" textLength="115" x="647.5" y="316.0557">getCurrentSession()</text><polygon fill="#181818" points="635.5,348.6094,625.5,352.6094,635.5,356.6094,631.5,352.6094" style="stroke:#181818;stroke-width:1.0;"/><line style="stroke:#181818;stroke-width:1.0;stroke-dasharray:2.0,2.0;" x1="629.5" x2="930" y1="352.6094" y2="352.6094"/><text fill="#000000" font-family="sans-serif" font-size="13" font-weight="bold" lengthAdjust="spacing" textLength="7" x="641.5" y="347.3467">7</text><text fill="#000000" font-family="sans-serif" font-size="13" lengthAdjust="spacing" textLength="87" x="652.5" y="347.3467">currentSession</text><polygon fill="#181818" points="446.5,379.9004,456.5,383.9004,446.5,387.9004,450.5,383.9004" style="stroke:#181818;stroke-width:1.0;"/><line style="stroke:#181818;stroke-width:1.0;" x1="332.5" x2="452.5" y1="383.9004" y2="383.9004"/><text fill="#000000" font-family="sans-serif" font-size="13" font-weight="bold" lengthAdjust="spacing" textLength="7" x="339.5" y="378.6377">8</text><text fill="#000000" font-family="sans-serif" font-size="13" lengthAdjust="spacing" textLength="26" x="350.5" y="378.6377">run()</text><polygon fill="#181818" points="53.5,441.1914,43.5,445.1914,53.5,449.1914,49.5,445.1914" style="stroke:#181818;stroke-width:1.0;"/><line style="stroke:#181818;stroke-width:1.0;stroke-dasharray:2.0,2.0;" x1="47.5" x2="462.5" y1="445.1914" y2="445.1914"/><text fill="#000000" font-family="sans-serif" font-size="13" font-weight="bold" lengthAdjust="spacing" textLength="7" x="59.5" y="439.9287">9</text><text fill="#000000" font-family="sans-serif" font-size="13" lengthAdjust="spacing" textLength="144" x="70.5" y="439.9287">requests userLogginData</text><path d="M10,485.1914 L83,485.1914 L83,494.4824 L73,504.4824 L10,504.4824 L10,485.1914 " fill="#EEEEEE" style="stroke:#000000;stroke-width:1.5;"/><rect fill="none" height="312.2109" style="stroke:#000000;stroke-width:1.5;" width="1118.5" x="10" y="485.1914"/><text fill="#000000" font-family="sans-serif" font-size="13" font-weight="bold" lengthAdjust="spacing" textLength="28" x="25" y="500.2197">loop</text><polygon fill="#181818" points="446.5,523.7734,456.5,527.7734,446.5,531.7734,450.5,527.7734" style="stroke:#181818;stroke-width:1.0;"/><line style="stroke:#181818;stroke-width:1.0;" x1="42.5" x2="452.5" y1="527.7734" y2="527.7734"/><text fill="#000000" font-family="sans-serif" font-size="13" font-weight="bold" lengthAdjust="spacing" textLength="14" x="49.5" y="522.5107">10</text><text fill="#000000" font-family="sans-serif" font-size="13" lengthAdjust="spacing" textLength="122" x="67.5" y="522.5107">types requested data</text><polygon fill="#181818" points="607.5,555.0645,617.5,559.0645,607.5,563.0645,611.5,559.0645" style="stroke:#181818;stroke-width:1.0;"/><line style="stroke:#181818;stroke-width:1.0;" x1="468.5" x2="613.5" y1="559.0645" y2="559.0645"/><text fill="#000000" font-family="sans-serif" font-size="13" font-weight="bold" lengthAdjust="spacing" textLength="14" x="475.5" y="553.8018">11</text><text fill="#000000" font-family="sans-serif" font-size="13" lengthAdjust="spacing" textLength="111" x="493.5" y="553.8018">doLogin(email,pwd)</text><polygon fill="#181818" points="769,586.3555,779,590.3555,769,594.3555,773,590.3555" style="stroke:#181818;stroke-width:1.0;"/><line style="stroke:#181818;stroke-width:1.0;" x1="629.5" x2="775" y1="590.3555" y2="590.3555"/><text fill="#000000" font-family="sans-serif" font-size="13" font-weight="bold" lengthAdjust="spacing" textLength="14" x="636.5" y="585.0928">12</text><text fill="#000000" font-family="sans-serif" font-size="13" lengthAdjust="spacing" textLength="111" x="654.5" y="585.0928">doLogin(email,pwd)</text><rect fill="none" height="75.1738" style="stroke:#000000;stroke-width:1.5;" width="405" x="716.5" y="598.3555"/><path d="M716.5,598.3555 L778.5,598.3555 L778.5,607.3555 L768.5,617.3555 L716.5,617.3555 L716.5,598.3555 " fill="#EEEEEE" style="stroke:#000000;stroke-width:2.0;"/><text fill="#000000" font-family="sans-serif" font-size="13" font-weight="bold" lengthAdjust="spacing" textLength="17" x="729.5" y="614.3838">ref</text><text fill="#000000" font-family="sans-serif" font-size="12" lengthAdjust="spacing" textLength="207" x="815.5" y="634.3047">controller-checking-user-authorization</text><text fill="#000000" font-family="sans-serif" font-size="12" lengthAdjust="spacing" textLength="3" x="917.5" y="650.2656">&#160;</text><text fill="#000000" font-family="sans-serif" font-size="12" lengthAdjust="spacing" textLength="3" x="917.5" y="666.2266">&#160;</text><polygon fill="#181818" points="640.5,697.8203,630.5,701.8203,640.5,705.8203,636.5,701.8203" style="stroke:#181818;stroke-width:1.0;"/><line style="stroke:#181818;stroke-width:1.0;stroke-dasharray:2.0,2.0;" x1="634.5" x2="785" y1="701.8203" y2="701.8203"/><text fill="#000000" font-family="sans-serif" font-size="13" font-weight="bold" lengthAdjust="spacing" textLength="14" x="646.5" y="696.5576">13</text><text fill="#000000" font-family="sans-serif" font-size="13" lengthAdjust="spacing" textLength="41" x="664.5" y="696.5576">answer</text><polygon fill="#181818" points="479.5,729.1113,469.5,733.1113,479.5,737.1113,475.5,733.1113" style="stroke:#181818;stroke-width:1.0;"/><line style="stroke:#181818;stroke-width:1.0;stroke-dasharray:2.0,2.0;" x1="473.5" x2="623.5" y1="733.1113" y2="733.1113"/><text fill="#000000" font-family="sans-serif" font-size="13" font-weight="bold" lengthAdjust="spacing" textLength="14" x="485.5" y="727.8486">14</text><text fill="#000000" font-family="sans-serif" font-size="13" lengthAdjust="spacing" textLength="41" x="503.5" y="727.8486">answer</text><polygon fill="#181818" points="53.5,760.4023,43.5,764.4023,53.5,768.4023,49.5,764.4023" style="stroke:#181818;stroke-width:1.0;"/><line style="stroke:#181818;stroke-width:1.0;stroke-dasharray:2.0,2.0;" x1="47.5" x2="462.5" y1="764.4023" y2="764.4023"/><text fill="#000000" font-family="sans-serif" font-size="13" font-weight="bold" lengthAdjust="spacing" textLength="14" x="59.5" y="759.1396">15</text><text fill="#000000" font-family="sans-serif" font-size="13" lengthAdjust="spacing" textLength="181" x="77.5" y="759.1396">answers/requests another thing</text><!--SRC=[bLN1RgCm5BpxAwnSDbibwZs7bI8s1wGchS9osuiBBs0LRDOspNQLZzzd1uWXaBI-WEpnCCoRP-itBYgcM4bBAMIIAra2DQe6ehkLYYLlB8F8V1H05II6YQpm0JfdgJnoaT43ApGGmceZHLs-WYBaMyvJe0SfpQlyIrXYfAApM8EQKQPf76ts15aCJtZ5XA6prPPniGLHnw53R3UxU81OroO7WHFCS2aQN1pirjjD7Dx41b8O9OkY-NhmQ__Knw-hgcYm4MYD3mTSlxn4coWAdtT17y-ggi7z5gkxcmVYabefr7OXiBRuEuDut-marZd-pWoSBICKXtsZon_E8hgY6WeiZgPCK5bP4VYMKlDHWSQo_Qb16qXfoWnpkpj2vp1jXkDQ8cdhvyC3KYSA4Dc1BbfQqxibfwkPTJpMup6E56wmT4kkGZwtdR3_x5K4kJCmN6WCPWBpxpsyaCYYU9QRthGTYCTQq19CBjEhrNd4RSmnoDW0ne0IVM90RorvRxBJxGTcoEnBRnt2VxX4YVQsU4Rvh7TS2S-k1Bs83RmPuGrlg0rzjVtitXSSZXNULNSGlKloy2kgzZLV1sR0vv8y7KNNBwks5pIjiTsUP9PnyRDjYdQSJgVxIIsah3fKsuoU-idMc_wPQzsTuwb4hLpCeMIyM5J7TAAOLoqptJPtA3-TQ3iK7AXy1-K35rxz5zvXDhO_wOxcPP93WfTBjhG5Mk9baal5_xbpbP3HpROPKS3esbIx2Nt4-sc8_aotNGpjrtk4SZBiK-4yS-Z7BgGC3vaSRJKvElAbZBR6k9WI7s5laFy0]--></g></svg>