<?xml version="1.0" encoding="us-ascii" standalone="no"?><svg xmlns="http://www.w3.org/2000/svg" xmlns:xlink="http://www.w3.org/1999/xlink" contentStyleType="text/css" height="1215px" preserveAspectRatio="none" style="width:544px;height:1215px;background:#FFFFFF;" version="1.1" viewBox="0 0 544 1215" width="544px" zoomAndPan="magnify"><defs/><g><!--class Employee--><g id="elem_Employee"><rect codeLine="7" fill="#F1F1F1" height="196.9688" id="Employee" rx="2.5" ry="2.5" style="stroke:#181818;stroke-width:0.5;" width="163" x="183.5" y="7"/><ellipse cx="229.75" cy="23" fill="#C2C2C2" rx="11" ry="11" style="stroke:#181818;stroke-width:1.0;"/><path d="M232.5156,18.875 Q232.6719,18.6563 232.8594,18.5469 Q233.0469,18.4375 233.2656,18.4375 Q233.6406,18.4375 233.875,18.7031 Q234.1094,18.9531 234.1094,19.5625 L234.1094,21.0156 Q234.1094,21.625 233.875,21.8906 Q233.6406,22.1563 233.2656,22.1563 Q232.9219,22.1563 232.7188,21.9531 Q232.5156,21.7656 232.4063,21.25 Q232.3594,20.8906 232.1719,20.7031 Q231.8438,20.3281 231.2344,20.1094 Q230.625,19.8906 230,19.8906 Q229.2344,19.8906 228.5938,20.2188 Q227.9688,20.5469 227.4688,21.2969 Q226.9844,22.0469 226.9844,23.0781 L226.9844,24.1719 Q226.9844,25.4063 227.875,26.2344 Q228.7656,27.0469 230.3594,27.0469 Q231.2969,27.0469 231.9531,26.7969 Q232.3438,26.6406 232.7656,26.2031 Q233.0313,25.9375 233.1719,25.8594 Q233.3281,25.7813 233.5313,25.7813 Q233.8594,25.7813 234.1094,26.0469 Q234.375,26.2969 234.375,26.6406 Q234.375,26.9844 234.0313,27.3906 Q233.5313,27.9688 232.7344,28.2969 Q231.6563,28.75 230.3594,28.75 Q228.8438,28.75 227.6406,28.125 Q226.6563,27.625 225.9688,26.5625 Q225.2813,25.4844 225.2813,24.2031 L225.2813,23.0469 Q225.2813,21.7188 225.8906,20.5781 Q226.5156,19.4219 227.6094,18.8125 Q228.7031,18.1875 229.9375,18.1875 Q230.6719,18.1875 231.3125,18.3594 Q231.9688,18.5156 232.5156,18.875 Z " fill="#000000"/><text fill="#000000" font-family="sans-serif" font-size="14" lengthAdjust="spacing" textLength="62" x="250.25" y="28.7969">Employee</text><line style="stroke:#181818;stroke-width:0.5;" x1="184.5" x2="345.5" y1="39" y2="39"/><text fill="#000000" font-family="sans-serif" font-size="14" lengthAdjust="spacing" textLength="35" x="189.5" y="58.1074">name</text><text fill="#000000" font-family="sans-serif" font-size="14" lengthAdjust="spacing" textLength="60" x="189.5" y="76.7285">birth date</text><text fill="#000000" font-family="sans-serif" font-size="14" lengthAdjust="spacing" textLength="95" x="189.5" y="95.3496">admission date</text><text fill="#000000" font-family="sans-serif" font-size="14" lengthAdjust="spacing" textLength="106" x="189.5" y="113.9707">taxpayer number</text><text fill="#000000" font-family="sans-serif" font-size="14" lengthAdjust="spacing" textLength="51" x="189.5" y="132.5918">address</text><text fill="#000000" font-family="sans-serif" font-size="14" lengthAdjust="spacing" textLength="151" x="189.5" y="151.2129">ID doc type and number</text><text fill="#000000" font-family="sans-serif" font-size="14" lengthAdjust="spacing" textLength="24" x="189.5" y="169.834">role</text><line style="stroke:#181818;stroke-width:0.5;" x1="184.5" x2="345.5" y1="177.3477" y2="177.3477"/><text fill="#000000" font-family="sans-serif" font-size="14" lengthAdjust="spacing" textLength="137" x="189.5" y="196.4551">contact (email/phone)</text></g><!--class Agenda--><g id="elem_Agenda"><rect codeLine="20" fill="#F1F1F1" height="103.8633" id="Agenda" rx="2.5" ry="2.5" style="stroke:#181818;stroke-width:0.5;" width="97" x="168.5" y="459"/><ellipse cx="190.7" cy="475" fill="#C2C2C2" rx="11" ry="11" style="stroke:#181818;stroke-width:1.0;"/><path d="M193.4656,470.875 Q193.6219,470.6563 193.8094,470.5469 Q193.9969,470.4375 194.2156,470.4375 Q194.5906,470.4375 194.825,470.7031 Q195.0594,470.9531 195.0594,471.5625 L195.0594,473.0156 Q195.0594,473.625 194.825,473.8906 Q194.5906,474.1563 194.2156,474.1563 Q193.8719,474.1563 193.6688,473.9531 Q193.4656,473.7656 193.3563,473.25 Q193.3094,472.8906 193.1219,472.7031 Q192.7938,472.3281 192.1844,472.1094 Q191.575,471.8906 190.95,471.8906 Q190.1844,471.8906 189.5438,472.2188 Q188.9188,472.5469 188.4188,473.2969 Q187.9344,474.0469 187.9344,475.0781 L187.9344,476.1719 Q187.9344,477.4063 188.825,478.2344 Q189.7156,479.0469 191.3094,479.0469 Q192.2469,479.0469 192.9031,478.7969 Q193.2938,478.6406 193.7156,478.2031 Q193.9813,477.9375 194.1219,477.8594 Q194.2781,477.7813 194.4813,477.7813 Q194.8094,477.7813 195.0594,478.0469 Q195.325,478.2969 195.325,478.6406 Q195.325,478.9844 194.9813,479.3906 Q194.4813,479.9688 193.6844,480.2969 Q192.6063,480.75 191.3094,480.75 Q189.7938,480.75 188.5906,480.125 Q187.6063,479.625 186.9188,478.5625 Q186.2313,477.4844 186.2313,476.2031 L186.2313,475.0469 Q186.2313,473.7188 186.8406,472.5781 Q187.4656,471.4219 188.5594,470.8125 Q189.6531,470.1875 190.8875,470.1875 Q191.6219,470.1875 192.2625,470.3594 Q192.9188,470.5156 193.4656,470.875 Z " fill="#000000"/><text fill="#000000" font-family="sans-serif" font-size="14" lengthAdjust="spacing" textLength="49" x="206.3" y="480.7969">Agenda</text><line style="stroke:#181818;stroke-width:0.5;" x1="169.5" x2="264.5" y1="491" y2="491"/><text fill="#000000" font-family="sans-serif" font-size="14" lengthAdjust="spacing" textLength="85" x="174.5" y="510.1074">appointments</text><text fill="#000000" font-family="sans-serif" font-size="14" lengthAdjust="spacing" textLength="35" x="174.5" y="528.7285">alerts</text><text fill="#000000" font-family="sans-serif" font-size="14" lengthAdjust="spacing" textLength="55" x="174.5" y="547.3496">to-doList</text><line style="stroke:#181818;stroke-width:0.5;" x1="169.5" x2="264.5" y1="554.8633" y2="554.8633"/></g><!--class Task--><g id="elem_Task"><rect codeLine="26" fill="#F1F1F1" height="234.2109" id="Task" rx="2.5" ry="2.5" style="stroke:#181818;stroke-width:0.5;" width="150" x="164" y="720"/><ellipse cx="219.25" cy="736" fill="#C2C2C2" rx="11" ry="11" style="stroke:#181818;stroke-width:1.0;"/><path d="M222.0156,731.875 Q222.1719,731.6563 222.3594,731.5469 Q222.5469,731.4375 222.7656,731.4375 Q223.1406,731.4375 223.375,731.7031 Q223.6094,731.9531 223.6094,732.5625 L223.6094,734.0156 Q223.6094,734.625 223.375,734.8906 Q223.1406,735.1563 222.7656,735.1563 Q222.4219,735.1563 222.2188,734.9531 Q222.0156,734.7656 221.9063,734.25 Q221.8594,733.8906 221.6719,733.7031 Q221.3438,733.3281 220.7344,733.1094 Q220.125,732.8906 219.5,732.8906 Q218.7344,732.8906 218.0938,733.2188 Q217.4688,733.5469 216.9688,734.2969 Q216.4844,735.0469 216.4844,736.0781 L216.4844,737.1719 Q216.4844,738.4063 217.375,739.2344 Q218.2656,740.0469 219.8594,740.0469 Q220.7969,740.0469 221.4531,739.7969 Q221.8438,739.6406 222.2656,739.2031 Q222.5313,738.9375 222.6719,738.8594 Q222.8281,738.7813 223.0313,738.7813 Q223.3594,738.7813 223.6094,739.0469 Q223.875,739.2969 223.875,739.6406 Q223.875,739.9844 223.5313,740.3906 Q223.0313,740.9688 222.2344,741.2969 Q221.1563,741.75 219.8594,741.75 Q218.3438,741.75 217.1406,741.125 Q216.1563,740.625 215.4688,739.5625 Q214.7813,738.4844 214.7813,737.2031 L214.7813,736.0469 Q214.7813,734.7188 215.3906,733.5781 Q216.0156,732.4219 217.1094,731.8125 Q218.2031,731.1875 219.4375,731.1875 Q220.1719,731.1875 220.8125,731.3594 Q221.4688,731.5156 222.0156,731.875 Z " fill="#000000"/><text fill="#000000" font-family="sans-serif" font-size="14" lengthAdjust="spacing" textLength="31" x="239.75" y="741.7969">Task</text><line style="stroke:#181818;stroke-width:0.5;" x1="165" x2="313" y1="752" y2="752"/><text fill="#000000" font-family="sans-serif" font-size="14" lengthAdjust="spacing" textLength="39" x="170" y="771.1074">taskID</text><text fill="#000000" font-family="sans-serif" font-size="14" lengthAdjust="spacing" textLength="22" x="170" y="789.7285">title</text><text fill="#000000" font-family="sans-serif" font-size="14" lengthAdjust="spacing" textLength="69" x="170" y="808.3496">description</text><text fill="#000000" font-family="sans-serif" font-size="14" lengthAdjust="spacing" textLength="28" x="170" y="826.9707">date</text><text fill="#000000" font-family="sans-serif" font-size="14" lengthAdjust="spacing" textLength="97" x="170" y="845.5918">taskStartPeriod</text><text fill="#000000" font-family="sans-serif" font-size="14" lengthAdjust="spacing" textLength="138" x="170" y="864.2129">taskExpectedDuration</text><text fill="#000000" font-family="sans-serif" font-size="14" lengthAdjust="spacing" textLength="27" x="170" y="882.834">type</text><text fill="#000000" font-family="sans-serif" font-size="14" lengthAdjust="spacing" textLength="77" x="170" y="901.4551">greenSpace</text><text fill="#000000" font-family="sans-serif" font-size="14" lengthAdjust="spacing" textLength="93" x="170" y="920.0762">assignedTeam</text><text fill="#000000" font-family="sans-serif" font-size="14" lengthAdjust="spacing" textLength="110" x="170" y="938.6973">assignedVehicles</text><line style="stroke:#181818;stroke-width:0.5;" x1="165" x2="313" y1="946.2109" y2="946.2109"/></g><!--class Status--><g id="elem_Status"><rect codeLine="39" fill="#F1F1F1" height="48" id="Status" rx="2.5" ry="2.5" style="stroke:#181818;stroke-width:0.5;" width="72" x="144" y="1033"/><ellipse cx="159" cy="1049" fill="#C2C2C2" rx="11" ry="11" style="stroke:#181818;stroke-width:1.0;"/><path d="M161.7656,1044.875 Q161.9219,1044.6563 162.1094,1044.5469 Q162.2969,1044.4375 162.5156,1044.4375 Q162.8906,1044.4375 163.125,1044.7031 Q163.3594,1044.9531 163.3594,1045.5625 L163.3594,1047.0156 Q163.3594,1047.625 163.125,1047.8906 Q162.8906,1048.1563 162.5156,1048.1563 Q162.1719,1048.1563 161.9688,1047.9531 Q161.7656,1047.7656 161.6563,1047.25 Q161.6094,1046.8906 161.4219,1046.7031 Q161.0938,1046.3281 160.4844,1046.1094 Q159.875,1045.8906 159.25,1045.8906 Q158.4844,1045.8906 157.8438,1046.2188 Q157.2188,1046.5469 156.7188,1047.2969 Q156.2344,1048.0469 156.2344,1049.0781 L156.2344,1050.1719 Q156.2344,1051.4063 157.125,1052.2344 Q158.0156,1053.0469 159.6094,1053.0469 Q160.5469,1053.0469 161.2031,1052.7969 Q161.5938,1052.6406 162.0156,1052.2031 Q162.2813,1051.9375 162.4219,1051.8594 Q162.5781,1051.7813 162.7813,1051.7813 Q163.1094,1051.7813 163.3594,1052.0469 Q163.625,1052.2969 163.625,1052.6406 Q163.625,1052.9844 163.2813,1053.3906 Q162.7813,1053.9688 161.9844,1054.2969 Q160.9063,1054.75 159.6094,1054.75 Q158.0938,1054.75 156.8906,1054.125 Q155.9063,1053.625 155.2188,1052.5625 Q154.5313,1051.4844 154.5313,1050.2031 L154.5313,1049.0469 Q154.5313,1047.7188 155.1406,1046.5781 Q155.7656,1045.4219 156.8594,1044.8125 Q157.9531,1044.1875 159.1875,1044.1875 Q159.9219,1044.1875 160.5625,1044.3594 Q161.2188,1044.5156 161.7656,1044.875 Z " fill="#000000"/><text fill="#000000" font-family="sans-serif" font-size="14" lengthAdjust="spacing" textLength="40" x="173" y="1054.7969">Status</text><line style="stroke:#181818;stroke-width:0.5;" x1="145" x2="215" y1="1065" y2="1065"/><line style="stroke:#181818;stroke-width:0.5;" x1="145" x2="215" y1="1073" y2="1073"/></g><!--class Urgency--><g id="elem_Urgency"><rect codeLine="42" fill="#F1F1F1" height="48" id="Urgency" rx="2.5" ry="2.5" style="stroke:#181818;stroke-width:0.5;" width="84" x="310" y="1033"/><ellipse cx="325" cy="1049" fill="#C2C2C2" rx="11" ry="11" style="stroke:#181818;stroke-width:1.0;"/><path d="M327.7656,1044.875 Q327.9219,1044.6563 328.1094,1044.5469 Q328.2969,1044.4375 328.5156,1044.4375 Q328.8906,1044.4375 329.125,1044.7031 Q329.3594,1044.9531 329.3594,1045.5625 L329.3594,1047.0156 Q329.3594,1047.625 329.125,1047.8906 Q328.8906,1048.1563 328.5156,1048.1563 Q328.1719,1048.1563 327.9688,1047.9531 Q327.7656,1047.7656 327.6563,1047.25 Q327.6094,1046.8906 327.4219,1046.7031 Q327.0938,1046.3281 326.4844,1046.1094 Q325.875,1045.8906 325.25,1045.8906 Q324.4844,1045.8906 323.8438,1046.2188 Q323.2188,1046.5469 322.7188,1047.2969 Q322.2344,1048.0469 322.2344,1049.0781 L322.2344,1050.1719 Q322.2344,1051.4063 323.125,1052.2344 Q324.0156,1053.0469 325.6094,1053.0469 Q326.5469,1053.0469 327.2031,1052.7969 Q327.5938,1052.6406 328.0156,1052.2031 Q328.2813,1051.9375 328.4219,1051.8594 Q328.5781,1051.7813 328.7813,1051.7813 Q329.1094,1051.7813 329.3594,1052.0469 Q329.625,1052.2969 329.625,1052.6406 Q329.625,1052.9844 329.2813,1053.3906 Q328.7813,1053.9688 327.9844,1054.2969 Q326.9063,1054.75 325.6094,1054.75 Q324.0938,1054.75 322.8906,1054.125 Q321.9063,1053.625 321.2188,1052.5625 Q320.5313,1051.4844 320.5313,1050.2031 L320.5313,1049.0469 Q320.5313,1047.7188 321.1406,1046.5781 Q321.7656,1045.4219 322.8594,1044.8125 Q323.9531,1044.1875 325.1875,1044.1875 Q325.9219,1044.1875 326.5625,1044.3594 Q327.2188,1044.5156 327.7656,1044.875 Z " fill="#000000"/><text fill="#000000" font-family="sans-serif" font-size="14" lengthAdjust="spacing" textLength="52" x="339" y="1054.7969">Urgency</text><line style="stroke:#181818;stroke-width:0.5;" x1="311" x2="393" y1="1065" y2="1065"/><line style="stroke:#181818;stroke-width:0.5;" x1="311" x2="393" y1="1073" y2="1073"/></g><!--class GreenSpacesManager--><g id="elem_GreenSpacesManager"><rect codeLine="45" fill="#F1F1F1" height="48" id="GreenSpacesManager" rx="2.5" ry="2.5" style="stroke:#181818;stroke-width:0.5;" width="175" x="177.5" y="283"/><ellipse cx="192.5" cy="299" fill="#C2C2C2" rx="11" ry="11" style="stroke:#181818;stroke-width:1.0;"/><path d="M195.2656,294.875 Q195.4219,294.6563 195.6094,294.5469 Q195.7969,294.4375 196.0156,294.4375 Q196.3906,294.4375 196.625,294.7031 Q196.8594,294.9531 196.8594,295.5625 L196.8594,297.0156 Q196.8594,297.625 196.625,297.8906 Q196.3906,298.1563 196.0156,298.1563 Q195.6719,298.1563 195.4688,297.9531 Q195.2656,297.7656 195.1563,297.25 Q195.1094,296.8906 194.9219,296.7031 Q194.5938,296.3281 193.9844,296.1094 Q193.375,295.8906 192.75,295.8906 Q191.9844,295.8906 191.3438,296.2188 Q190.7188,296.5469 190.2188,297.2969 Q189.7344,298.0469 189.7344,299.0781 L189.7344,300.1719 Q189.7344,301.4063 190.625,302.2344 Q191.5156,303.0469 193.1094,303.0469 Q194.0469,303.0469 194.7031,302.7969 Q195.0938,302.6406 195.5156,302.2031 Q195.7813,301.9375 195.9219,301.8594 Q196.0781,301.7813 196.2813,301.7813 Q196.6094,301.7813 196.8594,302.0469 Q197.125,302.2969 197.125,302.6406 Q197.125,302.9844 196.7813,303.3906 Q196.2813,303.9688 195.4844,304.2969 Q194.4063,304.75 193.1094,304.75 Q191.5938,304.75 190.3906,304.125 Q189.4063,303.625 188.7188,302.5625 Q188.0313,301.4844 188.0313,300.2031 L188.0313,299.0469 Q188.0313,297.7188 188.6406,296.5781 Q189.2656,295.4219 190.3594,294.8125 Q191.4531,294.1875 192.6875,294.1875 Q193.4219,294.1875 194.0625,294.3594 Q194.7188,294.5156 195.2656,294.875 Z " fill="#000000"/><text fill="#000000" font-family="sans-serif" font-size="14" lengthAdjust="spacing" textLength="143" x="206.5" y="304.7969">GreenSpacesManager</text><line style="stroke:#181818;stroke-width:0.5;" x1="178.5" x2="351.5" y1="315" y2="315"/><line style="stroke:#181818;stroke-width:0.5;" x1="178.5" x2="351.5" y1="323" y2="323"/></g><!--class Team--><g id="elem_Team"><rect codeLine="51" fill="#F1F1F1" height="48" id="Team" rx="2.5" ry="2.5" style="stroke:#181818;stroke-width:0.5;" width="68" x="281" y="593"/><ellipse cx="296" cy="609" fill="#C2C2C2" rx="11" ry="11" style="stroke:#181818;stroke-width:1.0;"/><path d="M298.7656,604.875 Q298.9219,604.6563 299.1094,604.5469 Q299.2969,604.4375 299.5156,604.4375 Q299.8906,604.4375 300.125,604.7031 Q300.3594,604.9531 300.3594,605.5625 L300.3594,607.0156 Q300.3594,607.625 300.125,607.8906 Q299.8906,608.1563 299.5156,608.1563 Q299.1719,608.1563 298.9688,607.9531 Q298.7656,607.7656 298.6563,607.25 Q298.6094,606.8906 298.4219,606.7031 Q298.0938,606.3281 297.4844,606.1094 Q296.875,605.8906 296.25,605.8906 Q295.4844,605.8906 294.8438,606.2188 Q294.2188,606.5469 293.7188,607.2969 Q293.2344,608.0469 293.2344,609.0781 L293.2344,610.1719 Q293.2344,611.4063 294.125,612.2344 Q295.0156,613.0469 296.6094,613.0469 Q297.5469,613.0469 298.2031,612.7969 Q298.5938,612.6406 299.0156,612.2031 Q299.2813,611.9375 299.4219,611.8594 Q299.5781,611.7813 299.7813,611.7813 Q300.1094,611.7813 300.3594,612.0469 Q300.625,612.2969 300.625,612.6406 Q300.625,612.9844 300.2813,613.3906 Q299.7813,613.9688 298.9844,614.2969 Q297.9063,614.75 296.6094,614.75 Q295.0938,614.75 293.8906,614.125 Q292.9063,613.625 292.2188,612.5625 Q291.5313,611.4844 291.5313,610.2031 L291.5313,609.0469 Q291.5313,607.7188 292.1406,606.5781 Q292.7656,605.4219 293.8594,604.8125 Q294.9531,604.1875 296.1875,604.1875 Q296.9219,604.1875 297.5625,604.3594 Q298.2188,604.5156 298.7656,604.875 Z " fill="#000000"/><text fill="#000000" font-family="sans-serif" font-size="14" lengthAdjust="spacing" textLength="36" x="310" y="614.7969">Team</text><line style="stroke:#181818;stroke-width:0.5;" x1="282" x2="348" y1="625" y2="625"/><line style="stroke:#181818;stroke-width:0.5;" x1="282" x2="348" y1="633" y2="633"/></g><!--class Planned--><g id="elem_Planned"><rect fill="#F1F1F1" height="48" id="Planned" rx="2.5" ry="2.5" style="stroke:#181818;stroke-width:0.5;" width="84" x="7" y="1160"/><ellipse cx="22" cy="1176" fill="#C2C2C2" rx="11" ry="11" style="stroke:#181818;stroke-width:1.0;"/><path d="M24.7656,1171.875 Q24.9219,1171.6563 25.1094,1171.5469 Q25.2969,1171.4375 25.5156,1171.4375 Q25.8906,1171.4375 26.125,1171.7031 Q26.3594,1171.9531 26.3594,1172.5625 L26.3594,1174.0156 Q26.3594,1174.625 26.125,1174.8906 Q25.8906,1175.1563 25.5156,1175.1563 Q25.1719,1175.1563 24.9688,1174.9531 Q24.7656,1174.7656 24.6563,1174.25 Q24.6094,1173.8906 24.4219,1173.7031 Q24.0938,1173.3281 23.4844,1173.1094 Q22.875,1172.8906 22.25,1172.8906 Q21.4844,1172.8906 20.8438,1173.2188 Q20.2188,1173.5469 19.7188,1174.2969 Q19.2344,1175.0469 19.2344,1176.0781 L19.2344,1177.1719 Q19.2344,1178.4063 20.125,1179.2344 Q21.0156,1180.0469 22.6094,1180.0469 Q23.5469,1180.0469 24.2031,1179.7969 Q24.5938,1179.6406 25.0156,1179.2031 Q25.2813,1178.9375 25.4219,1178.8594 Q25.5781,1178.7813 25.7813,1178.7813 Q26.1094,1178.7813 26.3594,1179.0469 Q26.625,1179.2969 26.625,1179.6406 Q26.625,1179.9844 26.2813,1180.3906 Q25.7813,1180.9688 24.9844,1181.2969 Q23.9063,1181.75 22.6094,1181.75 Q21.0938,1181.75 19.8906,1181.125 Q18.9063,1180.625 18.2188,1179.5625 Q17.5313,1178.4844 17.5313,1177.2031 L17.5313,1176.0469 Q17.5313,1174.7188 18.1406,1173.5781 Q18.7656,1172.4219 19.8594,1171.8125 Q20.9531,1171.1875 22.1875,1171.1875 Q22.9219,1171.1875 23.5625,1171.3594 Q24.2188,1171.5156 24.7656,1171.875 Z " fill="#000000"/><text fill="#000000" font-family="sans-serif" font-size="14" lengthAdjust="spacing" textLength="52" x="36" y="1181.7969">Planned</text><line style="stroke:#181818;stroke-width:0.5;" x1="8" x2="90" y1="1192" y2="1192"/><line style="stroke:#181818;stroke-width:0.5;" x1="8" x2="90" y1="1200" y2="1200"/></g><!--class Postponned--><g id="elem_Postponned"><rect fill="#F1F1F1" height="48" id="Postponned" rx="2.5" ry="2.5" style="stroke:#181818;stroke-width:0.5;" width="108" x="126" y="1160"/><ellipse cx="141" cy="1176" fill="#C2C2C2" rx="11" ry="11" style="stroke:#181818;stroke-width:1.0;"/><path d="M143.7656,1171.875 Q143.9219,1171.6563 144.1094,1171.5469 Q144.2969,1171.4375 144.5156,1171.4375 Q144.8906,1171.4375 145.125,1171.7031 Q145.3594,1171.9531 145.3594,1172.5625 L145.3594,1174.0156 Q145.3594,1174.625 145.125,1174.8906 Q144.8906,1175.1563 144.5156,1175.1563 Q144.1719,1175.1563 143.9688,1174.9531 Q143.7656,1174.7656 143.6563,1174.25 Q143.6094,1173.8906 143.4219,1173.7031 Q143.0938,1173.3281 142.4844,1173.1094 Q141.875,1172.8906 141.25,1172.8906 Q140.4844,1172.8906 139.8438,1173.2188 Q139.2188,1173.5469 138.7188,1174.2969 Q138.2344,1175.0469 138.2344,1176.0781 L138.2344,1177.1719 Q138.2344,1178.4063 139.125,1179.2344 Q140.0156,1180.0469 141.6094,1180.0469 Q142.5469,1180.0469 143.2031,1179.7969 Q143.5938,1179.6406 144.0156,1179.2031 Q144.2813,1178.9375 144.4219,1178.8594 Q144.5781,1178.7813 144.7813,1178.7813 Q145.1094,1178.7813 145.3594,1179.0469 Q145.625,1179.2969 145.625,1179.6406 Q145.625,1179.9844 145.2813,1180.3906 Q144.7813,1180.9688 143.9844,1181.2969 Q142.9063,1181.75 141.6094,1181.75 Q140.0938,1181.75 138.8906,1181.125 Q137.9063,1180.625 137.2188,1179.5625 Q136.5313,1178.4844 136.5313,1177.2031 L136.5313,1176.0469 Q136.5313,1174.7188 137.1406,1173.5781 Q137.7656,1172.4219 138.8594,1171.8125 Q139.9531,1171.1875 141.1875,1171.1875 Q141.9219,1171.1875 142.5625,1171.3594 Q143.2188,1171.5156 143.7656,1171.875 Z " fill="#000000"/><text fill="#000000" font-family="sans-serif" font-size="14" lengthAdjust="spacing" textLength="76" x="155" y="1181.7969">Postponned</text><line style="stroke:#181818;stroke-width:0.5;" x1="127" x2="233" y1="1192" y2="1192"/><line style="stroke:#181818;stroke-width:0.5;" x1="127" x2="233" y1="1200" y2="1200"/></g><!--class High--><g id="elem_High"><rect fill="#F1F1F1" height="48" id="High" rx="2.5" ry="2.5" style="stroke:#181818;stroke-width:0.5;" width="60" x="269" y="1160"/><ellipse cx="284" cy="1176" fill="#C2C2C2" rx="11" ry="11" style="stroke:#181818;stroke-width:1.0;"/><path d="M286.7656,1171.875 Q286.9219,1171.6563 287.1094,1171.5469 Q287.2969,1171.4375 287.5156,1171.4375 Q287.8906,1171.4375 288.125,1171.7031 Q288.3594,1171.9531 288.3594,1172.5625 L288.3594,1174.0156 Q288.3594,1174.625 288.125,1174.8906 Q287.8906,1175.1563 287.5156,1175.1563 Q287.1719,1175.1563 286.9688,1174.9531 Q286.7656,1174.7656 286.6563,1174.25 Q286.6094,1173.8906 286.4219,1173.7031 Q286.0938,1173.3281 285.4844,1173.1094 Q284.875,1172.8906 284.25,1172.8906 Q283.4844,1172.8906 282.8438,1173.2188 Q282.2188,1173.5469 281.7188,1174.2969 Q281.2344,1175.0469 281.2344,1176.0781 L281.2344,1177.1719 Q281.2344,1178.4063 282.125,1179.2344 Q283.0156,1180.0469 284.6094,1180.0469 Q285.5469,1180.0469 286.2031,1179.7969 Q286.5938,1179.6406 287.0156,1179.2031 Q287.2813,1178.9375 287.4219,1178.8594 Q287.5781,1178.7813 287.7813,1178.7813 Q288.1094,1178.7813 288.3594,1179.0469 Q288.625,1179.2969 288.625,1179.6406 Q288.625,1179.9844 288.2813,1180.3906 Q287.7813,1180.9688 286.9844,1181.2969 Q285.9063,1181.75 284.6094,1181.75 Q283.0938,1181.75 281.8906,1181.125 Q280.9063,1180.625 280.2188,1179.5625 Q279.5313,1178.4844 279.5313,1177.2031 L279.5313,1176.0469 Q279.5313,1174.7188 280.1406,1173.5781 Q280.7656,1172.4219 281.8594,1171.8125 Q282.9531,1171.1875 284.1875,1171.1875 Q284.9219,1171.1875 285.5625,1171.3594 Q286.2188,1171.5156 286.7656,1171.875 Z " fill="#000000"/><text fill="#000000" font-family="sans-serif" font-size="14" lengthAdjust="spacing" textLength="28" x="298" y="1181.7969">High</text><line style="stroke:#181818;stroke-width:0.5;" x1="270" x2="328" y1="1192" y2="1192"/><line style="stroke:#181818;stroke-width:0.5;" x1="270" x2="328" y1="1200" y2="1200"/></g><!--class Medium--><g id="elem_Medium"><rect fill="#F1F1F1" height="48" id="Medium" rx="2.5" ry="2.5" style="stroke:#181818;stroke-width:0.5;" width="81" x="364.5" y="1160"/><ellipse cx="379.5" cy="1176" fill="#C2C2C2" rx="11" ry="11" style="stroke:#181818;stroke-width:1.0;"/><path d="M382.2656,1171.875 Q382.4219,1171.6563 382.6094,1171.5469 Q382.7969,1171.4375 383.0156,1171.4375 Q383.3906,1171.4375 383.625,1171.7031 Q383.8594,1171.9531 383.8594,1172.5625 L383.8594,1174.0156 Q383.8594,1174.625 383.625,1174.8906 Q383.3906,1175.1563 383.0156,1175.1563 Q382.6719,1175.1563 382.4688,1174.9531 Q382.2656,1174.7656 382.1563,1174.25 Q382.1094,1173.8906 381.9219,1173.7031 Q381.5938,1173.3281 380.9844,1173.1094 Q380.375,1172.8906 379.75,1172.8906 Q378.9844,1172.8906 378.3438,1173.2188 Q377.7188,1173.5469 377.2188,1174.2969 Q376.7344,1175.0469 376.7344,1176.0781 L376.7344,1177.1719 Q376.7344,1178.4063 377.625,1179.2344 Q378.5156,1180.0469 380.1094,1180.0469 Q381.0469,1180.0469 381.7031,1179.7969 Q382.0938,1179.6406 382.5156,1179.2031 Q382.7813,1178.9375 382.9219,1178.8594 Q383.0781,1178.7813 383.2813,1178.7813 Q383.6094,1178.7813 383.8594,1179.0469 Q384.125,1179.2969 384.125,1179.6406 Q384.125,1179.9844 383.7813,1180.3906 Q383.2813,1180.9688 382.4844,1181.2969 Q381.4063,1181.75 380.1094,1181.75 Q378.5938,1181.75 377.3906,1181.125 Q376.4063,1180.625 375.7188,1179.5625 Q375.0313,1178.4844 375.0313,1177.2031 L375.0313,1176.0469 Q375.0313,1174.7188 375.6406,1173.5781 Q376.2656,1172.4219 377.3594,1171.8125 Q378.4531,1171.1875 379.6875,1171.1875 Q380.4219,1171.1875 381.0625,1171.3594 Q381.7188,1171.5156 382.2656,1171.875 Z " fill="#000000"/><text fill="#000000" font-family="sans-serif" font-size="14" lengthAdjust="spacing" textLength="49" x="393.5" y="1181.7969">Medium</text><line style="stroke:#181818;stroke-width:0.5;" x1="365.5" x2="444.5" y1="1192" y2="1192"/><line style="stroke:#181818;stroke-width:0.5;" x1="365.5" x2="444.5" y1="1200" y2="1200"/></g><!--class Low--><g id="elem_Low"><rect fill="#F1F1F1" height="48" id="Low" rx="2.5" ry="2.5" style="stroke:#181818;stroke-width:0.5;" width="57" x="480.5" y="1160"/><ellipse cx="495.5" cy="1176" fill="#C2C2C2" rx="11" ry="11" style="stroke:#181818;stroke-width:1.0;"/><path d="M498.2656,1171.875 Q498.4219,1171.6563 498.6094,1171.5469 Q498.7969,1171.4375 499.0156,1171.4375 Q499.3906,1171.4375 499.625,1171.7031 Q499.8594,1171.9531 499.8594,1172.5625 L499.8594,1174.0156 Q499.8594,1174.625 499.625,1174.8906 Q499.3906,1175.1563 499.0156,1175.1563 Q498.6719,1175.1563 498.4688,1174.9531 Q498.2656,1174.7656 498.1563,1174.25 Q498.1094,1173.8906 497.9219,1173.7031 Q497.5938,1173.3281 496.9844,1173.1094 Q496.375,1172.8906 495.75,1172.8906 Q494.9844,1172.8906 494.3438,1173.2188 Q493.7188,1173.5469 493.2188,1174.2969 Q492.7344,1175.0469 492.7344,1176.0781 L492.7344,1177.1719 Q492.7344,1178.4063 493.625,1179.2344 Q494.5156,1180.0469 496.1094,1180.0469 Q497.0469,1180.0469 497.7031,1179.7969 Q498.0938,1179.6406 498.5156,1179.2031 Q498.7813,1178.9375 498.9219,1178.8594 Q499.0781,1178.7813 499.2813,1178.7813 Q499.6094,1178.7813 499.8594,1179.0469 Q500.125,1179.2969 500.125,1179.6406 Q500.125,1179.9844 499.7813,1180.3906 Q499.2813,1180.9688 498.4844,1181.2969 Q497.4063,1181.75 496.1094,1181.75 Q494.5938,1181.75 493.3906,1181.125 Q492.4063,1180.625 491.7188,1179.5625 Q491.0313,1178.4844 491.0313,1177.2031 L491.0313,1176.0469 Q491.0313,1174.7188 491.6406,1173.5781 Q492.2656,1172.4219 493.3594,1171.8125 Q494.4531,1171.1875 495.6875,1171.1875 Q496.4219,1171.1875 497.0625,1171.3594 Q497.7188,1171.5156 498.2656,1171.875 Z " fill="#000000"/><text fill="#000000" font-family="sans-serif" font-size="14" lengthAdjust="spacing" textLength="25" x="509.5" y="1181.7969">Low</text><line style="stroke:#181818;stroke-width:0.5;" x1="481.5" x2="536.5" y1="1192" y2="1192"/><line style="stroke:#181818;stroke-width:0.5;" x1="481.5" x2="536.5" y1="1200" y2="1200"/></g><!--link Employee to GreenSpacesManager--><g id="link_Employee_GreenSpacesManager"><path codeLine="54" d="M265,204.2 C265,233.62 265,263.28 265,282.93 " fill="none" id="Employee-GreenSpacesManager" style="stroke:#181818;stroke-width:1.0;"/><polygon fill="#000000" points="270,248.6455,272.9389,239.6004,267.0611,239.6004,270,248.6455" style="stroke:#000000;stroke-width:1.0;"/><text fill="#000000" font-family="sans-serif" font-size="13" lengthAdjust="spacing" textLength="10" x="279" y="249.0283">is</text><text fill="#000000" font-family="sans-serif" font-size="13" lengthAdjust="spacing" textLength="7" x="257.743" y="226.1127">1</text><text fill="#000000" font-family="sans-serif" font-size="13" lengthAdjust="spacing" textLength="20" x="242.4375" y="271.6495">1..*</text></g><!--link Agenda to Task--><g id="link_Agenda_Task"><path codeLine="55" d="M220.49,563.34 C223.33,605.27 227.47,666.15 231.11,719.75 " fill="none" id="Agenda-Task" style="stroke:#181818;stroke-width:1.0;"/><polygon fill="#000000" points="231.3387,622.134,233.6582,612.9106,227.7938,613.3088,231.3387,622.134" style="stroke:#000000;stroke-width:1.0;"/><text fill="#000000" font-family="sans-serif" font-size="13" lengthAdjust="spacing" textLength="21" x="240" y="622.5283">has</text><text fill="#000000" font-family="sans-serif" font-size="13" lengthAdjust="spacing" textLength="7" x="213.4888" y="584.8093">1</text><text fill="#000000" font-family="sans-serif" font-size="13" lengthAdjust="spacing" textLength="20" x="209.9639" y="708.725">0..*</text></g><!--link Team to Task--><g id="link_Team_Task"><path codeLine="56" d="M306.87,641.33 C300.11,660.72 289.94,689.87 279.53,719.75 " fill="none" id="Team-Task" style="stroke:#181818;stroke-width:1.0;"/><polygon fill="#000000" points="298.354,685.3668,304.1068,677.7934,298.5565,675.8584,298.354,685.3668" style="stroke:#000000;stroke-width:1.0;"/><text fill="#000000" font-family="sans-serif" font-size="13" lengthAdjust="spacing" textLength="53" x="309" y="686.0283">executes</text><text fill="#000000" font-family="sans-serif" font-size="13" lengthAdjust="spacing" textLength="7" x="297.1806" y="662.9839">1</text><text fill="#000000" font-family="sans-serif" font-size="13" lengthAdjust="spacing" textLength="7" x="274.9022" y="708.725">1</text></g><!--link GreenSpacesManager to Agenda--><g id="link_GreenSpacesManager_Agenda"><path codeLine="57" d="M238.68,331.16 C230.83,339.67 223.21,349.96 219,361 C207.21,391.94 206.71,429.19 209.16,458.71 " fill="none" id="GreenSpacesManager-Agenda" style="stroke:#181818;stroke-width:1.0;"/><polygon fill="#000000" points="222.8726,375.5167,227.7753,367.3673,222.0488,366.0419,222.8726,375.5167" style="stroke:#000000;stroke-width:1.0;"/><text fill="#000000" font-family="sans-serif" font-size="13" lengthAdjust="spacing" textLength="53" x="233" y="376.0283">manages</text><text fill="#000000" font-family="sans-serif" font-size="13" lengthAdjust="spacing" textLength="7" x="224.4114" y="353.1847">1</text><text fill="#000000" font-family="sans-serif" font-size="13" lengthAdjust="spacing" textLength="7" x="200.6362" y="447.5984">1</text></g><!--link GreenSpacesManager to Team--><g id="link_GreenSpacesManager_Team"><path codeLine="58" d="M278.55,331.02 C283.27,340.07 288.11,350.74 291,361 C314.42,444.02 316.13,547.66 315.58,592.98 " fill="none" id="GreenSpacesManager-Team" style="stroke:#181818;stroke-width:1.0;"/><polygon fill="#000000" points="309.6998,424.5963,311.3438,415.2289,305.5238,416.0516,309.6998,424.5963" style="stroke:#000000;stroke-width:1.0;"/><text fill="#000000" font-family="sans-serif" font-size="13" lengthAdjust="spacing" textLength="45" x="318" y="425.0283">assigns</text><text fill="#000000" font-family="sans-serif" font-size="13" lengthAdjust="spacing" textLength="7" x="273.9997" y="353.0105">1</text><text fill="#000000" font-family="sans-serif" font-size="13" lengthAdjust="spacing" textLength="20" x="293.1661" y="581.7124">1..*</text></g><!--link Task to Status--><g id="link_Task_Status"><path codeLine="59" d="M207.6,954.02 C199.45,984.12 191.5,1013.5 186.24,1032.93 " fill="none" id="Task-Status" style="stroke:#181818;stroke-width:1.0;"/><polygon fill="#000000" points="203.6936,998.4718,208.8938,990.5088,203.2201,988.973,203.6936,998.4718" style="stroke:#000000;stroke-width:1.0;"/><text fill="#000000" font-family="sans-serif" font-size="13" lengthAdjust="spacing" textLength="21" x="214" y="999.0283">has</text><text fill="#000000" font-family="sans-serif" font-size="13" lengthAdjust="spacing" textLength="7" x="198.3642" y="976.092">1</text><text fill="#000000" font-family="sans-serif" font-size="13" lengthAdjust="spacing" textLength="7" x="179.9421" y="1021.6495">1</text></g><!--link Task to Urgency--><g id="link_Task_Urgency"><path codeLine="60" d="M299.14,954.02 C314.74,984.12 329.97,1013.5 340.04,1032.93 " fill="none" id="Task-Urgency" style="stroke:#181818;stroke-width:1.0;"/><polygon fill="#000000" points="328.3009,998.0847,326.7478,988.7017,321.5293,991.4066,328.3009,998.0847" style="stroke:#000000;stroke-width:1.0;"/><text fill="#000000" font-family="sans-serif" font-size="13" lengthAdjust="spacing" textLength="21" x="335" y="999.0283">has</text><text fill="#000000" font-family="sans-serif" font-size="13" lengthAdjust="spacing" textLength="7" x="295.7685" y="976.092">1</text><text fill="#000000" font-family="sans-serif" font-size="13" lengthAdjust="spacing" textLength="7" x="329.0784" y="1021.6495">1</text></g><!--link Status to Planned--><g id="link_Status_Planned"><path codeLine="61" d="M155.67,1081.22 C132.14,1103.67 96.69,1137.5 73.2,1159.91 " fill="none" id="Status-Planned" style="stroke:#181818;stroke-width:1.0;"/><polygon fill="#000000" points="124.3825,1124.0972,132.9554,1119.9793,128.8978,1115.7268,124.3825,1124.0972" style="stroke:#000000;stroke-width:1.0;"/><text fill="#000000" font-family="sans-serif" font-size="13" lengthAdjust="spacing" textLength="10" x="137" y="1126.0283">is</text><text fill="#000000" font-family="sans-serif" font-size="13" lengthAdjust="spacing" textLength="7" x="142.2343" y="1102.8485">1</text><text fill="#000000" font-family="sans-serif" font-size="13" lengthAdjust="spacing" textLength="22" x="54.5825" y="1148.6244">0..1</text></g><!--link Status to Postponned--><g id="link_Status_Postponned"><path codeLine="62" d="M180,1081.22 C180,1103.67 180,1137.5 180,1159.91 " fill="none" id="Status-Postponned" style="stroke:#181818;stroke-width:1.0;"/><polygon fill="#000000" points="185,1125.6455,187.9389,1116.6004,182.0611,1116.6004,185,1125.6455" style="stroke:#000000;stroke-width:1.0;"/><text fill="#000000" font-family="sans-serif" font-size="13" lengthAdjust="spacing" textLength="10" x="194" y="1126.0283">is</text><text fill="#000000" font-family="sans-serif" font-size="13" lengthAdjust="spacing" textLength="7" x="172.1906" y="1102.8485">1</text><text fill="#000000" font-family="sans-serif" font-size="13" lengthAdjust="spacing" textLength="22" x="155.1813" y="1148.6244">0..1</text></g><!--link Urgency to High--><g id="link_Urgency_High"><path codeLine="63" d="M342.16,1081.22 C332.64,1103.67 318.29,1137.5 308.79,1159.91 " fill="none" id="Urgency-High" style="stroke:#181818;stroke-width:1.0;"/><polygon fill="#000000" points="331.0479,1125.2487,337.285,1118.0688,331.8736,1115.774,331.0479,1125.2487" style="stroke:#000000;stroke-width:1.0;"/><text fill="#000000" font-family="sans-serif" font-size="13" lengthAdjust="spacing" textLength="10" x="342" y="1126.0283">is</text><text fill="#000000" font-family="sans-serif" font-size="13" lengthAdjust="spacing" textLength="7" x="332.0751" y="1102.8485">1</text><text fill="#000000" font-family="sans-serif" font-size="13" lengthAdjust="spacing" textLength="22" x="286.4799" y="1148.6244">0..1</text></g><!--link Urgency to Medium--><g id="link_Urgency_Medium"><path codeLine="64" d="M361.84,1081.22 C371.36,1103.67 385.71,1137.5 395.21,1159.91 " fill="none" id="Urgency-Medium" style="stroke:#181818;stroke-width:1.0;"/><polygon fill="#000000" points="387.9521,1125.2487,387.1264,1115.774,381.715,1118.0688,387.9521,1125.2487" style="stroke:#000000;stroke-width:1.0;"/><text fill="#000000" font-family="sans-serif" font-size="13" lengthAdjust="spacing" textLength="10" x="395" y="1126.0283">is</text><text fill="#000000" font-family="sans-serif" font-size="13" lengthAdjust="spacing" textLength="7" x="356.3061" y="1102.8485">1</text><text fill="#000000" font-family="sans-serif" font-size="13" lengthAdjust="spacing" textLength="22" x="367.8826" y="1148.6244">0..1</text></g><!--link Urgency to Low--><g id="link_Urgency_Low"><path codeLine="65" d="M381.16,1081.22 C409.45,1103.74 452.11,1137.71 480.26,1160.12 " fill="none" id="Urgency-Low" style="stroke:#181818;stroke-width:1.0;"/><polygon fill="#000000" points="447.9117,1123.7598,442.666,1115.8268,439.0049,1120.4252,447.9117,1123.7598" style="stroke:#000000;stroke-width:1.0;"/><text fill="#000000" font-family="sans-serif" font-size="13" lengthAdjust="spacing" textLength="10" x="453" y="1126.0283">is</text><text fill="#000000" font-family="sans-serif" font-size="13" lengthAdjust="spacing" textLength="7" x="380.0939" y="1102.8485">1</text><text fill="#000000" font-family="sans-serif" font-size="13" lengthAdjust="spacing" textLength="22" x="450.4362" y="1150.8022">0..1</text></g><!--SRC=[VP9DRzim38Rl_XL4Jjs0jDqrXm45Kcm1Mg10kjqPYRM5w0iIZSOhzjydoxBY3a5yCKK-95zIYaTbFGOqO9nreWlE473egOarub4SiQKz3veWa62qhLu2iKFftfLjuGrrf6OH4XfZV60Ewj0pxOIpU_M7uBvfSWGUZTTk88AF1j9dqL0s3Yfm1n9vEgOyHi5mGmQLllETi_GbHr0Q5QDozWmpdZmE5C3sva2XO39GZDdURK4w0Jnu0hHoYGMN1llRDBEyXvQin28ElNVAiY7BKo7K58h9RYtTaueyPa-vhnYF9PEJkTjEfc8zoPGKHL2Ua_RfVDOVZtl6m2yKb9FLztZoQVaajtt0cZLEaOqs4Dbzkglfc1Ierf9y9JIV7B-fKq9JF0jDlRYFIMhr_0ffRZ4iF3zgzVYCDhs6yD4i5pMsoNYzqDMt5QpNwNTx-tLr8Hyse29yRygAP_m-utbt6-Xm9CRQvt8rI2SIwKsDn8Ng2xvqs839iQi9LN1kkYbRooh6hekgPMjLv7_Xii8QB_XYp6IzQBJfIkPLN6PSPE-Ms5pwC_TJjTrrufcawirrviczpq3p3m00]--></g></svg>