<?xml version="1.0" encoding="us-ascii" standalone="no"?><svg xmlns="http://www.w3.org/2000/svg" xmlns:xlink="http://www.w3.org/1999/xlink" contentStyleType="text/css" height="592px" preserveAspectRatio="none" style="width:280px;height:592px;background:#FFFFFF;" version="1.1" viewBox="0 0 280 592" width="280px" zoomAndPan="magnify"><defs/><g><!--class Agenda--><g id="elem_Agenda"><rect codeLine="7" fill="#F1F1F1" height="103.8633" id="Agenda" rx="2.5" ry="2.5" style="stroke:#181818;stroke-width:0.5;" width="97" x="7" y="183"/><ellipse cx="29.2" cy="199" fill="#C2C2C2" rx="11" ry="11" style="stroke:#181818;stroke-width:1.0;"/><path d="M31.9656,194.875 Q32.1219,194.6563 32.3094,194.5469 Q32.4969,194.4375 32.7156,194.4375 Q33.0906,194.4375 33.325,194.7031 Q33.5594,194.9531 33.5594,195.5625 L33.5594,197.0156 Q33.5594,197.625 33.325,197.8906 Q33.0906,198.1563 32.7156,198.1563 Q32.3719,198.1563 32.1688,197.9531 Q31.9656,197.7656 31.8563,197.25 Q31.8094,196.8906 31.6219,196.7031 Q31.2938,196.3281 30.6844,196.1094 Q30.075,195.8906 29.45,195.8906 Q28.6844,195.8906 28.0438,196.2188 Q27.4188,196.5469 26.9188,197.2969 Q26.4344,198.0469 26.4344,199.0781 L26.4344,200.1719 Q26.4344,201.4063 27.325,202.2344 Q28.2156,203.0469 29.8094,203.0469 Q30.7469,203.0469 31.4031,202.7969 Q31.7938,202.6406 32.2156,202.2031 Q32.4813,201.9375 32.6219,201.8594 Q32.7781,201.7813 32.9813,201.7813 Q33.3094,201.7813 33.5594,202.0469 Q33.825,202.2969 33.825,202.6406 Q33.825,202.9844 33.4813,203.3906 Q32.9813,203.9688 32.1844,204.2969 Q31.1063,204.75 29.8094,204.75 Q28.2938,204.75 27.0906,204.125 Q26.1063,203.625 25.4188,202.5625 Q24.7313,201.4844 24.7313,200.2031 L24.7313,199.0469 Q24.7313,197.7188 25.3406,196.5781 Q25.9656,195.4219 27.0594,194.8125 Q28.1531,194.1875 29.3875,194.1875 Q30.1219,194.1875 30.7625,194.3594 Q31.4188,194.5156 31.9656,194.875 Z " fill="#000000"/><text fill="#000000" font-family="sans-serif" font-size="14" lengthAdjust="spacing" textLength="49" x="44.8" y="204.7969">Agenda</text><line style="stroke:#181818;stroke-width:0.5;" x1="8" x2="103" y1="215" y2="215"/><text fill="#000000" font-family="sans-serif" font-size="14" lengthAdjust="spacing" textLength="85" x="13" y="234.1074">appointments</text><text fill="#000000" font-family="sans-serif" font-size="14" lengthAdjust="spacing" textLength="35" x="13" y="252.7285">alerts</text><text fill="#000000" font-family="sans-serif" font-size="14" lengthAdjust="spacing" textLength="55" x="13" y="271.3496">to-doList</text><line style="stroke:#181818;stroke-width:0.5;" x1="8" x2="103" y1="278.8633" y2="278.8633"/></g><!--class Task--><g id="elem_Task"><rect codeLine="13" fill="#F1F1F1" height="141.1055" id="Task" rx="2.5" ry="2.5" style="stroke:#181818;stroke-width:0.5;" width="81" x="105" y="444"/><ellipse cx="128.1" cy="460" fill="#C2C2C2" rx="11" ry="11" style="stroke:#181818;stroke-width:1.0;"/><path d="M130.8656,455.875 Q131.0219,455.6563 131.2094,455.5469 Q131.3969,455.4375 131.6156,455.4375 Q131.9906,455.4375 132.225,455.7031 Q132.4594,455.9531 132.4594,456.5625 L132.4594,458.0156 Q132.4594,458.625 132.225,458.8906 Q131.9906,459.1563 131.6156,459.1563 Q131.2719,459.1563 131.0688,458.9531 Q130.8656,458.7656 130.7563,458.25 Q130.7094,457.8906 130.5219,457.7031 Q130.1938,457.3281 129.5844,457.1094 Q128.975,456.8906 128.35,456.8906 Q127.5844,456.8906 126.9438,457.2188 Q126.3188,457.5469 125.8188,458.2969 Q125.3344,459.0469 125.3344,460.0781 L125.3344,461.1719 Q125.3344,462.4063 126.225,463.2344 Q127.1156,464.0469 128.7094,464.0469 Q129.6469,464.0469 130.3031,463.7969 Q130.6938,463.6406 131.1156,463.2031 Q131.3813,462.9375 131.5219,462.8594 Q131.6781,462.7813 131.8813,462.7813 Q132.2094,462.7813 132.4594,463.0469 Q132.725,463.2969 132.725,463.6406 Q132.725,463.9844 132.3813,464.3906 Q131.8813,464.9688 131.0844,465.2969 Q130.0063,465.75 128.7094,465.75 Q127.1938,465.75 125.9906,465.125 Q125.0063,464.625 124.3188,463.5625 Q123.6313,462.4844 123.6313,461.2031 L123.6313,460.0469 Q123.6313,458.7188 124.2406,457.5781 Q124.8656,456.4219 125.9594,455.8125 Q127.0531,455.1875 128.2875,455.1875 Q129.0219,455.1875 129.6625,455.3594 Q130.3188,455.5156 130.8656,455.875 Z " fill="#000000"/><text fill="#000000" font-family="sans-serif" font-size="14" lengthAdjust="spacing" textLength="31" x="143.9" y="465.7969">Task</text><line style="stroke:#181818;stroke-width:0.5;" x1="106" x2="185" y1="476" y2="476"/><text fill="#000000" font-family="sans-serif" font-size="14" lengthAdjust="spacing" textLength="61" x="111" y="495.1074">reference</text><text fill="#000000" font-family="sans-serif" font-size="14" lengthAdjust="spacing" textLength="69" x="111" y="513.7285">description</text><text fill="#000000" font-family="sans-serif" font-size="14" lengthAdjust="spacing" textLength="52" x="111" y="532.3496">duration</text><text fill="#000000" font-family="sans-serif" font-size="14" lengthAdjust="spacing" textLength="26" x="111" y="550.9707">cost</text><text fill="#000000" font-family="sans-serif" font-size="14" lengthAdjust="spacing" textLength="38" x="111" y="569.5918">status</text><line style="stroke:#181818;stroke-width:0.5;" x1="106" x2="185" y1="577.1055" y2="577.1055"/></g><!--class GreenSpacesManager--><g id="elem_GreenSpacesManager"><rect codeLine="22" fill="#F1F1F1" height="48" id="GreenSpacesManager" rx="2.5" ry="2.5" style="stroke:#181818;stroke-width:0.5;" width="175" x="58" y="7"/><ellipse cx="73" cy="23" fill="#C2C2C2" rx="11" ry="11" style="stroke:#181818;stroke-width:1.0;"/><path d="M75.7656,18.875 Q75.9219,18.6563 76.1094,18.5469 Q76.2969,18.4375 76.5156,18.4375 Q76.8906,18.4375 77.125,18.7031 Q77.3594,18.9531 77.3594,19.5625 L77.3594,21.0156 Q77.3594,21.625 77.125,21.8906 Q76.8906,22.1563 76.5156,22.1563 Q76.1719,22.1563 75.9688,21.9531 Q75.7656,21.7656 75.6563,21.25 Q75.6094,20.8906 75.4219,20.7031 Q75.0938,20.3281 74.4844,20.1094 Q73.875,19.8906 73.25,19.8906 Q72.4844,19.8906 71.8438,20.2188 Q71.2188,20.5469 70.7188,21.2969 Q70.2344,22.0469 70.2344,23.0781 L70.2344,24.1719 Q70.2344,25.4063 71.125,26.2344 Q72.0156,27.0469 73.6094,27.0469 Q74.5469,27.0469 75.2031,26.7969 Q75.5938,26.6406 76.0156,26.2031 Q76.2813,25.9375 76.4219,25.8594 Q76.5781,25.7813 76.7813,25.7813 Q77.1094,25.7813 77.3594,26.0469 Q77.625,26.2969 77.625,26.6406 Q77.625,26.9844 77.2813,27.3906 Q76.7813,27.9688 75.9844,28.2969 Q74.9063,28.75 73.6094,28.75 Q72.0938,28.75 70.8906,28.125 Q69.9063,27.625 69.2188,26.5625 Q68.5313,25.4844 68.5313,24.2031 L68.5313,23.0469 Q68.5313,21.7188 69.1406,20.5781 Q69.7656,19.4219 70.8594,18.8125 Q71.9531,18.1875 73.1875,18.1875 Q73.9219,18.1875 74.5625,18.3594 Q75.2188,18.5156 75.7656,18.875 Z " fill="#000000"/><text fill="#000000" font-family="sans-serif" font-size="14" lengthAdjust="spacing" textLength="143" x="87" y="28.7969">GreenSpacesManager</text><line style="stroke:#181818;stroke-width:0.5;" x1="59" x2="232" y1="39" y2="39"/><line style="stroke:#181818;stroke-width:0.5;" x1="59" x2="232" y1="47" y2="47"/></g><!--class Team--><g id="elem_Team"><rect codeLine="26" fill="#F1F1F1" height="48" id="Team" rx="2.5" ry="2.5" style="stroke:#181818;stroke-width:0.5;" width="68" x="199.5" y="317"/><ellipse cx="214.5" cy="333" fill="#C2C2C2" rx="11" ry="11" style="stroke:#181818;stroke-width:1.0;"/><path d="M217.2656,328.875 Q217.4219,328.6563 217.6094,328.5469 Q217.7969,328.4375 218.0156,328.4375 Q218.3906,328.4375 218.625,328.7031 Q218.8594,328.9531 218.8594,329.5625 L218.8594,331.0156 Q218.8594,331.625 218.625,331.8906 Q218.3906,332.1563 218.0156,332.1563 Q217.6719,332.1563 217.4688,331.9531 Q217.2656,331.7656 217.1563,331.25 Q217.1094,330.8906 216.9219,330.7031 Q216.5938,330.3281 215.9844,330.1094 Q215.375,329.8906 214.75,329.8906 Q213.9844,329.8906 213.3438,330.2188 Q212.7188,330.5469 212.2188,331.2969 Q211.7344,332.0469 211.7344,333.0781 L211.7344,334.1719 Q211.7344,335.4063 212.625,336.2344 Q213.5156,337.0469 215.1094,337.0469 Q216.0469,337.0469 216.7031,336.7969 Q217.0938,336.6406 217.5156,336.2031 Q217.7813,335.9375 217.9219,335.8594 Q218.0781,335.7813 218.2813,335.7813 Q218.6094,335.7813 218.8594,336.0469 Q219.125,336.2969 219.125,336.6406 Q219.125,336.9844 218.7813,337.3906 Q218.2813,337.9688 217.4844,338.2969 Q216.4063,338.75 215.1094,338.75 Q213.5938,338.75 212.3906,338.125 Q211.4063,337.625 210.7188,336.5625 Q210.0313,335.4844 210.0313,334.2031 L210.0313,333.0469 Q210.0313,331.7188 210.6406,330.5781 Q211.2656,329.4219 212.3594,328.8125 Q213.4531,328.1875 214.6875,328.1875 Q215.4219,328.1875 216.0625,328.3594 Q216.7188,328.5156 217.2656,328.875 Z " fill="#000000"/><text fill="#000000" font-family="sans-serif" font-size="14" lengthAdjust="spacing" textLength="36" x="228.5" y="338.7969">Team</text><line style="stroke:#181818;stroke-width:0.5;" x1="200.5" x2="266.5" y1="349" y2="349"/><line style="stroke:#181818;stroke-width:0.5;" x1="200.5" x2="266.5" y1="357" y2="357"/></g><!--link GreenSpacesManager to Task--><g id="link_GreenSpacesManager_Task"><path codeLine="29" d="M145.5,55.22 C145.5,124.82 145.5,333.67 145.5,443.79 " fill="none" id="GreenSpacesManager-Task" style="stroke:#181818;stroke-width:1.0;"/><polygon fill="#000000" points="150.5,240.1455,153.4389,231.1004,147.5611,231.1004,150.5,240.1455" style="stroke:#000000;stroke-width:1.0;"/><text fill="#000000" font-family="sans-serif" font-size="13" lengthAdjust="spacing" textLength="43" x="159.5" y="240.5283">creates</text><text fill="#000000" font-family="sans-serif" font-size="13" lengthAdjust="spacing" textLength="7" x="137.6906" y="76.8485">1</text><text fill="#000000" font-family="sans-serif" font-size="13" lengthAdjust="spacing" textLength="7" x="138.1391" y="432.6594">1</text></g><!--link Agenda to Task--><g id="link_Agenda_Task"><path codeLine="30" d="M64.37,287.1 C69.09,311.02 75.56,339.75 83.5,365 C91.75,391.25 102.83,419.29 113.35,443.85 " fill="none" id="Agenda-Task" style="stroke:#181818;stroke-width:1.0;"/><polygon fill="#000000" points="89.9913,345.9179,90.0987,336.408,84.4884,338.1611,89.9913,345.9179" style="stroke:#000000;stroke-width:1.0;"/><text fill="#000000" font-family="sans-serif" font-size="13" lengthAdjust="spacing" textLength="21" x="97.5" y="346.5283">has</text><text fill="#000000" font-family="sans-serif" font-size="13" lengthAdjust="spacing" textLength="7" x="58.058" y="308.9201">1</text><text fill="#000000" font-family="sans-serif" font-size="13" lengthAdjust="spacing" textLength="20" x="89.0033" y="432.7255">0..*</text></g><!--link Team to Task--><g id="link_Team_Task"><path codeLine="31" d="M221.63,365.13 C211.26,385.34 195.66,415.74 181.28,443.78 " fill="none" id="Team-Task" style="stroke:#181818;stroke-width:1.0;"/><polygon fill="#000000" points="208.2177,409.0942,214.9613,402.3879,209.7316,399.7049,208.2177,409.0942" style="stroke:#000000;stroke-width:1.0;"/><text fill="#000000" font-family="sans-serif" font-size="13" lengthAdjust="spacing" textLength="53" x="219.5" y="410.0283">executes</text><text fill="#000000" font-family="sans-serif" font-size="13" lengthAdjust="spacing" textLength="7" x="210.8836" y="387.1474">1</text><text fill="#000000" font-family="sans-serif" font-size="13" lengthAdjust="spacing" textLength="7" x="177.6089" y="432.6483">1</text></g><!--link GreenSpacesManager to Agenda--><g id="link_GreenSpacesManager_Agenda"><path codeLine="32" d="M82.57,55.23 C70.18,62.79 58.78,72.54 51.5,85 C34.47,114.16 35.84,152.31 41.28,182.71 " fill="none" id="GreenSpacesManager-Agenda" style="stroke:#181818;stroke-width:1.0;"/><polygon fill="#000000" points="54.9593,99.4022,60.5424,91.7028,54.9505,89.8917,54.9593,99.4022" style="stroke:#000000;stroke-width:1.0;"/><text fill="#000000" font-family="sans-serif" font-size="13" lengthAdjust="spacing" textLength="53" x="65.5" y="100.0283">manages</text><text fill="#000000" font-family="sans-serif" font-size="13" lengthAdjust="spacing" textLength="7" x="60.2081" y="76.8608">1</text><text fill="#000000" font-family="sans-serif" font-size="13" lengthAdjust="spacing" textLength="7" x="31.8989" y="171.5984">1</text></g><!--link GreenSpacesManager to Team--><g id="link_GreenSpacesManager_Team"><path codeLine="33" d="M157.24,55.06 C161.83,64.3 167.05,75.09 171.5,85 C190.76,127.92 199.25,137.58 211.5,183 C224.04,229.5 229.72,285.79 232.05,316.76 " fill="none" id="GreenSpacesManager-Team" style="stroke:#181818;stroke-width:1.0;"/><polygon fill="#000000" points="208.8743,148.4529,209.2139,138.9484,203.5625,140.564,208.8743,148.4529" style="stroke:#000000;stroke-width:1.0;"/><text fill="#000000" font-family="sans-serif" font-size="13" lengthAdjust="spacing" textLength="45" x="216.5" y="149.0283">assigns</text><text fill="#000000" font-family="sans-serif" font-size="13" lengthAdjust="spacing" textLength="7" x="152.2485" y="77.0603">1</text><text fill="#000000" font-family="sans-serif" font-size="13" lengthAdjust="spacing" textLength="20" x="209.2591" y="305.8434">1..*</text></g><!--SRC=[VK_BJeL03DtFLpGiJRYvRbcOt9KnqHN-G1rwOG9qI5lYW_ZlCe18OdGsxPdpQAjju045U-WZHzz8x0bCHdAwCmFw5cigxRqZ4FA6N7T7WJPOnTV0DLonKt87odUeUZ6Jy38QFVZ8PVWWE3ktC72fYIk4oS7yS1XYOEk9JTUFZcHhBUPLV0ngxlFR-upQRawXAmcnfmLLf5x2O27oYaV17VWuPwH63MtK5BVbtGiHb_Erf4_8yyKokSCqmdvAyBSCijiCyZnVwh9L0Lu8ZHJkt7RYge7iV3hTxAe6ao95x_nF1BsH7zUCFsSkPPjGGBzm_ngIOzqW3IrWFYtKd2pk2m00]--></g></svg>