<?xml version="1.0" encoding="us-ascii" standalone="no"?><svg xmlns="http://www.w3.org/2000/svg" xmlns:xlink="http://www.w3.org/1999/xlink" contentStyleType="text/css" height="1215px" preserveAspectRatio="none" style="width:671px;height:1215px;background:#FFFFFF;" version="1.1" viewBox="0 0 671 1215" width="671px" zoomAndPan="magnify"><defs/><g><!--class Employee--><g id="elem_Employee"><rect codeLine="7" fill="#F1F1F1" height="196.9688" id="Employee" rx="2.5" ry="2.5" style="stroke:#181818;stroke-width:0.5;" width="163" x="281.5" y="7"/><ellipse cx="327.75" cy="23" fill="#C2C2C2" rx="11" ry="11" style="stroke:#181818;stroke-width:1.0;"/><path d="M330.5156,18.875 Q330.6719,18.6563 330.8594,18.5469 Q331.0469,18.4375 331.2656,18.4375 Q331.6406,18.4375 331.875,18.7031 Q332.1094,18.9531 332.1094,19.5625 L332.1094,21.0156 Q332.1094,21.625 331.875,21.8906 Q331.6406,22.1563 331.2656,22.1563 Q330.9219,22.1563 330.7188,21.9531 Q330.5156,21.7656 330.4063,21.25 Q330.3594,20.8906 330.1719,20.7031 Q329.8438,20.3281 329.2344,20.1094 Q328.625,19.8906 328,19.8906 Q327.2344,19.8906 326.5938,20.2188 Q325.9688,20.5469 325.4688,21.2969 Q324.9844,22.0469 324.9844,23.0781 L324.9844,24.1719 Q324.9844,25.4063 325.875,26.2344 Q326.7656,27.0469 328.3594,27.0469 Q329.2969,27.0469 329.9531,26.7969 Q330.3438,26.6406 330.7656,26.2031 Q331.0313,25.9375 331.1719,25.8594 Q331.3281,25.7813 331.5313,25.7813 Q331.8594,25.7813 332.1094,26.0469 Q332.375,26.2969 332.375,26.6406 Q332.375,26.9844 332.0313,27.3906 Q331.5313,27.9688 330.7344,28.2969 Q329.6563,28.75 328.3594,28.75 Q326.8438,28.75 325.6406,28.125 Q324.6563,27.625 323.9688,26.5625 Q323.2813,25.4844 323.2813,24.2031 L323.2813,23.0469 Q323.2813,21.7188 323.8906,20.5781 Q324.5156,19.4219 325.6094,18.8125 Q326.7031,18.1875 327.9375,18.1875 Q328.6719,18.1875 329.3125,18.3594 Q329.9688,18.5156 330.5156,18.875 Z " fill="#000000"/><text fill="#000000" font-family="sans-serif" font-size="14" lengthAdjust="spacing" textLength="62" x="348.25" y="28.7969">Employee</text><line style="stroke:#181818;stroke-width:0.5;" x1="282.5" x2="443.5" y1="39" y2="39"/><text fill="#000000" font-family="sans-serif" font-size="14" lengthAdjust="spacing" textLength="35" x="287.5" y="58.1074">name</text><text fill="#000000" font-family="sans-serif" font-size="14" lengthAdjust="spacing" textLength="60" x="287.5" y="76.7285">birth date</text><text fill="#000000" font-family="sans-serif" font-size="14" lengthAdjust="spacing" textLength="95" x="287.5" y="95.3496">admission date</text><text fill="#000000" font-family="sans-serif" font-size="14" lengthAdjust="spacing" textLength="106" x="287.5" y="113.9707">taxpayer number</text><text fill="#000000" font-family="sans-serif" font-size="14" lengthAdjust="spacing" textLength="51" x="287.5" y="132.5918">address</text><text fill="#000000" font-family="sans-serif" font-size="14" lengthAdjust="spacing" textLength="151" x="287.5" y="151.2129">ID doc type and number</text><text fill="#000000" font-family="sans-serif" font-size="14" lengthAdjust="spacing" textLength="24" x="287.5" y="169.834">role</text><line style="stroke:#181818;stroke-width:0.5;" x1="282.5" x2="443.5" y1="177.3477" y2="177.3477"/><text fill="#000000" font-family="sans-serif" font-size="14" lengthAdjust="spacing" textLength="137" x="287.5" y="196.4551">contact (email/phone)</text></g><!--class Agenda--><g id="elem_Agenda"><rect codeLine="20" fill="#F1F1F1" height="103.8633" id="Agenda" rx="2.5" ry="2.5" style="stroke:#181818;stroke-width:0.5;" width="97" x="266.5" y="459"/><ellipse cx="288.7" cy="475" fill="#C2C2C2" rx="11" ry="11" style="stroke:#181818;stroke-width:1.0;"/><path d="M291.4656,470.875 Q291.6219,470.6563 291.8094,470.5469 Q291.9969,470.4375 292.2156,470.4375 Q292.5906,470.4375 292.825,470.7031 Q293.0594,470.9531 293.0594,471.5625 L293.0594,473.0156 Q293.0594,473.625 292.825,473.8906 Q292.5906,474.1563 292.2156,474.1563 Q291.8719,474.1563 291.6688,473.9531 Q291.4656,473.7656 291.3563,473.25 Q291.3094,472.8906 291.1219,472.7031 Q290.7938,472.3281 290.1844,472.1094 Q289.575,471.8906 288.95,471.8906 Q288.1844,471.8906 287.5438,472.2188 Q286.9188,472.5469 286.4188,473.2969 Q285.9344,474.0469 285.9344,475.0781 L285.9344,476.1719 Q285.9344,477.4063 286.825,478.2344 Q287.7156,479.0469 289.3094,479.0469 Q290.2469,479.0469 290.9031,478.7969 Q291.2938,478.6406 291.7156,478.2031 Q291.9813,477.9375 292.1219,477.8594 Q292.2781,477.7813 292.4813,477.7813 Q292.8094,477.7813 293.0594,478.0469 Q293.325,478.2969 293.325,478.6406 Q293.325,478.9844 292.9813,479.3906 Q292.4813,479.9688 291.6844,480.2969 Q290.6063,480.75 289.3094,480.75 Q287.7938,480.75 286.5906,480.125 Q285.6063,479.625 284.9188,478.5625 Q284.2313,477.4844 284.2313,476.2031 L284.2313,475.0469 Q284.2313,473.7188 284.8406,472.5781 Q285.4656,471.4219 286.5594,470.8125 Q287.6531,470.1875 288.8875,470.1875 Q289.6219,470.1875 290.2625,470.3594 Q290.9188,470.5156 291.4656,470.875 Z " fill="#000000"/><text fill="#000000" font-family="sans-serif" font-size="14" lengthAdjust="spacing" textLength="49" x="304.3" y="480.7969">Agenda</text><line style="stroke:#181818;stroke-width:0.5;" x1="267.5" x2="362.5" y1="491" y2="491"/><text fill="#000000" font-family="sans-serif" font-size="14" lengthAdjust="spacing" textLength="85" x="272.5" y="510.1074">appointments</text><text fill="#000000" font-family="sans-serif" font-size="14" lengthAdjust="spacing" textLength="35" x="272.5" y="528.7285">alerts</text><text fill="#000000" font-family="sans-serif" font-size="14" lengthAdjust="spacing" textLength="55" x="272.5" y="547.3496">to-doList</text><line style="stroke:#181818;stroke-width:0.5;" x1="267.5" x2="362.5" y1="554.8633" y2="554.8633"/></g><!--class Task--><g id="elem_Task"><rect codeLine="26" fill="#F1F1F1" height="234.2109" id="Task" rx="2.5" ry="2.5" style="stroke:#181818;stroke-width:0.5;" width="150" x="262" y="720"/><ellipse cx="317.25" cy="736" fill="#C2C2C2" rx="11" ry="11" style="stroke:#181818;stroke-width:1.0;"/><path d="M320.0156,731.875 Q320.1719,731.6563 320.3594,731.5469 Q320.5469,731.4375 320.7656,731.4375 Q321.1406,731.4375 321.375,731.7031 Q321.6094,731.9531 321.6094,732.5625 L321.6094,734.0156 Q321.6094,734.625 321.375,734.8906 Q321.1406,735.1563 320.7656,735.1563 Q320.4219,735.1563 320.2188,734.9531 Q320.0156,734.7656 319.9063,734.25 Q319.8594,733.8906 319.6719,733.7031 Q319.3438,733.3281 318.7344,733.1094 Q318.125,732.8906 317.5,732.8906 Q316.7344,732.8906 316.0938,733.2188 Q315.4688,733.5469 314.9688,734.2969 Q314.4844,735.0469 314.4844,736.0781 L314.4844,737.1719 Q314.4844,738.4063 315.375,739.2344 Q316.2656,740.0469 317.8594,740.0469 Q318.7969,740.0469 319.4531,739.7969 Q319.8438,739.6406 320.2656,739.2031 Q320.5313,738.9375 320.6719,738.8594 Q320.8281,738.7813 321.0313,738.7813 Q321.3594,738.7813 321.6094,739.0469 Q321.875,739.2969 321.875,739.6406 Q321.875,739.9844 321.5313,740.3906 Q321.0313,740.9688 320.2344,741.2969 Q319.1563,741.75 317.8594,741.75 Q316.3438,741.75 315.1406,741.125 Q314.1563,740.625 313.4688,739.5625 Q312.7813,738.4844 312.7813,737.2031 L312.7813,736.0469 Q312.7813,734.7188 313.3906,733.5781 Q314.0156,732.4219 315.1094,731.8125 Q316.2031,731.1875 317.4375,731.1875 Q318.1719,731.1875 318.8125,731.3594 Q319.4688,731.5156 320.0156,731.875 Z " fill="#000000"/><text fill="#000000" font-family="sans-serif" font-size="14" lengthAdjust="spacing" textLength="31" x="337.75" y="741.7969">Task</text><line style="stroke:#181818;stroke-width:0.5;" x1="263" x2="411" y1="752" y2="752"/><text fill="#000000" font-family="sans-serif" font-size="14" lengthAdjust="spacing" textLength="39" x="268" y="771.1074">taskID</text><text fill="#000000" font-family="sans-serif" font-size="14" lengthAdjust="spacing" textLength="22" x="268" y="789.7285">title</text><text fill="#000000" font-family="sans-serif" font-size="14" lengthAdjust="spacing" textLength="69" x="268" y="808.3496">description</text><text fill="#000000" font-family="sans-serif" font-size="14" lengthAdjust="spacing" textLength="28" x="268" y="826.9707">date</text><text fill="#000000" font-family="sans-serif" font-size="14" lengthAdjust="spacing" textLength="97" x="268" y="845.5918">taskStartPeriod</text><text fill="#000000" font-family="sans-serif" font-size="14" lengthAdjust="spacing" textLength="138" x="268" y="864.2129">taskExpectedDuration</text><text fill="#000000" font-family="sans-serif" font-size="14" lengthAdjust="spacing" textLength="27" x="268" y="882.834">type</text><text fill="#000000" font-family="sans-serif" font-size="14" lengthAdjust="spacing" textLength="77" x="268" y="901.4551">greenSpace</text><text fill="#000000" font-family="sans-serif" font-size="14" lengthAdjust="spacing" textLength="93" x="268" y="920.0762">assignedTeam</text><text fill="#000000" font-family="sans-serif" font-size="14" lengthAdjust="spacing" textLength="110" x="268" y="938.6973">assignedVehicles</text><line style="stroke:#181818;stroke-width:0.5;" x1="263" x2="411" y1="946.2109" y2="946.2109"/></g><!--class Status--><g id="elem_Status"><rect codeLine="39" fill="#F1F1F1" height="48" id="Status" rx="2.5" ry="2.5" style="stroke:#181818;stroke-width:0.5;" width="72" x="245" y="1033"/><ellipse cx="260" cy="1049" fill="#C2C2C2" rx="11" ry="11" style="stroke:#181818;stroke-width:1.0;"/><path d="M262.7656,1044.875 Q262.9219,1044.6563 263.1094,1044.5469 Q263.2969,1044.4375 263.5156,1044.4375 Q263.8906,1044.4375 264.125,1044.7031 Q264.3594,1044.9531 264.3594,1045.5625 L264.3594,1047.0156 Q264.3594,1047.625 264.125,1047.8906 Q263.8906,1048.1563 263.5156,1048.1563 Q263.1719,1048.1563 262.9688,1047.9531 Q262.7656,1047.7656 262.6563,1047.25 Q262.6094,1046.8906 262.4219,1046.7031 Q262.0938,1046.3281 261.4844,1046.1094 Q260.875,1045.8906 260.25,1045.8906 Q259.4844,1045.8906 258.8438,1046.2188 Q258.2188,1046.5469 257.7188,1047.2969 Q257.2344,1048.0469 257.2344,1049.0781 L257.2344,1050.1719 Q257.2344,1051.4063 258.125,1052.2344 Q259.0156,1053.0469 260.6094,1053.0469 Q261.5469,1053.0469 262.2031,1052.7969 Q262.5938,1052.6406 263.0156,1052.2031 Q263.2813,1051.9375 263.4219,1051.8594 Q263.5781,1051.7813 263.7813,1051.7813 Q264.1094,1051.7813 264.3594,1052.0469 Q264.625,1052.2969 264.625,1052.6406 Q264.625,1052.9844 264.2813,1053.3906 Q263.7813,1053.9688 262.9844,1054.2969 Q261.9063,1054.75 260.6094,1054.75 Q259.0938,1054.75 257.8906,1054.125 Q256.9063,1053.625 256.2188,1052.5625 Q255.5313,1051.4844 255.5313,1050.2031 L255.5313,1049.0469 Q255.5313,1047.7188 256.1406,1046.5781 Q256.7656,1045.4219 257.8594,1044.8125 Q258.9531,1044.1875 260.1875,1044.1875 Q260.9219,1044.1875 261.5625,1044.3594 Q262.2188,1044.5156 262.7656,1044.875 Z " fill="#000000"/><text fill="#000000" font-family="sans-serif" font-size="14" lengthAdjust="spacing" textLength="40" x="274" y="1054.7969">Status</text><line style="stroke:#181818;stroke-width:0.5;" x1="246" x2="316" y1="1065" y2="1065"/><line style="stroke:#181818;stroke-width:0.5;" x1="246" x2="316" y1="1073" y2="1073"/></g><!--class Urgency--><g id="elem_Urgency"><rect codeLine="42" fill="#F1F1F1" height="48" id="Urgency" rx="2.5" ry="2.5" style="stroke:#181818;stroke-width:0.5;" width="84" x="418" y="1033"/><ellipse cx="433" cy="1049" fill="#C2C2C2" rx="11" ry="11" style="stroke:#181818;stroke-width:1.0;"/><path d="M435.7656,1044.875 Q435.9219,1044.6563 436.1094,1044.5469 Q436.2969,1044.4375 436.5156,1044.4375 Q436.8906,1044.4375 437.125,1044.7031 Q437.3594,1044.9531 437.3594,1045.5625 L437.3594,1047.0156 Q437.3594,1047.625 437.125,1047.8906 Q436.8906,1048.1563 436.5156,1048.1563 Q436.1719,1048.1563 435.9688,1047.9531 Q435.7656,1047.7656 435.6563,1047.25 Q435.6094,1046.8906 435.4219,1046.7031 Q435.0938,1046.3281 434.4844,1046.1094 Q433.875,1045.8906 433.25,1045.8906 Q432.4844,1045.8906 431.8438,1046.2188 Q431.2188,1046.5469 430.7188,1047.2969 Q430.2344,1048.0469 430.2344,1049.0781 L430.2344,1050.1719 Q430.2344,1051.4063 431.125,1052.2344 Q432.0156,1053.0469 433.6094,1053.0469 Q434.5469,1053.0469 435.2031,1052.7969 Q435.5938,1052.6406 436.0156,1052.2031 Q436.2813,1051.9375 436.4219,1051.8594 Q436.5781,1051.7813 436.7813,1051.7813 Q437.1094,1051.7813 437.3594,1052.0469 Q437.625,1052.2969 437.625,1052.6406 Q437.625,1052.9844 437.2813,1053.3906 Q436.7813,1053.9688 435.9844,1054.2969 Q434.9063,1054.75 433.6094,1054.75 Q432.0938,1054.75 430.8906,1054.125 Q429.9063,1053.625 429.2188,1052.5625 Q428.5313,1051.4844 428.5313,1050.2031 L428.5313,1049.0469 Q428.5313,1047.7188 429.1406,1046.5781 Q429.7656,1045.4219 430.8594,1044.8125 Q431.9531,1044.1875 433.1875,1044.1875 Q433.9219,1044.1875 434.5625,1044.3594 Q435.2188,1044.5156 435.7656,1044.875 Z " fill="#000000"/><text fill="#000000" font-family="sans-serif" font-size="14" lengthAdjust="spacing" textLength="52" x="447" y="1054.7969">Urgency</text><line style="stroke:#181818;stroke-width:0.5;" x1="419" x2="501" y1="1065" y2="1065"/><line style="stroke:#181818;stroke-width:0.5;" x1="419" x2="501" y1="1073" y2="1073"/></g><!--class GreenSpacesManager--><g id="elem_GreenSpacesManager"><rect codeLine="45" fill="#F1F1F1" height="48" id="GreenSpacesManager" rx="2.5" ry="2.5" style="stroke:#181818;stroke-width:0.5;" width="175" x="275.5" y="283"/><ellipse cx="290.5" cy="299" fill="#C2C2C2" rx="11" ry="11" style="stroke:#181818;stroke-width:1.0;"/><path d="M293.2656,294.875 Q293.4219,294.6563 293.6094,294.5469 Q293.7969,294.4375 294.0156,294.4375 Q294.3906,294.4375 294.625,294.7031 Q294.8594,294.9531 294.8594,295.5625 L294.8594,297.0156 Q294.8594,297.625 294.625,297.8906 Q294.3906,298.1563 294.0156,298.1563 Q293.6719,298.1563 293.4688,297.9531 Q293.2656,297.7656 293.1563,297.25 Q293.1094,296.8906 292.9219,296.7031 Q292.5938,296.3281 291.9844,296.1094 Q291.375,295.8906 290.75,295.8906 Q289.9844,295.8906 289.3438,296.2188 Q288.7188,296.5469 288.2188,297.2969 Q287.7344,298.0469 287.7344,299.0781 L287.7344,300.1719 Q287.7344,301.4063 288.625,302.2344 Q289.5156,303.0469 291.1094,303.0469 Q292.0469,303.0469 292.7031,302.7969 Q293.0938,302.6406 293.5156,302.2031 Q293.7813,301.9375 293.9219,301.8594 Q294.0781,301.7813 294.2813,301.7813 Q294.6094,301.7813 294.8594,302.0469 Q295.125,302.2969 295.125,302.6406 Q295.125,302.9844 294.7813,303.3906 Q294.2813,303.9688 293.4844,304.2969 Q292.4063,304.75 291.1094,304.75 Q289.5938,304.75 288.3906,304.125 Q287.4063,303.625 286.7188,302.5625 Q286.0313,301.4844 286.0313,300.2031 L286.0313,299.0469 Q286.0313,297.7188 286.6406,296.5781 Q287.2656,295.4219 288.3594,294.8125 Q289.4531,294.1875 290.6875,294.1875 Q291.4219,294.1875 292.0625,294.3594 Q292.7188,294.5156 293.2656,294.875 Z " fill="#000000"/><text fill="#000000" font-family="sans-serif" font-size="14" lengthAdjust="spacing" textLength="143" x="304.5" y="304.7969">GreenSpacesManager</text><line style="stroke:#181818;stroke-width:0.5;" x1="276.5" x2="449.5" y1="315" y2="315"/><line style="stroke:#181818;stroke-width:0.5;" x1="276.5" x2="449.5" y1="323" y2="323"/></g><!--class Team--><g id="elem_Team"><rect codeLine="51" fill="#F1F1F1" height="48" id="Team" rx="2.5" ry="2.5" style="stroke:#181818;stroke-width:0.5;" width="68" x="379" y="593"/><ellipse cx="394" cy="609" fill="#C2C2C2" rx="11" ry="11" style="stroke:#181818;stroke-width:1.0;"/><path d="M396.7656,604.875 Q396.9219,604.6563 397.1094,604.5469 Q397.2969,604.4375 397.5156,604.4375 Q397.8906,604.4375 398.125,604.7031 Q398.3594,604.9531 398.3594,605.5625 L398.3594,607.0156 Q398.3594,607.625 398.125,607.8906 Q397.8906,608.1563 397.5156,608.1563 Q397.1719,608.1563 396.9688,607.9531 Q396.7656,607.7656 396.6563,607.25 Q396.6094,606.8906 396.4219,606.7031 Q396.0938,606.3281 395.4844,606.1094 Q394.875,605.8906 394.25,605.8906 Q393.4844,605.8906 392.8438,606.2188 Q392.2188,606.5469 391.7188,607.2969 Q391.2344,608.0469 391.2344,609.0781 L391.2344,610.1719 Q391.2344,611.4063 392.125,612.2344 Q393.0156,613.0469 394.6094,613.0469 Q395.5469,613.0469 396.2031,612.7969 Q396.5938,612.6406 397.0156,612.2031 Q397.2813,611.9375 397.4219,611.8594 Q397.5781,611.7813 397.7813,611.7813 Q398.1094,611.7813 398.3594,612.0469 Q398.625,612.2969 398.625,612.6406 Q398.625,612.9844 398.2813,613.3906 Q397.7813,613.9688 396.9844,614.2969 Q395.9063,614.75 394.6094,614.75 Q393.0938,614.75 391.8906,614.125 Q390.9063,613.625 390.2188,612.5625 Q389.5313,611.4844 389.5313,610.2031 L389.5313,609.0469 Q389.5313,607.7188 390.1406,606.5781 Q390.7656,605.4219 391.8594,604.8125 Q392.9531,604.1875 394.1875,604.1875 Q394.9219,604.1875 395.5625,604.3594 Q396.2188,604.5156 396.7656,604.875 Z " fill="#000000"/><text fill="#000000" font-family="sans-serif" font-size="14" lengthAdjust="spacing" textLength="36" x="408" y="614.7969">Team</text><line style="stroke:#181818;stroke-width:0.5;" x1="380" x2="446" y1="625" y2="625"/><line style="stroke:#181818;stroke-width:0.5;" x1="380" x2="446" y1="633" y2="633"/></g><!--class Planned--><g id="elem_Planned"><rect fill="#F1F1F1" height="48" id="Planned" rx="2.5" ry="2.5" style="stroke:#181818;stroke-width:0.5;" width="84" x="7" y="1160"/><ellipse cx="22" cy="1176" fill="#C2C2C2" rx="11" ry="11" style="stroke:#181818;stroke-width:1.0;"/><path d="M24.7656,1171.875 Q24.9219,1171.6563 25.1094,1171.5469 Q25.2969,1171.4375 25.5156,1171.4375 Q25.8906,1171.4375 26.125,1171.7031 Q26.3594,1171.9531 26.3594,1172.5625 L26.3594,1174.0156 Q26.3594,1174.625 26.125,1174.8906 Q25.8906,1175.1563 25.5156,1175.1563 Q25.1719,1175.1563 24.9688,1174.9531 Q24.7656,1174.7656 24.6563,1174.25 Q24.6094,1173.8906 24.4219,1173.7031 Q24.0938,1173.3281 23.4844,1173.1094 Q22.875,1172.8906 22.25,1172.8906 Q21.4844,1172.8906 20.8438,1173.2188 Q20.2188,1173.5469 19.7188,1174.2969 Q19.2344,1175.0469 19.2344,1176.0781 L19.2344,1177.1719 Q19.2344,1178.4063 20.125,1179.2344 Q21.0156,1180.0469 22.6094,1180.0469 Q23.5469,1180.0469 24.2031,1179.7969 Q24.5938,1179.6406 25.0156,1179.2031 Q25.2813,1178.9375 25.4219,1178.8594 Q25.5781,1178.7813 25.7813,1178.7813 Q26.1094,1178.7813 26.3594,1179.0469 Q26.625,1179.2969 26.625,1179.6406 Q26.625,1179.9844 26.2813,1180.3906 Q25.7813,1180.9688 24.9844,1181.2969 Q23.9063,1181.75 22.6094,1181.75 Q21.0938,1181.75 19.8906,1181.125 Q18.9063,1180.625 18.2188,1179.5625 Q17.5313,1178.4844 17.5313,1177.2031 L17.5313,1176.0469 Q17.5313,1174.7188 18.1406,1173.5781 Q18.7656,1172.4219 19.8594,1171.8125 Q20.9531,1171.1875 22.1875,1171.1875 Q22.9219,1171.1875 23.5625,1171.3594 Q24.2188,1171.5156 24.7656,1171.875 Z " fill="#000000"/><text fill="#000000" font-family="sans-serif" font-size="14" lengthAdjust="spacing" textLength="52" x="36" y="1181.7969">Planned</text><line style="stroke:#181818;stroke-width:0.5;" x1="8" x2="90" y1="1192" y2="1192"/><line style="stroke:#181818;stroke-width:0.5;" x1="8" x2="90" y1="1200" y2="1200"/></g><!--class Postponned--><g id="elem_Postponned"><rect fill="#F1F1F1" height="48" id="Postponned" rx="2.5" ry="2.5" style="stroke:#181818;stroke-width:0.5;" width="108" x="126" y="1160"/><ellipse cx="141" cy="1176" fill="#C2C2C2" rx="11" ry="11" style="stroke:#181818;stroke-width:1.0;"/><path d="M143.7656,1171.875 Q143.9219,1171.6563 144.1094,1171.5469 Q144.2969,1171.4375 144.5156,1171.4375 Q144.8906,1171.4375 145.125,1171.7031 Q145.3594,1171.9531 145.3594,1172.5625 L145.3594,1174.0156 Q145.3594,1174.625 145.125,1174.8906 Q144.8906,1175.1563 144.5156,1175.1563 Q144.1719,1175.1563 143.9688,1174.9531 Q143.7656,1174.7656 143.6563,1174.25 Q143.6094,1173.8906 143.4219,1173.7031 Q143.0938,1173.3281 142.4844,1173.1094 Q141.875,1172.8906 141.25,1172.8906 Q140.4844,1172.8906 139.8438,1173.2188 Q139.2188,1173.5469 138.7188,1174.2969 Q138.2344,1175.0469 138.2344,1176.0781 L138.2344,1177.1719 Q138.2344,1178.4063 139.125,1179.2344 Q140.0156,1180.0469 141.6094,1180.0469 Q142.5469,1180.0469 143.2031,1179.7969 Q143.5938,1179.6406 144.0156,1179.2031 Q144.2813,1178.9375 144.4219,1178.8594 Q144.5781,1178.7813 144.7813,1178.7813 Q145.1094,1178.7813 145.3594,1179.0469 Q145.625,1179.2969 145.625,1179.6406 Q145.625,1179.9844 145.2813,1180.3906 Q144.7813,1180.9688 143.9844,1181.2969 Q142.9063,1181.75 141.6094,1181.75 Q140.0938,1181.75 138.8906,1181.125 Q137.9063,1180.625 137.2188,1179.5625 Q136.5313,1178.4844 136.5313,1177.2031 L136.5313,1176.0469 Q136.5313,1174.7188 137.1406,1173.5781 Q137.7656,1172.4219 138.8594,1171.8125 Q139.9531,1171.1875 141.1875,1171.1875 Q141.9219,1171.1875 142.5625,1171.3594 Q143.2188,1171.5156 143.7656,1171.875 Z " fill="#000000"/><text fill="#000000" font-family="sans-serif" font-size="14" lengthAdjust="spacing" textLength="76" x="155" y="1181.7969">Postponned</text><line style="stroke:#181818;stroke-width:0.5;" x1="127" x2="233" y1="1192" y2="1192"/><line style="stroke:#181818;stroke-width:0.5;" x1="127" x2="233" y1="1200" y2="1200"/></g><!--class Canceled--><g id="elem_Canceled"><rect fill="#F1F1F1" height="48" id="Canceled" rx="2.5" ry="2.5" style="stroke:#181818;stroke-width:0.5;" width="92" x="269" y="1160"/><ellipse cx="284" cy="1176" fill="#C2C2C2" rx="11" ry="11" style="stroke:#181818;stroke-width:1.0;"/><path d="M286.7656,1171.875 Q286.9219,1171.6563 287.1094,1171.5469 Q287.2969,1171.4375 287.5156,1171.4375 Q287.8906,1171.4375 288.125,1171.7031 Q288.3594,1171.9531 288.3594,1172.5625 L288.3594,1174.0156 Q288.3594,1174.625 288.125,1174.8906 Q287.8906,1175.1563 287.5156,1175.1563 Q287.1719,1175.1563 286.9688,1174.9531 Q286.7656,1174.7656 286.6563,1174.25 Q286.6094,1173.8906 286.4219,1173.7031 Q286.0938,1173.3281 285.4844,1173.1094 Q284.875,1172.8906 284.25,1172.8906 Q283.4844,1172.8906 282.8438,1173.2188 Q282.2188,1173.5469 281.7188,1174.2969 Q281.2344,1175.0469 281.2344,1176.0781 L281.2344,1177.1719 Q281.2344,1178.4063 282.125,1179.2344 Q283.0156,1180.0469 284.6094,1180.0469 Q285.5469,1180.0469 286.2031,1179.7969 Q286.5938,1179.6406 287.0156,1179.2031 Q287.2813,1178.9375 287.4219,1178.8594 Q287.5781,1178.7813 287.7813,1178.7813 Q288.1094,1178.7813 288.3594,1179.0469 Q288.625,1179.2969 288.625,1179.6406 Q288.625,1179.9844 288.2813,1180.3906 Q287.7813,1180.9688 286.9844,1181.2969 Q285.9063,1181.75 284.6094,1181.75 Q283.0938,1181.75 281.8906,1181.125 Q280.9063,1180.625 280.2188,1179.5625 Q279.5313,1178.4844 279.5313,1177.2031 L279.5313,1176.0469 Q279.5313,1174.7188 280.1406,1173.5781 Q280.7656,1172.4219 281.8594,1171.8125 Q282.9531,1171.1875 284.1875,1171.1875 Q284.9219,1171.1875 285.5625,1171.3594 Q286.2188,1171.5156 286.7656,1171.875 Z " fill="#000000"/><text fill="#000000" font-family="sans-serif" font-size="14" lengthAdjust="spacing" textLength="60" x="298" y="1181.7969">Canceled</text><line style="stroke:#181818;stroke-width:0.5;" x1="270" x2="360" y1="1192" y2="1192"/><line style="stroke:#181818;stroke-width:0.5;" x1="270" x2="360" y1="1200" y2="1200"/></g><!--class High--><g id="elem_High"><rect fill="#F1F1F1" height="48" id="High" rx="2.5" ry="2.5" style="stroke:#181818;stroke-width:0.5;" width="60" x="396" y="1160"/><ellipse cx="411" cy="1176" fill="#C2C2C2" rx="11" ry="11" style="stroke:#181818;stroke-width:1.0;"/><path d="M413.7656,1171.875 Q413.9219,1171.6563 414.1094,1171.5469 Q414.2969,1171.4375 414.5156,1171.4375 Q414.8906,1171.4375 415.125,1171.7031 Q415.3594,1171.9531 415.3594,1172.5625 L415.3594,1174.0156 Q415.3594,1174.625 415.125,1174.8906 Q414.8906,1175.1563 414.5156,1175.1563 Q414.1719,1175.1563 413.9688,1174.9531 Q413.7656,1174.7656 413.6563,1174.25 Q413.6094,1173.8906 413.4219,1173.7031 Q413.0938,1173.3281 412.4844,1173.1094 Q411.875,1172.8906 411.25,1172.8906 Q410.4844,1172.8906 409.8438,1173.2188 Q409.2188,1173.5469 408.7188,1174.2969 Q408.2344,1175.0469 408.2344,1176.0781 L408.2344,1177.1719 Q408.2344,1178.4063 409.125,1179.2344 Q410.0156,1180.0469 411.6094,1180.0469 Q412.5469,1180.0469 413.2031,1179.7969 Q413.5938,1179.6406 414.0156,1179.2031 Q414.2813,1178.9375 414.4219,1178.8594 Q414.5781,1178.7813 414.7813,1178.7813 Q415.1094,1178.7813 415.3594,1179.0469 Q415.625,1179.2969 415.625,1179.6406 Q415.625,1179.9844 415.2813,1180.3906 Q414.7813,1180.9688 413.9844,1181.2969 Q412.9063,1181.75 411.6094,1181.75 Q410.0938,1181.75 408.8906,1181.125 Q407.9063,1180.625 407.2188,1179.5625 Q406.5313,1178.4844 406.5313,1177.2031 L406.5313,1176.0469 Q406.5313,1174.7188 407.1406,1173.5781 Q407.7656,1172.4219 408.8594,1171.8125 Q409.9531,1171.1875 411.1875,1171.1875 Q411.9219,1171.1875 412.5625,1171.3594 Q413.2188,1171.5156 413.7656,1171.875 Z " fill="#000000"/><text fill="#000000" font-family="sans-serif" font-size="14" lengthAdjust="spacing" textLength="28" x="425" y="1181.7969">High</text><line style="stroke:#181818;stroke-width:0.5;" x1="397" x2="455" y1="1192" y2="1192"/><line style="stroke:#181818;stroke-width:0.5;" x1="397" x2="455" y1="1200" y2="1200"/></g><!--class Medium--><g id="elem_Medium"><rect fill="#F1F1F1" height="48" id="Medium" rx="2.5" ry="2.5" style="stroke:#181818;stroke-width:0.5;" width="81" x="491.5" y="1160"/><ellipse cx="506.5" cy="1176" fill="#C2C2C2" rx="11" ry="11" style="stroke:#181818;stroke-width:1.0;"/><path d="M509.2656,1171.875 Q509.4219,1171.6563 509.6094,1171.5469 Q509.7969,1171.4375 510.0156,1171.4375 Q510.3906,1171.4375 510.625,1171.7031 Q510.8594,1171.9531 510.8594,1172.5625 L510.8594,1174.0156 Q510.8594,1174.625 510.625,1174.8906 Q510.3906,1175.1563 510.0156,1175.1563 Q509.6719,1175.1563 509.4688,1174.9531 Q509.2656,1174.7656 509.1563,1174.25 Q509.1094,1173.8906 508.9219,1173.7031 Q508.5938,1173.3281 507.9844,1173.1094 Q507.375,1172.8906 506.75,1172.8906 Q505.9844,1172.8906 505.3438,1173.2188 Q504.7188,1173.5469 504.2188,1174.2969 Q503.7344,1175.0469 503.7344,1176.0781 L503.7344,1177.1719 Q503.7344,1178.4063 504.625,1179.2344 Q505.5156,1180.0469 507.1094,1180.0469 Q508.0469,1180.0469 508.7031,1179.7969 Q509.0938,1179.6406 509.5156,1179.2031 Q509.7813,1178.9375 509.9219,1178.8594 Q510.0781,1178.7813 510.2813,1178.7813 Q510.6094,1178.7813 510.8594,1179.0469 Q511.125,1179.2969 511.125,1179.6406 Q511.125,1179.9844 510.7813,1180.3906 Q510.2813,1180.9688 509.4844,1181.2969 Q508.4063,1181.75 507.1094,1181.75 Q505.5938,1181.75 504.3906,1181.125 Q503.4063,1180.625 502.7188,1179.5625 Q502.0313,1178.4844 502.0313,1177.2031 L502.0313,1176.0469 Q502.0313,1174.7188 502.6406,1173.5781 Q503.2656,1172.4219 504.3594,1171.8125 Q505.4531,1171.1875 506.6875,1171.1875 Q507.4219,1171.1875 508.0625,1171.3594 Q508.7188,1171.5156 509.2656,1171.875 Z " fill="#000000"/><text fill="#000000" font-family="sans-serif" font-size="14" lengthAdjust="spacing" textLength="49" x="520.5" y="1181.7969">Medium</text><line style="stroke:#181818;stroke-width:0.5;" x1="492.5" x2="571.5" y1="1192" y2="1192"/><line style="stroke:#181818;stroke-width:0.5;" x1="492.5" x2="571.5" y1="1200" y2="1200"/></g><!--class Low--><g id="elem_Low"><rect fill="#F1F1F1" height="48" id="Low" rx="2.5" ry="2.5" style="stroke:#181818;stroke-width:0.5;" width="57" x="607.5" y="1160"/><ellipse cx="622.5" cy="1176" fill="#C2C2C2" rx="11" ry="11" style="stroke:#181818;stroke-width:1.0;"/><path d="M625.2656,1171.875 Q625.4219,1171.6563 625.6094,1171.5469 Q625.7969,1171.4375 626.0156,1171.4375 Q626.3906,1171.4375 626.625,1171.7031 Q626.8594,1171.9531 626.8594,1172.5625 L626.8594,1174.0156 Q626.8594,1174.625 626.625,1174.8906 Q626.3906,1175.1563 626.0156,1175.1563 Q625.6719,1175.1563 625.4688,1174.9531 Q625.2656,1174.7656 625.1563,1174.25 Q625.1094,1173.8906 624.9219,1173.7031 Q624.5938,1173.3281 623.9844,1173.1094 Q623.375,1172.8906 622.75,1172.8906 Q621.9844,1172.8906 621.3438,1173.2188 Q620.7188,1173.5469 620.2188,1174.2969 Q619.7344,1175.0469 619.7344,1176.0781 L619.7344,1177.1719 Q619.7344,1178.4063 620.625,1179.2344 Q621.5156,1180.0469 623.1094,1180.0469 Q624.0469,1180.0469 624.7031,1179.7969 Q625.0938,1179.6406 625.5156,1179.2031 Q625.7813,1178.9375 625.9219,1178.8594 Q626.0781,1178.7813 626.2813,1178.7813 Q626.6094,1178.7813 626.8594,1179.0469 Q627.125,1179.2969 627.125,1179.6406 Q627.125,1179.9844 626.7813,1180.3906 Q626.2813,1180.9688 625.4844,1181.2969 Q624.4063,1181.75 623.1094,1181.75 Q621.5938,1181.75 620.3906,1181.125 Q619.4063,1180.625 618.7188,1179.5625 Q618.0313,1178.4844 618.0313,1177.2031 L618.0313,1176.0469 Q618.0313,1174.7188 618.6406,1173.5781 Q619.2656,1172.4219 620.3594,1171.8125 Q621.4531,1171.1875 622.6875,1171.1875 Q623.4219,1171.1875 624.0625,1171.3594 Q624.7188,1171.5156 625.2656,1171.875 Z " fill="#000000"/><text fill="#000000" font-family="sans-serif" font-size="14" lengthAdjust="spacing" textLength="25" x="636.5" y="1181.7969">Low</text><line style="stroke:#181818;stroke-width:0.5;" x1="608.5" x2="663.5" y1="1192" y2="1192"/><line style="stroke:#181818;stroke-width:0.5;" x1="608.5" x2="663.5" y1="1200" y2="1200"/></g><!--link Employee to GreenSpacesManager--><g id="link_Employee_GreenSpacesManager"><path codeLine="54" d="M363,204.2 C363,233.62 363,263.28 363,282.93 " fill="none" id="Employee-GreenSpacesManager" style="stroke:#181818;stroke-width:1.0;"/><polygon fill="#000000" points="368,248.6455,370.9389,239.6004,365.0611,239.6004,368,248.6455" style="stroke:#000000;stroke-width:1.0;"/><text fill="#000000" font-family="sans-serif" font-size="13" lengthAdjust="spacing" textLength="10" x="377" y="249.0283">is</text><text fill="#000000" font-family="sans-serif" font-size="13" lengthAdjust="spacing" textLength="7" x="355.743" y="226.1127">1</text><text fill="#000000" font-family="sans-serif" font-size="13" lengthAdjust="spacing" textLength="20" x="340.4375" y="271.6495">1..*</text></g><!--link Agenda to Task--><g id="link_Agenda_Task"><path codeLine="55" d="M318.49,563.34 C321.33,605.27 325.47,666.15 329.11,719.75 " fill="none" id="Agenda-Task" style="stroke:#181818;stroke-width:1.0;"/><polygon fill="#000000" points="329.3387,622.134,331.6582,612.9106,325.7938,613.3088,329.3387,622.134" style="stroke:#000000;stroke-width:1.0;"/><text fill="#000000" font-family="sans-serif" font-size="13" lengthAdjust="spacing" textLength="21" x="338" y="622.5283">has</text><text fill="#000000" font-family="sans-serif" font-size="13" lengthAdjust="spacing" textLength="7" x="311.4888" y="584.8093">1</text><text fill="#000000" font-family="sans-serif" font-size="13" lengthAdjust="spacing" textLength="20" x="307.9639" y="708.725">0..*</text></g><!--link Team to Task--><g id="link_Team_Task"><path codeLine="56" d="M404.87,641.33 C398.11,660.72 387.94,689.87 377.53,719.75 " fill="none" id="Team-Task" style="stroke:#181818;stroke-width:1.0;"/><polygon fill="#000000" points="396.354,685.3668,402.1068,677.7934,396.5565,675.8584,396.354,685.3668" style="stroke:#000000;stroke-width:1.0;"/><text fill="#000000" font-family="sans-serif" font-size="13" lengthAdjust="spacing" textLength="53" x="407" y="686.0283">executes</text><text fill="#000000" font-family="sans-serif" font-size="13" lengthAdjust="spacing" textLength="7" x="395.1806" y="662.9839">1</text><text fill="#000000" font-family="sans-serif" font-size="13" lengthAdjust="spacing" textLength="7" x="372.9022" y="708.725">1</text></g><!--link GreenSpacesManager to Agenda--><g id="link_GreenSpacesManager_Agenda"><path codeLine="57" d="M336.68,331.16 C328.83,339.67 321.21,349.96 317,361 C305.21,391.94 304.71,429.19 307.16,458.71 " fill="none" id="GreenSpacesManager-Agenda" style="stroke:#181818;stroke-width:1.0;"/><polygon fill="#000000" points="320.8726,375.5167,325.7753,367.3673,320.0488,366.0419,320.8726,375.5167" style="stroke:#000000;stroke-width:1.0;"/><text fill="#000000" font-family="sans-serif" font-size="13" lengthAdjust="spacing" textLength="53" x="331" y="376.0283">manages</text><text fill="#000000" font-family="sans-serif" font-size="13" lengthAdjust="spacing" textLength="7" x="322.4114" y="353.1847">1</text><text fill="#000000" font-family="sans-serif" font-size="13" lengthAdjust="spacing" textLength="7" x="298.6362" y="447.5984">1</text></g><!--link GreenSpacesManager to Team--><g id="link_GreenSpacesManager_Team"><path codeLine="58" d="M376.55,331.02 C381.27,340.07 386.11,350.74 389,361 C412.42,444.02 414.13,547.66 413.58,592.98 " fill="none" id="GreenSpacesManager-Team" style="stroke:#181818;stroke-width:1.0;"/><polygon fill="#000000" points="407.6998,424.5963,409.3438,415.2289,403.5238,416.0516,407.6998,424.5963" style="stroke:#000000;stroke-width:1.0;"/><text fill="#000000" font-family="sans-serif" font-size="13" lengthAdjust="spacing" textLength="45" x="416" y="425.0283">assigns</text><text fill="#000000" font-family="sans-serif" font-size="13" lengthAdjust="spacing" textLength="7" x="371.9997" y="353.0105">1</text><text fill="#000000" font-family="sans-serif" font-size="13" lengthAdjust="spacing" textLength="20" x="391.1661" y="581.7124">1..*</text></g><!--link Task to Status--><g id="link_Task_Status"><path codeLine="59" d="M307.2,954.02 C299.46,984.12 291.92,1013.5 286.93,1032.93 " fill="none" id="Task-Status" style="stroke:#181818;stroke-width:1.0;"/><polygon fill="#000000" points="303.756,998.4883,308.8529,990.4588,303.1599,988.9964,303.756,998.4883" style="stroke:#000000;stroke-width:1.0;"/><text fill="#000000" font-family="sans-serif" font-size="13" lengthAdjust="spacing" textLength="21" x="314" y="999.0283">has</text><text fill="#000000" font-family="sans-serif" font-size="13" lengthAdjust="spacing" textLength="7" x="298.0667" y="976.092">1</text><text fill="#000000" font-family="sans-serif" font-size="13" lengthAdjust="spacing" textLength="7" x="280.5527" y="1021.6495">1</text></g><!--link Task to Urgency--><g id="link_Task_Urgency"><path codeLine="60" d="M402.46,954.02 C419.44,984.12 436.02,1013.5 446.99,1032.93 " fill="none" id="Task-Urgency" style="stroke:#181818;stroke-width:1.0;"/><polygon fill="#000000" points="434.4573,998,432.5715,988.6783,427.4525,991.567,434.4573,998" style="stroke:#000000;stroke-width:1.0;"/><text fill="#000000" font-family="sans-serif" font-size="13" lengthAdjust="spacing" textLength="21" x="441" y="999.0283">has</text><text fill="#000000" font-family="sans-serif" font-size="13" lengthAdjust="spacing" textLength="7" x="399.4293" y="976.092">1</text><text fill="#000000" font-family="sans-serif" font-size="13" lengthAdjust="spacing" textLength="7" x="435.7593" y="1021.6495">1</text></g><!--link Status to Planned--><g id="link_Status_Planned"><path codeLine="61" d="M244.75,1077.53 C203.2,1099.92 135.21,1136.55 91.28,1160.22 " fill="none" id="Status-Planned" style="stroke:#181818;stroke-width:1.0;"/><polygon fill="#000000" points="179.5983,1123.0172,188.9551,1121.3141,186.167,1116.1395,179.5983,1123.0172" style="stroke:#000000;stroke-width:1.0;"/><text fill="#000000" font-family="sans-serif" font-size="13" lengthAdjust="spacing" textLength="10" x="193" y="1126.0283">is</text><text fill="#000000" font-family="sans-serif" font-size="13" lengthAdjust="spacing" textLength="7" x="229.9242" y="1076.9554">1</text><text fill="#000000" font-family="sans-serif" font-size="13" lengthAdjust="spacing" textLength="22" x="95.9384" y="1150.8586">0..1</text></g><!--link Status to Postponned--><g id="link_Status_Postponned"><path codeLine="62" d="M262.24,1081.22 C244.1,1103.67 216.77,1137.5 198.66,1159.91 " fill="none" id="Status-Postponned" style="stroke:#181818;stroke-width:1.0;"/><polygon fill="#000000" points="238.8576,1124.5347,246.8282,1119.3461,242.2562,1115.6521,238.8576,1124.5347" style="stroke:#000000;stroke-width:1.0;"/><text fill="#000000" font-family="sans-serif" font-size="13" lengthAdjust="spacing" textLength="10" x="251" y="1126.0283">is</text><text fill="#000000" font-family="sans-serif" font-size="13" lengthAdjust="spacing" textLength="7" x="250.0924" y="1102.8485">1</text><text fill="#000000" font-family="sans-serif" font-size="13" lengthAdjust="spacing" textLength="22" x="178.6229" y="1148.6244">0..1</text></g><!--link Status to Canceled--><g id="link_Status_Canceled"><path codeLine="63" d="M287.32,1081.22 C293.42,1103.67 302.62,1137.5 308.72,1159.91 " fill="none" id="Status-Canceled" style="stroke:#181818;stroke-width:1.0;"/><polygon fill="#000000" points="307.3121,1125.4703,307.7744,1115.971,302.1026,1117.5134,307.3121,1125.4703" style="stroke:#000000;stroke-width:1.0;"/><text fill="#000000" font-family="sans-serif" font-size="13" lengthAdjust="spacing" textLength="10" x="315" y="1126.0283">is</text><text fill="#000000" font-family="sans-serif" font-size="13" lengthAdjust="spacing" textLength="7" x="280.9721" y="1102.8485">1</text><text fill="#000000" font-family="sans-serif" font-size="13" lengthAdjust="spacing" textLength="22" x="282.292" y="1148.6244">0..1</text></g><!--link Urgency to High--><g id="link_Urgency_High"><path codeLine="64" d="M453.68,1081.22 C447.58,1103.67 438.38,1137.5 432.28,1159.91 " fill="none" id="Urgency-High" style="stroke:#181818;stroke-width:1.0;"/><polygon fill="#000000" points="448.6879,1125.4703,453.8974,1117.5134,448.2256,1115.971,448.6879,1125.4703" style="stroke:#000000;stroke-width:1.0;"/><text fill="#000000" font-family="sans-serif" font-size="13" lengthAdjust="spacing" textLength="10" x="459" y="1126.0283">is</text><text fill="#000000" font-family="sans-serif" font-size="13" lengthAdjust="spacing" textLength="7" x="444.4091" y="1102.8485">1</text><text fill="#000000" font-family="sans-serif" font-size="13" lengthAdjust="spacing" textLength="22" x="409.0705" y="1148.6244">0..1</text></g><!--link Urgency to Medium--><g id="link_Urgency_Medium"><path codeLine="65" d="M473.37,1081.22 C486.31,1103.67 505.79,1137.5 518.7,1159.91 " fill="none" id="Urgency-Medium" style="stroke:#181818;stroke-width:1.0;"/><polygon fill="#000000" points="507.4958,1124.9781,505.5275,1115.6734,500.4342,1118.6074,507.4958,1124.9781" style="stroke:#000000;stroke-width:1.0;"/><text fill="#000000" font-family="sans-serif" font-size="13" lengthAdjust="spacing" textLength="10" x="514" y="1126.0283">is</text><text fill="#000000" font-family="sans-serif" font-size="13" lengthAdjust="spacing" textLength="7" x="468.6524" y="1102.8485">1</text><text fill="#000000" font-family="sans-serif" font-size="13" lengthAdjust="spacing" textLength="22" x="490.4731" y="1148.6244">0..1</text></g><!--link Urgency to Low--><g id="link_Urgency_Low"><path codeLine="66" d="M492.69,1081.22 C525.6,1104.59 575.85,1140.28 607.27,1162.6 " fill="none" id="Urgency-Low" style="stroke:#181818;stroke-width:1.0;"/><polygon fill="#000000" points="567.0764,1123.5408,561.4039,1115.9071,558.0003,1120.6993,567.0764,1123.5408" style="stroke:#000000;stroke-width:1.0;"/><text fill="#000000" font-family="sans-serif" font-size="13" lengthAdjust="spacing" textLength="10" x="572" y="1126.0283">is</text><text fill="#000000" font-family="sans-serif" font-size="13" lengthAdjust="spacing" textLength="7" x="492.4402" y="1102.8485">1</text><text fill="#000000" font-family="sans-serif" font-size="13" lengthAdjust="spacing" textLength="22" x="577.4482" y="1153.7704">0..1</text></g><!--SRC=[XP9DRzim38Rl-XL4Jjk0TDqrXm75Kcm1Mg10kjqPYRE5w0iIZIOhzjydoxRi5a7cYodo8VcIKZfg5p2Y1UkTbstqbe1ZHoBLI41vn8RsV3O4aIIZQymII2qg_w9T0x_H91ABa3IOqXrpr8UEQIUzs-i_1BT2b0ZSss3ycGXU1UJFeQLY77Ja5XJoSCnvZ9BX0rdKvdDelQEF9OBAwfIqTpFCU0fufWYkimUA8wOYfLJitHQKby3dG81EBR7eys1_XPZatJNa58xYC0Il7LjoF1H2Gt4qsQ-LVz29- -mXzndJSSpaREwsWwdP338L9HbruAnzEC_wqt7F6Fc9elQg-kvF8I-VrBQBMBFwAOhHH2AtptSr7BC2tJXIpuJsZUCNjLeQIhFGt8kxbALMpy-OvvRdXUTxhPuUqUNN45_5Sb5zcuBN2rrzMS5wdNytDvzM5_9X0ph1Lp6kUC9l2rvsju4MUwAlFPUhGJgHp6-g9ovKN_1ZXmtO4hkQK0MNffjnQqL5ttLHTTnQ5VakFAwmnaTyCMQsdWowV2NJAYupFd7m_yM-ePDaPcZg_vRwePlsEl58IdVsElFWNoP0_0C0]--></g></svg>