<?xml version="1.0" encoding="us-ascii" standalone="no"?><svg xmlns="http://www.w3.org/2000/svg" xmlns:xlink="http://www.w3.org/1999/xlink" contentStyleType="text/css" height="1215px" preserveAspectRatio="none" style="width:536px;height:1215px;background:#FFFFFF;" version="1.1" viewBox="0 0 536 1215" width="536px" zoomAndPan="magnify"><defs/><g><!--class Employee--><g id="elem_Employee"><rect codeLine="7" fill="#F1F1F1" height="196.9688" id="Employee" rx="2.5" ry="2.5" style="stroke:#181818;stroke-width:0.5;" width="163" x="177.5" y="7"/><ellipse cx="223.75" cy="23" fill="#C2C2C2" rx="11" ry="11" style="stroke:#181818;stroke-width:1.0;"/><path d="M226.5156,18.875 Q226.6719,18.6563 226.8594,18.5469 Q227.0469,18.4375 227.2656,18.4375 Q227.6406,18.4375 227.875,18.7031 Q228.1094,18.9531 228.1094,19.5625 L228.1094,21.0156 Q228.1094,21.625 227.875,21.8906 Q227.6406,22.1563 227.2656,22.1563 Q226.9219,22.1563 226.7188,21.9531 Q226.5156,21.7656 226.4063,21.25 Q226.3594,20.8906 226.1719,20.7031 Q225.8438,20.3281 225.2344,20.1094 Q224.625,19.8906 224,19.8906 Q223.2344,19.8906 222.5938,20.2188 Q221.9688,20.5469 221.4688,21.2969 Q220.9844,22.0469 220.9844,23.0781 L220.9844,24.1719 Q220.9844,25.4063 221.875,26.2344 Q222.7656,27.0469 224.3594,27.0469 Q225.2969,27.0469 225.9531,26.7969 Q226.3438,26.6406 226.7656,26.2031 Q227.0313,25.9375 227.1719,25.8594 Q227.3281,25.7813 227.5313,25.7813 Q227.8594,25.7813 228.1094,26.0469 Q228.375,26.2969 228.375,26.6406 Q228.375,26.9844 228.0313,27.3906 Q227.5313,27.9688 226.7344,28.2969 Q225.6563,28.75 224.3594,28.75 Q222.8438,28.75 221.6406,28.125 Q220.6563,27.625 219.9688,26.5625 Q219.2813,25.4844 219.2813,24.2031 L219.2813,23.0469 Q219.2813,21.7188 219.8906,20.5781 Q220.5156,19.4219 221.6094,18.8125 Q222.7031,18.1875 223.9375,18.1875 Q224.6719,18.1875 225.3125,18.3594 Q225.9688,18.5156 226.5156,18.875 Z " fill="#000000"/><text fill="#000000" font-family="sans-serif" font-size="14" lengthAdjust="spacing" textLength="62" x="244.25" y="28.7969">Employee</text><line style="stroke:#181818;stroke-width:0.5;" x1="178.5" x2="339.5" y1="39" y2="39"/><text fill="#000000" font-family="sans-serif" font-size="14" lengthAdjust="spacing" textLength="35" x="183.5" y="58.1074">name</text><text fill="#000000" font-family="sans-serif" font-size="14" lengthAdjust="spacing" textLength="60" x="183.5" y="76.7285">birth date</text><text fill="#000000" font-family="sans-serif" font-size="14" lengthAdjust="spacing" textLength="95" x="183.5" y="95.3496">admission date</text><text fill="#000000" font-family="sans-serif" font-size="14" lengthAdjust="spacing" textLength="106" x="183.5" y="113.9707">taxpayer number</text><text fill="#000000" font-family="sans-serif" font-size="14" lengthAdjust="spacing" textLength="51" x="183.5" y="132.5918">address</text><text fill="#000000" font-family="sans-serif" font-size="14" lengthAdjust="spacing" textLength="151" x="183.5" y="151.2129">ID doc type and number</text><text fill="#000000" font-family="sans-serif" font-size="14" lengthAdjust="spacing" textLength="24" x="183.5" y="169.834">role</text><line style="stroke:#181818;stroke-width:0.5;" x1="178.5" x2="339.5" y1="177.3477" y2="177.3477"/><text fill="#000000" font-family="sans-serif" font-size="14" lengthAdjust="spacing" textLength="137" x="183.5" y="196.4551">contact (email/phone)</text></g><!--class Agenda--><g id="elem_Agenda"><rect codeLine="20" fill="#F1F1F1" height="103.8633" id="Agenda" rx="2.5" ry="2.5" style="stroke:#181818;stroke-width:0.5;" width="97" x="162.5" y="459"/><ellipse cx="184.7" cy="475" fill="#C2C2C2" rx="11" ry="11" style="stroke:#181818;stroke-width:1.0;"/><path d="M187.4656,470.875 Q187.6219,470.6563 187.8094,470.5469 Q187.9969,470.4375 188.2156,470.4375 Q188.5906,470.4375 188.825,470.7031 Q189.0594,470.9531 189.0594,471.5625 L189.0594,473.0156 Q189.0594,473.625 188.825,473.8906 Q188.5906,474.1563 188.2156,474.1563 Q187.8719,474.1563 187.6688,473.9531 Q187.4656,473.7656 187.3563,473.25 Q187.3094,472.8906 187.1219,472.7031 Q186.7938,472.3281 186.1844,472.1094 Q185.575,471.8906 184.95,471.8906 Q184.1844,471.8906 183.5438,472.2188 Q182.9188,472.5469 182.4188,473.2969 Q181.9344,474.0469 181.9344,475.0781 L181.9344,476.1719 Q181.9344,477.4063 182.825,478.2344 Q183.7156,479.0469 185.3094,479.0469 Q186.2469,479.0469 186.9031,478.7969 Q187.2938,478.6406 187.7156,478.2031 Q187.9813,477.9375 188.1219,477.8594 Q188.2781,477.7813 188.4813,477.7813 Q188.8094,477.7813 189.0594,478.0469 Q189.325,478.2969 189.325,478.6406 Q189.325,478.9844 188.9813,479.3906 Q188.4813,479.9688 187.6844,480.2969 Q186.6063,480.75 185.3094,480.75 Q183.7938,480.75 182.5906,480.125 Q181.6063,479.625 180.9188,478.5625 Q180.2313,477.4844 180.2313,476.2031 L180.2313,475.0469 Q180.2313,473.7188 180.8406,472.5781 Q181.4656,471.4219 182.5594,470.8125 Q183.6531,470.1875 184.8875,470.1875 Q185.6219,470.1875 186.2625,470.3594 Q186.9188,470.5156 187.4656,470.875 Z " fill="#000000"/><text fill="#000000" font-family="sans-serif" font-size="14" lengthAdjust="spacing" textLength="49" x="200.3" y="480.7969">Agenda</text><line style="stroke:#181818;stroke-width:0.5;" x1="163.5" x2="258.5" y1="491" y2="491"/><text fill="#000000" font-family="sans-serif" font-size="14" lengthAdjust="spacing" textLength="85" x="168.5" y="510.1074">appointments</text><text fill="#000000" font-family="sans-serif" font-size="14" lengthAdjust="spacing" textLength="35" x="168.5" y="528.7285">alerts</text><text fill="#000000" font-family="sans-serif" font-size="14" lengthAdjust="spacing" textLength="55" x="168.5" y="547.3496">to-doList</text><line style="stroke:#181818;stroke-width:0.5;" x1="163.5" x2="258.5" y1="554.8633" y2="554.8633"/></g><!--class Task--><g id="elem_Task"><rect codeLine="26" fill="#F1F1F1" height="234.2109" id="Task" rx="2.5" ry="2.5" style="stroke:#181818;stroke-width:0.5;" width="150" x="158" y="720"/><ellipse cx="213.25" cy="736" fill="#C2C2C2" rx="11" ry="11" style="stroke:#181818;stroke-width:1.0;"/><path d="M216.0156,731.875 Q216.1719,731.6563 216.3594,731.5469 Q216.5469,731.4375 216.7656,731.4375 Q217.1406,731.4375 217.375,731.7031 Q217.6094,731.9531 217.6094,732.5625 L217.6094,734.0156 Q217.6094,734.625 217.375,734.8906 Q217.1406,735.1563 216.7656,735.1563 Q216.4219,735.1563 216.2188,734.9531 Q216.0156,734.7656 215.9063,734.25 Q215.8594,733.8906 215.6719,733.7031 Q215.3438,733.3281 214.7344,733.1094 Q214.125,732.8906 213.5,732.8906 Q212.7344,732.8906 212.0938,733.2188 Q211.4688,733.5469 210.9688,734.2969 Q210.4844,735.0469 210.4844,736.0781 L210.4844,737.1719 Q210.4844,738.4063 211.375,739.2344 Q212.2656,740.0469 213.8594,740.0469 Q214.7969,740.0469 215.4531,739.7969 Q215.8438,739.6406 216.2656,739.2031 Q216.5313,738.9375 216.6719,738.8594 Q216.8281,738.7813 217.0313,738.7813 Q217.3594,738.7813 217.6094,739.0469 Q217.875,739.2969 217.875,739.6406 Q217.875,739.9844 217.5313,740.3906 Q217.0313,740.9688 216.2344,741.2969 Q215.1563,741.75 213.8594,741.75 Q212.3438,741.75 211.1406,741.125 Q210.1563,740.625 209.4688,739.5625 Q208.7813,738.4844 208.7813,737.2031 L208.7813,736.0469 Q208.7813,734.7188 209.3906,733.5781 Q210.0156,732.4219 211.1094,731.8125 Q212.2031,731.1875 213.4375,731.1875 Q214.1719,731.1875 214.8125,731.3594 Q215.4688,731.5156 216.0156,731.875 Z " fill="#000000"/><text fill="#000000" font-family="sans-serif" font-size="14" lengthAdjust="spacing" textLength="31" x="233.75" y="741.7969">Task</text><line style="stroke:#181818;stroke-width:0.5;" x1="159" x2="307" y1="752" y2="752"/><text fill="#000000" font-family="sans-serif" font-size="14" lengthAdjust="spacing" textLength="39" x="164" y="771.1074">taskID</text><text fill="#000000" font-family="sans-serif" font-size="14" lengthAdjust="spacing" textLength="22" x="164" y="789.7285">title</text><text fill="#000000" font-family="sans-serif" font-size="14" lengthAdjust="spacing" textLength="69" x="164" y="808.3496">description</text><text fill="#000000" font-family="sans-serif" font-size="14" lengthAdjust="spacing" textLength="28" x="164" y="826.9707">date</text><text fill="#000000" font-family="sans-serif" font-size="14" lengthAdjust="spacing" textLength="97" x="164" y="845.5918">taskStartPeriod</text><text fill="#000000" font-family="sans-serif" font-size="14" lengthAdjust="spacing" textLength="138" x="164" y="864.2129">taskExpectedDuration</text><text fill="#000000" font-family="sans-serif" font-size="14" lengthAdjust="spacing" textLength="27" x="164" y="882.834">type</text><text fill="#000000" font-family="sans-serif" font-size="14" lengthAdjust="spacing" textLength="77" x="164" y="901.4551">greenSpace</text><text fill="#000000" font-family="sans-serif" font-size="14" lengthAdjust="spacing" textLength="93" x="164" y="920.0762">assignedTeam</text><text fill="#000000" font-family="sans-serif" font-size="14" lengthAdjust="spacing" textLength="110" x="164" y="938.6973">assignedVehicles</text><line style="stroke:#181818;stroke-width:0.5;" x1="159" x2="307" y1="946.2109" y2="946.2109"/></g><!--class Status--><g id="elem_Status"><rect codeLine="39" fill="#F1F1F1" height="48" id="Status" rx="2.5" ry="2.5" style="stroke:#181818;stroke-width:0.5;" width="72" x="140" y="1033"/><ellipse cx="155" cy="1049" fill="#C2C2C2" rx="11" ry="11" style="stroke:#181818;stroke-width:1.0;"/><path d="M157.7656,1044.875 Q157.9219,1044.6563 158.1094,1044.5469 Q158.2969,1044.4375 158.5156,1044.4375 Q158.8906,1044.4375 159.125,1044.7031 Q159.3594,1044.9531 159.3594,1045.5625 L159.3594,1047.0156 Q159.3594,1047.625 159.125,1047.8906 Q158.8906,1048.1563 158.5156,1048.1563 Q158.1719,1048.1563 157.9688,1047.9531 Q157.7656,1047.7656 157.6563,1047.25 Q157.6094,1046.8906 157.4219,1046.7031 Q157.0938,1046.3281 156.4844,1046.1094 Q155.875,1045.8906 155.25,1045.8906 Q154.4844,1045.8906 153.8438,1046.2188 Q153.2188,1046.5469 152.7188,1047.2969 Q152.2344,1048.0469 152.2344,1049.0781 L152.2344,1050.1719 Q152.2344,1051.4063 153.125,1052.2344 Q154.0156,1053.0469 155.6094,1053.0469 Q156.5469,1053.0469 157.2031,1052.7969 Q157.5938,1052.6406 158.0156,1052.2031 Q158.2813,1051.9375 158.4219,1051.8594 Q158.5781,1051.7813 158.7813,1051.7813 Q159.1094,1051.7813 159.3594,1052.0469 Q159.625,1052.2969 159.625,1052.6406 Q159.625,1052.9844 159.2813,1053.3906 Q158.7813,1053.9688 157.9844,1054.2969 Q156.9063,1054.75 155.6094,1054.75 Q154.0938,1054.75 152.8906,1054.125 Q151.9063,1053.625 151.2188,1052.5625 Q150.5313,1051.4844 150.5313,1050.2031 L150.5313,1049.0469 Q150.5313,1047.7188 151.1406,1046.5781 Q151.7656,1045.4219 152.8594,1044.8125 Q153.9531,1044.1875 155.1875,1044.1875 Q155.9219,1044.1875 156.5625,1044.3594 Q157.2188,1044.5156 157.7656,1044.875 Z " fill="#000000"/><text fill="#000000" font-family="sans-serif" font-size="14" lengthAdjust="spacing" textLength="40" x="169" y="1054.7969">Status</text><line style="stroke:#181818;stroke-width:0.5;" x1="141" x2="211" y1="1065" y2="1065"/><line style="stroke:#181818;stroke-width:0.5;" x1="141" x2="211" y1="1073" y2="1073"/></g><!--class Urgency--><g id="elem_Urgency"><rect codeLine="42" fill="#F1F1F1" height="48" id="Urgency" rx="2.5" ry="2.5" style="stroke:#181818;stroke-width:0.5;" width="84" x="302" y="1033"/><ellipse cx="317" cy="1049" fill="#C2C2C2" rx="11" ry="11" style="stroke:#181818;stroke-width:1.0;"/><path d="M319.7656,1044.875 Q319.9219,1044.6563 320.1094,1044.5469 Q320.2969,1044.4375 320.5156,1044.4375 Q320.8906,1044.4375 321.125,1044.7031 Q321.3594,1044.9531 321.3594,1045.5625 L321.3594,1047.0156 Q321.3594,1047.625 321.125,1047.8906 Q320.8906,1048.1563 320.5156,1048.1563 Q320.1719,1048.1563 319.9688,1047.9531 Q319.7656,1047.7656 319.6563,1047.25 Q319.6094,1046.8906 319.4219,1046.7031 Q319.0938,1046.3281 318.4844,1046.1094 Q317.875,1045.8906 317.25,1045.8906 Q316.4844,1045.8906 315.8438,1046.2188 Q315.2188,1046.5469 314.7188,1047.2969 Q314.2344,1048.0469 314.2344,1049.0781 L314.2344,1050.1719 Q314.2344,1051.4063 315.125,1052.2344 Q316.0156,1053.0469 317.6094,1053.0469 Q318.5469,1053.0469 319.2031,1052.7969 Q319.5938,1052.6406 320.0156,1052.2031 Q320.2813,1051.9375 320.4219,1051.8594 Q320.5781,1051.7813 320.7813,1051.7813 Q321.1094,1051.7813 321.3594,1052.0469 Q321.625,1052.2969 321.625,1052.6406 Q321.625,1052.9844 321.2813,1053.3906 Q320.7813,1053.9688 319.9844,1054.2969 Q318.9063,1054.75 317.6094,1054.75 Q316.0938,1054.75 314.8906,1054.125 Q313.9063,1053.625 313.2188,1052.5625 Q312.5313,1051.4844 312.5313,1050.2031 L312.5313,1049.0469 Q312.5313,1047.7188 313.1406,1046.5781 Q313.7656,1045.4219 314.8594,1044.8125 Q315.9531,1044.1875 317.1875,1044.1875 Q317.9219,1044.1875 318.5625,1044.3594 Q319.2188,1044.5156 319.7656,1044.875 Z " fill="#000000"/><text fill="#000000" font-family="sans-serif" font-size="14" lengthAdjust="spacing" textLength="52" x="331" y="1054.7969">Urgency</text><line style="stroke:#181818;stroke-width:0.5;" x1="303" x2="385" y1="1065" y2="1065"/><line style="stroke:#181818;stroke-width:0.5;" x1="303" x2="385" y1="1073" y2="1073"/></g><!--class GreenSpacesManager--><g id="elem_GreenSpacesManager"><rect codeLine="45" fill="#F1F1F1" height="48" id="GreenSpacesManager" rx="2.5" ry="2.5" style="stroke:#181818;stroke-width:0.5;" width="175" x="171.5" y="283"/><ellipse cx="186.5" cy="299" fill="#C2C2C2" rx="11" ry="11" style="stroke:#181818;stroke-width:1.0;"/><path d="M189.2656,294.875 Q189.4219,294.6563 189.6094,294.5469 Q189.7969,294.4375 190.0156,294.4375 Q190.3906,294.4375 190.625,294.7031 Q190.8594,294.9531 190.8594,295.5625 L190.8594,297.0156 Q190.8594,297.625 190.625,297.8906 Q190.3906,298.1563 190.0156,298.1563 Q189.6719,298.1563 189.4688,297.9531 Q189.2656,297.7656 189.1563,297.25 Q189.1094,296.8906 188.9219,296.7031 Q188.5938,296.3281 187.9844,296.1094 Q187.375,295.8906 186.75,295.8906 Q185.9844,295.8906 185.3438,296.2188 Q184.7188,296.5469 184.2188,297.2969 Q183.7344,298.0469 183.7344,299.0781 L183.7344,300.1719 Q183.7344,301.4063 184.625,302.2344 Q185.5156,303.0469 187.1094,303.0469 Q188.0469,303.0469 188.7031,302.7969 Q189.0938,302.6406 189.5156,302.2031 Q189.7813,301.9375 189.9219,301.8594 Q190.0781,301.7813 190.2813,301.7813 Q190.6094,301.7813 190.8594,302.0469 Q191.125,302.2969 191.125,302.6406 Q191.125,302.9844 190.7813,303.3906 Q190.2813,303.9688 189.4844,304.2969 Q188.4063,304.75 187.1094,304.75 Q185.5938,304.75 184.3906,304.125 Q183.4063,303.625 182.7188,302.5625 Q182.0313,301.4844 182.0313,300.2031 L182.0313,299.0469 Q182.0313,297.7188 182.6406,296.5781 Q183.2656,295.4219 184.3594,294.8125 Q185.4531,294.1875 186.6875,294.1875 Q187.4219,294.1875 188.0625,294.3594 Q188.7188,294.5156 189.2656,294.875 Z " fill="#000000"/><text fill="#000000" font-family="sans-serif" font-size="14" lengthAdjust="spacing" textLength="143" x="200.5" y="304.7969">GreenSpacesManager</text><line style="stroke:#181818;stroke-width:0.5;" x1="172.5" x2="345.5" y1="315" y2="315"/><line style="stroke:#181818;stroke-width:0.5;" x1="172.5" x2="345.5" y1="323" y2="323"/></g><!--class Team--><g id="elem_Team"><rect codeLine="51" fill="#F1F1F1" height="48" id="Team" rx="2.5" ry="2.5" style="stroke:#181818;stroke-width:0.5;" width="68" x="275" y="593"/><ellipse cx="290" cy="609" fill="#C2C2C2" rx="11" ry="11" style="stroke:#181818;stroke-width:1.0;"/><path d="M292.7656,604.875 Q292.9219,604.6563 293.1094,604.5469 Q293.2969,604.4375 293.5156,604.4375 Q293.8906,604.4375 294.125,604.7031 Q294.3594,604.9531 294.3594,605.5625 L294.3594,607.0156 Q294.3594,607.625 294.125,607.8906 Q293.8906,608.1563 293.5156,608.1563 Q293.1719,608.1563 292.9688,607.9531 Q292.7656,607.7656 292.6563,607.25 Q292.6094,606.8906 292.4219,606.7031 Q292.0938,606.3281 291.4844,606.1094 Q290.875,605.8906 290.25,605.8906 Q289.4844,605.8906 288.8438,606.2188 Q288.2188,606.5469 287.7188,607.2969 Q287.2344,608.0469 287.2344,609.0781 L287.2344,610.1719 Q287.2344,611.4063 288.125,612.2344 Q289.0156,613.0469 290.6094,613.0469 Q291.5469,613.0469 292.2031,612.7969 Q292.5938,612.6406 293.0156,612.2031 Q293.2813,611.9375 293.4219,611.8594 Q293.5781,611.7813 293.7813,611.7813 Q294.1094,611.7813 294.3594,612.0469 Q294.625,612.2969 294.625,612.6406 Q294.625,612.9844 294.2813,613.3906 Q293.7813,613.9688 292.9844,614.2969 Q291.9063,614.75 290.6094,614.75 Q289.0938,614.75 287.8906,614.125 Q286.9063,613.625 286.2188,612.5625 Q285.5313,611.4844 285.5313,610.2031 L285.5313,609.0469 Q285.5313,607.7188 286.1406,606.5781 Q286.7656,605.4219 287.8594,604.8125 Q288.9531,604.1875 290.1875,604.1875 Q290.9219,604.1875 291.5625,604.3594 Q292.2188,604.5156 292.7656,604.875 Z " fill="#000000"/><text fill="#000000" font-family="sans-serif" font-size="14" lengthAdjust="spacing" textLength="36" x="304" y="614.7969">Team</text><line style="stroke:#181818;stroke-width:0.5;" x1="276" x2="342" y1="625" y2="625"/><line style="stroke:#181818;stroke-width:0.5;" x1="276" x2="342" y1="633" y2="633"/></g><!--class Planned--><g id="elem_Planned"><rect fill="#F1F1F1" height="48" id="Planned" rx="2.5" ry="2.5" style="stroke:#181818;stroke-width:0.5;" width="84" x="7" y="1160"/><ellipse cx="22" cy="1176" fill="#C2C2C2" rx="11" ry="11" style="stroke:#181818;stroke-width:1.0;"/><path d="M24.7656,1171.875 Q24.9219,1171.6563 25.1094,1171.5469 Q25.2969,1171.4375 25.5156,1171.4375 Q25.8906,1171.4375 26.125,1171.7031 Q26.3594,1171.9531 26.3594,1172.5625 L26.3594,1174.0156 Q26.3594,1174.625 26.125,1174.8906 Q25.8906,1175.1563 25.5156,1175.1563 Q25.1719,1175.1563 24.9688,1174.9531 Q24.7656,1174.7656 24.6563,1174.25 Q24.6094,1173.8906 24.4219,1173.7031 Q24.0938,1173.3281 23.4844,1173.1094 Q22.875,1172.8906 22.25,1172.8906 Q21.4844,1172.8906 20.8438,1173.2188 Q20.2188,1173.5469 19.7188,1174.2969 Q19.2344,1175.0469 19.2344,1176.0781 L19.2344,1177.1719 Q19.2344,1178.4063 20.125,1179.2344 Q21.0156,1180.0469 22.6094,1180.0469 Q23.5469,1180.0469 24.2031,1179.7969 Q24.5938,1179.6406 25.0156,1179.2031 Q25.2813,1178.9375 25.4219,1178.8594 Q25.5781,1178.7813 25.7813,1178.7813 Q26.1094,1178.7813 26.3594,1179.0469 Q26.625,1179.2969 26.625,1179.6406 Q26.625,1179.9844 26.2813,1180.3906 Q25.7813,1180.9688 24.9844,1181.2969 Q23.9063,1181.75 22.6094,1181.75 Q21.0938,1181.75 19.8906,1181.125 Q18.9063,1180.625 18.2188,1179.5625 Q17.5313,1178.4844 17.5313,1177.2031 L17.5313,1176.0469 Q17.5313,1174.7188 18.1406,1173.5781 Q18.7656,1172.4219 19.8594,1171.8125 Q20.9531,1171.1875 22.1875,1171.1875 Q22.9219,1171.1875 23.5625,1171.3594 Q24.2188,1171.5156 24.7656,1171.875 Z " fill="#000000"/><text fill="#000000" font-family="sans-serif" font-size="14" lengthAdjust="spacing" textLength="52" x="36" y="1181.7969">Planned</text><line style="stroke:#181818;stroke-width:0.5;" x1="8" x2="90" y1="1192" y2="1192"/><line style="stroke:#181818;stroke-width:0.5;" x1="8" x2="90" y1="1200" y2="1200"/></g><!--class Postponed--><g id="elem_Postponed"><rect fill="#F1F1F1" height="48" id="Postponed" rx="2.5" ry="2.5" style="stroke:#181818;stroke-width:0.5;" width="100" x="126" y="1160"/><ellipse cx="141" cy="1176" fill="#C2C2C2" rx="11" ry="11" style="stroke:#181818;stroke-width:1.0;"/><path d="M143.7656,1171.875 Q143.9219,1171.6563 144.1094,1171.5469 Q144.2969,1171.4375 144.5156,1171.4375 Q144.8906,1171.4375 145.125,1171.7031 Q145.3594,1171.9531 145.3594,1172.5625 L145.3594,1174.0156 Q145.3594,1174.625 145.125,1174.8906 Q144.8906,1175.1563 144.5156,1175.1563 Q144.1719,1175.1563 143.9688,1174.9531 Q143.7656,1174.7656 143.6563,1174.25 Q143.6094,1173.8906 143.4219,1173.7031 Q143.0938,1173.3281 142.4844,1173.1094 Q141.875,1172.8906 141.25,1172.8906 Q140.4844,1172.8906 139.8438,1173.2188 Q139.2188,1173.5469 138.7188,1174.2969 Q138.2344,1175.0469 138.2344,1176.0781 L138.2344,1177.1719 Q138.2344,1178.4063 139.125,1179.2344 Q140.0156,1180.0469 141.6094,1180.0469 Q142.5469,1180.0469 143.2031,1179.7969 Q143.5938,1179.6406 144.0156,1179.2031 Q144.2813,1178.9375 144.4219,1178.8594 Q144.5781,1178.7813 144.7813,1178.7813 Q145.1094,1178.7813 145.3594,1179.0469 Q145.625,1179.2969 145.625,1179.6406 Q145.625,1179.9844 145.2813,1180.3906 Q144.7813,1180.9688 143.9844,1181.2969 Q142.9063,1181.75 141.6094,1181.75 Q140.0938,1181.75 138.8906,1181.125 Q137.9063,1180.625 137.2188,1179.5625 Q136.5313,1178.4844 136.5313,1177.2031 L136.5313,1176.0469 Q136.5313,1174.7188 137.1406,1173.5781 Q137.7656,1172.4219 138.8594,1171.8125 Q139.9531,1171.1875 141.1875,1171.1875 Q141.9219,1171.1875 142.5625,1171.3594 Q143.2188,1171.5156 143.7656,1171.875 Z " fill="#000000"/><text fill="#000000" font-family="sans-serif" font-size="14" lengthAdjust="spacing" textLength="68" x="155" y="1181.7969">Postponed</text><line style="stroke:#181818;stroke-width:0.5;" x1="127" x2="225" y1="1192" y2="1192"/><line style="stroke:#181818;stroke-width:0.5;" x1="127" x2="225" y1="1200" y2="1200"/></g><!--class High--><g id="elem_High"><rect fill="#F1F1F1" height="48" id="High" rx="2.5" ry="2.5" style="stroke:#181818;stroke-width:0.5;" width="60" x="261" y="1160"/><ellipse cx="276" cy="1176" fill="#C2C2C2" rx="11" ry="11" style="stroke:#181818;stroke-width:1.0;"/><path d="M278.7656,1171.875 Q278.9219,1171.6563 279.1094,1171.5469 Q279.2969,1171.4375 279.5156,1171.4375 Q279.8906,1171.4375 280.125,1171.7031 Q280.3594,1171.9531 280.3594,1172.5625 L280.3594,1174.0156 Q280.3594,1174.625 280.125,1174.8906 Q279.8906,1175.1563 279.5156,1175.1563 Q279.1719,1175.1563 278.9688,1174.9531 Q278.7656,1174.7656 278.6563,1174.25 Q278.6094,1173.8906 278.4219,1173.7031 Q278.0938,1173.3281 277.4844,1173.1094 Q276.875,1172.8906 276.25,1172.8906 Q275.4844,1172.8906 274.8438,1173.2188 Q274.2188,1173.5469 273.7188,1174.2969 Q273.2344,1175.0469 273.2344,1176.0781 L273.2344,1177.1719 Q273.2344,1178.4063 274.125,1179.2344 Q275.0156,1180.0469 276.6094,1180.0469 Q277.5469,1180.0469 278.2031,1179.7969 Q278.5938,1179.6406 279.0156,1179.2031 Q279.2813,1178.9375 279.4219,1178.8594 Q279.5781,1178.7813 279.7813,1178.7813 Q280.1094,1178.7813 280.3594,1179.0469 Q280.625,1179.2969 280.625,1179.6406 Q280.625,1179.9844 280.2813,1180.3906 Q279.7813,1180.9688 278.9844,1181.2969 Q277.9063,1181.75 276.6094,1181.75 Q275.0938,1181.75 273.8906,1181.125 Q272.9063,1180.625 272.2188,1179.5625 Q271.5313,1178.4844 271.5313,1177.2031 L271.5313,1176.0469 Q271.5313,1174.7188 272.1406,1173.5781 Q272.7656,1172.4219 273.8594,1171.8125 Q274.9531,1171.1875 276.1875,1171.1875 Q276.9219,1171.1875 277.5625,1171.3594 Q278.2188,1171.5156 278.7656,1171.875 Z " fill="#000000"/><text fill="#000000" font-family="sans-serif" font-size="14" lengthAdjust="spacing" textLength="28" x="290" y="1181.7969">High</text><line style="stroke:#181818;stroke-width:0.5;" x1="262" x2="320" y1="1192" y2="1192"/><line style="stroke:#181818;stroke-width:0.5;" x1="262" x2="320" y1="1200" y2="1200"/></g><!--class Medium--><g id="elem_Medium"><rect fill="#F1F1F1" height="48" id="Medium" rx="2.5" ry="2.5" style="stroke:#181818;stroke-width:0.5;" width="81" x="356.5" y="1160"/><ellipse cx="371.5" cy="1176" fill="#C2C2C2" rx="11" ry="11" style="stroke:#181818;stroke-width:1.0;"/><path d="M374.2656,1171.875 Q374.4219,1171.6563 374.6094,1171.5469 Q374.7969,1171.4375 375.0156,1171.4375 Q375.3906,1171.4375 375.625,1171.7031 Q375.8594,1171.9531 375.8594,1172.5625 L375.8594,1174.0156 Q375.8594,1174.625 375.625,1174.8906 Q375.3906,1175.1563 375.0156,1175.1563 Q374.6719,1175.1563 374.4688,1174.9531 Q374.2656,1174.7656 374.1563,1174.25 Q374.1094,1173.8906 373.9219,1173.7031 Q373.5938,1173.3281 372.9844,1173.1094 Q372.375,1172.8906 371.75,1172.8906 Q370.9844,1172.8906 370.3438,1173.2188 Q369.7188,1173.5469 369.2188,1174.2969 Q368.7344,1175.0469 368.7344,1176.0781 L368.7344,1177.1719 Q368.7344,1178.4063 369.625,1179.2344 Q370.5156,1180.0469 372.1094,1180.0469 Q373.0469,1180.0469 373.7031,1179.7969 Q374.0938,1179.6406 374.5156,1179.2031 Q374.7813,1178.9375 374.9219,1178.8594 Q375.0781,1178.7813 375.2813,1178.7813 Q375.6094,1178.7813 375.8594,1179.0469 Q376.125,1179.2969 376.125,1179.6406 Q376.125,1179.9844 375.7813,1180.3906 Q375.2813,1180.9688 374.4844,1181.2969 Q373.4063,1181.75 372.1094,1181.75 Q370.5938,1181.75 369.3906,1181.125 Q368.4063,1180.625 367.7188,1179.5625 Q367.0313,1178.4844 367.0313,1177.2031 L367.0313,1176.0469 Q367.0313,1174.7188 367.6406,1173.5781 Q368.2656,1172.4219 369.3594,1171.8125 Q370.4531,1171.1875 371.6875,1171.1875 Q372.4219,1171.1875 373.0625,1171.3594 Q373.7188,1171.5156 374.2656,1171.875 Z " fill="#000000"/><text fill="#000000" font-family="sans-serif" font-size="14" lengthAdjust="spacing" textLength="49" x="385.5" y="1181.7969">Medium</text><line style="stroke:#181818;stroke-width:0.5;" x1="357.5" x2="436.5" y1="1192" y2="1192"/><line style="stroke:#181818;stroke-width:0.5;" x1="357.5" x2="436.5" y1="1200" y2="1200"/></g><!--class Low--><g id="elem_Low"><rect fill="#F1F1F1" height="48" id="Low" rx="2.5" ry="2.5" style="stroke:#181818;stroke-width:0.5;" width="57" x="472.5" y="1160"/><ellipse cx="487.5" cy="1176" fill="#C2C2C2" rx="11" ry="11" style="stroke:#181818;stroke-width:1.0;"/><path d="M490.2656,1171.875 Q490.4219,1171.6563 490.6094,1171.5469 Q490.7969,1171.4375 491.0156,1171.4375 Q491.3906,1171.4375 491.625,1171.7031 Q491.8594,1171.9531 491.8594,1172.5625 L491.8594,1174.0156 Q491.8594,1174.625 491.625,1174.8906 Q491.3906,1175.1563 491.0156,1175.1563 Q490.6719,1175.1563 490.4688,1174.9531 Q490.2656,1174.7656 490.1563,1174.25 Q490.1094,1173.8906 489.9219,1173.7031 Q489.5938,1173.3281 488.9844,1173.1094 Q488.375,1172.8906 487.75,1172.8906 Q486.9844,1172.8906 486.3438,1173.2188 Q485.7188,1173.5469 485.2188,1174.2969 Q484.7344,1175.0469 484.7344,1176.0781 L484.7344,1177.1719 Q484.7344,1178.4063 485.625,1179.2344 Q486.5156,1180.0469 488.1094,1180.0469 Q489.0469,1180.0469 489.7031,1179.7969 Q490.0938,1179.6406 490.5156,1179.2031 Q490.7813,1178.9375 490.9219,1178.8594 Q491.0781,1178.7813 491.2813,1178.7813 Q491.6094,1178.7813 491.8594,1179.0469 Q492.125,1179.2969 492.125,1179.6406 Q492.125,1179.9844 491.7813,1180.3906 Q491.2813,1180.9688 490.4844,1181.2969 Q489.4063,1181.75 488.1094,1181.75 Q486.5938,1181.75 485.3906,1181.125 Q484.4063,1180.625 483.7188,1179.5625 Q483.0313,1178.4844 483.0313,1177.2031 L483.0313,1176.0469 Q483.0313,1174.7188 483.6406,1173.5781 Q484.2656,1172.4219 485.3594,1171.8125 Q486.4531,1171.1875 487.6875,1171.1875 Q488.4219,1171.1875 489.0625,1171.3594 Q489.7188,1171.5156 490.2656,1171.875 Z " fill="#000000"/><text fill="#000000" font-family="sans-serif" font-size="14" lengthAdjust="spacing" textLength="25" x="501.5" y="1181.7969">Low</text><line style="stroke:#181818;stroke-width:0.5;" x1="473.5" x2="528.5" y1="1192" y2="1192"/><line style="stroke:#181818;stroke-width:0.5;" x1="473.5" x2="528.5" y1="1200" y2="1200"/></g><!--link Employee to GreenSpacesManager--><g id="link_Employee_GreenSpacesManager"><path codeLine="54" d="M259,204.2 C259,233.62 259,263.28 259,282.93 " fill="none" id="Employee-GreenSpacesManager" style="stroke:#181818;stroke-width:1.0;"/><polygon fill="#000000" points="264,248.6455,266.9389,239.6004,261.0611,239.6004,264,248.6455" style="stroke:#000000;stroke-width:1.0;"/><text fill="#000000" font-family="sans-serif" font-size="13" lengthAdjust="spacing" textLength="10" x="273" y="249.0283">is</text><text fill="#000000" font-family="sans-serif" font-size="13" lengthAdjust="spacing" textLength="7" x="251.743" y="226.1127">1</text><text fill="#000000" font-family="sans-serif" font-size="13" lengthAdjust="spacing" textLength="20" x="236.4375" y="271.6495">1..*</text></g><!--link Agenda to Task--><g id="link_Agenda_Task"><path codeLine="55" d="M214.49,563.34 C217.33,605.27 221.47,666.15 225.11,719.75 " fill="none" id="Agenda-Task" style="stroke:#181818;stroke-width:1.0;"/><polygon fill="#000000" points="225.3387,622.134,227.6582,612.9106,221.7938,613.3088,225.3387,622.134" style="stroke:#000000;stroke-width:1.0;"/><text fill="#000000" font-family="sans-serif" font-size="13" lengthAdjust="spacing" textLength="21" x="234" y="622.5283">has</text><text fill="#000000" font-family="sans-serif" font-size="13" lengthAdjust="spacing" textLength="7" x="207.4888" y="584.8093">1</text><text fill="#000000" font-family="sans-serif" font-size="13" lengthAdjust="spacing" textLength="20" x="203.9639" y="708.725">0..*</text></g><!--link Team to Task--><g id="link_Team_Task"><path codeLine="56" d="M300.87,641.33 C294.11,660.72 283.94,689.87 273.53,719.75 " fill="none" id="Team-Task" style="stroke:#181818;stroke-width:1.0;"/><polygon fill="#000000" points="292.354,685.3668,298.1068,677.7934,292.5565,675.8584,292.354,685.3668" style="stroke:#000000;stroke-width:1.0;"/><text fill="#000000" font-family="sans-serif" font-size="13" lengthAdjust="spacing" textLength="53" x="303" y="686.0283">executes</text><text fill="#000000" font-family="sans-serif" font-size="13" lengthAdjust="spacing" textLength="7" x="291.1806" y="662.9839">1</text><text fill="#000000" font-family="sans-serif" font-size="13" lengthAdjust="spacing" textLength="7" x="268.9022" y="708.725">1</text></g><!--link GreenSpacesManager to Agenda--><g id="link_GreenSpacesManager_Agenda"><path codeLine="57" d="M232.68,331.16 C224.83,339.67 217.21,349.96 213,361 C201.21,391.94 200.71,429.19 203.16,458.71 " fill="none" id="GreenSpacesManager-Agenda" style="stroke:#181818;stroke-width:1.0;"/><polygon fill="#000000" points="216.8726,375.5167,221.7753,367.3673,216.0488,366.0419,216.8726,375.5167" style="stroke:#000000;stroke-width:1.0;"/><text fill="#000000" font-family="sans-serif" font-size="13" lengthAdjust="spacing" textLength="53" x="227" y="376.0283">manages</text><text fill="#000000" font-family="sans-serif" font-size="13" lengthAdjust="spacing" textLength="7" x="218.4114" y="353.1847">1</text><text fill="#000000" font-family="sans-serif" font-size="13" lengthAdjust="spacing" textLength="7" x="194.6362" y="447.5984">1</text></g><!--link GreenSpacesManager to Team--><g id="link_GreenSpacesManager_Team"><path codeLine="58" d="M272.55,331.02 C277.27,340.07 282.11,350.74 285,361 C308.42,444.02 310.13,547.66 309.58,592.98 " fill="none" id="GreenSpacesManager-Team" style="stroke:#181818;stroke-width:1.0;"/><polygon fill="#000000" points="303.6998,424.5963,305.3438,415.2289,299.5238,416.0516,303.6998,424.5963" style="stroke:#000000;stroke-width:1.0;"/><text fill="#000000" font-family="sans-serif" font-size="13" lengthAdjust="spacing" textLength="45" x="312" y="425.0283">assigns</text><text fill="#000000" font-family="sans-serif" font-size="13" lengthAdjust="spacing" textLength="7" x="267.9997" y="353.0105">1</text><text fill="#000000" font-family="sans-serif" font-size="13" lengthAdjust="spacing" textLength="20" x="287.1661" y="581.7124">1..*</text></g><!--link Task to Status--><g id="link_Task_Status"><path codeLine="59" d="M202.66,954.02 C194.79,984.12 187.11,1013.5 182.03,1032.93 " fill="none" id="Task-Status" style="stroke:#181818;stroke-width:1.0;"/><polygon fill="#000000" points="198.7353,998.4829,203.8665,990.4753,198.1798,988.9886,198.7353,998.4829" style="stroke:#000000;stroke-width:1.0;"/><text fill="#000000" font-family="sans-serif" font-size="13" lengthAdjust="spacing" textLength="21" x="209" y="999.0283">has</text><text fill="#000000" font-family="sans-serif" font-size="13" lengthAdjust="spacing" textLength="7" x="193.4921" y="976.092">1</text><text fill="#000000" font-family="sans-serif" font-size="13" lengthAdjust="spacing" textLength="7" x="175.6783" y="1021.6495">1</text></g><!--link Task to Urgency--><g id="link_Task_Urgency"><path codeLine="60" d="M292.07,954.02 C307.4,984.12 322.36,1013.5 332.26,1032.93 " fill="none" id="Task-Urgency" style="stroke:#181818;stroke-width:1.0;"/><polygon fill="#000000" points="321.2692,998.1009,319.783,988.7072,314.5453,991.3748,321.2692,998.1009" style="stroke:#000000;stroke-width:1.0;"/><text fill="#000000" font-family="sans-serif" font-size="13" lengthAdjust="spacing" textLength="21" x="328" y="999.0283">has</text><text fill="#000000" font-family="sans-serif" font-size="13" lengthAdjust="spacing" textLength="7" x="288.63" y="976.092">1</text><text fill="#000000" font-family="sans-serif" font-size="13" lengthAdjust="spacing" textLength="7" x="321.3547" y="1021.6495">1</text></g><!--link Status to Planned--><g id="link_Status_Planned"><path codeLine="61" d="M152.41,1081.22 C129.6,1103.67 95.23,1137.5 72.46,1159.91 " fill="none" id="Status-Planned" style="stroke:#181818;stroke-width:1.0;"/><polygon fill="#000000" points="122.4365,1124.1529,130.9445,1119.9026,126.8214,1115.7134,122.4365,1124.1529" style="stroke:#000000;stroke-width:1.0;"/><text fill="#000000" font-family="sans-serif" font-size="13" lengthAdjust="spacing" textLength="10" x="135" y="1126.0283">is</text><text fill="#000000" font-family="sans-serif" font-size="13" lengthAdjust="spacing" textLength="7" x="139.1454" y="1102.8485">1</text><text fill="#000000" font-family="sans-serif" font-size="13" lengthAdjust="spacing" textLength="22" x="53.6529" y="1148.6244">0..1</text></g><!--link Status to Postponed--><g id="link_Status_Postponed"><path codeLine="62" d="M176,1081.22 C176,1103.67 176,1137.5 176,1159.91 " fill="none" id="Status-Postponed" style="stroke:#181818;stroke-width:1.0;"/><polygon fill="#000000" points="181,1125.6455,183.9389,1116.6004,178.0611,1116.6004,181,1125.6455" style="stroke:#000000;stroke-width:1.0;"/><text fill="#000000" font-family="sans-serif" font-size="13" lengthAdjust="spacing" textLength="10" x="190" y="1126.0283">is</text><text fill="#000000" font-family="sans-serif" font-size="13" lengthAdjust="spacing" textLength="7" x="168.1906" y="1102.8485">1</text><text fill="#000000" font-family="sans-serif" font-size="13" lengthAdjust="spacing" textLength="22" x="151.1813" y="1148.6244">0..1</text></g><!--link Urgency to High--><g id="link_Urgency_High"><path codeLine="63" d="M334.16,1081.22 C324.64,1103.67 310.29,1137.5 300.79,1159.91 " fill="none" id="Urgency-High" style="stroke:#181818;stroke-width:1.0;"/><polygon fill="#000000" points="323.0479,1125.2487,329.285,1118.0688,323.8736,1115.774,323.0479,1125.2487" style="stroke:#000000;stroke-width:1.0;"/><text fill="#000000" font-family="sans-serif" font-size="13" lengthAdjust="spacing" textLength="10" x="334" y="1126.0283">is</text><text fill="#000000" font-family="sans-serif" font-size="13" lengthAdjust="spacing" textLength="7" x="324.0751" y="1102.8485">1</text><text fill="#000000" font-family="sans-serif" font-size="13" lengthAdjust="spacing" textLength="22" x="278.4799" y="1148.6244">0..1</text></g><!--link Urgency to Medium--><g id="link_Urgency_Medium"><path codeLine="64" d="M353.84,1081.22 C363.36,1103.67 377.71,1137.5 387.21,1159.91 " fill="none" id="Urgency-Medium" style="stroke:#181818;stroke-width:1.0;"/><polygon fill="#000000" points="379.9521,1125.2487,379.1264,1115.774,373.715,1118.0688,379.9521,1125.2487" style="stroke:#000000;stroke-width:1.0;"/><text fill="#000000" font-family="sans-serif" font-size="13" lengthAdjust="spacing" textLength="10" x="387" y="1126.0283">is</text><text fill="#000000" font-family="sans-serif" font-size="13" lengthAdjust="spacing" textLength="7" x="348.3061" y="1102.8485">1</text><text fill="#000000" font-family="sans-serif" font-size="13" lengthAdjust="spacing" textLength="22" x="359.8826" y="1148.6244">0..1</text></g><!--link Urgency to Low--><g id="link_Urgency_Low"><path codeLine="65" d="M373.16,1081.22 C401.45,1103.74 444.11,1137.71 472.26,1160.12 " fill="none" id="Urgency-Low" style="stroke:#181818;stroke-width:1.0;"/><polygon fill="#000000" points="439.9117,1123.7598,434.666,1115.8268,431.0049,1120.4252,439.9117,1123.7598" style="stroke:#000000;stroke-width:1.0;"/><text fill="#000000" font-family="sans-serif" font-size="13" lengthAdjust="spacing" textLength="10" x="445" y="1126.0283">is</text><text fill="#000000" font-family="sans-serif" font-size="13" lengthAdjust="spacing" textLength="7" x="372.0939" y="1102.8485">1</text><text fill="#000000" font-family="sans-serif" font-size="13" lengthAdjust="spacing" textLength="22" x="442.4362" y="1150.8022">0..1</text></g><!--SRC=[VP9DRzim38Rl_XL4Jjs0jDqrXm45Kcm1Mg10kjqPYRM5w0iIZSOhzjydoxBY3a5yCKK-95zIYaTbFGOqO9nreWlE473egOarub4SiQKz3veWa62qhLu2iKFftfLjuGrrf6OH4XfZV60Ewj0pxOIpU_M7uBvfSWGUZTTk88AF1j9dqL0s3Yfm1n9vEgOyHi5mGmQLllETi_GbHr0Q5QDozWmpdZmE5C3sva2XO39GZDdURK4w0Jnu0hHoYGMN1llRDBEyXvQin28ElNVAiY7BKo7K58h9RYtTaueyPa-vhnYF9PEJkTjEfc8zoPGKHL2Ua_RfVDOVZtl6m2yKb9FLztZoQVaajtt0cZLEaOqs4Dbzkglfc1Ierf9y9JIV7B-fKq9JF0jDlRYFIMhr_0ffRZ4iF3zgzVYCDhs6yD4i5pMsoNYzqDMt5QpNwNTx-tLr8Hyse29yRygAP_m-utbt6-Xm9CRQvt8rI2SIwKsDn8Ng2xvqs839iQi9LN1kkYbRooh6hekgPMjLv7_Xii8QB_XYp6IzQBJfIkPLN6PSPEyMr5pvC_PJjTrrufcawirrviczpq3p3m00]--></g></svg>