<?xml version="1.0" encoding="us-ascii" standalone="no"?><svg xmlns="http://www.w3.org/2000/svg" xmlns:xlink="http://www.w3.org/1999/xlink" contentStyleType="text/css" height="748px" preserveAspectRatio="none" style="width:378px;height:748px;background:#FFFFFF;" version="1.1" viewBox="0 0 378 748" width="378px" zoomAndPan="magnify"><defs/><g><text fill="#000000" font-family="sans-serif" font-size="14" font-weight="bold" lengthAdjust="spacing" textLength="275" x="52.5" y="30.1074">System Sequence Diagram (SSD) US005</text><rect fill="#FFFFFF" height="522.918" style="stroke:#181818;stroke-width:1.0;" width="10" x="33" y="133.2422"/><rect fill="#FFFFFF" height="31.291" style="stroke:#181818;stroke-width:1.0;" width="10" x="324" y="156.5332"/><rect fill="#FFFFFF" height="31.291" style="stroke:#181818;stroke-width:1.0;" width="10" x="324" y="219.1152"/><rect fill="#FFFFFF" height="48.582" style="stroke:#181818;stroke-width:1.0;" width="10" x="324" y="281.6973"/><rect fill="#FFFFFF" height="268.2988" style="stroke:#181818;stroke-width:1.0;" width="10" x="324" y="387.8613"/><rect fill="#FFFFFF" height="205.7168" style="stroke:#181818;stroke-width:1.0;" width="10" x="329" y="450.4434"/><rect fill="#FFFFFF" height="86.2129" style="stroke:#181818;stroke-width:1.0;" width="10" x="334" y="560.9473"/><rect fill="none" height="271.5898" style="stroke:#000000;stroke-width:1.5;" width="361" x="10" y="345.2793"/><line style="stroke:#181818;stroke-width:0.5;stroke-dasharray:5.0,5.0;" x1="38" x2="38" y1="123.2422" y2="665.1602"/><line style="stroke:#181818;stroke-width:0.5;stroke-dasharray:5.0,5.0;" x1="329" x2="329" y1="123.2422" y2="665.1602"/><text fill="#000000" font-family="sans-serif" font-size="14" lengthAdjust="spacing" textLength="30" x="20" y="119.7285">HRM</text><ellipse cx="38" cy="53.1211" fill="#E3E3E3" rx="8" ry="8" style="stroke:#181818;stroke-width:0.5;"/><path d="M38,61.1211 L38,88.1211 M25,69.1211 L51,69.1211 M38,88.1211 L25,103.1211 M38,88.1211 L51,103.1211 " fill="none" style="stroke:#181818;stroke-width:0.5;"/><text fill="#000000" font-family="sans-serif" font-size="14" lengthAdjust="spacing" textLength="30" x="20" y="679.2676">HRM</text><ellipse cx="38" cy="691.2813" fill="#E3E3E3" rx="8" ry="8" style="stroke:#181818;stroke-width:0.5;"/><path d="M38,699.2813 L38,726.2813 M25,707.2813 L51,707.2813 M38,726.2813 L25,741.2813 M38,726.2813 L51,741.2813 " fill="none" style="stroke:#181818;stroke-width:0.5;"/><rect fill="#E3E3E3" height="32.6211" rx="2.5" ry="2.5" style="stroke:#181818;stroke-width:0.5;" width="64" x="297" y="89.6211"/><text fill="#000000" font-family="sans-serif" font-size="14" lengthAdjust="spacing" textLength="50" x="304" y="111.7285">:System</text><rect fill="#E3E3E3" height="32.6211" rx="2.5" ry="2.5" style="stroke:#181818;stroke-width:0.5;" width="64" x="297" y="664.1602"/><text fill="#000000" font-family="sans-serif" font-size="14" lengthAdjust="spacing" textLength="50" x="304" y="686.2676">:System</text><rect fill="#FFFFFF" height="522.918" style="stroke:#181818;stroke-width:1.0;" width="10" x="33" y="133.2422"/><rect fill="#FFFFFF" height="31.291" style="stroke:#181818;stroke-width:1.0;" width="10" x="324" y="156.5332"/><rect fill="#FFFFFF" height="31.291" style="stroke:#181818;stroke-width:1.0;" width="10" x="324" y="219.1152"/><rect fill="#FFFFFF" height="48.582" style="stroke:#181818;stroke-width:1.0;" width="10" x="324" y="281.6973"/><rect fill="#FFFFFF" height="268.2988" style="stroke:#181818;stroke-width:1.0;" width="10" x="324" y="387.8613"/><rect fill="#FFFFFF" height="205.7168" style="stroke:#181818;stroke-width:1.0;" width="10" x="329" y="450.4434"/><rect fill="#FFFFFF" height="86.2129" style="stroke:#181818;stroke-width:1.0;" width="10" x="334" y="560.9473"/><polygon fill="#181818" points="312,152.5332,322,156.5332,312,160.5332,316,156.5332" style="stroke:#181818;stroke-width:1.0;"/><line style="stroke:#181818;stroke-width:1.0;" x1="43" x2="318" y1="156.5332" y2="156.5332"/><text fill="#000000" font-family="sans-serif" font-size="13" font-weight="bold" lengthAdjust="spacing" textLength="7" x="50" y="151.2705">1</text><text fill="#000000" font-family="sans-serif" font-size="13" lengthAdjust="spacing" textLength="207" x="61" y="151.2705">asks to create a new team proposal</text><polygon fill="#181818" points="54,183.8242,44,187.8242,54,191.8242,50,187.8242" style="stroke:#181818;stroke-width:1.0;"/><line style="stroke:#181818;stroke-width:1.0;stroke-dasharray:2.0,2.0;" x1="48" x2="328" y1="187.8242" y2="187.8242"/><text fill="#000000" font-family="sans-serif" font-size="13" font-weight="bold" lengthAdjust="spacing" textLength="7" x="60" y="182.5615">2</text><text fill="#000000" font-family="sans-serif" font-size="13" lengthAdjust="spacing" textLength="211" x="71" y="182.5615">requests number of team employees</text><polygon fill="#181818" points="312,215.1152,322,219.1152,312,223.1152,316,219.1152" style="stroke:#181818;stroke-width:1.0;"/><line style="stroke:#181818;stroke-width:1.0;" x1="43" x2="318" y1="219.1152" y2="219.1152"/><text fill="#000000" font-family="sans-serif" font-size="13" font-weight="bold" lengthAdjust="spacing" textLength="7" x="50" y="213.8525">3</text><text fill="#000000" font-family="sans-serif" font-size="13" lengthAdjust="spacing" textLength="201" x="61" y="213.8525">provide number of team employees</text><polygon fill="#181818" points="54,246.4063,44,250.4063,54,254.4063,50,250.4063" style="stroke:#181818;stroke-width:1.0;"/><line style="stroke:#181818;stroke-width:1.0;stroke-dasharray:2.0,2.0;" x1="48" x2="328" y1="250.4063" y2="250.4063"/><text fill="#000000" font-family="sans-serif" font-size="13" font-weight="bold" lengthAdjust="spacing" textLength="7" x="60" y="245.1436">4</text><text fill="#000000" font-family="sans-serif" font-size="13" lengthAdjust="spacing" textLength="99" x="71" y="245.1436">requests skill set</text><polygon fill="#181818" points="312,277.6973,322,281.6973,312,285.6973,316,281.6973" style="stroke:#181818;stroke-width:1.0;"/><line style="stroke:#181818;stroke-width:1.0;" x1="43" x2="318" y1="281.6973" y2="281.6973"/><text fill="#000000" font-family="sans-serif" font-size="13" font-weight="bold" lengthAdjust="spacing" textLength="7" x="50" y="276.4346">5</text><text fill="#000000" font-family="sans-serif" font-size="13" lengthAdjust="spacing" textLength="89" x="61" y="276.4346">provide skill set</text><polygon fill="#181818" points="54,326.2793,44,330.2793,54,334.2793,50,330.2793" style="stroke:#181818;stroke-width:1.0;"/><line style="stroke:#181818;stroke-width:1.0;stroke-dasharray:2.0,2.0;" x1="48" x2="328" y1="330.2793" y2="330.2793"/><text fill="#000000" font-family="sans-serif" font-size="13" font-weight="bold" lengthAdjust="spacing" textLength="7" x="60" y="316.3711">6</text><text fill="#000000" font-family="sans-serif" font-size="13" lengthAdjust="spacing" textLength="220" x="71" y="307.7256">shows a team suggestion and asks to</text><text fill="#000000" font-family="sans-serif" font-size="13" lengthAdjust="spacing" textLength="213" x="75" y="325.0166">accept, accept and modify or decline</text><path d="M10,345.2793 L71,345.2793 L71,354.5703 L61,364.5703 L10,364.5703 L10,345.2793 " fill="#EEEEEE" style="stroke:#000000;stroke-width:1.5;"/><rect fill="none" height="271.5898" style="stroke:#000000;stroke-width:1.5;" width="361" x="10" y="345.2793"/><text fill="#000000" font-family="sans-serif" font-size="13" font-weight="bold" lengthAdjust="spacing" textLength="16" x="25" y="360.3076">alt</text><text fill="#000000" font-family="sans-serif" font-size="11" font-weight="bold" lengthAdjust="spacing" textLength="46" x="86" y="359.1494">[Accept]</text><polygon fill="#181818" points="312,383.8613,322,387.8613,312,391.8613,316,387.8613" style="stroke:#181818;stroke-width:1.0;"/><line style="stroke:#181818;stroke-width:1.0;" x1="43" x2="318" y1="387.8613" y2="387.8613"/><text fill="#000000" font-family="sans-serif" font-size="13" font-weight="bold" lengthAdjust="spacing" textLength="7" x="50" y="382.5986">7</text><text fill="#000000" font-family="sans-serif" font-size="13" lengthAdjust="spacing" textLength="163" x="61" y="382.5986">Accept the given suggestion</text><polygon fill="#181818" points="54,415.1523,44,419.1523,54,423.1523,50,419.1523" style="stroke:#181818;stroke-width:1.0;"/><line style="stroke:#181818;stroke-width:1.0;stroke-dasharray:2.0,2.0;" x1="48" x2="323" y1="419.1523" y2="419.1523"/><text fill="#000000" font-family="sans-serif" font-size="13" font-weight="bold" lengthAdjust="spacing" textLength="7" x="60" y="413.8896">8</text><text fill="#000000" font-family="sans-serif" font-size="13" lengthAdjust="spacing" textLength="82" x="71" y="413.8896">data validation</text><polygon fill="#181818" points="317,446.4434,327,450.4434,317,454.4434,321,450.4434" style="stroke:#181818;stroke-width:1.0;"/><line style="stroke:#181818;stroke-width:1.0;" x1="43" x2="323" y1="450.4434" y2="450.4434"/><text fill="#000000" font-family="sans-serif" font-size="13" font-weight="bold" lengthAdjust="spacing" textLength="7" x="50" y="445.1807">9</text><text fill="#000000" font-family="sans-serif" font-size="13" lengthAdjust="spacing" textLength="78" x="61" y="445.1807">confirms data</text><line style="stroke:#000000;stroke-width:1.0;stroke-dasharray:2.0,2.0;" x1="10" x2="371" y1="459.4434" y2="459.4434"/><text fill="#000000" font-family="sans-serif" font-size="11" font-weight="bold" lengthAdjust="spacing" textLength="97" x="15" y="471.3135">[Accept &amp; Modify]</text><polygon fill="#181818" points="317,494.3652,327,498.3652,317,502.3652,321,498.3652" style="stroke:#181818;stroke-width:1.0;"/><line style="stroke:#181818;stroke-width:1.0;" x1="43" x2="323" y1="498.3652" y2="498.3652"/><text fill="#000000" font-family="sans-serif" font-size="13" font-weight="bold" lengthAdjust="spacing" textLength="14" x="50" y="493.1025">10</text><text fill="#000000" font-family="sans-serif" font-size="13" lengthAdjust="spacing" textLength="239" x="68" y="493.1025">modify the given suggestion and inserts it</text><polygon fill="#181818" points="54,525.6563,44,529.6563,54,533.6563,50,529.6563" style="stroke:#181818;stroke-width:1.0;"/><line style="stroke:#181818;stroke-width:1.0;stroke-dasharray:2.0,2.0;" x1="48" x2="328" y1="529.6563" y2="529.6563"/><text fill="#000000" font-family="sans-serif" font-size="13" font-weight="bold" lengthAdjust="spacing" textLength="14" x="60" y="524.3936">11</text><text fill="#000000" font-family="sans-serif" font-size="13" lengthAdjust="spacing" textLength="82" x="78" y="524.3936">data validation</text><polygon fill="#181818" points="322,556.9473,332,560.9473,322,564.9473,326,560.9473" style="stroke:#181818;stroke-width:1.0;"/><line style="stroke:#181818;stroke-width:1.0;" x1="43" x2="328" y1="560.9473" y2="560.9473"/><text fill="#000000" font-family="sans-serif" font-size="13" font-weight="bold" lengthAdjust="spacing" textLength="14" x="50" y="555.6846">12</text><text fill="#000000" font-family="sans-serif" font-size="13" lengthAdjust="spacing" textLength="78" x="68" y="555.6846">confirms data</text><line style="stroke:#000000;stroke-width:1.0;stroke-dasharray:2.0,2.0;" x1="10" x2="371" y1="569.9473" y2="569.9473"/><text fill="#000000" font-family="sans-serif" font-size="11" font-weight="bold" lengthAdjust="spacing" textLength="48" x="15" y="581.8174">[Decline]</text><polygon fill="#181818" points="322,604.8691,332,608.8691,322,612.8691,326,608.8691" style="stroke:#181818;stroke-width:1.0;"/><line style="stroke:#181818;stroke-width:1.0;" x1="43" x2="328" y1="608.8691" y2="608.8691"/><text fill="#000000" font-family="sans-serif" font-size="13" font-weight="bold" lengthAdjust="spacing" textLength="14" x="50" y="603.6064">13</text><text fill="#000000" font-family="sans-serif" font-size="13" lengthAdjust="spacing" textLength="170" x="68" y="603.6064">declines the given suggestion</text><polygon fill="#181818" points="54,643.1602,44,647.1602,54,651.1602,50,647.1602" style="stroke:#181818;stroke-width:1.0;"/><line style="stroke:#181818;stroke-width:1.0;stroke-dasharray:2.0,2.0;" x1="48" x2="328" y1="647.1602" y2="647.1602"/><text fill="#000000" font-family="sans-serif" font-size="13" font-weight="bold" lengthAdjust="spacing" textLength="14" x="60" y="641.8975">14</text><text fill="#000000" font-family="sans-serif" font-size="13" lengthAdjust="spacing" textLength="162" x="78" y="641.8975">displays operation message</text><!--SRC=[nLGzRzim4DtvAmuUYWPeW2nTF1G8u01PiaJerkLAdcN2_51u9nlwzprJafi2Ke9aAHUHuBt7z-vHvADF7HQC47FAzb1o993Ia-7hJeVsY2qrCWI2GbOmjU5r0H_GvRDFBUmnC1aZNhIq6LWeGaClFILBiFFONig_Ditk1dusTtVVZS5USkhZRoewjv8BR1wVdpQ030-n2taWCdgAUEixJ0ARxKXRAyPf1VeJ2ls56D0nh-3snoncgx0ZWsImXIu8X4Hd4BhuBBdBZA5YhvJp6J2DYUXMEQ_yMssBccHX6Br0te-SD9LmnJjQf5tKgMfEtj7RXAjAtr6fsOK0J79b-OoqVra-s34-v3Dh-wihxjjMXVcS09ERC_gbAskfas_Jjsx6xFn-0BqfZcpmYLPQYq7WliBMdOpx80U2rfyelHAowEbjImu5uOJ1wsHcM3pMvhJt9N95h0P9-Y_D2h_0KxMzpZcrPSbARPjFJ4MZz_8VNEocf1PvfXXvEOQ7v8nvxp8vprt0WI5tLAfiYCIihzRovVW3]--></g></svg>