<?xml version="1.0" encoding="us-ascii" standalone="no"?><svg xmlns="http://www.w3.org/2000/svg" xmlns:xlink="http://www.w3.org/1999/xlink" contentStyleType="text/css" height="861px" preserveAspectRatio="none" style="width:581px;height:861px;background:#FFFFFF;" version="1.1" viewBox="0 0 581 861" width="581px" zoomAndPan="magnify"><defs/><g><text fill="#000000" font-family="sans-serif" font-size="14" font-weight="bold" lengthAdjust="spacing" textLength="127" x="220.1245" y="25.1074">Use Case Diagram</text><!--entity VFM--><g id="elem_VFM"><ellipse cx="21" cy="693.1211" fill="#F1F1F1" rx="8" ry="8" style="stroke:#181818;stroke-width:0.5;"/><path d="M21,701.1211 L21,728.1211 M8,709.1211 L34,709.1211 M21,728.1211 L8,743.1211 M21,728.1211 L34,743.1211 " fill="none" style="stroke:#181818;stroke-width:0.5;"/><text fill="#000000" font-family="sans-serif" font-size="14" lengthAdjust="spacing" textLength="29" x="6.5" y="759.7285">VFM</text></g><!--entity HRM--><g id="elem_HRM"><ellipse cx="21" cy="287.1211" fill="#F1F1F1" rx="8" ry="8" style="stroke:#181818;stroke-width:0.5;"/><path d="M21,295.1211 L21,322.1211 M8,303.1211 L34,303.1211 M21,322.1211 L8,337.1211 M21,322.1211 L34,337.1211 " fill="none" style="stroke:#181818;stroke-width:0.5;"/><text fill="#000000" font-family="sans-serif" font-size="14" lengthAdjust="spacing" textLength="30" x="6" y="353.7285">HRM</text></g><g id="elem_UC1"><ellipse cx="335.5756" cy="82.2362" fill="#F1F1F1" rx="171.0756" ry="36.6151" style="stroke:#181818;stroke-width:0.5;"/><text fill="#000000" font-family="sans-serif" font-size="14" lengthAdjust="spacing" textLength="311" x="180.0756" y="86.0331">UC1 - Register skills that a collaborator may have</text></g><g id="elem_UC2"><ellipse cx="335.654" cy="192.9519" fill="#F1F1F1" rx="182.154" ry="38.8308" style="stroke:#181818;stroke-width:0.5;"/><text fill="#000000" font-family="sans-serif" font-size="14" lengthAdjust="spacing" textLength="334" x="168.654" y="196.7488">UC2 - Register a job that a collaborator need to have</text></g><g id="elem_UC3"><ellipse cx="335.6245" cy="317.946" fill="#F1F1F1" rx="239.6245" ry="50.3249" style="stroke:#181818;stroke-width:0.5;"/><text fill="#000000" font-family="sans-serif" font-size="14" lengthAdjust="spacing" textLength="452" x="109.6245" y="321.7429">UC3 - Register a collaborator with a job and fundamental characteristics</text></g><g id="elem_UC4"><ellipse cx="335.7154" cy="440.0642" fill="#F1F1F1" rx="167.7154" ry="35.9431" style="stroke:#181818;stroke-width:0.5;"/><text fill="#000000" font-family="sans-serif" font-size="14" lengthAdjust="spacing" textLength="304" x="183.7154" y="443.861">UC4 - Assign one or more skills to a collaborator</text></g><g id="elem_UC5"><ellipse cx="335.469" cy="545.9149" fill="#F1F1F1" rx="161.969" ry="34.7938" style="stroke:#181818;stroke-width:0.5;"/><text fill="#000000" font-family="sans-serif" font-size="14" lengthAdjust="spacing" textLength="292" x="189.469" y="549.7118">UC5 - Generate a team proposal automatically</text></g><g id="elem_UC6"><ellipse cx="335.2971" cy="638.0805" fill="#F1F1F1" rx="97.7971" ry="21.9594" style="stroke:#181818;stroke-width:0.5;"/><text fill="#000000" font-family="sans-serif" font-size="14" lengthAdjust="spacing" textLength="153" x="257.019" y="642.5076">UC6 - Register a vehicle</text></g><g id="elem_UC7"><ellipse cx="335.3162" cy="724.0843" fill="#F1F1F1" rx="130.3162" ry="28.4632" style="stroke:#181818;stroke-width:0.5;"/><text fill="#000000" font-family="sans-serif" font-size="14" lengthAdjust="spacing" textLength="225" x="222.8162" y="727.8812">UC7 - Register a vehicle&#8217;s check-up</text></g><g id="elem_UC8"><ellipse cx="335.6952" cy="821.9601" fill="#F1F1F1" rx="157.1952" ry="33.839" style="stroke:#181818;stroke-width:0.5;"/><text fill="#000000" font-family="sans-serif" font-size="14" lengthAdjust="spacing" textLength="282" x="194.6952" y="825.757">UC8 - List the vehicles needing the check-up</text></g><!--link HRM to UC1--><g id="link_HRM_UC1"><path d="M27.28,278.5211 C34.97,236.8311 53.35,172.3111 96,136.1211 C118.82,116.7611 141.3939,105.6202 170.4839,97.2502 " fill="none" id="HRM-to-UC1" style="stroke:#181818;stroke-width:1.0;"/><polygon fill="#181818" points="176.25,95.5911,166.4949,94.2356,171.4449,96.9736,168.7069,101.9237,176.25,95.5911" style="stroke:#181818;stroke-width:1.0;"/></g><!--link HRM to UC2--><g id="link_HRM_UC2"><path d="M36.05,300.9511 C49.75,285.3611 71.97,262.9011 96,250.1211 C124.1,235.1711 150.3164,225.6235 181.5764,217.4235 " fill="none" id="HRM-to-UC2" style="stroke:#181818;stroke-width:1.0;"/><polygon fill="#181818" points="187.38,215.9011,177.6596,214.3156,182.5436,217.1698,179.6895,222.0538,187.38,215.9011" style="stroke:#181818;stroke-width:1.0;"/></g><!--link HRM to UC3--><g id="link_HRM_UC3"><path d="M36.24,318.1211 C49.37,318.1211 64.63,318.1211 89.92,318.1211 " fill="none" id="HRM-to-UC3" style="stroke:#181818;stroke-width:1.0;"/><polygon fill="#181818" points="95.92,318.1211,86.92,314.1211,90.92,318.1211,86.92,322.1211,95.92,318.1211" style="stroke:#181818;stroke-width:1.0;"/></g><!--link HRM to UC4--><g id="link_HRM_UC4"><path d="M36.02,335.3611 C49.69,350.9911 71.89,373.4811 96,386.1211 C125.99,401.8411 154.5935,411.62 187.8235,419.54 " fill="none" id="HRM-to-UC4" style="stroke:#181818;stroke-width:1.0;"/><polygon fill="#181818" points="193.66,420.9311,185.8326,414.9535,188.7962,419.7719,183.9778,422.7355,193.66,420.9311" style="stroke:#181818;stroke-width:1.0;"/></g><!--link HRM to UC5--><g id="link_HRM_UC5"><path d="M28,357.7411 C36.22,397.9211 54.95,458.9111 96,493.1211 C120.44,513.4811 145.2276,524.9439 176.2676,533.1139 " fill="none" id="HRM-to-UC5" style="stroke:#181818;stroke-width:1.0;"/><polygon fill="#181818" points="182.07,534.6411,174.3846,528.482,177.2347,533.3684,172.3483,536.2185,182.07,534.6411" style="stroke:#181818;stroke-width:1.0;"/></g><!--link VFM to UC6--><g id="link_VFM_UC6"><path d="M35.6,713.3711 C49.82,702.7011 73.22,686.7311 96,678.1211 C142.54,660.5411 191.1444,651.39 236.3244,645.86 " fill="none" id="VFM-to-UC6" style="stroke:#181818;stroke-width:1.0;"/><polygon fill="#181818" points="242.28,645.1311,232.8607,642.2542,237.317,645.7386,233.8326,650.1949,242.28,645.1311" style="stroke:#181818;stroke-width:1.0;"/></g><!--link VFM to UC7--><g id="link_VFM_UC7"><path d="M35.83,724.1211 C65.6,724.1211 132.41,724.1211 198.69,724.1211 " fill="none" id="VFM-to-UC7" style="stroke:#181818;stroke-width:1.0;"/><polygon fill="#181818" points="204.69,724.1211,195.69,720.1211,199.69,724.1211,195.69,728.1211,204.69,724.1211" style="stroke:#181818;stroke-width:1.0;"/></g><!--link VFM to UC8--><g id="link_VFM_UC8"><path d="M35.68,734.6411 C49.98,745.1311 73.43,760.9611 96,770.1211 C130.85,784.2611 164.3318,793.6004 200.8818,801.3904 " fill="none" id="VFM-to-UC8" style="stroke:#181818;stroke-width:1.0;"/><polygon fill="#181818" points="206.75,802.6411,198.7815,796.8529,201.8598,801.5988,197.1139,804.6772,206.75,802.6411" style="stroke:#181818;stroke-width:1.0;"/></g><!--SRC=[RPA_RW8n38VtF8N5VaFvFrMgG6s7iY3HtUJCNKekGOcFYgslqTVhazI7ZjOWbkYdoD-Ns0axzWIRJB10MPOEguIDCPvs31mXkQfcA5qYoou6Oz1oJF3-lEhJwtfbJ9l9TlXWitY00jPKkSoK8E-TzncuHWO46xt7RKpOSGsUeCOZ3G0p2AOTG-r0-8ZRkuf0L7PtL9gXreokDLVif-EwLsCeOTU64XiAZ1viZKbweoIWixatZxHvBEQdd5qL80Q2hfsOwA_TU7DQhnXhnKGKBnH82aZAcR21Gug7cEKAs79iK4v7xqyzFT7qzBgr8zNE-iiGfhfoThVov-ixIwDazqLxwB6PnkQ2lGaaWwSBbCyJTw4wRzxGSoC_0OhYyVoO_tceyaZbiSeJ8_-fprELPohFpIy0]--></g></svg>