<?xml version="1.0" encoding="us-ascii" standalone="no"?><svg xmlns="http://www.w3.org/2000/svg" xmlns:xlink="http://www.w3.org/1999/xlink" contentStyleType="text/css" height="1000px" preserveAspectRatio="none" style="width:1482px;height:1000px;background:#FFFFFF;" version="1.1" viewBox="0 0 1482 1000" width="1482px" zoomAndPan="magnify"><defs/><g><rect fill="#FFFFFF" height="805.3145" style="stroke:#181818;stroke-width:1.0;" width="10" x="18" y="93.6211"/><rect fill="#FFFFFF" height="31.291" style="stroke:#181818;stroke-width:1.0;" width="10" x="267.5" y="165.1641"/><rect fill="#FFFFFF" height="31.291" style="stroke:#181818;stroke-width:1.0;" width="10" x="267.5" y="227.7461"/><rect fill="#FFFFFF" height="608.6074" style="stroke:#181818;stroke-width:1.0;" width="10" x="267.5" y="290.3281"/><rect fill="#FFFFFF" height="546.0254" style="stroke:#181818;stroke-width:1.0;" width="10" x="527.5" y="321.6191"/><rect fill="#FFFFFF" height="230.0371" style="stroke:#181818;stroke-width:1.0;" width="10" x="532.5" y="360.9102"/><rect fill="#FFFFFF" height="31.291" style="stroke:#181818;stroke-width:1.0;" width="10" x="738.5" y="397.2012"/><rect fill="#FFFFFF" height="31.291" style="stroke:#181818;stroke-width:1.0;" width="10" x="845.5" y="459.7832"/><rect fill="#FFFFFF" height="31.291" style="stroke:#181818;stroke-width:1.0;" width="10" x="981" y="522.3652"/><rect fill="#FFFFFF" height="182.1152" style="stroke:#181818;stroke-width:1.0;" width="10" x="1108" y="654.2383"/><line style="stroke:#181818;stroke-width:0.5;stroke-dasharray:5.0,5.0;" x1="23" x2="23" y1="83.6211" y2="916.9355"/><line style="stroke:#181818;stroke-width:0.5;stroke-dasharray:5.0,5.0;" x1="272" x2="272" y1="83.6211" y2="916.9355"/><line style="stroke:#181818;stroke-width:0.5;stroke-dasharray:5.0,5.0;" x1="532" x2="532" y1="83.6211" y2="916.9355"/><line style="stroke:#181818;stroke-width:0.5;stroke-dasharray:5.0,5.0;" x1="743" x2="743" y1="83.6211" y2="916.9355"/><line style="stroke:#181818;stroke-width:0.5;stroke-dasharray:5.0,5.0;" x1="850" x2="850" y1="83.6211" y2="916.9355"/><line style="stroke:#181818;stroke-width:0.5;stroke-dasharray:5.0,5.0;" x1="986" x2="986" y1="83.6211" y2="916.9355"/><line style="stroke:#181818;stroke-width:0.5;stroke-dasharray:5.0,5.0;" x1="1113" x2="1113" y1="83.6211" y2="916.9355"/><line style="stroke:#181818;stroke-width:0.5;stroke-dasharray:5.0,5.0;" x1="1456" x2="1456" y1="703.3594" y2="916.9355"/><text fill="#000000" font-family="sans-serif" font-size="14" lengthAdjust="spacing" textLength="30" x="5" y="80.1074">HRM</text><ellipse cx="23" cy="13.5" fill="#E3E3E3" rx="8" ry="8" style="stroke:#181818;stroke-width:0.5;"/><path d="M23,21.5 L23,48.5 M10,29.5 L36,29.5 M23,48.5 L10,63.5 M23,48.5 L36,63.5 " fill="none" style="stroke:#181818;stroke-width:0.5;"/><text fill="#000000" font-family="sans-serif" font-size="14" lengthAdjust="spacing" textLength="30" x="5" y="931.043">HRM</text><ellipse cx="23" cy="943.0566" fill="#E3E3E3" rx="8" ry="8" style="stroke:#181818;stroke-width:0.5;"/><path d="M23,951.0566 L23,978.0566 M10,959.0566 L36,959.0566 M23,978.0566 L10,993.0566 M23,978.0566 L36,993.0566 " fill="none" style="stroke:#181818;stroke-width:0.5;"/><rect fill="#E3E3E3" height="32.6211" rx="2.5" ry="2.5" style="stroke:#181818;stroke-width:0.5;" width="105" x="220" y="50"/><text fill="#000000" font-family="sans-serif" font-size="14" lengthAdjust="spacing" textLength="91" x="227" y="72.1074">:RegisterJobUI</text><rect fill="#E3E3E3" height="32.6211" rx="2.5" ry="2.5" style="stroke:#181818;stroke-width:0.5;" width="105" x="220" y="915.9355"/><text fill="#000000" font-family="sans-serif" font-size="14" lengthAdjust="spacing" textLength="91" x="227" y="938.043">:RegisterJobUI</text><rect fill="#E3E3E3" height="32.6211" rx="2.5" ry="2.5" style="stroke:#181818;stroke-width:0.5;" width="155" x="455" y="50"/><text fill="#000000" font-family="sans-serif" font-size="14" lengthAdjust="spacing" textLength="141" x="462" y="72.1074">:RegisterJobController</text><rect fill="#E3E3E3" height="32.6211" rx="2.5" ry="2.5" style="stroke:#181818;stroke-width:0.5;" width="155" x="455" y="915.9355"/><text fill="#000000" font-family="sans-serif" font-size="14" lengthAdjust="spacing" textLength="141" x="462" y="938.043">:RegisterJobController</text><rect fill="#E3E3E3" height="32.6211" rx="2.5" ry="2.5" style="stroke:#181818;stroke-width:0.5;" width="97" x="695" y="50"/><text fill="#000000" font-family="sans-serif" font-size="14" lengthAdjust="spacing" textLength="83" x="702" y="72.1074">:Repositories</text><rect fill="#E3E3E3" height="32.6211" rx="2.5" ry="2.5" style="stroke:#181818;stroke-width:0.5;" width="97" x="695" y="915.9355"/><text fill="#000000" font-family="sans-serif" font-size="14" lengthAdjust="spacing" textLength="83" x="702" y="938.043">:Repositories</text><rect fill="#E3E3E3" height="51.2422" rx="2.5" ry="2.5" style="stroke:#181818;stroke-width:0.5;" width="97" x="802" y="31.3789"/><text fill="#000000" font-family="sans-serif" font-size="14" lengthAdjust="spacing" textLength="74" x="813.5" y="53.4863">repositories</text><text fill="#000000" font-family="sans-serif" font-size="14" lengthAdjust="spacing" textLength="83" x="809" y="72.1074">:Repositories</text><rect fill="#E3E3E3" height="51.2422" rx="2.5" ry="2.5" style="stroke:#181818;stroke-width:0.5;" width="97" x="802" y="915.9355"/><text fill="#000000" font-family="sans-serif" font-size="14" lengthAdjust="spacing" textLength="74" x="813.5" y="938.043">repositories</text><text fill="#000000" font-family="sans-serif" font-size="14" lengthAdjust="spacing" textLength="83" x="809" y="956.6641">:Repositories</text><rect fill="#E3E3E3" height="32.6211" rx="2.5" ry="2.5" style="stroke:#181818;stroke-width:0.5;" width="154" x="909" y="50"/><text fill="#000000" font-family="sans-serif" font-size="14" lengthAdjust="spacing" textLength="140" x="916" y="72.1074">employeeRepositories</text><rect fill="#E3E3E3" height="32.6211" rx="2.5" ry="2.5" style="stroke:#181818;stroke-width:0.5;" width="154" x="909" y="915.9355"/><text fill="#000000" font-family="sans-serif" font-size="14" lengthAdjust="spacing" textLength="140" x="916" y="938.043">employeeRepositories</text><rect fill="#E3E3E3" height="51.2422" rx="2.5" ry="2.5" style="stroke:#181818;stroke-width:0.5;" width="80" x="1073" y="31.3789"/><text fill="#000000" font-family="sans-serif" font-size="14" lengthAdjust="spacing" textLength="61" x="1082.5" y="53.4863">employee</text><text fill="#000000" font-family="sans-serif" font-size="14" lengthAdjust="spacing" textLength="66" x="1080" y="72.1074">:Employee</text><rect fill="#E3E3E3" height="51.2422" rx="2.5" ry="2.5" style="stroke:#181818;stroke-width:0.5;" width="80" x="1073" y="915.9355"/><text fill="#000000" font-family="sans-serif" font-size="14" lengthAdjust="spacing" textLength="61" x="1082.5" y="938.043">employee</text><text fill="#000000" font-family="sans-serif" font-size="14" lengthAdjust="spacing" textLength="66" x="1080" y="956.6641">:Employee</text><rect fill="#E3E3E3" height="51.2422" rx="2.5" ry="2.5" style="stroke:#181818;stroke-width:0.5;" width="40" x="1436" y="915.9355"/><text fill="#000000" font-family="sans-serif" font-size="14" lengthAdjust="spacing" textLength="19" x="1446.5" y="938.043">job</text><text fill="#000000" font-family="sans-serif" font-size="14" lengthAdjust="spacing" textLength="26" x="1443" y="956.6641">:Job</text><rect fill="#FFFFFF" height="805.3145" style="stroke:#181818;stroke-width:1.0;" width="10" x="18" y="93.6211"/><rect fill="#FFFFFF" height="31.291" style="stroke:#181818;stroke-width:1.0;" width="10" x="267.5" y="165.1641"/><rect fill="#FFFFFF" height="31.291" style="stroke:#181818;stroke-width:1.0;" width="10" x="267.5" y="227.7461"/><rect fill="#FFFFFF" height="608.6074" style="stroke:#181818;stroke-width:1.0;" width="10" x="267.5" y="290.3281"/><rect fill="#FFFFFF" height="546.0254" style="stroke:#181818;stroke-width:1.0;" width="10" x="527.5" y="321.6191"/><rect fill="#FFFFFF" height="230.0371" style="stroke:#181818;stroke-width:1.0;" width="10" x="532.5" y="360.9102"/><rect fill="#FFFFFF" height="31.291" style="stroke:#181818;stroke-width:1.0;" width="10" x="738.5" y="397.2012"/><rect fill="#FFFFFF" height="31.291" style="stroke:#181818;stroke-width:1.0;" width="10" x="845.5" y="459.7832"/><rect fill="#FFFFFF" height="31.291" style="stroke:#181818;stroke-width:1.0;" width="10" x="981" y="522.3652"/><rect fill="#FFFFFF" height="182.1152" style="stroke:#181818;stroke-width:1.0;" width="10" x="1108" y="654.2383"/><rect fill="none" height="43.252" style="stroke:#000000;stroke-width:1.5;" width="326" x="2" y="93.6211"/><path d="M2,93.6211 L64,93.6211 L64,102.6211 L54,112.6211 L2,112.6211 L2,93.6211 " fill="#EEEEEE" style="stroke:#000000;stroke-width:2.0;"/><text fill="#000000" font-family="sans-serif" font-size="13" font-weight="bold" lengthAdjust="spacing" textLength="17" x="15" y="109.6494">ref</text><text fill="#000000" font-family="sans-serif" font-size="12" lengthAdjust="spacing" textLength="308" x="11" y="129.5703">This action assumes that the user has already logged in</text><polygon fill="#181818" points="255.5,161.1641,265.5,165.1641,255.5,169.1641,259.5,165.1641" style="stroke:#181818;stroke-width:1.0;"/><line style="stroke:#181818;stroke-width:1.0;" x1="28" x2="261.5" y1="165.1641" y2="165.1641"/><text fill="#000000" font-family="sans-serif" font-size="13" font-weight="bold" lengthAdjust="spacing" textLength="7" x="35" y="159.9014">1</text><text fill="#000000" font-family="sans-serif" font-size="13" lengthAdjust="spacing" textLength="149" x="46" y="159.9014">asks to register a new job</text><polygon fill="#181818" points="39,192.4551,29,196.4551,39,200.4551,35,196.4551" style="stroke:#181818;stroke-width:1.0;"/><line style="stroke:#181818;stroke-width:1.0;stroke-dasharray:2.0,2.0;" x1="33" x2="271.5" y1="196.4551" y2="196.4551"/><text fill="#000000" font-family="sans-serif" font-size="13" font-weight="bold" lengthAdjust="spacing" textLength="7" x="45" y="191.1924">2</text><text fill="#000000" font-family="sans-serif" font-size="13" lengthAdjust="spacing" textLength="199" x="56" y="191.1924">requests job name and description</text><polygon fill="#181818" points="255.5,223.7461,265.5,227.7461,255.5,231.7461,259.5,227.7461" style="stroke:#181818;stroke-width:1.0;"/><line style="stroke:#181818;stroke-width:1.0;" x1="28" x2="261.5" y1="227.7461" y2="227.7461"/><text fill="#000000" font-family="sans-serif" font-size="13" font-weight="bold" lengthAdjust="spacing" textLength="7" x="35" y="222.4834">3</text><text fill="#000000" font-family="sans-serif" font-size="13" lengthAdjust="spacing" textLength="122" x="46" y="222.4834">types requested data</text><polygon fill="#181818" points="39,255.0371,29,259.0371,39,263.0371,35,259.0371" style="stroke:#181818;stroke-width:1.0;"/><line style="stroke:#181818;stroke-width:1.0;stroke-dasharray:2.0,2.0;" x1="33" x2="271.5" y1="259.0371" y2="259.0371"/><text fill="#000000" font-family="sans-serif" font-size="13" font-weight="bold" lengthAdjust="spacing" textLength="7" x="45" y="253.7744">4</text><text fill="#000000" font-family="sans-serif" font-size="13" lengthAdjust="spacing" textLength="202" x="56" y="253.7744">shows data and requests validation</text><polygon fill="#181818" points="255.5,286.3281,265.5,290.3281,255.5,294.3281,259.5,290.3281" style="stroke:#181818;stroke-width:1.0;"/><line style="stroke:#181818;stroke-width:1.0;" x1="28" x2="261.5" y1="290.3281" y2="290.3281"/><text fill="#000000" font-family="sans-serif" font-size="13" font-weight="bold" lengthAdjust="spacing" textLength="7" x="35" y="285.0654">5</text><text fill="#000000" font-family="sans-serif" font-size="13" lengthAdjust="spacing" textLength="78" x="46" y="285.0654">confirms data</text><polygon fill="#181818" points="515.5,317.6191,525.5,321.6191,515.5,325.6191,519.5,321.6191" style="stroke:#181818;stroke-width:1.0;"/><line style="stroke:#181818;stroke-width:1.0;" x1="277.5" x2="521.5" y1="321.6191" y2="321.6191"/><text fill="#000000" font-family="sans-serif" font-size="13" font-weight="bold" lengthAdjust="spacing" textLength="7" x="284.5" y="316.3564">6</text><text fill="#000000" font-family="sans-serif" font-size="13" lengthAdjust="spacing" textLength="220" x="295.5" y="316.3564">registerJob (jobName , jobDescription)</text><line style="stroke:#181818;stroke-width:1.0;" x1="537.5" x2="584.5" y1="347.9102" y2="347.9102"/><line style="stroke:#181818;stroke-width:1.0;" x1="584.5" x2="584.5" y1="347.9102" y2="360.9102"/><line style="stroke:#181818;stroke-width:1.0;" x1="543.5" x2="584.5" y1="360.9102" y2="360.9102"/><polygon fill="#181818" points="553.5,356.9102,543.5,360.9102,553.5,364.9102,549.5,360.9102" style="stroke:#181818;stroke-width:1.0;"/><text fill="#000000" font-family="sans-serif" font-size="13" font-weight="bold" lengthAdjust="spacing" textLength="7" x="549.5" y="342.6475">7</text><text fill="#000000" font-family="sans-serif" font-size="13" lengthAdjust="spacing" textLength="176" x="560.5" y="342.6475">getEmployeeFromRepository()</text><polygon fill="#181818" points="726.5,393.2012,736.5,397.2012,726.5,401.2012,730.5,397.2012" style="stroke:#181818;stroke-width:1.0;"/><line style="stroke:#181818;stroke-width:1.0;" x1="542.5" x2="732.5" y1="397.2012" y2="397.2012"/><text fill="#000000" font-family="sans-serif" font-size="13" font-weight="bold" lengthAdjust="spacing" textLength="7" x="549.5" y="391.9385">8</text><text fill="#000000" font-family="sans-serif" font-size="13" lengthAdjust="spacing" textLength="75" x="560.5" y="391.9385">getInstance()</text><polygon fill="#181818" points="553.5,424.4922,543.5,428.4922,553.5,432.4922,549.5,428.4922" style="stroke:#181818;stroke-width:1.0;"/><line style="stroke:#181818;stroke-width:1.0;stroke-dasharray:2.0,2.0;" x1="547.5" x2="742.5" y1="428.4922" y2="428.4922"/><text fill="#000000" font-family="sans-serif" font-size="13" font-weight="bold" lengthAdjust="spacing" textLength="7" x="559.5" y="423.2295">9</text><text fill="#000000" font-family="sans-serif" font-size="13" lengthAdjust="spacing" textLength="67" x="570.5" y="423.2295">repositories</text><polygon fill="#181818" points="833.5,455.7832,843.5,459.7832,833.5,463.7832,837.5,459.7832" style="stroke:#181818;stroke-width:1.0;"/><line style="stroke:#181818;stroke-width:1.0;" x1="542.5" x2="839.5" y1="459.7832" y2="459.7832"/><text fill="#000000" font-family="sans-serif" font-size="13" font-weight="bold" lengthAdjust="spacing" textLength="14" x="549.5" y="454.5205">10</text><text fill="#000000" font-family="sans-serif" font-size="13" lengthAdjust="spacing" textLength="156" x="567.5" y="454.5205">getEmployeeRepositories()</text><polygon fill="#181818" points="553.5,487.0742,543.5,491.0742,553.5,495.0742,549.5,491.0742" style="stroke:#181818;stroke-width:1.0;"/><line style="stroke:#181818;stroke-width:1.0;stroke-dasharray:2.0,2.0;" x1="547.5" x2="849.5" y1="491.0742" y2="491.0742"/><text fill="#000000" font-family="sans-serif" font-size="13" font-weight="bold" lengthAdjust="spacing" textLength="14" x="559.5" y="485.8115">11</text><text fill="#000000" font-family="sans-serif" font-size="13" lengthAdjust="spacing" textLength="130" x="577.5" y="485.8115">EmployeeRepositories</text><polygon fill="#181818" points="969,518.3652,979,522.3652,969,526.3652,973,522.3652" style="stroke:#181818;stroke-width:1.0;"/><line style="stroke:#181818;stroke-width:1.0;" x1="542.5" x2="975" y1="522.3652" y2="522.3652"/><text fill="#000000" font-family="sans-serif" font-size="13" font-weight="bold" lengthAdjust="spacing" textLength="14" x="549.5" y="517.1025">12</text><text fill="#000000" font-family="sans-serif" font-size="13" lengthAdjust="spacing" textLength="84" x="567.5" y="517.1025">getEmployee()</text><polygon fill="#181818" points="553.5,549.6563,543.5,553.6563,553.5,557.6563,549.5,553.6563" style="stroke:#181818;stroke-width:1.0;"/><line style="stroke:#181818;stroke-width:1.0;stroke-dasharray:2.0,2.0;" x1="547.5" x2="985" y1="553.6563" y2="553.6563"/><text fill="#000000" font-family="sans-serif" font-size="13" font-weight="bold" lengthAdjust="spacing" textLength="14" x="559.5" y="548.3936">13</text><text fill="#000000" font-family="sans-serif" font-size="13" lengthAdjust="spacing" textLength="56" x="577.5" y="548.3936">employee</text><line style="stroke:#181818;stroke-width:1.0;stroke-dasharray:2.0,2.0;" x1="542.5" x2="584.5" y1="589.9473" y2="589.9473"/><line style="stroke:#181818;stroke-width:1.0;stroke-dasharray:2.0,2.0;" x1="584.5" x2="584.5" y1="589.9473" y2="602.9473"/><line style="stroke:#181818;stroke-width:1.0;stroke-dasharray:2.0,2.0;" x1="537.5" x2="584.5" y1="602.9473" y2="602.9473"/><polygon fill="#181818" points="547.5,598.9473,537.5,602.9473,547.5,606.9473,543.5,602.9473" style="stroke:#181818;stroke-width:1.0;"/><text fill="#000000" font-family="sans-serif" font-size="13" font-weight="bold" lengthAdjust="spacing" textLength="14" x="549.5" y="584.6846">14</text><text fill="#000000" font-family="sans-serif" font-size="13" lengthAdjust="spacing" textLength="56" x="567.5" y="584.6846">employee</text><polygon fill="#181818" points="1096,650.2383,1106,654.2383,1096,658.2383,1100,654.2383" style="stroke:#181818;stroke-width:1.0;"/><line style="stroke:#181818;stroke-width:1.0;" x1="537.5" x2="1102" y1="654.2383" y2="654.2383"/><text fill="#000000" font-family="sans-serif" font-size="13" font-weight="bold" lengthAdjust="spacing" textLength="14" x="544.5" y="648.9756">15</text><text fill="#000000" font-family="sans-serif" font-size="13" lengthAdjust="spacing" textLength="276" x="562.5" y="648.9756">registerJob(employee, jobName, jobDescription)</text><polygon fill="#181818" points="1424,681.5293,1434,685.5293,1424,689.5293,1428,685.5293" style="stroke:#181818;stroke-width:1.0;"/><line style="stroke:#181818;stroke-width:1.0;" x1="1118" x2="1430" y1="685.5293" y2="685.5293"/><text fill="#000000" font-family="sans-serif" font-size="13" font-weight="bold" lengthAdjust="spacing" textLength="14" x="1125" y="680.2666">16</text><text fill="#000000" font-family="sans-serif" font-size="13" lengthAdjust="spacing" textLength="276" x="1143" y="680.2666">registerJob(employee, jobName, jobDescription)</text><rect fill="#E3E3E3" height="51.2422" rx="2.5" ry="2.5" style="stroke:#181818;stroke-width:0.5;" width="40" x="1436" y="662.2383"/><text fill="#000000" font-family="sans-serif" font-size="14" lengthAdjust="spacing" textLength="19" x="1446.5" y="684.3457">job</text><text fill="#000000" font-family="sans-serif" font-size="14" lengthAdjust="spacing" textLength="26" x="1443" y="702.9668">:Job</text><line style="stroke:#181818;stroke-width:1.0;" x1="1118" x2="1160" y1="747.7715" y2="747.7715"/><line style="stroke:#181818;stroke-width:1.0;" x1="1160" x2="1160" y1="747.7715" y2="760.7715"/><line style="stroke:#181818;stroke-width:1.0;" x1="1119" x2="1160" y1="760.7715" y2="760.7715"/><polygon fill="#181818" points="1129,756.7715,1119,760.7715,1129,764.7715,1125,760.7715" style="stroke:#181818;stroke-width:1.0;"/><text fill="#000000" font-family="sans-serif" font-size="13" font-weight="bold" lengthAdjust="spacing" textLength="14" x="1125" y="742.5088">17</text><text fill="#000000" font-family="sans-serif" font-size="13" lengthAdjust="spacing" textLength="88" x="1143" y="742.5088">validateJob(job)</text><line style="stroke:#181818;stroke-width:1.0;" x1="1118" x2="1160" y1="792.0625" y2="792.0625"/><line style="stroke:#181818;stroke-width:1.0;" x1="1160" x2="1160" y1="792.0625" y2="805.0625"/><line style="stroke:#181818;stroke-width:1.0;" x1="1119" x2="1160" y1="805.0625" y2="805.0625"/><polygon fill="#181818" points="1129,801.0625,1119,805.0625,1129,809.0625,1125,805.0625" style="stroke:#181818;stroke-width:1.0;"/><text fill="#000000" font-family="sans-serif" font-size="13" font-weight="bold" lengthAdjust="spacing" textLength="14" x="1125" y="786.7998">18</text><text fill="#000000" font-family="sans-serif" font-size="13" lengthAdjust="spacing" textLength="66" x="1143" y="786.7998">addJob(job)</text><polygon fill="#181818" points="548.5,832.3535,538.5,836.3535,548.5,840.3535,544.5,836.3535" style="stroke:#181818;stroke-width:1.0;"/><line style="stroke:#181818;stroke-width:1.0;stroke-dasharray:2.0,2.0;" x1="542.5" x2="1112" y1="836.3535" y2="836.3535"/><text fill="#000000" font-family="sans-serif" font-size="13" font-weight="bold" lengthAdjust="spacing" textLength="14" x="554.5" y="831.0908">19</text><text fill="#000000" font-family="sans-serif" font-size="13" lengthAdjust="spacing" textLength="17" x="572.5" y="831.0908">job</text><polygon fill="#181818" points="288.5,863.6445,278.5,867.6445,288.5,871.6445,284.5,867.6445" style="stroke:#181818;stroke-width:1.0;"/><line style="stroke:#181818;stroke-width:1.0;stroke-dasharray:2.0,2.0;" x1="282.5" x2="531.5" y1="867.6445" y2="867.6445"/><text fill="#000000" font-family="sans-serif" font-size="13" font-weight="bold" lengthAdjust="spacing" textLength="14" x="294.5" y="862.3818">20</text><text fill="#000000" font-family="sans-serif" font-size="13" lengthAdjust="spacing" textLength="17" x="312.5" y="862.3818">job</text><polygon fill="#181818" points="34,894.9355,24,898.9355,34,902.9355,30,898.9355" style="stroke:#181818;stroke-width:1.0;"/><line style="stroke:#181818;stroke-width:1.0;stroke-dasharray:2.0,2.0;" x1="28" x2="271.5" y1="898.9355" y2="898.9355"/><text fill="#000000" font-family="sans-serif" font-size="13" font-weight="bold" lengthAdjust="spacing" textLength="14" x="40" y="893.6729">21</text><text fill="#000000" font-family="sans-serif" font-size="13" lengthAdjust="spacing" textLength="158" x="58" y="893.6729">displays operation success</text><!--SRC=[dLNRKjim47tNL-pmGi8aF-27p518MnWeJ80tNXHxuwZOaYl9q7Ju-AxaIsHy6Le_vA8zUtIqgpqsBq8MNFCSSYLLlDSgHx2wH6RQIC7Z5vxYWpra21fZosMQXG2pvubw4pA57SyCCiPBgsIPRr4pTheN2S9EARjLlncFhT9mydrpUmBS07qpuh0Y5WMN5awY3QR2MDJNQljqvJ5FL-EG2oMjLbc6saCl7ZStFN2XZA1D1HgFQHSE3yATWvHsKtIGyIpx1FStvu_T3CoBJ1qGUz3rxVtDPdq_Z2RkTVsp0LErEb2bKox57sw5aaVTqREy6mnuck7G137f27CgaisthkYVQaiughWFNzzzOQwLufLRz4tKk0FrYjhzML3B88B7lJ3WG4fIZYbpD63ttD87Gca8koSgdcdaoG4obQQOW92CGVqG5InN5HatBvIjwFfLlGSE4j-0P1tnhI2wCUmKWeSebiHqVdbBL1f_bMYiWOHR3ZDIZXfbZ0j8qCHQ54xn0aZAJkcSP_0ikn6ByLwAc2ATvQJKlFeLAsFdB1Hm6jCfIPc_e3rfAxz-TaRYAXnZR42-gqSWdyuEajEuSfc4IZgf2NQg4eRQyaPW3mKrfsQcBhZATB2Z9BKqFz0H6O5wg-lgHBLINtac4lvVubnDbDm9dLV4xFEwgh92f8z-0JEgsWzNj8Mht-MnQlCHOj-nRimjBLVkCu8KRJF4NyaxZmCt-q3O9_qOzM99z811WT_eIXgotXXdyt7c8NVheOTsMBRbWj00Uxb1ppwrLtCgvvhGgLVebbD7ydxR9_Q4WUeXsYdr8xIDtjgwEugdL3PM_n5GhpkbrOrfx7zAMqFMltQJB053TMt3uFlxEnivgEzvEoEpXjkFY1kM_goCbQ2xfQDUhkXbuQtj7xSOO79VKMCcw7WeQJuAv4dIOlgW-kP4_XqotWSsCFm-sVdcH6g_0KSNZo0HfiZumO0gi7fhW2dZ68sPCiZWhtldqlCN]--></g></svg>