<?xml version="1.0" encoding="us-ascii" standalone="no"?><svg xmlns="http://www.w3.org/2000/svg" xmlns:xlink="http://www.w3.org/1999/xlink" contentStyleType="text/css" height="1166px" preserveAspectRatio="none" style="width:1569px;height:1166px;background:#FFFFFF;" version="1.1" viewBox="0 0 1569 1166" width="1569px" zoomAndPan="magnify"><defs/><g><rect fill="#FFFFFF" height="971.6914" style="stroke:#181818;stroke-width:1.0;" width="10" x="17.5" y="93.6211"/><rect fill="#FFFFFF" height="900.1484" style="stroke:#181818;stroke-width:1.0;" width="10" x="314.5" y="165.1641"/><rect fill="#FFFFFF" height="837.5664" style="stroke:#181818;stroke-width:1.0;" width="10" x="569.5" y="196.4551"/><rect fill="#FFFFFF" height="31.291" style="stroke:#181818;stroke-width:1.0;" width="10" x="811.5" y="227.7461"/><rect fill="#FFFFFF" height="31.291" style="stroke:#181818;stroke-width:1.0;" width="10" x="918.5" y="290.3281"/><rect fill="#FFFFFF" height="236.3281" style="stroke:#181818;stroke-width:1.0;" width="10" x="1042" y="766.4023"/><rect fill="#FFFFFF" height="93.873" style="stroke:#181818;stroke-width:1.0;" width="10" x="1147" y="846.2754"/><rect fill="#FFFFFF" height="31.291" style="stroke:#181818;stroke-width:1.0;" width="10" x="1523" y="877.5664"/><line style="stroke:#181818;stroke-width:0.5;stroke-dasharray:5.0,5.0;" x1="22" x2="22" y1="83.6211" y2="1083.3125"/><line style="stroke:#181818;stroke-width:0.5;stroke-dasharray:5.0,5.0;" x1="319.5" x2="319.5" y1="83.6211" y2="1083.3125"/><line style="stroke:#181818;stroke-width:0.5;stroke-dasharray:5.0,5.0;" x1="574" x2="574" y1="83.6211" y2="1083.3125"/><line style="stroke:#181818;stroke-width:0.5;stroke-dasharray:5.0,5.0;" x1="816" x2="816" y1="83.6211" y2="1083.3125"/><line style="stroke:#181818;stroke-width:0.5;stroke-dasharray:5.0,5.0;" x1="923" x2="923" y1="83.6211" y2="1083.3125"/><line style="stroke:#181818;stroke-width:0.5;stroke-dasharray:5.0,5.0;" x1="1047" x2="1047" y1="83.6211" y2="1083.3125"/><line style="stroke:#181818;stroke-width:0.5;stroke-dasharray:5.0,5.0;" x1="1152" x2="1152" y1="83.6211" y2="1083.3125"/><line style="stroke:#181818;stroke-width:0.5;stroke-dasharray:5.0,5.0;" x1="1527.5" x2="1527.5" y1="83.6211" y2="1083.3125"/><text fill="#000000" font-family="sans-serif" font-size="14" lengthAdjust="spacing" textLength="29" x="5" y="80.1074">VFM</text><ellipse cx="22.5" cy="13.5" fill="#E3E3E3" rx="8" ry="8" style="stroke:#181818;stroke-width:0.5;"/><path d="M22.5,21.5 L22.5,48.5 M9.5,29.5 L35.5,29.5 M22.5,48.5 L9.5,63.5 M22.5,48.5 L35.5,63.5 " fill="none" style="stroke:#181818;stroke-width:0.5;"/><text fill="#000000" font-family="sans-serif" font-size="14" lengthAdjust="spacing" textLength="29" x="5" y="1097.4199">VFM</text><ellipse cx="22.5" cy="1109.4336" fill="#E3E3E3" rx="8" ry="8" style="stroke:#181818;stroke-width:0.5;"/><path d="M22.5,1117.4336 L22.5,1144.4336 M9.5,1125.4336 L35.5,1125.4336 M22.5,1144.4336 L9.5,1159.4336 M22.5,1144.4336 L35.5,1159.4336 " fill="none" style="stroke:#181818;stroke-width:0.5;"/><rect fill="#E3E3E3" height="32.6211" rx="2.5" ry="2.5" style="stroke:#181818;stroke-width:0.5;" width="140" x="249.5" y="50"/><text fill="#000000" font-family="sans-serif" font-size="14" lengthAdjust="spacing" textLength="126" x="256.5" y="72.1074">:RegisterCheckUpUI</text><rect fill="#E3E3E3" height="32.6211" rx="2.5" ry="2.5" style="stroke:#181818;stroke-width:0.5;" width="140" x="249.5" y="1082.3125"/><text fill="#000000" font-family="sans-serif" font-size="14" lengthAdjust="spacing" textLength="126" x="256.5" y="1104.4199">:RegisterCheckUpUI</text><rect fill="#E3E3E3" height="32.6211" rx="2.5" ry="2.5" style="stroke:#181818;stroke-width:0.5;" width="137" x="506" y="50"/><text fill="#000000" font-family="sans-serif" font-size="14" lengthAdjust="spacing" textLength="123" x="513" y="72.1074">:CheckUpController</text><rect fill="#E3E3E3" height="32.6211" rx="2.5" ry="2.5" style="stroke:#181818;stroke-width:0.5;" width="137" x="506" y="1082.3125"/><text fill="#000000" font-family="sans-serif" font-size="14" lengthAdjust="spacing" textLength="123" x="513" y="1104.4199">:CheckUpController</text><rect fill="#E3E3E3" height="32.6211" rx="2.5" ry="2.5" style="stroke:#181818;stroke-width:0.5;" width="97" x="768" y="50"/><text fill="#000000" font-family="sans-serif" font-size="14" lengthAdjust="spacing" textLength="83" x="775" y="72.1074">:Repositories</text><rect fill="#E3E3E3" height="32.6211" rx="2.5" ry="2.5" style="stroke:#181818;stroke-width:0.5;" width="97" x="768" y="1082.3125"/><text fill="#000000" font-family="sans-serif" font-size="14" lengthAdjust="spacing" textLength="83" x="775" y="1104.4199">:Repositories</text><rect fill="#E3E3E3" height="51.2422" rx="2.5" ry="2.5" style="stroke:#181818;stroke-width:0.5;" width="97" x="875" y="31.3789"/><text fill="#000000" font-family="sans-serif" font-size="14" lengthAdjust="spacing" textLength="74" x="886.5" y="53.4863">repositories</text><text fill="#000000" font-family="sans-serif" font-size="14" lengthAdjust="spacing" textLength="83" x="882" y="72.1074">:Repositories</text><rect fill="#E3E3E3" height="51.2422" rx="2.5" ry="2.5" style="stroke:#181818;stroke-width:0.5;" width="97" x="875" y="1082.3125"/><text fill="#000000" font-family="sans-serif" font-size="14" lengthAdjust="spacing" textLength="74" x="886.5" y="1104.4199">repositories</text><text fill="#000000" font-family="sans-serif" font-size="14" lengthAdjust="spacing" textLength="83" x="882" y="1123.041">:Repositories</text><rect fill="#E3E3E3" height="51.2422" rx="2.5" ry="2.5" style="stroke:#181818;stroke-width:0.5;" width="130" x="982" y="31.3789"/><text fill="#000000" font-family="sans-serif" font-size="14" lengthAdjust="spacing" textLength="116" x="989" y="53.4863">vehicleRepository:</text><text fill="#000000" font-family="sans-serif" font-size="14" lengthAdjust="spacing" textLength="114" x="990" y="72.1074">VehicleRepository</text><rect fill="#E3E3E3" height="51.2422" rx="2.5" ry="2.5" style="stroke:#181818;stroke-width:0.5;" width="130" x="982" y="1082.3125"/><text fill="#000000" font-family="sans-serif" font-size="14" lengthAdjust="spacing" textLength="116" x="989" y="1104.4199">vehicleRepository:</text><text fill="#000000" font-family="sans-serif" font-size="14" lengthAdjust="spacing" textLength="114" x="990" y="1123.041">VehicleRepository</text><rect fill="#E3E3E3" height="32.6211" rx="2.5" ry="2.5" style="stroke:#181818;stroke-width:0.5;" width="60" x="1122" y="50"/><text fill="#000000" font-family="sans-serif" font-size="14" lengthAdjust="spacing" textLength="46" x="1129" y="72.1074">Vehicle</text><rect fill="#E3E3E3" height="32.6211" rx="2.5" ry="2.5" style="stroke:#181818;stroke-width:0.5;" width="60" x="1122" y="1082.3125"/><text fill="#000000" font-family="sans-serif" font-size="14" lengthAdjust="spacing" textLength="46" x="1129" y="1104.4199">Vehicle</text><rect fill="#E3E3E3" height="32.6211" rx="2.5" ry="2.5" style="stroke:#181818;stroke-width:0.5;" width="71" x="1492.5" y="50"/><text fill="#000000" font-family="sans-serif" font-size="14" lengthAdjust="spacing" textLength="57" x="1499.5" y="72.1074">CheckUp</text><rect fill="#E3E3E3" height="32.6211" rx="2.5" ry="2.5" style="stroke:#181818;stroke-width:0.5;" width="71" x="1492.5" y="1082.3125"/><text fill="#000000" font-family="sans-serif" font-size="14" lengthAdjust="spacing" textLength="57" x="1499.5" y="1104.4199">CheckUp</text><rect fill="#FFFFFF" height="971.6914" style="stroke:#181818;stroke-width:1.0;" width="10" x="17.5" y="93.6211"/><rect fill="#FFFFFF" height="900.1484" style="stroke:#181818;stroke-width:1.0;" width="10" x="314.5" y="165.1641"/><rect fill="#FFFFFF" height="837.5664" style="stroke:#181818;stroke-width:1.0;" width="10" x="569.5" y="196.4551"/><rect fill="#FFFFFF" height="31.291" style="stroke:#181818;stroke-width:1.0;" width="10" x="811.5" y="227.7461"/><rect fill="#FFFFFF" height="31.291" style="stroke:#181818;stroke-width:1.0;" width="10" x="918.5" y="290.3281"/><rect fill="#FFFFFF" height="236.3281" style="stroke:#181818;stroke-width:1.0;" width="10" x="1042" y="766.4023"/><rect fill="#FFFFFF" height="93.873" style="stroke:#181818;stroke-width:1.0;" width="10" x="1147" y="846.2754"/><rect fill="#FFFFFF" height="31.291" style="stroke:#181818;stroke-width:1.0;" width="10" x="1523" y="877.5664"/><rect fill="none" height="43.252" style="stroke:#000000;stroke-width:1.5;" width="390.5" x="2" y="93.6211"/><path d="M2,93.6211 L64,93.6211 L64,102.6211 L54,112.6211 L2,112.6211 L2,93.6211 " fill="#EEEEEE" style="stroke:#000000;stroke-width:2.0;"/><text fill="#000000" font-family="sans-serif" font-size="13" font-weight="bold" lengthAdjust="spacing" textLength="17" x="15" y="109.6494">ref</text><text fill="#000000" font-family="sans-serif" font-size="12" lengthAdjust="spacing" textLength="308" x="43.25" y="129.5703">This action assumes that the user has already logged in</text><polygon fill="#181818" points="302.5,161.1641,312.5,165.1641,302.5,169.1641,306.5,165.1641" style="stroke:#181818;stroke-width:1.0;"/><line style="stroke:#181818;stroke-width:1.0;" x1="27.5" x2="308.5" y1="165.1641" y2="165.1641"/><text fill="#000000" font-family="sans-serif" font-size="13" font-weight="bold" lengthAdjust="spacing" textLength="7" x="34.5" y="159.9014">1</text><text fill="#000000" font-family="sans-serif" font-size="13" lengthAdjust="spacing" textLength="170" x="45.5" y="159.9014">Initiates check-up registration</text><polygon fill="#181818" points="557.5,192.4551,567.5,196.4551,557.5,200.4551,561.5,196.4551" style="stroke:#181818;stroke-width:1.0;"/><line style="stroke:#181818;stroke-width:1.0;" x1="324.5" x2="563.5" y1="196.4551" y2="196.4551"/><text fill="#000000" font-family="sans-serif" font-size="13" font-weight="bold" lengthAdjust="spacing" textLength="7" x="331.5" y="191.1924">2</text><text fill="#000000" font-family="sans-serif" font-size="13" lengthAdjust="spacing" textLength="116" x="342.5" y="191.1924">CheckUpController()</text><polygon fill="#181818" points="799.5,223.7461,809.5,227.7461,799.5,231.7461,803.5,227.7461" style="stroke:#181818;stroke-width:1.0;"/><line style="stroke:#181818;stroke-width:1.0;" x1="579.5" x2="805.5" y1="227.7461" y2="227.7461"/><text fill="#000000" font-family="sans-serif" font-size="13" font-weight="bold" lengthAdjust="spacing" textLength="7" x="586.5" y="222.4834">3</text><text fill="#000000" font-family="sans-serif" font-size="13" lengthAdjust="spacing" textLength="75" x="597.5" y="222.4834">getInstance()</text><polygon fill="#181818" points="590.5,255.0371,580.5,259.0371,590.5,263.0371,586.5,259.0371" style="stroke:#181818;stroke-width:1.0;"/><line style="stroke:#181818;stroke-width:1.0;stroke-dasharray:2.0,2.0;" x1="584.5" x2="815.5" y1="259.0371" y2="259.0371"/><text fill="#000000" font-family="sans-serif" font-size="13" font-weight="bold" lengthAdjust="spacing" textLength="7" x="596.5" y="253.7744">4</text><text fill="#000000" font-family="sans-serif" font-size="13" lengthAdjust="spacing" textLength="67" x="607.5" y="253.7744">repositories</text><polygon fill="#181818" points="906.5,286.3281,916.5,290.3281,906.5,294.3281,910.5,290.3281" style="stroke:#181818;stroke-width:1.0;"/><line style="stroke:#181818;stroke-width:1.0;" x1="579.5" x2="912.5" y1="290.3281" y2="290.3281"/><text fill="#000000" font-family="sans-serif" font-size="13" font-weight="bold" lengthAdjust="spacing" textLength="7" x="586.5" y="285.0654">5</text><text fill="#000000" font-family="sans-serif" font-size="13" lengthAdjust="spacing" textLength="131" x="597.5" y="285.0654">getVehicleRepository()</text><polygon fill="#181818" points="590.5,317.6191,580.5,321.6191,590.5,325.6191,586.5,321.6191" style="stroke:#181818;stroke-width:1.0;"/><line style="stroke:#181818;stroke-width:1.0;stroke-dasharray:2.0,2.0;" x1="584.5" x2="922.5" y1="321.6191" y2="321.6191"/><text fill="#000000" font-family="sans-serif" font-size="13" font-weight="bold" lengthAdjust="spacing" textLength="7" x="596.5" y="316.3564">6</text><text fill="#000000" font-family="sans-serif" font-size="13" lengthAdjust="spacing" textLength="101" x="607.5" y="316.3564">vehicleRepository</text><polygon fill="#181818" points="38.5,348.9102,28.5,352.9102,38.5,356.9102,34.5,352.9102" style="stroke:#181818;stroke-width:1.0;"/><line style="stroke:#181818;stroke-width:1.0;stroke-dasharray:2.0,2.0;" x1="32.5" x2="313.5" y1="352.9102" y2="352.9102"/><text fill="#000000" font-family="sans-serif" font-size="13" font-weight="bold" lengthAdjust="spacing" textLength="7" x="44.5" y="347.6475">7</text><text fill="#000000" font-family="sans-serif" font-size="13" lengthAdjust="spacing" textLength="150" x="55.5" y="347.6475">requestRegistrationPlate()</text><polygon fill="#181818" points="302.5,380.2012,312.5,384.2012,302.5,388.2012,306.5,384.2012" style="stroke:#181818;stroke-width:1.0;"/><line style="stroke:#181818;stroke-width:1.0;" x1="27.5" x2="308.5" y1="384.2012" y2="384.2012"/><text fill="#000000" font-family="sans-serif" font-size="13" font-weight="bold" lengthAdjust="spacing" textLength="7" x="34.5" y="378.9385">8</text><text fill="#000000" font-family="sans-serif" font-size="13" lengthAdjust="spacing" textLength="205" x="45.5" y="378.9385">types data (String registrationPlate)</text><line style="stroke:#181818;stroke-width:1.0;stroke-dasharray:2.0,2.0;" x1="324.5" x2="366.5" y1="415.4922" y2="415.4922"/><line style="stroke:#181818;stroke-width:1.0;stroke-dasharray:2.0,2.0;" x1="366.5" x2="366.5" y1="415.4922" y2="428.4922"/><line style="stroke:#181818;stroke-width:1.0;stroke-dasharray:2.0,2.0;" x1="325.5" x2="366.5" y1="428.4922" y2="428.4922"/><polygon fill="#181818" points="335.5,424.4922,325.5,428.4922,335.5,432.4922,331.5,428.4922" style="stroke:#181818;stroke-width:1.0;"/><text fill="#000000" font-family="sans-serif" font-size="13" font-weight="bold" lengthAdjust="spacing" textLength="7" x="331.5" y="410.2295">9</text><text fill="#000000" font-family="sans-serif" font-size="13" lengthAdjust="spacing" textLength="151" x="342.5" y="410.2295">validates data input format</text><polygon fill="#181818" points="38.5,455.7832,28.5,459.7832,38.5,463.7832,34.5,459.7832" style="stroke:#181818;stroke-width:1.0;"/><line style="stroke:#181818;stroke-width:1.0;stroke-dasharray:2.0,2.0;" x1="32.5" x2="313.5" y1="459.7832" y2="459.7832"/><text fill="#000000" font-family="sans-serif" font-size="13" font-weight="bold" lengthAdjust="spacing" textLength="14" x="44.5" y="454.5205">10</text><text fill="#000000" font-family="sans-serif" font-size="13" lengthAdjust="spacing" textLength="131" x="62.5" y="454.5205">requestCheckUpDate()</text><polygon fill="#181818" points="302.5,487.0742,312.5,491.0742,302.5,495.0742,306.5,491.0742" style="stroke:#181818;stroke-width:1.0;"/><line style="stroke:#181818;stroke-width:1.0;" x1="27.5" x2="308.5" y1="491.0742" y2="491.0742"/><text fill="#000000" font-family="sans-serif" font-size="13" font-weight="bold" lengthAdjust="spacing" textLength="14" x="34.5" y="485.8115">11</text><text fill="#000000" font-family="sans-serif" font-size="13" lengthAdjust="spacing" textLength="182" x="52.5" y="485.8115">types data (Date checkUpDate)</text><line style="stroke:#181818;stroke-width:1.0;stroke-dasharray:2.0,2.0;" x1="324.5" x2="366.5" y1="522.3652" y2="522.3652"/><line style="stroke:#181818;stroke-width:1.0;stroke-dasharray:2.0,2.0;" x1="366.5" x2="366.5" y1="522.3652" y2="535.3652"/><line style="stroke:#181818;stroke-width:1.0;stroke-dasharray:2.0,2.0;" x1="325.5" x2="366.5" y1="535.3652" y2="535.3652"/><polygon fill="#181818" points="335.5,531.3652,325.5,535.3652,335.5,539.3652,331.5,535.3652" style="stroke:#181818;stroke-width:1.0;"/><text fill="#000000" font-family="sans-serif" font-size="13" font-weight="bold" lengthAdjust="spacing" textLength="14" x="331.5" y="517.1025">12</text><text fill="#000000" font-family="sans-serif" font-size="13" lengthAdjust="spacing" textLength="151" x="349.5" y="517.1025">validates data input format</text><polygon fill="#181818" points="38.5,562.6563,28.5,566.6563,38.5,570.6563,34.5,566.6563" style="stroke:#181818;stroke-width:1.0;"/><line style="stroke:#181818;stroke-width:1.0;stroke-dasharray:2.0,2.0;" x1="32.5" x2="313.5" y1="566.6563" y2="566.6563"/><text fill="#000000" font-family="sans-serif" font-size="13" font-weight="bold" lengthAdjust="spacing" textLength="14" x="44.5" y="561.3936">13</text><text fill="#000000" font-family="sans-serif" font-size="13" lengthAdjust="spacing" textLength="162" x="62.5" y="561.3936">requestKmAtLastCheckUp()</text><polygon fill="#181818" points="302.5,593.9473,312.5,597.9473,302.5,601.9473,306.5,597.9473" style="stroke:#181818;stroke-width:1.0;"/><line style="stroke:#181818;stroke-width:1.0;" x1="27.5" x2="308.5" y1="597.9473" y2="597.9473"/><text fill="#000000" font-family="sans-serif" font-size="13" font-weight="bold" lengthAdjust="spacing" textLength="14" x="34.5" y="592.6846">14</text><text fill="#000000" font-family="sans-serif" font-size="13" lengthAdjust="spacing" textLength="224" x="52.5" y="592.6846">types data (double kmAtLastCheckUp)</text><line style="stroke:#181818;stroke-width:1.0;stroke-dasharray:2.0,2.0;" x1="324.5" x2="366.5" y1="629.2383" y2="629.2383"/><line style="stroke:#181818;stroke-width:1.0;stroke-dasharray:2.0,2.0;" x1="366.5" x2="366.5" y1="629.2383" y2="642.2383"/><line style="stroke:#181818;stroke-width:1.0;stroke-dasharray:2.0,2.0;" x1="325.5" x2="366.5" y1="642.2383" y2="642.2383"/><polygon fill="#181818" points="335.5,638.2383,325.5,642.2383,335.5,646.2383,331.5,642.2383" style="stroke:#181818;stroke-width:1.0;"/><text fill="#000000" font-family="sans-serif" font-size="13" font-weight="bold" lengthAdjust="spacing" textLength="14" x="331.5" y="623.9756">15</text><text fill="#000000" font-family="sans-serif" font-size="13" lengthAdjust="spacing" textLength="151" x="349.5" y="623.9756">validates data input format</text><polygon fill="#181818" points="557.5,686.8203,567.5,690.8203,557.5,694.8203,561.5,690.8203" style="stroke:#181818;stroke-width:1.0;"/><line style="stroke:#181818;stroke-width:1.0;" x1="324.5" x2="563.5" y1="690.8203" y2="690.8203"/><text fill="#000000" font-family="sans-serif" font-size="13" font-weight="bold" lengthAdjust="spacing" textLength="14" x="331.5" y="676.9121">16</text><text fill="#000000" font-family="sans-serif" font-size="13" lengthAdjust="spacing" textLength="198" x="349.5" y="668.2666">registerCheckUp(registrationPlate,</text><text fill="#000000" font-family="sans-serif" font-size="13" lengthAdjust="spacing" textLength="199" x="353.5" y="685.5576">checkUpDate, kmAtLastCheckUp)</text><line style="stroke:#181818;stroke-width:1.0;stroke-dasharray:2.0,2.0;" x1="579.5" x2="621.5" y1="722.1113" y2="722.1113"/><line style="stroke:#181818;stroke-width:1.0;stroke-dasharray:2.0,2.0;" x1="621.5" x2="621.5" y1="722.1113" y2="735.1113"/><line style="stroke:#181818;stroke-width:1.0;stroke-dasharray:2.0,2.0;" x1="580.5" x2="621.5" y1="735.1113" y2="735.1113"/><polygon fill="#181818" points="590.5,731.1113,580.5,735.1113,590.5,739.1113,586.5,735.1113" style="stroke:#181818;stroke-width:1.0;"/><text fill="#000000" font-family="sans-serif" font-size="13" font-weight="bold" lengthAdjust="spacing" textLength="14" x="586.5" y="716.8486">17</text><text fill="#000000" font-family="sans-serif" font-size="13" lengthAdjust="spacing" textLength="200" x="604.5" y="716.8486">validates data (kmAtLastCheckUp)</text><polygon fill="#181818" points="1030,762.4023,1040,766.4023,1030,770.4023,1034,766.4023" style="stroke:#181818;stroke-width:1.0;"/><line style="stroke:#181818;stroke-width:1.0;" x1="579.5" x2="1036" y1="766.4023" y2="766.4023"/><text fill="#000000" font-family="sans-serif" font-size="13" font-weight="bold" lengthAdjust="spacing" textLength="14" x="586.5" y="761.1396">18</text><text fill="#000000" font-family="sans-serif" font-size="13" lengthAdjust="spacing" textLength="163" x="604.5" y="761.1396">getVehicle(registrationPlate)</text><polygon fill="#181818" points="590.5,793.6934,580.5,797.6934,590.5,801.6934,586.5,797.6934" style="stroke:#181818;stroke-width:1.0;"/><line style="stroke:#181818;stroke-width:1.0;stroke-dasharray:2.0,2.0;" x1="584.5" x2="1041" y1="797.6934" y2="797.6934"/><text fill="#000000" font-family="sans-serif" font-size="13" font-weight="bold" lengthAdjust="spacing" textLength="14" x="596.5" y="792.4307">19</text><text fill="#000000" font-family="sans-serif" font-size="13" lengthAdjust="spacing" textLength="39" x="614.5" y="792.4307">vehicle</text><polygon fill="#181818" points="1135,842.2754,1145,846.2754,1135,850.2754,1139,846.2754" style="stroke:#181818;stroke-width:1.0;"/><line style="stroke:#181818;stroke-width:1.0;" x1="579.5" x2="1141" y1="846.2754" y2="846.2754"/><text fill="#000000" font-family="sans-serif" font-size="13" font-weight="bold" lengthAdjust="spacing" textLength="14" x="586.5" y="832.3672">20</text><text fill="#000000" font-family="sans-serif" font-size="13" lengthAdjust="spacing" textLength="139" x="604.5" y="823.7217">vehicle.registerCheckUp</text><text fill="#000000" font-family="sans-serif" font-size="13" lengthAdjust="spacing" textLength="276" x="608.5" y="841.0127">(double kmAtLastCheckUp, Date checkUpDate)</text><polygon fill="#181818" points="1511,873.5664,1521,877.5664,1511,881.5664,1515,877.5664" style="stroke:#181818;stroke-width:1.0;"/><line style="stroke:#181818;stroke-width:1.0;" x1="1157" x2="1517" y1="877.5664" y2="877.5664"/><text fill="#000000" font-family="sans-serif" font-size="13" font-weight="bold" lengthAdjust="spacing" textLength="14" x="1164" y="872.3037">21</text><text fill="#000000" font-family="sans-serif" font-size="13" lengthAdjust="spacing" textLength="329" x="1182" y="872.3037">CheckUp(double kmAtLastCheckUp, Date checkUpDate)</text><polygon fill="#181818" points="1168,904.8574,1158,908.8574,1168,912.8574,1164,908.8574" style="stroke:#181818;stroke-width:1.0;"/><line style="stroke:#181818;stroke-width:1.0;stroke-dasharray:2.0,2.0;" x1="1162" x2="1527" y1="908.8574" y2="908.8574"/><text fill="#000000" font-family="sans-serif" font-size="13" font-weight="bold" lengthAdjust="spacing" textLength="14" x="1174" y="903.5947">22</text><text fill="#000000" font-family="sans-serif" font-size="13" lengthAdjust="spacing" textLength="90" x="1192" y="903.5947">updateSuccess</text><polygon fill="#181818" points="590.5,936.1484,580.5,940.1484,590.5,944.1484,586.5,940.1484" style="stroke:#181818;stroke-width:1.0;"/><line style="stroke:#181818;stroke-width:1.0;stroke-dasharray:2.0,2.0;" x1="584.5" x2="1151" y1="940.1484" y2="940.1484"/><text fill="#000000" font-family="sans-serif" font-size="13" font-weight="bold" lengthAdjust="spacing" textLength="14" x="596.5" y="934.8857">23</text><text fill="#000000" font-family="sans-serif" font-size="13" lengthAdjust="spacing" textLength="90" x="614.5" y="934.8857">updateSuccess</text><polygon fill="#181818" points="1030,967.4395,1040,971.4395,1030,975.4395,1034,971.4395" style="stroke:#181818;stroke-width:1.0;"/><line style="stroke:#181818;stroke-width:1.0;" x1="579.5" x2="1036" y1="971.4395" y2="971.4395"/><text fill="#000000" font-family="sans-serif" font-size="13" font-weight="bold" lengthAdjust="spacing" textLength="14" x="586.5" y="966.1768">24</text><text fill="#000000" font-family="sans-serif" font-size="13" lengthAdjust="spacing" textLength="129" x="604.5" y="966.1768">updateVehicle(vehicle)</text><polygon fill="#181818" points="590.5,998.7305,580.5,1002.7305,590.5,1006.7305,586.5,1002.7305" style="stroke:#181818;stroke-width:1.0;"/><line style="stroke:#181818;stroke-width:1.0;stroke-dasharray:2.0,2.0;" x1="584.5" x2="1046" y1="1002.7305" y2="1002.7305"/><text fill="#000000" font-family="sans-serif" font-size="13" font-weight="bold" lengthAdjust="spacing" textLength="14" x="596.5" y="997.4678">25</text><text fill="#000000" font-family="sans-serif" font-size="13" lengthAdjust="spacing" textLength="90" x="614.5" y="997.4678">updateSuccess</text><polygon fill="#181818" points="335.5,1030.0215,325.5,1034.0215,335.5,1038.0215,331.5,1034.0215" style="stroke:#181818;stroke-width:1.0;"/><line style="stroke:#181818;stroke-width:1.0;stroke-dasharray:2.0,2.0;" x1="329.5" x2="573.5" y1="1034.0215" y2="1034.0215"/><text fill="#000000" font-family="sans-serif" font-size="13" font-weight="bold" lengthAdjust="spacing" textLength="14" x="341.5" y="1028.7588">26</text><text fill="#000000" font-family="sans-serif" font-size="13" lengthAdjust="spacing" textLength="90" x="359.5" y="1028.7588">updateSuccess</text><polygon fill="#181818" points="33.5,1061.3125,23.5,1065.3125,33.5,1069.3125,29.5,1065.3125" style="stroke:#181818;stroke-width:1.0;"/><line style="stroke:#181818;stroke-width:1.0;stroke-dasharray:2.0,2.0;" x1="27.5" x2="318.5" y1="1065.3125" y2="1065.3125"/><text fill="#000000" font-family="sans-serif" font-size="13" font-weight="bold" lengthAdjust="spacing" textLength="14" x="39.5" y="1060.0498">27</text><text fill="#000000" font-family="sans-serif" font-size="13" lengthAdjust="spacing" textLength="245" x="57.5" y="1060.0498">display "CheckUp registered successfully"</text><!--SRC=[hLPBRzim3BxhLn2vB0MI_O0S1WmR1WJRWA5TU-f5jHbRY2nvafmj_twKNvNyghjLXm2n-FX8VYHbpqALtF022grqaXjT83XJ8RFzJScJCy_mpbqbWi74SPN9KC3cFDM_XShWnAL5ndZbjAgA9pICphjSf0WdhTsJ_iDuuhI1pSENxnj6wauaekJAmUPmYvcm3isd79FpVNb_t02tS7ySYBNNdxHoHak9Pc3dWhb89DvYgQqWNzV3eteOVgjDZxv6Xcf4xOr0E_1YWgj7jI19eOwSnwRQ-y7NDioDpw1FchXmXq1fOypW2VG5ZV-temJ10NxcmeANqeeYirM15bpE7VqWL9PaSmgOIuCylOBKMOOf2CKOq24piF_G63eguGHvif1u0Fkgf9BxkXZkZNimNgK7HEM1zf0-MPag4DaTVTpUz8hTwOrE5daeFUce1X0Lum0PkgEonDe49vpE08WBkgGqa8NzJ18E479cqMIA7P8NFCzaO8cSK2TanCdLcLaa_YBQHLJxUUgC6dfbxbx06l6MlFiky3NwLQ5rjm7dVqWo5kGdR1TtBQbLKkuuRE-SyJFG35LlXfvgpGkN8gqRhTQcMLev6fAcu6uHMPkYp-imUR6cankLjyNojVZell4UqmeygQwUQ8kSOyNNeretT4oyKRQZqkpWKONfsOsHCJRTPkHrbh0nyErij4jDFEhGg76t2ooB-lLXiNacTjEAJcJDMJMAkkNshFr-K1LVWXbUx62Ul_CJgj-daw4siBhj-hoPtXH2jBmZ5BtZVPYT0rIbPynTbIHeRQmJJhHdmw54QsQfTB5z-8SJmfXEyQltr0JxEgGTprlItB3_uUryy45GuqvPmV1kLarx25CszQIP7gwfiANarxxO_HYZ9vjjF9mgAQ_DkWryq5kCXG7HM_4l]--></g></svg>