<?xml version="1.0" encoding="us-ascii" standalone="no"?><svg xmlns="http://www.w3.org/2000/svg" xmlns:xlink="http://www.w3.org/1999/xlink" contentStyleType="text/css" height="1312px" preserveAspectRatio="none" style="width:547px;height:1312px;background:#FFFFFF;" version="1.1" viewBox="0 0 547 1312" width="547px" zoomAndPan="magnify"><defs/><g><!--class RegisterCheckUpUI--><g id="elem_RegisterCheckUpUI"><rect codeLine="7" fill="#F1F1F1" height="178.3477" id="RegisterCheckUpUI" rx="2.5" ry="2.5" style="stroke:#181818;stroke-width:0.5;" width="416" x="65.5" y="7"/><ellipse cx="208.25" cy="23" fill="#ADD1B2" rx="11" ry="11" style="stroke:#181818;stroke-width:1.0;"/><path d="M211.0156,18.875 Q211.1719,18.6563 211.3594,18.5469 Q211.5469,18.4375 211.7656,18.4375 Q212.1406,18.4375 212.375,18.7031 Q212.6094,18.9531 212.6094,19.5625 L212.6094,21.0156 Q212.6094,21.625 212.375,21.8906 Q212.1406,22.1563 211.7656,22.1563 Q211.4219,22.1563 211.2188,21.9531 Q211.0156,21.7656 210.9063,21.25 Q210.8594,20.8906 210.6719,20.7031 Q210.3438,20.3281 209.7344,20.1094 Q209.125,19.8906 208.5,19.8906 Q207.7344,19.8906 207.0938,20.2188 Q206.4688,20.5469 205.9688,21.2969 Q205.4844,22.0469 205.4844,23.0781 L205.4844,24.1719 Q205.4844,25.4063 206.375,26.2344 Q207.2656,27.0469 208.8594,27.0469 Q209.7969,27.0469 210.4531,26.7969 Q210.8438,26.6406 211.2656,26.2031 Q211.5313,25.9375 211.6719,25.8594 Q211.8281,25.7813 212.0313,25.7813 Q212.3594,25.7813 212.6094,26.0469 Q212.875,26.2969 212.875,26.6406 Q212.875,26.9844 212.5313,27.3906 Q212.0313,27.9688 211.2344,28.2969 Q210.1563,28.75 208.8594,28.75 Q207.3438,28.75 206.1406,28.125 Q205.1563,27.625 204.4688,26.5625 Q203.7813,25.4844 203.7813,24.2031 L203.7813,23.0469 Q203.7813,21.7188 204.3906,20.5781 Q205.0156,19.4219 206.1094,18.8125 Q207.2031,18.1875 208.4375,18.1875 Q209.1719,18.1875 209.8125,18.3594 Q210.4688,18.5156 211.0156,18.875 Z " fill="#000000"/><text fill="#000000" font-family="sans-serif" font-size="14" lengthAdjust="spacing" textLength="122" x="228.75" y="28.7969">RegisterCheckUpUI</text><line style="stroke:#181818;stroke-width:0.5;" x1="66.5" x2="480.5" y1="39" y2="39"/><line style="stroke:#181818;stroke-width:0.5;" x1="66.5" x2="480.5" y1="47" y2="47"/><text fill="#000000" font-family="sans-serif" font-size="14" lengthAdjust="spacing" textLength="134" x="71.5" y="66.1074">-CheckUpController()</text><text fill="#000000" font-family="sans-serif" font-size="14" lengthAdjust="spacing" textLength="39" x="71.5" y="84.7285">+run()</text><text fill="#000000" font-family="sans-serif" font-size="14" lengthAdjust="spacing" textLength="140" x="71.5" y="103.3496">+RegisterCheckUpUI()</text><text fill="#000000" font-family="sans-serif" font-size="14" lengthAdjust="spacing" textLength="171" x="71.5" y="121.9707">-requestRegistrationPlate()</text><text fill="#000000" font-family="sans-serif" font-size="14" lengthAdjust="spacing" textLength="150" x="71.5" y="140.5918">-requestCheckUpDate()</text><text fill="#000000" font-family="sans-serif" font-size="14" lengthAdjust="spacing" textLength="180" x="71.5" y="159.2129">-requestKmAtLastCheckUp()</text><text fill="#000000" font-family="sans-serif" font-size="14" lengthAdjust="spacing" textLength="404" x="71.5" y="177.834">-submitData(registrationPlate, checkUpDate, kmAtLastCheckUp)</text></g><!--class CheckUpController--><g id="elem_CheckUpController"><rect codeLine="17" fill="#F1F1F1" height="122.4844" id="CheckUpController" rx="2.5" ry="2.5" style="stroke:#181818;stroke-width:0.5;" width="533" x="7" y="246"/><ellipse cx="209.75" cy="262" fill="#ADD1B2" rx="11" ry="11" style="stroke:#181818;stroke-width:1.0;"/><path d="M212.5156,257.875 Q212.6719,257.6563 212.8594,257.5469 Q213.0469,257.4375 213.2656,257.4375 Q213.6406,257.4375 213.875,257.7031 Q214.1094,257.9531 214.1094,258.5625 L214.1094,260.0156 Q214.1094,260.625 213.875,260.8906 Q213.6406,261.1563 213.2656,261.1563 Q212.9219,261.1563 212.7188,260.9531 Q212.5156,260.7656 212.4063,260.25 Q212.3594,259.8906 212.1719,259.7031 Q211.8438,259.3281 211.2344,259.1094 Q210.625,258.8906 210,258.8906 Q209.2344,258.8906 208.5938,259.2188 Q207.9688,259.5469 207.4688,260.2969 Q206.9844,261.0469 206.9844,262.0781 L206.9844,263.1719 Q206.9844,264.4063 207.875,265.2344 Q208.7656,266.0469 210.3594,266.0469 Q211.2969,266.0469 211.9531,265.7969 Q212.3438,265.6406 212.7656,265.2031 Q213.0313,264.9375 213.1719,264.8594 Q213.3281,264.7813 213.5313,264.7813 Q213.8594,264.7813 214.1094,265.0469 Q214.375,265.2969 214.375,265.6406 Q214.375,265.9844 214.0313,266.3906 Q213.5313,266.9688 212.7344,267.2969 Q211.6563,267.75 210.3594,267.75 Q208.8438,267.75 207.6406,267.125 Q206.6563,266.625 205.9688,265.5625 Q205.2813,264.4844 205.2813,263.2031 L205.2813,262.0469 Q205.2813,260.7188 205.8906,259.5781 Q206.5156,258.4219 207.6094,257.8125 Q208.7031,257.1875 209.9375,257.1875 Q210.6719,257.1875 211.3125,257.3594 Q211.9688,257.5156 212.5156,257.875 Z " fill="#000000"/><text fill="#000000" font-family="sans-serif" font-size="14" lengthAdjust="spacing" textLength="119" x="230.25" y="267.7969">CheckUpController</text><line style="stroke:#181818;stroke-width:0.5;" x1="8" x2="539" y1="278" y2="278"/><line style="stroke:#181818;stroke-width:0.5;" x1="8" x2="539" y1="286" y2="286"/><text fill="#000000" font-family="sans-serif" font-size="14" lengthAdjust="spacing" textLength="149" x="13" y="305.1074">-getVehicleRepository()</text><text fill="#000000" font-family="sans-serif" font-size="14" lengthAdjust="spacing" textLength="271" x="13" y="323.7285">+CheckUpController(getVehicleRepository)</text><text fill="#000000" font-family="sans-serif" font-size="14" lengthAdjust="spacing" textLength="91" x="13" y="342.3496">+getInstance()</text><text fill="#000000" font-family="sans-serif" font-size="14" lengthAdjust="spacing" textLength="521" x="13" y="360.9707">+registerCheckUp(licensePlate: String, checkUpDate: Date, kmAtCheckUp: double)</text></g><!--class Repositories--><g id="elem_Repositories"><rect codeLine="24" fill="#F1F1F1" height="122.4844" id="Repositories" rx="2.5" ry="2.5" style="stroke:#181818;stroke-width:0.5;" width="164" x="7.5" y="460"/><ellipse cx="46.35" cy="476" fill="#ADD1B2" rx="11" ry="11" style="stroke:#181818;stroke-width:1.0;"/><path d="M49.1156,471.875 Q49.2719,471.6563 49.4594,471.5469 Q49.6469,471.4375 49.8656,471.4375 Q50.2406,471.4375 50.475,471.7031 Q50.7094,471.9531 50.7094,472.5625 L50.7094,474.0156 Q50.7094,474.625 50.475,474.8906 Q50.2406,475.1563 49.8656,475.1563 Q49.5219,475.1563 49.3188,474.9531 Q49.1156,474.7656 49.0063,474.25 Q48.9594,473.8906 48.7719,473.7031 Q48.4438,473.3281 47.8344,473.1094 Q47.225,472.8906 46.6,472.8906 Q45.8344,472.8906 45.1938,473.2188 Q44.5688,473.5469 44.0688,474.2969 Q43.5844,475.0469 43.5844,476.0781 L43.5844,477.1719 Q43.5844,478.4063 44.475,479.2344 Q45.3656,480.0469 46.9594,480.0469 Q47.8969,480.0469 48.5531,479.7969 Q48.9438,479.6406 49.3656,479.2031 Q49.6313,478.9375 49.7719,478.8594 Q49.9281,478.7813 50.1313,478.7813 Q50.4594,478.7813 50.7094,479.0469 Q50.975,479.2969 50.975,479.6406 Q50.975,479.9844 50.6313,480.3906 Q50.1313,480.9688 49.3344,481.2969 Q48.2563,481.75 46.9594,481.75 Q45.4438,481.75 44.2406,481.125 Q43.2563,480.625 42.5688,479.5625 Q41.8813,478.4844 41.8813,477.2031 L41.8813,476.0469 Q41.8813,474.7188 42.4906,473.5781 Q43.1156,472.4219 44.2094,471.8125 Q45.3031,471.1875 46.5375,471.1875 Q47.2719,471.1875 47.9125,471.3594 Q48.5688,471.5156 49.1156,471.875 Z " fill="#000000"/><text fill="#000000" font-family="sans-serif" font-size="14" lengthAdjust="spacing" textLength="79" x="65.65" y="481.7969">Repositories</text><line style="stroke:#181818;stroke-width:0.5;" x1="8.5" x2="170.5" y1="492" y2="492"/><text fill="#000000" font-family="sans-serif" font-size="14" lengthAdjust="spacing" textLength="119" x="13.5" y="511.1074">-VehicleRepository</text><line style="stroke:#181818;stroke-width:0.5;" x1="8.5" x2="170.5" y1="518.6211" y2="518.6211"/><text fill="#000000" font-family="sans-serif" font-size="14" lengthAdjust="spacing" textLength="94" x="13.5" y="537.7285">-Repositories()</text><text fill="#000000" font-family="sans-serif" font-size="14" lengthAdjust="spacing" textLength="91" x="13.5" y="556.3496">+getInstance()</text><text fill="#000000" font-family="sans-serif" font-size="14" lengthAdjust="spacing" textLength="152" x="13.5" y="574.9707">+getVehicleRepository()</text></g><!--class VehicleRepository--><g id="elem_VehicleRepository"><rect codeLine="31" fill="#F1F1F1" height="178.3477" id="VehicleRepository" rx="2.5" ry="2.5" style="stroke:#181818;stroke-width:0.5;" width="258" x="33.5" y="612"/><ellipse cx="101.25" cy="628" fill="#ADD1B2" rx="11" ry="11" style="stroke:#181818;stroke-width:1.0;"/><path d="M104.0156,623.875 Q104.1719,623.6563 104.3594,623.5469 Q104.5469,623.4375 104.7656,623.4375 Q105.1406,623.4375 105.375,623.7031 Q105.6094,623.9531 105.6094,624.5625 L105.6094,626.0156 Q105.6094,626.625 105.375,626.8906 Q105.1406,627.1563 104.7656,627.1563 Q104.4219,627.1563 104.2188,626.9531 Q104.0156,626.7656 103.9063,626.25 Q103.8594,625.8906 103.6719,625.7031 Q103.3438,625.3281 102.7344,625.1094 Q102.125,624.8906 101.5,624.8906 Q100.7344,624.8906 100.0938,625.2188 Q99.4688,625.5469 98.9688,626.2969 Q98.4844,627.0469 98.4844,628.0781 L98.4844,629.1719 Q98.4844,630.4063 99.375,631.2344 Q100.2656,632.0469 101.8594,632.0469 Q102.7969,632.0469 103.4531,631.7969 Q103.8438,631.6406 104.2656,631.2031 Q104.5313,630.9375 104.6719,630.8594 Q104.8281,630.7813 105.0313,630.7813 Q105.3594,630.7813 105.6094,631.0469 Q105.875,631.2969 105.875,631.6406 Q105.875,631.9844 105.5313,632.3906 Q105.0313,632.9688 104.2344,633.2969 Q103.1563,633.75 101.8594,633.75 Q100.3438,633.75 99.1406,633.125 Q98.1563,632.625 97.4688,631.5625 Q96.7813,630.4844 96.7813,629.2031 L96.7813,628.0469 Q96.7813,626.7188 97.3906,625.5781 Q98.0156,624.4219 99.1094,623.8125 Q100.2031,623.1875 101.4375,623.1875 Q102.1719,623.1875 102.8125,623.3594 Q103.4688,623.5156 104.0156,623.875 Z " fill="#000000"/><text fill="#000000" font-family="sans-serif" font-size="14" lengthAdjust="spacing" textLength="114" x="121.75" y="633.7969">VehicleRepository</text><line style="stroke:#181818;stroke-width:0.5;" x1="34.5" x2="290.5" y1="644" y2="644"/><text fill="#000000" font-family="sans-serif" font-size="14" lengthAdjust="spacing" textLength="92" x="39.5" y="663.1074">+List&lt;Vehicle&gt;</text><line style="stroke:#181818;stroke-width:0.5;" x1="34.5" x2="290.5" y1="670.6211" y2="670.6211"/><text fill="#000000" font-family="sans-serif" font-size="14" lengthAdjust="spacing" textLength="228" x="39.5" y="689.7285">+getVehicle(String registrationPlate)</text><text fill="#000000" font-family="sans-serif" font-size="14" lengthAdjust="spacing" textLength="246" x="39.5" y="708.3496">+getVehicles(ArrayList&lt;&gt;(vehiclesList))</text><text fill="#000000" font-family="sans-serif" font-size="14" lengthAdjust="spacing" textLength="108" x="39.5" y="726.9707">+updateVehicle()</text><text fill="#000000" font-family="sans-serif" font-size="14" lengthAdjust="spacing" textLength="99" x="39.5" y="745.5918">+existsVehicle()</text><text fill="#000000" font-family="sans-serif" font-size="14" lengthAdjust="spacing" textLength="42" x="39.5" y="764.2129">+add()</text><text fill="#000000" font-family="sans-serif" font-size="14" lengthAdjust="spacing" textLength="113" x="39.5" y="782.834">+validateVehicle()</text></g><!--class Vehicle--><g id="elem_Vehicle"><rect codeLine="41" fill="#F1F1F1" height="234.2109" id="Vehicle" rx="2.5" ry="2.5" style="stroke:#181818;stroke-width:0.5;" width="423" x="42" y="851"/><ellipse cx="226.25" cy="867" fill="#ADD1B2" rx="11" ry="11" style="stroke:#181818;stroke-width:1.0;"/><path d="M229.0156,862.875 Q229.1719,862.6563 229.3594,862.5469 Q229.5469,862.4375 229.7656,862.4375 Q230.1406,862.4375 230.375,862.7031 Q230.6094,862.9531 230.6094,863.5625 L230.6094,865.0156 Q230.6094,865.625 230.375,865.8906 Q230.1406,866.1563 229.7656,866.1563 Q229.4219,866.1563 229.2188,865.9531 Q229.0156,865.7656 228.9063,865.25 Q228.8594,864.8906 228.6719,864.7031 Q228.3438,864.3281 227.7344,864.1094 Q227.125,863.8906 226.5,863.8906 Q225.7344,863.8906 225.0938,864.2188 Q224.4688,864.5469 223.9688,865.2969 Q223.4844,866.0469 223.4844,867.0781 L223.4844,868.1719 Q223.4844,869.4063 224.375,870.2344 Q225.2656,871.0469 226.8594,871.0469 Q227.7969,871.0469 228.4531,870.7969 Q228.8438,870.6406 229.2656,870.2031 Q229.5313,869.9375 229.6719,869.8594 Q229.8281,869.7813 230.0313,869.7813 Q230.3594,869.7813 230.6094,870.0469 Q230.875,870.2969 230.875,870.6406 Q230.875,870.9844 230.5313,871.3906 Q230.0313,871.9688 229.2344,872.2969 Q228.1563,872.75 226.8594,872.75 Q225.3438,872.75 224.1406,872.125 Q223.1563,871.625 222.4688,870.5625 Q221.7813,869.4844 221.7813,868.2031 L221.7813,867.0469 Q221.7813,865.7188 222.3906,864.5781 Q223.0156,863.4219 224.1094,862.8125 Q225.2031,862.1875 226.4375,862.1875 Q227.1719,862.1875 227.8125,862.3594 Q228.4688,862.5156 229.0156,862.875 Z " fill="#000000"/><text fill="#000000" font-family="sans-serif" font-size="14" lengthAdjust="spacing" textLength="46" x="246.75" y="872.7969">Vehicle</text><line style="stroke:#181818;stroke-width:0.5;" x1="43" x2="464" y1="883" y2="883"/><text fill="#000000" font-family="sans-serif" font-size="14" lengthAdjust="spacing" textLength="157" x="48" y="902.1074">-registrationPlate : String</text><text fill="#000000" font-family="sans-serif" font-size="14" lengthAdjust="spacing" textLength="125" x="48" y="920.7285">-currentKm : double</text><text fill="#000000" font-family="sans-serif" font-size="14" lengthAdjust="spacing" textLength="202" x="48" y="939.3496">-checkUpKmFrequency : double</text><text fill="#000000" font-family="sans-serif" font-size="14" lengthAdjust="spacing" textLength="175" x="48" y="957.9707">-kmAtLastCheckUp : double</text><text fill="#000000" font-family="sans-serif" font-size="14" lengthAdjust="spacing" textLength="134" x="48" y="976.5918">-checkUpKm : double</text><line style="stroke:#181818;stroke-width:0.5;" x1="43" x2="464" y1="984.1055" y2="984.1055"/><text fill="#000000" font-family="sans-serif" font-size="14" lengthAdjust="spacing" textLength="254" x="48" y="1003.2129">-validateVehicle(String registrationPlate)</text><text fill="#000000" font-family="sans-serif" font-size="14" lengthAdjust="spacing" textLength="411" x="48" y="1021.834">+registerCheckUp(double kmAtLastCheckUp, Date checkUpDate)</text><text fill="#000000" font-family="sans-serif" font-size="14" lengthAdjust="spacing" textLength="111" x="48" y="1040.4551">+isCheckUpDue()</text><text fill="#000000" font-family="sans-serif" font-size="14" lengthAdjust="spacing" textLength="117" x="48" y="1059.0762">+getCheckUpList()</text><text fill="#000000" font-family="sans-serif" font-size="14" lengthAdjust="spacing" textLength="90" x="48" y="1077.6973">+compareTo()</text></g><!--class checkUp--><g id="elem_checkUp"><rect codeLine="54" fill="#F1F1F1" height="141.1055" id="checkUp" rx="2.5" ry="2.5" style="stroke:#181818;stroke-width:0.5;" width="375" x="66" y="1164"/><ellipse cx="222.25" cy="1180" fill="#ADD1B2" rx="11" ry="11" style="stroke:#181818;stroke-width:1.0;"/><path d="M225.0156,1175.875 Q225.1719,1175.6563 225.3594,1175.5469 Q225.5469,1175.4375 225.7656,1175.4375 Q226.1406,1175.4375 226.375,1175.7031 Q226.6094,1175.9531 226.6094,1176.5625 L226.6094,1178.0156 Q226.6094,1178.625 226.375,1178.8906 Q226.1406,1179.1563 225.7656,1179.1563 Q225.4219,1179.1563 225.2188,1178.9531 Q225.0156,1178.7656 224.9063,1178.25 Q224.8594,1177.8906 224.6719,1177.7031 Q224.3438,1177.3281 223.7344,1177.1094 Q223.125,1176.8906 222.5,1176.8906 Q221.7344,1176.8906 221.0938,1177.2188 Q220.4688,1177.5469 219.9688,1178.2969 Q219.4844,1179.0469 219.4844,1180.0781 L219.4844,1181.1719 Q219.4844,1182.4063 220.375,1183.2344 Q221.2656,1184.0469 222.8594,1184.0469 Q223.7969,1184.0469 224.4531,1183.7969 Q224.8438,1183.6406 225.2656,1183.2031 Q225.5313,1182.9375 225.6719,1182.8594 Q225.8281,1182.7813 226.0313,1182.7813 Q226.3594,1182.7813 226.6094,1183.0469 Q226.875,1183.2969 226.875,1183.6406 Q226.875,1183.9844 226.5313,1184.3906 Q226.0313,1184.9688 225.2344,1185.2969 Q224.1563,1185.75 222.8594,1185.75 Q221.3438,1185.75 220.1406,1185.125 Q219.1563,1184.625 218.4688,1183.5625 Q217.7813,1182.4844 217.7813,1181.2031 L217.7813,1180.0469 Q217.7813,1178.7188 218.3906,1177.5781 Q219.0156,1176.4219 220.1094,1175.8125 Q221.2031,1175.1875 222.4375,1175.1875 Q223.1719,1175.1875 223.8125,1175.3594 Q224.4688,1175.5156 225.0156,1175.875 Z " fill="#000000"/><text fill="#000000" font-family="sans-serif" font-size="14" lengthAdjust="spacing" textLength="54" x="242.75" y="1185.7969">checkUp</text><line style="stroke:#181818;stroke-width:0.5;" x1="67" x2="440" y1="1196" y2="1196"/><text fill="#000000" font-family="sans-serif" font-size="14" lengthAdjust="spacing" textLength="175" x="72" y="1215.1074">-kmAtLastCheckUp : double</text><text fill="#000000" font-family="sans-serif" font-size="14" lengthAdjust="spacing" textLength="131" x="72" y="1233.7285">-checkUpDate : Date</text><line style="stroke:#181818;stroke-width:0.5;" x1="67" x2="440" y1="1241.2422" y2="1241.2422"/><text fill="#000000" font-family="sans-serif" font-size="14" lengthAdjust="spacing" textLength="363" x="72" y="1260.3496">+CheckUp(double kmAtLastCheckUp, Date checkUpDate)</text><text fill="#000000" font-family="sans-serif" font-size="14" lengthAdjust="spacing" textLength="155" x="72" y="1278.9707">+getKmAtLastCheckUp()</text><text fill="#000000" font-family="sans-serif" font-size="14" lengthAdjust="spacing" textLength="125" x="72" y="1297.5918">+getCheckUpDate()</text></g><!--link RegisterCheckUpUI to CheckUpController--><g id="link_RegisterCheckUpUI_CheckUpController"><path codeLine="63" d="M273.5,185.03 C273.5,205.56 273.5,220.95 273.5,239.94 " fill="none" id="RegisterCheckUpUI-to-CheckUpController" style="stroke:#181818;stroke-width:1.0;stroke-dasharray:7.0,7.0;"/><polygon fill="#181818" points="273.5,245.94,277.5,236.94,273.5,240.94,269.5,236.94,273.5,245.94" style="stroke:#181818;stroke-width:1.0;"/><text fill="#000000" font-family="sans-serif" font-size="13" lengthAdjust="spacing" textLength="7" x="266.1992" y="207.4374">1</text><text fill="#000000" font-family="sans-serif" font-size="13" lengthAdjust="spacing" textLength="7" x="266.0953" y="234.9143">1</text></g><!--link CheckUpController to Repositories--><g id="link_CheckUpController_Repositories"><path codeLine="64" d="M221.27,368.18 C196.4,396.83 170.6716,426.4676 145.8016,455.1376 " fill="none" id="CheckUpController-to-Repositories" style="stroke:#181818;stroke-width:1.0;stroke-dasharray:7.0,7.0;"/><polygon fill="#181818" points="141.87,459.67,150.789,455.4925,145.1464,455.893,144.7459,450.2504,141.87,459.67" style="stroke:#181818;stroke-width:1.0;"/><text fill="#000000" font-family="sans-serif" font-size="13" lengthAdjust="spacing" textLength="7" x="207.4779" y="390.6888">1</text><text fill="#000000" font-family="sans-serif" font-size="13" lengthAdjust="spacing" textLength="7" x="140.5206" y="448.613">1</text></g><!--link Repositories to VehicleRepository--><g id="link_Repositories_VehicleRepository"><path codeLine="65" d="M114.21,582.26 C118.14,591.84 120.008,596.3668 124.128,606.4368 " fill="none" id="Repositories-to-VehicleRepository" style="stroke:#181818;stroke-width:1.0;"/><polygon fill="#181818" points="126.4,611.99,126.6941,602.1455,124.5067,607.3623,119.2899,605.1749,126.4,611.99" style="stroke:#181818;stroke-width:1.0;"/><text fill="#000000" font-family="sans-serif" font-size="13" lengthAdjust="spacing" textLength="7" x="107.8893" y="600.6698">1</text><text fill="#000000" font-family="sans-serif" font-size="13" lengthAdjust="spacing" textLength="7" x="115.9969" y="600.6361">1</text></g><!--link VehicleRepository to Vehicle--><g id="link_VehicleRepository_Vehicle"><path codeLine="66" d="M192.8,790.24 C199.47,809.66 204.6791,824.846 211.6691,845.176 " fill="none" id="VehicleRepository-to-Vehicle" style="stroke:#181818;stroke-width:1.0;"/><polygon fill="#181818" points="213.62,850.85,214.4764,841.0384,211.9943,846.1217,206.911,843.6396,213.62,850.85" style="stroke:#181818;stroke-width:1.0;"/><text fill="#000000" font-family="sans-serif" font-size="13" lengthAdjust="spacing" textLength="7" x="188.0194" y="812.3601">1</text><text fill="#000000" font-family="sans-serif" font-size="13" lengthAdjust="spacing" textLength="5" x="205.905" y="839.8314">*</text></g><!--link Vehicle to checkUp--><g id="link_Vehicle_checkUp"><path codeLine="67" d="M253.5,1085.01 C253.5,1111.94 253.5,1133.78 253.5,1157.98 " fill="none" id="Vehicle-to-checkUp" style="stroke:#181818;stroke-width:1.0;"/><polygon fill="#181818" points="253.5,1163.98,257.5,1154.98,253.5,1158.98,249.5,1154.98,253.5,1163.98" style="stroke:#181818;stroke-width:1.0;"/><text fill="#000000" font-family="sans-serif" font-size="13" lengthAdjust="spacing" textLength="96" x="254.5" y="1130.0283">registerCheckUp</text><text fill="#000000" font-family="sans-serif" font-size="13" lengthAdjust="spacing" textLength="7" x="246.2758" y="1107.0814">1</text><text fill="#000000" font-family="sans-serif" font-size="13" lengthAdjust="spacing" textLength="5" x="248.2422" y="1152.869">*</text></g><!--link CheckUpController to Vehicle--><g id="link_CheckUpController_Vehicle"><path codeLine="68" d="M286.17,368.03 C289.66,384.54 292.5,398 292.5,398 C292.5,398 309.5,612 309.5,612 C309.5,612 309.5,790 309.5,790 C309.5,790 302.5892,811.8293 292.0392,845.1893 " fill="none" id="CheckUpController-to-Vehicle" style="stroke:#181818;stroke-width:1.0;stroke-dasharray:7.0,7.0;"/><polygon fill="#181818" points="290.23,850.91,296.7576,843.535,291.7376,846.1427,289.1299,841.1228,290.23,850.91" style="stroke:#181818;stroke-width:1.0;"/><text fill="#000000" font-family="sans-serif" font-size="13" lengthAdjust="spacing" textLength="7" x="280.2876" y="390.5205">1</text><text fill="#000000" font-family="sans-serif" font-size="13" lengthAdjust="spacing" textLength="5" x="287.4229" y="839.8953">*</text></g><!--link CheckUpController to VehicleRepository--><g id="link_CheckUpController_VehicleRepository"><path codeLine="69" d="M268.67,368.13 C262.2,448.79 251.5,582 251.5,582 C251.5,582 245.5326,589.9094 232.6526,606.9894 " fill="none" id="CheckUpController-to-VehicleRepository" style="stroke:#181818;stroke-width:1.0;"/><polygon fill="#181818" points="229.04,611.78,237.6525,607.0025,232.0505,607.7879,231.2651,602.1858,229.04,611.78" style="stroke:#181818;stroke-width:1.0;"/><text fill="#000000" font-family="sans-serif" font-size="13" lengthAdjust="spacing" textLength="7" x="260.6548" y="390.6327">1</text><text fill="#000000" font-family="sans-serif" font-size="13" lengthAdjust="spacing" textLength="7" x="227.2605" y="600.7135">1</text></g><!--link Repositories to Repositories--><g id="link_Repositories_Repositories"><path codeLine="70" d="M171.51,504.39 C191.57,505.62 206.5,511.16 206.5,521 C206.5,530.84 197.5588,536.0128 177.4988,537.2428 " fill="none" id="Repositories-to-Repositories" style="stroke:#181818;stroke-width:1.0;"/><polygon fill="#181818" points="171.51,537.61,180.7379,541.0517,176.5006,537.304,180.2483,533.0667,171.51,537.61" style="stroke:#181818;stroke-width:1.0;"/><text fill="#000000" font-family="sans-serif" font-size="13" lengthAdjust="spacing" textLength="49" x="212.5" y="526.5283">instance</text></g><!--SRC=[bLHDRzim3BthLn0zEKjSRDTW212qA12qXw5PTrSKrX4YIvuaT_E6_VV9jkJAKjDXljZcUoBv-25pvhAXcjRGK7Qc5Uvj9n0qCajb9P2OYM1EzAX-S5d1CnKcHWINQBi6eL6YwtyYZ0bgpDPQpG-jnHrJSiz_8NmaX0mGF6B5ZKLzSq9sVcgUTl2RW7jARxXHqceb1EfYCG1BtShmcHtsGAdnUul6ZhYcbYlvHL2B2UxFtUR8VRsr3tHY1DIqXvfRnwU5JdslWBswMy5vxc51_WJ9cR8WkKBx3K-S2Np4HXbkbUw2rBmSRx4zsK4xQLmB6KvLcvUg49oXD3XaleQzQv2iPWhMyAh37rh3KRK7WP6MAJH74sHaMOtcc5fSJlH24QQ86UZ3BX-SliyUtQI-Yb4XP5tBeffYgpNj1c-RuiKR-z-5vxRDqHqCZhqHVpg6IOpqU0oVBrJm-R5KKIXVdYE41da2QxL6wMOKGaS2CFRflhuRnbYoBcKaKtdHGGAasV-ZckcmZQxIuAjXmkAPyyUv2OlPncFXZNqhWfMfsjqp-5N5zVGENJtVqLl6SM4SThA4_yzu2Iwr_BeOpFFxnIL8yklkwjCLN5zlXdUsv2I_As9-l59ajeezMewaV1tp5HheFV_3n0-i6SQcCYOjVY_HoEVRhBAycEfCL4-R6TR0_Ur1_W80]--></g></svg>