<?xml version="1.0" encoding="us-ascii" standalone="no"?><svg xmlns="http://www.w3.org/2000/svg" xmlns:xlink="http://www.w3.org/1999/xlink" contentStyleType="text/css" height="834px" preserveAspectRatio="none" style="width:1191px;height:834px;background:#FFFFFF;" version="1.1" viewBox="0 0 1191 834" width="1191px" zoomAndPan="magnify"><defs/><g><!--class CompleteTaskUI--><g id="elem_CompleteTaskUI"><rect codeLine="9" fill="#F1F1F1" height="48" id="CompleteTaskUI" rx="2.5" ry="2.5" style="stroke:#181818;stroke-width:0.5;" width="135" x="114" y="44"/><ellipse cx="129" cy="60" fill="#ADD1B2" rx="11" ry="11" style="stroke:#181818;stroke-width:1.0;"/><path d="M131.7656,55.875 Q131.9219,55.6563 132.1094,55.5469 Q132.2969,55.4375 132.5156,55.4375 Q132.8906,55.4375 133.125,55.7031 Q133.3594,55.9531 133.3594,56.5625 L133.3594,58.0156 Q133.3594,58.625 133.125,58.8906 Q132.8906,59.1563 132.5156,59.1563 Q132.1719,59.1563 131.9688,58.9531 Q131.7656,58.7656 131.6563,58.25 Q131.6094,57.8906 131.4219,57.7031 Q131.0938,57.3281 130.4844,57.1094 Q129.875,56.8906 129.25,56.8906 Q128.4844,56.8906 127.8438,57.2188 Q127.2188,57.5469 126.7188,58.2969 Q126.2344,59.0469 126.2344,60.0781 L126.2344,61.1719 Q126.2344,62.4063 127.125,63.2344 Q128.0156,64.0469 129.6094,64.0469 Q130.5469,64.0469 131.2031,63.7969 Q131.5938,63.6406 132.0156,63.2031 Q132.2813,62.9375 132.4219,62.8594 Q132.5781,62.7813 132.7813,62.7813 Q133.1094,62.7813 133.3594,63.0469 Q133.625,63.2969 133.625,63.6406 Q133.625,63.9844 133.2813,64.3906 Q132.7813,64.9688 131.9844,65.2969 Q130.9063,65.75 129.6094,65.75 Q128.0938,65.75 126.8906,65.125 Q125.9063,64.625 125.2188,63.5625 Q124.5313,62.4844 124.5313,61.2031 L124.5313,60.0469 Q124.5313,58.7188 125.1406,57.5781 Q125.7656,56.4219 126.8594,55.8125 Q127.9531,55.1875 129.1875,55.1875 Q129.9219,55.1875 130.5625,55.3594 Q131.2188,55.5156 131.7656,55.875 Z " fill="#000000"/><text fill="#000000" font-family="sans-serif" font-size="14" lengthAdjust="spacing" textLength="103" x="143" y="65.7969">CompleteTaskUI</text><line style="stroke:#181818;stroke-width:0.5;" x1="115" x2="248" y1="76" y2="76"/><line style="stroke:#181818;stroke-width:0.5;" x1="115" x2="248" y1="84" y2="84"/></g><!--class CompleteTaskController--><g id="elem_CompleteTaskController"><rect codeLine="13" fill="#F1F1F1" height="48" id="CompleteTaskController" rx="2.5" ry="2.5" style="stroke:#181818;stroke-width:0.5;" width="185" x="284" y="44"/><ellipse cx="299" cy="60" fill="#ADD1B2" rx="11" ry="11" style="stroke:#181818;stroke-width:1.0;"/><path d="M301.7656,55.875 Q301.9219,55.6563 302.1094,55.5469 Q302.2969,55.4375 302.5156,55.4375 Q302.8906,55.4375 303.125,55.7031 Q303.3594,55.9531 303.3594,56.5625 L303.3594,58.0156 Q303.3594,58.625 303.125,58.8906 Q302.8906,59.1563 302.5156,59.1563 Q302.1719,59.1563 301.9688,58.9531 Q301.7656,58.7656 301.6563,58.25 Q301.6094,57.8906 301.4219,57.7031 Q301.0938,57.3281 300.4844,57.1094 Q299.875,56.8906 299.25,56.8906 Q298.4844,56.8906 297.8438,57.2188 Q297.2188,57.5469 296.7188,58.2969 Q296.2344,59.0469 296.2344,60.0781 L296.2344,61.1719 Q296.2344,62.4063 297.125,63.2344 Q298.0156,64.0469 299.6094,64.0469 Q300.5469,64.0469 301.2031,63.7969 Q301.5938,63.6406 302.0156,63.2031 Q302.2813,62.9375 302.4219,62.8594 Q302.5781,62.7813 302.7813,62.7813 Q303.1094,62.7813 303.3594,63.0469 Q303.625,63.2969 303.625,63.6406 Q303.625,63.9844 303.2813,64.3906 Q302.7813,64.9688 301.9844,65.2969 Q300.9063,65.75 299.6094,65.75 Q298.0938,65.75 296.8906,65.125 Q295.9063,64.625 295.2188,63.5625 Q294.5313,62.4844 294.5313,61.2031 L294.5313,60.0469 Q294.5313,58.7188 295.1406,57.5781 Q295.7656,56.4219 296.8594,55.8125 Q297.9531,55.1875 299.1875,55.1875 Q299.9219,55.1875 300.5625,55.3594 Q301.2188,55.5156 301.7656,55.875 Z " fill="#000000"/><text fill="#000000" font-family="sans-serif" font-size="14" lengthAdjust="spacing" textLength="153" x="313" y="65.7969">CompleteTaskController</text><line style="stroke:#181818;stroke-width:0.5;" x1="285" x2="468" y1="76" y2="76"/><line style="stroke:#181818;stroke-width:0.5;" x1="285" x2="468" y1="84" y2="84"/></g><!--class Repositories--><g id="elem_Repositories"><rect codeLine="17" fill="#F1F1F1" height="122.4844" id="Repositories" rx="2.5" ry="2.5" style="stroke:#181818;stroke-width:0.5;" width="149" x="521" y="7"/><ellipse cx="553.1" cy="23" fill="#ADD1B2" rx="11" ry="11" style="stroke:#181818;stroke-width:1.0;"/><path d="M555.8656,18.875 Q556.0219,18.6563 556.2094,18.5469 Q556.3969,18.4375 556.6156,18.4375 Q556.9906,18.4375 557.225,18.7031 Q557.4594,18.9531 557.4594,19.5625 L557.4594,21.0156 Q557.4594,21.625 557.225,21.8906 Q556.9906,22.1563 556.6156,22.1563 Q556.2719,22.1563 556.0688,21.9531 Q555.8656,21.7656 555.7563,21.25 Q555.7094,20.8906 555.5219,20.7031 Q555.1938,20.3281 554.5844,20.1094 Q553.975,19.8906 553.35,19.8906 Q552.5844,19.8906 551.9438,20.2188 Q551.3188,20.5469 550.8188,21.2969 Q550.3344,22.0469 550.3344,23.0781 L550.3344,24.1719 Q550.3344,25.4063 551.225,26.2344 Q552.1156,27.0469 553.7094,27.0469 Q554.6469,27.0469 555.3031,26.7969 Q555.6938,26.6406 556.1156,26.2031 Q556.3813,25.9375 556.5219,25.8594 Q556.6781,25.7813 556.8813,25.7813 Q557.2094,25.7813 557.4594,26.0469 Q557.725,26.2969 557.725,26.6406 Q557.725,26.9844 557.3813,27.3906 Q556.8813,27.9688 556.0844,28.2969 Q555.0063,28.75 553.7094,28.75 Q552.1938,28.75 550.9906,28.125 Q550.0063,27.625 549.3188,26.5625 Q548.6313,25.4844 548.6313,24.2031 L548.6313,23.0469 Q548.6313,21.7188 549.2406,20.5781 Q549.8656,19.4219 550.9594,18.8125 Q552.0531,18.1875 553.2875,18.1875 Q554.0219,18.1875 554.6625,18.3594 Q555.3188,18.5156 555.8656,18.875 Z " fill="#000000"/><text fill="#000000" font-family="sans-serif" font-size="14" lengthAdjust="spacing" textLength="79" x="570.9" y="28.7969">Repositories</text><line style="stroke:#181818;stroke-width:0.5;" x1="522" x2="669" y1="39" y2="39"/><text fill="#000000" font-family="sans-serif" font-size="14" lengthAdjust="spacing" textLength="104" x="527" y="58.1074">-TaskRepository</text><line style="stroke:#181818;stroke-width:0.5;" x1="522" x2="669" y1="65.6211" y2="65.6211"/><text fill="#000000" font-family="sans-serif" font-size="14" lengthAdjust="spacing" textLength="94" x="527" y="84.7285">-Repositories()</text><text fill="#000000" font-family="sans-serif" font-size="14" lengthAdjust="spacing" textLength="91" x="527" y="103.3496">+getInstance()</text><text fill="#000000" font-family="sans-serif" font-size="14" lengthAdjust="spacing" textLength="137" x="527" y="121.9707">+getTaskRepository()</text></g><!--class TaskRepository--><g id="elem_TaskRepository"><rect codeLine="24" fill="#F1F1F1" height="85.2422" id="TaskRepository" rx="2.5" ry="2.5" style="stroke:#181818;stroke-width:0.5;" width="364" x="413.5" y="190"/><ellipse cx="541.75" cy="206" fill="#ADD1B2" rx="11" ry="11" style="stroke:#181818;stroke-width:1.0;"/><path d="M544.5156,201.875 Q544.6719,201.6563 544.8594,201.5469 Q545.0469,201.4375 545.2656,201.4375 Q545.6406,201.4375 545.875,201.7031 Q546.1094,201.9531 546.1094,202.5625 L546.1094,204.0156 Q546.1094,204.625 545.875,204.8906 Q545.6406,205.1563 545.2656,205.1563 Q544.9219,205.1563 544.7188,204.9531 Q544.5156,204.7656 544.4063,204.25 Q544.3594,203.8906 544.1719,203.7031 Q543.8438,203.3281 543.2344,203.1094 Q542.625,202.8906 542,202.8906 Q541.2344,202.8906 540.5938,203.2188 Q539.9688,203.5469 539.4688,204.2969 Q538.9844,205.0469 538.9844,206.0781 L538.9844,207.1719 Q538.9844,208.4063 539.875,209.2344 Q540.7656,210.0469 542.3594,210.0469 Q543.2969,210.0469 543.9531,209.7969 Q544.3438,209.6406 544.7656,209.2031 Q545.0313,208.9375 545.1719,208.8594 Q545.3281,208.7813 545.5313,208.7813 Q545.8594,208.7813 546.1094,209.0469 Q546.375,209.2969 546.375,209.6406 Q546.375,209.9844 546.0313,210.3906 Q545.5313,210.9688 544.7344,211.2969 Q543.6563,211.75 542.3594,211.75 Q540.8438,211.75 539.6406,211.125 Q538.6563,210.625 537.9688,209.5625 Q537.2813,208.4844 537.2813,207.2031 L537.2813,206.0469 Q537.2813,204.7188 537.8906,203.5781 Q538.5156,202.4219 539.6094,201.8125 Q540.7031,201.1875 541.9375,201.1875 Q542.6719,201.1875 543.3125,201.3594 Q543.9688,201.5156 544.5156,201.875 Z " fill="#000000"/><text fill="#000000" font-family="sans-serif" font-size="14" lengthAdjust="spacing" textLength="99" x="562.25" y="211.7969">TaskRepository</text><line style="stroke:#181818;stroke-width:0.5;" x1="414.5" x2="776.5" y1="222" y2="222"/><text fill="#000000" font-family="sans-serif" font-size="14" lengthAdjust="spacing" textLength="77" x="419.5" y="241.1074">+List&lt;Task&gt;</text><line style="stroke:#181818;stroke-width:0.5;" x1="414.5" x2="776.5" y1="248.6211" y2="248.6211"/><text fill="#000000" font-family="sans-serif" font-size="14" lengthAdjust="spacing" textLength="352" x="419.5" y="267.7285">+recordTaskCompletion(Task task, String observations)</text></g><!--class EmployeeRepository--><g id="elem_EmployeeRepository"><rect codeLine="29" fill="#F1F1F1" height="66.6211" id="EmployeeRepository" rx="2.5" ry="2.5" style="stroke:#181818;stroke-width:0.5;" width="182" x="812.5" y="199"/><ellipse cx="836.5" cy="215" fill="#ADD1B2" rx="11" ry="11" style="stroke:#181818;stroke-width:1.0;"/><path d="M839.2656,210.875 Q839.4219,210.6563 839.6094,210.5469 Q839.7969,210.4375 840.0156,210.4375 Q840.3906,210.4375 840.625,210.7031 Q840.8594,210.9531 840.8594,211.5625 L840.8594,213.0156 Q840.8594,213.625 840.625,213.8906 Q840.3906,214.1563 840.0156,214.1563 Q839.6719,214.1563 839.4688,213.9531 Q839.2656,213.7656 839.1563,213.25 Q839.1094,212.8906 838.9219,212.7031 Q838.5938,212.3281 837.9844,212.1094 Q837.375,211.8906 836.75,211.8906 Q835.9844,211.8906 835.3438,212.2188 Q834.7188,212.5469 834.2188,213.2969 Q833.7344,214.0469 833.7344,215.0781 L833.7344,216.1719 Q833.7344,217.4063 834.625,218.2344 Q835.5156,219.0469 837.1094,219.0469 Q838.0469,219.0469 838.7031,218.7969 Q839.0938,218.6406 839.5156,218.2031 Q839.7813,217.9375 839.9219,217.8594 Q840.0781,217.7813 840.2813,217.7813 Q840.6094,217.7813 840.8594,218.0469 Q841.125,218.2969 841.125,218.6406 Q841.125,218.9844 840.7813,219.3906 Q840.2813,219.9688 839.4844,220.2969 Q838.4063,220.75 837.1094,220.75 Q835.5938,220.75 834.3906,220.125 Q833.4063,219.625 832.7188,218.5625 Q832.0313,217.4844 832.0313,216.2031 L832.0313,215.0469 Q832.0313,213.7188 832.6406,212.5781 Q833.2656,211.4219 834.3594,210.8125 Q835.4531,210.1875 836.6875,210.1875 Q837.4219,210.1875 838.0625,210.3594 Q838.7188,210.5156 839.2656,210.875 Z " fill="#000000"/><text fill="#000000" font-family="sans-serif" font-size="14" lengthAdjust="spacing" textLength="130" x="852.5" y="220.7969">EmployeeRepository</text><line style="stroke:#181818;stroke-width:0.5;" x1="813.5" x2="993.5" y1="231" y2="231"/><line style="stroke:#181818;stroke-width:0.5;" x1="813.5" x2="993.5" y1="239" y2="239"/><text fill="#000000" font-family="sans-serif" font-size="14" lengthAdjust="spacing" textLength="170" x="818.5" y="258.1074">+getEmployee(): Employee</text></g><!--class Task--><g id="elem_Task"><rect codeLine="36" fill="#F1F1F1" height="85.2422" id="Task" rx="2.5" ry="2.5" style="stroke:#181818;stroke-width:0.5;" width="239" x="476" y="714"/><ellipse cx="575.75" cy="730" fill="#ADD1B2" rx="11" ry="11" style="stroke:#181818;stroke-width:1.0;"/><path d="M578.5156,725.875 Q578.6719,725.6563 578.8594,725.5469 Q579.0469,725.4375 579.2656,725.4375 Q579.6406,725.4375 579.875,725.7031 Q580.1094,725.9531 580.1094,726.5625 L580.1094,728.0156 Q580.1094,728.625 579.875,728.8906 Q579.6406,729.1563 579.2656,729.1563 Q578.9219,729.1563 578.7188,728.9531 Q578.5156,728.7656 578.4063,728.25 Q578.3594,727.8906 578.1719,727.7031 Q577.8438,727.3281 577.2344,727.1094 Q576.625,726.8906 576,726.8906 Q575.2344,726.8906 574.5938,727.2188 Q573.9688,727.5469 573.4688,728.2969 Q572.9844,729.0469 572.9844,730.0781 L572.9844,731.1719 Q572.9844,732.4063 573.875,733.2344 Q574.7656,734.0469 576.3594,734.0469 Q577.2969,734.0469 577.9531,733.7969 Q578.3438,733.6406 578.7656,733.2031 Q579.0313,732.9375 579.1719,732.8594 Q579.3281,732.7813 579.5313,732.7813 Q579.8594,732.7813 580.1094,733.0469 Q580.375,733.2969 580.375,733.6406 Q580.375,733.9844 580.0313,734.3906 Q579.5313,734.9688 578.7344,735.2969 Q577.6563,735.75 576.3594,735.75 Q574.8438,735.75 573.6406,735.125 Q572.6563,734.625 571.9688,733.5625 Q571.2813,732.4844 571.2813,731.2031 L571.2813,730.0469 Q571.2813,728.7188 571.8906,727.5781 Q572.5156,726.4219 573.6094,725.8125 Q574.7031,725.1875 575.9375,725.1875 Q576.6719,725.1875 577.3125,725.3594 Q577.9688,725.5156 578.5156,725.875 Z " fill="#000000"/><text fill="#000000" font-family="sans-serif" font-size="14" lengthAdjust="spacing" textLength="31" x="596.25" y="735.7969">Task</text><line style="stroke:#181818;stroke-width:0.5;" x1="477" x2="714" y1="746" y2="746"/><text fill="#000000" font-family="sans-serif" font-size="14" lengthAdjust="spacing" textLength="126" x="482" y="765.1074">-status : TaskStatus</text><line style="stroke:#181818;stroke-width:0.5;" x1="477" x2="714" y1="772.6211" y2="772.6211"/><text fill="#000000" font-family="sans-serif" font-size="14" lengthAdjust="spacing" textLength="227" x="482" y="791.7285">+setCompleted(String observations)</text></g><!--class TaskStatus--><g id="elem_TaskStatus"><rect codeLine="41" fill="#F1F1F1" height="141.1055" id="TaskStatus" rx="2.5" ry="2.5" style="stroke:#181818;stroke-width:0.5;" width="103" x="750" y="686"/><ellipse cx="765" cy="702" fill="#EB937F" rx="11" ry="11" style="stroke:#181818;stroke-width:1.0;"/><path d="M763.8594,702.7969 L763.8594,705.2969 L768.1875,705.2969 L768.1875,704.375 Q768.1875,703.7656 768.4219,703.5 Q768.6719,703.2344 769.0469,703.2344 Q769.4219,703.2344 769.6563,703.5 Q769.8906,703.7656 769.8906,704.375 L769.8906,707 L761.8906,707 Q761.2656,707 761,706.7656 Q760.75,706.5313 760.75,706.1406 Q760.75,705.7656 761.0156,705.5313 Q761.2813,705.2969 761.8906,705.2969 L762.1563,705.2969 L762.1563,698.6406 L761.8906,698.6406 Q761.2656,698.6406 761,698.4063 Q760.75,698.1719 760.75,697.7813 Q760.75,697.4063 761,697.1719 Q761.2656,696.9375 761.8906,696.9375 L769.5156,696.9375 L769.5156,699.5313 Q769.5156,700.1406 769.2813,700.4063 Q769.0625,700.6563 768.6719,700.6563 Q768.2969,700.6563 768.0625,700.4063 Q767.8281,700.1406 767.8281,699.5313 L767.8281,698.6406 L763.8594,698.6406 L763.8594,701.0938 L765.3438,701.0938 Q765.3438,700.4375 765.4688,700.25 Q765.7344,699.8438 766.2031,699.8438 Q766.5781,699.8438 766.8125,700.1094 Q767.0469,700.3594 767.0469,700.9688 L767.0469,702.9375 Q767.0469,703.4844 766.9219,703.6719 Q766.6563,704.0625 766.2031,704.0625 Q765.7344,704.0625 765.4688,703.6563 Q765.3438,703.4688 765.3438,702.7969 L763.8594,702.7969 Z " fill="#000000"/><text fill="#000000" font-family="sans-serif" font-size="14" lengthAdjust="spacing" textLength="71" x="779" y="707.7969">TaskStatus</text><line style="stroke:#181818;stroke-width:0.5;" x1="751" x2="852" y1="718" y2="718"/><text fill="#000000" font-family="sans-serif" font-size="14" lengthAdjust="spacing" textLength="63" x="756" y="737.1074">PLANNED</text><text fill="#000000" font-family="sans-serif" font-size="14" lengthAdjust="spacing" textLength="86" x="756" y="755.7285">POSTPONED</text><text fill="#000000" font-family="sans-serif" font-size="14" lengthAdjust="spacing" textLength="74" x="756" y="774.3496">CANCELED</text><text fill="#000000" font-family="sans-serif" font-size="14" lengthAdjust="spacing" textLength="39" x="756" y="792.9707">DONE</text><text fill="#000000" font-family="sans-serif" font-size="14" lengthAdjust="spacing" textLength="60" x="756" y="811.5918">PENDING</text><line style="stroke:#181818;stroke-width:0.5;" x1="751" x2="852" y1="819.1055" y2="819.1055"/></g><!--class Employee--><g id="elem_Employee"><rect codeLine="49" fill="#F1F1F1" height="271.4531" id="Employee" rx="2.5" ry="2.5" style="stroke:#181818;stroke-width:0.5;" width="1177" x="7" y="336"/><ellipse cx="560.25" cy="352" fill="#ADD1B2" rx="11" ry="11" style="stroke:#181818;stroke-width:1.0;"/><path d="M563.0156,347.875 Q563.1719,347.6563 563.3594,347.5469 Q563.5469,347.4375 563.7656,347.4375 Q564.1406,347.4375 564.375,347.7031 Q564.6094,347.9531 564.6094,348.5625 L564.6094,350.0156 Q564.6094,350.625 564.375,350.8906 Q564.1406,351.1563 563.7656,351.1563 Q563.4219,351.1563 563.2188,350.9531 Q563.0156,350.7656 562.9063,350.25 Q562.8594,349.8906 562.6719,349.7031 Q562.3438,349.3281 561.7344,349.1094 Q561.125,348.8906 560.5,348.8906 Q559.7344,348.8906 559.0938,349.2188 Q558.4688,349.5469 557.9688,350.2969 Q557.4844,351.0469 557.4844,352.0781 L557.4844,353.1719 Q557.4844,354.4063 558.375,355.2344 Q559.2656,356.0469 560.8594,356.0469 Q561.7969,356.0469 562.4531,355.7969 Q562.8438,355.6406 563.2656,355.2031 Q563.5313,354.9375 563.6719,354.8594 Q563.8281,354.7813 564.0313,354.7813 Q564.3594,354.7813 564.6094,355.0469 Q564.875,355.2969 564.875,355.6406 Q564.875,355.9844 564.5313,356.3906 Q564.0313,356.9688 563.2344,357.2969 Q562.1563,357.75 560.8594,357.75 Q559.3438,357.75 558.1406,357.125 Q557.1563,356.625 556.4688,355.5625 Q555.7813,354.4844 555.7813,353.2031 L555.7813,352.0469 Q555.7813,350.7188 556.3906,349.5781 Q557.0156,348.4219 558.1094,347.8125 Q559.2031,347.1875 560.4375,347.1875 Q561.1719,347.1875 561.8125,347.3594 Q562.4688,347.5156 563.0156,347.875 Z " fill="#000000"/><text fill="#000000" font-family="sans-serif" font-size="14" lengthAdjust="spacing" textLength="62" x="580.75" y="357.7969">Employee</text><line style="stroke:#181818;stroke-width:0.5;" x1="8" x2="1183" y1="368" y2="368"/><text fill="#000000" font-family="sans-serif" font-size="14" lengthAdjust="spacing" textLength="89" x="13" y="387.1074">-name : String</text><text fill="#000000" font-family="sans-serif" font-size="14" lengthAdjust="spacing" textLength="103" x="13" y="405.7285">-birthdate : Date</text><text fill="#000000" font-family="sans-serif" font-size="14" lengthAdjust="spacing" textLength="87" x="13" y="424.3496">-email : String</text><text fill="#000000" font-family="sans-serif" font-size="14" lengthAdjust="spacing" textLength="121" x="13" y="442.9707">-phoneNumber : int</text><text fill="#000000" font-family="sans-serif" font-size="14" lengthAdjust="spacing" textLength="142" x="13" y="461.5918">-admission date : Date</text><text fill="#000000" font-family="sans-serif" font-size="14" lengthAdjust="spacing" textLength="157" x="13" y="480.2129">-taxpayerNumber : String</text><text fill="#000000" font-family="sans-serif" font-size="14" lengthAdjust="spacing" textLength="105" x="13" y="498.834">-address : String</text><text fill="#000000" font-family="sans-serif" font-size="14" lengthAdjust="spacing" textLength="126" x="13" y="517.4551">-docNumber : String</text><text fill="#000000" font-family="sans-serif" font-size="14" lengthAdjust="spacing" textLength="100" x="13" y="536.0762">-jobTitle : String</text><text fill="#000000" font-family="sans-serif" font-size="14" lengthAdjust="spacing" textLength="4" x="13" y="554.6973">&#160;</text><text fill="#000000" font-family="sans-serif" font-size="14" lengthAdjust="spacing" textLength="44" x="13" y="573.3184">//todoo</text><line style="stroke:#181818;stroke-width:0.5;" x1="8" x2="1183" y1="580.832" y2="580.832"/><text fill="#000000" font-family="sans-serif" font-size="14" lengthAdjust="spacing" textLength="1165" x="13" y="599.9395">+addTaskAgenda(selectedGreenSpace : GreenSpace, selectedTask : Task, selectedDate : LocalDate, startTime : int, agenda : TaskPosition, userValidation : boolean) : Optional&lt;Task&gt;</text></g><!--link CompleteTaskUI to CompleteTaskController--><g id="link_CompleteTaskUI_CompleteTaskController"><path codeLine="65" d="M249.29,68 C255.32,68 264.1,68 277.75,68 " fill="none" id="CompleteTaskUI-to-CompleteTaskController" style="stroke:#181818;stroke-width:1.0;stroke-dasharray:7.0,7.0;"/><polygon fill="#181818" points="283.75,68,274.75,64,278.75,68,274.75,72,283.75,68" style="stroke:#181818;stroke-width:1.0;"/></g><!--link CompleteTaskController to Repositories--><g id="link_CompleteTaskController_Repositories"><path codeLine="67" d="M469.06,68 C487.65,68 507.75,68 514.73,68 " fill="none" id="CompleteTaskController-to-Repositories" style="stroke:#181818;stroke-width:1.0;stroke-dasharray:7.0,7.0;"/><polygon fill="#181818" points="520.73,68,511.73,64,515.73,68,511.73,72,520.73,68" style="stroke:#181818;stroke-width:1.0;"/><text fill="#000000" font-family="sans-serif" font-size="13" lengthAdjust="spacing" textLength="7" x="506.0253" y="64.1821">1</text></g><!--link Repositories to Repositories--><g id="link_Repositories_Repositories"><path codeLine="69" d="M670.22,51.27 C690.01,52.23 705,57.8 705,68 C705,78.2 696.003,83.4793 676.213,84.4393 " fill="none" id="Repositories-to-Repositories" style="stroke:#181818;stroke-width:1.0;"/><polygon fill="#181818" points="670.22,84.73,679.4032,88.2892,675.2141,84.4877,679.0156,80.2986,670.22,84.73" style="stroke:#181818;stroke-width:1.0;"/><text fill="#000000" font-family="sans-serif" font-size="13" lengthAdjust="spacing" textLength="49" x="711" y="73.5283">instance</text><text fill="#000000" font-family="sans-serif" font-size="13" lengthAdjust="spacing" textLength="7" x="677.9198" y="45.8052">1</text><text fill="#000000" font-family="sans-serif" font-size="13" lengthAdjust="spacing" textLength="7" x="677.9198" y="82.5589">1</text></g><!--link Repositories to EmployeeRepository--><g id="link_Repositories_EmployeeRepository"><path codeLine="70" d="M670.06,108.34 C722.67,136.09 787.0033,170.0403 836.4933,196.1503 " fill="none" id="Repositories-to-EmployeeRepository" style="stroke:#181818;stroke-width:1.0;"/><polygon fill="#181818" points="841.8,198.95,835.7064,191.2126,837.3777,196.6169,831.9734,198.2882,841.8,198.95" style="stroke:#181818;stroke-width:1.0;"/><text fill="#000000" font-family="sans-serif" font-size="13" lengthAdjust="spacing" textLength="7" x="678.1099" y="108.6419">1</text><text fill="#000000" font-family="sans-serif" font-size="13" lengthAdjust="spacing" textLength="7" x="821.9637" y="187.7657">1</text></g><!--link Repositories to TaskRepository--><g id="link_Repositories_TaskRepository"><path codeLine="71" d="M595.5,129.05 C595.5,149.3 595.5,165.44 595.5,183.94 " fill="none" id="Repositories-to-TaskRepository" style="stroke:#181818;stroke-width:1.0;"/><polygon fill="#181818" points="595.5,189.94,599.5,180.94,595.5,184.94,591.5,180.94,595.5,189.94" style="stroke:#181818;stroke-width:1.0;"/><text fill="#000000" font-family="sans-serif" font-size="13" lengthAdjust="spacing" textLength="7" x="588.0734" y="151.5429">1</text><text fill="#000000" font-family="sans-serif" font-size="13" lengthAdjust="spacing" textLength="7" x="587.9422" y="178.8345">1</text></g><!--link CompleteTaskController to Employee--><g id="link_CompleteTaskController_Employee"><path codeLine="73" d="M378.64,92.23 C383.61,146.1 395.5,275 395.5,275 C395.5,275 418.7499,297.7253 453.3899,331.5953 " fill="none" id="CompleteTaskController-to-Employee" style="stroke:#181818;stroke-width:1.0;stroke-dasharray:7.0,7.0;"/><polygon fill="#181818" points="457.68,335.79,454.0414,326.6379,454.105,332.2944,448.4485,332.358,457.68,335.79" style="stroke:#181818;stroke-width:1.0;"/></g><!--link EmployeeRepository to Employee--><g id="link_EmployeeRepository_Employee"><path codeLine="75" d="M861,266.21 C836.66,284.94 809.0655,306.1714 775.3355,332.1214 " fill="none" id="EmployeeRepository-to-Employee" style="stroke:#181818;stroke-width:1.0;"/><polygon fill="#181818" points="770.58,335.78,780.1523,333.4624,774.5429,332.7312,775.2742,327.1218,770.58,335.78" style="stroke:#181818;stroke-width:1.0;"/><text fill="#000000" font-family="sans-serif" font-size="13" lengthAdjust="spacing" textLength="7" x="846.0938" y="287.5507">1</text><text fill="#000000" font-family="sans-serif" font-size="13" lengthAdjust="spacing" textLength="7" x="772.9633" y="324.9169">1</text></g><!--link TaskRepository to Employee--><g id="link_TaskRepository_Employee"><path codeLine="76" d="M595.5,275.05 C595.5,292.44 595.5,307.73 595.5,329.78 " fill="none" id="TaskRepository-to-Employee" style="stroke:#181818;stroke-width:1.0;"/><polygon fill="#181818" points="595.5,335.78,599.5,326.78,595.5,330.78,591.5,326.78,595.5,335.78" style="stroke:#181818;stroke-width:1.0;"/><text fill="#000000" font-family="sans-serif" font-size="13" lengthAdjust="spacing" textLength="7" x="587.9422" y="297.2183">1</text><text fill="#000000" font-family="sans-serif" font-size="13" lengthAdjust="spacing" textLength="7" x="588.3086" y="324.9169">1</text></g><!--link Employee to Task--><g id="link_Employee_Task"><path codeLine="78" d="M595.5,607.37 C595.5,646.09 595.5,679.48 595.5,707.89 " fill="none" id="Employee-to-Task" style="stroke:#181818;stroke-width:1.0;"/><polygon fill="#181818" points="595.5,713.89,599.5,704.89,595.5,708.89,591.5,704.89,595.5,713.89" style="stroke:#181818;stroke-width:1.0;"/><text fill="#000000" font-family="sans-serif" font-size="13" lengthAdjust="spacing" textLength="53" x="596.5" y="652.0283">complete</text></g><!--link Task to TaskStatus--><g id="link_Task_TaskStatus"><path codeLine="80" d="M715.15,756.5 C725.26,756.5 732.83,756.5 732.83,756.5 C732.83,756.5 734.05,756.5 743.81,756.5 " fill="none" id="Task-to-TaskStatus" style="stroke:#181818;stroke-width:1.0;stroke-dasharray:7.0,7.0;"/><polygon fill="#181818" points="749.81,756.5,740.81,752.5,744.81,756.5,740.81,760.5,749.81,756.5" style="stroke:#181818;stroke-width:1.0;"/><text fill="#000000" font-family="sans-serif" font-size="13" lengthAdjust="spacing" textLength="7" x="723.0393" y="752.9854">1</text><text fill="#000000" font-family="sans-serif" font-size="13" lengthAdjust="spacing" textLength="7" x="735.0489" y="752.3461">1</text></g><!--SRC=[TLHDZzem4BtxLrXxMT02srvHjH82j4920JMqTnFFWelZYModRLhrltVi19BmmG4yyzxCl1bxU7OdPGfXHSvpD9WTBUR0lIs1jKWXifCuGEeh3Tn2veKvw2x17ON4NyeS-8VGhejePS1N1V02THKCzdm7HEkHTQ8oBPoRUM_LllImoj2awW_mJun5XCynBpHus0bt-hRYVndxTm-Qe_4MjGRReto50ftoQ1Ku0ZXzne5-yLUrhyiR3AFlvG1-PHmD88EEgnzDmALM7scglQoLyry2z5RRD5EqifOSvIiqWs1oJryZdj8aQBYuTs1_Ye2wJeqbXM05qDQXRbdGTKO6m-c5nVhYpWEWddpf-3GwqsZKsXpuyqpbu94GC6NUYMoIRjUp95akwlCctMqtPsi-I-RBTMCio5rpbibYbRpVTjPeD8BUvhIPHktQA-kFKlZWNz1FxOLSA7t5B8ve82dpFRs6ALV6rsuXS-KSDS9lidZnkn0Ls4jGDvsGqe9pLrw9sLts3zplbDSTzUo5Kuemija1Z1G31ves2-Ix1J0fhLmWjyQ8dmdnrkfxQfsBMlmQCw73cH0lhD-fE37gTiH5hDD4RiDBeQv7lAIh_2wqal4w2TuZQX1cICTD4Nn2Ds_rzTMZH8mlw6e5-UIDFzYzFhUpao7cwVDJRnyPwsrdWCVZMrfegTx2n_pRjNZClLh_HuedfBZTezi2T-kpg_-0kvnBiWY5Y2dF6X4iPeZyIIktsT7_]--></g></svg>