<?xml version="1.0" encoding="us-ascii" standalone="no"?><svg xmlns="http://www.w3.org/2000/svg" xmlns:xlink="http://www.w3.org/1999/xlink" contentStyleType="text/css" height="922px" preserveAspectRatio="none" style="width:487px;height:922px;background:#FFFFFF;" version="1.1" viewBox="0 0 487 922" width="487px" zoomAndPan="magnify"><defs/><g><!--class TaskUI--><g id="elem_TaskUI"><rect codeLine="7" fill="#F1F1F1" height="66.6211" id="TaskUI" rx="2.5" ry="2.5" style="stroke:#181818;stroke-width:0.5;" width="110" x="143" y="7"/><ellipse cx="173.75" cy="23" fill="#ADD1B2" rx="11" ry="11" style="stroke:#181818;stroke-width:1.0;"/><path d="M176.5156,18.875 Q176.6719,18.6563 176.8594,18.5469 Q177.0469,18.4375 177.2656,18.4375 Q177.6406,18.4375 177.875,18.7031 Q178.1094,18.9531 178.1094,19.5625 L178.1094,21.0156 Q178.1094,21.625 177.875,21.8906 Q177.6406,22.1563 177.2656,22.1563 Q176.9219,22.1563 176.7188,21.9531 Q176.5156,21.7656 176.4063,21.25 Q176.3594,20.8906 176.1719,20.7031 Q175.8438,20.3281 175.2344,20.1094 Q174.625,19.8906 174,19.8906 Q173.2344,19.8906 172.5938,20.2188 Q171.9688,20.5469 171.4688,21.2969 Q170.9844,22.0469 170.9844,23.0781 L170.9844,24.1719 Q170.9844,25.4063 171.875,26.2344 Q172.7656,27.0469 174.3594,27.0469 Q175.2969,27.0469 175.9531,26.7969 Q176.3438,26.6406 176.7656,26.2031 Q177.0313,25.9375 177.1719,25.8594 Q177.3281,25.7813 177.5313,25.7813 Q177.8594,25.7813 178.1094,26.0469 Q178.375,26.2969 178.375,26.6406 Q178.375,26.9844 178.0313,27.3906 Q177.5313,27.9688 176.7344,28.2969 Q175.6563,28.75 174.3594,28.75 Q172.8438,28.75 171.6406,28.125 Q170.6563,27.625 169.9688,26.5625 Q169.2813,25.4844 169.2813,24.2031 L169.2813,23.0469 Q169.2813,21.7188 169.8906,20.5781 Q170.5156,19.4219 171.6094,18.8125 Q172.7031,18.1875 173.9375,18.1875 Q174.6719,18.1875 175.3125,18.3594 Q175.9688,18.5156 176.5156,18.875 Z " fill="#000000"/><text fill="#000000" font-family="sans-serif" font-size="14" lengthAdjust="spacing" textLength="43" x="191.25" y="28.7969">TaskUI</text><line style="stroke:#181818;stroke-width:0.5;" x1="144" x2="252" y1="39" y2="39"/><text fill="#000000" font-family="sans-serif" font-size="14" lengthAdjust="spacing" textLength="98" x="149" y="58.1074">-TaskController</text><line style="stroke:#181818;stroke-width:0.5;" x1="144" x2="252" y1="65.6211" y2="65.6211"/></g><!--class TaskController--><g id="elem_TaskController"><rect codeLine="11" fill="#F1F1F1" height="85.2422" id="TaskController" rx="2.5" ry="2.5" style="stroke:#181818;stroke-width:0.5;" width="364" x="16" y="135"/><ellipse cx="147.25" cy="151" fill="#ADD1B2" rx="11" ry="11" style="stroke:#181818;stroke-width:1.0;"/><path d="M150.0156,146.875 Q150.1719,146.6563 150.3594,146.5469 Q150.5469,146.4375 150.7656,146.4375 Q151.1406,146.4375 151.375,146.7031 Q151.6094,146.9531 151.6094,147.5625 L151.6094,149.0156 Q151.6094,149.625 151.375,149.8906 Q151.1406,150.1563 150.7656,150.1563 Q150.4219,150.1563 150.2188,149.9531 Q150.0156,149.7656 149.9063,149.25 Q149.8594,148.8906 149.6719,148.7031 Q149.3438,148.3281 148.7344,148.1094 Q148.125,147.8906 147.5,147.8906 Q146.7344,147.8906 146.0938,148.2188 Q145.4688,148.5469 144.9688,149.2969 Q144.4844,150.0469 144.4844,151.0781 L144.4844,152.1719 Q144.4844,153.4063 145.375,154.2344 Q146.2656,155.0469 147.8594,155.0469 Q148.7969,155.0469 149.4531,154.7969 Q149.8438,154.6406 150.2656,154.2031 Q150.5313,153.9375 150.6719,153.8594 Q150.8281,153.7813 151.0313,153.7813 Q151.3594,153.7813 151.6094,154.0469 Q151.875,154.2969 151.875,154.6406 Q151.875,154.9844 151.5313,155.3906 Q151.0313,155.9688 150.2344,156.2969 Q149.1563,156.75 147.8594,156.75 Q146.3438,156.75 145.1406,156.125 Q144.1563,155.625 143.4688,154.5625 Q142.7813,153.4844 142.7813,152.2031 L142.7813,151.0469 Q142.7813,149.7188 143.3906,148.5781 Q144.0156,147.4219 145.1094,146.8125 Q146.2031,146.1875 147.4375,146.1875 Q148.1719,146.1875 148.8125,146.3594 Q149.4688,146.5156 150.0156,146.875 Z " fill="#000000"/><text fill="#000000" font-family="sans-serif" font-size="14" lengthAdjust="spacing" textLength="93" x="167.75" y="156.7969">TaskController</text><line style="stroke:#181818;stroke-width:0.5;" x1="17" x2="379" y1="167" y2="167"/><text fill="#000000" font-family="sans-serif" font-size="14" lengthAdjust="spacing" textLength="104" x="22" y="186.1074">-TaskRepository</text><line style="stroke:#181818;stroke-width:0.5;" x1="17" x2="379" y1="193.6211" y2="193.6211"/><text fill="#000000" font-family="sans-serif" font-size="14" lengthAdjust="spacing" textLength="352" x="22" y="212.7285">+recordTaskCompletion(Task task, String observations)</text></g><!--class Repositories--><g id="elem_Repositories"><rect codeLine="16" fill="#F1F1F1" height="122.4844" id="Repositories" rx="2.5" ry="2.5" style="stroke:#181818;stroke-width:0.5;" width="149" x="187.5" y="299"/><ellipse cx="219.6" cy="315" fill="#ADD1B2" rx="11" ry="11" style="stroke:#181818;stroke-width:1.0;"/><path d="M222.3656,310.875 Q222.5219,310.6563 222.7094,310.5469 Q222.8969,310.4375 223.1156,310.4375 Q223.4906,310.4375 223.725,310.7031 Q223.9594,310.9531 223.9594,311.5625 L223.9594,313.0156 Q223.9594,313.625 223.725,313.8906 Q223.4906,314.1563 223.1156,314.1563 Q222.7719,314.1563 222.5688,313.9531 Q222.3656,313.7656 222.2563,313.25 Q222.2094,312.8906 222.0219,312.7031 Q221.6938,312.3281 221.0844,312.1094 Q220.475,311.8906 219.85,311.8906 Q219.0844,311.8906 218.4438,312.2188 Q217.8188,312.5469 217.3188,313.2969 Q216.8344,314.0469 216.8344,315.0781 L216.8344,316.1719 Q216.8344,317.4063 217.725,318.2344 Q218.6156,319.0469 220.2094,319.0469 Q221.1469,319.0469 221.8031,318.7969 Q222.1938,318.6406 222.6156,318.2031 Q222.8813,317.9375 223.0219,317.8594 Q223.1781,317.7813 223.3813,317.7813 Q223.7094,317.7813 223.9594,318.0469 Q224.225,318.2969 224.225,318.6406 Q224.225,318.9844 223.8813,319.3906 Q223.3813,319.9688 222.5844,320.2969 Q221.5063,320.75 220.2094,320.75 Q218.6938,320.75 217.4906,320.125 Q216.5063,319.625 215.8188,318.5625 Q215.1313,317.4844 215.1313,316.2031 L215.1313,315.0469 Q215.1313,313.7188 215.7406,312.5781 Q216.3656,311.4219 217.4594,310.8125 Q218.5531,310.1875 219.7875,310.1875 Q220.5219,310.1875 221.1625,310.3594 Q221.8188,310.5156 222.3656,310.875 Z " fill="#000000"/><text fill="#000000" font-family="sans-serif" font-size="14" lengthAdjust="spacing" textLength="79" x="237.4" y="320.7969">Repositories</text><line style="stroke:#181818;stroke-width:0.5;" x1="188.5" x2="335.5" y1="331" y2="331"/><text fill="#000000" font-family="sans-serif" font-size="14" lengthAdjust="spacing" textLength="104" x="193.5" y="350.1074">-TaskRepository</text><line style="stroke:#181818;stroke-width:0.5;" x1="188.5" x2="335.5" y1="357.6211" y2="357.6211"/><text fill="#000000" font-family="sans-serif" font-size="14" lengthAdjust="spacing" textLength="94" x="193.5" y="376.7285">-Repositories()</text><text fill="#000000" font-family="sans-serif" font-size="14" lengthAdjust="spacing" textLength="91" x="193.5" y="395.3496">+getInstance()</text><text fill="#000000" font-family="sans-serif" font-size="14" lengthAdjust="spacing" textLength="137" x="193.5" y="413.9707">+getTaskRepository()</text></g><!--class TaskRepository--><g id="elem_TaskRepository"><rect codeLine="23" fill="#F1F1F1" height="85.2422" id="TaskRepository" rx="2.5" ry="2.5" style="stroke:#181818;stroke-width:0.5;" width="364" x="59" y="482"/><ellipse cx="187.25" cy="498" fill="#ADD1B2" rx="11" ry="11" style="stroke:#181818;stroke-width:1.0;"/><path d="M190.0156,493.875 Q190.1719,493.6563 190.3594,493.5469 Q190.5469,493.4375 190.7656,493.4375 Q191.1406,493.4375 191.375,493.7031 Q191.6094,493.9531 191.6094,494.5625 L191.6094,496.0156 Q191.6094,496.625 191.375,496.8906 Q191.1406,497.1563 190.7656,497.1563 Q190.4219,497.1563 190.2188,496.9531 Q190.0156,496.7656 189.9063,496.25 Q189.8594,495.8906 189.6719,495.7031 Q189.3438,495.3281 188.7344,495.1094 Q188.125,494.8906 187.5,494.8906 Q186.7344,494.8906 186.0938,495.2188 Q185.4688,495.5469 184.9688,496.2969 Q184.4844,497.0469 184.4844,498.0781 L184.4844,499.1719 Q184.4844,500.4063 185.375,501.2344 Q186.2656,502.0469 187.8594,502.0469 Q188.7969,502.0469 189.4531,501.7969 Q189.8438,501.6406 190.2656,501.2031 Q190.5313,500.9375 190.6719,500.8594 Q190.8281,500.7813 191.0313,500.7813 Q191.3594,500.7813 191.6094,501.0469 Q191.875,501.2969 191.875,501.6406 Q191.875,501.9844 191.5313,502.3906 Q191.0313,502.9688 190.2344,503.2969 Q189.1563,503.75 187.8594,503.75 Q186.3438,503.75 185.1406,503.125 Q184.1563,502.625 183.4688,501.5625 Q182.7813,500.4844 182.7813,499.2031 L182.7813,498.0469 Q182.7813,496.7188 183.3906,495.5781 Q184.0156,494.4219 185.1094,493.8125 Q186.2031,493.1875 187.4375,493.1875 Q188.1719,493.1875 188.8125,493.3594 Q189.4688,493.5156 190.0156,493.875 Z " fill="#000000"/><text fill="#000000" font-family="sans-serif" font-size="14" lengthAdjust="spacing" textLength="99" x="207.75" y="503.7969">TaskRepository</text><line style="stroke:#181818;stroke-width:0.5;" x1="60" x2="422" y1="514" y2="514"/><text fill="#000000" font-family="sans-serif" font-size="14" lengthAdjust="spacing" textLength="77" x="65" y="533.1074">+List&lt;Task&gt;</text><line style="stroke:#181818;stroke-width:0.5;" x1="60" x2="422" y1="540.6211" y2="540.6211"/><text fill="#000000" font-family="sans-serif" font-size="14" lengthAdjust="spacing" textLength="352" x="65" y="559.7285">+recordTaskCompletion(Task task, String observations)</text></g><!--class Task--><g id="elem_Task"><rect codeLine="28" fill="#F1F1F1" height="85.2422" id="Task" rx="2.5" ry="2.5" style="stroke:#181818;stroke-width:0.5;" width="239" x="241.5" y="628"/><ellipse cx="341.25" cy="644" fill="#ADD1B2" rx="11" ry="11" style="stroke:#181818;stroke-width:1.0;"/><path d="M344.0156,639.875 Q344.1719,639.6563 344.3594,639.5469 Q344.5469,639.4375 344.7656,639.4375 Q345.1406,639.4375 345.375,639.7031 Q345.6094,639.9531 345.6094,640.5625 L345.6094,642.0156 Q345.6094,642.625 345.375,642.8906 Q345.1406,643.1563 344.7656,643.1563 Q344.4219,643.1563 344.2188,642.9531 Q344.0156,642.7656 343.9063,642.25 Q343.8594,641.8906 343.6719,641.7031 Q343.3438,641.3281 342.7344,641.1094 Q342.125,640.8906 341.5,640.8906 Q340.7344,640.8906 340.0938,641.2188 Q339.4688,641.5469 338.9688,642.2969 Q338.4844,643.0469 338.4844,644.0781 L338.4844,645.1719 Q338.4844,646.4063 339.375,647.2344 Q340.2656,648.0469 341.8594,648.0469 Q342.7969,648.0469 343.4531,647.7969 Q343.8438,647.6406 344.2656,647.2031 Q344.5313,646.9375 344.6719,646.8594 Q344.8281,646.7813 345.0313,646.7813 Q345.3594,646.7813 345.6094,647.0469 Q345.875,647.2969 345.875,647.6406 Q345.875,647.9844 345.5313,648.3906 Q345.0313,648.9688 344.2344,649.2969 Q343.1563,649.75 341.8594,649.75 Q340.3438,649.75 339.1406,649.125 Q338.1563,648.625 337.4688,647.5625 Q336.7813,646.4844 336.7813,645.2031 L336.7813,644.0469 Q336.7813,642.7188 337.3906,641.5781 Q338.0156,640.4219 339.1094,639.8125 Q340.2031,639.1875 341.4375,639.1875 Q342.1719,639.1875 342.8125,639.3594 Q343.4688,639.5156 344.0156,639.875 Z " fill="#000000"/><text fill="#000000" font-family="sans-serif" font-size="14" lengthAdjust="spacing" textLength="31" x="361.75" y="649.7969">Task</text><line style="stroke:#181818;stroke-width:0.5;" x1="242.5" x2="479.5" y1="660" y2="660"/><text fill="#000000" font-family="sans-serif" font-size="14" lengthAdjust="spacing" textLength="126" x="247.5" y="679.1074">-status : TaskStatus</text><line style="stroke:#181818;stroke-width:0.5;" x1="242.5" x2="479.5" y1="686.6211" y2="686.6211"/><text fill="#000000" font-family="sans-serif" font-size="14" lengthAdjust="spacing" textLength="227" x="247.5" y="705.7285">+setCompleted(String observations)</text></g><!--class TaskStatus--><g id="elem_TaskStatus"><rect codeLine="33" fill="#F1F1F1" height="141.1055" id="TaskStatus" rx="2.5" ry="2.5" style="stroke:#181818;stroke-width:0.5;" width="103" x="136.5" y="774"/><ellipse cx="151.5" cy="790" fill="#EB937F" rx="11" ry="11" style="stroke:#181818;stroke-width:1.0;"/><path d="M150.3594,790.7969 L150.3594,793.2969 L154.6875,793.2969 L154.6875,792.375 Q154.6875,791.7656 154.9219,791.5 Q155.1719,791.2344 155.5469,791.2344 Q155.9219,791.2344 156.1563,791.5 Q156.3906,791.7656 156.3906,792.375 L156.3906,795 L148.3906,795 Q147.7656,795 147.5,794.7656 Q147.25,794.5313 147.25,794.1406 Q147.25,793.7656 147.5156,793.5313 Q147.7813,793.2969 148.3906,793.2969 L148.6563,793.2969 L148.6563,786.6406 L148.3906,786.6406 Q147.7656,786.6406 147.5,786.4063 Q147.25,786.1719 147.25,785.7813 Q147.25,785.4063 147.5,785.1719 Q147.7656,784.9375 148.3906,784.9375 L156.0156,784.9375 L156.0156,787.5313 Q156.0156,788.1406 155.7813,788.4063 Q155.5625,788.6563 155.1719,788.6563 Q154.7969,788.6563 154.5625,788.4063 Q154.3281,788.1406 154.3281,787.5313 L154.3281,786.6406 L150.3594,786.6406 L150.3594,789.0938 L151.8438,789.0938 Q151.8438,788.4375 151.9688,788.25 Q152.2344,787.8438 152.7031,787.8438 Q153.0781,787.8438 153.3125,788.1094 Q153.5469,788.3594 153.5469,788.9688 L153.5469,790.9375 Q153.5469,791.4844 153.4219,791.6719 Q153.1563,792.0625 152.7031,792.0625 Q152.2344,792.0625 151.9688,791.6563 Q151.8438,791.4688 151.8438,790.7969 L150.3594,790.7969 Z " fill="#000000"/><text fill="#000000" font-family="sans-serif" font-size="14" lengthAdjust="spacing" textLength="71" x="165.5" y="795.7969">TaskStatus</text><line style="stroke:#181818;stroke-width:0.5;" x1="137.5" x2="238.5" y1="806" y2="806"/><text fill="#000000" font-family="sans-serif" font-size="14" lengthAdjust="spacing" textLength="63" x="142.5" y="825.1074">PLANNED</text><text fill="#000000" font-family="sans-serif" font-size="14" lengthAdjust="spacing" textLength="86" x="142.5" y="843.7285">POSTPONED</text><text fill="#000000" font-family="sans-serif" font-size="14" lengthAdjust="spacing" textLength="74" x="142.5" y="862.3496">CANCELED</text><text fill="#000000" font-family="sans-serif" font-size="14" lengthAdjust="spacing" textLength="39" x="142.5" y="880.9707">DONE</text><text fill="#000000" font-family="sans-serif" font-size="14" lengthAdjust="spacing" textLength="60" x="142.5" y="899.5918">PENDING</text><line style="stroke:#181818;stroke-width:0.5;" x1="137.5" x2="238.5" y1="907.1055" y2="907.1055"/></g><!--class Employee--><g id="elem_Employee"><rect codeLine="41" fill="#F1F1F1" height="48" id="Employee" rx="2.5" ry="2.5" style="stroke:#181818;stroke-width:0.5;" width="94" x="314" y="820.5"/><ellipse cx="329" cy="836.5" fill="#ADD1B2" rx="11" ry="11" style="stroke:#181818;stroke-width:1.0;"/><path d="M331.7656,832.375 Q331.9219,832.1563 332.1094,832.0469 Q332.2969,831.9375 332.5156,831.9375 Q332.8906,831.9375 333.125,832.2031 Q333.3594,832.4531 333.3594,833.0625 L333.3594,834.5156 Q333.3594,835.125 333.125,835.3906 Q332.8906,835.6563 332.5156,835.6563 Q332.1719,835.6563 331.9688,835.4531 Q331.7656,835.2656 331.6563,834.75 Q331.6094,834.3906 331.4219,834.2031 Q331.0938,833.8281 330.4844,833.6094 Q329.875,833.3906 329.25,833.3906 Q328.4844,833.3906 327.8438,833.7188 Q327.2188,834.0469 326.7188,834.7969 Q326.2344,835.5469 326.2344,836.5781 L326.2344,837.6719 Q326.2344,838.9063 327.125,839.7344 Q328.0156,840.5469 329.6094,840.5469 Q330.5469,840.5469 331.2031,840.2969 Q331.5938,840.1406 332.0156,839.7031 Q332.2813,839.4375 332.4219,839.3594 Q332.5781,839.2813 332.7813,839.2813 Q333.1094,839.2813 333.3594,839.5469 Q333.625,839.7969 333.625,840.1406 Q333.625,840.4844 333.2813,840.8906 Q332.7813,841.4688 331.9844,841.7969 Q330.9063,842.25 329.6094,842.25 Q328.0938,842.25 326.8906,841.625 Q325.9063,841.125 325.2188,840.0625 Q324.5313,838.9844 324.5313,837.7031 L324.5313,836.5469 Q324.5313,835.2188 325.1406,834.0781 Q325.7656,832.9219 326.8594,832.3125 Q327.9531,831.6875 329.1875,831.6875 Q329.9219,831.6875 330.5625,831.8594 Q331.2188,832.0156 331.7656,832.375 Z " fill="#000000"/><text fill="#000000" font-family="sans-serif" font-size="14" lengthAdjust="spacing" textLength="62" x="343" y="842.2969">Employee</text><line style="stroke:#181818;stroke-width:0.5;" x1="315" x2="407" y1="852.5" y2="852.5"/><line style="stroke:#181818;stroke-width:0.5;" x1="315" x2="407" y1="860.5" y2="860.5"/></g><!--link TaskUI to TaskController--><g id="link_TaskUI_TaskController"><path codeLine="44" d="M198,74.18 C198,92.44 198,109.38 198,128.91 " fill="none" id="TaskUI-to-TaskController" style="stroke:#181818;stroke-width:1.0;"/><polygon fill="#181818" points="198,134.91,202,125.91,198,129.91,194,125.91,198,134.91" style="stroke:#181818;stroke-width:1.0;"/><text fill="#000000" font-family="sans-serif" font-size="13" lengthAdjust="spacing" textLength="7" x="190.3766" y="95.7813">1</text><text fill="#000000" font-family="sans-serif" font-size="13" lengthAdjust="spacing" textLength="7" x="190.4422" y="123.7997">1</text></g><!--link TaskController to Repositories--><g id="link_TaskController_Repositories"><path codeLine="45" d="M212.84,220.36 C221.12,243.69 229.5556,267.4847 238.6856,293.2447 " fill="none" id="TaskController-to-Repositories" style="stroke:#181818;stroke-width:1.0;stroke-dasharray:7.0,7.0;"/><polygon fill="#181818" points="240.69,298.9,241.4536,289.0808,239.0197,294.1872,233.9132,291.7533,240.69,298.9" style="stroke:#181818;stroke-width:1.0;"/><text fill="#000000" font-family="sans-serif" font-size="13" lengthAdjust="spacing" textLength="67" x="231" y="265.0283">repositories</text><text fill="#000000" font-family="sans-serif" font-size="13" lengthAdjust="spacing" textLength="7" x="207.5764" y="242.2566">1</text><text fill="#000000" font-family="sans-serif" font-size="13" lengthAdjust="spacing" textLength="7" x="230.8213" y="287.8696">1</text></g><!--link TaskController to TaskRepository--><g id="link_TaskController_TaskRepository"><path codeLine="46" d="M188.29,220.31 C180.2,255.11 170,299 170,299 C170,299 170,421 170,421 C170,421 189.0433,448.4978 208.7033,476.8778 " fill="none" id="TaskController-to-TaskRepository" style="stroke:#181818;stroke-width:1.0;"/><polygon fill="#181818" points="212.12,481.81,210.283,472.134,209.2727,477.6999,203.7068,476.6896,212.12,481.81" style="stroke:#181818;stroke-width:1.0;"/><text fill="#000000" font-family="sans-serif" font-size="13" lengthAdjust="spacing" textLength="7" x="179.2672" y="242.1989">1</text><text fill="#000000" font-family="sans-serif" font-size="13" lengthAdjust="spacing" textLength="7" x="199.9594" y="470.6838">1</text></g><!--link TaskController to Task--><g id="link_TaskController_Task"><path codeLine="47" d="M279.2,220.14 C347.13,254.97 433,299 433,299 C433,299 441,482 441,482 C441,482 441,567 441,567 C441,567 419.3816,594.7001 397.2316,623.0801 " fill="none" id="TaskController-to-Task" style="stroke:#181818;stroke-width:1.0;stroke-dasharray:7.0,7.0;"/><polygon fill="#181818" points="393.54,627.81,402.2307,623.1762,396.6163,623.8684,395.9241,618.2541,393.54,627.81" style="stroke:#181818;stroke-width:1.0;"/><text fill="#000000" font-family="sans-serif" font-size="13" lengthAdjust="spacing" textLength="7" x="284.5834" y="242.3226">1</text><text fill="#000000" font-family="sans-serif" font-size="13" lengthAdjust="spacing" textLength="5" x="393.3276" y="616.6838">*</text></g><!--link TaskController to TaskStatus--><g id="link_TaskController_TaskStatus"><path codeLine="48" d="M153.47,220.36 C96.75,273.69 6,359 6,359 C6,359 6,359 6,671.5 C6,671.5 78.1695,739.6986 131.9695,790.5486 " fill="none" id="TaskController-to-TaskStatus" style="stroke:#181818;stroke-width:1.0;stroke-dasharray:7.0,7.0;"/><polygon fill="#181818" points="136.33,794.67,132.5368,785.5809,132.6962,791.2355,127.0416,791.3949,136.33,794.67" style="stroke:#181818;stroke-width:1.0;"/><text fill="#000000" font-family="sans-serif" font-size="13" lengthAdjust="spacing" textLength="7" x="139.1154" y="242.2566">1</text><text fill="#000000" font-family="sans-serif" font-size="13" lengthAdjust="spacing" textLength="5" x="123.3738" y="783.1447">*</text></g><!--link Repositories to Repositories--><g id="link_Repositories_Repositories"><path codeLine="49" d="M336.72,343.27 C356.51,344.23 371.5,349.8 371.5,360 C371.5,370.2 362.503,375.4793 342.713,376.4393 " fill="none" id="Repositories-to-Repositories" style="stroke:#181818;stroke-width:1.0;"/><polygon fill="#181818" points="336.72,376.73,345.9032,380.2892,341.7141,376.4877,345.5156,372.2986,336.72,376.73" style="stroke:#181818;stroke-width:1.0;"/><text fill="#000000" font-family="sans-serif" font-size="13" lengthAdjust="spacing" textLength="49" x="377.5" y="365.5283">instance</text></g><!--link Repositories to TaskRepository--><g id="link_Repositories_TaskRepository"><path codeLine="50" d="M254.24,421.05 C251.62,441.3 249.5287,457.4895 247.1387,475.9895 " fill="none" id="Repositories-to-TaskRepository" style="stroke:#181818;stroke-width:1.0;"/><polygon fill="#181818" points="246.37,481.94,251.4902,473.5267,247.0106,476.9812,243.5561,472.5017,246.37,481.94" style="stroke:#181818;stroke-width:1.0;"/><text fill="#000000" font-family="sans-serif" font-size="13" lengthAdjust="spacing" textLength="7" x="245.8677" y="443.5429">1</text><text fill="#000000" font-family="sans-serif" font-size="13" lengthAdjust="spacing" textLength="7" x="239.668" y="470.8345">1</text></g><!--link TaskRepository to TaskStatus--><g id="link_TaskRepository_TaskStatus"><path codeLine="51" d="M234.07,567.07 C225.32,619.6 211.1061,704.8416 200.5761,768.0416 " fill="none" id="TaskRepository-to-TaskStatus" style="stroke:#181818;stroke-width:1.0;stroke-dasharray:7.0,7.0;"/><polygon fill="#181818" points="199.59,773.96,205.0147,765.7398,200.4117,769.028,197.1235,764.425,199.59,773.96" style="stroke:#181818;stroke-width:1.0;"/><text fill="#000000" font-family="sans-serif" font-size="13" lengthAdjust="spacing" textLength="7" x="225.4077" y="589.2415">1</text><text fill="#000000" font-family="sans-serif" font-size="13" lengthAdjust="spacing" textLength="5" x="195.5274" y="762.8469">*</text></g><!--link TaskRepository to Task--><g id="link_TaskRepository_Task"><path codeLine="52" d="M275.71,567.15 C291.63,586.26 306.6187,604.2409 322.5287,623.3309 " fill="none" id="TaskRepository-to-Task" style="stroke:#181818;stroke-width:1.0;"/><polygon fill="#181818" points="326.37,627.94,323.6807,618.4654,323.1689,624.0991,317.5352,623.5872,326.37,627.94" style="stroke:#181818;stroke-width:1.0;"/><text fill="#000000" font-family="sans-serif" font-size="13" lengthAdjust="spacing" textLength="7" x="273.6841" y="589.3342">1</text><text fill="#000000" font-family="sans-serif" font-size="13" lengthAdjust="spacing" textLength="5" x="315.4524" y="616.8345">*</text></g><!--link Task to TaskStatus--><g id="link_Task_TaskStatus"><path codeLine="53" d="M319.12,713.14 C295.22,736.9 269.3144,762.6491 243.9544,787.8691 " fill="none" id="Task-to-TaskStatus" style="stroke:#181818;stroke-width:1.0;stroke-dasharray:7.0,7.0;"/><polygon fill="#181818" points="239.7,792.1,248.9021,788.5899,243.2453,788.5743,243.261,782.9174,239.7,792.1" style="stroke:#181818;stroke-width:1.0;"/><text fill="#000000" font-family="sans-serif" font-size="13" lengthAdjust="spacing" textLength="7" x="304.8876" y="735.3226">1</text><text fill="#000000" font-family="sans-serif" font-size="13" lengthAdjust="spacing" textLength="7" x="247.4625" y="780.5773">1</text></g><!--link Task to Employee--><g id="link_Task_Employee"><path codeLine="54" d="M361,713.14 C361,746.74 361,786.79 361,814.21 " fill="none" id="Task-to-Employee" style="stroke:#181818;stroke-width:1.0;stroke-dasharray:7.0,7.0;"/><polygon fill="#181818" points="361,820.21,365,811.21,361,815.21,357,811.21,361,820.21" style="stroke:#181818;stroke-width:1.0;"/><text fill="#000000" font-family="sans-serif" font-size="13" lengthAdjust="spacing" textLength="7" x="353.4422" y="735.3226">1</text><text fill="#000000" font-family="sans-serif" font-size="13" lengthAdjust="spacing" textLength="7" x="353.1469" y="809.2812">1</text></g><!--SRC=[hLB1Ri8m3BttAo9EPQnekw89gO9ggeGAMja7XE9r4I6fuh2fc_RlIzD0KmJZiXxQsk_vFJinxfYegA9xKj5YHql8TSs1A2Wq5IM704y4VATR-Sb4ITueHn_XJ82kAo2Lv7KJU5Z1AMAijMARWuQqa29dNq0UWY2m45bJtBscv3iWvecQQ2Q5Lf9pKC6Fp-hoFli5AebCIrNRtCYqBjMsvUyh3ff94JOXqUPrJtBJYfb1RX3K1srG77O-9pK6-8TBvFF2OUjSWau5cdChm4lrgyDXVwOESMwZ1KFzr43J_vZ74jqSfZLzG3AnoTm6hGM2Tjgm3Q_fWJZilKedkbh4MPRCs_zblbujZz4ipcR9mWLpasuvIJPFi-UkmSJuoXh0w9cSMuR1uu14qTH-ppRYR14QndZSClqxcPWLxg9BLRw-TxlNzEzQvYtS7MjlZHgdVc_ChKcVTwChRrMkk5vWMJs_zzw9dTNsiEF51By0]--></g></svg>