<?xml version="1.0" encoding="us-ascii" standalone="no"?><svg xmlns="http://www.w3.org/2000/svg" xmlns:xlink="http://www.w3.org/1999/xlink" contentStyleType="text/css" height="673px" preserveAspectRatio="none" style="width:1153px;height:673px;background:#FFFFFF;" version="1.1" viewBox="0 0 1153 673" width="1153px" zoomAndPan="magnify"><defs/><g><rect fill="#FFFFFF" height="487.3262" style="stroke:#181818;stroke-width:1.0;" width="10" x="42" y="93.6211"/><rect fill="#FFFFFF" height="31.291" style="stroke:#181818;stroke-width:1.0;" width="10" x="289.5" y="165.1641"/><rect fill="#FFFFFF" height="344.2012" style="stroke:#181818;stroke-width:1.0;" width="10" x="289.5" y="227.7461"/><rect fill="#FFFFFF" height="281.6191" style="stroke:#181818;stroke-width:1.0;" width="10" x="571.5" y="259.0371"/><rect fill="#FFFFFF" height="31.291" style="stroke:#181818;stroke-width:1.0;" width="10" x="686.5" y="290.3281"/><rect fill="#FFFFFF" height="31.291" style="stroke:#181818;stroke-width:1.0;" width="10" x="793.5" y="352.9102"/><rect fill="#FFFFFF" height="93.873" style="stroke:#181818;stroke-width:1.0;" width="10" x="910.5" y="415.4922"/><rect fill="#FFFFFF" height="31.291" style="stroke:#181818;stroke-width:1.0;" width="10" x="1117.5" y="446.7832"/><line style="stroke:#181818;stroke-width:0.5;stroke-dasharray:5.0,5.0;" x1="47" x2="47" y1="83.6211" y2="589.9473"/><line style="stroke:#181818;stroke-width:0.5;stroke-dasharray:5.0,5.0;" x1="294" x2="294" y1="83.6211" y2="589.9473"/><line style="stroke:#181818;stroke-width:0.5;stroke-dasharray:5.0,5.0;" x1="576" x2="576" y1="83.6211" y2="589.9473"/><line style="stroke:#181818;stroke-width:0.5;stroke-dasharray:5.0,5.0;" x1="691" x2="691" y1="83.6211" y2="589.9473"/><line style="stroke:#181818;stroke-width:0.5;stroke-dasharray:5.0,5.0;" x1="798" x2="798" y1="83.6211" y2="589.9473"/><line style="stroke:#181818;stroke-width:0.5;stroke-dasharray:5.0,5.0;" x1="915" x2="915" y1="83.6211" y2="589.9473"/><line style="stroke:#181818;stroke-width:0.5;stroke-dasharray:5.0,5.0;" x1="1122" x2="1122" y1="83.6211" y2="589.9473"/><text fill="#000000" font-family="sans-serif" font-size="14" lengthAdjust="spacing" textLength="78" x="5" y="80.1074">Collaborator</text><ellipse cx="47" cy="13.5" fill="#E3E3E3" rx="8" ry="8" style="stroke:#181818;stroke-width:0.5;"/><path d="M47,21.5 L47,48.5 M34,29.5 L60,29.5 M47,48.5 L34,63.5 M47,48.5 L60,63.5 " fill="none" style="stroke:#181818;stroke-width:0.5;"/><text fill="#000000" font-family="sans-serif" font-size="14" lengthAdjust="spacing" textLength="78" x="5" y="604.0547">Collaborator</text><ellipse cx="47" cy="616.0684" fill="#E3E3E3" rx="8" ry="8" style="stroke:#181818;stroke-width:0.5;"/><path d="M47,624.0684 L47,651.0684 M34,632.0684 L60,632.0684 M47,651.0684 L34,666.0684 M47,651.0684 L60,666.0684 " fill="none" style="stroke:#181818;stroke-width:0.5;"/><rect fill="#E3E3E3" height="32.6211" rx="2.5" ry="2.5" style="stroke:#181818;stroke-width:0.5;" width="61" x="264" y="50"/><text fill="#000000" font-family="sans-serif" font-size="14" lengthAdjust="spacing" textLength="47" x="271" y="72.1074">:TaskUI</text><rect fill="#E3E3E3" height="32.6211" rx="2.5" ry="2.5" style="stroke:#181818;stroke-width:0.5;" width="61" x="264" y="588.9473"/><text fill="#000000" font-family="sans-serif" font-size="14" lengthAdjust="spacing" textLength="47" x="271" y="611.0547">:TaskUI</text><rect fill="#E3E3E3" height="32.6211" rx="2.5" ry="2.5" style="stroke:#181818;stroke-width:0.5;" width="111" x="521" y="50"/><text fill="#000000" font-family="sans-serif" font-size="14" lengthAdjust="spacing" textLength="97" x="528" y="72.1074">:TaskController</text><rect fill="#E3E3E3" height="32.6211" rx="2.5" ry="2.5" style="stroke:#181818;stroke-width:0.5;" width="111" x="521" y="588.9473"/><text fill="#000000" font-family="sans-serif" font-size="14" lengthAdjust="spacing" textLength="97" x="528" y="611.0547">:TaskController</text><rect fill="#E3E3E3" height="32.6211" rx="2.5" ry="2.5" style="stroke:#181818;stroke-width:0.5;" width="97" x="643" y="50"/><text fill="#000000" font-family="sans-serif" font-size="14" lengthAdjust="spacing" textLength="83" x="650" y="72.1074">:Repositories</text><rect fill="#E3E3E3" height="32.6211" rx="2.5" ry="2.5" style="stroke:#181818;stroke-width:0.5;" width="97" x="643" y="588.9473"/><text fill="#000000" font-family="sans-serif" font-size="14" lengthAdjust="spacing" textLength="83" x="650" y="611.0547">:Repositories</text><rect fill="#E3E3E3" height="51.2422" rx="2.5" ry="2.5" style="stroke:#181818;stroke-width:0.5;" width="97" x="750" y="31.3789"/><text fill="#000000" font-family="sans-serif" font-size="14" lengthAdjust="spacing" textLength="74" x="761.5" y="53.4863">repositories</text><text fill="#000000" font-family="sans-serif" font-size="14" lengthAdjust="spacing" textLength="83" x="757" y="72.1074">:Repositories</text><rect fill="#E3E3E3" height="51.2422" rx="2.5" ry="2.5" style="stroke:#181818;stroke-width:0.5;" width="97" x="750" y="588.9473"/><text fill="#000000" font-family="sans-serif" font-size="14" lengthAdjust="spacing" textLength="74" x="761.5" y="611.0547">repositories</text><text fill="#000000" font-family="sans-serif" font-size="14" lengthAdjust="spacing" textLength="83" x="757" y="629.6758">:Repositories</text><rect fill="#E3E3E3" height="51.2422" rx="2.5" ry="2.5" style="stroke:#181818;stroke-width:0.5;" width="117" x="857" y="31.3789"/><text fill="#000000" font-family="sans-serif" font-size="14" lengthAdjust="spacing" textLength="94" x="868.5" y="53.4863">taskRepository</text><text fill="#000000" font-family="sans-serif" font-size="14" lengthAdjust="spacing" textLength="103" x="864" y="72.1074">:TaskRepository</text><rect fill="#E3E3E3" height="51.2422" rx="2.5" ry="2.5" style="stroke:#181818;stroke-width:0.5;" width="117" x="857" y="588.9473"/><text fill="#000000" font-family="sans-serif" font-size="14" lengthAdjust="spacing" textLength="94" x="868.5" y="611.0547">taskRepository</text><text fill="#000000" font-family="sans-serif" font-size="14" lengthAdjust="spacing" textLength="103" x="864" y="629.6758">:TaskRepository</text><rect fill="#E3E3E3" height="32.6211" rx="2.5" ry="2.5" style="stroke:#181818;stroke-width:0.5;" width="49" x="1098" y="50"/><text fill="#000000" font-family="sans-serif" font-size="14" lengthAdjust="spacing" textLength="35" x="1105" y="72.1074">:Task</text><rect fill="#E3E3E3" height="32.6211" rx="2.5" ry="2.5" style="stroke:#181818;stroke-width:0.5;" width="49" x="1098" y="588.9473"/><text fill="#000000" font-family="sans-serif" font-size="14" lengthAdjust="spacing" textLength="35" x="1105" y="611.0547">:Task</text><rect fill="#FFFFFF" height="487.3262" style="stroke:#181818;stroke-width:1.0;" width="10" x="42" y="93.6211"/><rect fill="#FFFFFF" height="31.291" style="stroke:#181818;stroke-width:1.0;" width="10" x="289.5" y="165.1641"/><rect fill="#FFFFFF" height="344.2012" style="stroke:#181818;stroke-width:1.0;" width="10" x="289.5" y="227.7461"/><rect fill="#FFFFFF" height="281.6191" style="stroke:#181818;stroke-width:1.0;" width="10" x="571.5" y="259.0371"/><rect fill="#FFFFFF" height="31.291" style="stroke:#181818;stroke-width:1.0;" width="10" x="686.5" y="290.3281"/><rect fill="#FFFFFF" height="31.291" style="stroke:#181818;stroke-width:1.0;" width="10" x="793.5" y="352.9102"/><rect fill="#FFFFFF" height="93.873" style="stroke:#181818;stroke-width:1.0;" width="10" x="910.5" y="415.4922"/><rect fill="#FFFFFF" height="31.291" style="stroke:#181818;stroke-width:1.0;" width="10" x="1117.5" y="446.7832"/><rect fill="none" height="43.252" style="stroke:#000000;stroke-width:1.5;" width="326" x="2" y="93.6211"/><path d="M2,93.6211 L64,93.6211 L64,102.6211 L54,112.6211 L2,112.6211 L2,93.6211 " fill="#EEEEEE" style="stroke:#000000;stroke-width:2.0;"/><text fill="#000000" font-family="sans-serif" font-size="13" font-weight="bold" lengthAdjust="spacing" textLength="17" x="15" y="109.6494">ref</text><text fill="#000000" font-family="sans-serif" font-size="12" lengthAdjust="spacing" textLength="308" x="11" y="129.5703">This action assumes that the user has already logged in</text><polygon fill="#181818" points="277.5,161.1641,287.5,165.1641,277.5,169.1641,281.5,165.1641" style="stroke:#181818;stroke-width:1.0;"/><line style="stroke:#181818;stroke-width:1.0;" x1="52" x2="283.5" y1="165.1641" y2="165.1641"/><text fill="#000000" font-family="sans-serif" font-size="13" font-weight="bold" lengthAdjust="spacing" textLength="7" x="59" y="159.9014">1</text><text fill="#000000" font-family="sans-serif" font-size="13" lengthAdjust="spacing" textLength="156" x="70" y="159.9014">Selects a task to complete</text><polygon fill="#181818" points="63,192.4551,53,196.4551,63,200.4551,59,196.4551" style="stroke:#181818;stroke-width:1.0;"/><line style="stroke:#181818;stroke-width:1.0;stroke-dasharray:2.0,2.0;" x1="57" x2="293.5" y1="196.4551" y2="196.4551"/><text fill="#000000" font-family="sans-serif" font-size="13" font-weight="bold" lengthAdjust="spacing" textLength="7" x="69" y="191.1924">2</text><text fill="#000000" font-family="sans-serif" font-size="13" lengthAdjust="spacing" textLength="180" x="80" y="191.1924">Requests optional observations</text><polygon fill="#181818" points="277.5,223.7461,287.5,227.7461,277.5,231.7461,281.5,227.7461" style="stroke:#181818;stroke-width:1.0;"/><line style="stroke:#181818;stroke-width:1.0;" x1="52" x2="283.5" y1="227.7461" y2="227.7461"/><text fill="#000000" font-family="sans-serif" font-size="13" font-weight="bold" lengthAdjust="spacing" textLength="7" x="59" y="222.4834">3</text><text fill="#000000" font-family="sans-serif" font-size="13" lengthAdjust="spacing" textLength="163" x="70" y="222.4834">Enters optional observations</text><polygon fill="#181818" points="559.5,255.0371,569.5,259.0371,559.5,263.0371,563.5,259.0371" style="stroke:#181818;stroke-width:1.0;"/><line style="stroke:#181818;stroke-width:1.0;" x1="299.5" x2="565.5" y1="259.0371" y2="259.0371"/><text fill="#000000" font-family="sans-serif" font-size="13" font-weight="bold" lengthAdjust="spacing" textLength="7" x="306.5" y="253.7744">4</text><text fill="#000000" font-family="sans-serif" font-size="13" lengthAdjust="spacing" textLength="242" x="317.5" y="253.7744">recordTaskCompletion(task, observations)</text><polygon fill="#181818" points="674.5,286.3281,684.5,290.3281,674.5,294.3281,678.5,290.3281" style="stroke:#181818;stroke-width:1.0;"/><line style="stroke:#181818;stroke-width:1.0;" x1="581.5" x2="680.5" y1="290.3281" y2="290.3281"/><text fill="#000000" font-family="sans-serif" font-size="13" font-weight="bold" lengthAdjust="spacing" textLength="7" x="588.5" y="285.0654">5</text><text fill="#000000" font-family="sans-serif" font-size="13" lengthAdjust="spacing" textLength="75" x="599.5" y="285.0654">getInstance()</text><polygon fill="#181818" points="592.5,317.6191,582.5,321.6191,592.5,325.6191,588.5,321.6191" style="stroke:#181818;stroke-width:1.0;"/><line style="stroke:#181818;stroke-width:1.0;stroke-dasharray:2.0,2.0;" x1="586.5" x2="690.5" y1="321.6191" y2="321.6191"/><text fill="#000000" font-family="sans-serif" font-size="13" font-weight="bold" lengthAdjust="spacing" textLength="7" x="598.5" y="316.3564">6</text><text fill="#000000" font-family="sans-serif" font-size="13" lengthAdjust="spacing" textLength="67" x="609.5" y="316.3564">repositories</text><polygon fill="#181818" points="781.5,348.9102,791.5,352.9102,781.5,356.9102,785.5,352.9102" style="stroke:#181818;stroke-width:1.0;"/><line style="stroke:#181818;stroke-width:1.0;" x1="581.5" x2="787.5" y1="352.9102" y2="352.9102"/><text fill="#000000" font-family="sans-serif" font-size="13" font-weight="bold" lengthAdjust="spacing" textLength="7" x="588.5" y="347.6475">7</text><text fill="#000000" font-family="sans-serif" font-size="13" lengthAdjust="spacing" textLength="116" x="599.5" y="347.6475">getTaskRepository()</text><polygon fill="#181818" points="592.5,380.2012,582.5,384.2012,592.5,388.2012,588.5,384.2012" style="stroke:#181818;stroke-width:1.0;"/><line style="stroke:#181818;stroke-width:1.0;stroke-dasharray:2.0,2.0;" x1="586.5" x2="797.5" y1="384.2012" y2="384.2012"/><text fill="#000000" font-family="sans-serif" font-size="13" font-weight="bold" lengthAdjust="spacing" textLength="7" x="598.5" y="378.9385">8</text><text fill="#000000" font-family="sans-serif" font-size="13" lengthAdjust="spacing" textLength="87" x="609.5" y="378.9385">taskRepository</text><polygon fill="#181818" points="898.5,411.4922,908.5,415.4922,898.5,419.4922,902.5,415.4922" style="stroke:#181818;stroke-width:1.0;"/><line style="stroke:#181818;stroke-width:1.0;" x1="581.5" x2="904.5" y1="415.4922" y2="415.4922"/><text fill="#000000" font-family="sans-serif" font-size="13" font-weight="bold" lengthAdjust="spacing" textLength="7" x="588.5" y="410.2295">9</text><text fill="#000000" font-family="sans-serif" font-size="13" lengthAdjust="spacing" textLength="242" x="599.5" y="410.2295">recordTaskCompletion(task, observations)</text><polygon fill="#181818" points="1105.5,442.7832,1115.5,446.7832,1105.5,450.7832,1109.5,446.7832" style="stroke:#181818;stroke-width:1.0;"/><line style="stroke:#181818;stroke-width:1.0;" x1="920.5" x2="1111.5" y1="446.7832" y2="446.7832"/><text fill="#000000" font-family="sans-serif" font-size="13" font-weight="bold" lengthAdjust="spacing" textLength="14" x="927.5" y="441.5205">10</text><text fill="#000000" font-family="sans-serif" font-size="13" lengthAdjust="spacing" textLength="160" x="945.5" y="441.5205">setCompleted(observations)</text><polygon fill="#181818" points="931.5,474.0742,921.5,478.0742,931.5,482.0742,927.5,478.0742" style="stroke:#181818;stroke-width:1.0;"/><line style="stroke:#181818;stroke-width:1.0;" x1="925.5" x2="1121.5" y1="478.0742" y2="478.0742"/><text fill="#000000" font-family="sans-serif" font-size="13" font-weight="bold" lengthAdjust="spacing" textLength="14" x="937.5" y="472.8115">11</text><text fill="#000000" font-family="sans-serif" font-size="13" lengthAdjust="spacing" textLength="109" x="955.5" y="472.8115">Operation success</text><polygon fill="#181818" points="592.5,505.3652,582.5,509.3652,592.5,513.3652,588.5,509.3652" style="stroke:#181818;stroke-width:1.0;"/><line style="stroke:#181818;stroke-width:1.0;stroke-dasharray:2.0,2.0;" x1="586.5" x2="914.5" y1="509.3652" y2="509.3652"/><text fill="#000000" font-family="sans-serif" font-size="13" font-weight="bold" lengthAdjust="spacing" textLength="14" x="598.5" y="504.1025">12</text><text fill="#000000" font-family="sans-serif" font-size="13" lengthAdjust="spacing" textLength="109" x="616.5" y="504.1025">Operation success</text><polygon fill="#181818" points="310.5,536.6563,300.5,540.6563,310.5,544.6563,306.5,540.6563" style="stroke:#181818;stroke-width:1.0;"/><line style="stroke:#181818;stroke-width:1.0;stroke-dasharray:2.0,2.0;" x1="304.5" x2="575.5" y1="540.6563" y2="540.6563"/><text fill="#000000" font-family="sans-serif" font-size="13" font-weight="bold" lengthAdjust="spacing" textLength="14" x="316.5" y="535.3936">13</text><text fill="#000000" font-family="sans-serif" font-size="13" lengthAdjust="spacing" textLength="109" x="334.5" y="535.3936">Operation success</text><polygon fill="#181818" points="63,567.9473,53,571.9473,63,575.9473,59,571.9473" style="stroke:#181818;stroke-width:1.0;"/><line style="stroke:#181818;stroke-width:1.0;stroke-dasharray:2.0,2.0;" x1="57" x2="293.5" y1="571.9473" y2="571.9473"/><text fill="#000000" font-family="sans-serif" font-size="13" font-weight="bold" lengthAdjust="spacing" textLength="14" x="69" y="566.6846">14</text><text fill="#000000" font-family="sans-serif" font-size="13" lengthAdjust="spacing" textLength="160" x="87" y="566.6846">Displays operation success</text><!--SRC=[bLF1RgCm4Btp5QESKgdz0GwLgcmFqLRA2iXjfSg1ALW1c_MOhlBtEpR1mIGSrWU4n- -zUHxFq5cgNXZHGQULBXkZEmHh1amedFIYF8iQStjf4GoMLgYwdGEe4PN-ArKDNw8bJ18nMAs6xeI6_qkh3Mnskct5IHl1kmq8WhTTSSWI5h2obBrG5ZPf8UXytFlZu_x1sKuhQrW8HubTaNqiK1dscYJda4WUaxt_EkIVkNIMsLGCDpFqRxL6tYlYAvSOSotx2OGBiuieuFd5M_xpquayk4i0-1B9Rs7nMfF4u1VeRpJZ_fbhaKBHI087r8g9D7H8O1jX-OCm48CRrXEjGL5TeDLrZHL8bIHU0rvUlKgEBRyVuy3P1wkXr5tFbS6R2QxySGylpF3K53ByCo0nI_SklMX1dpWXWtb7IOLpQfplNLaqQyI81hnSsbV_ggdhCssgyT6zGwPidUddIEJ94uEIxmWVSiljdEAY1rAeqKwFkdqAyA2ox9a9i8Zx6arkRvqJuBF2B1LNB4wclCEudzPzXlQCRKxXcSkuPTTz1iKxcw6X__E18jktgGXdReNmb2W5GdiLnshxMFLE-KvpuVlGe_4YG4DP8b54cDLYdCq7xa8zrwKMChFRZfMyZiTZWHbvxETu77z8wbjnSLErPCUZ-0y0]--></g></svg>