<?xml version="1.0" encoding="us-ascii" standalone="no"?><svg xmlns="http://www.w3.org/2000/svg" xmlns:xlink="http://www.w3.org/1999/xlink" contentStyleType="text/css" height="1370px" preserveAspectRatio="none" style="width:2268px;height:1370px;background:#FFFFFF;" version="1.1" viewBox="0 0 2268 1370" width="2268px" zoomAndPan="magnify"><defs/><g><rect fill="#FFFFFF" height="1175.7285" style="stroke:#181818;stroke-width:1.0;" width="10" x="18" y="93.6211"/><rect fill="#FFFFFF" height="31.291" style="stroke:#181818;stroke-width:1.0;" width="10" x="511" y="165.1641"/><rect fill="#FFFFFF" height="281.6191" style="stroke:#181818;stroke-width:1.0;" width="10" x="511" y="245.0371"/><rect fill="#FFFFFF" height="31.291" style="stroke:#181818;stroke-width:1.0;" width="10" x="511" y="557.9473"/><rect fill="#FFFFFF" height="657.8203" style="stroke:#181818;stroke-width:1.0;" width="10" x="511" y="620.5293"/><rect fill="#FFFFFF" height="31.291" style="stroke:#181818;stroke-width:1.0;" width="10" x="516" y="1238.0586"/><rect fill="#FFFFFF" height="219.0371" style="stroke:#181818;stroke-width:1.0;" width="10" x="997" y="276.3281"/><rect fill="#FFFFFF" height="609.2383" style="stroke:#181818;stroke-width:1.0;" width="10" x="997" y="669.1113"/><rect fill="#FFFFFF" height="230.0371" style="stroke:#181818;stroke-width:1.0;" width="10" x="1002" y="708.4023"/><rect fill="#FFFFFF" height="31.291" style="stroke:#181818;stroke-width:1.0;" width="10" x="1002" y="1206.7676"/><rect fill="#FFFFFF" height="31.291" style="stroke:#181818;stroke-width:1.0;" width="10" x="1215" y="307.6191"/><rect fill="#FFFFFF" height="31.291" style="stroke:#181818;stroke-width:1.0;" width="10" x="1215" y="744.6934"/><rect fill="#FFFFFF" height="31.291" style="stroke:#181818;stroke-width:1.0;" width="10" x="1322" y="370.2012"/><rect fill="#FFFFFF" height="31.291" style="stroke:#181818;stroke-width:1.0;" width="10" x="1322" y="807.2754"/><rect fill="#FFFFFF" height="31.291" style="stroke:#181818;stroke-width:1.0;" width="10" x="1433" y="432.7832"/><rect fill="#FFFFFF" height="31.291" style="stroke:#181818;stroke-width:1.0;" width="10" x="1569" y="869.8574"/><rect fill="#FFFFFF" height="119.873" style="stroke:#181818;stroke-width:1.0;" width="10" x="1569" y="1086.8945"/><rect fill="#FFFFFF" height="92.873" style="stroke:#181818;stroke-width:1.0;" width="10" x="1787" y="994.0215"/><line style="stroke:#181818;stroke-width:0.5;stroke-dasharray:5.0,5.0;" x1="23" x2="23" y1="83.6211" y2="1287.3496"/><line style="stroke:#181818;stroke-width:0.5;stroke-dasharray:5.0,5.0;" x1="515.5" x2="515.5" y1="83.6211" y2="1287.3496"/><line style="stroke:#181818;stroke-width:0.5;stroke-dasharray:5.0,5.0;" x1="1001.5" x2="1001.5" y1="83.6211" y2="1287.3496"/><line style="stroke:#181818;stroke-width:0.5;stroke-dasharray:5.0,5.0;" x1="1219.5" x2="1219.5" y1="83.6211" y2="1287.3496"/><line style="stroke:#181818;stroke-width:0.5;stroke-dasharray:5.0,5.0;" x1="1326.5" x2="1326.5" y1="83.6211" y2="1287.3496"/><line style="stroke:#181818;stroke-width:0.5;stroke-dasharray:5.0,5.0;" x1="1437.5" x2="1437.5" y1="83.6211" y2="1287.3496"/><line style="stroke:#181818;stroke-width:0.5;stroke-dasharray:5.0,5.0;" x1="1573.5" x2="1573.5" y1="83.6211" y2="1287.3496"/><line style="stroke:#181818;stroke-width:0.5;stroke-dasharray:5.0,5.0;" x1="1792" x2="1792" y1="83.6211" y2="1287.3496"/><text fill="#000000" font-family="sans-serif" font-size="14" lengthAdjust="spacing" textLength="30" x="5" y="80.1074">HRM</text><ellipse cx="23" cy="13.5" fill="#E3E3E3" rx="8" ry="8" style="stroke:#181818;stroke-width:0.5;"/><path d="M23,21.5 L23,48.5 M10,29.5 L36,29.5 M23,48.5 L10,63.5 M23,48.5 L36,63.5 " fill="none" style="stroke:#181818;stroke-width:0.5;"/><text fill="#000000" font-family="sans-serif" font-size="14" lengthAdjust="spacing" textLength="30" x="5" y="1301.457">HRM</text><ellipse cx="23" cy="1313.4707" fill="#E3E3E3" rx="8" ry="8" style="stroke:#181818;stroke-width:0.5;"/><path d="M23,1321.4707 L23,1348.4707 M10,1329.4707 L36,1329.4707 M23,1348.4707 L10,1363.4707 M23,1348.4707 L36,1363.4707 " fill="none" style="stroke:#181818;stroke-width:0.5;"/><rect fill="#E3E3E3" height="32.6211" rx="2.5" ry="2.5" style="stroke:#181818;stroke-width:0.5;" width="161" x="435.5" y="50"/><text fill="#000000" font-family="sans-serif" font-size="14" lengthAdjust="spacing" textLength="147" x="442.5" y="72.1074">:RegisterCollaboratorUI</text><rect fill="#E3E3E3" height="32.6211" rx="2.5" ry="2.5" style="stroke:#181818;stroke-width:0.5;" width="161" x="435.5" y="1286.3496"/><text fill="#000000" font-family="sans-serif" font-size="14" lengthAdjust="spacing" textLength="147" x="442.5" y="1308.457">:RegisterCollaboratorUI</text><rect fill="#E3E3E3" height="32.6211" rx="2.5" ry="2.5" style="stroke:#181818;stroke-width:0.5;" width="211" x="896.5" y="50"/><text fill="#000000" font-family="sans-serif" font-size="14" lengthAdjust="spacing" textLength="197" x="903.5" y="72.1074">:RegisterCollaboratorController</text><rect fill="#E3E3E3" height="32.6211" rx="2.5" ry="2.5" style="stroke:#181818;stroke-width:0.5;" width="211" x="896.5" y="1286.3496"/><text fill="#000000" font-family="sans-serif" font-size="14" lengthAdjust="spacing" textLength="197" x="903.5" y="1308.457">:RegisterCollaboratorController</text><rect fill="#E3E3E3" height="32.6211" rx="2.5" ry="2.5" style="stroke:#181818;stroke-width:0.5;" width="97" x="1171.5" y="50"/><text fill="#000000" font-family="sans-serif" font-size="14" lengthAdjust="spacing" textLength="83" x="1178.5" y="72.1074">:Repositories</text><rect fill="#E3E3E3" height="32.6211" rx="2.5" ry="2.5" style="stroke:#181818;stroke-width:0.5;" width="97" x="1171.5" y="1286.3496"/><text fill="#000000" font-family="sans-serif" font-size="14" lengthAdjust="spacing" textLength="83" x="1178.5" y="1308.457">:Repositories</text><rect fill="#E3E3E3" height="51.2422" rx="2.5" ry="2.5" style="stroke:#181818;stroke-width:0.5;" width="97" x="1278.5" y="31.3789"/><text fill="#000000" font-family="sans-serif" font-size="14" lengthAdjust="spacing" textLength="74" x="1290" y="53.4863">repositories</text><text fill="#000000" font-family="sans-serif" font-size="14" lengthAdjust="spacing" textLength="83" x="1285.5" y="72.1074">:Repositories</text><rect fill="#E3E3E3" height="51.2422" rx="2.5" ry="2.5" style="stroke:#181818;stroke-width:0.5;" width="97" x="1278.5" y="1286.3496"/><text fill="#000000" font-family="sans-serif" font-size="14" lengthAdjust="spacing" textLength="74" x="1290" y="1308.457">repositories</text><text fill="#000000" font-family="sans-serif" font-size="14" lengthAdjust="spacing" textLength="83" x="1285.5" y="1327.0781">:Repositories</text><rect fill="#E3E3E3" height="51.2422" rx="2.5" ry="2.5" style="stroke:#181818;stroke-width:0.5;" width="105" x="1385.5" y="31.3789"/><text fill="#000000" font-family="sans-serif" font-size="14" lengthAdjust="spacing" textLength="91" x="1392.5" y="53.4863">jobRepository:</text><text fill="#000000" font-family="sans-serif" font-size="14" lengthAdjust="spacing" textLength="90" x="1393" y="72.1074">JobRepository</text><rect fill="#E3E3E3" height="51.2422" rx="2.5" ry="2.5" style="stroke:#181818;stroke-width:0.5;" width="105" x="1385.5" y="1286.3496"/><text fill="#000000" font-family="sans-serif" font-size="14" lengthAdjust="spacing" textLength="91" x="1392.5" y="1308.457">jobRepository:</text><text fill="#000000" font-family="sans-serif" font-size="14" lengthAdjust="spacing" textLength="90" x="1393" y="1327.0781">JobRepository</text><rect fill="#E3E3E3" height="51.2422" rx="2.5" ry="2.5" style="stroke:#181818;stroke-width:0.5;" width="147" x="1500.5" y="31.3789"/><text fill="#000000" font-family="sans-serif" font-size="14" lengthAdjust="spacing" textLength="133" x="1507.5" y="53.4863">employeeRepository:</text><text fill="#000000" font-family="sans-serif" font-size="14" lengthAdjust="spacing" textLength="130" x="1509" y="72.1074">EmployeeRepository</text><rect fill="#E3E3E3" height="51.2422" rx="2.5" ry="2.5" style="stroke:#181818;stroke-width:0.5;" width="147" x="1500.5" y="1286.3496"/><text fill="#000000" font-family="sans-serif" font-size="14" lengthAdjust="spacing" textLength="133" x="1507.5" y="1308.457">employeeRepository:</text><text fill="#000000" font-family="sans-serif" font-size="14" lengthAdjust="spacing" textLength="130" x="1509" y="1327.0781">EmployeeRepository</text><rect fill="#E3E3E3" height="51.2422" rx="2.5" ry="2.5" style="stroke:#181818;stroke-width:0.5;" width="80" x="1752" y="31.3789"/><text fill="#000000" font-family="sans-serif" font-size="14" lengthAdjust="spacing" textLength="61" x="1761.5" y="53.4863">employee</text><text fill="#000000" font-family="sans-serif" font-size="14" lengthAdjust="spacing" textLength="66" x="1759" y="72.1074">:Employee</text><rect fill="#E3E3E3" height="51.2422" rx="2.5" ry="2.5" style="stroke:#181818;stroke-width:0.5;" width="80" x="1752" y="1286.3496"/><text fill="#000000" font-family="sans-serif" font-size="14" lengthAdjust="spacing" textLength="61" x="1761.5" y="1308.457">employee</text><text fill="#000000" font-family="sans-serif" font-size="14" lengthAdjust="spacing" textLength="66" x="1759" y="1327.0781">:Employee</text><rect fill="#FFFFFF" height="1175.7285" style="stroke:#181818;stroke-width:1.0;" width="10" x="18" y="93.6211"/><rect fill="#FFFFFF" height="31.291" style="stroke:#181818;stroke-width:1.0;" width="10" x="511" y="165.1641"/><rect fill="#FFFFFF" height="281.6191" style="stroke:#181818;stroke-width:1.0;" width="10" x="511" y="245.0371"/><rect fill="#FFFFFF" height="31.291" style="stroke:#181818;stroke-width:1.0;" width="10" x="511" y="557.9473"/><rect fill="#FFFFFF" height="657.8203" style="stroke:#181818;stroke-width:1.0;" width="10" x="511" y="620.5293"/><rect fill="#FFFFFF" height="31.291" style="stroke:#181818;stroke-width:1.0;" width="10" x="516" y="1238.0586"/><rect fill="#FFFFFF" height="219.0371" style="stroke:#181818;stroke-width:1.0;" width="10" x="997" y="276.3281"/><rect fill="#FFFFFF" height="609.2383" style="stroke:#181818;stroke-width:1.0;" width="10" x="997" y="669.1113"/><rect fill="#FFFFFF" height="230.0371" style="stroke:#181818;stroke-width:1.0;" width="10" x="1002" y="708.4023"/><rect fill="#FFFFFF" height="31.291" style="stroke:#181818;stroke-width:1.0;" width="10" x="1002" y="1206.7676"/><rect fill="#FFFFFF" height="31.291" style="stroke:#181818;stroke-width:1.0;" width="10" x="1215" y="307.6191"/><rect fill="#FFFFFF" height="31.291" style="stroke:#181818;stroke-width:1.0;" width="10" x="1215" y="744.6934"/><rect fill="#FFFFFF" height="31.291" style="stroke:#181818;stroke-width:1.0;" width="10" x="1322" y="370.2012"/><rect fill="#FFFFFF" height="31.291" style="stroke:#181818;stroke-width:1.0;" width="10" x="1322" y="807.2754"/><rect fill="#FFFFFF" height="31.291" style="stroke:#181818;stroke-width:1.0;" width="10" x="1433" y="432.7832"/><rect fill="#FFFFFF" height="31.291" style="stroke:#181818;stroke-width:1.0;" width="10" x="1569" y="869.8574"/><rect fill="#FFFFFF" height="119.873" style="stroke:#181818;stroke-width:1.0;" width="10" x="1569" y="1086.8945"/><rect fill="#FFFFFF" height="92.873" style="stroke:#181818;stroke-width:1.0;" width="10" x="1787" y="994.0215"/><rect fill="none" height="43.252" style="stroke:#000000;stroke-width:1.5;" width="597.5" x="2" y="93.6211"/><path d="M2,93.6211 L64,93.6211 L64,102.6211 L54,112.6211 L2,112.6211 L2,93.6211 " fill="#EEEEEE" style="stroke:#000000;stroke-width:2.0;"/><text fill="#000000" font-family="sans-serif" font-size="13" font-weight="bold" lengthAdjust="spacing" textLength="17" x="15" y="109.6494">ref</text><text fill="#000000" font-family="sans-serif" font-size="12" lengthAdjust="spacing" textLength="308" x="146.75" y="129.5703">This action assumes that the user has already logged in</text><polygon fill="#181818" points="499,161.1641,509,165.1641,499,169.1641,503,165.1641" style="stroke:#181818;stroke-width:1.0;"/><line style="stroke:#181818;stroke-width:1.0;" x1="28" x2="505" y1="165.1641" y2="165.1641"/><text fill="#000000" font-family="sans-serif" font-size="13" font-weight="bold" lengthAdjust="spacing" textLength="7" x="35" y="159.9014">1</text><text fill="#000000" font-family="sans-serif" font-size="13" lengthAdjust="spacing" textLength="192" x="46" y="159.9014">asks to create a new collaborator</text><polygon fill="#181818" points="39,192.4551,29,196.4551,39,200.4551,35,196.4551" style="stroke:#181818;stroke-width:1.0;"/><line style="stroke:#181818;stroke-width:1.0;stroke-dasharray:2.0,2.0;" x1="33" x2="515" y1="196.4551" y2="196.4551"/><text fill="#000000" font-family="sans-serif" font-size="13" font-weight="bold" lengthAdjust="spacing" textLength="7" x="45" y="191.1924">2</text><text fill="#000000" font-family="sans-serif" font-size="13" lengthAdjust="spacing" textLength="284" x="56" y="191.1924">shows fundamental characteristics (request data)</text><polygon fill="#181818" points="499,241.0371,509,245.0371,499,249.0371,503,245.0371" style="stroke:#181818;stroke-width:1.0;"/><line style="stroke:#181818;stroke-width:1.0;" x1="28" x2="505" y1="245.0371" y2="245.0371"/><text fill="#000000" font-family="sans-serif" font-size="13" font-weight="bold" lengthAdjust="spacing" textLength="7" x="35" y="231.1289">3</text><text fill="#000000" font-family="sans-serif" font-size="13" lengthAdjust="spacing" textLength="453" x="46" y="222.4834">types requested data (name, birth date, admission date, email, phone number,</text><text fill="#000000" font-family="sans-serif" font-size="13" lengthAdjust="spacing" textLength="343" x="50" y="239.7744">admission date, taxpayer number, ID doc type and number)</text><polygon fill="#181818" points="985,272.3281,995,276.3281,985,280.3281,989,276.3281" style="stroke:#181818;stroke-width:1.0;"/><line style="stroke:#181818;stroke-width:1.0;" x1="521" x2="991" y1="276.3281" y2="276.3281"/><text fill="#000000" font-family="sans-serif" font-size="13" font-weight="bold" lengthAdjust="spacing" textLength="7" x="528" y="271.0654">4</text><text fill="#000000" font-family="sans-serif" font-size="13" lengthAdjust="spacing" textLength="74" x="539" y="271.0654">getJobsList()</text><polygon fill="#181818" points="1203,303.6191,1213,307.6191,1203,311.6191,1207,307.6191" style="stroke:#181818;stroke-width:1.0;"/><line style="stroke:#181818;stroke-width:1.0;" x1="1007" x2="1209" y1="307.6191" y2="307.6191"/><text fill="#000000" font-family="sans-serif" font-size="13" font-weight="bold" lengthAdjust="spacing" textLength="7" x="1014" y="302.3564">5</text><text fill="#000000" font-family="sans-serif" font-size="13" lengthAdjust="spacing" textLength="75" x="1025" y="302.3564">getInstance()</text><polygon fill="#181818" points="1018,334.9102,1008,338.9102,1018,342.9102,1014,338.9102" style="stroke:#181818;stroke-width:1.0;"/><line style="stroke:#181818;stroke-width:1.0;stroke-dasharray:2.0,2.0;" x1="1012" x2="1219" y1="338.9102" y2="338.9102"/><text fill="#000000" font-family="sans-serif" font-size="13" font-weight="bold" lengthAdjust="spacing" textLength="7" x="1024" y="333.6475">6</text><text fill="#000000" font-family="sans-serif" font-size="13" lengthAdjust="spacing" textLength="67" x="1035" y="333.6475">repositories</text><polygon fill="#181818" points="1310,366.2012,1320,370.2012,1310,374.2012,1314,370.2012" style="stroke:#181818;stroke-width:1.0;"/><line style="stroke:#181818;stroke-width:1.0;" x1="1007" x2="1316" y1="370.2012" y2="370.2012"/><text fill="#000000" font-family="sans-serif" font-size="13" font-weight="bold" lengthAdjust="spacing" textLength="7" x="1014" y="364.9385">7</text><text fill="#000000" font-family="sans-serif" font-size="13" lengthAdjust="spacing" textLength="108" x="1025" y="364.9385">getJobRepository()</text><polygon fill="#181818" points="1018,397.4922,1008,401.4922,1018,405.4922,1014,401.4922" style="stroke:#181818;stroke-width:1.0;"/><line style="stroke:#181818;stroke-width:1.0;stroke-dasharray:2.0,2.0;" x1="1012" x2="1326" y1="401.4922" y2="401.4922"/><text fill="#000000" font-family="sans-serif" font-size="13" font-weight="bold" lengthAdjust="spacing" textLength="7" x="1024" y="396.2295">8</text><text fill="#000000" font-family="sans-serif" font-size="13" lengthAdjust="spacing" textLength="100" x="1035" y="396.2295">getJobRepository</text><polygon fill="#181818" points="1421,428.7832,1431,432.7832,1421,436.7832,1425,432.7832" style="stroke:#181818;stroke-width:1.0;"/><line style="stroke:#181818;stroke-width:1.0;" x1="1007" x2="1427" y1="432.7832" y2="432.7832"/><text fill="#000000" font-family="sans-serif" font-size="13" font-weight="bold" lengthAdjust="spacing" textLength="7" x="1014" y="427.5205">9</text><text fill="#000000" font-family="sans-serif" font-size="13" lengthAdjust="spacing" textLength="74" x="1025" y="427.5205">getJobsList()</text><polygon fill="#181818" points="1018,460.0742,1008,464.0742,1018,468.0742,1014,464.0742" style="stroke:#181818;stroke-width:1.0;"/><line style="stroke:#181818;stroke-width:1.0;stroke-dasharray:2.0,2.0;" x1="1012" x2="1437" y1="464.0742" y2="464.0742"/><text fill="#000000" font-family="sans-serif" font-size="13" font-weight="bold" lengthAdjust="spacing" textLength="14" x="1024" y="458.8115">10</text><text fill="#000000" font-family="sans-serif" font-size="13" lengthAdjust="spacing" textLength="45" x="1042" y="458.8115">jobsList</text><polygon fill="#181818" points="532,491.3652,522,495.3652,532,499.3652,528,495.3652" style="stroke:#181818;stroke-width:1.0;"/><line style="stroke:#181818;stroke-width:1.0;stroke-dasharray:2.0,2.0;" x1="526" x2="1001" y1="495.3652" y2="495.3652"/><text fill="#000000" font-family="sans-serif" font-size="13" font-weight="bold" lengthAdjust="spacing" textLength="14" x="538" y="490.1025">11</text><text fill="#000000" font-family="sans-serif" font-size="13" lengthAdjust="spacing" textLength="45" x="556" y="490.1025">jobsList</text><polygon fill="#181818" points="39,522.6563,29,526.6563,39,530.6563,35,526.6563" style="stroke:#181818;stroke-width:1.0;"/><line style="stroke:#181818;stroke-width:1.0;stroke-dasharray:2.0,2.0;" x1="33" x2="515" y1="526.6563" y2="526.6563"/><text fill="#000000" font-family="sans-serif" font-size="13" font-weight="bold" lengthAdjust="spacing" textLength="14" x="45" y="521.3936">12</text><text fill="#000000" font-family="sans-serif" font-size="13" lengthAdjust="spacing" textLength="173" x="63" y="521.3936">shows job list  (selected data)</text><polygon fill="#181818" points="499,553.9473,509,557.9473,499,561.9473,503,557.9473" style="stroke:#181818;stroke-width:1.0;"/><line style="stroke:#181818;stroke-width:1.0;" x1="28" x2="505" y1="557.9473" y2="557.9473"/><text fill="#000000" font-family="sans-serif" font-size="13" font-weight="bold" lengthAdjust="spacing" textLength="14" x="35" y="552.6846">13</text><text fill="#000000" font-family="sans-serif" font-size="13" lengthAdjust="spacing" textLength="191" x="53" y="552.6846">selects one job from available list</text><polygon fill="#181818" points="39,585.2383,29,589.2383,39,593.2383,35,589.2383" style="stroke:#181818;stroke-width:1.0;"/><line style="stroke:#181818;stroke-width:1.0;stroke-dasharray:2.0,2.0;" x1="33" x2="515" y1="589.2383" y2="589.2383"/><text fill="#000000" font-family="sans-serif" font-size="13" font-weight="bold" lengthAdjust="spacing" textLength="14" x="45" y="583.9756">14</text><text fill="#000000" font-family="sans-serif" font-size="13" lengthAdjust="spacing" textLength="236" x="63" y="583.9756">shows all data and requests confirmation</text><polygon fill="#181818" points="499,616.5293,509,620.5293,499,624.5293,503,620.5293" style="stroke:#181818;stroke-width:1.0;"/><line style="stroke:#181818;stroke-width:1.0;" x1="28" x2="505" y1="620.5293" y2="620.5293"/><text fill="#000000" font-family="sans-serif" font-size="13" font-weight="bold" lengthAdjust="spacing" textLength="14" x="35" y="615.2666">15</text><text fill="#000000" font-family="sans-serif" font-size="13" lengthAdjust="spacing" textLength="78" x="53" y="615.2666">confirms data</text><polygon fill="#181818" points="985,665.1113,995,669.1113,985,673.1113,989,669.1113" style="stroke:#181818;stroke-width:1.0;"/><line style="stroke:#181818;stroke-width:1.0;" x1="521" x2="991" y1="669.1113" y2="669.1113"/><text fill="#000000" font-family="sans-serif" font-size="13" font-weight="bold" lengthAdjust="spacing" textLength="14" x="528" y="655.2031">16</text><text fill="#000000" font-family="sans-serif" font-size="13" lengthAdjust="spacing" textLength="439" x="546" y="646.5576">registerCollaborator(name, birth date, admission date, email, phone number,</text><text fill="#000000" font-family="sans-serif" font-size="13" lengthAdjust="spacing" textLength="368" x="550" y="663.8486">admission date, taxpayer number, ID doc type and number, job)</text><line style="stroke:#181818;stroke-width:1.0;" x1="1007" x2="1054" y1="695.4023" y2="695.4023"/><line style="stroke:#181818;stroke-width:1.0;" x1="1054" x2="1054" y1="695.4023" y2="708.4023"/><line style="stroke:#181818;stroke-width:1.0;" x1="1013" x2="1054" y1="708.4023" y2="708.4023"/><polygon fill="#181818" points="1023,704.4023,1013,708.4023,1023,712.4023,1019,708.4023" style="stroke:#181818;stroke-width:1.0;"/><text fill="#000000" font-family="sans-serif" font-size="13" font-weight="bold" lengthAdjust="spacing" textLength="14" x="1019" y="690.1396">17</text><text fill="#000000" font-family="sans-serif" font-size="13" lengthAdjust="spacing" textLength="176" x="1037" y="690.1396">getEmployeeFromRepository()</text><polygon fill="#181818" points="1203,740.6934,1213,744.6934,1203,748.6934,1207,744.6934" style="stroke:#181818;stroke-width:1.0;"/><line style="stroke:#181818;stroke-width:1.0;" x1="1012" x2="1209" y1="744.6934" y2="744.6934"/><text fill="#000000" font-family="sans-serif" font-size="13" font-weight="bold" lengthAdjust="spacing" textLength="14" x="1019" y="739.4307">18</text><text fill="#000000" font-family="sans-serif" font-size="13" lengthAdjust="spacing" textLength="75" x="1037" y="739.4307">getInstance()</text><polygon fill="#181818" points="1023,771.9844,1013,775.9844,1023,779.9844,1019,775.9844" style="stroke:#181818;stroke-width:1.0;"/><line style="stroke:#181818;stroke-width:1.0;stroke-dasharray:2.0,2.0;" x1="1017" x2="1219" y1="775.9844" y2="775.9844"/><text fill="#000000" font-family="sans-serif" font-size="13" font-weight="bold" lengthAdjust="spacing" textLength="14" x="1029" y="770.7217">19</text><text fill="#000000" font-family="sans-serif" font-size="13" lengthAdjust="spacing" textLength="67" x="1047" y="770.7217">repositories</text><polygon fill="#181818" points="1310,803.2754,1320,807.2754,1310,811.2754,1314,807.2754" style="stroke:#181818;stroke-width:1.0;"/><line style="stroke:#181818;stroke-width:1.0;" x1="1012" x2="1316" y1="807.2754" y2="807.2754"/><text fill="#000000" font-family="sans-serif" font-size="13" font-weight="bold" lengthAdjust="spacing" textLength="14" x="1019" y="802.0127">20</text><text fill="#000000" font-family="sans-serif" font-size="13" lengthAdjust="spacing" textLength="156" x="1037" y="802.0127">getEmployeeRepositories()</text><polygon fill="#181818" points="1023,834.5664,1013,838.5664,1023,842.5664,1019,838.5664" style="stroke:#181818;stroke-width:1.0;"/><line style="stroke:#181818;stroke-width:1.0;stroke-dasharray:2.0,2.0;" x1="1017" x2="1326" y1="838.5664" y2="838.5664"/><text fill="#000000" font-family="sans-serif" font-size="13" font-weight="bold" lengthAdjust="spacing" textLength="14" x="1029" y="833.3037">21</text><text fill="#000000" font-family="sans-serif" font-size="13" lengthAdjust="spacing" textLength="130" x="1047" y="833.3037">EmployeeRepositories</text><polygon fill="#181818" points="1557,865.8574,1567,869.8574,1557,873.8574,1561,869.8574" style="stroke:#181818;stroke-width:1.0;"/><line style="stroke:#181818;stroke-width:1.0;" x1="1012" x2="1563" y1="869.8574" y2="869.8574"/><text fill="#000000" font-family="sans-serif" font-size="13" font-weight="bold" lengthAdjust="spacing" textLength="14" x="1019" y="864.5947">22</text><text fill="#000000" font-family="sans-serif" font-size="13" lengthAdjust="spacing" textLength="84" x="1037" y="864.5947">getEmployee()</text><polygon fill="#181818" points="1023,897.1484,1013,901.1484,1023,905.1484,1019,901.1484" style="stroke:#181818;stroke-width:1.0;"/><line style="stroke:#181818;stroke-width:1.0;stroke-dasharray:2.0,2.0;" x1="1017" x2="1573" y1="901.1484" y2="901.1484"/><text fill="#000000" font-family="sans-serif" font-size="13" font-weight="bold" lengthAdjust="spacing" textLength="14" x="1029" y="895.8857">23</text><text fill="#000000" font-family="sans-serif" font-size="13" lengthAdjust="spacing" textLength="56" x="1047" y="895.8857">employee</text><line style="stroke:#181818;stroke-width:1.0;stroke-dasharray:2.0,2.0;" x1="1012" x2="1054" y1="937.4395" y2="937.4395"/><line style="stroke:#181818;stroke-width:1.0;stroke-dasharray:2.0,2.0;" x1="1054" x2="1054" y1="937.4395" y2="950.4395"/><line style="stroke:#181818;stroke-width:1.0;stroke-dasharray:2.0,2.0;" x1="1007" x2="1054" y1="950.4395" y2="950.4395"/><polygon fill="#181818" points="1017,946.4395,1007,950.4395,1017,954.4395,1013,950.4395" style="stroke:#181818;stroke-width:1.0;"/><text fill="#000000" font-family="sans-serif" font-size="13" font-weight="bold" lengthAdjust="spacing" textLength="14" x="1019" y="932.1768">24</text><text fill="#000000" font-family="sans-serif" font-size="13" lengthAdjust="spacing" textLength="56" x="1037" y="932.1768">employee</text><polygon fill="#181818" points="1775,990.0215,1785,994.0215,1775,998.0215,1779,994.0215" style="stroke:#181818;stroke-width:1.0;"/><line style="stroke:#181818;stroke-width:1.0;" x1="1007" x2="1781" y1="994.0215" y2="994.0215"/><text fill="#000000" font-family="sans-serif" font-size="13" font-weight="bold" lengthAdjust="spacing" textLength="14" x="1014" y="980.1133">25</text><text fill="#000000" font-family="sans-serif" font-size="13" lengthAdjust="spacing" textLength="439" x="1032" y="971.4678">registerCollaborator(name, birth date, admission date, email, phone number,</text><text fill="#000000" font-family="sans-serif" font-size="13" lengthAdjust="spacing" textLength="368" x="1036" y="988.7588">admission date, taxpayer number, ID doc type and number, job)</text><line style="stroke:#181818;stroke-width:1.0;" x1="1797" x2="1839" y1="1042.6035" y2="1042.6035"/><line style="stroke:#181818;stroke-width:1.0;" x1="1839" x2="1839" y1="1042.6035" y2="1055.6035"/><line style="stroke:#181818;stroke-width:1.0;" x1="1798" x2="1839" y1="1055.6035" y2="1055.6035"/><polygon fill="#181818" points="1808,1051.6035,1798,1055.6035,1808,1059.6035,1804,1055.6035" style="stroke:#181818;stroke-width:1.0;"/><text fill="#000000" font-family="sans-serif" font-size="13" font-weight="bold" lengthAdjust="spacing" textLength="14" x="1804" y="1028.6953">26</text><text fill="#000000" font-family="sans-serif" font-size="13" lengthAdjust="spacing" textLength="439" x="1822" y="1020.0498">registerCollaborator(name, birth date, admission date, email, phone number,</text><text fill="#000000" font-family="sans-serif" font-size="13" lengthAdjust="spacing" textLength="368" x="1826" y="1037.3408">admission date, taxpayer number, ID doc type and number, job)</text><polygon fill="#181818" points="1590,1082.8945,1580,1086.8945,1590,1090.8945,1586,1086.8945" style="stroke:#181818;stroke-width:1.0;"/><line style="stroke:#181818;stroke-width:1.0;" x1="1584" x2="1791" y1="1086.8945" y2="1086.8945"/><text fill="#000000" font-family="sans-serif" font-size="13" font-weight="bold" lengthAdjust="spacing" textLength="14" x="1596" y="1081.6318">27</text><text fill="#000000" font-family="sans-serif" font-size="13" lengthAdjust="spacing" textLength="56" x="1614" y="1081.6318">employee</text><line style="stroke:#181818;stroke-width:1.0;" x1="1579" x2="1621" y1="1118.1855" y2="1118.1855"/><line style="stroke:#181818;stroke-width:1.0;" x1="1621" x2="1621" y1="1118.1855" y2="1131.1855"/><line style="stroke:#181818;stroke-width:1.0;" x1="1580" x2="1621" y1="1131.1855" y2="1131.1855"/><polygon fill="#181818" points="1590,1127.1855,1580,1131.1855,1590,1135.1855,1586,1131.1855" style="stroke:#181818;stroke-width:1.0;"/><text fill="#000000" font-family="sans-serif" font-size="13" font-weight="bold" lengthAdjust="spacing" textLength="14" x="1586" y="1112.9229">28</text><text fill="#000000" font-family="sans-serif" font-size="13" lengthAdjust="spacing" textLength="176" x="1604" y="1112.9229">validateCollaborator(employee)</text><line style="stroke:#181818;stroke-width:1.0;" x1="1579" x2="1621" y1="1162.4766" y2="1162.4766"/><line style="stroke:#181818;stroke-width:1.0;" x1="1621" x2="1621" y1="1162.4766" y2="1175.4766"/><line style="stroke:#181818;stroke-width:1.0;" x1="1580" x2="1621" y1="1175.4766" y2="1175.4766"/><polygon fill="#181818" points="1590,1171.4766,1580,1175.4766,1590,1179.4766,1586,1175.4766" style="stroke:#181818;stroke-width:1.0;"/><text fill="#000000" font-family="sans-serif" font-size="13" font-weight="bold" lengthAdjust="spacing" textLength="14" x="1586" y="1157.2139">29</text><text fill="#000000" font-family="sans-serif" font-size="13" lengthAdjust="spacing" textLength="154" x="1604" y="1157.2139">addCollaborator(employee)</text><polygon fill="#181818" points="1023,1202.7676,1013,1206.7676,1023,1210.7676,1019,1206.7676" style="stroke:#181818;stroke-width:1.0;"/><line style="stroke:#181818;stroke-width:1.0;stroke-dasharray:2.0,2.0;" x1="1017" x2="1573" y1="1206.7676" y2="1206.7676"/><text fill="#000000" font-family="sans-serif" font-size="13" font-weight="bold" lengthAdjust="spacing" textLength="14" x="1029" y="1201.5049">30</text><text fill="#000000" font-family="sans-serif" font-size="13" lengthAdjust="spacing" textLength="56" x="1047" y="1201.5049">employee</text><polygon fill="#181818" points="537,1234.0586,527,1238.0586,537,1242.0586,533,1238.0586" style="stroke:#181818;stroke-width:1.0;"/><line style="stroke:#181818;stroke-width:1.0;stroke-dasharray:2.0,2.0;" x1="531" x2="996" y1="1238.0586" y2="1238.0586"/><text fill="#000000" font-family="sans-serif" font-size="13" font-weight="bold" lengthAdjust="spacing" textLength="14" x="543" y="1232.7959">31</text><text fill="#000000" font-family="sans-serif" font-size="13" lengthAdjust="spacing" textLength="56" x="561" y="1232.7959">employee</text><polygon fill="#181818" points="34,1265.3496,24,1269.3496,34,1273.3496,30,1269.3496" style="stroke:#181818;stroke-width:1.0;"/><line style="stroke:#181818;stroke-width:1.0;stroke-dasharray:2.0,2.0;" x1="28" x2="510" y1="1269.3496" y2="1269.3496"/><text fill="#000000" font-family="sans-serif" font-size="13" font-weight="bold" lengthAdjust="spacing" textLength="14" x="40" y="1264.0869">32</text><text fill="#000000" font-family="sans-serif" font-size="13" lengthAdjust="spacing" textLength="110" x="58" y="1264.0869">operation message</text><!--SRC=[pLTDSzem4BthL-paH6RW3t38J2VzefDEEoIvvRBO2oYn9LSIfFpxhcGCaYtSvj89XmJ9xxtTbTvAnhv8rQ316cgjTB4rkYPmPaV2dfuqMBpWXkxTeI8mL3XKcoe6s2sM-bMg3QoniYG4xfnMktf5XhyNJXku-hhyVWLeWVyBPZbPo0QLWwlvaZRIEZAtkgfmfGqo_d4Hm8-BVy3UQkKCZya4pkt3ycx0QhIL39La0-OqSRYNlXREDgMOYF6aXW8_xpuyf8ndlJghpf_KjtWSECbCIgQwgVI1A57uD9WCCiFfl1QdtK43xyVoYn1XE-GU7OMD48RMeFTa_6ZAomrpUDXA2nwb5TFihYOBRekE_n3iB6Eth8QL8ImFKEdDXagGIh02p6vQ3RGlJD9GC8X38IXwXIBQitCQlCM2EJEcUeKvcqc_MbZlL8arAOSL55jsMS6xpbil2miJGxzsP1sKwF1Qb9I8nNcuGyFP7-6SfYV0HB7m55RIkAsVuUzOrj9QNt4xfXfbDOLcgnL1Q-Jfanh07FvkyC0hSeJ0uYEKkWXX0LLvdByULdiJR0gSueOS6yFUSMsJ21XSB0A8mHc_jjI5ijoD1SNKdBb5Jc5sJ6CEiTtZzSnATKdv7ZWLS4R6gOGs4G5u3jOdn05RGXSXWLrUgrHDfAmkBjEVZzmuO8_RHkxiaoEq6vDnB8EXOZ30n5B5f-JHRwC6RP4MlC-ym9hFNy0zkmzNVDXwlTGykSXOLQsplUMEPhVSRcejJOs-aSTIEE9iaBZeLE-HuT7xtrjfwbSfsoQpcvExkcFlCozcuai1lK-gqt_wbkwxg9njeJvwh3kXrvvzxj_QzL9Lv_OTt2WSPgoajaa7pvCsP-MSx5Zs5sIxV8VtNfByMCAPAxEF7K9yAQsbkXjrBFbC2D6lObnmSCPqXVF5_LxRhtsdy0csURwlD4-PvQnpseDetNqvOpkQCqbUVO-Lz2adoz25l7w349Rb1GqXyfw5diVY0dD5fQvBBy2iIC35zyJvIfg3RiY4AmVulT7ohuR-rHCDmnjezFa3]--></g></svg>