<?xml version="1.0" encoding="us-ascii" standalone="no"?><svg xmlns="http://www.w3.org/2000/svg" xmlns:xlink="http://www.w3.org/1999/xlink" contentStyleType="text/css" height="246px" preserveAspectRatio="none" style="width:372px;height:246px;background:#FFFFFF;" version="1.1" viewBox="0 0 372 246" width="372px" zoomAndPan="magnify"><defs/><g><text fill="#000000" font-family="sans-serif" font-size="14" font-weight="bold" lengthAdjust="spacing" textLength="147" x="105.5" y="25.1074">US004 Domain Model</text><!--class Collaborator--><g id="elem_Collaborator"><rect codeLine="17" fill="#F1F1F1" height="36.6211" id="Collaborator" rx="2.5" ry="2.5" style="stroke:#181818;stroke-width:0.5;" width="84" x="281" y="49.8838"/><text fill="#000000" font-family="sans-serif" font-size="14" lengthAdjust="spacing" textLength="78" x="284" y="69.9912">Collaborator</text><line style="stroke:#181818;stroke-width:0.5;" x1="282" x2="364" y1="78.5049" y2="78.5049"/></g><!--class Skill--><g id="elem_Skill"><rect codeLine="21" fill="#F1F1F1" height="73.8633" id="Skill" rx="2.5" ry="2.5" style="stroke:#181818;stroke-width:0.5;" width="81" x="110.5" y="165.8838"/><text fill="#000000" font-family="sans-serif" font-size="14" lengthAdjust="spacing" textLength="25" x="138.5" y="185.9912">Skill</text><line style="stroke:#181818;stroke-width:0.5;" x1="111.5" x2="190.5" y1="194.5049" y2="194.5049"/><text fill="#000000" font-family="sans-serif" font-size="14" lengthAdjust="spacing" textLength="35" x="116.5" y="213.6123">name</text><text fill="#000000" font-family="sans-serif" font-size="14" lengthAdjust="spacing" textLength="69" x="116.5" y="232.2334">description</text></g><!--class HumanResourcesManager--><g id="elem_HumanResourcesManager"><rect codeLine="26" fill="#F1F1F1" height="36.6211" id="HumanResourcesManager" rx="2.5" ry="2.5" style="stroke:#181818;stroke-width:0.5;" width="174" x="7" y="49.8838"/><text fill="#000000" font-family="sans-serif" font-size="14" lengthAdjust="spacing" textLength="168" x="10" y="69.9912">HumanResourcesManager</text><line style="stroke:#181818;stroke-width:0.5;" x1="8" x2="180" y1="78.5049" y2="78.5049"/></g><!--class Job--><g id="elem_Job"><rect codeLine="29" fill="#F1F1F1" height="73.8633" id="Job" rx="2.5" ry="2.5" style="stroke:#181818;stroke-width:0.5;" width="81" x="268.5" y="165.8838"/><text fill="#000000" font-family="sans-serif" font-size="14" lengthAdjust="spacing" textLength="22" x="298" y="185.9912">Job</text><line style="stroke:#181818;stroke-width:0.5;" x1="269.5" x2="348.5" y1="194.5049" y2="194.5049"/><text fill="#000000" font-family="sans-serif" font-size="14" lengthAdjust="spacing" textLength="35" x="274.5" y="213.6123">name</text><text fill="#000000" font-family="sans-serif" font-size="14" lengthAdjust="spacing" textLength="69" x="274.5" y="232.2334">description</text></g><!--link HumanResourcesManager to Collaborator--><g id="link_HumanResourcesManager_Collaborator"><path codeLine="34" d="M181.23,68.3838 C215.36,68.3838 252.91,68.3838 280.8,68.3838 " fill="none" id="HumanResourcesManager-Collaborator" style="stroke:#181818;stroke-width:1.0;"/><polygon fill="#000000" points="208.5,56.0293,199.4549,53.0904,199.4549,58.9682,208.5,56.0293" style="stroke:#000000;stroke-width:1.0;"/><text fill="#000000" font-family="sans-serif" font-size="13" lengthAdjust="spacing" textLength="50" x="212.5" y="61.4121">registers</text><text fill="#000000" font-family="sans-serif" font-size="13" lengthAdjust="spacing" textLength="7" x="189.0271" y="64.7104">1</text><text fill="#000000" font-family="sans-serif" font-size="13" lengthAdjust="spacing" textLength="20" x="253.1331" y="83.7097">1..*</text></g><!--link Collaborator to Skill--><g id="link_Collaborator_Skill"><path codeLine="35" d="M300.38,86.9038 C283.05,100.3338 258.53,119.2938 237,135.8838 C222.24,147.2538 206.03,159.7038 191.71,170.6938 " fill="none" id="Collaborator-Skill" style="stroke:#181818;stroke-width:1.0;"/><polygon fill="#000000" points="261.0404,129.5824,269.998,126.3867,266.4089,121.7319,261.0404,129.5824" style="stroke:#000000;stroke-width:1.0;"/><text fill="#000000" font-family="sans-serif" font-size="13" lengthAdjust="spacing" textLength="21" x="274" y="131.9121">has</text><text fill="#000000" font-family="sans-serif" font-size="13" lengthAdjust="spacing" textLength="7" x="286.0338" y="108.6257">1</text><text fill="#000000" font-family="sans-serif" font-size="13" lengthAdjust="spacing" textLength="20" x="199.475" y="161.5242">0..*</text></g><!--link HumanResourcesManager to Skill--><g id="link_HumanResourcesManager_Skill"><path codeLine="36" d="M76.68,87.0138 C65.63,100.4838 54.8,119.4738 63,135.8838 C72.99,155.8638 92.23,171.3738 110.18,182.3138 " fill="none" id="HumanResourcesManager-Skill" style="stroke:#181818;stroke-width:1.0;"/><polygon fill="#000000" points="69.6581,131.2463,69.4311,121.7385,63.8859,123.6878,69.6581,131.2463" style="stroke:#000000;stroke-width:1.0;"/><text fill="#000000" font-family="sans-serif" font-size="13" lengthAdjust="spacing" textLength="50" x="77" y="131.9121">registers</text><text fill="#000000" font-family="sans-serif" font-size="13" lengthAdjust="spacing" textLength="7" x="64.0846" y="108.4233">1</text><text fill="#000000" font-family="sans-serif" font-size="13" lengthAdjust="spacing" textLength="20" x="82.3982" y="174.9235">1..*</text></g><!--link Collaborator to Job--><g id="link_Collaborator_Job"><path codeLine="37" d="M321.14,86.9738 C319.03,106.9738 315.52,140.1338 312.82,165.7138 " fill="none" id="Collaborator-Job" style="stroke:#181818;stroke-width:1.0;"/><polygon fill="#000000" points="321.4746,131.5016,325.3477,122.8154,319.5024,122.1978,321.4746,131.5016" style="stroke:#000000;stroke-width:1.0;"/><text fill="#000000" font-family="sans-serif" font-size="13" lengthAdjust="spacing" textLength="21" x="331" y="131.9121">has</text><text fill="#000000" font-family="sans-serif" font-size="13" lengthAdjust="spacing" textLength="7" x="312.6995" y="108.3726">1</text><text fill="#000000" font-family="sans-serif" font-size="13" lengthAdjust="spacing" textLength="7" x="305.877" y="154.6452">1</text></g><!--link HumanResourcesManager to Job--><g id="link_HumanResourcesManager_Job"><path codeLine="38" d="M109.34,86.9138 C122.71,101.4038 143.16,121.8238 164,135.8838 C196.79,158.0038 238.19,176.0038 268.35,187.5838 " fill="none" id="HumanResourcesManager-Job" style="stroke:#181818;stroke-width:1.0;"/><polygon fill="#000000" points="173.2245,129.2039,167.1544,121.8824,164.0102,126.8486,173.2245,129.2039" style="stroke:#000000;stroke-width:1.0;"/><text fill="#000000" font-family="sans-serif" font-size="13" lengthAdjust="spacing" textLength="50" x="178" y="131.9121">registers</text><text fill="#000000" font-family="sans-serif" font-size="13" lengthAdjust="spacing" textLength="7" x="105.67" y="108.6385">1</text><text fill="#000000" font-family="sans-serif" font-size="13" lengthAdjust="spacing" textLength="20" x="240.5942" y="181.0005">1..*</text></g><!--SRC=[bP71QiCm38RlUWhHIs3Gai5EEmp6TkW6XR6m1r0TDJ6rhM0hZAxqtUUcD4jXTCm7MrY_lb-oqzQ6ZY9vz1B4j54yeyQU8OsPZioM6gvqvnWZ6wNGkAaWjLJBfmqDRiWbXk8dvMnWtNMC4hKLA1nl55KmsgPLhEqHPoLCOCPHIe-gqQvxvHSZeR9VZ2MqjcOqDfhiFSIUCx9E06erT_PHbUKTFeid6t0bDJk0Og3XcoFTIFIuXm9nNdCoqNQ3SN40W9FgIPoZjKHIYNk0m_c-sbhdze1v1V8y15F4A5psdi8x9-cZuRIYa5yjayRygwolOtu5uEnsXlEyBnOtiuicyJv_HsEJSapu01UfeIXNbKFLC4AMjtGKNh4PVSuLVnha8y_rB_P9FoL_0m00]--></g></svg>