<?xml version="1.0" encoding="us-ascii" standalone="no"?><svg xmlns="http://www.w3.org/2000/svg" xmlns:xlink="http://www.w3.org/1999/xlink" contentStyleType="text/css" height="875px" preserveAspectRatio="none" style="width:1414px;height:875px;background:#FFFFFF;" version="1.1" viewBox="0 0 1414 875" width="1414px" zoomAndPan="magnify"><defs/><g><rect fill="#FFFFFF" height="690.0723" style="stroke:#181818;stroke-width:1.0;" width="10" x="42" y="93.6211"/><rect fill="#FFFFFF" height="31.291" style="stroke:#181818;stroke-width:1.0;" width="10" x="399" y="165.1641"/><rect fill="#FFFFFF" height="546.9473" style="stroke:#181818;stroke-width:1.0;" width="10" x="399" y="227.7461"/><rect fill="#FFFFFF" height="484.3652" style="stroke:#181818;stroke-width:1.0;" width="10" x="680" y="259.0371"/><rect fill="#FFFFFF" height="31.291" style="stroke:#181818;stroke-width:1.0;" width="10" x="795" y="290.3281"/><rect fill="#FFFFFF" height="31.291" style="stroke:#181818;stroke-width:1.0;" width="10" x="902" y="352.9102"/><rect fill="#FFFFFF" height="296.6191" style="stroke:#181818;stroke-width:1.0;" width="10" x="1111" y="415.4922"/><rect fill="#FFFFFF" height="31.291" style="stroke:#181818;stroke-width:1.0;" width="10" x="1369" y="473.0742"/><rect fill="#FFFFFF" height="31.291" style="stroke:#181818;stroke-width:1.0;" width="10" x="1369" y="535.6563"/><rect fill="#FFFFFF" height="31.291" style="stroke:#181818;stroke-width:1.0;" width="10" x="1369" y="598.2383"/><rect fill="none" height="207.0371" style="stroke:#000000;stroke-width:1.5;" width="361" x="1047.5" y="430.4922"/><line style="stroke:#181818;stroke-width:0.5;stroke-dasharray:5.0,5.0;" x1="47" x2="47" y1="83.6211" y2="792.6934"/><line style="stroke:#181818;stroke-width:0.5;stroke-dasharray:5.0,5.0;" x1="403.5" x2="403.5" y1="83.6211" y2="792.6934"/><line style="stroke:#181818;stroke-width:0.5;stroke-dasharray:5.0,5.0;" x1="684.5" x2="684.5" y1="83.6211" y2="792.6934"/><line style="stroke:#181818;stroke-width:0.5;stroke-dasharray:5.0,5.0;" x1="799.5" x2="799.5" y1="83.6211" y2="792.6934"/><line style="stroke:#181818;stroke-width:0.5;stroke-dasharray:5.0,5.0;" x1="906.5" x2="906.5" y1="83.6211" y2="792.6934"/><line style="stroke:#181818;stroke-width:0.5;stroke-dasharray:5.0,5.0;" x1="1115.5" x2="1115.5" y1="83.6211" y2="792.6934"/><line style="stroke:#181818;stroke-width:0.5;stroke-dasharray:5.0,5.0;" x1="1373.5" x2="1373.5" y1="83.6211" y2="792.6934"/><text fill="#000000" font-family="sans-serif" font-size="14" lengthAdjust="spacing" textLength="78" x="5" y="80.1074">Collaborator</text><ellipse cx="47" cy="13.5" fill="#E3E3E3" rx="8" ry="8" style="stroke:#181818;stroke-width:0.5;"/><path d="M47,21.5 L47,48.5 M34,29.5 L60,29.5 M47,48.5 L34,63.5 M47,48.5 L60,63.5 " fill="none" style="stroke:#181818;stroke-width:0.5;"/><text fill="#000000" font-family="sans-serif" font-size="14" lengthAdjust="spacing" textLength="78" x="5" y="806.8008">Collaborator</text><ellipse cx="47" cy="818.8145" fill="#E3E3E3" rx="8" ry="8" style="stroke:#181818;stroke-width:0.5;"/><path d="M47,826.8145 L47,853.8145 M34,834.8145 L60,834.8145 M47,853.8145 L34,868.8145 M47,853.8145 L60,868.8145 " fill="none" style="stroke:#181818;stroke-width:0.5;"/><rect fill="#E3E3E3" height="32.6211" rx="2.5" ry="2.5" style="stroke:#181818;stroke-width:0.5;" width="61" x="373.5" y="50"/><text fill="#000000" font-family="sans-serif" font-size="14" lengthAdjust="spacing" textLength="47" x="380.5" y="72.1074">:TaskUI</text><rect fill="#E3E3E3" height="32.6211" rx="2.5" ry="2.5" style="stroke:#181818;stroke-width:0.5;" width="61" x="373.5" y="791.6934"/><text fill="#000000" font-family="sans-serif" font-size="14" lengthAdjust="spacing" textLength="47" x="380.5" y="813.8008">:TaskUI</text><rect fill="#E3E3E3" height="32.6211" rx="2.5" ry="2.5" style="stroke:#181818;stroke-width:0.5;" width="111" x="629.5" y="50"/><text fill="#000000" font-family="sans-serif" font-size="14" lengthAdjust="spacing" textLength="97" x="636.5" y="72.1074">:TaskController</text><rect fill="#E3E3E3" height="32.6211" rx="2.5" ry="2.5" style="stroke:#181818;stroke-width:0.5;" width="111" x="629.5" y="791.6934"/><text fill="#000000" font-family="sans-serif" font-size="14" lengthAdjust="spacing" textLength="97" x="636.5" y="813.8008">:TaskController</text><rect fill="#E3E3E3" height="32.6211" rx="2.5" ry="2.5" style="stroke:#181818;stroke-width:0.5;" width="97" x="751.5" y="50"/><text fill="#000000" font-family="sans-serif" font-size="14" lengthAdjust="spacing" textLength="83" x="758.5" y="72.1074">:Repositories</text><rect fill="#E3E3E3" height="32.6211" rx="2.5" ry="2.5" style="stroke:#181818;stroke-width:0.5;" width="97" x="751.5" y="791.6934"/><text fill="#000000" font-family="sans-serif" font-size="14" lengthAdjust="spacing" textLength="83" x="758.5" y="813.8008">:Repositories</text><rect fill="#E3E3E3" height="51.2422" rx="2.5" ry="2.5" style="stroke:#181818;stroke-width:0.5;" width="97" x="858.5" y="31.3789"/><text fill="#000000" font-family="sans-serif" font-size="14" lengthAdjust="spacing" textLength="74" x="870" y="53.4863">repositories</text><text fill="#000000" font-family="sans-serif" font-size="14" lengthAdjust="spacing" textLength="83" x="865.5" y="72.1074">:Repositories</text><rect fill="#E3E3E3" height="51.2422" rx="2.5" ry="2.5" style="stroke:#181818;stroke-width:0.5;" width="97" x="858.5" y="791.6934"/><text fill="#000000" font-family="sans-serif" font-size="14" lengthAdjust="spacing" textLength="74" x="870" y="813.8008">repositories</text><text fill="#000000" font-family="sans-serif" font-size="14" lengthAdjust="spacing" textLength="83" x="865.5" y="832.4219">:Repositories</text><rect fill="#E3E3E3" height="51.2422" rx="2.5" ry="2.5" style="stroke:#181818;stroke-width:0.5;" width="117" x="1057.5" y="31.3789"/><text fill="#000000" font-family="sans-serif" font-size="14" lengthAdjust="spacing" textLength="94" x="1069" y="53.4863">taskRepository</text><text fill="#000000" font-family="sans-serif" font-size="14" lengthAdjust="spacing" textLength="103" x="1064.5" y="72.1074">:TaskRepository</text><rect fill="#E3E3E3" height="51.2422" rx="2.5" ry="2.5" style="stroke:#181818;stroke-width:0.5;" width="117" x="1057.5" y="791.6934"/><text fill="#000000" font-family="sans-serif" font-size="14" lengthAdjust="spacing" textLength="94" x="1069" y="813.8008">taskRepository</text><text fill="#000000" font-family="sans-serif" font-size="14" lengthAdjust="spacing" textLength="103" x="1064.5" y="832.4219">:TaskRepository</text><rect fill="#E3E3E3" height="32.6211" rx="2.5" ry="2.5" style="stroke:#181818;stroke-width:0.5;" width="49" x="1349.5" y="50"/><text fill="#000000" font-family="sans-serif" font-size="14" lengthAdjust="spacing" textLength="35" x="1356.5" y="72.1074">:Task</text><rect fill="#E3E3E3" height="32.6211" rx="2.5" ry="2.5" style="stroke:#181818;stroke-width:0.5;" width="49" x="1349.5" y="791.6934"/><text fill="#000000" font-family="sans-serif" font-size="14" lengthAdjust="spacing" textLength="35" x="1356.5" y="813.8008">:Task</text><rect fill="#FFFFFF" height="690.0723" style="stroke:#181818;stroke-width:1.0;" width="10" x="42" y="93.6211"/><rect fill="#FFFFFF" height="31.291" style="stroke:#181818;stroke-width:1.0;" width="10" x="399" y="165.1641"/><rect fill="#FFFFFF" height="546.9473" style="stroke:#181818;stroke-width:1.0;" width="10" x="399" y="227.7461"/><rect fill="#FFFFFF" height="484.3652" style="stroke:#181818;stroke-width:1.0;" width="10" x="680" y="259.0371"/><rect fill="#FFFFFF" height="31.291" style="stroke:#181818;stroke-width:1.0;" width="10" x="795" y="290.3281"/><rect fill="#FFFFFF" height="31.291" style="stroke:#181818;stroke-width:1.0;" width="10" x="902" y="352.9102"/><rect fill="#FFFFFF" height="296.6191" style="stroke:#181818;stroke-width:1.0;" width="10" x="1111" y="415.4922"/><rect fill="#FFFFFF" height="31.291" style="stroke:#181818;stroke-width:1.0;" width="10" x="1369" y="473.0742"/><rect fill="#FFFFFF" height="31.291" style="stroke:#181818;stroke-width:1.0;" width="10" x="1369" y="535.6563"/><rect fill="#FFFFFF" height="31.291" style="stroke:#181818;stroke-width:1.0;" width="10" x="1369" y="598.2383"/><rect fill="none" height="43.252" style="stroke:#000000;stroke-width:1.5;" width="435.5" x="2" y="93.6211"/><path d="M2,93.6211 L64,93.6211 L64,102.6211 L54,112.6211 L2,112.6211 L2,93.6211 " fill="#EEEEEE" style="stroke:#000000;stroke-width:2.0;"/><text fill="#000000" font-family="sans-serif" font-size="13" font-weight="bold" lengthAdjust="spacing" textLength="17" x="15" y="109.6494">ref</text><text fill="#000000" font-family="sans-serif" font-size="12" lengthAdjust="spacing" textLength="308" x="65.75" y="129.5703">This action assumes that the user has already logged in</text><polygon fill="#181818" points="387,161.1641,397,165.1641,387,169.1641,391,165.1641" style="stroke:#181818;stroke-width:1.0;"/><line style="stroke:#181818;stroke-width:1.0;" x1="52" x2="393" y1="165.1641" y2="165.1641"/><text fill="#000000" font-family="sans-serif" font-size="13" font-weight="bold" lengthAdjust="spacing" textLength="7" x="59" y="159.9014">1</text><text fill="#000000" font-family="sans-serif" font-size="13" lengthAdjust="spacing" textLength="198" x="70" y="159.9014">Asks to list tasks assigned to him</text><polygon fill="#181818" points="63,192.4551,53,196.4551,63,200.4551,59,196.4551" style="stroke:#181818;stroke-width:1.0;"/><line style="stroke:#181818;stroke-width:1.0;stroke-dasharray:2.0,2.0;" x1="57" x2="403" y1="196.4551" y2="196.4551"/><text fill="#000000" font-family="sans-serif" font-size="13" font-weight="bold" lengthAdjust="spacing" textLength="7" x="69" y="191.1924">2</text><text fill="#000000" font-family="sans-serif" font-size="13" lengthAdjust="spacing" textLength="312" x="80" y="191.1924">Requests filter data (Start date, end date, task status)</text><polygon fill="#181818" points="387,223.7461,397,227.7461,387,231.7461,391,227.7461" style="stroke:#181818;stroke-width:1.0;"/><line style="stroke:#181818;stroke-width:1.0;" x1="52" x2="393" y1="227.7461" y2="227.7461"/><text fill="#000000" font-family="sans-serif" font-size="13" font-weight="bold" lengthAdjust="spacing" textLength="7" x="59" y="222.4834">3</text><text fill="#000000" font-family="sans-serif" font-size="13" lengthAdjust="spacing" textLength="156" x="70" y="222.4834">Enters requested filter data</text><polygon fill="#181818" points="668,255.0371,678,259.0371,668,263.0371,672,259.0371" style="stroke:#181818;stroke-width:1.0;"/><line style="stroke:#181818;stroke-width:1.0;" x1="409" x2="674" y1="259.0371" y2="259.0371"/><text fill="#000000" font-family="sans-serif" font-size="13" font-weight="bold" lengthAdjust="spacing" textLength="7" x="416" y="253.7744">4</text><text fill="#000000" font-family="sans-serif" font-size="13" lengthAdjust="spacing" textLength="241" x="427" y="253.7744">getTasks(startDate, endDate, taskStatus)</text><polygon fill="#181818" points="783,286.3281,793,290.3281,783,294.3281,787,290.3281" style="stroke:#181818;stroke-width:1.0;"/><line style="stroke:#181818;stroke-width:1.0;" x1="690" x2="789" y1="290.3281" y2="290.3281"/><text fill="#000000" font-family="sans-serif" font-size="13" font-weight="bold" lengthAdjust="spacing" textLength="7" x="697" y="285.0654">5</text><text fill="#000000" font-family="sans-serif" font-size="13" lengthAdjust="spacing" textLength="75" x="708" y="285.0654">getInstance()</text><polygon fill="#181818" points="701,317.6191,691,321.6191,701,325.6191,697,321.6191" style="stroke:#181818;stroke-width:1.0;"/><line style="stroke:#181818;stroke-width:1.0;stroke-dasharray:2.0,2.0;" x1="695" x2="799" y1="321.6191" y2="321.6191"/><text fill="#000000" font-family="sans-serif" font-size="13" font-weight="bold" lengthAdjust="spacing" textLength="7" x="707" y="316.3564">6</text><text fill="#000000" font-family="sans-serif" font-size="13" lengthAdjust="spacing" textLength="67" x="718" y="316.3564">repositories</text><polygon fill="#181818" points="890,348.9102,900,352.9102,890,356.9102,894,352.9102" style="stroke:#181818;stroke-width:1.0;"/><line style="stroke:#181818;stroke-width:1.0;" x1="690" x2="896" y1="352.9102" y2="352.9102"/><text fill="#000000" font-family="sans-serif" font-size="13" font-weight="bold" lengthAdjust="spacing" textLength="7" x="697" y="347.6475">7</text><text fill="#000000" font-family="sans-serif" font-size="13" lengthAdjust="spacing" textLength="116" x="708" y="347.6475">getTaskRepository()</text><polygon fill="#181818" points="701,380.2012,691,384.2012,701,388.2012,697,384.2012" style="stroke:#181818;stroke-width:1.0;"/><line style="stroke:#181818;stroke-width:1.0;stroke-dasharray:2.0,2.0;" x1="695" x2="906" y1="384.2012" y2="384.2012"/><text fill="#000000" font-family="sans-serif" font-size="13" font-weight="bold" lengthAdjust="spacing" textLength="7" x="707" y="378.9385">8</text><text fill="#000000" font-family="sans-serif" font-size="13" lengthAdjust="spacing" textLength="87" x="718" y="378.9385">taskRepository</text><polygon fill="#181818" points="1099,411.4922,1109,415.4922,1099,419.4922,1103,415.4922" style="stroke:#181818;stroke-width:1.0;"/><line style="stroke:#181818;stroke-width:1.0;" x1="690" x2="1105" y1="415.4922" y2="415.4922"/><text fill="#000000" font-family="sans-serif" font-size="13" font-weight="bold" lengthAdjust="spacing" textLength="7" x="697" y="410.2295">9</text><text fill="#000000" font-family="sans-serif" font-size="13" lengthAdjust="spacing" textLength="391" x="708" y="410.2295">getCollaboratorTasksSortedByDate(startDate, endDate, taskStatus)</text><path d="M1047.5,430.4922 L1120.5,430.4922 L1120.5,439.7832 L1110.5,449.7832 L1047.5,449.7832 L1047.5,430.4922 " fill="#EEEEEE" style="stroke:#000000;stroke-width:1.5;"/><rect fill="none" height="207.0371" style="stroke:#000000;stroke-width:1.5;" width="361" x="1047.5" y="430.4922"/><text fill="#000000" font-family="sans-serif" font-size="13" font-weight="bold" lengthAdjust="spacing" textLength="28" x="1062.5" y="445.5205">loop</text><text fill="#000000" font-family="sans-serif" font-size="11" font-weight="bold" lengthAdjust="spacing" textLength="80" x="1135.5" y="444.3623">[for each task]</text><polygon fill="#181818" points="1357,469.0742,1367,473.0742,1357,477.0742,1361,473.0742" style="stroke:#181818;stroke-width:1.0;"/><line style="stroke:#181818;stroke-width:1.0;" x1="1121" x2="1363" y1="473.0742" y2="473.0742"/><text fill="#000000" font-family="sans-serif" font-size="13" font-weight="bold" lengthAdjust="spacing" textLength="14" x="1128" y="467.8115">10</text><text fill="#000000" font-family="sans-serif" font-size="13" lengthAdjust="spacing" textLength="130" x="1146" y="467.8115">hasStatus(taskStatus)</text><polygon fill="#181818" points="1132,500.3652,1122,504.3652,1132,508.3652,1128,504.3652" style="stroke:#181818;stroke-width:1.0;"/><line style="stroke:#181818;stroke-width:1.0;stroke-dasharray:2.0,2.0;" x1="1126" x2="1373" y1="504.3652" y2="504.3652"/><text fill="#000000" font-family="sans-serif" font-size="13" font-weight="bold" lengthAdjust="spacing" textLength="14" x="1138" y="499.1025">11</text><text fill="#000000" font-family="sans-serif" font-size="13" lengthAdjust="spacing" textLength="4" x="1156" y="499.1025">&#160;</text><polygon fill="#181818" points="1357,531.6563,1367,535.6563,1357,539.6563,1361,535.6563" style="stroke:#181818;stroke-width:1.0;"/><line style="stroke:#181818;stroke-width:1.0;" x1="1121" x2="1363" y1="535.6563" y2="535.6563"/><text fill="#000000" font-family="sans-serif" font-size="13" font-weight="bold" lengthAdjust="spacing" textLength="14" x="1128" y="530.3936">12</text><text fill="#000000" font-family="sans-serif" font-size="13" lengthAdjust="spacing" textLength="211" x="1146" y="530.3936">isBetweenDates(startDate, endDate)</text><polygon fill="#181818" points="1132,562.9473,1122,566.9473,1132,570.9473,1128,566.9473" style="stroke:#181818;stroke-width:1.0;"/><line style="stroke:#181818;stroke-width:1.0;stroke-dasharray:2.0,2.0;" x1="1126" x2="1373" y1="566.9473" y2="566.9473"/><text fill="#000000" font-family="sans-serif" font-size="13" font-weight="bold" lengthAdjust="spacing" textLength="14" x="1138" y="561.6846">13</text><text fill="#000000" font-family="sans-serif" font-size="13" lengthAdjust="spacing" textLength="4" x="1156" y="561.6846">&#160;</text><polygon fill="#181818" points="1357,594.2383,1367,598.2383,1357,602.2383,1361,598.2383" style="stroke:#181818;stroke-width:1.0;"/><line style="stroke:#181818;stroke-width:1.0;" x1="1121" x2="1363" y1="598.2383" y2="598.2383"/><text fill="#000000" font-family="sans-serif" font-size="13" font-weight="bold" lengthAdjust="spacing" textLength="14" x="1128" y="592.9756">14</text><text fill="#000000" font-family="sans-serif" font-size="13" lengthAdjust="spacing" textLength="197" x="1146" y="592.9756">isAssignedToCurrentCollaborator()</text><polygon fill="#181818" points="1132,625.5293,1122,629.5293,1132,633.5293,1128,629.5293" style="stroke:#181818;stroke-width:1.0;"/><line style="stroke:#181818;stroke-width:1.0;stroke-dasharray:2.0,2.0;" x1="1126" x2="1373" y1="629.5293" y2="629.5293"/><text fill="#000000" font-family="sans-serif" font-size="13" font-weight="bold" lengthAdjust="spacing" textLength="14" x="1138" y="624.2666">15</text><text fill="#000000" font-family="sans-serif" font-size="13" lengthAdjust="spacing" textLength="4" x="1156" y="624.2666">&#160;</text><line style="stroke:#181818;stroke-width:1.0;" x1="1121" x2="1163" y1="667.8203" y2="667.8203"/><line style="stroke:#181818;stroke-width:1.0;" x1="1163" x2="1163" y1="667.8203" y2="680.8203"/><line style="stroke:#181818;stroke-width:1.0;" x1="1122" x2="1163" y1="680.8203" y2="680.8203"/><polygon fill="#181818" points="1132,676.8203,1122,680.8203,1132,684.8203,1128,680.8203" style="stroke:#181818;stroke-width:1.0;"/><text fill="#000000" font-family="sans-serif" font-size="13" font-weight="bold" lengthAdjust="spacing" textLength="14" x="1128" y="662.5576">16</text><text fill="#000000" font-family="sans-serif" font-size="13" lengthAdjust="spacing" textLength="108" x="1146" y="662.5576">sortTasksByDate()</text><polygon fill="#181818" points="701,708.1113,691,712.1113,701,716.1113,697,712.1113" style="stroke:#181818;stroke-width:1.0;"/><line style="stroke:#181818;stroke-width:1.0;stroke-dasharray:2.0,2.0;" x1="695" x2="1115" y1="712.1113" y2="712.1113"/><text fill="#000000" font-family="sans-serif" font-size="13" font-weight="bold" lengthAdjust="spacing" textLength="14" x="707" y="706.8486">17</text><text fill="#000000" font-family="sans-serif" font-size="13" lengthAdjust="spacing" textLength="71" x="725" y="706.8486">List of tasks</text><polygon fill="#181818" points="420,739.4023,410,743.4023,420,747.4023,416,743.4023" style="stroke:#181818;stroke-width:1.0;"/><line style="stroke:#181818;stroke-width:1.0;stroke-dasharray:2.0,2.0;" x1="414" x2="684" y1="743.4023" y2="743.4023"/><text fill="#000000" font-family="sans-serif" font-size="13" font-weight="bold" lengthAdjust="spacing" textLength="14" x="426" y="738.1396">18</text><text fill="#000000" font-family="sans-serif" font-size="13" lengthAdjust="spacing" textLength="71" x="444" y="738.1396">List of tasks</text><polygon fill="#181818" points="63,770.6934,53,774.6934,63,778.6934,59,774.6934" style="stroke:#181818;stroke-width:1.0;"/><line style="stroke:#181818;stroke-width:1.0;stroke-dasharray:2.0,2.0;" x1="57" x2="403" y1="774.6934" y2="774.6934"/><text fill="#000000" font-family="sans-serif" font-size="13" font-weight="bold" lengthAdjust="spacing" textLength="14" x="69" y="769.4307">19</text><text fill="#000000" font-family="sans-serif" font-size="13" lengthAdjust="spacing" textLength="132" x="87" y="769.4307">Shows the list of tasks</text><!--SRC=[pLJ1Rk8m4BtdAqQSG6f_W4CbIdj0Mwah4cuhLIuCYKLYinwdYB_ViHEC7OBKKxK-HB4zx_bvvdde8DLH6D50evNULaOt2DQqc57OEOhjGPIOstEDO71hXIhhE80giTCdgKhOYvemoqHhjMgRJpJylxNQm6IfwrfyQYDuDW51i5WMx-kC2QpSogDG5YRpGj1Xi_BRczN8tb8hQvW8EufbiNuRHAtng4do6HB9nwnVVx_d7xbqabbK6cwYw3_g7dYbYA-ynHHhMKy0d1bT90iUNopoNn-EPEGk8S2dI7u9YtrECeDxq5zekla3vs8EHIK9NA1M3AIsGG9R2SiVX9Ouk68-KHiKkpFKkYnn1r9bcUU0noVFig03mpJKaXWft8p9PAauc9ShsLp5S0KsAtXafAUOmnh_jaYMO2zhomVkX1KmpIrVpVtZ0w3QzN-E6pXjjgLPjiEOD5NqgfYAs5QUcsL4v8cM37WuGK- -xdCeqReyqfISWfUBW9TmVjuVxu21oNl6BxdXPevnu19FVYdxT1R20ylGLPU0mRhFNgSsjbe8Zn8pPBmZyI8gNF_gkFiwWu5JcPVbI6Lgwliw0-EDp61vhp1-zRvOkJPSvEUpgzAt2fTSv_gUmfuRjTP7s7ENOPcLPqYstGZ8YyQvUo_TGTEnCqVF7gNrwRig6uP4kUjU-pUaINf6Uq9KBYTZ1lzlT2xwxb7ePMiCggJYqn-G6U-vzkEya6g_qTtRazYAtfEz6sTNM0G9J-FDjKozxxfcTaTEPCxkGVHTxXOS0RkMbFRQlD8dyhszJg1fA_q7]--></g></svg>