<?xml version="1.0" encoding="us-ascii" standalone="no"?><svg xmlns="http://www.w3.org/2000/svg" xmlns:xlink="http://www.w3.org/1999/xlink" contentStyleType="text/css" height="1034px" preserveAspectRatio="none" style="width:764px;height:1034px;background:#FFFFFF;" version="1.1" viewBox="0 0 764 1034" width="764px" zoomAndPan="magnify"><defs/><g><!--class TaskUI--><g id="elem_TaskUI"><rect codeLine="7" fill="#F1F1F1" height="66.6211" id="TaskUI" rx="2.5" ry="2.5" style="stroke:#181818;stroke-width:0.5;" width="110" x="355" y="7"/><ellipse cx="385.75" cy="23" fill="#ADD1B2" rx="11" ry="11" style="stroke:#181818;stroke-width:1.0;"/><path d="M388.5156,18.875 Q388.6719,18.6563 388.8594,18.5469 Q389.0469,18.4375 389.2656,18.4375 Q389.6406,18.4375 389.875,18.7031 Q390.1094,18.9531 390.1094,19.5625 L390.1094,21.0156 Q390.1094,21.625 389.875,21.8906 Q389.6406,22.1563 389.2656,22.1563 Q388.9219,22.1563 388.7188,21.9531 Q388.5156,21.7656 388.4063,21.25 Q388.3594,20.8906 388.1719,20.7031 Q387.8438,20.3281 387.2344,20.1094 Q386.625,19.8906 386,19.8906 Q385.2344,19.8906 384.5938,20.2188 Q383.9688,20.5469 383.4688,21.2969 Q382.9844,22.0469 382.9844,23.0781 L382.9844,24.1719 Q382.9844,25.4063 383.875,26.2344 Q384.7656,27.0469 386.3594,27.0469 Q387.2969,27.0469 387.9531,26.7969 Q388.3438,26.6406 388.7656,26.2031 Q389.0313,25.9375 389.1719,25.8594 Q389.3281,25.7813 389.5313,25.7813 Q389.8594,25.7813 390.1094,26.0469 Q390.375,26.2969 390.375,26.6406 Q390.375,26.9844 390.0313,27.3906 Q389.5313,27.9688 388.7344,28.2969 Q387.6563,28.75 386.3594,28.75 Q384.8438,28.75 383.6406,28.125 Q382.6563,27.625 381.9688,26.5625 Q381.2813,25.4844 381.2813,24.2031 L381.2813,23.0469 Q381.2813,21.7188 381.8906,20.5781 Q382.5156,19.4219 383.6094,18.8125 Q384.7031,18.1875 385.9375,18.1875 Q386.6719,18.1875 387.3125,18.3594 Q387.9688,18.5156 388.5156,18.875 Z " fill="#000000"/><text fill="#000000" font-family="sans-serif" font-size="14" lengthAdjust="spacing" textLength="43" x="403.25" y="28.7969">TaskUI</text><line style="stroke:#181818;stroke-width:0.5;" x1="356" x2="464" y1="39" y2="39"/><text fill="#000000" font-family="sans-serif" font-size="14" lengthAdjust="spacing" textLength="98" x="361" y="58.1074">-TaskController</text><line style="stroke:#181818;stroke-width:0.5;" x1="356" x2="464" y1="65.6211" y2="65.6211"/></g><!--class TaskController--><g id="elem_TaskController"><rect codeLine="11" fill="#F1F1F1" height="85.2422" id="TaskController" rx="2.5" ry="2.5" style="stroke:#181818;stroke-width:0.5;" width="493" x="163.5" y="135"/><ellipse cx="359.25" cy="151" fill="#ADD1B2" rx="11" ry="11" style="stroke:#181818;stroke-width:1.0;"/><path d="M362.0156,146.875 Q362.1719,146.6563 362.3594,146.5469 Q362.5469,146.4375 362.7656,146.4375 Q363.1406,146.4375 363.375,146.7031 Q363.6094,146.9531 363.6094,147.5625 L363.6094,149.0156 Q363.6094,149.625 363.375,149.8906 Q363.1406,150.1563 362.7656,150.1563 Q362.4219,150.1563 362.2188,149.9531 Q362.0156,149.7656 361.9063,149.25 Q361.8594,148.8906 361.6719,148.7031 Q361.3438,148.3281 360.7344,148.1094 Q360.125,147.8906 359.5,147.8906 Q358.7344,147.8906 358.0938,148.2188 Q357.4688,148.5469 356.9688,149.2969 Q356.4844,150.0469 356.4844,151.0781 L356.4844,152.1719 Q356.4844,153.4063 357.375,154.2344 Q358.2656,155.0469 359.8594,155.0469 Q360.7969,155.0469 361.4531,154.7969 Q361.8438,154.6406 362.2656,154.2031 Q362.5313,153.9375 362.6719,153.8594 Q362.8281,153.7813 363.0313,153.7813 Q363.3594,153.7813 363.6094,154.0469 Q363.875,154.2969 363.875,154.6406 Q363.875,154.9844 363.5313,155.3906 Q363.0313,155.9688 362.2344,156.2969 Q361.1563,156.75 359.8594,156.75 Q358.3438,156.75 357.1406,156.125 Q356.1563,155.625 355.4688,154.5625 Q354.7813,153.4844 354.7813,152.2031 L354.7813,151.0469 Q354.7813,149.7188 355.3906,148.5781 Q356.0156,147.4219 357.1094,146.8125 Q358.2031,146.1875 359.4375,146.1875 Q360.1719,146.1875 360.8125,146.3594 Q361.4688,146.5156 362.0156,146.875 Z " fill="#000000"/><text fill="#000000" font-family="sans-serif" font-size="14" lengthAdjust="spacing" textLength="93" x="379.75" y="156.7969">TaskController</text><line style="stroke:#181818;stroke-width:0.5;" x1="164.5" x2="655.5" y1="167" y2="167"/><text fill="#000000" font-family="sans-serif" font-size="14" lengthAdjust="spacing" textLength="104" x="169.5" y="186.1074">-TaskRepository</text><line style="stroke:#181818;stroke-width:0.5;" x1="164.5" x2="655.5" y1="193.6211" y2="193.6211"/><text fill="#000000" font-family="sans-serif" font-size="14" lengthAdjust="spacing" textLength="481" x="169.5" y="212.7285">+getTasks(LocalDate startDate, LocalDate endDate, TaskStatus taskStatus)</text></g><!--class Repositories--><g id="elem_Repositories"><rect codeLine="16" fill="#F1F1F1" height="122.4844" id="Repositories" rx="2.5" ry="2.5" style="stroke:#181818;stroke-width:0.5;" width="149" x="399.5" y="299"/><ellipse cx="431.6" cy="315" fill="#ADD1B2" rx="11" ry="11" style="stroke:#181818;stroke-width:1.0;"/><path d="M434.3656,310.875 Q434.5219,310.6563 434.7094,310.5469 Q434.8969,310.4375 435.1156,310.4375 Q435.4906,310.4375 435.725,310.7031 Q435.9594,310.9531 435.9594,311.5625 L435.9594,313.0156 Q435.9594,313.625 435.725,313.8906 Q435.4906,314.1563 435.1156,314.1563 Q434.7719,314.1563 434.5688,313.9531 Q434.3656,313.7656 434.2563,313.25 Q434.2094,312.8906 434.0219,312.7031 Q433.6938,312.3281 433.0844,312.1094 Q432.475,311.8906 431.85,311.8906 Q431.0844,311.8906 430.4438,312.2188 Q429.8188,312.5469 429.3188,313.2969 Q428.8344,314.0469 428.8344,315.0781 L428.8344,316.1719 Q428.8344,317.4063 429.725,318.2344 Q430.6156,319.0469 432.2094,319.0469 Q433.1469,319.0469 433.8031,318.7969 Q434.1938,318.6406 434.6156,318.2031 Q434.8813,317.9375 435.0219,317.8594 Q435.1781,317.7813 435.3813,317.7813 Q435.7094,317.7813 435.9594,318.0469 Q436.225,318.2969 436.225,318.6406 Q436.225,318.9844 435.8813,319.3906 Q435.3813,319.9688 434.5844,320.2969 Q433.5063,320.75 432.2094,320.75 Q430.6938,320.75 429.4906,320.125 Q428.5063,319.625 427.8188,318.5625 Q427.1313,317.4844 427.1313,316.2031 L427.1313,315.0469 Q427.1313,313.7188 427.7406,312.5781 Q428.3656,311.4219 429.4594,310.8125 Q430.5531,310.1875 431.7875,310.1875 Q432.5219,310.1875 433.1625,310.3594 Q433.8188,310.5156 434.3656,310.875 Z " fill="#000000"/><text fill="#000000" font-family="sans-serif" font-size="14" lengthAdjust="spacing" textLength="79" x="449.4" y="320.7969">Repositories</text><line style="stroke:#181818;stroke-width:0.5;" x1="400.5" x2="547.5" y1="331" y2="331"/><text fill="#000000" font-family="sans-serif" font-size="14" lengthAdjust="spacing" textLength="104" x="405.5" y="350.1074">-TaskRepository</text><line style="stroke:#181818;stroke-width:0.5;" x1="400.5" x2="547.5" y1="357.6211" y2="357.6211"/><text fill="#000000" font-family="sans-serif" font-size="14" lengthAdjust="spacing" textLength="94" x="405.5" y="376.7285">-Repositories()</text><text fill="#000000" font-family="sans-serif" font-size="14" lengthAdjust="spacing" textLength="91" x="405.5" y="395.3496">+getInstance()</text><text fill="#000000" font-family="sans-serif" font-size="14" lengthAdjust="spacing" textLength="137" x="405.5" y="413.9707">+getTaskRepository()</text></g><!--class TaskRepository--><g id="elem_TaskRepository"><rect codeLine="23" fill="#F1F1F1" height="103.8633" id="TaskRepository" rx="2.5" ry="2.5" style="stroke:#181818;stroke-width:0.5;" width="659" x="59.5" y="482"/><ellipse cx="335.25" cy="498" fill="#ADD1B2" rx="11" ry="11" style="stroke:#181818;stroke-width:1.0;"/><path d="M338.0156,493.875 Q338.1719,493.6563 338.3594,493.5469 Q338.5469,493.4375 338.7656,493.4375 Q339.1406,493.4375 339.375,493.7031 Q339.6094,493.9531 339.6094,494.5625 L339.6094,496.0156 Q339.6094,496.625 339.375,496.8906 Q339.1406,497.1563 338.7656,497.1563 Q338.4219,497.1563 338.2188,496.9531 Q338.0156,496.7656 337.9063,496.25 Q337.8594,495.8906 337.6719,495.7031 Q337.3438,495.3281 336.7344,495.1094 Q336.125,494.8906 335.5,494.8906 Q334.7344,494.8906 334.0938,495.2188 Q333.4688,495.5469 332.9688,496.2969 Q332.4844,497.0469 332.4844,498.0781 L332.4844,499.1719 Q332.4844,500.4063 333.375,501.2344 Q334.2656,502.0469 335.8594,502.0469 Q336.7969,502.0469 337.4531,501.7969 Q337.8438,501.6406 338.2656,501.2031 Q338.5313,500.9375 338.6719,500.8594 Q338.8281,500.7813 339.0313,500.7813 Q339.3594,500.7813 339.6094,501.0469 Q339.875,501.2969 339.875,501.6406 Q339.875,501.9844 339.5313,502.3906 Q339.0313,502.9688 338.2344,503.2969 Q337.1563,503.75 335.8594,503.75 Q334.3438,503.75 333.1406,503.125 Q332.1563,502.625 331.4688,501.5625 Q330.7813,500.4844 330.7813,499.2031 L330.7813,498.0469 Q330.7813,496.7188 331.3906,495.5781 Q332.0156,494.4219 333.1094,493.8125 Q334.2031,493.1875 335.4375,493.1875 Q336.1719,493.1875 336.8125,493.3594 Q337.4688,493.5156 338.0156,493.875 Z " fill="#000000"/><text fill="#000000" font-family="sans-serif" font-size="14" lengthAdjust="spacing" textLength="99" x="355.75" y="503.7969">TaskRepository</text><line style="stroke:#181818;stroke-width:0.5;" x1="60.5" x2="717.5" y1="514" y2="514"/><text fill="#000000" font-family="sans-serif" font-size="14" lengthAdjust="spacing" textLength="77" x="65.5" y="533.1074">+List&lt;Task&gt;</text><line style="stroke:#181818;stroke-width:0.5;" x1="60.5" x2="717.5" y1="540.6211" y2="540.6211"/><text fill="#000000" font-family="sans-serif" font-size="14" lengthAdjust="spacing" textLength="647" x="65.5" y="559.7285">+getCollaboratorTasksSortedByDate(LocalDate startDate, LocalDate endDate, TaskStatus taskStatus)</text><text fill="#000000" font-family="sans-serif" font-size="14" lengthAdjust="spacing" textLength="123" x="65.5" y="578.3496">-sortTasksByDate()</text></g><!--class Task--><g id="elem_Task"><rect codeLine="29" fill="#F1F1F1" height="178.3477" id="Task" rx="2.5" ry="2.5" style="stroke:#181818;stroke-width:0.5;" width="387" x="370.5" y="647"/><ellipse cx="544.25" cy="663" fill="#ADD1B2" rx="11" ry="11" style="stroke:#181818;stroke-width:1.0;"/><path d="M547.0156,658.875 Q547.1719,658.6563 547.3594,658.5469 Q547.5469,658.4375 547.7656,658.4375 Q548.1406,658.4375 548.375,658.7031 Q548.6094,658.9531 548.6094,659.5625 L548.6094,661.0156 Q548.6094,661.625 548.375,661.8906 Q548.1406,662.1563 547.7656,662.1563 Q547.4219,662.1563 547.2188,661.9531 Q547.0156,661.7656 546.9063,661.25 Q546.8594,660.8906 546.6719,660.7031 Q546.3438,660.3281 545.7344,660.1094 Q545.125,659.8906 544.5,659.8906 Q543.7344,659.8906 543.0938,660.2188 Q542.4688,660.5469 541.9688,661.2969 Q541.4844,662.0469 541.4844,663.0781 L541.4844,664.1719 Q541.4844,665.4063 542.375,666.2344 Q543.2656,667.0469 544.8594,667.0469 Q545.7969,667.0469 546.4531,666.7969 Q546.8438,666.6406 547.2656,666.2031 Q547.5313,665.9375 547.6719,665.8594 Q547.8281,665.7813 548.0313,665.7813 Q548.3594,665.7813 548.6094,666.0469 Q548.875,666.2969 548.875,666.6406 Q548.875,666.9844 548.5313,667.3906 Q548.0313,667.9688 547.2344,668.2969 Q546.1563,668.75 544.8594,668.75 Q543.3438,668.75 542.1406,668.125 Q541.1563,667.625 540.4688,666.5625 Q539.7813,665.4844 539.7813,664.2031 L539.7813,663.0469 Q539.7813,661.7188 540.3906,660.5781 Q541.0156,659.4219 542.1094,658.8125 Q543.2031,658.1875 544.4375,658.1875 Q545.1719,658.1875 545.8125,658.3594 Q546.4688,658.5156 547.0156,658.875 Z " fill="#000000"/><text fill="#000000" font-family="sans-serif" font-size="14" lengthAdjust="spacing" textLength="31" x="564.75" y="668.7969">Task</text><line style="stroke:#181818;stroke-width:0.5;" x1="371.5" x2="756.5" y1="679" y2="679"/><text fill="#000000" font-family="sans-serif" font-size="14" lengthAdjust="spacing" textLength="126" x="376.5" y="698.1074">-status : TaskStatus</text><text fill="#000000" font-family="sans-serif" font-size="14" lengthAdjust="spacing" textLength="139" x="376.5" y="716.7285">-startDate : LocalDate</text><text fill="#000000" font-family="sans-serif" font-size="14" lengthAdjust="spacing" textLength="131" x="376.5" y="735.3496">-endDate: LocalDate</text><text fill="#000000" font-family="sans-serif" font-size="14" lengthAdjust="spacing" textLength="166" x="376.5" y="753.9707">-collaborator: Collaborator</text><line style="stroke:#181818;stroke-width:0.5;" x1="371.5" x2="756.5" y1="761.4844" y2="761.4844"/><text fill="#000000" font-family="sans-serif" font-size="14" lengthAdjust="spacing" textLength="222" x="376.5" y="780.5918">+hasStatus(TaskStatus taskStatus)</text><text fill="#000000" font-family="sans-serif" font-size="14" lengthAdjust="spacing" textLength="375" x="376.5" y="799.2129">+isBetweenDates(LocalDate startDate, LocalDate endDate)</text><text fill="#000000" font-family="sans-serif" font-size="14" lengthAdjust="spacing" textLength="229" x="376.5" y="817.834">+isAssignedToCurrentCollaborator()</text></g><!--class TaskStatus--><g id="elem_TaskStatus"><rect codeLine="39" fill="#F1F1F1" height="141.1055" id="TaskStatus" rx="2.5" ry="2.5" style="stroke:#181818;stroke-width:0.5;" width="103" x="265.5" y="886"/><ellipse cx="280.5" cy="902" fill="#EB937F" rx="11" ry="11" style="stroke:#181818;stroke-width:1.0;"/><path d="M279.3594,902.7969 L279.3594,905.2969 L283.6875,905.2969 L283.6875,904.375 Q283.6875,903.7656 283.9219,903.5 Q284.1719,903.2344 284.5469,903.2344 Q284.9219,903.2344 285.1563,903.5 Q285.3906,903.7656 285.3906,904.375 L285.3906,907 L277.3906,907 Q276.7656,907 276.5,906.7656 Q276.25,906.5313 276.25,906.1406 Q276.25,905.7656 276.5156,905.5313 Q276.7813,905.2969 277.3906,905.2969 L277.6563,905.2969 L277.6563,898.6406 L277.3906,898.6406 Q276.7656,898.6406 276.5,898.4063 Q276.25,898.1719 276.25,897.7813 Q276.25,897.4063 276.5,897.1719 Q276.7656,896.9375 277.3906,896.9375 L285.0156,896.9375 L285.0156,899.5313 Q285.0156,900.1406 284.7813,900.4063 Q284.5625,900.6563 284.1719,900.6563 Q283.7969,900.6563 283.5625,900.4063 Q283.3281,900.1406 283.3281,899.5313 L283.3281,898.6406 L279.3594,898.6406 L279.3594,901.0938 L280.8438,901.0938 Q280.8438,900.4375 280.9688,900.25 Q281.2344,899.8438 281.7031,899.8438 Q282.0781,899.8438 282.3125,900.1094 Q282.5469,900.3594 282.5469,900.9688 L282.5469,902.9375 Q282.5469,903.4844 282.4219,903.6719 Q282.1563,904.0625 281.7031,904.0625 Q281.2344,904.0625 280.9688,903.6563 Q280.8438,903.4688 280.8438,902.7969 L279.3594,902.7969 Z " fill="#000000"/><text fill="#000000" font-family="sans-serif" font-size="14" lengthAdjust="spacing" textLength="71" x="294.5" y="907.7969">TaskStatus</text><line style="stroke:#181818;stroke-width:0.5;" x1="266.5" x2="367.5" y1="918" y2="918"/><text fill="#000000" font-family="sans-serif" font-size="14" lengthAdjust="spacing" textLength="63" x="271.5" y="937.1074">PLANNED</text><text fill="#000000" font-family="sans-serif" font-size="14" lengthAdjust="spacing" textLength="86" x="271.5" y="955.7285">POSTPONED</text><text fill="#000000" font-family="sans-serif" font-size="14" lengthAdjust="spacing" textLength="74" x="271.5" y="974.3496">CANCELED</text><text fill="#000000" font-family="sans-serif" font-size="14" lengthAdjust="spacing" textLength="39" x="271.5" y="992.9707">DONE</text><text fill="#000000" font-family="sans-serif" font-size="14" lengthAdjust="spacing" textLength="60" x="271.5" y="1011.5918">PENDING</text><line style="stroke:#181818;stroke-width:0.5;" x1="266.5" x2="367.5" y1="1019.1055" y2="1019.1055"/></g><!--class Employee--><g id="elem_Employee"><rect codeLine="47" fill="#F1F1F1" height="48" id="Employee" rx="2.5" ry="2.5" style="stroke:#181818;stroke-width:0.5;" width="94" x="517" y="932.5"/><ellipse cx="532" cy="948.5" fill="#ADD1B2" rx="11" ry="11" style="stroke:#181818;stroke-width:1.0;"/><path d="M534.7656,944.375 Q534.9219,944.1563 535.1094,944.0469 Q535.2969,943.9375 535.5156,943.9375 Q535.8906,943.9375 536.125,944.2031 Q536.3594,944.4531 536.3594,945.0625 L536.3594,946.5156 Q536.3594,947.125 536.125,947.3906 Q535.8906,947.6563 535.5156,947.6563 Q535.1719,947.6563 534.9688,947.4531 Q534.7656,947.2656 534.6563,946.75 Q534.6094,946.3906 534.4219,946.2031 Q534.0938,945.8281 533.4844,945.6094 Q532.875,945.3906 532.25,945.3906 Q531.4844,945.3906 530.8438,945.7188 Q530.2188,946.0469 529.7188,946.7969 Q529.2344,947.5469 529.2344,948.5781 L529.2344,949.6719 Q529.2344,950.9063 530.125,951.7344 Q531.0156,952.5469 532.6094,952.5469 Q533.5469,952.5469 534.2031,952.2969 Q534.5938,952.1406 535.0156,951.7031 Q535.2813,951.4375 535.4219,951.3594 Q535.5781,951.2813 535.7813,951.2813 Q536.1094,951.2813 536.3594,951.5469 Q536.625,951.7969 536.625,952.1406 Q536.625,952.4844 536.2813,952.8906 Q535.7813,953.4688 534.9844,953.7969 Q533.9063,954.25 532.6094,954.25 Q531.0938,954.25 529.8906,953.625 Q528.9063,953.125 528.2188,952.0625 Q527.5313,950.9844 527.5313,949.7031 L527.5313,948.5469 Q527.5313,947.2188 528.1406,946.0781 Q528.7656,944.9219 529.8594,944.3125 Q530.9531,943.6875 532.1875,943.6875 Q532.9219,943.6875 533.5625,943.8594 Q534.2188,944.0156 534.7656,944.375 Z " fill="#000000"/><text fill="#000000" font-family="sans-serif" font-size="14" lengthAdjust="spacing" textLength="62" x="546" y="954.2969">Employee</text><line style="stroke:#181818;stroke-width:0.5;" x1="518" x2="610" y1="964.5" y2="964.5"/><line style="stroke:#181818;stroke-width:0.5;" x1="518" x2="610" y1="972.5" y2="972.5"/></g><!--link TaskUI to TaskController--><g id="link_TaskUI_TaskController"><path codeLine="50" d="M410,74.18 C410,92.44 410,109.38 410,128.91 " fill="none" id="TaskUI-to-TaskController" style="stroke:#181818;stroke-width:1.0;"/><polygon fill="#181818" points="410,134.91,414,125.91,410,129.91,406,125.91,410,134.91" style="stroke:#181818;stroke-width:1.0;"/><text fill="#000000" font-family="sans-serif" font-size="13" lengthAdjust="spacing" textLength="7" x="402.3766" y="95.7813">1</text><text fill="#000000" font-family="sans-serif" font-size="13" lengthAdjust="spacing" textLength="7" x="402.4422" y="123.7997">1</text></g><!--link TaskController to Repositories--><g id="link_TaskController_Repositories"><path codeLine="51" d="M424.84,220.36 C433.12,243.69 441.5556,267.4847 450.6856,293.2447 " fill="none" id="TaskController-to-Repositories" style="stroke:#181818;stroke-width:1.0;stroke-dasharray:7.0,7.0;"/><polygon fill="#181818" points="452.69,298.9,453.4536,289.0808,451.0197,294.1872,445.9132,291.7533,452.69,298.9" style="stroke:#181818;stroke-width:1.0;"/><text fill="#000000" font-family="sans-serif" font-size="13" lengthAdjust="spacing" textLength="67" x="443" y="265.0283">repositories</text><text fill="#000000" font-family="sans-serif" font-size="13" lengthAdjust="spacing" textLength="7" x="419.5764" y="242.2566">1</text><text fill="#000000" font-family="sans-serif" font-size="13" lengthAdjust="spacing" textLength="7" x="442.8213" y="287.8696">1</text></g><!--link TaskController to TaskRepository--><g id="link_TaskController_TaskRepository"><path codeLine="52" d="M400.29,220.31 C392.2,255.11 382,299 382,299 C382,299 382,421 382,421 C382,421 383.585,446.3917 385.435,475.9317 " fill="none" id="TaskController-to-TaskRepository" style="stroke:#181818;stroke-width:1.0;"/><polygon fill="#181818" points="385.81,481.92,389.2396,472.6876,385.4975,476.9298,381.2553,473.1876,385.81,481.92" style="stroke:#181818;stroke-width:1.0;"/><text fill="#000000" font-family="sans-serif" font-size="13" lengthAdjust="spacing" textLength="7" x="391.2672" y="242.1989">1</text><text fill="#000000" font-family="sans-serif" font-size="13" lengthAdjust="spacing" textLength="7" x="377.911" y="470.8366">1</text></g><!--link TaskController to Task--><g id="link_TaskController_Task"><path codeLine="53" d="M491.2,220.14 C559.13,254.97 645,299 645,299 C645,299 736,482 736,482 C736,482 736,586 736,586 C736,586 707.6154,610.5919 670.5754,642.6719 " fill="none" id="TaskController-to-Task" style="stroke:#181818;stroke-width:1.0;stroke-dasharray:7.0,7.0;"/><polygon fill="#181818" points="666.04,646.6,675.4619,643.7315,669.8195,643.3266,670.2244,637.6842,666.04,646.6" style="stroke:#181818;stroke-width:1.0;"/><text fill="#000000" font-family="sans-serif" font-size="13" lengthAdjust="spacing" textLength="7" x="496.5834" y="242.3226">1</text><text fill="#000000" font-family="sans-serif" font-size="13" lengthAdjust="spacing" textLength="5" x="668.9721" y="635.8247">*</text></g><!--link TaskController to TaskStatus--><g id="link_TaskController_TaskStatus"><path codeLine="54" d="M317.06,220.02 C197.77,273.32 6,359 6,359 C6,359 6,359 6,737 C6,737 171.9504,853.591 260.3904,915.721 " fill="none" id="TaskController-to-TaskStatus" style="stroke:#181818;stroke-width:1.0;stroke-dasharray:7.0,7.0;"/><polygon fill="#181818" points="265.3,919.17,260.235,910.7234,261.2087,916.2958,255.6362,917.2695,265.3,919.17" style="stroke:#181818;stroke-width:1.0;"/><text fill="#000000" font-family="sans-serif" font-size="13" lengthAdjust="spacing" textLength="7" x="294.6899" y="242.1835">1</text><text fill="#000000" font-family="sans-serif" font-size="13" lengthAdjust="spacing" textLength="5" x="252.3394" y="909.4807">*</text></g><!--link Repositories to Repositories--><g id="link_Repositories_Repositories"><path codeLine="55" d="M548.72,343.27 C568.51,344.23 583.5,349.8 583.5,360 C583.5,370.2 574.503,375.4793 554.713,376.4393 " fill="none" id="Repositories-to-Repositories" style="stroke:#181818;stroke-width:1.0;"/><polygon fill="#181818" points="548.72,376.73,557.9032,380.2892,553.7141,376.4877,557.5156,372.2986,548.72,376.73" style="stroke:#181818;stroke-width:1.0;"/><text fill="#000000" font-family="sans-serif" font-size="13" lengthAdjust="spacing" textLength="49" x="589.5" y="365.5283">instance</text></g><!--link Repositories to TaskRepository--><g id="link_Repositories_TaskRepository"><path codeLine="56" d="M444.27,421.16 C434.5,440.92 426.4084,457.3111 416.9984,476.3511 " fill="none" id="Repositories-to-TaskRepository" style="stroke:#181818;stroke-width:1.0;"/><polygon fill="#181818" points="414.34,481.73,421.9135,475.4339,416.5553,477.2476,414.7416,471.8893,414.34,481.73" style="stroke:#181818;stroke-width:1.0;"/><text fill="#000000" font-family="sans-serif" font-size="13" lengthAdjust="spacing" textLength="7" x="433.2201" y="443.6663">1</text><text fill="#000000" font-family="sans-serif" font-size="13" lengthAdjust="spacing" textLength="7" x="410.2748" y="470.6211">1</text></g><!--link TaskRepository to TaskStatus--><g id="link_TaskRepository_TaskStatus"><path codeLine="57" d="M372.58,586.08 C363.09,615.62 353,647 353,647 C353,647 336.4356,788.9305 325.8156,879.9205 " fill="none" id="TaskRepository-to-TaskStatus" style="stroke:#181818;stroke-width:1.0;stroke-dasharray:7.0,7.0;"/><polygon fill="#181818" points="325.12,885.88,330.1364,877.4044,325.6996,880.9137,322.1903,876.477,325.12,885.88" style="stroke:#181818;stroke-width:1.0;"/><text fill="#000000" font-family="sans-serif" font-size="13" lengthAdjust="spacing" textLength="7" x="363.0277" y="607.8975">1</text><text fill="#000000" font-family="sans-serif" font-size="13" lengthAdjust="spacing" textLength="5" x="320.6996" y="874.7586">*</text></g><!--link TaskRepository to Task--><g id="link_TaskRepository_Task"><path codeLine="58" d="M433.84,586.25 C449.94,604.65 464.649,621.4545 482.709,642.0945 " fill="none" id="TaskRepository-to-Task" style="stroke:#181818;stroke-width:1.0;"/><polygon fill="#181818" points="486.66,646.61,483.7438,637.2028,483.3675,642.8471,477.7232,642.4708,486.66,646.61" style="stroke:#181818;stroke-width:1.0;"/><text fill="#000000" font-family="sans-serif" font-size="13" lengthAdjust="spacing" textLength="7" x="431.8783" y="607.7083">1</text><text fill="#000000" font-family="sans-serif" font-size="13" lengthAdjust="spacing" textLength="5" x="475.2978" y="635.8355">*</text></g><!--link Task to TaskStatus--><g id="link_Task_TaskStatus"><path codeLine="59" d="M464.25,825.24 C431.44,854.26 400.8141,881.3547 373.0941,905.8747 " fill="none" id="Task-to-TaskStatus" style="stroke:#181818;stroke-width:1.0;stroke-dasharray:7.0,7.0;"/><polygon fill="#181818" points="368.6,909.85,377.9914,906.8831,372.3451,906.5372,372.691,900.891,368.6,909.85" style="stroke:#181818;stroke-width:1.0;"/><text fill="#000000" font-family="sans-serif" font-size="13" lengthAdjust="spacing" textLength="7" x="448.6996" y="847.3601">1</text><text fill="#000000" font-family="sans-serif" font-size="13" lengthAdjust="spacing" textLength="7" x="376.3484" y="899.1359">1</text></g><!--link Task to Employee--><g id="link_Task_Employee"><path codeLine="60" d="M564,825.24 C564,864.09 564,900.62 564,926.17 " fill="none" id="Task-to-Employee" style="stroke:#181818;stroke-width:1.0;stroke-dasharray:7.0,7.0;"/><polygon fill="#181818" points="564,932.17,568,923.17,564,927.17,560,923.17,564,932.17" style="stroke:#181818;stroke-width:1.0;"/><text fill="#000000" font-family="sans-serif" font-size="13" lengthAdjust="spacing" textLength="7" x="556.7102" y="847.3601">1</text><text fill="#000000" font-family="sans-serif" font-size="13" lengthAdjust="spacing" textLength="7" x="556.1469" y="921.2315">1</text></g><!--SRC=[fLDHJy8m47xVhsXu0X6ZhyIGu226X4pYy0UKSSw6qYwz8sOQ_xljEhOE5KtaPUrztttVtT73dL05DtpF2fxjU0ufbHAOWOouoYL4s13mXM_rgr0vU-OIGqGA1LGMm0ejItS9i4non2cH4Pi3mIBJAXLlmAwZAAeWjkQuUrgmzuZPtyZTOgt8Q2d1H1yXgus7x4SeD0hIfgnYmnp8XR6_r1cNCqx0aBWXTxfaRH3KreSSEoLE1sJK70UjTMCW0CyOZq9UVz0Kir3MNcKGXBhP_K6tpHQftOPBWNJhe4aZ4Tivy8qstFAgTbDj2BPtfUlflwrNxQ0Lh9HhpPCgZvD0dpuEj1h0ErkiiVPGxVybdWLDZLdOek_xXQDtw9yfV2Zm3kWLG3dXlpw39dUAA785sxME3yQ0wapQ3m7KOH-EpazYjPmcoNpcpm_fUlLmlCNJ99ulwylCXZrddimMoNqxrVc-aBe4i7esLgz5xwR7HgD9zJtPZPELS8ohAyyCd-BOBdDx-ouhr0yUzK_w5vxv6rw_XSxsEATkRQBUZYxlbwg23Vd1zHjMfHVMtfdOIMu7E_unqIS0]--></g></svg>