<?xml version="1.0" encoding="us-ascii" standalone="no"?><svg xmlns="http://www.w3.org/2000/svg" xmlns:xlink="http://www.w3.org/1999/xlink" contentStyleType="text/css" height="1004px" preserveAspectRatio="none" style="width:488px;height:1004px;background:#FFFFFF;" version="1.1" viewBox="0 0 488 1004" width="488.8px" zoomAndPan="magnify"><defs/><g><!--class TasksAssignedToMeBetweenTwoDatesUI--><g id="elem_TasksAssignedToMeBetweenTwoDatesUI"><rect codeLine="7" fill="#F1F1F1" height="38.4" id="TasksAssignedToMeBetweenTwoDatesUI" rx="2" ry="2" style="stroke:#181818;stroke-width:0.4000000000000001;" width="234.4" x="136.8" y="5.6"/><ellipse cx="148.8" cy="18.4" fill="#ADD1B2" rx="8.8" ry="8.8" style="stroke:#181818;stroke-width:0.8000000000000002;"/><path d="M151.0125,15.1 Q151.1375,14.925 151.2875,14.8375 Q151.4375,14.75 151.6125,14.75 Q151.9125,14.75 152.1,14.9625 Q152.2875,15.1625 152.2875,15.65 L152.2875,16.8125 Q152.2875,17.3 152.1,17.5125 Q151.9125,17.725 151.6125,17.725 Q151.3375,17.725 151.175,17.5625 Q151.0125,17.4125 150.925,17 Q150.8875,16.7125 150.7375,16.5625 Q150.475,16.2625 149.9875,16.0875 Q149.5,15.9125 149,15.9125 Q148.3875,15.9125 147.875,16.175 Q147.375,16.4375 146.975,17.0375 Q146.5875,17.6375 146.5875,18.4625 L146.5875,19.3375 Q146.5875,20.325 147.3,20.9875 Q148.0125,21.6375 149.2875,21.6375 Q150.0375,21.6375 150.5625,21.4375 Q150.875,21.3125 151.2125,20.9625 Q151.425,20.75 151.5375,20.6875 Q151.6625,20.625 151.825,20.625 Q152.0875,20.625 152.2875,20.8375 Q152.5,21.0375 152.5,21.3125 Q152.5,21.5875 152.225,21.9125 Q151.825,22.375 151.1875,22.6375 Q150.325,23 149.2875,23 Q148.075,23 147.1125,22.5 Q146.325,22.1 145.775,21.25 Q145.225,20.3875 145.225,19.3625 L145.225,18.4375 Q145.225,17.375 145.7125,16.4625 Q146.2125,15.5375 147.0875,15.05 Q147.9625,14.55 148.95,14.55 Q149.5375,14.55 150.05,14.6875 Q150.575,14.8125 151.0125,15.1 Z " fill="#000000"/><text fill="#000000" font-family="sans-serif" font-size="11.2" lengthAdjust="spacing" textLength="208.8" x="160" y="23.0375">TasksAssignedToMeBetweenTwoDatesUI</text><line style="stroke:#181818;stroke-width:0.4000000000000001;" x1="137.6" x2="370.4" y1="31.2" y2="31.2"/><line style="stroke:#181818;stroke-width:0.4000000000000001;" x1="137.6" x2="370.4" y1="37.6" y2="37.6"/></g><!--class TasksAssignedToMeBetweenToDatesController--><g id="elem_TasksAssignedToMeBetweenToDatesController"><rect codeLine="12" fill="#F1F1F1" height="83.0906" id="TasksAssignedToMeBetweenToDatesController" rx="2" ry="2" style="stroke:#181818;stroke-width:0.4000000000000001;" width="383.2" x="62.4" y="92.8"/><ellipse cx="129.8" cy="105.6" fill="#ADD1B2" rx="8.8" ry="8.8" style="stroke:#181818;stroke-width:0.8000000000000002;"/><path d="M132.0125,102.3 Q132.1375,102.125 132.2875,102.0375 Q132.4375,101.95 132.6125,101.95 Q132.9125,101.95 133.1,102.1625 Q133.2875,102.3625 133.2875,102.85 L133.2875,104.0125 Q133.2875,104.5 133.1,104.7125 Q132.9125,104.925 132.6125,104.925 Q132.3375,104.925 132.175,104.7625 Q132.0125,104.6125 131.925,104.2 Q131.8875,103.9125 131.7375,103.7625 Q131.475,103.4625 130.9875,103.2875 Q130.5,103.1125 130,103.1125 Q129.3875,103.1125 128.875,103.375 Q128.375,103.6375 127.975,104.2375 Q127.5875,104.8375 127.5875,105.6625 L127.5875,106.5375 Q127.5875,107.525 128.3,108.1875 Q129.0125,108.8375 130.2875,108.8375 Q131.0375,108.8375 131.5625,108.6375 Q131.875,108.5125 132.2125,108.1625 Q132.425,107.95 132.5375,107.8875 Q132.6625,107.825 132.825,107.825 Q133.0875,107.825 133.2875,108.0375 Q133.5,108.2375 133.5,108.5125 Q133.5,108.7875 133.225,109.1125 Q132.825,109.575 132.1875,109.8375 Q131.325,110.2 130.2875,110.2 Q129.075,110.2 128.1125,109.7 Q127.325,109.3 126.775,108.45 Q126.225,107.5875 126.225,106.5625 L126.225,105.6375 Q126.225,104.575 126.7125,103.6625 Q127.2125,102.7375 128.0875,102.25 Q128.9625,101.75 129.95,101.75 Q130.5375,101.75 131.05,101.8875 Q131.575,102.0125 132.0125,102.3 Z " fill="#000000"/><text fill="#000000" font-family="sans-serif" font-size="11.2" lengthAdjust="spacing" textLength="241.6" x="146.2" y="110.2375">TasksAssignedToMeBetweenToDatesController</text><line style="stroke:#181818;stroke-width:0.4000000000000001;" x1="63.2" x2="444.8" y1="118.4" y2="118.4"/><line style="stroke:#181818;stroke-width:0.4000000000000001;" x1="63.2" x2="444.8" y1="124.8" y2="124.8"/><text fill="#000000" font-family="sans-serif" font-size="11.2" lengthAdjust="spacing" textLength="134.4" x="67.2" y="140.0859">+getEmployeeRepository()</text><text fill="#000000" font-family="sans-serif" font-size="11.2" lengthAdjust="spacing" textLength="208.8" x="67.2" y="154.9828">getTaskStatusValues(): List&lt;TaskStatus&gt;</text><text fill="#000000" font-family="sans-serif" font-size="11.2" lengthAdjust="spacing" textLength="373.6" x="67.2" y="169.8797">getTasksAssignedToMeBetweenToDates(startDate, endDate): List&lt;Task&gt;</text></g><!--class Repositories--><g id="elem_Repositories"><rect codeLine="20" fill="#F1F1F1" height="83.0906" id="Repositories" rx="2" ry="2" style="stroke:#181818;stroke-width:0.4000000000000001;" width="144" x="182" y="239.2"/><ellipse cx="219" cy="252" fill="#ADD1B2" rx="8.8" ry="8.8" style="stroke:#181818;stroke-width:0.8000000000000002;"/><path d="M221.2125,248.7 Q221.3375,248.525 221.4875,248.4375 Q221.6375,248.35 221.8125,248.35 Q222.1125,248.35 222.3,248.5625 Q222.4875,248.7625 222.4875,249.25 L222.4875,250.4125 Q222.4875,250.9 222.3,251.1125 Q222.1125,251.325 221.8125,251.325 Q221.5375,251.325 221.375,251.1625 Q221.2125,251.0125 221.125,250.6 Q221.0875,250.3125 220.9375,250.1625 Q220.675,249.8625 220.1875,249.6875 Q219.7,249.5125 219.2,249.5125 Q218.5875,249.5125 218.075,249.775 Q217.575,250.0375 217.175,250.6375 Q216.7875,251.2375 216.7875,252.0625 L216.7875,252.9375 Q216.7875,253.925 217.5,254.5875 Q218.2125,255.2375 219.4875,255.2375 Q220.2375,255.2375 220.7625,255.0375 Q221.075,254.9125 221.4125,254.5625 Q221.625,254.35 221.7375,254.2875 Q221.8625,254.225 222.025,254.225 Q222.2875,254.225 222.4875,254.4375 Q222.7,254.6375 222.7,254.9125 Q222.7,255.1875 222.425,255.5125 Q222.025,255.975 221.3875,256.2375 Q220.525,256.6 219.4875,256.6 Q218.275,256.6 217.3125,256.1 Q216.525,255.7 215.975,254.85 Q215.425,253.9875 215.425,252.9625 L215.425,252.0375 Q215.425,250.975 215.9125,250.0625 Q216.4125,249.1375 217.2875,248.65 Q218.1625,248.15 219.15,248.15 Q219.7375,248.15 220.25,248.2875 Q220.775,248.4125 221.2125,248.7 Z " fill="#000000"/><text fill="#000000" font-family="sans-serif" font-size="11.2" lengthAdjust="spacing" textLength="63.2" x="235.4" y="256.6375">Repositories</text><line style="stroke:#181818;stroke-width:0.4000000000000001;" x1="182.8" x2="325.2" y1="264.8" y2="264.8"/><line style="stroke:#181818;stroke-width:0.4000000000000001;" x1="182.8" x2="325.2" y1="271.2" y2="271.2"/><text fill="#000000" font-family="sans-serif" font-size="11.2" lengthAdjust="spacing" textLength="75.2" x="186.8" y="286.4859">-Repositories()</text><text fill="#000000" font-family="sans-serif" font-size="11.2" lengthAdjust="spacing" textLength="72.8" x="186.8" y="301.3828">+getInstance()</text><text fill="#000000" font-family="sans-serif" font-size="11.2" lengthAdjust="spacing" textLength="134.4" x="186.8" y="316.2797">+getEmployeeRepository()</text></g><!--class EmployeeRepository--><g id="elem_EmployeeRepository"><rect codeLine="26" fill="#F1F1F1" height="53.2969" id="EmployeeRepository" rx="2" ry="2" style="stroke:#181818;stroke-width:0.4000000000000001;" width="144.8" x="182.4" y="371.2"/><ellipse cx="201.24" cy="384" fill="#ADD1B2" rx="8.8" ry="8.8" style="stroke:#181818;stroke-width:0.8000000000000002;"/><path d="M203.4525,380.7 Q203.5775,380.525 203.7275,380.4375 Q203.8775,380.35 204.0525,380.35 Q204.3525,380.35 204.54,380.5625 Q204.7275,380.7625 204.7275,381.25 L204.7275,382.4125 Q204.7275,382.9 204.54,383.1125 Q204.3525,383.325 204.0525,383.325 Q203.7775,383.325 203.615,383.1625 Q203.4525,383.0125 203.365,382.6 Q203.3275,382.3125 203.1775,382.1625 Q202.915,381.8625 202.4275,381.6875 Q201.94,381.5125 201.44,381.5125 Q200.8275,381.5125 200.315,381.775 Q199.815,382.0375 199.415,382.6375 Q199.0275,383.2375 199.0275,384.0625 L199.0275,384.9375 Q199.0275,385.925 199.74,386.5875 Q200.4525,387.2375 201.7275,387.2375 Q202.4775,387.2375 203.0025,387.0375 Q203.315,386.9125 203.6525,386.5625 Q203.865,386.35 203.9775,386.2875 Q204.1025,386.225 204.265,386.225 Q204.5275,386.225 204.7275,386.4375 Q204.94,386.6375 204.94,386.9125 Q204.94,387.1875 204.665,387.5125 Q204.265,387.975 203.6275,388.2375 Q202.765,388.6 201.7275,388.6 Q200.515,388.6 199.5525,388.1 Q198.765,387.7 198.215,386.85 Q197.665,385.9875 197.665,384.9625 L197.665,384.0375 Q197.665,382.975 198.1525,382.0625 Q198.6525,381.1375 199.5275,380.65 Q200.4025,380.15 201.39,380.15 Q201.9775,380.15 202.49,380.2875 Q203.015,380.4125 203.4525,380.7 Z " fill="#000000"/><text fill="#000000" font-family="sans-serif" font-size="11.2" lengthAdjust="spacing" textLength="104" x="213.96" y="388.6375">EmployeeRepository</text><line style="stroke:#181818;stroke-width:0.4000000000000001;" x1="183.2" x2="326.4" y1="396.8" y2="396.8"/><line style="stroke:#181818;stroke-width:0.4000000000000001;" x1="183.2" x2="326.4" y1="403.2" y2="403.2"/><text fill="#000000" font-family="sans-serif" font-size="11.2" lengthAdjust="spacing" textLength="135.2" x="187.2" y="418.4859">+getEmployee(): employee</text></g><!--class Tasks--><g id="elem_Tasks"><rect codeLine="30" fill="#F1F1F1" height="127.7813" id="Tasks" rx="2" ry="2" style="stroke:#181818;stroke-width:0.4000000000000001;" width="236.8" x="134" y="604.8"/><ellipse cx="233.8" cy="617.6" fill="#ADD1B2" rx="8.8" ry="8.8" style="stroke:#181818;stroke-width:0.8000000000000002;"/><path d="M236.0125,614.3 Q236.1375,614.125 236.2875,614.0375 Q236.4375,613.95 236.6125,613.95 Q236.9125,613.95 237.1,614.1625 Q237.2875,614.3625 237.2875,614.85 L237.2875,616.0125 Q237.2875,616.5 237.1,616.7125 Q236.9125,616.925 236.6125,616.925 Q236.3375,616.925 236.175,616.7625 Q236.0125,616.6125 235.925,616.2 Q235.8875,615.9125 235.7375,615.7625 Q235.475,615.4625 234.9875,615.2875 Q234.5,615.1125 234,615.1125 Q233.3875,615.1125 232.875,615.375 Q232.375,615.6375 231.975,616.2375 Q231.5875,616.8375 231.5875,617.6625 L231.5875,618.5375 Q231.5875,619.525 232.3,620.1875 Q233.0125,620.8375 234.2875,620.8375 Q235.0375,620.8375 235.5625,620.6375 Q235.875,620.5125 236.2125,620.1625 Q236.425,619.95 236.5375,619.8875 Q236.6625,619.825 236.825,619.825 Q237.0875,619.825 237.2875,620.0375 Q237.5,620.2375 237.5,620.5125 Q237.5,620.7875 237.225,621.1125 Q236.825,621.575 236.1875,621.8375 Q235.325,622.2 234.2875,622.2 Q233.075,622.2 232.1125,621.7 Q231.325,621.3 230.775,620.45 Q230.225,619.5875 230.225,618.5625 L230.225,617.6375 Q230.225,616.575 230.7125,615.6625 Q231.2125,614.7375 232.0875,614.25 Q232.9625,613.75 233.95,613.75 Q234.5375,613.75 235.05,613.8875 Q235.575,614.0125 236.0125,614.3 Z " fill="#000000"/><text fill="#000000" font-family="sans-serif" font-size="11.2" lengthAdjust="spacing" textLength="30.4" x="250.2" y="622.2375">Tasks</text><line style="stroke:#181818;stroke-width:0.4000000000000001;" x1="134.8" x2="370" y1="630.4" y2="630.4"/><text fill="#000000" font-family="sans-serif" font-size="11.2" lengthAdjust="spacing" textLength="88.8" x="138.8" y="645.6859">-List&lt;Task&gt; tasks</text><line style="stroke:#181818;stroke-width:0.4000000000000001;" x1="134.8" x2="370" y1="651.6969" y2="651.6969"/><text fill="#000000" font-family="sans-serif" font-size="11.2" lengthAdjust="spacing" textLength="131.2" x="138.8" y="666.9828">+getAgenda(): List&lt;Task&gt;</text><text fill="#000000" font-family="sans-serif" font-size="11.2" lengthAdjust="spacing" textLength="188" x="138.8" y="681.8797">+isBetweenDates(startDate,endDate)</text><text fill="#000000" font-family="sans-serif" font-size="11.2" lengthAdjust="spacing" textLength="136.8" x="138.8" y="696.7766">+getAssignedTeam(): team</text><text fill="#000000" font-family="sans-serif" font-size="11.2" lengthAdjust="spacing" textLength="200.8" x="138.8" y="711.6734">+getTeamEmployees(): List&lt;Employee&gt;</text><text fill="#000000" font-family="sans-serif" font-size="11.2" lengthAdjust="spacing" textLength="227.2" x="138.8" y="726.5703">+isAssignedToCurrentCollaborator():boolean</text></g><!--class Task--><g id="elem_Task"><rect codeLine="43" fill="#F1F1F1" height="217.1625" id="Task" rx="2" ry="2" style="stroke:#181818;stroke-width:0.4000000000000001;" width="180.8" x="171.6" y="781.6"/><ellipse cx="246.2" cy="794.4" fill="#ADD1B2" rx="8.8" ry="8.8" style="stroke:#181818;stroke-width:0.8000000000000002;"/><path d="M248.4125,791.1 Q248.5375,790.925 248.6875,790.8375 Q248.8375,790.75 249.0125,790.75 Q249.3125,790.75 249.5,790.9625 Q249.6875,791.1625 249.6875,791.65 L249.6875,792.8125 Q249.6875,793.3 249.5,793.5125 Q249.3125,793.725 249.0125,793.725 Q248.7375,793.725 248.575,793.5625 Q248.4125,793.4125 248.325,793 Q248.2875,792.7125 248.1375,792.5625 Q247.875,792.2625 247.3875,792.0875 Q246.9,791.9125 246.4,791.9125 Q245.7875,791.9125 245.275,792.175 Q244.775,792.4375 244.375,793.0375 Q243.9875,793.6375 243.9875,794.4625 L243.9875,795.3375 Q243.9875,796.325 244.7,796.9875 Q245.4125,797.6375 246.6875,797.6375 Q247.4375,797.6375 247.9625,797.4375 Q248.275,797.3125 248.6125,796.9625 Q248.825,796.75 248.9375,796.6875 Q249.0625,796.625 249.225,796.625 Q249.4875,796.625 249.6875,796.8375 Q249.9,797.0375 249.9,797.3125 Q249.9,797.5875 249.625,797.9125 Q249.225,798.375 248.5875,798.6375 Q247.725,799 246.6875,799 Q245.475,799 244.5125,798.5 Q243.725,798.1 243.175,797.25 Q242.625,796.3875 242.625,795.3625 L242.625,794.4375 Q242.625,793.375 243.1125,792.4625 Q243.6125,791.5375 244.4875,791.05 Q245.3625,790.55 246.35,790.55 Q246.9375,790.55 247.45,790.6875 Q247.975,790.8125 248.4125,791.1 Z " fill="#000000"/><text fill="#000000" font-family="sans-serif" font-size="11.2" lengthAdjust="spacing" textLength="24.8" x="262.6" y="799.0375">Task</text><line style="stroke:#181818;stroke-width:0.4000000000000001;" x1="172.4" x2="351.6" y1="807.2" y2="807.2"/><text fill="#000000" font-family="sans-serif" font-size="11.2" lengthAdjust="spacing" textLength="57.6" x="176.4" y="822.4859">-title: String</text><text fill="#000000" font-family="sans-serif" font-size="11.2" lengthAdjust="spacing" textLength="95.2" x="176.4" y="837.3828">-description: String</text><text fill="#000000" font-family="sans-serif" font-size="11.2" lengthAdjust="spacing" textLength="132.8" x="176.4" y="852.2797">-taskExpectedDuration: int</text><text fill="#000000" font-family="sans-serif" font-size="11.2" lengthAdjust="spacing" textLength="133.6" x="176.4" y="867.1766">-greenSpace: greenSpace</text><text fill="#000000" font-family="sans-serif" font-size="11.2" lengthAdjust="spacing" textLength="117.6" x="176.4" y="882.0734">-urgency: TaskUrgency</text><text fill="#000000" font-family="sans-serif" font-size="11.2" lengthAdjust="spacing" textLength="97.6" x="176.4" y="896.9703">-status: TaskStatus</text><text fill="#000000" font-family="sans-serif" font-size="11.2" lengthAdjust="spacing" textLength="109.6" x="176.4" y="911.8672">-assignedTeam: team</text><text fill="#000000" font-family="sans-serif" font-size="11.2" lengthAdjust="spacing" textLength="171.2" x="176.4" y="926.7641">-assignedVehicles: List&lt;Vehicles&gt;</text><text fill="#000000" font-family="sans-serif" font-size="11.2" lengthAdjust="spacing" textLength="53.6" x="176.4" y="941.6609">-taskID: int</text><text fill="#000000" font-family="sans-serif" font-size="11.2" lengthAdjust="spacing" textLength="80.8" x="176.4" y="956.5578">-startDate: Date</text><text fill="#000000" font-family="sans-serif" font-size="11.2" lengthAdjust="spacing" textLength="77.6" x="176.4" y="971.4547">-endDate: Date</text><text fill="#000000" font-family="sans-serif" font-size="11.2" lengthAdjust="spacing" textLength="136" x="176.4" y="986.3516">-taskPosition: TaskPosition</text><line style="stroke:#181818;stroke-width:0.4000000000000001;" x1="172.4" x2="351.6" y1="992.3625" y2="992.3625"/></g><!--class TaskStatus--><g id="elem_TaskStatus"><rect codeLine="60" fill="#F1F1F1" height="112.8844" id="TaskStatus" rx="2" ry="2" style="stroke:#181818;stroke-width:0.4000000000000001;" width="82.4" x="380.8" y="833.6"/><ellipse cx="392.8" cy="846.4" fill="#EB937F" rx="8.8" ry="8.8" style="stroke:#181818;stroke-width:0.8000000000000002;"/><path d="M391.8875,847.0375 L391.8875,849.0375 L395.35,849.0375 L395.35,848.3 Q395.35,847.8125 395.5375,847.6 Q395.7375,847.3875 396.0375,847.3875 Q396.3375,847.3875 396.525,847.6 Q396.7125,847.8125 396.7125,848.3 L396.7125,850.4 L390.3125,850.4 Q389.8125,850.4 389.6,850.2125 Q389.4,850.025 389.4,849.7125 Q389.4,849.4125 389.6125,849.225 Q389.825,849.0375 390.3125,849.0375 L390.525,849.0375 L390.525,843.7125 L390.3125,843.7125 Q389.8125,843.7125 389.6,843.525 Q389.4,843.3375 389.4,843.025 Q389.4,842.725 389.6,842.5375 Q389.8125,842.35 390.3125,842.35 L396.4125,842.35 L396.4125,844.425 Q396.4125,844.9125 396.225,845.125 Q396.05,845.325 395.7375,845.325 Q395.4375,845.325 395.25,845.125 Q395.0625,844.9125 395.0625,844.425 L395.0625,843.7125 L391.8875,843.7125 L391.8875,845.675 L393.075,845.675 Q393.075,845.15 393.175,845 Q393.3875,844.675 393.7625,844.675 Q394.0625,844.675 394.25,844.8875 Q394.4375,845.0875 394.4375,845.575 L394.4375,847.15 Q394.4375,847.5875 394.3375,847.7375 Q394.125,848.05 393.7625,848.05 Q393.3875,848.05 393.175,847.725 Q393.075,847.575 393.075,847.0375 L391.8875,847.0375 Z " fill="#000000"/><text fill="#000000" font-family="sans-serif" font-size="11.2" lengthAdjust="spacing" textLength="56.8" x="404" y="851.0375">TaskStatus</text><line style="stroke:#181818;stroke-width:0.4000000000000001;" x1="381.6" x2="462.4" y1="859.2" y2="859.2"/><text fill="#000000" font-family="sans-serif" font-size="11.2" lengthAdjust="spacing" textLength="50.4" x="385.6" y="874.4859">PLANNED</text><text fill="#000000" font-family="sans-serif" font-size="11.2" lengthAdjust="spacing" textLength="68.8" x="385.6" y="889.3828">POSTPONED</text><text fill="#000000" font-family="sans-serif" font-size="11.2" lengthAdjust="spacing" textLength="59.2" x="385.6" y="904.2797">CANCELED</text><text fill="#000000" font-family="sans-serif" font-size="11.2" lengthAdjust="spacing" textLength="31.2" x="385.6" y="919.1766">DONE</text><text fill="#000000" font-family="sans-serif" font-size="11.2" lengthAdjust="spacing" textLength="48" x="385.6" y="934.0734">PENDING</text><line style="stroke:#181818;stroke-width:0.4000000000000001;" x1="381.6" x2="462.4" y1="940.0844" y2="940.0844"/></g><!--class Employee--><g id="elem_Employee"><rect codeLine="68" fill="#F1F1F1" height="53.2969" id="Employee" rx="2" ry="2" style="stroke:#181818;stroke-width:0.4000000000000001;" width="383.2" x="5.6" y="488"/><ellipse cx="169" cy="500.8" fill="#ADD1B2" rx="8.8" ry="8.8" style="stroke:#181818;stroke-width:0.8000000000000002;"/><path d="M171.2125,497.5 Q171.3375,497.325 171.4875,497.2375 Q171.6375,497.15 171.8125,497.15 Q172.1125,497.15 172.3,497.3625 Q172.4875,497.5625 172.4875,498.05 L172.4875,499.2125 Q172.4875,499.7 172.3,499.9125 Q172.1125,500.125 171.8125,500.125 Q171.5375,500.125 171.375,499.9625 Q171.2125,499.8125 171.125,499.4 Q171.0875,499.1125 170.9375,498.9625 Q170.675,498.6625 170.1875,498.4875 Q169.7,498.3125 169.2,498.3125 Q168.5875,498.3125 168.075,498.575 Q167.575,498.8375 167.175,499.4375 Q166.7875,500.0375 166.7875,500.8625 L166.7875,501.7375 Q166.7875,502.725 167.5,503.3875 Q168.2125,504.0375 169.4875,504.0375 Q170.2375,504.0375 170.7625,503.8375 Q171.075,503.7125 171.4125,503.3625 Q171.625,503.15 171.7375,503.0875 Q171.8625,503.025 172.025,503.025 Q172.2875,503.025 172.4875,503.2375 Q172.7,503.4375 172.7,503.7125 Q172.7,503.9875 172.425,504.3125 Q172.025,504.775 171.3875,505.0375 Q170.525,505.4 169.4875,505.4 Q168.275,505.4 167.3125,504.9 Q166.525,504.5 165.975,503.65 Q165.425,502.7875 165.425,501.7625 L165.425,500.8375 Q165.425,499.775 165.9125,498.8625 Q166.4125,497.9375 167.2875,497.45 Q168.1625,496.95 169.15,496.95 Q169.7375,496.95 170.25,497.0875 Q170.775,497.2125 171.2125,497.5 Z " fill="#000000"/><text fill="#000000" font-family="sans-serif" font-size="11.2" lengthAdjust="spacing" textLength="49.6" x="185.4" y="505.4375">Employee</text><line style="stroke:#181818;stroke-width:0.4000000000000001;" x1="6.4" x2="388" y1="513.6" y2="513.6"/><line style="stroke:#181818;stroke-width:0.4000000000000001;" x1="6.4" x2="388" y1="520" y2="520"/><text fill="#000000" font-family="sans-serif" font-size="11.2" lengthAdjust="spacing" textLength="373.6" x="10.4" y="535.2859">getTasksAssignedToMeBetweenToDates(startDate, endDate): List&lt;Task&gt;</text></g><!--link TasksAssignedToMeBetweenTwoDatesUI to TasksAssignedToMeBetweenToDatesController--><g id="link_TasksAssignedToMeBetweenTwoDatesUI_TasksAssignedToMeBetweenToDatesController"><path codeLine="72" d="M254,44.168 C254,57.496 254,71.176 254,87.888 " fill="none" id="TasksAssignedToMeBetweenTwoDatesUI-to-TasksAssignedToMeBetweenToDatesController" style="stroke:#181818;stroke-width:0.8000000000000002;stroke-dasharray:7.0,7.0;"/><polygon fill="#181818" points="254,92.688,257.2,85.488,254,88.688,250.8,85.488,254,92.688" style="stroke:#181818;stroke-width:0.8000000000000002;"/><text fill="#000000" font-family="sans-serif" font-size="10.4" lengthAdjust="spacing" textLength="5.6" x="247.7525" y="61.4689">1</text><text fill="#000000" font-family="sans-serif" font-size="10.4" lengthAdjust="spacing" textLength="5.6" x="248.0238" y="83.8148">1</text></g><!--link TasksAssignedToMeBetweenToDatesController to Repositories--><g id="link_TasksAssignedToMeBetweenToDatesController_Repositories"><path codeLine="73" d="M254,176.304 C254,195.952 254,214.608 254,234.24 " fill="none" id="TasksAssignedToMeBetweenToDatesController-to-Repositories" style="stroke:#181818;stroke-width:0.8000000000000002;stroke-dasharray:7.0,7.0;"/><polygon fill="#181818" points="254,239.04,257.2,231.84,254,235.04,250.8,231.84,254,239.04" style="stroke:#181818;stroke-width:0.8000000000000002;"/><text fill="#000000" font-family="sans-serif" font-size="10.4" lengthAdjust="spacing" textLength="53.6" x="254.8" y="212.0227">repositories</text><text fill="#000000" font-family="sans-serif" font-size="10.4" lengthAdjust="spacing" textLength="5.6" x="248.0588" y="193.4833">1</text><text fill="#000000" font-family="sans-serif" font-size="10.4" lengthAdjust="spacing" textLength="5.6" x="248.0238" y="230.1604">1</text></g><!--link TasksAssignedToMeBetweenToDatesController to Employee--><g id="link_TasksAssignedToMeBetweenToDatesController_Employee"><path codeLine="75" d="M220.104,176.008 C195.896,205.144 167.6,239.2 167.6,239.2 C167.6,239.2 167.6,322.4 167.6,322.4 C167.6,322.4 168.4,424.8 168.4,424.8 C168.4,424.8 178.8126,457.0644 187.3166,483.3924 " fill="none" id="TasksAssignedToMeBetweenToDatesController-to-Employee" style="stroke:#181818;stroke-width:0.8000000000000002;stroke-dasharray:7.0,7.0;"/><polygon fill="#181818" points="188.792,487.96,189.6241,480.125,187.5625,484.1536,183.5339,482.0921,188.792,487.96" style="stroke:#181818;stroke-width:0.8000000000000002;"/><text fill="#000000" font-family="sans-serif" font-size="10.4" lengthAdjust="spacing" textLength="5.6" x="209.8023" y="193.4549">1</text><text fill="#000000" font-family="sans-serif" font-size="10.4" lengthAdjust="spacing" textLength="4" x="182.7429" y="479.0125">*</text></g><!--link TasksAssignedToMeBetweenToDatesController to TaskStatus--><g id="link_TasksAssignedToMeBetweenToDatesController_TaskStatus"><path codeLine="76" d="M312.696,176.008 C354.608,205.144 403.6,239.2 403.6,239.2 C403.6,239.2 431.6,280 431.6,280 C431.6,280 431.6,280 431.6,669.6 C431.6,669.6 427.4899,763.6446 424.6419,828.7086 " fill="none" id="TasksAssignedToMeBetweenToDatesController-to-TaskStatus" style="stroke:#181818;stroke-width:0.8000000000000002;stroke-dasharray:7.0,7.0;"/><polygon fill="#181818" points="424.432,833.504,427.9438,826.4508,424.6069,829.5078,421.5499,826.171,424.432,833.504" style="stroke:#181818;stroke-width:0.8000000000000002;"/><text fill="#000000" font-family="sans-serif" font-size="10.4" lengthAdjust="spacing" textLength="50.4" x="432.4" y="460.8227">taskStatus</text><text fill="#000000" font-family="sans-serif" font-size="10.4" lengthAdjust="spacing" textLength="5.6" x="314.2577" y="193.4549">1</text><text fill="#000000" font-family="sans-serif" font-size="10.4" lengthAdjust="spacing" textLength="4" x="420.4766" y="824.6069">*</text></g><!--link Repositories to Repositories--><g id="link_Repositories_Repositories"><path codeLine="77" d="M326.136,268.816 C342.248,269.92 354,273.912 354,280.8 C354,287.688 347.0368,291.3519 330.9248,292.4559 " fill="none" id="Repositories-to-Repositories" style="stroke:#181818;stroke-width:0.8000000000000002;"/><polygon fill="#181818" points="326.136,292.784,333.5379,295.4843,330.1266,292.5106,333.1004,289.0993,326.136,292.784" style="stroke:#181818;stroke-width:0.8000000000000002;"/><text fill="#000000" font-family="sans-serif" font-size="10.4" lengthAdjust="spacing" textLength="39.2" x="358.8" y="285.2227">instance</text></g><!--link Repositories to EmployeeRepository--><g id="link_Repositories_EmployeeRepository"><path codeLine="78" d="M254.288,322.68 C254.392,338.776 254.4877,351.9601 254.5837,366.2321 " fill="none" id="Repositories-to-EmployeeRepository" style="stroke:#181818;stroke-width:0.8000000000000002;"/><polygon fill="#181818" points="254.616,371.032,257.7675,363.8106,254.5891,367.0321,251.3676,363.8537,254.616,371.032" style="stroke:#181818;stroke-width:0.8000000000000002;"/><text fill="#000000" font-family="sans-serif" font-size="10.4" lengthAdjust="spacing" textLength="5.6" x="248.3819" y="339.8564">1</text><text fill="#000000" font-family="sans-serif" font-size="10.4" lengthAdjust="spacing" textLength="5.6" x="248.4472" y="362.2687">1</text></g><!--link EmployeeRepository to Employee--><g id="link_EmployeeRepository_Employee"><path codeLine="79" d="M241.728,424.944 C232.304,443.792 221.7794,464.8431 212.3634,483.6671 " fill="none" id="EmployeeRepository-to-Employee" style="stroke:#181818;stroke-width:0.8000000000000002;"/><polygon fill="#181818" points="210.216,487.96,216.299,482.9522,212.0055,484.3826,210.5751,480.0891,210.216,487.96" style="stroke:#181818;stroke-width:0.8000000000000002;"/><text fill="#000000" font-family="sans-serif" font-size="10.4" lengthAdjust="spacing" textLength="5.6" x="233.3008" y="442.225">1</text><text fill="#000000" font-family="sans-serif" font-size="10.4" lengthAdjust="spacing" textLength="4" x="208.3848" y="479.0125">*</text></g><!--link Employee to Tasks--><g id="link_Employee_Tasks"><path codeLine="80" d="M206.688,541.8 C212.976,559.16 219.8773,578.2069 227.8693,600.2709 " fill="none" id="Employee-to-Tasks" style="stroke:#181818;stroke-width:0.8000000000000002;"/><polygon fill="#181818" points="229.504,604.784,230.0606,596.9246,228.1417,601.0231,224.0432,599.1042,229.504,604.784" style="stroke:#181818;stroke-width:0.8000000000000002;"/><text fill="#000000" font-family="sans-serif" font-size="10.4" lengthAdjust="spacing" textLength="41.6" x="221.2" y="577.6227">listTasks</text><text fill="#000000" font-family="sans-serif" font-size="10.4" lengthAdjust="spacing" textLength="5.6" x="202.2375" y="558.8781">1</text><text fill="#000000" font-family="sans-serif" font-size="10.4" lengthAdjust="spacing" textLength="5.6" x="221.5352" y="595.8991">1</text></g><!--link Tasks to Task--><g id="link_Tasks_Task"><path codeLine="81" d="M255.16,732.824 C255.832,748.088 256.3484,760.0367 257.0844,776.7167 " fill="none" id="Tasks-to-Task" style="stroke:#181818;stroke-width:0.8000000000000002;"/><polygon fill="#181818" points="257.296,781.512,260.1755,774.1779,257.1197,777.5159,253.7817,774.4601,257.296,781.512" style="stroke:#181818;stroke-width:0.8000000000000002;"/><text fill="#000000" font-family="sans-serif" font-size="10.4" lengthAdjust="spacing" textLength="5.6" x="249.5566" y="750.1525">1</text><text fill="#000000" font-family="sans-serif" font-size="10.4" lengthAdjust="spacing" textLength="4" x="252.9084" y="772.4658">*</text></g><!--link Task to TaskStatus--><g id="link_Task_TaskStatus"><path codeLine="82" d="M352.664,890 C361.632,890 368.664,890 368.664,890 C368.664,890 368.944,890 375.968,890 " fill="none" id="Task-to-TaskStatus" style="stroke:#181818;stroke-width:0.8000000000000002;stroke-dasharray:7.0,7.0;"/><polygon fill="#181818" points="380.768,890,373.568,886.8,376.768,890,373.568,893.2,380.768,890" style="stroke:#181818;stroke-width:0.8000000000000002;"/><text fill="#000000" font-family="sans-serif" font-size="10.4" lengthAdjust="spacing" textLength="5.6" x="358.9436" y="887.1614">1</text><text fill="#000000" font-family="sans-serif" font-size="10.4" lengthAdjust="spacing" textLength="5.6" x="368.7008" y="886.6348">1</text></g><!--SRC=[hLN1Zjem4BtdAonER5jMtMjK8L62AYJAeeRTkmdJh8Mn8yz4DAtwxxKT9p6mQcdLFMpiUJFFyyRZ0Gz2LTpm8wjuSU0bvDH8O0OAuggKa63lW2zyhqz2bUmhbnWZKYYWfW9MQTcuJOGLaYFEY8pOrGJBGgjSV0VsFaaI3x4jnmFE44MfOB_Ld-4Zq0b0RKywumJuj6G_akJdd_rRzxbMPBIKO5mOitzlIw35iPAw0VW2bKP1sZJZEmzQp17cnAd6PovhmF5TobO2wSC0J6FVtnm-HkA6tF8T0xLtYvXiwdMqClfC1A3DrF5FObl8poM_L9PM5H2PNjNJSr-ZuOGurCc4i1v2lS2GJfGu8sVlEMQbLSV7vzeyA31KvB8UNJa6ZgwAm8-EYUot1vsnItIuaCxIdpNSnBms1XJDxStpdJRSYhPXEwqbSDMsJoonwmqs8K4IKfRR1bLbiEq12oCg4bfT8AuCYs-LVHsmpsfxZ7SHYW9U6Yizjq_9KWxh0DR6bgreKf_1Kxi94FesQv6svGB0eof5DHg0PtWHXGGC9UgsqoZXPHQds5z9ojp_O0tNSsPpiHlNG5xaDjhvWeAgZr72eSKsgzbwlSZQzME-tJnsk_biFL-imYQpvjPdiSwMwq_NpMlv_iE3ixGt39ZHmuZTtq_zz-Rvajm-YMB- -96dTj0Ek-Hl6ItXcr5Vi7-B7YumzOyyTD_PU9fCfXTfYp2IplqShVDrt-iPbBmoblg8M4VV0J6V5vVQdnfiUw9LUqRWBDxSwtk8zIM_0000]--></g></svg>