<?xml version="1.0" encoding="us-ascii" standalone="no"?><svg xmlns="http://www.w3.org/2000/svg" xmlns:xlink="http://www.w3.org/1999/xlink" contentStyleType="text/css" height="584.4px" preserveAspectRatio="none" style="width:1312px;height:584px;background:#FFFFFF;" version="1.1" viewBox="0 0 1312 584" width="1312.8px" zoomAndPan="magnify"><defs/><g><rect fill="#FFFFFF" height="473.1926" style="stroke:#181818;stroke-width:0.6;" width="6" x="25.2" y="56.1727"/><rect fill="#FFFFFF" height="93.873" style="stroke:#181818;stroke-width:0.6;" width="6" x="263.4" y="99.0984"/><rect fill="#FFFFFF" height="312.2191" style="stroke:#181818;stroke-width:0.6;" width="6" x="263.4" y="211.7461"/><rect fill="#FFFFFF" height="56.3238" style="stroke:#181818;stroke-width:0.6;" width="6" x="542.4" y="117.873"/><rect fill="#FFFFFF" height="274.6699" style="stroke:#181818;stroke-width:0.6;" width="6" x="542.4" y="230.5207"/><rect fill="#FFFFFF" height="138.0223" style="stroke:#181818;stroke-width:0.6;" width="6" x="545.4" y="254.0953"/><rect fill="#FFFFFF" height="18.7746" style="stroke:#181818;stroke-width:0.6;" width="6" x="671.1" y="136.6477"/><rect fill="#FFFFFF" height="18.7746" style="stroke:#181818;stroke-width:0.6;" width="6" x="732.9" y="275.8699"/><rect fill="#FFFFFF" height="18.7746" style="stroke:#181818;stroke-width:0.6;" width="6" x="797.1" y="313.4191"/><rect fill="#FFFFFF" height="18.7746" style="stroke:#181818;stroke-width:0.6;" width="6" x="952.5" y="350.9684"/><rect fill="#FFFFFF" height="56.3238" style="stroke:#181818;stroke-width:0.6;" width="6" x="1025.1" y="430.0922"/><rect fill="#FFFFFF" height="18.7746" style="stroke:#181818;stroke-width:0.6;" width="6" x="1291.5" y="448.8668"/><line style="stroke:#181818;stroke-width:0.3;stroke-dasharray:5.0,5.0;" x1="28.2" x2="28.2" y1="50.1727" y2="534.7652"/><line style="stroke:#181818;stroke-width:0.3;stroke-dasharray:5.0,5.0;" x1="266.4" x2="266.4" y1="50.1727" y2="534.7652"/><line style="stroke:#181818;stroke-width:0.3;stroke-dasharray:5.0,5.0;" x1="545.4" x2="545.4" y1="50.1727" y2="534.7652"/><line style="stroke:#181818;stroke-width:0.3;stroke-dasharray:5.0,5.0;" x1="673.8" x2="673.8" y1="50.1727" y2="534.7652"/><line style="stroke:#181818;stroke-width:0.3;stroke-dasharray:5.0,5.0;" x1="735.6" x2="735.6" y1="50.1727" y2="534.7652"/><line style="stroke:#181818;stroke-width:0.3;stroke-dasharray:5.0,5.0;" x1="799.8" x2="799.8" y1="50.1727" y2="534.7652"/><line style="stroke:#181818;stroke-width:0.3;stroke-dasharray:5.0,5.0;" x1="870" x2="870" y1="50.1727" y2="534.7652"/><line style="stroke:#181818;stroke-width:0.3;stroke-dasharray:5.0,5.0;" x1="955.2" x2="955.2" y1="50.1727" y2="534.7652"/><line style="stroke:#181818;stroke-width:0.3;stroke-dasharray:5.0,5.0;" x1="1027.8" x2="1027.8" y1="50.1727" y2="534.7652"/><line style="stroke:#181818;stroke-width:0.3;stroke-dasharray:5.0,5.0;" x1="1294.2" x2="1294.2" y1="50.1727" y2="534.7652"/><text fill="#000000" font-family="sans-serif" font-size="8.4" lengthAdjust="spacing" textLength="46.8" x="3" y="48.0645">Collaborator</text><ellipse cx="28.2" cy="8.1" fill="#E3E3E3" rx="4.8" ry="4.8" style="stroke:#181818;stroke-width:0.3;"/><path d="M28.2,12.9 L28.2,29.1 M20.4,17.7 L36,17.7 M28.2,29.1 L20.4,38.1 M28.2,29.1 L36,38.1 " fill="none" style="stroke:#181818;stroke-width:0.3;"/><text fill="#000000" font-family="sans-serif" font-size="8.4" lengthAdjust="spacing" textLength="46.8" x="3" y="543.2297">Collaborator</text><ellipse cx="28.2" cy="550.4379" fill="#E3E3E3" rx="4.8" ry="4.8" style="stroke:#181818;stroke-width:0.3;"/><path d="M28.2,555.2379 L28.2,571.4379 M20.4,560.0379 L36,560.0379 M28.2,571.4379 L20.4,580.4379 M28.2,571.4379 L36,580.4379 " fill="none" style="stroke:#181818;stroke-width:0.3;"/><rect fill="#E3E3E3" height="19.5727" rx="1.5" ry="1.5" style="stroke:#181818;stroke-width:0.3;" width="157.2" x="187.8" y="30"/><text fill="#000000" font-family="sans-serif" font-size="8.4" lengthAdjust="spacing" textLength="148.8" x="192" y="43.2645">:TasksAssinedToMeBetweenToDatesUI</text><rect fill="#E3E3E3" height="19.5727" rx="1.5" ry="1.5" style="stroke:#181818;stroke-width:0.3;" width="157.2" x="187.8" y="534.1652"/><text fill="#000000" font-family="sans-serif" font-size="8.4" lengthAdjust="spacing" textLength="148.8" x="192" y="547.4297">:TasksAssinedToMeBetweenToDatesUI</text><rect fill="#E3E3E3" height="19.5727" rx="1.5" ry="1.5" style="stroke:#181818;stroke-width:0.3;" width="192" x="449.4" y="30"/><text fill="#000000" font-family="sans-serif" font-size="8.4" lengthAdjust="spacing" textLength="183.6" x="453.6" y="43.2645">:TasksAssignedToMeBetweenToDatesController</text><rect fill="#E3E3E3" height="19.5727" rx="1.5" ry="1.5" style="stroke:#181818;stroke-width:0.3;" width="192" x="449.4" y="534.1652"/><text fill="#000000" font-family="sans-serif" font-size="8.4" lengthAdjust="spacing" textLength="183.6" x="453.6" y="547.4297">:TasksAssignedToMeBetweenToDatesController</text><rect fill="#E3E3E3" height="19.5727" rx="1.5" ry="1.5" style="stroke:#181818;stroke-width:0.3;" width="53.4" x="647.4" y="30"/><text fill="#000000" font-family="sans-serif" font-size="8.4" lengthAdjust="spacing" textLength="45" x="651.6" y="43.2645">:TaskStatus</text><rect fill="#E3E3E3" height="19.5727" rx="1.5" ry="1.5" style="stroke:#181818;stroke-width:0.3;" width="53.4" x="647.4" y="534.1652"/><text fill="#000000" font-family="sans-serif" font-size="8.4" lengthAdjust="spacing" textLength="45" x="651.6" y="547.4297">:TaskStatus</text><rect fill="#E3E3E3" height="19.5727" rx="1.5" ry="1.5" style="stroke:#181818;stroke-width:0.3;" width="58.2" x="706.8" y="30"/><text fill="#000000" font-family="sans-serif" font-size="8.4" lengthAdjust="spacing" textLength="49.8" x="711" y="43.2645">:Repositories</text><rect fill="#E3E3E3" height="19.5727" rx="1.5" ry="1.5" style="stroke:#181818;stroke-width:0.3;" width="58.2" x="706.8" y="534.1652"/><text fill="#000000" font-family="sans-serif" font-size="8.4" lengthAdjust="spacing" textLength="49.8" x="711" y="547.4297">:Repositories</text><rect fill="#E3E3E3" height="30.7453" rx="1.5" ry="1.5" style="stroke:#181818;stroke-width:0.3;" width="58.2" x="771" y="18.8273"/><text fill="#000000" font-family="sans-serif" font-size="8.4" lengthAdjust="spacing" textLength="44.4" x="777.9" y="32.0918">repositories</text><text fill="#000000" font-family="sans-serif" font-size="8.4" lengthAdjust="spacing" textLength="49.8" x="775.2" y="43.2645">:Repositories</text><rect fill="#E3E3E3" height="30.7453" rx="1.5" ry="1.5" style="stroke:#181818;stroke-width:0.3;" width="58.2" x="771" y="534.1652"/><text fill="#000000" font-family="sans-serif" font-size="8.4" lengthAdjust="spacing" textLength="44.4" x="777.9" y="547.4297">repositories</text><text fill="#000000" font-family="sans-serif" font-size="8.4" lengthAdjust="spacing" textLength="49.8" x="775.2" y="558.6023">:Repositories</text><rect fill="#E3E3E3" height="30.7453" rx="1.5" ry="1.5" style="stroke:#181818;stroke-width:0.3;" width="70.2" x="835.2" y="18.8273"/><text fill="#000000" font-family="sans-serif" font-size="8.4" lengthAdjust="spacing" textLength="56.4" x="842.1" y="32.0918">taskRepository</text><text fill="#000000" font-family="sans-serif" font-size="8.4" lengthAdjust="spacing" textLength="61.8" x="839.4" y="43.2645">:TaskRepository</text><rect fill="#E3E3E3" height="30.7453" rx="1.5" ry="1.5" style="stroke:#181818;stroke-width:0.3;" width="70.2" x="835.2" y="534.1652"/><text fill="#000000" font-family="sans-serif" font-size="8.4" lengthAdjust="spacing" textLength="56.4" x="842.1" y="547.4297">taskRepository</text><text fill="#000000" font-family="sans-serif" font-size="8.4" lengthAdjust="spacing" textLength="61.8" x="839.4" y="558.6023">:TaskRepository</text><rect fill="#E3E3E3" height="30.7453" rx="1.5" ry="1.5" style="stroke:#181818;stroke-width:0.3;" width="88.2" x="911.4" y="18.8273"/><text fill="#000000" font-family="sans-serif" font-size="8.4" lengthAdjust="spacing" textLength="79.8" x="915.6" y="32.0918">employeeRepository:</text><text fill="#000000" font-family="sans-serif" font-size="8.4" lengthAdjust="spacing" textLength="78" x="916.5" y="43.2645">EmployeeRepository</text><rect fill="#E3E3E3" height="30.7453" rx="1.5" ry="1.5" style="stroke:#181818;stroke-width:0.3;" width="88.2" x="911.4" y="534.1652"/><text fill="#000000" font-family="sans-serif" font-size="8.4" lengthAdjust="spacing" textLength="79.8" x="915.6" y="547.4297">employeeRepository:</text><text fill="#000000" font-family="sans-serif" font-size="8.4" lengthAdjust="spacing" textLength="78" x="916.5" y="558.6023">EmployeeRepository</text><rect fill="#E3E3E3" height="19.5727" rx="1.5" ry="1.5" style="stroke:#181818;stroke-width:0.3;" width="45" x="1005.6" y="30"/><text fill="#000000" font-family="sans-serif" font-size="8.4" lengthAdjust="spacing" textLength="36.6" x="1009.8" y="43.2645">employee</text><rect fill="#E3E3E3" height="19.5727" rx="1.5" ry="1.5" style="stroke:#181818;stroke-width:0.3;" width="45" x="1005.6" y="534.1652"/><text fill="#000000" font-family="sans-serif" font-size="8.4" lengthAdjust="spacing" textLength="36.6" x="1009.8" y="547.4297">employee</text><rect fill="#E3E3E3" height="19.5727" rx="1.5" ry="1.5" style="stroke:#181818;stroke-width:0.3;" width="29.4" x="1279.8" y="30"/><text fill="#000000" font-family="sans-serif" font-size="8.4" lengthAdjust="spacing" textLength="21" x="1284" y="43.2645">:Task</text><rect fill="#E3E3E3" height="19.5727" rx="1.5" ry="1.5" style="stroke:#181818;stroke-width:0.3;" width="29.4" x="1279.8" y="534.1652"/><text fill="#000000" font-family="sans-serif" font-size="8.4" lengthAdjust="spacing" textLength="21" x="1284" y="547.4297">:Task</text><rect fill="#FFFFFF" height="473.1926" style="stroke:#181818;stroke-width:0.6;" width="6" x="25.2" y="56.1727"/><rect fill="#FFFFFF" height="93.873" style="stroke:#181818;stroke-width:0.6;" width="6" x="263.4" y="99.0984"/><rect fill="#FFFFFF" height="312.2191" style="stroke:#181818;stroke-width:0.6;" width="6" x="263.4" y="211.7461"/><rect fill="#FFFFFF" height="56.3238" style="stroke:#181818;stroke-width:0.6;" width="6" x="542.4" y="117.873"/><rect fill="#FFFFFF" height="274.6699" style="stroke:#181818;stroke-width:0.6;" width="6" x="542.4" y="230.5207"/><rect fill="#FFFFFF" height="138.0223" style="stroke:#181818;stroke-width:0.6;" width="6" x="545.4" y="254.0953"/><rect fill="#FFFFFF" height="18.7746" style="stroke:#181818;stroke-width:0.6;" width="6" x="671.1" y="136.6477"/><rect fill="#FFFFFF" height="18.7746" style="stroke:#181818;stroke-width:0.6;" width="6" x="732.9" y="275.8699"/><rect fill="#FFFFFF" height="18.7746" style="stroke:#181818;stroke-width:0.6;" width="6" x="797.1" y="313.4191"/><rect fill="#FFFFFF" height="18.7746" style="stroke:#181818;stroke-width:0.6;" width="6" x="952.5" y="350.9684"/><rect fill="#FFFFFF" height="56.3238" style="stroke:#181818;stroke-width:0.6;" width="6" x="1025.1" y="430.0922"/><rect fill="#FFFFFF" height="18.7746" style="stroke:#181818;stroke-width:0.6;" width="6" x="1291.5" y="448.8668"/><rect fill="none" height="25.9512" style="stroke:#000000;stroke-width:0.8999999999999999;" width="345.6" x="1.2" y="56.1727"/><path d="M1.2,56.1727 L38.4,56.1727 L38.4,61.5727 L32.4,67.5727 L1.2,67.5727 L1.2,56.1727 " fill="#EEEEEE" style="stroke:#000000;stroke-width:1.2;"/><text fill="#000000" font-family="sans-serif" font-size="7.8" font-weight="bold" lengthAdjust="spacing" textLength="10.2" x="9" y="65.7896">ref</text><text fill="#000000" font-family="sans-serif" font-size="7.2" lengthAdjust="spacing" textLength="184.8" x="81.6" y="77.7422">This action assumes that the user has already logged in</text><polygon fill="#181818" points="256.2,96.6984,262.2,99.0984,256.2,101.4984,258.6,99.0984" style="stroke:#181818;stroke-width:0.6;"/><line style="stroke:#181818;stroke-width:0.6;" x1="31.2" x2="259.8" y1="99.0984" y2="99.0984"/><text fill="#000000" font-family="sans-serif" font-size="7.8" font-weight="bold" lengthAdjust="spacing" textLength="4.2" x="35.4" y="95.9408">1</text><text fill="#000000" font-family="sans-serif" font-size="7.8" lengthAdjust="spacing" textLength="214.2" x="42" y="95.9408">I wish to consult the tasks assigned to me between two dates</text><polygon fill="#181818" points="535.2,115.473,541.2,117.873,535.2,120.273,537.6,117.873" style="stroke:#181818;stroke-width:0.6;"/><line style="stroke:#181818;stroke-width:0.6;" x1="269.4" x2="538.8" y1="117.873" y2="117.873"/><text fill="#000000" font-family="sans-serif" font-size="7.8" font-weight="bold" lengthAdjust="spacing" textLength="4.2" x="273.6" y="114.7154">2</text><text fill="#000000" font-family="sans-serif" font-size="7.8" lengthAdjust="spacing" textLength="55.2" x="280.2" y="114.7154">getTaskStatus()</text><polygon fill="#181818" points="663.9,134.2477,669.9,136.6477,663.9,139.0477,666.3,136.6477" style="stroke:#181818;stroke-width:0.6;"/><line style="stroke:#181818;stroke-width:0.6;" x1="548.4" x2="667.5" y1="136.6477" y2="136.6477"/><text fill="#000000" font-family="sans-serif" font-size="7.8" font-weight="bold" lengthAdjust="spacing" textLength="4.2" x="552.6" y="133.49">3</text><text fill="#000000" font-family="sans-serif" font-size="7.8" lengthAdjust="spacing" textLength="55.2" x="559.2" y="133.49">getTaskStatus()</text><polygon fill="#181818" points="555,153.0223,549,155.4223,555,157.8223,552.6,155.4223" style="stroke:#181818;stroke-width:0.6;"/><line style="stroke:#181818;stroke-width:0.6;stroke-dasharray:2.0,2.0;" x1="551.4" x2="673.5" y1="155.4223" y2="155.4223"/><text fill="#000000" font-family="sans-serif" font-size="7.8" font-weight="bold" lengthAdjust="spacing" textLength="4.2" x="558.6" y="152.2646">4</text><text fill="#000000" font-family="sans-serif" font-size="7.8" lengthAdjust="spacing" textLength="37.8" x="565.2" y="152.2646">taskStatus</text><polygon fill="#181818" points="276,171.7969,270,174.1969,276,176.5969,273.6,174.1969" style="stroke:#181818;stroke-width:0.6;"/><line style="stroke:#181818;stroke-width:0.6;stroke-dasharray:2.0,2.0;" x1="272.4" x2="544.8" y1="174.1969" y2="174.1969"/><text fill="#000000" font-family="sans-serif" font-size="7.8" font-weight="bold" lengthAdjust="spacing" textLength="4.2" x="279.6" y="171.0393">5</text><text fill="#000000" font-family="sans-serif" font-size="7.8" lengthAdjust="spacing" textLength="37.8" x="286.2" y="171.0393">taskStatus</text><polygon fill="#181818" points="37.8,190.5715,31.8,192.9715,37.8,195.3715,35.4,192.9715" style="stroke:#181818;stroke-width:0.6;"/><line style="stroke:#181818;stroke-width:0.6;stroke-dasharray:2.0,2.0;" x1="34.2" x2="265.8" y1="192.9715" y2="192.9715"/><text fill="#000000" font-family="sans-serif" font-size="7.8" font-weight="bold" lengthAdjust="spacing" textLength="4.2" x="41.4" y="189.8139">6</text><text fill="#000000" font-family="sans-serif" font-size="7.8" lengthAdjust="spacing" textLength="170.4" x="48" y="189.8139">Requests data (Start date, end date, task status)</text><polygon fill="#181818" points="256.2,209.3461,262.2,211.7461,256.2,214.1461,258.6,211.7461" style="stroke:#181818;stroke-width:0.6;"/><line style="stroke:#181818;stroke-width:0.6;" x1="31.2" x2="259.8" y1="211.7461" y2="211.7461"/><text fill="#000000" font-family="sans-serif" font-size="7.8" font-weight="bold" lengthAdjust="spacing" textLength="4.2" x="35.4" y="208.5885">7</text><text fill="#000000" font-family="sans-serif" font-size="7.8" lengthAdjust="spacing" textLength="80.4" x="42" y="208.5885">Selects requested data</text><polygon fill="#181818" points="535.2,228.1207,541.2,230.5207,535.2,232.9207,537.6,230.5207" style="stroke:#181818;stroke-width:0.6;"/><line style="stroke:#181818;stroke-width:0.6;" x1="269.4" x2="538.8" y1="230.5207" y2="230.5207"/><text fill="#000000" font-family="sans-serif" font-size="7.8" font-weight="bold" lengthAdjust="spacing" textLength="4.2" x="273.6" y="227.3631">8</text><text fill="#000000" font-family="sans-serif" font-size="7.8" lengthAdjust="spacing" textLength="255" x="280.2" y="227.3631">getTasksAssignedToMeBetweenToDates(startDate, endDate, taskStatus)</text><line style="stroke:#181818;stroke-width:0.6;" x1="548.4" x2="576.6" y1="246.2953" y2="246.2953"/><line style="stroke:#181818;stroke-width:0.6;" x1="576.6" x2="576.6" y1="246.2953" y2="254.0953"/><line style="stroke:#181818;stroke-width:0.6;" x1="552" x2="576.6" y1="254.0953" y2="254.0953"/><polygon fill="#181818" points="558,251.6953,552,254.0953,558,256.4953,555.6,254.0953" style="stroke:#181818;stroke-width:0.6;"/><text fill="#000000" font-family="sans-serif" font-size="7.8" font-weight="bold" lengthAdjust="spacing" textLength="4.2" x="555.6" y="243.1377">9</text><text fill="#000000" font-family="sans-serif" font-size="7.8" lengthAdjust="spacing" textLength="105.6" x="562.2" y="243.1377">getEmployeeFromRepository()</text><polygon fill="#181818" points="725.7,273.4699,731.7,275.8699,725.7,278.2699,728.1,275.8699" style="stroke:#181818;stroke-width:0.6;"/><line style="stroke:#181818;stroke-width:0.6;" x1="551.4" x2="729.3" y1="275.8699" y2="275.8699"/><text fill="#000000" font-family="sans-serif" font-size="7.8" font-weight="bold" lengthAdjust="spacing" textLength="8.4" x="555.6" y="272.7123">10</text><text fill="#000000" font-family="sans-serif" font-size="7.8" lengthAdjust="spacing" textLength="45" x="566.4" y="272.7123">getInstance()</text><polygon fill="#181818" points="558,292.2445,552,294.6445,558,297.0445,555.6,294.6445" style="stroke:#181818;stroke-width:0.6;"/><line style="stroke:#181818;stroke-width:0.6;stroke-dasharray:2.0,2.0;" x1="554.4" x2="735.3" y1="294.6445" y2="294.6445"/><text fill="#000000" font-family="sans-serif" font-size="7.8" font-weight="bold" lengthAdjust="spacing" textLength="8.4" x="561.6" y="291.4869">11</text><text fill="#000000" font-family="sans-serif" font-size="7.8" lengthAdjust="spacing" textLength="40.2" x="572.4" y="291.4869">repositories</text><polygon fill="#181818" points="789.9,311.0191,795.9,313.4191,789.9,315.8191,792.3,313.4191" style="stroke:#181818;stroke-width:0.6;"/><line style="stroke:#181818;stroke-width:0.6;" x1="551.4" x2="793.5" y1="313.4191" y2="313.4191"/><text fill="#000000" font-family="sans-serif" font-size="7.8" font-weight="bold" lengthAdjust="spacing" textLength="8.4" x="555.6" y="310.2615">12</text><text fill="#000000" font-family="sans-serif" font-size="7.8" lengthAdjust="spacing" textLength="93.6" x="566.4" y="310.2615">getEmployeeRepositories()</text><polygon fill="#181818" points="558,329.7938,552,332.1937,558,334.5938,555.6,332.1937" style="stroke:#181818;stroke-width:0.6;"/><line style="stroke:#181818;stroke-width:0.6;stroke-dasharray:2.0,2.0;" x1="554.4" x2="799.5" y1="332.1937" y2="332.1937"/><text fill="#000000" font-family="sans-serif" font-size="7.8" font-weight="bold" lengthAdjust="spacing" textLength="8.4" x="561.6" y="329.0361">13</text><text fill="#000000" font-family="sans-serif" font-size="7.8" lengthAdjust="spacing" textLength="78" x="572.4" y="329.0361">EmployeeRepositories</text><polygon fill="#181818" points="945.3,348.5684,951.3,350.9684,945.3,353.3684,947.7,350.9684" style="stroke:#181818;stroke-width:0.6;"/><line style="stroke:#181818;stroke-width:0.6;" x1="551.4" x2="948.9" y1="350.9684" y2="350.9684"/><text fill="#000000" font-family="sans-serif" font-size="7.8" font-weight="bold" lengthAdjust="spacing" textLength="8.4" x="555.6" y="347.8107">14</text><text fill="#000000" font-family="sans-serif" font-size="7.8" lengthAdjust="spacing" textLength="50.4" x="566.4" y="347.8107">getEmployee()</text><polygon fill="#181818" points="558,367.343,552,369.743,558,372.143,555.6,369.743" style="stroke:#181818;stroke-width:0.6;"/><line style="stroke:#181818;stroke-width:0.6;stroke-dasharray:2.0,2.0;" x1="554.4" x2="954.9" y1="369.743" y2="369.743"/><text fill="#000000" font-family="sans-serif" font-size="7.8" font-weight="bold" lengthAdjust="spacing" textLength="8.4" x="561.6" y="366.5854">15</text><text fill="#000000" font-family="sans-serif" font-size="7.8" lengthAdjust="spacing" textLength="33.6" x="572.4" y="366.5854">employee</text><line style="stroke:#181818;stroke-width:0.6;stroke-dasharray:2.0,2.0;" x1="551.4" x2="576.6" y1="391.5176" y2="391.5176"/><line style="stroke:#181818;stroke-width:0.6;stroke-dasharray:2.0,2.0;" x1="576.6" x2="576.6" y1="391.5176" y2="399.3176"/><line style="stroke:#181818;stroke-width:0.6;stroke-dasharray:2.0,2.0;" x1="548.4" x2="576.6" y1="399.3176" y2="399.3176"/><polygon fill="#181818" points="554.4,396.9176,548.4,399.3176,554.4,401.7176,552,399.3176" style="stroke:#181818;stroke-width:0.6;"/><text fill="#000000" font-family="sans-serif" font-size="7.8" font-weight="bold" lengthAdjust="spacing" textLength="8.4" x="555.6" y="388.36">16</text><text fill="#000000" font-family="sans-serif" font-size="7.8" lengthAdjust="spacing" textLength="33.6" x="566.4" y="388.36">employee</text><polygon fill="#181818" points="1017.9,427.6922,1023.9,430.0922,1017.9,432.4922,1020.3,430.0922" style="stroke:#181818;stroke-width:0.6;"/><line style="stroke:#181818;stroke-width:0.6;" x1="548.4" x2="1021.5" y1="430.0922" y2="430.0922"/><text fill="#000000" font-family="sans-serif" font-size="7.8" font-weight="bold" lengthAdjust="spacing" textLength="8.4" x="552.6" y="426.9346">17</text><text fill="#000000" font-family="sans-serif" font-size="7.8" lengthAdjust="spacing" textLength="238.2" x="563.4" y="426.9346">getEmployeeTasksBetweenToDates(startDate, endDate, taskStatus)</text><polygon fill="#181818" points="1284.3,446.4668,1290.3,448.8668,1284.3,451.2668,1286.7,448.8668" style="stroke:#181818;stroke-width:0.6;"/><line style="stroke:#181818;stroke-width:0.6;" x1="1031.1" x2="1287.9" y1="448.8668" y2="448.8668"/><text fill="#000000" font-family="sans-serif" font-size="7.8" font-weight="bold" lengthAdjust="spacing" textLength="8.4" x="1035.3" y="445.7092">18</text><text fill="#000000" font-family="sans-serif" font-size="7.8" lengthAdjust="spacing" textLength="238.2" x="1046.1" y="445.7092">getEmployeeTasksBetweenToDates(startDate, endDate, taskStatus)</text><polygon fill="#181818" points="1037.7,465.2414,1031.7,467.6414,1037.7,470.0414,1035.3,467.6414" style="stroke:#181818;stroke-width:0.6;"/><line style="stroke:#181818;stroke-width:0.6;stroke-dasharray:2.0,2.0;" x1="1034.1" x2="1293.9" y1="467.6414" y2="467.6414"/><text fill="#000000" font-family="sans-serif" font-size="7.8" font-weight="bold" lengthAdjust="spacing" textLength="8.4" x="1041.3" y="464.4838">19</text><text fill="#000000" font-family="sans-serif" font-size="7.8" lengthAdjust="spacing" textLength="42.6" x="1052.1" y="464.4838">List of tasks</text><polygon fill="#181818" points="555,484.016,549,486.416,555,488.816,552.6,486.416" style="stroke:#181818;stroke-width:0.6;"/><line style="stroke:#181818;stroke-width:0.6;stroke-dasharray:2.0,2.0;" x1="551.4" x2="1027.5" y1="486.416" y2="486.416"/><text fill="#000000" font-family="sans-serif" font-size="7.8" font-weight="bold" lengthAdjust="spacing" textLength="8.4" x="558.6" y="483.2584">20</text><text fill="#000000" font-family="sans-serif" font-size="7.8" lengthAdjust="spacing" textLength="42.6" x="569.4" y="483.2584">List of tasks</text><polygon fill="#181818" points="276,502.7906,270,505.1906,276,507.5906,273.6,505.1906" style="stroke:#181818;stroke-width:0.6;"/><line style="stroke:#181818;stroke-width:0.6;stroke-dasharray:2.0,2.0;" x1="272.4" x2="544.8" y1="505.1906" y2="505.1906"/><text fill="#000000" font-family="sans-serif" font-size="7.8" font-weight="bold" lengthAdjust="spacing" textLength="8.4" x="279.6" y="502.033">21</text><text fill="#000000" font-family="sans-serif" font-size="7.8" lengthAdjust="spacing" textLength="42.6" x="290.4" y="502.033">List of tasks</text><polygon fill="#181818" points="37.8,521.5652,31.8,523.9652,37.8,526.3652,35.4,523.9652" style="stroke:#181818;stroke-width:0.6;"/><line style="stroke:#181818;stroke-width:0.6;stroke-dasharray:2.0,2.0;" x1="34.2" x2="265.8" y1="523.9652" y2="523.9652"/><text fill="#000000" font-family="sans-serif" font-size="7.8" font-weight="bold" lengthAdjust="spacing" textLength="8.4" x="41.4" y="520.8076">22</text><text fill="#000000" font-family="sans-serif" font-size="7.8" lengthAdjust="spacing" textLength="79.2" x="52.2" y="520.8076">Shows the list of tasks</text><!--SRC=[pLTBRjim4Dtp54GsSe3w0bu4S9mMC9gYHQpiic7iiIL49bsIYc4WX- -G-f4Y9Ij0KPGBmoBd- -RDY59lEJynoOxqABZOPb8SWMfP0b7joObjtzW1DlfI09MmrOmV2bT0PMmdpZa_q3qh5132IYruUNm5YV-tMaXwin95mLw5PFXqGvcYorNwyucW0PrlynFZcjuiKgRUr5AfdCCk5J_W7lGPWAVYWMbGpskh-BmUqZf4rLQ2QudUeVAxIfyU8mOsckbIMGdTFlRadk0aL8u9v519jXkNJMummQnz5UbelF3GmA_7PKfy5UEziujAgRTXrVojdW4udWfn0UW45Y_yQx1f3ONRSLjMk7c8e5T5jTnyj_NEtn7tki14mfwATv3LynSituAcMQwe4HGS5LLv14GzOnf_W9OAXJEqnme9R7UXXJWSO4TpJeYrGUTtrigQddELKIteLd1L5fMwmKyPgvOEvXGP_LenWkgpe3j32YTEv1DvNXkZXXgB0-YE3xDRGd6rifOyj5xcmQXrV5dGcBPdmI5NUzZjpUTtDWXNh97QGSn84mXg6anw9uwE3TqcYY5R71V8tzybAAqC9epEK55gYyyN2dnN_pCcgR8sRubZqE3crMC31Gu7XIF2MWLhWFb0cw0Si1kyHjftfanK3qrG3srCcpea4e8SbAc15TqrbF-6ewwZlLEg_efRxQ-6396HGAtVDST4-1QcU8hDbK6jcCTv3J2wTaVGe0sdh9_otMHjvXZru7L7tPIKgqauA6STE5d5t4p9xegR9fzmBdh9JKaeCbg7T49HsWw2TkXEI2xYaWnbESr1C3zYGXyV7yIiX2G3lMPRF6YuP5h79HDQhDzXoQIMIgQqKA-3aeajauHn6-wr4o-EXC_J9Ch-QiWxDKw6U5x7C97KjaXZPRb6xr75COxRL_Qu-ZZBas5bZ-jN70LijwjVngPXGl0- -U8AC6rRCUYpvcH-PovPVyrp486zmlLFpQPbNvVvOwuq5ViQq14ShK4Fy4A84ztZ9m4APTP0M12_GGpeLTfuAwnlLcusoNWwoM0-wK0V3UOnFTAyASbGGVxNiBkBsAgK4hXsFznc_p9gZ_zu6pN48Vvs90rlPq6LaDK5y_vYKCS4IB-ddC4QfxKJMTUXtKIeRx-XxfNBzoOJPsK_MGfFrRzY_m40]--></g></svg>