<?xml version="1.0" encoding="us-ascii" standalone="no"?><svg xmlns="http://www.w3.org/2000/svg" xmlns:xlink="http://www.w3.org/1999/xlink" contentStyleType="text/css" height="830px" preserveAspectRatio="none" style="width:552px;height:830px;background:#FFFFFF;" version="1.1" viewBox="0 0 552 830" width="552px" zoomAndPan="magnify"><defs/><g><!--class TasksAssignedToMeBetweenTwoDatesUI--><g id="elem_TasksAssignedToMeBetweenTwoDatesUI"><rect codeLine="7" fill="#F1F1F1" height="48" id="TasksAssignedToMeBetweenTwoDatesUI" rx="2.5" ry="2.5" style="stroke:#181818;stroke-width:0.5;" width="293" x="112" y="7"/><ellipse cx="127" cy="23" fill="#ADD1B2" rx="11" ry="11" style="stroke:#181818;stroke-width:1.0;"/><path d="M129.7656,18.875 Q129.9219,18.6563 130.1094,18.5469 Q130.2969,18.4375 130.5156,18.4375 Q130.8906,18.4375 131.125,18.7031 Q131.3594,18.9531 131.3594,19.5625 L131.3594,21.0156 Q131.3594,21.625 131.125,21.8906 Q130.8906,22.1563 130.5156,22.1563 Q130.1719,22.1563 129.9688,21.9531 Q129.7656,21.7656 129.6563,21.25 Q129.6094,20.8906 129.4219,20.7031 Q129.0938,20.3281 128.4844,20.1094 Q127.875,19.8906 127.25,19.8906 Q126.4844,19.8906 125.8438,20.2188 Q125.2188,20.5469 124.7188,21.2969 Q124.2344,22.0469 124.2344,23.0781 L124.2344,24.1719 Q124.2344,25.4063 125.125,26.2344 Q126.0156,27.0469 127.6094,27.0469 Q128.5469,27.0469 129.2031,26.7969 Q129.5938,26.6406 130.0156,26.2031 Q130.2813,25.9375 130.4219,25.8594 Q130.5781,25.7813 130.7813,25.7813 Q131.1094,25.7813 131.3594,26.0469 Q131.625,26.2969 131.625,26.6406 Q131.625,26.9844 131.2813,27.3906 Q130.7813,27.9688 129.9844,28.2969 Q128.9063,28.75 127.6094,28.75 Q126.0938,28.75 124.8906,28.125 Q123.9063,27.625 123.2188,26.5625 Q122.5313,25.4844 122.5313,24.2031 L122.5313,23.0469 Q122.5313,21.7188 123.1406,20.5781 Q123.7656,19.4219 124.8594,18.8125 Q125.9531,18.1875 127.1875,18.1875 Q127.9219,18.1875 128.5625,18.3594 Q129.2188,18.5156 129.7656,18.875 Z " fill="#000000"/><text fill="#000000" font-family="sans-serif" font-size="14" lengthAdjust="spacing" textLength="261" x="141" y="28.7969">TasksAssignedToMeBetweenTwoDatesUI</text><line style="stroke:#181818;stroke-width:0.5;" x1="113" x2="404" y1="39" y2="39"/><line style="stroke:#181818;stroke-width:0.5;" x1="113" x2="404" y1="47" y2="47"/></g><!--class TasksAssignedToMeBetweenToDatesController--><g id="elem_TasksAssignedToMeBetweenToDatesController"><rect codeLine="12" fill="#F1F1F1" height="66.6211" id="TasksAssignedToMeBetweenToDatesController" rx="2.5" ry="2.5" style="stroke:#181818;stroke-width:0.5;" width="493" x="12" y="116"/><ellipse cx="103.25" cy="132" fill="#ADD1B2" rx="11" ry="11" style="stroke:#181818;stroke-width:1.0;"/><path d="M106.0156,127.875 Q106.1719,127.6563 106.3594,127.5469 Q106.5469,127.4375 106.7656,127.4375 Q107.1406,127.4375 107.375,127.7031 Q107.6094,127.9531 107.6094,128.5625 L107.6094,130.0156 Q107.6094,130.625 107.375,130.8906 Q107.1406,131.1563 106.7656,131.1563 Q106.4219,131.1563 106.2188,130.9531 Q106.0156,130.7656 105.9063,130.25 Q105.8594,129.8906 105.6719,129.7031 Q105.3438,129.3281 104.7344,129.1094 Q104.125,128.8906 103.5,128.8906 Q102.7344,128.8906 102.0938,129.2188 Q101.4688,129.5469 100.9688,130.2969 Q100.4844,131.0469 100.4844,132.0781 L100.4844,133.1719 Q100.4844,134.4063 101.375,135.2344 Q102.2656,136.0469 103.8594,136.0469 Q104.7969,136.0469 105.4531,135.7969 Q105.8438,135.6406 106.2656,135.2031 Q106.5313,134.9375 106.6719,134.8594 Q106.8281,134.7813 107.0313,134.7813 Q107.3594,134.7813 107.6094,135.0469 Q107.875,135.2969 107.875,135.6406 Q107.875,135.9844 107.5313,136.3906 Q107.0313,136.9688 106.2344,137.2969 Q105.1563,137.75 103.8594,137.75 Q102.3438,137.75 101.1406,137.125 Q100.1563,136.625 99.4688,135.5625 Q98.7813,134.4844 98.7813,133.2031 L98.7813,132.0469 Q98.7813,130.7188 99.3906,129.5781 Q100.0156,128.4219 101.1094,127.8125 Q102.2031,127.1875 103.4375,127.1875 Q104.1719,127.1875 104.8125,127.3594 Q105.4688,127.5156 106.0156,127.875 Z " fill="#000000"/><text fill="#000000" font-family="sans-serif" font-size="14" lengthAdjust="spacing" textLength="302" x="123.75" y="137.7969">TasksAssignedToMeBetweenToDatesController</text><line style="stroke:#181818;stroke-width:0.5;" x1="13" x2="504" y1="148" y2="148"/><line style="stroke:#181818;stroke-width:0.5;" x1="13" x2="504" y1="156" y2="156"/><text fill="#000000" font-family="sans-serif" font-size="14" lengthAdjust="spacing" textLength="481" x="18" y="175.1074">+getTasks(LocalDate startDate, LocalDate endDate, TaskStatus taskStatus)</text></g><!--class Repositories--><g id="elem_Repositories"><rect codeLine="19" fill="#F1F1F1" height="103.8633" id="Repositories" rx="2.5" ry="2.5" style="stroke:#181818;stroke-width:0.5;" width="180" x="168.5" y="262"/><ellipse cx="214.75" cy="278" fill="#ADD1B2" rx="11" ry="11" style="stroke:#181818;stroke-width:1.0;"/><path d="M217.5156,273.875 Q217.6719,273.6563 217.8594,273.5469 Q218.0469,273.4375 218.2656,273.4375 Q218.6406,273.4375 218.875,273.7031 Q219.1094,273.9531 219.1094,274.5625 L219.1094,276.0156 Q219.1094,276.625 218.875,276.8906 Q218.6406,277.1563 218.2656,277.1563 Q217.9219,277.1563 217.7188,276.9531 Q217.5156,276.7656 217.4063,276.25 Q217.3594,275.8906 217.1719,275.7031 Q216.8438,275.3281 216.2344,275.1094 Q215.625,274.8906 215,274.8906 Q214.2344,274.8906 213.5938,275.2188 Q212.9688,275.5469 212.4688,276.2969 Q211.9844,277.0469 211.9844,278.0781 L211.9844,279.1719 Q211.9844,280.4063 212.875,281.2344 Q213.7656,282.0469 215.3594,282.0469 Q216.2969,282.0469 216.9531,281.7969 Q217.3438,281.6406 217.7656,281.2031 Q218.0313,280.9375 218.1719,280.8594 Q218.3281,280.7813 218.5313,280.7813 Q218.8594,280.7813 219.1094,281.0469 Q219.375,281.2969 219.375,281.6406 Q219.375,281.9844 219.0313,282.3906 Q218.5313,282.9688 217.7344,283.2969 Q216.6563,283.75 215.3594,283.75 Q213.8438,283.75 212.6406,283.125 Q211.6563,282.625 210.9688,281.5625 Q210.2813,280.4844 210.2813,279.2031 L210.2813,278.0469 Q210.2813,276.7188 210.8906,275.5781 Q211.5156,274.4219 212.6094,273.8125 Q213.7031,273.1875 214.9375,273.1875 Q215.6719,273.1875 216.3125,273.3594 Q216.9688,273.5156 217.5156,273.875 Z " fill="#000000"/><text fill="#000000" font-family="sans-serif" font-size="14" lengthAdjust="spacing" textLength="79" x="235.25" y="283.7969">Repositories</text><line style="stroke:#181818;stroke-width:0.5;" x1="169.5" x2="347.5" y1="294" y2="294"/><line style="stroke:#181818;stroke-width:0.5;" x1="169.5" x2="347.5" y1="302" y2="302"/><text fill="#000000" font-family="sans-serif" font-size="14" lengthAdjust="spacing" textLength="94" x="174.5" y="321.1074">-Repositories()</text><text fill="#000000" font-family="sans-serif" font-size="14" lengthAdjust="spacing" textLength="91" x="174.5" y="339.7285">+getInstance()</text><text fill="#000000" font-family="sans-serif" font-size="14" lengthAdjust="spacing" textLength="168" x="174.5" y="358.3496">+getEmployeeRepository()</text></g><!--class EmployeeRepository--><g id="elem_EmployeeRepository"><rect codeLine="25" fill="#F1F1F1" height="48" id="EmployeeRepository" rx="2.5" ry="2.5" style="stroke:#181818;stroke-width:0.5;" width="162" x="171.5" y="427"/><ellipse cx="186.5" cy="443" fill="#ADD1B2" rx="11" ry="11" style="stroke:#181818;stroke-width:1.0;"/><path d="M189.2656,438.875 Q189.4219,438.6563 189.6094,438.5469 Q189.7969,438.4375 190.0156,438.4375 Q190.3906,438.4375 190.625,438.7031 Q190.8594,438.9531 190.8594,439.5625 L190.8594,441.0156 Q190.8594,441.625 190.625,441.8906 Q190.3906,442.1563 190.0156,442.1563 Q189.6719,442.1563 189.4688,441.9531 Q189.2656,441.7656 189.1563,441.25 Q189.1094,440.8906 188.9219,440.7031 Q188.5938,440.3281 187.9844,440.1094 Q187.375,439.8906 186.75,439.8906 Q185.9844,439.8906 185.3438,440.2188 Q184.7188,440.5469 184.2188,441.2969 Q183.7344,442.0469 183.7344,443.0781 L183.7344,444.1719 Q183.7344,445.4063 184.625,446.2344 Q185.5156,447.0469 187.1094,447.0469 Q188.0469,447.0469 188.7031,446.7969 Q189.0938,446.6406 189.5156,446.2031 Q189.7813,445.9375 189.9219,445.8594 Q190.0781,445.7813 190.2813,445.7813 Q190.6094,445.7813 190.8594,446.0469 Q191.125,446.2969 191.125,446.6406 Q191.125,446.9844 190.7813,447.3906 Q190.2813,447.9688 189.4844,448.2969 Q188.4063,448.75 187.1094,448.75 Q185.5938,448.75 184.3906,448.125 Q183.4063,447.625 182.7188,446.5625 Q182.0313,445.4844 182.0313,444.2031 L182.0313,443.0469 Q182.0313,441.7188 182.6406,440.5781 Q183.2656,439.4219 184.3594,438.8125 Q185.4531,438.1875 186.6875,438.1875 Q187.4219,438.1875 188.0625,438.3594 Q188.7188,438.5156 189.2656,438.875 Z " fill="#000000"/><text fill="#000000" font-family="sans-serif" font-size="14" lengthAdjust="spacing" textLength="130" x="200.5" y="448.7969">EmployeeRepository</text><line style="stroke:#181818;stroke-width:0.5;" x1="172.5" x2="332.5" y1="459" y2="459"/><line style="stroke:#181818;stroke-width:0.5;" x1="172.5" x2="332.5" y1="467" y2="467"/></g><!--class Task--><g id="elem_Task"><rect codeLine="29" fill="#F1F1F1" height="178.3477" id="Task" rx="2.5" ry="2.5" style="stroke:#181818;stroke-width:0.5;" width="387" x="7" y="645"/><ellipse cx="180.75" cy="661" fill="#ADD1B2" rx="11" ry="11" style="stroke:#181818;stroke-width:1.0;"/><path d="M183.5156,656.875 Q183.6719,656.6563 183.8594,656.5469 Q184.0469,656.4375 184.2656,656.4375 Q184.6406,656.4375 184.875,656.7031 Q185.1094,656.9531 185.1094,657.5625 L185.1094,659.0156 Q185.1094,659.625 184.875,659.8906 Q184.6406,660.1563 184.2656,660.1563 Q183.9219,660.1563 183.7188,659.9531 Q183.5156,659.7656 183.4063,659.25 Q183.3594,658.8906 183.1719,658.7031 Q182.8438,658.3281 182.2344,658.1094 Q181.625,657.8906 181,657.8906 Q180.2344,657.8906 179.5938,658.2188 Q178.9688,658.5469 178.4688,659.2969 Q177.9844,660.0469 177.9844,661.0781 L177.9844,662.1719 Q177.9844,663.4063 178.875,664.2344 Q179.7656,665.0469 181.3594,665.0469 Q182.2969,665.0469 182.9531,664.7969 Q183.3438,664.6406 183.7656,664.2031 Q184.0313,663.9375 184.1719,663.8594 Q184.3281,663.7813 184.5313,663.7813 Q184.8594,663.7813 185.1094,664.0469 Q185.375,664.2969 185.375,664.6406 Q185.375,664.9844 185.0313,665.3906 Q184.5313,665.9688 183.7344,666.2969 Q182.6563,666.75 181.3594,666.75 Q179.8438,666.75 178.6406,666.125 Q177.6563,665.625 176.9688,664.5625 Q176.2813,663.4844 176.2813,662.2031 L176.2813,661.0469 Q176.2813,659.7188 176.8906,658.5781 Q177.5156,657.4219 178.6094,656.8125 Q179.7031,656.1875 180.9375,656.1875 Q181.6719,656.1875 182.3125,656.3594 Q182.9688,656.5156 183.5156,656.875 Z " fill="#000000"/><text fill="#000000" font-family="sans-serif" font-size="14" lengthAdjust="spacing" textLength="31" x="201.25" y="666.7969">Task</text><line style="stroke:#181818;stroke-width:0.5;" x1="8" x2="393" y1="677" y2="677"/><text fill="#000000" font-family="sans-serif" font-size="14" lengthAdjust="spacing" textLength="126" x="13" y="696.1074">-status : TaskStatus</text><text fill="#000000" font-family="sans-serif" font-size="14" lengthAdjust="spacing" textLength="139" x="13" y="714.7285">-startDate : LocalDate</text><text fill="#000000" font-family="sans-serif" font-size="14" lengthAdjust="spacing" textLength="131" x="13" y="733.3496">-endDate: LocalDate</text><text fill="#000000" font-family="sans-serif" font-size="14" lengthAdjust="spacing" textLength="166" x="13" y="751.9707">-collaborator: Collaborator</text><line style="stroke:#181818;stroke-width:0.5;" x1="8" x2="393" y1="759.4844" y2="759.4844"/><text fill="#000000" font-family="sans-serif" font-size="14" lengthAdjust="spacing" textLength="222" x="13" y="778.5918">+hasStatus(TaskStatus taskStatus)</text><text fill="#000000" font-family="sans-serif" font-size="14" lengthAdjust="spacing" textLength="375" x="13" y="797.2129">+isBetweenDates(LocalDate startDate, LocalDate endDate)</text><text fill="#000000" font-family="sans-serif" font-size="14" lengthAdjust="spacing" textLength="229" x="13" y="815.834">+isAssignedToCurrentCollaborator()</text></g><!--class TaskStatus--><g id="elem_TaskStatus"><rect codeLine="39" fill="#F1F1F1" height="141.1055" id="TaskStatus" rx="2.5" ry="2.5" style="stroke:#181818;stroke-width:0.5;" width="103" x="429" y="663.5"/><ellipse cx="444" cy="679.5" fill="#EB937F" rx="11" ry="11" style="stroke:#181818;stroke-width:1.0;"/><path d="M442.8594,680.2969 L442.8594,682.7969 L447.1875,682.7969 L447.1875,681.875 Q447.1875,681.2656 447.4219,681 Q447.6719,680.7344 448.0469,680.7344 Q448.4219,680.7344 448.6563,681 Q448.8906,681.2656 448.8906,681.875 L448.8906,684.5 L440.8906,684.5 Q440.2656,684.5 440,684.2656 Q439.75,684.0313 439.75,683.6406 Q439.75,683.2656 440.0156,683.0313 Q440.2813,682.7969 440.8906,682.7969 L441.1563,682.7969 L441.1563,676.1406 L440.8906,676.1406 Q440.2656,676.1406 440,675.9063 Q439.75,675.6719 439.75,675.2813 Q439.75,674.9063 440,674.6719 Q440.2656,674.4375 440.8906,674.4375 L448.5156,674.4375 L448.5156,677.0313 Q448.5156,677.6406 448.2813,677.9063 Q448.0625,678.1563 447.6719,678.1563 Q447.2969,678.1563 447.0625,677.9063 Q446.8281,677.6406 446.8281,677.0313 L446.8281,676.1406 L442.8594,676.1406 L442.8594,678.5938 L444.3438,678.5938 Q444.3438,677.9375 444.4688,677.75 Q444.7344,677.3438 445.2031,677.3438 Q445.5781,677.3438 445.8125,677.6094 Q446.0469,677.8594 446.0469,678.4688 L446.0469,680.4375 Q446.0469,680.9844 445.9219,681.1719 Q445.6563,681.5625 445.2031,681.5625 Q444.7344,681.5625 444.4688,681.1563 Q444.3438,680.9688 444.3438,680.2969 L442.8594,680.2969 Z " fill="#000000"/><text fill="#000000" font-family="sans-serif" font-size="14" lengthAdjust="spacing" textLength="71" x="458" y="685.2969">TaskStatus</text><line style="stroke:#181818;stroke-width:0.5;" x1="430" x2="531" y1="695.5" y2="695.5"/><text fill="#000000" font-family="sans-serif" font-size="14" lengthAdjust="spacing" textLength="63" x="435" y="714.6074">PLANNED</text><text fill="#000000" font-family="sans-serif" font-size="14" lengthAdjust="spacing" textLength="86" x="435" y="733.2285">POSTPONED</text><text fill="#000000" font-family="sans-serif" font-size="14" lengthAdjust="spacing" textLength="74" x="435" y="751.8496">CANCELED</text><text fill="#000000" font-family="sans-serif" font-size="14" lengthAdjust="spacing" textLength="39" x="435" y="770.4707">DONE</text><text fill="#000000" font-family="sans-serif" font-size="14" lengthAdjust="spacing" textLength="60" x="435" y="789.0918">PENDING</text><line style="stroke:#181818;stroke-width:0.5;" x1="430" x2="531" y1="796.6055" y2="796.6055"/></g><!--class Employee--><g id="elem_Employee"><rect codeLine="47" fill="#F1F1F1" height="48" id="Employee" rx="2.5" ry="2.5" style="stroke:#181818;stroke-width:0.5;" width="94" x="153.5" y="536"/><ellipse cx="168.5" cy="552" fill="#ADD1B2" rx="11" ry="11" style="stroke:#181818;stroke-width:1.0;"/><path d="M171.2656,547.875 Q171.4219,547.6563 171.6094,547.5469 Q171.7969,547.4375 172.0156,547.4375 Q172.3906,547.4375 172.625,547.7031 Q172.8594,547.9531 172.8594,548.5625 L172.8594,550.0156 Q172.8594,550.625 172.625,550.8906 Q172.3906,551.1563 172.0156,551.1563 Q171.6719,551.1563 171.4688,550.9531 Q171.2656,550.7656 171.1563,550.25 Q171.1094,549.8906 170.9219,549.7031 Q170.5938,549.3281 169.9844,549.1094 Q169.375,548.8906 168.75,548.8906 Q167.9844,548.8906 167.3438,549.2188 Q166.7188,549.5469 166.2188,550.2969 Q165.7344,551.0469 165.7344,552.0781 L165.7344,553.1719 Q165.7344,554.4063 166.625,555.2344 Q167.5156,556.0469 169.1094,556.0469 Q170.0469,556.0469 170.7031,555.7969 Q171.0938,555.6406 171.5156,555.2031 Q171.7813,554.9375 171.9219,554.8594 Q172.0781,554.7813 172.2813,554.7813 Q172.6094,554.7813 172.8594,555.0469 Q173.125,555.2969 173.125,555.6406 Q173.125,555.9844 172.7813,556.3906 Q172.2813,556.9688 171.4844,557.2969 Q170.4063,557.75 169.1094,557.75 Q167.5938,557.75 166.3906,557.125 Q165.4063,556.625 164.7188,555.5625 Q164.0313,554.4844 164.0313,553.2031 L164.0313,552.0469 Q164.0313,550.7188 164.6406,549.5781 Q165.2656,548.4219 166.3594,547.8125 Q167.4531,547.1875 168.6875,547.1875 Q169.4219,547.1875 170.0625,547.3594 Q170.7188,547.5156 171.2656,547.875 Z " fill="#000000"/><text fill="#000000" font-family="sans-serif" font-size="14" lengthAdjust="spacing" textLength="62" x="182.5" y="557.7969">Employee</text><line style="stroke:#181818;stroke-width:0.5;" x1="154.5" x2="246.5" y1="568" y2="568"/><line style="stroke:#181818;stroke-width:0.5;" x1="154.5" x2="246.5" y1="576" y2="576"/></g><!--link TasksAssignedToMeBetweenTwoDatesUI to TasksAssignedToMeBetweenToDatesController--><g id="link_TasksAssignedToMeBetweenTwoDatesUI_TasksAssignedToMeBetweenToDatesController"><path codeLine="50" d="M258.5,55.02 C258.5,72.39 258.5,90.46 258.5,109.83 " fill="none" id="TasksAssignedToMeBetweenTwoDatesUI-to-TasksAssignedToMeBetweenToDatesController" style="stroke:#181818;stroke-width:1.0;stroke-dasharray:7.0,7.0;"/><polygon fill="#181818" points="258.5,115.83,262.5,106.83,258.5,110.83,254.5,106.83,258.5,115.83" style="stroke:#181818;stroke-width:1.0;"/><text fill="#000000" font-family="sans-serif" font-size="13" lengthAdjust="spacing" textLength="7" x="250.6469" y="77.0105">1</text><text fill="#000000" font-family="sans-serif" font-size="13" lengthAdjust="spacing" textLength="7" x="250.8109" y="104.622">1</text></g><!--link TasksAssignedToMeBetweenToDatesController to Repositories--><g id="link_TasksAssignedToMeBetweenToDatesController_Repositories"><path codeLine="51" d="M258.5,183.38 C258.5,205.92 258.5,230.26 258.5,255.92 " fill="none" id="TasksAssignedToMeBetweenToDatesController-to-Repositories" style="stroke:#181818;stroke-width:1.0;stroke-dasharray:7.0,7.0;"/><polygon fill="#181818" points="258.5,261.92,262.5,252.92,258.5,256.92,254.5,252.92,258.5,261.92" style="stroke:#181818;stroke-width:1.0;"/><text fill="#000000" font-family="sans-serif" font-size="13" lengthAdjust="spacing" textLength="67" x="259.5" y="228.0283">repositories</text><text fill="#000000" font-family="sans-serif" font-size="13" lengthAdjust="spacing" textLength="7" x="250.8984" y="204.75">1</text><text fill="#000000" font-family="sans-serif" font-size="13" lengthAdjust="spacing" textLength="7" x="251.0297" y="250.8366">1</text></g><!--link TasksAssignedToMeBetweenToDatesController to Employee--><g id="link_TasksAssignedToMeBetweenToDatesController_Employee"><path codeLine="53" d="M226.97,183.05 C195.09,215.96 150.5,262 150.5,262 C150.5,262 150.5,366 150.5,366 C150.5,366 153.5,475 153.5,475 C153.5,475 170.5693,505.5144 184.4793,530.3644 " fill="none" id="TasksAssignedToMeBetweenToDatesController-to-Employee" style="stroke:#181818;stroke-width:1.0;stroke-dasharray:7.0,7.0;"/><polygon fill="#181818" points="187.41,535.6,186.5044,525.7929,184.9678,531.237,179.5236,529.7004,187.41,535.6" style="stroke:#181818;stroke-width:1.0;"/><text fill="#000000" font-family="sans-serif" font-size="13" lengthAdjust="spacing" textLength="7" x="213.7303" y="204.6281">1</text><text fill="#000000" font-family="sans-serif" font-size="13" lengthAdjust="spacing" textLength="5" x="178.6099" y="524.6444">*</text></g><!--link TasksAssignedToMeBetweenToDatesController to TaskStatus--><g id="link_TasksAssignedToMeBetweenToDatesController_TaskStatus"><path codeLine="54" d="M313.09,183.05 C368.29,215.96 445.5,262 445.5,262 C445.5,262 480.5,313 480.5,313 C480.5,313 480.5,313 480.5,561 C480.5,561 480.5,609.42 480.5,657.04 " fill="none" id="TasksAssignedToMeBetweenToDatesController-to-TaskStatus" style="stroke:#181818;stroke-width:1.0;stroke-dasharray:7.0,7.0;"/><polygon fill="#181818" points="480.5,663.04,484.5,654.04,480.5,658.04,476.5,654.04,480.5,663.04" style="stroke:#181818;stroke-width:1.0;"/><text fill="#000000" font-family="sans-serif" font-size="13" lengthAdjust="spacing" textLength="63" x="481.5" y="456.5283">taskStatus</text><text fill="#000000" font-family="sans-serif" font-size="13" lengthAdjust="spacing" textLength="7" x="315.1904" y="204.6281">1</text><text fill="#000000" font-family="sans-serif" font-size="13" lengthAdjust="spacing" textLength="5" x="475.2539" y="652.2556">*</text></g><!--link Repositories to Repositories--><g id="link_Repositories_Repositories"><path codeLine="55" d="M348.67,299.02 C368.81,300.4 383.5,305.39 383.5,314 C383.5,322.61 374.796,327.1898 354.656,328.5698 " fill="none" id="Repositories-to-Repositories" style="stroke:#181818;stroke-width:1.0;"/><polygon fill="#181818" points="348.67,328.98,357.9224,332.3554,353.6583,328.6382,357.3755,324.3741,348.67,328.98" style="stroke:#181818;stroke-width:1.0;"/><text fill="#000000" font-family="sans-serif" font-size="13" lengthAdjust="spacing" textLength="49" x="389.5" y="319.5283">instance</text></g><!--link Repositories to EmployeeRepository--><g id="link_Repositories_EmployeeRepository"><path codeLine="56" d="M256.23,366.04 C255.3,386.94 254.5359,404.1059 253.7959,420.7859 " fill="none" id="Repositories-to-EmployeeRepository" style="stroke:#181818;stroke-width:1.0;"/><polygon fill="#181818" points="253.53,426.78,257.925,417.9661,253.7516,421.7849,249.9328,417.6116,253.53,426.78" style="stroke:#181818;stroke-width:1.0;"/><text fill="#000000" font-family="sans-serif" font-size="13" lengthAdjust="spacing" textLength="7" x="248.4907" y="387.8524">1</text><text fill="#000000" font-family="sans-serif" font-size="13" lengthAdjust="spacing" textLength="7" x="245.9279" y="415.8683">1</text></g><!--link EmployeeRepository to Employee--><g id="link_EmployeeRepository_Employee"><path codeLine="57" d="M241.22,475.22 C232.49,493.16 223.103,512.4937 214.383,530.4337 " fill="none" id="EmployeeRepository-to-Employee" style="stroke:#181818;stroke-width:1.0;"/><polygon fill="#181818" points="211.76,535.83,219.292,529.4842,213.9458,531.3331,212.0969,525.9869,211.76,535.83" style="stroke:#181818;stroke-width:1.0;"/><text fill="#000000" font-family="sans-serif" font-size="13" lengthAdjust="spacing" textLength="7" x="230.8021" y="496.8485">1</text><text fill="#000000" font-family="sans-serif" font-size="13" lengthAdjust="spacing" textLength="5" x="208.8952" y="524.9305">*</text></g><!--link Employee to Task--><g id="link_Employee_Task"><path codeLine="58" d="M200.5,584.2 C200.5,600.15 200.5,616.45 200.5,638.93 " fill="none" id="Employee-to-Task" style="stroke:#181818;stroke-width:1.0;"/><polygon fill="#181818" points="200.5,644.93,204.5,635.93,200.5,639.93,196.5,635.93,200.5,644.93" style="stroke:#181818;stroke-width:1.0;"/><text fill="#000000" font-family="sans-serif" font-size="13" lengthAdjust="spacing" textLength="7" x="192.6906" y="605.8238">1</text><text fill="#000000" font-family="sans-serif" font-size="13" lengthAdjust="spacing" textLength="5" x="195.293" y="633.876">*</text></g><!--link Task to TaskStatus--><g id="link_Task_TaskStatus"><path codeLine="59" d="M394.18,734 C401.9,734 409.03,734 422.76,734 " fill="none" id="Task-to-TaskStatus" style="stroke:#181818;stroke-width:1.0;stroke-dasharray:7.0,7.0;"/><polygon fill="#181818" points="428.76,734,419.76,730,423.76,734,419.76,738,428.76,734" style="stroke:#181818;stroke-width:1.0;"/><text fill="#000000" font-family="sans-serif" font-size="13" lengthAdjust="spacing" textLength="7" x="401.8823" y="730.6952">1</text><text fill="#000000" font-family="sans-serif" font-size="13" lengthAdjust="spacing" textLength="7" x="413.9919" y="729.8461">1</text></g><!--SRC=[dLFDJW8n4BxtAHfEe6Bqoi445s98S3623r2NSMqexQOpXAp6TxVThjqg6j6zR6U- -Vdc3pTILyAABQz4iH4bBAbMm2qK97IfW64qm6UnDdkfI_ua5AQ8aXgehe1NHjLUIB122SGnaPMFEu9POVHIlW2_O8mr45y9tE0OKPOQrYjp2zT0Um2zsfk98C276NzbxErt-s2U6KtMA0NMkp7kljCIgF7gpqqXb3VZICAIVvtnJWbw7LJUUac2TiWfFWSDYq3Y7Yg3aeoLW2wFpp9CTVr1p3pJBfSk855DjvKoDK3qg1qOOn-YRGEw-ZzIOk0uIWX789Jdi5XVWDeY3_I5QvfuD5QuZ2EU9LBW_ImmPEZ_q9t6Ic8xZcOOHpOy-dPZpNRMWgQKHkWHwDqsdK_enDrydEVJINWlbgkxnOUKZVDiEc-5YLC7csa-cUKtXqrtyPpkY9tiNVRu-VbLypzw9Tdnovl6JpThv6wpazXV8xg09xrOxV-yk-wFaWLWdsvYEBpwGbksT_3PpeVrjlv_kFZicrk87caTSNmfwdas5KRobobvnju1]--></g></svg>