<?xml version="1.0" encoding="UTF-8" standalone="no"?><svg xmlns="http://www.w3.org/2000/svg" xmlns:xlink="http://www.w3.org/1999/xlink" contentStyleType="text/css" height="1460px" preserveAspectRatio="none" style="width:1772px;height:1460px;background:#FFFFFF;" version="1.1" viewBox="0 0 1772 1460" width="1772px" zoomAndPan="magnify"><defs/><g><!--class ApplicationSession--><g id="elem_ApplicationSession"><rect codeLine="11" fill="#F1F1F1" height="97.1094" id="ApplicationSession" rx="2.5" ry="2.5" style="stroke:#181818;stroke-width:0.5;" width="216" x="159" y="362.7188"/><ellipse cx="175" cy="379.7188" fill="#ADD1B2" rx="12" ry="12" style="stroke:#181818;stroke-width:1.0;"/><path d="M177.8066,386.7988 Q177.123,387.1504 176.3711,387.3262 Q175.6191,387.502 174.7891,387.502 Q171.8398,387.502 170.2871,385.5586 Q168.7344,383.6152 168.7344,379.9434 Q168.7344,376.2617 170.2871,374.3184 Q171.8398,372.375 174.7891,372.375 Q175.6191,372.375 176.3809,372.5508 Q177.1426,372.7266 177.8066,373.0781 L177.8066,376.2813 Q177.0645,375.5977 176.3662,375.2803 Q175.668,374.9629 174.9258,374.9629 Q173.3438,374.9629 172.5381,376.2178 Q171.7324,377.4727 171.7324,379.9434 Q171.7324,382.4043 172.5381,383.6592 Q173.3438,384.9141 174.9258,384.9141 Q175.668,384.9141 176.3662,384.5967 Q177.0645,384.2793 177.8066,383.5957 Z " fill="#000000"/><text fill="#000000" font-family="sans-serif" font-size="20" lengthAdjust="spacing" textLength="182" x="190" y="387.2773">ApplicationSession</text><line style="stroke:#181818;stroke-width:0.5;" x1="160" x2="374" y1="396.7188" y2="396.7188"/><line style="stroke:#181818;stroke-width:0.5;" x1="160" x2="374" y1="404.7188" y2="404.7188"/><text fill="#000000" font-family="sans-serif" font-size="20" lengthAdjust="spacing" textLength="196" x="165" y="428.0547">+static getInstance()</text><text fill="#000000" font-family="sans-serif" font-size="20" lengthAdjust="spacing" textLength="204" x="165" y="451.6094">+getCurrentSession()</text></g><!--class UserSession--><g id="elem_UserSession"><rect codeLine="17" fill="#F1F1F1" height="73.5547" id="UserSession" rx="2.5" ry="2.5" style="stroke:#181818;stroke-width:0.5;" width="168" x="77" y="674.2188"/><ellipse cx="101.55" cy="691.2188" fill="#ADD1B2" rx="12" ry="12" style="stroke:#181818;stroke-width:1.0;"/><path d="M104.3566,698.2988 Q103.673,698.6504 102.9211,698.8262 Q102.1691,699.002 101.3391,699.002 Q98.3898,699.002 96.8371,697.0586 Q95.2844,695.1152 95.2844,691.4434 Q95.2844,687.7617 96.8371,685.8184 Q98.3898,683.875 101.3391,683.875 Q102.1691,683.875 102.9309,684.0508 Q103.6926,684.2266 104.3566,684.5781 L104.3566,687.7813 Q103.6145,687.0977 102.9162,686.7803 Q102.218,686.4629 101.4758,686.4629 Q99.8938,686.4629 99.0881,687.7178 Q98.2824,688.9727 98.2824,691.4434 Q98.2824,693.9043 99.0881,695.1592 Q99.8938,696.4141 101.4758,696.4141 Q102.218,696.4141 102.9162,696.0967 Q103.6145,695.7793 104.3566,695.0957 Z " fill="#000000"/><text fill="#000000" font-family="sans-serif" font-size="20" lengthAdjust="spacing" textLength="115" x="118.45" y="698.7773">UserSession</text><line style="stroke:#181818;stroke-width:0.5;" x1="78" x2="244" y1="708.2188" y2="708.2188"/><line style="stroke:#181818;stroke-width:0.5;" x1="78" x2="244" y1="716.2188" y2="716.2188"/><text fill="#000000" font-family="sans-serif" font-size="20" lengthAdjust="spacing" textLength="156" x="83" y="739.5547">+getUserEmail()</text></g><!--class Employee--><g id="elem_Employee"><rect codeLine="22" fill="#F1F1F1" height="144.2188" id="Employee" rx="2.5" ry="2.5" style="stroke:#181818;stroke-width:0.5;" width="127" x="1199.5" y="1309.7188"/><ellipse cx="1215.5" cy="1326.7188" fill="#ADD1B2" rx="12" ry="12" style="stroke:#181818;stroke-width:1.0;"/><path d="M1218.3066,1333.7988 Q1217.623,1334.1504 1216.8711,1334.3262 Q1216.1191,1334.502 1215.2891,1334.502 Q1212.3398,1334.502 1210.7871,1332.5586 Q1209.2344,1330.6152 1209.2344,1326.9434 Q1209.2344,1323.2617 1210.7871,1321.3184 Q1212.3398,1319.375 1215.2891,1319.375 Q1216.1191,1319.375 1216.8809,1319.5508 Q1217.6426,1319.7266 1218.3066,1320.0781 L1218.3066,1323.2813 Q1217.5645,1322.5977 1216.8662,1322.2803 Q1216.168,1321.9629 1215.4258,1321.9629 Q1213.8438,1321.9629 1213.0381,1323.2178 Q1212.2324,1324.4727 1212.2324,1326.9434 Q1212.2324,1329.4043 1213.0381,1330.6592 Q1213.8438,1331.9141 1215.4258,1331.9141 Q1216.168,1331.9141 1216.8662,1331.5967 Q1217.5645,1331.2793 1218.3066,1330.5957 Z " fill="#000000"/><text fill="#000000" font-family="sans-serif" font-size="20" lengthAdjust="spacing" textLength="93" x="1230.5" y="1334.2773">Employee</text><line style="stroke:#181818;stroke-width:0.5;" x1="1200.5" x2="1325.5" y1="1343.7188" y2="1343.7188"/><text fill="#000000" font-family="sans-serif" font-size="20" lengthAdjust="spacing" textLength="65" x="1205.5" y="1367.0547">-name</text><text fill="#000000" font-family="sans-serif" font-size="20" lengthAdjust="spacing" textLength="65" x="1205.5" y="1390.6094">-email</text><text fill="#000000" font-family="sans-serif" font-size="20" lengthAdjust="spacing" textLength="90" x="1205.5" y="1414.1641">-position</text><text fill="#000000" font-family="sans-serif" font-size="20" lengthAdjust="spacing" textLength="72" x="1205.5" y="1437.7188">-phone</text><line style="stroke:#181818;stroke-width:0.5;" x1="1200.5" x2="1325.5" y1="1445.9375" y2="1445.9375"/></g><!--class Task--><g id="elem_Task"><rect codeLine="29" fill="#F1F1F1" height="261.9922" id="Task" rx="2.5" ry="2.5" style="stroke:#181818;stroke-width:0.5;" width="416" x="876" y="962.7188"/><ellipse cx="1056.5" cy="979.7188" fill="#ADD1B2" rx="12" ry="12" style="stroke:#181818;stroke-width:1.0;"/><path d="M1059.3066,986.7988 Q1058.623,987.1504 1057.8711,987.3262 Q1057.1191,987.502 1056.2891,987.502 Q1053.3398,987.502 1051.7871,985.5586 Q1050.2344,983.6152 1050.2344,979.9434 Q1050.2344,976.2617 1051.7871,974.3184 Q1053.3398,972.375 1056.2891,972.375 Q1057.1191,972.375 1057.8809,972.5508 Q1058.6426,972.7266 1059.3066,973.0781 L1059.3066,976.2813 Q1058.5645,975.5977 1057.8662,975.2803 Q1057.168,974.9629 1056.4258,974.9629 Q1054.8438,974.9629 1054.0381,976.2178 Q1053.2324,977.4727 1053.2324,979.9434 Q1053.2324,982.4043 1054.0381,983.6592 Q1054.8438,984.9141 1056.4258,984.9141 Q1057.168,984.9141 1057.8662,984.5967 Q1058.5645,984.2793 1059.3066,983.5957 Z " fill="#000000"/><text fill="#000000" font-family="sans-serif" font-size="20" lengthAdjust="spacing" textLength="46" x="1078.5" y="987.2773">Task</text><line style="stroke:#181818;stroke-width:0.5;" x1="877" x2="1291" y1="996.7188" y2="996.7188"/><text fill="#000000" font-family="sans-serif" font-size="20" lengthAdjust="spacing" textLength="163" x="882" y="1020.0547">-String reference</text><text fill="#000000" font-family="sans-serif" font-size="20" lengthAdjust="spacing" textLength="182" x="882" y="1043.6094">-String description</text><text fill="#000000" font-family="sans-serif" font-size="20" lengthAdjust="spacing" textLength="265" x="882" y="1067.1641">-String informalDescription</text><text fill="#000000" font-family="sans-serif" font-size="20" lengthAdjust="spacing" textLength="269" x="882" y="1090.7188">-String technicalDescription</text><text fill="#000000" font-family="sans-serif" font-size="20" lengthAdjust="spacing" textLength="166" x="882" y="1114.2734">-Integer duration</text><text fill="#000000" font-family="sans-serif" font-size="20" lengthAdjust="spacing" textLength="126" x="882" y="1137.8281">-Double cost</text><line style="stroke:#181818;stroke-width:0.5;" x1="877" x2="1291" y1="1146.0469" y2="1146.0469"/><text fill="#000000" font-family="sans-serif" font-size="20" lengthAdjust="spacing" textLength="284" x="882" y="1169.3828">+Task(reference, description,</text><text fill="#000000" font-family="sans-serif" font-size="20" lengthAdjust="spacing" textLength="404" x="882" y="1192.9375">informalDescription, technicalDescription,</text><text fill="#000000" font-family="sans-serif" font-size="20" lengthAdjust="spacing" textLength="381" x="882" y="1216.4922">duration, cost, createdBy, taskCategory)</text></g><!--class TaskCategory--><g id="elem_TaskCategory"><rect codeLine="40" fill="#F1F1F1" height="97.1094" id="TaskCategory" rx="2.5" ry="2.5" style="stroke:#181818;stroke-width:0.5;" width="281" x="506.5" y="1333.2188"/><ellipse cx="577" cy="1350.2188" fill="#ADD1B2" rx="12" ry="12" style="stroke:#181818;stroke-width:1.0;"/><path d="M579.8066,1357.2988 Q579.123,1357.6504 578.3711,1357.8262 Q577.6191,1358.002 576.7891,1358.002 Q573.8398,1358.002 572.2871,1356.0586 Q570.7344,1354.1152 570.7344,1350.4434 Q570.7344,1346.7617 572.2871,1344.8184 Q573.8398,1342.875 576.7891,1342.875 Q577.6191,1342.875 578.3809,1343.0508 Q579.1426,1343.2266 579.8066,1343.5781 L579.8066,1346.7813 Q579.0645,1346.0977 578.3662,1345.7803 Q577.668,1345.4629 576.9258,1345.4629 Q575.3438,1345.4629 574.5381,1346.7178 Q573.7324,1347.9727 573.7324,1350.4434 Q573.7324,1352.9043 574.5381,1354.1592 Q575.3438,1355.4141 576.9258,1355.4141 Q577.668,1355.4141 578.3662,1355.0967 Q579.0645,1354.7793 579.8066,1354.0957 Z " fill="#000000"/><text fill="#000000" font-family="sans-serif" font-size="20" lengthAdjust="spacing" textLength="131" x="599" y="1357.7773">TaskCategory</text><line style="stroke:#181818;stroke-width:0.5;" x1="507.5" x2="786.5" y1="1367.2188" y2="1367.2188"/><text fill="#000000" font-family="sans-serif" font-size="20" lengthAdjust="spacing" textLength="182" x="512.5" y="1390.5547">-String description</text><line style="stroke:#181818;stroke-width:0.5;" x1="507.5" x2="786.5" y1="1398.7734" y2="1398.7734"/><text fill="#000000" font-family="sans-serif" font-size="20" lengthAdjust="spacing" textLength="269" x="512.5" y="1422.1094">+TaskCategory(description)</text></g><!--class Organization--><g id="elem_Organization"><rect codeLine="46" fill="#F1F1F1" height="332.6563" id="Organization" rx="2.5" ry="2.5" style="stroke:#181818;stroke-width:0.5;" width="806" x="959" y="544.7188"/><ellipse cx="1295.5" cy="561.7188" fill="#ADD1B2" rx="12" ry="12" style="stroke:#181818;stroke-width:1.0;"/><path d="M1298.3066,568.7988 Q1297.623,569.1504 1296.8711,569.3262 Q1296.1191,569.502 1295.2891,569.502 Q1292.3398,569.502 1290.7871,567.5586 Q1289.2344,565.6152 1289.2344,561.9434 Q1289.2344,558.2617 1290.7871,556.3184 Q1292.3398,554.375 1295.2891,554.375 Q1296.1191,554.375 1296.8809,554.5508 Q1297.6426,554.7266 1298.3066,555.0781 L1298.3066,558.2813 Q1297.5645,557.5977 1296.8662,557.2803 Q1296.168,556.9629 1295.4258,556.9629 Q1293.8438,556.9629 1293.0381,558.2178 Q1292.2324,559.4727 1292.2324,561.9434 Q1292.2324,564.4043 1293.0381,565.6592 Q1293.8438,566.9141 1295.4258,566.9141 Q1296.168,566.9141 1296.8662,566.5967 Q1297.5645,566.2793 1298.3066,565.5957 Z " fill="#000000"/><text fill="#000000" font-family="sans-serif" font-size="20" lengthAdjust="spacing" textLength="124" x="1317.5" y="569.2773">Organization</text><line style="stroke:#181818;stroke-width:0.5;" x1="960" x2="1764" y1="578.7188" y2="578.7188"/><text fill="#000000" font-family="sans-serif" font-size="20" lengthAdjust="spacing" textLength="127" x="965" y="602.0547">-String name</text><text fill="#000000" font-family="sans-serif" font-size="20" lengthAdjust="spacing" textLength="180" x="965" y="625.6094">-String vatNumber</text><text fill="#000000" font-family="sans-serif" font-size="20" lengthAdjust="spacing" textLength="147" x="965" y="649.1641">-String website</text><text fill="#000000" font-family="sans-serif" font-size="20" lengthAdjust="spacing" textLength="134" x="965" y="672.7188">-String phone</text><text fill="#000000" font-family="sans-serif" font-size="20" lengthAdjust="spacing" textLength="127" x="965" y="696.2734">-String email</text><line style="stroke:#181818;stroke-width:0.5;" x1="960" x2="1764" y1="704.4922" y2="704.4922"/><text fill="#000000" font-family="sans-serif" font-size="20" lengthAdjust="spacing" textLength="149" x="965" y="727.8281">-addTask(task)</text><text fill="#000000" font-family="sans-serif" font-size="20" lengthAdjust="spacing" textLength="187" x="965" y="751.3828">-validateTask(task)</text><text fill="#000000" font-family="sans-serif" font-size="20" lengthAdjust="spacing" textLength="298" x="965" y="774.9375">+anyEmployeeHasEmail(email)</text><text fill="#000000" font-family="sans-serif" font-size="20" lengthAdjust="spacing" textLength="794" x="965" y="798.4922">+Organization(name, vatNumber, webSite, phone, email, postalAddress, manager)</text><text fill="#000000" font-family="sans-serif" font-size="20" lengthAdjust="spacing" textLength="555" x="965" y="822.0469">+createTask(reference, description, informalDesccription,</text><text fill="#000000" font-family="sans-serif" font-size="20" lengthAdjust="spacing" textLength="593" x="965" y="845.6016">technicalDescription, duration, cost, taskCategoryDescription)</text><text fill="#000000" font-family="sans-serif" font-size="20" lengthAdjust="spacing" textLength="277" x="965" y="869.1563">-getEmployeeByEmail(email)</text></g><!--class TaskCategoryRepository--><g id="elem_TaskCategoryRepository"><rect codeLine="63" fill="#F1F1F1" height="73.5547" id="TaskCategoryRepository" rx="2.5" ry="2.5" style="stroke:#181818;stroke-width:0.5;" width="443" x="590.5" y="374.2188"/><ellipse cx="691" cy="391.2188" fill="#ADD1B2" rx="12" ry="12" style="stroke:#181818;stroke-width:1.0;"/><path d="M693.8066,398.2988 Q693.123,398.6504 692.3711,398.8262 Q691.6191,399.002 690.7891,399.002 Q687.8398,399.002 686.2871,397.0586 Q684.7344,395.1152 684.7344,391.4434 Q684.7344,387.7617 686.2871,385.8184 Q687.8398,383.875 690.7891,383.875 Q691.6191,383.875 692.3809,384.0508 Q693.1426,384.2266 693.8066,384.5781 L693.8066,387.7813 Q693.0645,387.0977 692.3662,386.7803 Q691.668,386.4629 690.9258,386.4629 Q689.3438,386.4629 688.5381,387.7178 Q687.7324,388.9727 687.7324,391.4434 Q687.7324,393.9043 688.5381,395.1592 Q689.3438,396.4141 690.9258,396.4141 Q691.668,396.4141 692.3662,396.0967 Q693.0645,395.7793 693.8066,395.0957 Z " fill="#000000"/><text fill="#000000" font-family="sans-serif" font-size="20" lengthAdjust="spacing" textLength="233" x="713" y="398.7773">TaskCategoryRepository</text><line style="stroke:#181818;stroke-width:0.5;" x1="591.5" x2="1032.5" y1="408.2188" y2="408.2188"/><line style="stroke:#181818;stroke-width:0.5;" x1="591.5" x2="1032.5" y1="416.2188" y2="416.2188"/><text fill="#000000" font-family="sans-serif" font-size="20" lengthAdjust="spacing" textLength="431" x="596.5" y="439.5547">+getTaskCategoryByDescription(description)</text></g><!--class OrganizationRepository--><g id="elem_OrganizationRepository"><rect codeLine="67" fill="#F1F1F1" height="73.5547" id="OrganizationRepository" rx="2.5" ry="2.5" style="stroke:#181818;stroke-width:0.5;" width="417" x="1261.5" y="374.2188"/><ellipse cx="1352.5" cy="391.2188" fill="#ADD1B2" rx="12" ry="12" style="stroke:#181818;stroke-width:1.0;"/><path d="M1355.3066,398.2988 Q1354.623,398.6504 1353.8711,398.8262 Q1353.1191,399.002 1352.2891,399.002 Q1349.3398,399.002 1347.7871,397.0586 Q1346.2344,395.1152 1346.2344,391.4434 Q1346.2344,387.7617 1347.7871,385.8184 Q1349.3398,383.875 1352.2891,383.875 Q1353.1191,383.875 1353.8809,384.0508 Q1354.6426,384.2266 1355.3066,384.5781 L1355.3066,387.7813 Q1354.5645,387.0977 1353.8662,386.7803 Q1353.168,386.4629 1352.4258,386.4629 Q1350.8438,386.4629 1350.0381,387.7178 Q1349.2324,388.9727 1349.2324,391.4434 Q1349.2324,393.9043 1350.0381,395.1592 Q1350.8438,396.4141 1352.4258,396.4141 Q1353.168,396.4141 1353.8662,396.0967 Q1354.5645,395.7793 1355.3066,395.0957 Z " fill="#000000"/><text fill="#000000" font-family="sans-serif" font-size="20" lengthAdjust="spacing" textLength="226" x="1374.5" y="398.7773">OrganizationRepository</text><line style="stroke:#181818;stroke-width:0.5;" x1="1262.5" x2="1677.5" y1="408.2188" y2="408.2188"/><line style="stroke:#181818;stroke-width:0.5;" x1="1262.5" x2="1677.5" y1="416.2188" y2="416.2188"/><text fill="#000000" font-family="sans-serif" font-size="20" lengthAdjust="spacing" textLength="405" x="1267.5" y="439.5547">+getOrganizationByEmployeeEmail(email)</text></g><!--class Repositories--><g id="elem_Repositories"><rect codeLine="71" fill="#F1F1F1" height="144.2188" id="Repositories" rx="2.5" ry="2.5" style="stroke:#181818;stroke-width:0.5;" width="305" x="1294.5" y="98.2188"/><ellipse cx="1383" cy="115.2188" fill="#ADD1B2" rx="12" ry="12" style="stroke:#181818;stroke-width:1.0;"/><path d="M1385.8066,122.2988 Q1385.123,122.6504 1384.3711,122.8262 Q1383.6191,123.002 1382.7891,123.002 Q1379.8398,123.002 1378.2871,121.0586 Q1376.7344,119.1152 1376.7344,115.4434 Q1376.7344,111.7617 1378.2871,109.8184 Q1379.8398,107.875 1382.7891,107.875 Q1383.6191,107.875 1384.3809,108.0508 Q1385.1426,108.2266 1385.8066,108.5781 L1385.8066,111.7813 Q1385.0645,111.0977 1384.3662,110.7803 Q1383.668,110.4629 1382.9258,110.4629 Q1381.3438,110.4629 1380.5381,111.7178 Q1379.7324,112.9727 1379.7324,115.4434 Q1379.7324,117.9043 1380.5381,119.1592 Q1381.3438,120.4141 1382.9258,120.4141 Q1383.668,120.4141 1384.3662,120.0967 Q1385.0645,119.7793 1385.8066,119.0957 Z " fill="#000000"/><text fill="#000000" font-family="sans-serif" font-size="20" lengthAdjust="spacing" textLength="119" x="1405" y="122.7773">Repositories</text><line style="stroke:#181818;stroke-width:0.5;" x1="1295.5" x2="1598.5" y1="132.2188" y2="132.2188"/><line style="stroke:#181818;stroke-width:0.5;" x1="1295.5" x2="1598.5" y1="140.2188" y2="140.2188"/><text fill="#000000" font-family="sans-serif" font-size="20" lengthAdjust="spacing" textLength="145" x="1300.5" y="163.5547">-Repositories()</text><text fill="#000000" font-family="sans-serif" font-size="20" lengthAdjust="spacing" textLength="276" x="1300.5" y="187.1094">+getInstance() : Repositories</text><text fill="#000000" font-family="sans-serif" font-size="20" lengthAdjust="spacing" textLength="293" x="1300.5" y="210.6641">+getTaskCategoryRepository()</text><text fill="#000000" font-family="sans-serif" font-size="20" lengthAdjust="spacing" textLength="286" x="1300.5" y="234.2188">+getOrganizationRepository()</text></g><!--class CreateTaskController--><g id="elem_CreateTaskController"><rect codeLine="78" fill="#F1F1F1" height="214.8828" id="CreateTaskController" rx="2.5" ry="2.5" style="stroke:#181818;stroke-width:0.5;" width="707" x="204.5" y="62.7188"/><ellipse cx="451.5" cy="79.7188" fill="#ADD1B2" rx="12" ry="12" style="stroke:#181818;stroke-width:1.0;"/><path d="M454.3066,86.7988 Q453.623,87.1504 452.8711,87.3262 Q452.1191,87.502 451.2891,87.502 Q448.3398,87.502 446.7871,85.5586 Q445.2344,83.6152 445.2344,79.9434 Q445.2344,76.2617 446.7871,74.3184 Q448.3398,72.375 451.2891,72.375 Q452.1191,72.375 452.8809,72.5508 Q453.6426,72.7266 454.3066,73.0781 L454.3066,76.2813 Q453.5645,75.5977 452.8662,75.2803 Q452.168,74.9629 451.4258,74.9629 Q449.8438,74.9629 449.0381,76.2178 Q448.2324,77.4727 448.2324,79.9434 Q448.2324,82.4043 449.0381,83.6592 Q449.8438,84.9141 451.4258,84.9141 Q452.168,84.9141 452.8662,84.5967 Q453.5645,84.2793 454.3066,83.5957 Z " fill="#000000"/><text fill="#000000" font-family="sans-serif" font-size="20" lengthAdjust="spacing" textLength="204" x="473.5" y="87.2773">CreateTaskController</text><line style="stroke:#181818;stroke-width:0.5;" x1="205.5" x2="910.5" y1="96.7188" y2="96.7188"/><line style="stroke:#181818;stroke-width:0.5;" x1="205.5" x2="910.5" y1="104.7188" y2="104.7188"/><text fill="#000000" font-family="sans-serif" font-size="20" lengthAdjust="spacing" textLength="695" x="210.5" y="128.0547">+CreateTaskController(organizationRepository, taskCategoryRepository)</text><text fill="#000000" font-family="sans-serif" font-size="20" lengthAdjust="spacing" textLength="208" x="210.5" y="151.6094">+getTaskCategories()</text><text fill="#000000" font-family="sans-serif" font-size="20" lengthAdjust="spacing" textLength="448" x="210.5" y="175.1641">+createTask(userEmail, reference, description,</text><text fill="#000000" font-family="sans-serif" font-size="20" lengthAdjust="spacing" textLength="404" x="210.5" y="198.7188">informalDescription, technicalDescription,</text><text fill="#000000" font-family="sans-serif" font-size="20" lengthAdjust="spacing" textLength="342" x="210.5" y="222.2734">duration, cost, categoryDescription)</text><text fill="#000000" font-family="sans-serif" font-size="20" lengthAdjust="spacing" textLength="554" x="210.5" y="245.8281">-getTaskCategoryByDescription(taskCategoryDescription)</text><text fill="#000000" font-family="sans-serif" font-size="20" lengthAdjust="spacing" textLength="271" x="210.5" y="269.3828">-getEmployeeFromSession()</text></g><g id="elem_GMN12"><path d="M946.5,118.2188 L946.5,222.4375 L1259.5,222.4375 L1259.5,128.2188 L1249.5,118.2188 L946.5,118.2188 " fill="#FEFFDD" style="stroke:#181818;stroke-width:0.5;"/><path d="M1249.5,118.2188 L1249.5,128.2188 L1259.5,128.2188 L1249.5,118.2188 " fill="#FEFFDD" style="stroke:#181818;stroke-width:1.0;"/><text fill="#000000" font-family="sans-serif" font-size="20" lengthAdjust="spacing" textLength="225" x="952.5" y="142.5547">- userEmail is obtained</text><text fill="#000000" font-family="sans-serif" font-size="20" lengthAdjust="spacing" textLength="206" x="952.5" y="166.1094">from the user session</text><text fill="#000000" font-family="sans-serif" font-size="20" lengthAdjust="spacing" textLength="209" x="952.5" y="189.6641">- categoryDescription</text><text fill="#000000" font-family="sans-serif" font-size="20" lengthAdjust="spacing" textLength="292" x="952.5" y="213.2188">is retrieved from selected data</text></g><g id="elem_GMN15"><path d="M700.5,682.7188 L700.5,739.8281 A0,0 0 0 0 700.5,739.8281 L923.5,739.8281 A0,0 0 0 0 923.5,739.8281 L923.5,692.7188 L913.5,682.7188 L816,682.7188 L812,448.4588 L808,682.7188 L700.5,682.7188 A0,0 0 0 0 700.5,682.7188 " fill="#FEFFDD" style="stroke:#181818;stroke-width:0.5;"/><path d="M913.5,682.7188 L913.5,692.7188 L923.5,692.7188 L913.5,682.7188 " fill="#FEFFDD" style="stroke:#181818;stroke-width:0.5;"/><text fill="#000000" font-family="sans-serif" font-size="20" lengthAdjust="spacing" textLength="202" x="706.5" y="707.0547">- used for displaying</text><text fill="#000000" font-family="sans-serif" font-size="20" lengthAdjust="spacing" textLength="152" x="706.5" y="730.6094">the category list</text></g><!--class CreateTaskUI--><g id="elem_CreateTaskUI"><rect codeLine="98" fill="#F1F1F1" height="50" id="CreateTaskUI" rx="2.5" ry="2.5" style="stroke:#181818;stroke-width:0.5;" width="162" x="7" y="145.2188"/><ellipse cx="23" cy="162.2188" fill="#ADD1B2" rx="12" ry="12" style="stroke:#181818;stroke-width:1.0;"/><path d="M25.8066,169.2988 Q25.123,169.6504 24.3711,169.8262 Q23.6191,170.002 22.7891,170.002 Q19.8398,170.002 18.2871,168.0586 Q16.7344,166.1152 16.7344,162.4434 Q16.7344,158.7617 18.2871,156.8184 Q19.8398,154.875 22.7891,154.875 Q23.6191,154.875 24.3809,155.0508 Q25.1426,155.2266 25.8066,155.5781 L25.8066,158.7813 Q25.0645,158.0977 24.3662,157.7803 Q23.668,157.4629 22.9258,157.4629 Q21.3438,157.4629 20.5381,158.7178 Q19.7324,159.9727 19.7324,162.4434 Q19.7324,164.9043 20.5381,166.1592 Q21.3438,167.4141 22.9258,167.4141 Q23.668,167.4141 24.3662,167.0967 Q25.0645,166.7793 25.8066,166.0957 Z " fill="#000000"/><text fill="#000000" font-family="sans-serif" font-size="20" lengthAdjust="spacing" textLength="128" x="38" y="169.7773">CreateTaskUI</text><line style="stroke:#181818;stroke-width:0.5;" x1="8" x2="168" y1="179.2188" y2="179.2188"/><line style="stroke:#181818;stroke-width:0.5;" x1="8" x2="168" y1="187.2188" y2="187.2188"/></g><!--link CreateTaskController to GMN12--><g id="link_CreateTaskController_GMN12"><path d="M911.57,170.2188 C917.74,170.2188 921.33,170.2188 921.33,170.2188 C921.33,170.2188 931.15,170.2188 946.21,170.2188 " fill="none" id="CreateTaskController-GMN12" style="stroke:#181818;stroke-width:1.0;stroke-dasharray:7.0,7.0;"/></g><!--link Repositories to Repositories--><g id="link_Repositories_Repositories"><path codeLine="101" d="M1599.66,145.1988 C1620.56,149.3488 1634.5,157.6988 1634.5,170.2188 C1634.5,181.6688 1622.85,189.6188 1604.89,194.0787 " fill="none" id="Repositories-to-Repositories" style="stroke:#181818;stroke-width:1.0;"/><polygon fill="#181818" points="1599.66,195.2387,1609.3134,197.1911,1604.5409,194.1541,1607.578,189.3816,1599.66,195.2387" style="stroke:#181818;stroke-width:1.0;"/><text fill="#000000" font-family="sans-serif" font-size="20" lengthAdjust="spacing" textLength="79" x="1640.5" y="178.0547">instance</text></g><!--link ApplicationSession to ApplicationSession--><g id="link_ApplicationSession_ApplicationSession"><path codeLine="102" d="M375.19,395.1788 C395.6,397.1288 410,402.4688 410,411.2188 C410,419.2088 397.97,424.3688 380.31,426.6788 " fill="none" id="ApplicationSession-to-ApplicationSession" style="stroke:#181818;stroke-width:1.0;"/><polygon fill="#181818" points="375.19,427.2587,384.5879,430.2049,380.1573,426.6878,383.6744,422.2572,375.19,427.2587" style="stroke:#181818;stroke-width:1.0;"/><text fill="#000000" font-family="sans-serif" font-size="20" lengthAdjust="spacing" textLength="79" x="416" y="419.0547">instance</text></g><!--link CreateTaskUI to CreateTaskController--><g id="link_CreateTaskUI_CreateTaskController"><path codeLine="104" d="M169.09,170.2188 C179.42,170.2188 189.69,170.2188 199.17,170.2188 " fill="none" id="CreateTaskUI-to-CreateTaskController" style="stroke:#181818;stroke-width:1.0;stroke-dasharray:7.0,7.0;"/><polygon fill="#181818" points="204.35,170.2188,195.35,166.2188,199.35,170.2188,195.35,174.2188,204.35,170.2188" style="stroke:#181818;stroke-width:1.0;"/></g><!--link CreateTaskController to Repositories--><g id="link_CreateTaskController_Repositories"><path codeLine="106" d="M911.6,67.7587 C922.65,64.5587 929,62.7188 929,62.7188 C929,62.7188 1045,32.7188 1045,32.7188 C1045,32.7188 1161,32.7188 1161,32.7188 C1161,32.7188 1277,62.7188 1277,62.7188 C1277,62.7188 1299.86,77.1788 1328.82,95.4887 " fill="none" id="CreateTaskController-to-Repositories" style="stroke:#181818;stroke-width:1.0;stroke-dasharray:7.0,7.0;"/><polygon fill="#181818" points="1333.14,98.2188,1327.6801,90.0218,1328.917,95.5418,1323.397,96.7786,1333.14,98.2188" style="stroke:#181818;stroke-width:1.0;"/><text fill="#000000" font-family="sans-serif" font-size="20" lengthAdjust="spacing" textLength="114" x="1046" y="28.0547">repositories</text></g><!--link Repositories to TaskCategoryRepository--><g id="link_Repositories_TaskCategoryRepository"><path codeLine="108" d="M1427.13,242.5287 C1415.08,285.7887 1402,332.7188 1402,332.7188 C1402,332.7188 1061,362.7188 1061,362.7188 C1061,362.7188 1037.98,367.1088 1005.94,373.2188 " fill="none" id="Repositories-to-TaskCategoryRepository" style="stroke:#181818;stroke-width:1.0;"/><polygon fill="#181818" points="1000.72,374.2188,1010.3062,376.4782,1005.6331,373.2904,1008.8208,368.6173,1000.72,374.2188" style="stroke:#181818;stroke-width:1.0;"/><text fill="#000000" font-family="sans-serif" font-size="20" lengthAdjust="spacing" textLength="13" x="1020.1779" y="362.0047">1</text></g><!--link CreateTaskController to TaskCategory--><g id="link_CreateTaskController_TaskCategory"><path codeLine="110" d="M548.64,277.7887 C543.04,341.5187 537,410.2188 537,410.2188 C537,410.2188 537,410.2188 537,1094.7188 C537,1094.7188 595.1,1245.7688 626.85,1328.3188 " fill="none" id="CreateTaskController-to-TaskCategory" style="stroke:#181818;stroke-width:1.0;stroke-dasharray:7.0,7.0;"/><polygon fill="#181818" points="628.71,1333.1688,629.2327,1323.3338,626.9247,1328.4984,621.7601,1326.1903,628.71,1333.1688" style="stroke:#181818;stroke-width:1.0;"/></g><!--link CreateTaskController to OrganizationRepository--><g id="link_CreateTaskController_OrganizationRepository"><path codeLine="111" d="M911.6,272.7288 C922.65,275.8988 929,277.7188 929,277.7188 C929,277.7188 1130,307.7188 1130,307.7188 C1130,307.7188 1248.22,343.3588 1345.23,372.6088 " fill="none" id="CreateTaskController-to-OrganizationRepository" style="stroke:#181818;stroke-width:1.0;stroke-dasharray:7.0,7.0;"/><polygon fill="#181818" points="1350.13,374.0787,1342.6677,367.6511,1345.3428,372.6355,1340.3585,375.3106,1350.13,374.0787" style="stroke:#181818;stroke-width:1.0;"/><text fill="#000000" font-family="sans-serif" font-size="20" lengthAdjust="spacing" textLength="222" x="1214" y="328.0547">organizationRepository</text></g><!--link CreateTaskController to TaskCategoryRepository--><g id="link_CreateTaskController_TaskCategoryRepository"><path codeLine="112" d="M671.26,277.7887 C706.31,310.7687 742.78,345.0787 769.81,370.5187 " fill="none" id="CreateTaskController-to-TaskCategoryRepository" style="stroke:#181818;stroke-width:1.0;stroke-dasharray:7.0,7.0;"/><polygon fill="#181818" points="773.72,374.1988,769.9077,365.1177,770.079,370.7719,764.4247,370.9433,773.72,374.1988" style="stroke:#181818;stroke-width:1.0;"/><text fill="#000000" font-family="sans-serif" font-size="20" lengthAdjust="spacing" textLength="233" x="724" y="328.0547">TaskCategoryRepository</text></g><!--link Repositories to OrganizationRepository--><g id="link_Repositories_OrganizationRepository"><path codeLine="114" d="M1453.84,242.2787 C1457.81,283.5887 1462.68,334.1988 1466.03,368.9988 " fill="none" id="Repositories-to-OrganizationRepository" style="stroke:#181818;stroke-width:1.0;"/><polygon fill="#181818" points="1466.52,374.0187,1469.6285,364.6733,1466.0352,369.0423,1461.6662,365.449,1466.52,374.0187" style="stroke:#181818;stroke-width:1.0;"/><text fill="#000000" font-family="sans-serif" font-size="20" lengthAdjust="spacing" textLength="13" x="1451.8047" y="362.0703">1</text></g><!--link OrganizationRepository to Organization--><g id="link_OrganizationRepository_Organization"><path codeLine="116" d="M1456.87,448.4588 C1448.27,472.1888 1436.34,505.1088 1423.83,539.5988 " fill="none" id="OrganizationRepository-to-Organization" style="stroke:#181818;stroke-width:1.0;"/><polygon fill="#181818" points="1421.99,544.6988,1428.8127,537.5959,1423.6907,539.9969,1421.2897,534.8748,1421.99,544.6988" style="stroke:#181818;stroke-width:1.0;"/><text fill="#000000" font-family="sans-serif" font-size="20" lengthAdjust="spacing" textLength="10" x="1414.6536" y="532.4336">*</text></g><!--link ApplicationSession to UserSession--><g id="link_ApplicationSession_UserSession"><path codeLine="117" d="M250.09,459.7687 C229.49,517.6688 195.05,614.4988 175.57,669.2488 " fill="none" id="ApplicationSession-to-UserSession" style="stroke:#181818;stroke-width:1.0;"/><polygon fill="#181818" points="173.85,674.0888,180.6275,666.9428,175.5208,669.3762,173.0874,664.2695,173.85,674.0888" style="stroke:#181818;stroke-width:1.0;"/><text fill="#000000" font-family="sans-serif" font-size="20" lengthAdjust="spacing" textLength="113" x="240" y="510.0547">userSession</text><text fill="#000000" font-family="sans-serif" font-size="20" lengthAdjust="spacing" textLength="13" x="161.9811" y="661.8515">1</text></g><!--link CreateTaskController to Organization--><g id="link_CreateTaskController_Organization"><path codeLine="119" d="M876.46,277.7587 C928.61,295.2088 966,307.7188 966,307.7188 C966,307.7188 1051,362.7188 1051,362.7188 C1051,362.7188 1122,459.7188 1122,459.7188 C1122,459.7188 1156.65,495.8787 1199.61,540.7288 " fill="none" id="CreateTaskController-to-Organization" style="stroke:#181818;stroke-width:1.0;stroke-dasharray:7.0,7.0;"/><polygon fill="#181818" points="1203.25,544.5288,1199.9196,535.2601,1199.7939,540.9155,1194.1384,540.7899,1203.25,544.5288" style="stroke:#181818;stroke-width:1.0;"/><text fill="#000000" font-family="sans-serif" font-size="20" lengthAdjust="spacing" textLength="120" x="1123" y="419.0547">organization</text><text fill="#000000" font-family="sans-serif" font-size="20" lengthAdjust="spacing" textLength="13" x="1182.2457" y="532.2554">1</text></g><!--link CreateTaskController to ApplicationSession--><g id="link_CreateTaskController_ApplicationSession"><path codeLine="120" d="M428.24,277.7887 C393.72,306.1388 358,335.4788 328.99,359.3087 " fill="none" id="CreateTaskController-to-ApplicationSession" style="stroke:#181818;stroke-width:1.0;stroke-dasharray:7.0,7.0;"/><polygon fill="#181818" points="325.12,362.4888,334.617,359.8797,328.9879,359.3202,329.5474,353.6911,325.12,362.4888" style="stroke:#181818;stroke-width:1.0;"/></g><!--link CreateTaskController to UserSession--><g id="link_CreateTaskController_UserSession"><path codeLine="121" d="M326.03,277.7488 C230.16,321.7687 141,362.7188 141,362.7188 C141,362.7188 141,459.7188 141,459.7188 C141,459.7188 152.04,597.9788 157.71,669.0588 " fill="none" id="CreateTaskController-to-UserSession" style="stroke:#181818;stroke-width:1.0;stroke-dasharray:7.0,7.0;"/><polygon fill="#181818" points="158.11,674.0588,161.3774,664.7677,157.7101,669.0748,153.4031,665.4075,158.11,674.0588" style="stroke:#181818;stroke-width:1.0;"/></g><!--link Task to TaskCategory--><g id="link_Task_TaskCategory"><path codeLine="122" d="M885.32,1224.7488 C828.09,1262.1988 769.04,1300.8488 724.03,1330.3088 " fill="none" id="Task-to-TaskCategory" style="stroke:#181818;stroke-width:1.0;"/><polygon fill="#181818" points="719.72,1333.1288,729.4376,1331.5263,723.8978,1330.3817,725.0424,1324.8419,719.72,1333.1288" style="stroke:#181818;stroke-width:1.0;"/><text fill="#000000" font-family="sans-serif" font-size="20" lengthAdjust="spacing" textLength="125" x="841" y="1275.0547">taskCategory</text><text fill="#000000" font-family="sans-serif" font-size="20" lengthAdjust="spacing" textLength="10" x="864.1813" y="1251.8947">*</text><text fill="#000000" font-family="sans-serif" font-size="20" lengthAdjust="spacing" textLength="13" x="716.0322" y="1321.0458">1</text></g><!--link TaskCategoryRepository to TaskCategory--><g id="link_TaskCategoryRepository_TaskCategory"><path codeLine="123" d="M776.75,448.4288 C738.56,487.6588 683,544.7188 683,544.7188 C683,544.7188 657.17,1144.5388 649.27,1328.0288 " fill="none" id="TaskCategoryRepository-to-TaskCategory" style="stroke:#181818;stroke-width:1.0;"/><polygon fill="#181818" points="649.05,1333.0688,653.4317,1324.2483,649.2641,1328.0733,645.439,1323.9057,649.05,1333.0688" style="stroke:#181818;stroke-width:1.0;"/><text fill="#000000" font-family="sans-serif" font-size="20" lengthAdjust="spacing" textLength="125" x="669" y="928.0547">taskCategory</text><text fill="#000000" font-family="sans-serif" font-size="20" lengthAdjust="spacing" textLength="13" x="757.618" y="474.9924">1</text><text fill="#000000" font-family="sans-serif" font-size="20" lengthAdjust="spacing" textLength="10" x="638.6352" y="1320.9774">*</text></g><!--link Organization to Task--><g id="link_Organization_Task"><path codeLine="124" d="M1241.08,877.7288 C1221.41,904.6488 1201.25,932.2388 1182.21,958.2987 " fill="none" id="Organization-to-Task" style="stroke:#181818;stroke-width:1.0;"/><polygon fill="#181818" points="1179.17,962.4588,1187.7119,957.5561,1182.1219,958.4231,1181.2548,952.8331,1179.17,962.4588" style="stroke:#181818;stroke-width:1.0;"/><text fill="#000000" font-family="sans-serif" font-size="20" lengthAdjust="spacing" textLength="50" x="1216" y="928.0547">tasks</text><text fill="#000000" font-family="sans-serif" font-size="20" lengthAdjust="spacing" textLength="13" x="1222.7045" y="904.5934">1</text><text fill="#000000" font-family="sans-serif" font-size="20" lengthAdjust="spacing" textLength="10" x="1174.383" y="950.5576">*</text></g><!--link Task to Employee--><g id="link_Task_Employee"><path codeLine="125" d="M1165.38,1224.7488 C1182.67,1252.3688 1200.36,1280.6388 1215.85,1305.3888 " fill="none" id="Task-to-Employee" style="stroke:#181818;stroke-width:1.0;"/><polygon fill="#181818" points="1218.52,1309.6488,1217.1332,1299.898,1215.8662,1305.4112,1210.353,1304.1442,1218.52,1309.6488" style="stroke:#181818;stroke-width:1.0;"/><text fill="#000000" font-family="sans-serif" font-size="20" lengthAdjust="spacing" textLength="93" x="1196" y="1275.0547">createdBy</text></g><!--link Organization to Employee--><g id="link_Organization_Employee"><path codeLine="127" d="M1345.19,877.9088 C1330,1027.6388 1310,1224.7188 1310,1224.7188 C1310,1224.7188 1298,1279.7188 1298,1279.7188 C1298,1279.7188 1294.35,1290.2488 1289.41,1304.5088 " fill="none" id="Organization-to-Employee" style="stroke:#181818;stroke-width:1.0;"/><polygon fill="#181818" points="1287.69,1309.4788,1294.4221,1302.29,1289.3309,1304.7557,1286.8652,1299.6645,1287.69,1309.4788" style="stroke:#181818;stroke-width:1.0;"/><text fill="#000000" font-family="sans-serif" font-size="20" lengthAdjust="spacing" textLength="81" x="1337" y="1101.5547">employs</text><text fill="#000000" font-family="sans-serif" font-size="20" lengthAdjust="spacing" textLength="10" x="1279.6282" y="1297.5881">*</text></g><!--SRC=[jLPBRzGm4BxxLrXSkeKK5OuzLEe3H2yWiVJ6nPlCxbfrxCXsMgM8_yxOUOrJf-g57ghiF3v_y_2CtOFKZR2YLgPyW8fNi1Ujyb-Dzblv3FppEJjnemslZJRbqPeQkBSji5dJYF91763hEmNSGkc5FYXgu8wYCazI7_XUA4SrIchmNGEyCQeBF-Y9az9ORnZnAfLmxifxAtUjXxlIwCZtdB4J1NlFlU5M7ewULpBGaKOp5dtuLTCeMOeWse9pGVE7SVpxm9r7SSaFuEyqVkiIDgU32cKthRM0UUcTKFDtXBntO9TOw134NseX5RNzKZVAT02yDppZMjGmV48m7huRusIaFVmy6ipCXF9Bk8S9OOjPmCHQs0CIB24LL-1AAnk2DIYatXjR2tMxPk2XF6fCLSRYJdiuWELLQmKHtvfsXmrG6kVPa8V0T3DHAoYTuhVES2YovwBjU5OHyV6_1U6XkkxG0m-vmHy7OxlJD4kZU9ajcXP2TJJV43r1_64FGildo6E9I0evI1w5_zxMEx2f-0bsMDk5RL_WHDItmo0JLHLJ6K8z7MIFGiaA2IyK7xZGtTXdtuJhUp2YZGOqZaqWNinaYq1mYmIBdbJH4ob2ItgXhghAOgyNl1OQhxmT8Vjol5RkfED8ORFrvijoqnhVqkBqkS3xDePytIKHinEavyGZJLEsHNv2l7HpiyHRJ2skwSblQ94y8hMudWgLS9xG9WG9RceuAgGJQfvQ_28noaSpiwCWUVvqXDrCbRx1FM6DKZW9nlXooet9OgOrdUMdMReqLj9hxJXa2_v_fiohBRVU76zlrw-uK9Ebees7ONkPVJQX0yWKEvUEcvqNk2shgDiZ9lT7Y2RS3Rkfzyf453M8OG4d3ppYGo02E52uEyEpG7Z1G5SyK1i8xeptQ8CCypqrSqGqWwj2kaQ93WTRr0Ho8nDSyxWmPlnbcztVONjXOfBBS7QPNeuB72zz-xENApvOPwJ4XoN7VRpCvvrbU__Z2ogMNhuNlDzzUhUMj9K3y0Jgi6wrCdqkUFuAlksu16YDU1ha46MU3cChDAFR-zGjMyq1dZoya5bBdc7hWIrfBNApxfXvEAxQqXTXVAk5gCuofSVJwQHWAsaFRcDoNdDF0biw3SQkPnGqqsFqOdvDfSMP08Wfn4_7_W40]--></g></svg>