<?xml version="1.0" encoding="us-ascii" standalone="no"?><svg xmlns="http://www.w3.org/2000/svg" xmlns:xlink="http://www.w3.org/1999/xlink" contentStyleType="text/css" height="1059px" preserveAspectRatio="none" style="width:1668px;height:1059px;background:#FFFFFF;" version="1.1" viewBox="0 0 1668 1059" width="1668px" zoomAndPan="magnify"><defs/><g><!--class Employee--><g id="elem_Employee"><rect codeLine="10" fill="#F1F1F1" height="234.2109" id="Employee" rx="2.5" ry="2.5" style="stroke:#181818;stroke-width:0.5;" width="1227" x="434" y="449"/><ellipse cx="1012.25" cy="465" fill="#ADD1B2" rx="11" ry="11" style="stroke:#181818;stroke-width:1.0;"/><path d="M1015.0156,460.875 Q1015.1719,460.6563 1015.3594,460.5469 Q1015.5469,460.4375 1015.7656,460.4375 Q1016.1406,460.4375 1016.375,460.7031 Q1016.6094,460.9531 1016.6094,461.5625 L1016.6094,463.0156 Q1016.6094,463.625 1016.375,463.8906 Q1016.1406,464.1563 1015.7656,464.1563 Q1015.4219,464.1563 1015.2188,463.9531 Q1015.0156,463.7656 1014.9063,463.25 Q1014.8594,462.8906 1014.6719,462.7031 Q1014.3438,462.3281 1013.7344,462.1094 Q1013.125,461.8906 1012.5,461.8906 Q1011.7344,461.8906 1011.0938,462.2188 Q1010.4688,462.5469 1009.9688,463.2969 Q1009.4844,464.0469 1009.4844,465.0781 L1009.4844,466.1719 Q1009.4844,467.4063 1010.375,468.2344 Q1011.2656,469.0469 1012.8594,469.0469 Q1013.7969,469.0469 1014.4531,468.7969 Q1014.8438,468.6406 1015.2656,468.2031 Q1015.5313,467.9375 1015.6719,467.8594 Q1015.8281,467.7813 1016.0313,467.7813 Q1016.3594,467.7813 1016.6094,468.0469 Q1016.875,468.2969 1016.875,468.6406 Q1016.875,468.9844 1016.5313,469.3906 Q1016.0313,469.9688 1015.2344,470.2969 Q1014.1563,470.75 1012.8594,470.75 Q1011.3438,470.75 1010.1406,470.125 Q1009.1563,469.625 1008.4688,468.5625 Q1007.7813,467.4844 1007.7813,466.2031 L1007.7813,465.0469 Q1007.7813,463.7188 1008.3906,462.5781 Q1009.0156,461.4219 1010.1094,460.8125 Q1011.2031,460.1875 1012.4375,460.1875 Q1013.1719,460.1875 1013.8125,460.3594 Q1014.4688,460.5156 1015.0156,460.875 Z " fill="#000000"/><text fill="#000000" font-family="sans-serif" font-size="14" lengthAdjust="spacing" textLength="62" x="1032.75" y="470.7969">Employee</text><line style="stroke:#181818;stroke-width:0.5;" x1="435" x2="1660" y1="481" y2="481"/><text fill="#000000" font-family="sans-serif" font-size="14" lengthAdjust="spacing" textLength="89" x="440" y="500.1074">-name : String</text><text fill="#000000" font-family="sans-serif" font-size="14" lengthAdjust="spacing" textLength="103" x="440" y="518.7285">-birthdate : Date</text><text fill="#000000" font-family="sans-serif" font-size="14" lengthAdjust="spacing" textLength="87" x="440" y="537.3496">-email : String</text><text fill="#000000" font-family="sans-serif" font-size="14" lengthAdjust="spacing" textLength="121" x="440" y="555.9707">-phoneNumber : int</text><text fill="#000000" font-family="sans-serif" font-size="14" lengthAdjust="spacing" textLength="142" x="440" y="574.5918">-admission date : Date</text><text fill="#000000" font-family="sans-serif" font-size="14" lengthAdjust="spacing" textLength="157" x="440" y="593.2129">-taxpayerNumber : String</text><text fill="#000000" font-family="sans-serif" font-size="14" lengthAdjust="spacing" textLength="105" x="440" y="611.834">-address : String</text><text fill="#000000" font-family="sans-serif" font-size="14" lengthAdjust="spacing" textLength="126" x="440" y="630.4551">-docNumber : String</text><text fill="#000000" font-family="sans-serif" font-size="14" lengthAdjust="spacing" textLength="100" x="440" y="649.0762">-jobTitle : String</text><line style="stroke:#181818;stroke-width:0.5;" x1="435" x2="1660" y1="656.5898" y2="656.5898"/><text fill="#000000" font-family="sans-serif" font-size="14" lengthAdjust="spacing" textLength="1215" x="440" y="675.6973">+addTaskAgenda(selectedGreenSpace : GreenSpace, selectedTask : Task, selectedDate : LocalDate, startTime : LocalTime, agenda : TaskPosition, userValidation : boolean) : Optional&lt;Task&gt;</text></g><!--class Task--><g id="elem_Task"><rect codeLine="26" fill="#F1F1F1" height="290.0742" id="Task" rx="2.5" ry="2.5" style="stroke:#181818;stroke-width:0.5;" width="214" x="940.5" y="762"/><ellipse cx="1027.75" cy="778" fill="#ADD1B2" rx="11" ry="11" style="stroke:#181818;stroke-width:1.0;"/><path d="M1030.5156,773.875 Q1030.6719,773.6563 1030.8594,773.5469 Q1031.0469,773.4375 1031.2656,773.4375 Q1031.6406,773.4375 1031.875,773.7031 Q1032.1094,773.9531 1032.1094,774.5625 L1032.1094,776.0156 Q1032.1094,776.625 1031.875,776.8906 Q1031.6406,777.1563 1031.2656,777.1563 Q1030.9219,777.1563 1030.7188,776.9531 Q1030.5156,776.7656 1030.4063,776.25 Q1030.3594,775.8906 1030.1719,775.7031 Q1029.8438,775.3281 1029.2344,775.1094 Q1028.625,774.8906 1028,774.8906 Q1027.2344,774.8906 1026.5938,775.2188 Q1025.9688,775.5469 1025.4688,776.2969 Q1024.9844,777.0469 1024.9844,778.0781 L1024.9844,779.1719 Q1024.9844,780.4063 1025.875,781.2344 Q1026.7656,782.0469 1028.3594,782.0469 Q1029.2969,782.0469 1029.9531,781.7969 Q1030.3438,781.6406 1030.7656,781.2031 Q1031.0313,780.9375 1031.1719,780.8594 Q1031.3281,780.7813 1031.5313,780.7813 Q1031.8594,780.7813 1032.1094,781.0469 Q1032.375,781.2969 1032.375,781.6406 Q1032.375,781.9844 1032.0313,782.3906 Q1031.5313,782.9688 1030.7344,783.2969 Q1029.6563,783.75 1028.3594,783.75 Q1026.8438,783.75 1025.6406,783.125 Q1024.6563,782.625 1023.9688,781.5625 Q1023.2813,780.4844 1023.2813,779.2031 L1023.2813,778.0469 Q1023.2813,776.7188 1023.8906,775.5781 Q1024.5156,774.4219 1025.6094,773.8125 Q1026.7031,773.1875 1027.9375,773.1875 Q1028.6719,773.1875 1029.3125,773.3594 Q1029.9688,773.5156 1030.5156,773.875 Z " fill="#000000"/><text fill="#000000" font-family="sans-serif" font-size="14" lengthAdjust="spacing" textLength="31" x="1048.25" y="783.7969">Task</text><line style="stroke:#181818;stroke-width:0.5;" x1="941.5" x2="1153.5" y1="794" y2="794"/><text fill="#000000" font-family="sans-serif" font-size="14" lengthAdjust="spacing" textLength="72" x="946.5" y="813.1074">-title: String</text><text fill="#000000" font-family="sans-serif" font-size="14" lengthAdjust="spacing" textLength="119" x="946.5" y="831.7285">-description: String</text><text fill="#000000" font-family="sans-serif" font-size="14" lengthAdjust="spacing" textLength="71" x="946.5" y="850.3496">-date: Date</text><text fill="#000000" font-family="sans-serif" font-size="14" lengthAdjust="spacing" textLength="182" x="946.5" y="868.9707">-taskStartPeriod: TaskPeriod</text><text fill="#000000" font-family="sans-serif" font-size="14" lengthAdjust="spacing" textLength="161" x="946.5" y="887.5918">taskExpectedDuration: int</text><text fill="#000000" font-family="sans-serif" font-size="14" lengthAdjust="spacing" textLength="72" x="946.5" y="906.2129">type: String</text><text fill="#000000" font-family="sans-serif" font-size="14" lengthAdjust="spacing" textLength="165" x="946.5" y="924.834">greenSpace: GreenSpace</text><text fill="#000000" font-family="sans-serif" font-size="14" lengthAdjust="spacing" textLength="142" x="946.5" y="943.4551">urgency: TaskUrgency</text><text fill="#000000" font-family="sans-serif" font-size="14" lengthAdjust="spacing" textLength="117" x="946.5" y="962.0762">status: TaskStatus</text><text fill="#000000" font-family="sans-serif" font-size="14" lengthAdjust="spacing" textLength="137" x="946.5" y="980.6973">assignedTeam: Team</text><text fill="#000000" font-family="sans-serif" font-size="14" lengthAdjust="spacing" textLength="202" x="946.5" y="999.3184">assignedVehicles: List&lt;Vehicle&gt;</text><text fill="#000000" font-family="sans-serif" font-size="14" lengthAdjust="spacing" textLength="96" x="946.5" y="1017.9395">startDate: Date</text><text fill="#000000" font-family="sans-serif" font-size="14" lengthAdjust="spacing" textLength="165" x="946.5" y="1036.5605">taskPosition: TaskPosition</text><line style="stroke:#181818;stroke-width:0.5;" x1="941.5" x2="1153.5" y1="1044.0742" y2="1044.0742"/></g><!--class AddEntryAgendaController--><g id="elem_AddEntryAgendaController"><rect codeLine="43" fill="#F1F1F1" height="252.832" id="AddEntryAgendaController" rx="2.5" ry="2.5" style="stroke:#181818;stroke-width:0.5;" width="909" x="193" y="7"/><ellipse cx="558.75" cy="23" fill="#ADD1B2" rx="11" ry="11" style="stroke:#181818;stroke-width:1.0;"/><path d="M561.5156,18.875 Q561.6719,18.6563 561.8594,18.5469 Q562.0469,18.4375 562.2656,18.4375 Q562.6406,18.4375 562.875,18.7031 Q563.1094,18.9531 563.1094,19.5625 L563.1094,21.0156 Q563.1094,21.625 562.875,21.8906 Q562.6406,22.1563 562.2656,22.1563 Q561.9219,22.1563 561.7188,21.9531 Q561.5156,21.7656 561.4063,21.25 Q561.3594,20.8906 561.1719,20.7031 Q560.8438,20.3281 560.2344,20.1094 Q559.625,19.8906 559,19.8906 Q558.2344,19.8906 557.5938,20.2188 Q556.9688,20.5469 556.4688,21.2969 Q555.9844,22.0469 555.9844,23.0781 L555.9844,24.1719 Q555.9844,25.4063 556.875,26.2344 Q557.7656,27.0469 559.3594,27.0469 Q560.2969,27.0469 560.9531,26.7969 Q561.3438,26.6406 561.7656,26.2031 Q562.0313,25.9375 562.1719,25.8594 Q562.3281,25.7813 562.5313,25.7813 Q562.8594,25.7813 563.1094,26.0469 Q563.375,26.2969 563.375,26.6406 Q563.375,26.9844 563.0313,27.3906 Q562.5313,27.9688 561.7344,28.2969 Q560.6563,28.75 559.3594,28.75 Q557.8438,28.75 556.6406,28.125 Q555.6563,27.625 554.9688,26.5625 Q554.2813,25.4844 554.2813,24.2031 L554.2813,23.0469 Q554.2813,21.7188 554.8906,20.5781 Q555.5156,19.4219 556.6094,18.8125 Q557.7031,18.1875 558.9375,18.1875 Q559.6719,18.1875 560.3125,18.3594 Q560.9688,18.5156 561.5156,18.875 Z " fill="#000000"/><text fill="#000000" font-family="sans-serif" font-size="14" lengthAdjust="spacing" textLength="169" x="579.25" y="28.7969">AddEntryAgendaController</text><line style="stroke:#181818;stroke-width:0.5;" x1="194" x2="1101" y1="39" y2="39"/><line style="stroke:#181818;stroke-width:0.5;" x1="194" x2="1101" y1="47" y2="47"/><text fill="#000000" font-family="sans-serif" font-size="14" lengthAdjust="spacing" textLength="224" x="199" y="66.1074">+getGreenSpaceRepository() : void</text><text fill="#000000" font-family="sans-serif" font-size="14" lengthAdjust="spacing" textLength="175" x="199" y="84.7285">+getTaskRepository() : void</text><text fill="#000000" font-family="sans-serif" font-size="14" lengthAdjust="spacing" textLength="173" x="199" y="103.3496">+getAuthRepository() : void</text><text fill="#000000" font-family="sans-serif" font-size="14" lengthAdjust="spacing" textLength="101" x="199" y="121.9707">+getUserEmail()</text><text fill="#000000" font-family="sans-serif" font-size="14" lengthAdjust="spacing" textLength="105" x="199" y="140.5918">+initialize() : void</text><text fill="#000000" font-family="sans-serif" font-size="14" lengthAdjust="spacing" textLength="255" x="199" y="159.2129">+getGreenSpaces() : List&lt;GreenSpace&gt;</text><text fill="#000000" font-family="sans-serif" font-size="14" lengthAdjust="spacing" textLength="412" x="199" y="177.834">+getTasksByGreenSpace (greenSpace Greenspace): List&lt;Task&gt;</text><text fill="#000000" font-family="sans-serif" font-size="14" lengthAdjust="spacing" textLength="381" x="199" y="196.4551">+getGreenSpaceList(userEmail : String) : List&lt;GreenSpace&gt;</text><text fill="#000000" font-family="sans-serif" font-size="14" lengthAdjust="spacing" textLength="252" x="199" y="215.0762">+currentUserLogInValidation() : boolean</text><text fill="#000000" font-family="sans-serif" font-size="14" lengthAdjust="spacing" textLength="563" x="199" y="233.6973">+filterGreenSpacesByManager (greenSpaces : List&lt;GreenSpace&gt;, managerName String)</text><text fill="#000000" font-family="sans-serif" font-size="14" lengthAdjust="spacing" textLength="897" x="199" y="252.3184">+addTaskToAgenda (selectedGreenSpace : GreenSpace,  selectedTask : Task, startDate LocalDate, startTime : LocalTime) : Optional&lt;Task&gt;</text></g><!--class AddEntryAgendaUI--><g id="elem_AddEntryAgendaUI"><rect codeLine="59" fill="#F1F1F1" height="48" id="AddEntryAgendaUI" rx="2.5" ry="2.5" style="stroke:#181818;stroke-width:0.5;" width="151" x="7" y="109.5"/><ellipse cx="22" cy="125.5" fill="#ADD1B2" rx="11" ry="11" style="stroke:#181818;stroke-width:1.0;"/><path d="M24.7656,121.375 Q24.9219,121.1563 25.1094,121.0469 Q25.2969,120.9375 25.5156,120.9375 Q25.8906,120.9375 26.125,121.2031 Q26.3594,121.4531 26.3594,122.0625 L26.3594,123.5156 Q26.3594,124.125 26.125,124.3906 Q25.8906,124.6563 25.5156,124.6563 Q25.1719,124.6563 24.9688,124.4531 Q24.7656,124.2656 24.6563,123.75 Q24.6094,123.3906 24.4219,123.2031 Q24.0938,122.8281 23.4844,122.6094 Q22.875,122.3906 22.25,122.3906 Q21.4844,122.3906 20.8438,122.7188 Q20.2188,123.0469 19.7188,123.7969 Q19.2344,124.5469 19.2344,125.5781 L19.2344,126.6719 Q19.2344,127.9063 20.125,128.7344 Q21.0156,129.5469 22.6094,129.5469 Q23.5469,129.5469 24.2031,129.2969 Q24.5938,129.1406 25.0156,128.7031 Q25.2813,128.4375 25.4219,128.3594 Q25.5781,128.2813 25.7813,128.2813 Q26.1094,128.2813 26.3594,128.5469 Q26.625,128.7969 26.625,129.1406 Q26.625,129.4844 26.2813,129.8906 Q25.7813,130.4688 24.9844,130.7969 Q23.9063,131.25 22.6094,131.25 Q21.0938,131.25 19.8906,130.625 Q18.9063,130.125 18.2188,129.0625 Q17.5313,127.9844 17.5313,126.7031 L17.5313,125.5469 Q17.5313,124.2188 18.1406,123.0781 Q18.7656,121.9219 19.8594,121.3125 Q20.9531,120.6875 22.1875,120.6875 Q22.9219,120.6875 23.5625,120.8594 Q24.2188,121.0156 24.7656,121.375 Z " fill="#000000"/><text fill="#000000" font-family="sans-serif" font-size="14" lengthAdjust="spacing" textLength="119" x="36" y="131.2969">AddEntryAgendaUI</text><line style="stroke:#181818;stroke-width:0.5;" x1="8" x2="157" y1="141.5" y2="141.5"/><line style="stroke:#181818;stroke-width:0.5;" x1="8" x2="157" y1="149.5" y2="149.5"/></g><!--class Repositories--><g id="elem_Repositories"><rect codeLine="63" fill="#F1F1F1" height="141.1055" id="Repositories" rx="2.5" ry="2.5" style="stroke:#181818;stroke-width:0.5;" width="374" x="1137.5" y="63"/><ellipse cx="1280.75" cy="79" fill="#ADD1B2" rx="11" ry="11" style="stroke:#181818;stroke-width:1.0;"/><path d="M1283.5156,74.875 Q1283.6719,74.6563 1283.8594,74.5469 Q1284.0469,74.4375 1284.2656,74.4375 Q1284.6406,74.4375 1284.875,74.7031 Q1285.1094,74.9531 1285.1094,75.5625 L1285.1094,77.0156 Q1285.1094,77.625 1284.875,77.8906 Q1284.6406,78.1563 1284.2656,78.1563 Q1283.9219,78.1563 1283.7188,77.9531 Q1283.5156,77.7656 1283.4063,77.25 Q1283.3594,76.8906 1283.1719,76.7031 Q1282.8438,76.3281 1282.2344,76.1094 Q1281.625,75.8906 1281,75.8906 Q1280.2344,75.8906 1279.5938,76.2188 Q1278.9688,76.5469 1278.4688,77.2969 Q1277.9844,78.0469 1277.9844,79.0781 L1277.9844,80.1719 Q1277.9844,81.4063 1278.875,82.2344 Q1279.7656,83.0469 1281.3594,83.0469 Q1282.2969,83.0469 1282.9531,82.7969 Q1283.3438,82.6406 1283.7656,82.2031 Q1284.0313,81.9375 1284.1719,81.8594 Q1284.3281,81.7813 1284.5313,81.7813 Q1284.8594,81.7813 1285.1094,82.0469 Q1285.375,82.2969 1285.375,82.6406 Q1285.375,82.9844 1285.0313,83.3906 Q1284.5313,83.9688 1283.7344,84.2969 Q1282.6563,84.75 1281.3594,84.75 Q1279.8438,84.75 1278.6406,84.125 Q1277.6563,83.625 1276.9688,82.5625 Q1276.2813,81.4844 1276.2813,80.2031 L1276.2813,79.0469 Q1276.2813,77.7188 1276.8906,76.5781 Q1277.5156,75.4219 1278.6094,74.8125 Q1279.7031,74.1875 1280.9375,74.1875 Q1281.6719,74.1875 1282.3125,74.3594 Q1282.9688,74.5156 1283.5156,74.875 Z " fill="#000000"/><text fill="#000000" font-family="sans-serif" font-size="14" lengthAdjust="spacing" textLength="79" x="1301.25" y="84.7969">Repositories</text><line style="stroke:#181818;stroke-width:0.5;" x1="1138.5" x2="1510.5" y1="95" y2="95"/><line style="stroke:#181818;stroke-width:0.5;" x1="1138.5" x2="1510.5" y1="103" y2="103"/><text fill="#000000" font-family="sans-serif" font-size="14" lengthAdjust="spacing" textLength="94" x="1143.5" y="122.1074">-Repositories()</text><text fill="#000000" font-family="sans-serif" font-size="14" lengthAdjust="spacing" textLength="182" x="1143.5" y="140.7285">+getInstance() : Repositories</text><text fill="#000000" font-family="sans-serif" font-size="14" lengthAdjust="spacing" textLength="305" x="1143.5" y="159.3496">+getEmployeeRepository(); employeeRepository</text><text fill="#000000" font-family="sans-serif" font-size="14" lengthAdjust="spacing" textLength="362" x="1143.5" y="177.9707">+getGreenSpaceRepository(); getGreenSpaceRepository</text><text fill="#000000" font-family="sans-serif" font-size="14" lengthAdjust="spacing" textLength="264" x="1143.5" y="196.5918">+getTaskRepository(); getTaskRepository</text></g><!--class EmployeeRepository--><g id="elem_EmployeeRepository"><rect codeLine="71" fill="#F1F1F1" height="66.6211" id="EmployeeRepository" rx="2.5" ry="2.5" style="stroke:#181818;stroke-width:0.5;" width="182" x="824.5" y="321"/><ellipse cx="848.5" cy="337" fill="#ADD1B2" rx="11" ry="11" style="stroke:#181818;stroke-width:1.0;"/><path d="M851.2656,332.875 Q851.4219,332.6563 851.6094,332.5469 Q851.7969,332.4375 852.0156,332.4375 Q852.3906,332.4375 852.625,332.7031 Q852.8594,332.9531 852.8594,333.5625 L852.8594,335.0156 Q852.8594,335.625 852.625,335.8906 Q852.3906,336.1563 852.0156,336.1563 Q851.6719,336.1563 851.4688,335.9531 Q851.2656,335.7656 851.1563,335.25 Q851.1094,334.8906 850.9219,334.7031 Q850.5938,334.3281 849.9844,334.1094 Q849.375,333.8906 848.75,333.8906 Q847.9844,333.8906 847.3438,334.2188 Q846.7188,334.5469 846.2188,335.2969 Q845.7344,336.0469 845.7344,337.0781 L845.7344,338.1719 Q845.7344,339.4063 846.625,340.2344 Q847.5156,341.0469 849.1094,341.0469 Q850.0469,341.0469 850.7031,340.7969 Q851.0938,340.6406 851.5156,340.2031 Q851.7813,339.9375 851.9219,339.8594 Q852.0781,339.7813 852.2813,339.7813 Q852.6094,339.7813 852.8594,340.0469 Q853.125,340.2969 853.125,340.6406 Q853.125,340.9844 852.7813,341.3906 Q852.2813,341.9688 851.4844,342.2969 Q850.4063,342.75 849.1094,342.75 Q847.5938,342.75 846.3906,342.125 Q845.4063,341.625 844.7188,340.5625 Q844.0313,339.4844 844.0313,338.2031 L844.0313,337.0469 Q844.0313,335.7188 844.6406,334.5781 Q845.2656,333.4219 846.3594,332.8125 Q847.4531,332.1875 848.6875,332.1875 Q849.4219,332.1875 850.0625,332.3594 Q850.7188,332.5156 851.2656,332.875 Z " fill="#000000"/><text fill="#000000" font-family="sans-serif" font-size="14" lengthAdjust="spacing" textLength="130" x="864.5" y="342.7969">EmployeeRepository</text><line style="stroke:#181818;stroke-width:0.5;" x1="825.5" x2="1005.5" y1="353" y2="353"/><line style="stroke:#181818;stroke-width:0.5;" x1="825.5" x2="1005.5" y1="361" y2="361"/><text fill="#000000" font-family="sans-serif" font-size="14" lengthAdjust="spacing" textLength="170" x="830.5" y="380.1074">+getEmployee(): Employee</text></g><!--class TasksRepository--><g id="elem_TasksRepository"><rect codeLine="77" fill="#F1F1F1" height="66.6211" id="TasksRepository" rx="2.5" ry="2.5" style="stroke:#181818;stroke-width:0.5;" width="276" x="1041.5" y="321"/><ellipse cx="1122.25" cy="337" fill="#ADD1B2" rx="11" ry="11" style="stroke:#181818;stroke-width:1.0;"/><path d="M1125.0156,332.875 Q1125.1719,332.6563 1125.3594,332.5469 Q1125.5469,332.4375 1125.7656,332.4375 Q1126.1406,332.4375 1126.375,332.7031 Q1126.6094,332.9531 1126.6094,333.5625 L1126.6094,335.0156 Q1126.6094,335.625 1126.375,335.8906 Q1126.1406,336.1563 1125.7656,336.1563 Q1125.4219,336.1563 1125.2188,335.9531 Q1125.0156,335.7656 1124.9063,335.25 Q1124.8594,334.8906 1124.6719,334.7031 Q1124.3438,334.3281 1123.7344,334.1094 Q1123.125,333.8906 1122.5,333.8906 Q1121.7344,333.8906 1121.0938,334.2188 Q1120.4688,334.5469 1119.9688,335.2969 Q1119.4844,336.0469 1119.4844,337.0781 L1119.4844,338.1719 Q1119.4844,339.4063 1120.375,340.2344 Q1121.2656,341.0469 1122.8594,341.0469 Q1123.7969,341.0469 1124.4531,340.7969 Q1124.8438,340.6406 1125.2656,340.2031 Q1125.5313,339.9375 1125.6719,339.8594 Q1125.8281,339.7813 1126.0313,339.7813 Q1126.3594,339.7813 1126.6094,340.0469 Q1126.875,340.2969 1126.875,340.6406 Q1126.875,340.9844 1126.5313,341.3906 Q1126.0313,341.9688 1125.2344,342.2969 Q1124.1563,342.75 1122.8594,342.75 Q1121.3438,342.75 1120.1406,342.125 Q1119.1563,341.625 1118.4688,340.5625 Q1117.7813,339.4844 1117.7813,338.2031 L1117.7813,337.0469 Q1117.7813,335.7188 1118.3906,334.5781 Q1119.0156,333.4219 1120.1094,332.8125 Q1121.2031,332.1875 1122.4375,332.1875 Q1123.1719,332.1875 1123.8125,332.3594 Q1124.4688,332.5156 1125.0156,332.875 Z " fill="#000000"/><text fill="#000000" font-family="sans-serif" font-size="14" lengthAdjust="spacing" textLength="106" x="1142.75" y="342.7969">TasksRepository</text><line style="stroke:#181818;stroke-width:0.5;" x1="1042.5" x2="1316.5" y1="353" y2="353"/><line style="stroke:#181818;stroke-width:0.5;" x1="1042.5" x2="1316.5" y1="361" y2="361"/><text fill="#000000" font-family="sans-serif" font-size="14" lengthAdjust="spacing" textLength="264" x="1047.5" y="380.1074">+getToDoListEntries(): List&lt;ToDoEntries&gt;</text></g><!--class GreenSpacesRepository--><g id="elem_GreenSpacesRepository"><rect codeLine="80" fill="#F1F1F1" height="66.6211" id="GreenSpacesRepository" rx="2.5" ry="2.5" style="stroke:#181818;stroke-width:0.5;" width="247" x="1353" y="321"/><ellipse cx="1395" cy="337" fill="#ADD1B2" rx="11" ry="11" style="stroke:#181818;stroke-width:1.0;"/><path d="M1397.7656,332.875 Q1397.9219,332.6563 1398.1094,332.5469 Q1398.2969,332.4375 1398.5156,332.4375 Q1398.8906,332.4375 1399.125,332.7031 Q1399.3594,332.9531 1399.3594,333.5625 L1399.3594,335.0156 Q1399.3594,335.625 1399.125,335.8906 Q1398.8906,336.1563 1398.5156,336.1563 Q1398.1719,336.1563 1397.9688,335.9531 Q1397.7656,335.7656 1397.6563,335.25 Q1397.6094,334.8906 1397.4219,334.7031 Q1397.0938,334.3281 1396.4844,334.1094 Q1395.875,333.8906 1395.25,333.8906 Q1394.4844,333.8906 1393.8438,334.2188 Q1393.2188,334.5469 1392.7188,335.2969 Q1392.2344,336.0469 1392.2344,337.0781 L1392.2344,338.1719 Q1392.2344,339.4063 1393.125,340.2344 Q1394.0156,341.0469 1395.6094,341.0469 Q1396.5469,341.0469 1397.2031,340.7969 Q1397.5938,340.6406 1398.0156,340.2031 Q1398.2813,339.9375 1398.4219,339.8594 Q1398.5781,339.7813 1398.7813,339.7813 Q1399.1094,339.7813 1399.3594,340.0469 Q1399.625,340.2969 1399.625,340.6406 Q1399.625,340.9844 1399.2813,341.3906 Q1398.7813,341.9688 1397.9844,342.2969 Q1396.9063,342.75 1395.6094,342.75 Q1394.0938,342.75 1392.8906,342.125 Q1391.9063,341.625 1391.2188,340.5625 Q1390.5313,339.4844 1390.5313,338.2031 L1390.5313,337.0469 Q1390.5313,335.7188 1391.1406,334.5781 Q1391.7656,333.4219 1392.8594,332.8125 Q1393.9531,332.1875 1395.1875,332.1875 Q1395.9219,332.1875 1396.5625,332.3594 Q1397.2188,332.5156 1397.7656,332.875 Z " fill="#000000"/><text fill="#000000" font-family="sans-serif" font-size="14" lengthAdjust="spacing" textLength="155" x="1415" y="342.7969">GreenSpacesRepository</text><line style="stroke:#181818;stroke-width:0.5;" x1="1354" x2="1599" y1="353" y2="353"/><line style="stroke:#181818;stroke-width:0.5;" x1="1354" x2="1599" y1="361" y2="361"/><text fill="#000000" font-family="sans-serif" font-size="14" lengthAdjust="spacing" textLength="235" x="1359" y="380.1074">+getGreenSpacesList(): GreenSpace</text></g><!--link AddEntryAgendaUI to AddEntryAgendaController--><g id="link_AddEntryAgendaUI_AddEntryAgendaController"><path codeLine="84" d="M158.02,133.5 C169.48,133.5 175.32,133.5 186.84,133.5 " fill="none" id="AddEntryAgendaUI-to-AddEntryAgendaController" style="stroke:#181818;stroke-width:1.0;stroke-dasharray:7.0,7.0;"/><polygon fill="#181818" points="192.84,133.5,183.84,129.5,187.84,133.5,183.84,137.5,192.84,133.5" style="stroke:#181818;stroke-width:1.0;"/></g><!--link AddEntryAgendaController to Repositories--><g id="link_AddEntryAgendaController_Repositories"><path codeLine="86" d="M1102.02,133.5 C1107.7,133.5 1114.57,133.5 1131.39,133.5 " fill="none" id="AddEntryAgendaController-to-Repositories" style="stroke:#181818;stroke-width:1.0;stroke-dasharray:7.0,7.0;"/><polygon fill="#181818" points="1137.39,133.5,1128.39,129.5,1132.39,133.5,1128.39,137.5,1137.39,133.5" style="stroke:#181818;stroke-width:1.0;"/><text fill="#000000" font-family="sans-serif" font-size="13" lengthAdjust="spacing" textLength="7" x="1122.3486" y="130.1736">1</text></g><!--link Repositories to Repositories--><g id="link_Repositories_Repositories"><path codeLine="88" d="M1511.56,108.71 C1532.76,113.35 1546.5,121.62 1546.5,133.5 C1546.5,145.38 1538.6213,152.3672 1517.4213,157.0072 " fill="none" id="Repositories-to-Repositories" style="stroke:#181818;stroke-width:1.0;"/><polygon fill="#181818" points="1511.56,158.29,1521.2071,160.2732,1516.4444,157.221,1519.4967,152.4582,1511.56,158.29" style="stroke:#181818;stroke-width:1.0;"/><text fill="#000000" font-family="sans-serif" font-size="13" lengthAdjust="spacing" textLength="75" x="1552.5" y="139.0283">getInstance()</text><text fill="#000000" font-family="sans-serif" font-size="13" lengthAdjust="spacing" textLength="7" x="1519.5993" y="104.3378">1</text><text fill="#000000" font-family="sans-serif" font-size="13" lengthAdjust="spacing" textLength="7" x="1519.5993" y="156.0095">1</text></g><!--link Repositories to EmployeeRepository--><g id="link_Repositories_EmployeeRepository"><path codeLine="89" d="M1210.91,204.04 C1163.61,233 1119.5,260 1119.5,260 C1119.5,260 1050.8946,291.4506 992.0146,318.4306 " fill="none" id="Repositories-to-EmployeeRepository" style="stroke:#181818;stroke-width:1.0;"/><polygon fill="#181818" points="986.56,320.93,996.4082,320.8173,991.1055,318.8472,993.0757,313.5445,986.56,320.93" style="stroke:#181818;stroke-width:1.0;"/><text fill="#000000" font-family="sans-serif" font-size="13" lengthAdjust="spacing" textLength="7" x="1191.8351" y="226.2289">1</text><text fill="#000000" font-family="sans-serif" font-size="13" lengthAdjust="spacing" textLength="7" x="992.8609" y="309.7417">1</text></g><!--link Repositories to TasksRepository--><g id="link_Repositories_TasksRepository"><path codeLine="90" d="M1278.42,204.09 C1252.55,243.17 1224.792,285.0969 1204.462,315.8069 " fill="none" id="Repositories-to-TasksRepository" style="stroke:#181818;stroke-width:1.0;"/><polygon fill="#181818" points="1201.15,320.81,1209.4534,315.5134,1203.91,316.6408,1202.7827,311.0974,1201.15,320.81" style="stroke:#181818;stroke-width:1.0;"/><text fill="#000000" font-family="sans-serif" font-size="13" lengthAdjust="spacing" textLength="7" x="1266.3071" y="226.284">1</text><text fill="#000000" font-family="sans-serif" font-size="13" lengthAdjust="spacing" textLength="7" x="1197.6098" y="309.8597">1</text></g><!--link Repositories to GreenSpacesRepository--><g id="link_Repositories_GreenSpacesRepository"><path codeLine="91" d="M1372.8,204.09 C1399.92,243.17 1429.0794,285.1705 1450.3894,315.8805 " fill="none" id="Repositories-to-GreenSpacesRepository" style="stroke:#181818;stroke-width:1.0;"/><polygon fill="#181818" points="1453.81,320.81,1451.9654,311.1354,1450.9595,316.7021,1445.3928,315.6962,1453.81,320.81" style="stroke:#181818;stroke-width:1.0;"/><text fill="#000000" font-family="sans-serif" font-size="13" lengthAdjust="spacing" textLength="7" x="1370.42" y="226.284">1</text><text fill="#000000" font-family="sans-serif" font-size="13" lengthAdjust="spacing" textLength="7" x="1441.8175" y="309.8597">1</text></g><!--link AddEntryAgendaController to Employee--><g id="link_AddEntryAgendaController_Employee"><path codeLine="93" d="M726.3,260.14 C766.28,323.88 806.5,388 806.5,388 C806.5,388 839.1738,411.9987 884.6038,445.3587 " fill="none" id="AddEntryAgendaController-to-Employee" style="stroke:#181818;stroke-width:1.0;stroke-dasharray:7.0,7.0;"/><polygon fill="#181818" points="889.44,448.91,884.5533,440.359,885.4099,445.9506,879.8182,446.8072,889.44,448.91" style="stroke:#181818;stroke-width:1.0;"/></g><!--link EmployeeRepository to Employee--><g id="link_EmployeeRepository_Employee"><path codeLine="95" d="M936.12,388.23 C946.71,405.04 957.1222,421.5532 971.1622,443.8432 " fill="none" id="EmployeeRepository-to-Employee" style="stroke:#181818;stroke-width:1.0;"/><polygon fill="#181818" points="974.36,448.92,972.9479,439.1729,971.6952,444.6893,966.1788,443.4366,974.36,448.92" style="stroke:#181818;stroke-width:1.0;"/><text fill="#000000" font-family="sans-serif" font-size="13" lengthAdjust="spacing" textLength="7" x="932.0625" y="409.5742">1</text><text fill="#000000" font-family="sans-serif" font-size="13" lengthAdjust="spacing" textLength="7" x="962.4503" y="437.9059">1</text></g><!--link TasksRepository to Employee--><g id="link_TasksRepository_Employee"><path codeLine="96" d="M1158.88,388.23 C1148.29,405.04 1137.8778,421.5532 1123.8378,443.8432 " fill="none" id="TasksRepository-to-Employee" style="stroke:#181818;stroke-width:1.0;"/><polygon fill="#181818" points="1120.64,448.92,1128.8212,443.4366,1123.3048,444.6893,1122.0521,439.1729,1120.64,448.92" style="stroke:#181818;stroke-width:1.0;"/><text fill="#000000" font-family="sans-serif" font-size="13" lengthAdjust="spacing" textLength="7" x="1147.7344" y="409.5742">1</text><text fill="#000000" font-family="sans-serif" font-size="13" lengthAdjust="spacing" textLength="7" x="1118.1013" y="437.9059">1</text></g><!--link GreenSpacesRepository to Employee--><g id="link_GreenSpacesRepository_Employee"><path codeLine="97" d="M1409.94,388 C1375.46,404.84 1336.431,423.8962 1290.581,446.2962 " fill="none" id="GreenSpacesRepository-to-Employee" style="stroke:#181818;stroke-width:1.0;"/><polygon fill="#181818" points="1285.19,448.93,1295.0324,448.5733,1289.6825,446.7352,1291.5207,441.3853,1285.19,448.93" style="stroke:#181818;stroke-width:1.0;"/><text fill="#000000" font-family="sans-serif" font-size="13" lengthAdjust="spacing" textLength="7" x="1390.4606" y="409.5692">1</text><text fill="#000000" font-family="sans-serif" font-size="13" lengthAdjust="spacing" textLength="7" x="1293.1928" y="437.9166">1</text></g><!--link Employee to Task--><g id="link_Employee_Task"><path codeLine="99" d="M1047.5,683.19 C1047.5,708.49 1047.5,729.55 1047.5,755.79 " fill="none" id="Employee-to-Task" style="stroke:#181818;stroke-width:1.0;"/><polygon fill="#181818" points="1047.5,761.79,1051.5,752.79,1047.5,756.79,1043.5,752.79,1047.5,761.79" style="stroke:#181818;stroke-width:1.0;"/><text fill="#000000" font-family="sans-serif" font-size="13" lengthAdjust="spacing" textLength="50" x="1048.5" y="728.0283">registers</text></g><!--SRC=[XLPHJzim47xFhx1ueHK5RQ-0AfMrcYenXjR2kviSgLV7Zcnd8w3zzzqvIUEa2VIXTUwxEz_TzrtWt1w4ohdX6Skqql7Uw0oOCmL4BPBp-C1JsBXI0ZCGEwvI6JhOFK_qNw5IziAb3H4f5BWo1vPhMT93T3u0QkDq54J5abkxSCw8NU5W7Mkr4M_0laJHkOGNnvncHgHxnn91vGYj8X_2LbakTGdm7Z7yN2gEpLop3IPIQMNQ2UFs2NTaN-9FPOMC2zdppFTQmKEHxS0W8fIhp3p9XBLu9Jl9ulXhpaimnw0m7KyI0rXYrvheUD3xjzvjXPD1zT45mnHRRW-B55J29nOazWx9TmEWDiWHERSFCzOuK0n2zDCQbrNnzphcaiw8E6xSLcH7CvrdZFlRwlX7RGMDUyOA2-QPIu53e5bSivtM4hYQul5dJZOkRoba7aNHlwZcXmmrDuxQwmq3R6o43-u1M61tqFQmeN8VmGYTrBNvitSWVFMQLuqMXbSP6mf9SftywN5euG0zL1XiFowh6vwg1m_Wj5nXA_l6dxqPcnIfmfa3pn34xuxv6VOYbe1nzyAws_fntcGqRjdjr0Kpxp90Cws7kaYIbNAch7JnJUDPImdc7IMJWcix-WKvHMjJJeYcFreabGib7WKNXTkFWayeWnKjpsIA1g6mDXJ56_JSsXgiHtpthN7Ubc7loa3GavQQYXbBnscTe99Nxm929aLJrd5_HcwD2sD0-JRkTRfMhQHzdRMeqV55I0ScwEEk_C4LBeS9YxG3jynOLZa-qDkehgRTvgskU6EVB_J8HZUw-NIPFzxDheoUrky1TkHVO8lr0dUCI3yPFHThXRUhkD90wDIwDE_fK5St34wiFe9z8EERCIY8xAlxvjH8hNR_WhGOpY6w26gUeFoQSnldjHi6COhPwgKcFT1W_PGQvQAzjisFAG9nXOakkllZzJtjlAYGfZvvx6e-zbheExS81h6phsTTpg8EzmHVNfww8TCTviUZJWSyxjiRwhZZuEW-QlHgtb9uMj5WmL6lcc6dmKg6NOyNUuYoN-D_Lodo2mRd_Xy0]--></g></svg>