<?xml version="1.0" encoding="us-ascii" standalone="no"?><svg xmlns="http://www.w3.org/2000/svg" xmlns:xlink="http://www.w3.org/1999/xlink" contentStyleType="text/css" height="798px" preserveAspectRatio="none" style="width:1108px;height:798px;background:#FFFFFF;" version="1.1" viewBox="0 0 1108 798" width="1108px" zoomAndPan="magnify"><defs/><g><!--class Employee--><g id="elem_Employee"><rect codeLine="10" fill="#F1F1F1" height="252.832" id="Employee" rx="2.5" ry="2.5" style="stroke:#181818;stroke-width:0.5;" width="298" x="399.5" y="337"/><ellipse cx="513.25" cy="353" fill="#ADD1B2" rx="11" ry="11" style="stroke:#181818;stroke-width:1.0;"/><path d="M516.0156,348.875 Q516.1719,348.6563 516.3594,348.5469 Q516.5469,348.4375 516.7656,348.4375 Q517.1406,348.4375 517.375,348.7031 Q517.6094,348.9531 517.6094,349.5625 L517.6094,351.0156 Q517.6094,351.625 517.375,351.8906 Q517.1406,352.1563 516.7656,352.1563 Q516.4219,352.1563 516.2188,351.9531 Q516.0156,351.7656 515.9063,351.25 Q515.8594,350.8906 515.6719,350.7031 Q515.3438,350.3281 514.7344,350.1094 Q514.125,349.8906 513.5,349.8906 Q512.7344,349.8906 512.0938,350.2188 Q511.4688,350.5469 510.9688,351.2969 Q510.4844,352.0469 510.4844,353.0781 L510.4844,354.1719 Q510.4844,355.4063 511.375,356.2344 Q512.2656,357.0469 513.8594,357.0469 Q514.7969,357.0469 515.4531,356.7969 Q515.8438,356.6406 516.2656,356.2031 Q516.5313,355.9375 516.6719,355.8594 Q516.8281,355.7813 517.0313,355.7813 Q517.3594,355.7813 517.6094,356.0469 Q517.875,356.2969 517.875,356.6406 Q517.875,356.9844 517.5313,357.3906 Q517.0313,357.9688 516.2344,358.2969 Q515.1563,358.75 513.8594,358.75 Q512.3438,358.75 511.1406,358.125 Q510.1563,357.625 509.4688,356.5625 Q508.7813,355.4844 508.7813,354.2031 L508.7813,353.0469 Q508.7813,351.7188 509.3906,350.5781 Q510.0156,349.4219 511.1094,348.8125 Q512.2031,348.1875 513.4375,348.1875 Q514.1719,348.1875 514.8125,348.3594 Q515.4688,348.5156 516.0156,348.875 Z " fill="#000000"/><text fill="#000000" font-family="sans-serif" font-size="14" lengthAdjust="spacing" textLength="62" x="533.75" y="358.7969">Employee</text><line style="stroke:#181818;stroke-width:0.5;" x1="400.5" x2="696.5" y1="369" y2="369"/><text fill="#000000" font-family="sans-serif" font-size="14" lengthAdjust="spacing" textLength="89" x="405.5" y="388.1074">-name : String</text><text fill="#000000" font-family="sans-serif" font-size="14" lengthAdjust="spacing" textLength="103" x="405.5" y="406.7285">-birthdate : Date</text><text fill="#000000" font-family="sans-serif" font-size="14" lengthAdjust="spacing" textLength="87" x="405.5" y="425.3496">-email : String</text><text fill="#000000" font-family="sans-serif" font-size="14" lengthAdjust="spacing" textLength="121" x="405.5" y="443.9707">-phoneNumber : int</text><text fill="#000000" font-family="sans-serif" font-size="14" lengthAdjust="spacing" textLength="142" x="405.5" y="462.5918">-admission date : Date</text><text fill="#000000" font-family="sans-serif" font-size="14" lengthAdjust="spacing" textLength="157" x="405.5" y="481.2129">-taxpayerNumber : String</text><text fill="#000000" font-family="sans-serif" font-size="14" lengthAdjust="spacing" textLength="105" x="405.5" y="499.834">-address : String</text><text fill="#000000" font-family="sans-serif" font-size="14" lengthAdjust="spacing" textLength="126" x="405.5" y="518.4551">-docNumber : String</text><text fill="#000000" font-family="sans-serif" font-size="14" lengthAdjust="spacing" textLength="100" x="405.5" y="537.0762">-jobTitle : String</text><line style="stroke:#181818;stroke-width:0.5;" x1="400.5" x2="696.5" y1="544.5898" y2="544.5898"/><text fill="#000000" font-family="sans-serif" font-size="14" lengthAdjust="spacing" textLength="286" x="405.5" y="563.6973">+addEntryAgenda(startDate, toDoListEntries)</text><text fill="#000000" font-family="sans-serif" font-size="14" lengthAdjust="spacing" textLength="148" x="405.5" y="582.3184">+validate(entryAgenda)</text></g><!--class Task--><g id="elem_Task"><rect codeLine="26" fill="#F1F1F1" height="122.4844" id="Task" rx="2.5" ry="2.5" style="stroke:#181818;stroke-width:0.5;" width="199" x="449" y="669"/><ellipse cx="528.75" cy="685" fill="#ADD1B2" rx="11" ry="11" style="stroke:#181818;stroke-width:1.0;"/><path d="M531.5156,680.875 Q531.6719,680.6563 531.8594,680.5469 Q532.0469,680.4375 532.2656,680.4375 Q532.6406,680.4375 532.875,680.7031 Q533.1094,680.9531 533.1094,681.5625 L533.1094,683.0156 Q533.1094,683.625 532.875,683.8906 Q532.6406,684.1563 532.2656,684.1563 Q531.9219,684.1563 531.7188,683.9531 Q531.5156,683.7656 531.4063,683.25 Q531.3594,682.8906 531.1719,682.7031 Q530.8438,682.3281 530.2344,682.1094 Q529.625,681.8906 529,681.8906 Q528.2344,681.8906 527.5938,682.2188 Q526.9688,682.5469 526.4688,683.2969 Q525.9844,684.0469 525.9844,685.0781 L525.9844,686.1719 Q525.9844,687.4063 526.875,688.2344 Q527.7656,689.0469 529.3594,689.0469 Q530.2969,689.0469 530.9531,688.7969 Q531.3438,688.6406 531.7656,688.2031 Q532.0313,687.9375 532.1719,687.8594 Q532.3281,687.7813 532.5313,687.7813 Q532.8594,687.7813 533.1094,688.0469 Q533.375,688.2969 533.375,688.6406 Q533.375,688.9844 533.0313,689.3906 Q532.5313,689.9688 531.7344,690.2969 Q530.6563,690.75 529.3594,690.75 Q527.8438,690.75 526.6406,690.125 Q525.6563,689.625 524.9688,688.5625 Q524.2813,687.4844 524.2813,686.2031 L524.2813,685.0469 Q524.2813,683.7188 524.8906,682.5781 Q525.5156,681.4219 526.6094,680.8125 Q527.7031,680.1875 528.9375,680.1875 Q529.6719,680.1875 530.3125,680.3594 Q530.9688,680.5156 531.5156,680.875 Z " fill="#000000"/><text fill="#000000" font-family="sans-serif" font-size="14" lengthAdjust="spacing" textLength="31" x="549.25" y="690.7969">Task</text><line style="stroke:#181818;stroke-width:0.5;" x1="450" x2="647" y1="701" y2="701"/><text fill="#000000" font-family="sans-serif" font-size="14" lengthAdjust="spacing" textLength="170" x="455" y="720.1074">-greenSpace: GreenSpace</text><text fill="#000000" font-family="sans-serif" font-size="14" lengthAdjust="spacing" textLength="187" x="455" y="738.7285">-toDoListEntries : toDoEntries</text><text fill="#000000" font-family="sans-serif" font-size="14" lengthAdjust="spacing" textLength="101" x="455" y="757.3496">-startDate: Date</text><line style="stroke:#181818;stroke-width:0.5;" x1="450" x2="647" y1="764.8633" y2="764.8633"/><text fill="#000000" font-family="sans-serif" font-size="14" lengthAdjust="spacing" textLength="148" x="455" y="783.9707">+validate(entryAgenda)</text></g><!--class AddEntryAgendaController--><g id="elem_AddEntryAgendaController"><rect codeLine="34" fill="#F1F1F1" height="48" id="AddEntryAgendaController" rx="2.5" ry="2.5" style="stroke:#181818;stroke-width:0.5;" width="201" x="193" y="53.5"/><ellipse cx="208" cy="69.5" fill="#ADD1B2" rx="11" ry="11" style="stroke:#181818;stroke-width:1.0;"/><path d="M210.7656,65.375 Q210.9219,65.1563 211.1094,65.0469 Q211.2969,64.9375 211.5156,64.9375 Q211.8906,64.9375 212.125,65.2031 Q212.3594,65.4531 212.3594,66.0625 L212.3594,67.5156 Q212.3594,68.125 212.125,68.3906 Q211.8906,68.6563 211.5156,68.6563 Q211.1719,68.6563 210.9688,68.4531 Q210.7656,68.2656 210.6563,67.75 Q210.6094,67.3906 210.4219,67.2031 Q210.0938,66.8281 209.4844,66.6094 Q208.875,66.3906 208.25,66.3906 Q207.4844,66.3906 206.8438,66.7188 Q206.2188,67.0469 205.7188,67.7969 Q205.2344,68.5469 205.2344,69.5781 L205.2344,70.6719 Q205.2344,71.9063 206.125,72.7344 Q207.0156,73.5469 208.6094,73.5469 Q209.5469,73.5469 210.2031,73.2969 Q210.5938,73.1406 211.0156,72.7031 Q211.2813,72.4375 211.4219,72.3594 Q211.5781,72.2813 211.7813,72.2813 Q212.1094,72.2813 212.3594,72.5469 Q212.625,72.7969 212.625,73.1406 Q212.625,73.4844 212.2813,73.8906 Q211.7813,74.4688 210.9844,74.7969 Q209.9063,75.25 208.6094,75.25 Q207.0938,75.25 205.8906,74.625 Q204.9063,74.125 204.2188,73.0625 Q203.5313,71.9844 203.5313,70.7031 L203.5313,69.5469 Q203.5313,68.2188 204.1406,67.0781 Q204.7656,65.9219 205.8594,65.3125 Q206.9531,64.6875 208.1875,64.6875 Q208.9219,64.6875 209.5625,64.8594 Q210.2188,65.0156 210.7656,65.375 Z " fill="#000000"/><text fill="#000000" font-family="sans-serif" font-size="14" lengthAdjust="spacing" textLength="169" x="222" y="75.2969">AddEntryAgendaController</text><line style="stroke:#181818;stroke-width:0.5;" x1="194" x2="393" y1="85.5" y2="85.5"/><line style="stroke:#181818;stroke-width:0.5;" x1="194" x2="393" y1="93.5" y2="93.5"/></g><!--class AddEntryAgendaUI--><g id="elem_AddEntryAgendaUI"><rect codeLine="38" fill="#F1F1F1" height="48" id="AddEntryAgendaUI" rx="2.5" ry="2.5" style="stroke:#181818;stroke-width:0.5;" width="151" x="7" y="53.5"/><ellipse cx="22" cy="69.5" fill="#ADD1B2" rx="11" ry="11" style="stroke:#181818;stroke-width:1.0;"/><path d="M24.7656,65.375 Q24.9219,65.1563 25.1094,65.0469 Q25.2969,64.9375 25.5156,64.9375 Q25.8906,64.9375 26.125,65.2031 Q26.3594,65.4531 26.3594,66.0625 L26.3594,67.5156 Q26.3594,68.125 26.125,68.3906 Q25.8906,68.6563 25.5156,68.6563 Q25.1719,68.6563 24.9688,68.4531 Q24.7656,68.2656 24.6563,67.75 Q24.6094,67.3906 24.4219,67.2031 Q24.0938,66.8281 23.4844,66.6094 Q22.875,66.3906 22.25,66.3906 Q21.4844,66.3906 20.8438,66.7188 Q20.2188,67.0469 19.7188,67.7969 Q19.2344,68.5469 19.2344,69.5781 L19.2344,70.6719 Q19.2344,71.9063 20.125,72.7344 Q21.0156,73.5469 22.6094,73.5469 Q23.5469,73.5469 24.2031,73.2969 Q24.5938,73.1406 25.0156,72.7031 Q25.2813,72.4375 25.4219,72.3594 Q25.5781,72.2813 25.7813,72.2813 Q26.1094,72.2813 26.3594,72.5469 Q26.625,72.7969 26.625,73.1406 Q26.625,73.4844 26.2813,73.8906 Q25.7813,74.4688 24.9844,74.7969 Q23.9063,75.25 22.6094,75.25 Q21.0938,75.25 19.8906,74.625 Q18.9063,74.125 18.2188,73.0625 Q17.5313,71.9844 17.5313,70.7031 L17.5313,69.5469 Q17.5313,68.2188 18.1406,67.0781 Q18.7656,65.9219 19.8594,65.3125 Q20.9531,64.6875 22.1875,64.6875 Q22.9219,64.6875 23.5625,64.8594 Q24.2188,65.0156 24.7656,65.375 Z " fill="#000000"/><text fill="#000000" font-family="sans-serif" font-size="14" lengthAdjust="spacing" textLength="119" x="36" y="75.2969">AddEntryAgendaUI</text><line style="stroke:#181818;stroke-width:0.5;" x1="8" x2="157" y1="85.5" y2="85.5"/><line style="stroke:#181818;stroke-width:0.5;" x1="8" x2="157" y1="93.5" y2="93.5"/></g><!--class Repositories--><g id="elem_Repositories"><rect codeLine="42" fill="#F1F1F1" height="141.1055" id="Repositories" rx="2.5" ry="2.5" style="stroke:#181818;stroke-width:0.5;" width="374" x="471.5" y="7"/><ellipse cx="614.75" cy="23" fill="#ADD1B2" rx="11" ry="11" style="stroke:#181818;stroke-width:1.0;"/><path d="M617.5156,18.875 Q617.6719,18.6563 617.8594,18.5469 Q618.0469,18.4375 618.2656,18.4375 Q618.6406,18.4375 618.875,18.7031 Q619.1094,18.9531 619.1094,19.5625 L619.1094,21.0156 Q619.1094,21.625 618.875,21.8906 Q618.6406,22.1563 618.2656,22.1563 Q617.9219,22.1563 617.7188,21.9531 Q617.5156,21.7656 617.4063,21.25 Q617.3594,20.8906 617.1719,20.7031 Q616.8438,20.3281 616.2344,20.1094 Q615.625,19.8906 615,19.8906 Q614.2344,19.8906 613.5938,20.2188 Q612.9688,20.5469 612.4688,21.2969 Q611.9844,22.0469 611.9844,23.0781 L611.9844,24.1719 Q611.9844,25.4063 612.875,26.2344 Q613.7656,27.0469 615.3594,27.0469 Q616.2969,27.0469 616.9531,26.7969 Q617.3438,26.6406 617.7656,26.2031 Q618.0313,25.9375 618.1719,25.8594 Q618.3281,25.7813 618.5313,25.7813 Q618.8594,25.7813 619.1094,26.0469 Q619.375,26.2969 619.375,26.6406 Q619.375,26.9844 619.0313,27.3906 Q618.5313,27.9688 617.7344,28.2969 Q616.6563,28.75 615.3594,28.75 Q613.8438,28.75 612.6406,28.125 Q611.6563,27.625 610.9688,26.5625 Q610.2813,25.4844 610.2813,24.2031 L610.2813,23.0469 Q610.2813,21.7188 610.8906,20.5781 Q611.5156,19.4219 612.6094,18.8125 Q613.7031,18.1875 614.9375,18.1875 Q615.6719,18.1875 616.3125,18.3594 Q616.9688,18.5156 617.5156,18.875 Z " fill="#000000"/><text fill="#000000" font-family="sans-serif" font-size="14" lengthAdjust="spacing" textLength="79" x="635.25" y="28.7969">Repositories</text><line style="stroke:#181818;stroke-width:0.5;" x1="472.5" x2="844.5" y1="39" y2="39"/><line style="stroke:#181818;stroke-width:0.5;" x1="472.5" x2="844.5" y1="47" y2="47"/><text fill="#000000" font-family="sans-serif" font-size="14" lengthAdjust="spacing" textLength="94" x="477.5" y="66.1074">-Repositories()</text><text fill="#000000" font-family="sans-serif" font-size="14" lengthAdjust="spacing" textLength="182" x="477.5" y="84.7285">+getInstance() : Repositories</text><text fill="#000000" font-family="sans-serif" font-size="14" lengthAdjust="spacing" textLength="305" x="477.5" y="103.3496">+getEmployeeRepository(); employeeRepository</text><text fill="#000000" font-family="sans-serif" font-size="14" lengthAdjust="spacing" textLength="362" x="477.5" y="121.9707">+getGreenSpaceRepository(); getGreenSpaceRepository</text><text fill="#000000" font-family="sans-serif" font-size="14" lengthAdjust="spacing" textLength="264" x="477.5" y="140.5918">+getTaskRepository(); getTaskRepository</text></g><!--class EmployeeRepository--><g id="elem_EmployeeRepository"><rect codeLine="50" fill="#F1F1F1" height="66.6211" id="EmployeeRepository" rx="2.5" ry="2.5" style="stroke:#181818;stroke-width:0.5;" width="182" x="325.5" y="209"/><ellipse cx="349.5" cy="225" fill="#ADD1B2" rx="11" ry="11" style="stroke:#181818;stroke-width:1.0;"/><path d="M352.2656,220.875 Q352.4219,220.6563 352.6094,220.5469 Q352.7969,220.4375 353.0156,220.4375 Q353.3906,220.4375 353.625,220.7031 Q353.8594,220.9531 353.8594,221.5625 L353.8594,223.0156 Q353.8594,223.625 353.625,223.8906 Q353.3906,224.1563 353.0156,224.1563 Q352.6719,224.1563 352.4688,223.9531 Q352.2656,223.7656 352.1563,223.25 Q352.1094,222.8906 351.9219,222.7031 Q351.5938,222.3281 350.9844,222.1094 Q350.375,221.8906 349.75,221.8906 Q348.9844,221.8906 348.3438,222.2188 Q347.7188,222.5469 347.2188,223.2969 Q346.7344,224.0469 346.7344,225.0781 L346.7344,226.1719 Q346.7344,227.4063 347.625,228.2344 Q348.5156,229.0469 350.1094,229.0469 Q351.0469,229.0469 351.7031,228.7969 Q352.0938,228.6406 352.5156,228.2031 Q352.7813,227.9375 352.9219,227.8594 Q353.0781,227.7813 353.2813,227.7813 Q353.6094,227.7813 353.8594,228.0469 Q354.125,228.2969 354.125,228.6406 Q354.125,228.9844 353.7813,229.3906 Q353.2813,229.9688 352.4844,230.2969 Q351.4063,230.75 350.1094,230.75 Q348.5938,230.75 347.3906,230.125 Q346.4063,229.625 345.7188,228.5625 Q345.0313,227.4844 345.0313,226.2031 L345.0313,225.0469 Q345.0313,223.7188 345.6406,222.5781 Q346.2656,221.4219 347.3594,220.8125 Q348.4531,220.1875 349.6875,220.1875 Q350.4219,220.1875 351.0625,220.3594 Q351.7188,220.5156 352.2656,220.875 Z " fill="#000000"/><text fill="#000000" font-family="sans-serif" font-size="14" lengthAdjust="spacing" textLength="130" x="365.5" y="230.7969">EmployeeRepository</text><line style="stroke:#181818;stroke-width:0.5;" x1="326.5" x2="506.5" y1="241" y2="241"/><line style="stroke:#181818;stroke-width:0.5;" x1="326.5" x2="506.5" y1="249" y2="249"/><text fill="#000000" font-family="sans-serif" font-size="14" lengthAdjust="spacing" textLength="170" x="331.5" y="268.1074">+getEmployee(): Employee</text></g><!--class TasksRepository--><g id="elem_TasksRepository"><rect codeLine="56" fill="#F1F1F1" height="66.6211" id="TasksRepository" rx="2.5" ry="2.5" style="stroke:#181818;stroke-width:0.5;" width="276" x="542.5" y="209"/><ellipse cx="623.25" cy="225" fill="#ADD1B2" rx="11" ry="11" style="stroke:#181818;stroke-width:1.0;"/><path d="M626.0156,220.875 Q626.1719,220.6563 626.3594,220.5469 Q626.5469,220.4375 626.7656,220.4375 Q627.1406,220.4375 627.375,220.7031 Q627.6094,220.9531 627.6094,221.5625 L627.6094,223.0156 Q627.6094,223.625 627.375,223.8906 Q627.1406,224.1563 626.7656,224.1563 Q626.4219,224.1563 626.2188,223.9531 Q626.0156,223.7656 625.9063,223.25 Q625.8594,222.8906 625.6719,222.7031 Q625.3438,222.3281 624.7344,222.1094 Q624.125,221.8906 623.5,221.8906 Q622.7344,221.8906 622.0938,222.2188 Q621.4688,222.5469 620.9688,223.2969 Q620.4844,224.0469 620.4844,225.0781 L620.4844,226.1719 Q620.4844,227.4063 621.375,228.2344 Q622.2656,229.0469 623.8594,229.0469 Q624.7969,229.0469 625.4531,228.7969 Q625.8438,228.6406 626.2656,228.2031 Q626.5313,227.9375 626.6719,227.8594 Q626.8281,227.7813 627.0313,227.7813 Q627.3594,227.7813 627.6094,228.0469 Q627.875,228.2969 627.875,228.6406 Q627.875,228.9844 627.5313,229.3906 Q627.0313,229.9688 626.2344,230.2969 Q625.1563,230.75 623.8594,230.75 Q622.3438,230.75 621.1406,230.125 Q620.1563,229.625 619.4688,228.5625 Q618.7813,227.4844 618.7813,226.2031 L618.7813,225.0469 Q618.7813,223.7188 619.3906,222.5781 Q620.0156,221.4219 621.1094,220.8125 Q622.2031,220.1875 623.4375,220.1875 Q624.1719,220.1875 624.8125,220.3594 Q625.4688,220.5156 626.0156,220.875 Z " fill="#000000"/><text fill="#000000" font-family="sans-serif" font-size="14" lengthAdjust="spacing" textLength="106" x="643.75" y="230.7969">TasksRepository</text><line style="stroke:#181818;stroke-width:0.5;" x1="543.5" x2="817.5" y1="241" y2="241"/><line style="stroke:#181818;stroke-width:0.5;" x1="543.5" x2="817.5" y1="249" y2="249"/><text fill="#000000" font-family="sans-serif" font-size="14" lengthAdjust="spacing" textLength="264" x="548.5" y="268.1074">+getToDoListEntries(): List&lt;ToDoEntries&gt;</text></g><!--class GreenSpacesRepository--><g id="elem_GreenSpacesRepository"><rect codeLine="59" fill="#F1F1F1" height="66.6211" id="GreenSpacesRepository" rx="2.5" ry="2.5" style="stroke:#181818;stroke-width:0.5;" width="247" x="854" y="209"/><ellipse cx="896" cy="225" fill="#ADD1B2" rx="11" ry="11" style="stroke:#181818;stroke-width:1.0;"/><path d="M898.7656,220.875 Q898.9219,220.6563 899.1094,220.5469 Q899.2969,220.4375 899.5156,220.4375 Q899.8906,220.4375 900.125,220.7031 Q900.3594,220.9531 900.3594,221.5625 L900.3594,223.0156 Q900.3594,223.625 900.125,223.8906 Q899.8906,224.1563 899.5156,224.1563 Q899.1719,224.1563 898.9688,223.9531 Q898.7656,223.7656 898.6563,223.25 Q898.6094,222.8906 898.4219,222.7031 Q898.0938,222.3281 897.4844,222.1094 Q896.875,221.8906 896.25,221.8906 Q895.4844,221.8906 894.8438,222.2188 Q894.2188,222.5469 893.7188,223.2969 Q893.2344,224.0469 893.2344,225.0781 L893.2344,226.1719 Q893.2344,227.4063 894.125,228.2344 Q895.0156,229.0469 896.6094,229.0469 Q897.5469,229.0469 898.2031,228.7969 Q898.5938,228.6406 899.0156,228.2031 Q899.2813,227.9375 899.4219,227.8594 Q899.5781,227.7813 899.7813,227.7813 Q900.1094,227.7813 900.3594,228.0469 Q900.625,228.2969 900.625,228.6406 Q900.625,228.9844 900.2813,229.3906 Q899.7813,229.9688 898.9844,230.2969 Q897.9063,230.75 896.6094,230.75 Q895.0938,230.75 893.8906,230.125 Q892.9063,229.625 892.2188,228.5625 Q891.5313,227.4844 891.5313,226.2031 L891.5313,225.0469 Q891.5313,223.7188 892.1406,222.5781 Q892.7656,221.4219 893.8594,220.8125 Q894.9531,220.1875 896.1875,220.1875 Q896.9219,220.1875 897.5625,220.3594 Q898.2188,220.5156 898.7656,220.875 Z " fill="#000000"/><text fill="#000000" font-family="sans-serif" font-size="14" lengthAdjust="spacing" textLength="155" x="916" y="230.7969">GreenSpacesRepository</text><line style="stroke:#181818;stroke-width:0.5;" x1="855" x2="1100" y1="241" y2="241"/><line style="stroke:#181818;stroke-width:0.5;" x1="855" x2="1100" y1="249" y2="249"/><text fill="#000000" font-family="sans-serif" font-size="14" lengthAdjust="spacing" textLength="235" x="860" y="268.1074">+getGreenSpacesList(): GreenSpace</text></g><!--link AddEntryAgendaUI to AddEntryAgendaController--><g id="link_AddEntryAgendaUI_AddEntryAgendaController"><path codeLine="63" d="M158.35,77.5 C165.87,77.5 173.88,77.5 186.96,77.5 " fill="none" id="AddEntryAgendaUI-to-AddEntryAgendaController" style="stroke:#181818;stroke-width:1.0;stroke-dasharray:7.0,7.0;"/><polygon fill="#181818" points="192.96,77.5,183.96,73.5,187.96,77.5,183.96,81.5,192.96,77.5" style="stroke:#181818;stroke-width:1.0;"/></g><!--link AddEntryAgendaController to Repositories--><g id="link_AddEntryAgendaController_Repositories"><path codeLine="65" d="M394.25,77.5 C406.71,77.5 415.17,77.5 415.17,77.5 C415.17,77.5 436.57,77.5 465.37,77.5 " fill="none" id="AddEntryAgendaController-to-Repositories" style="stroke:#181818;stroke-width:1.0;stroke-dasharray:7.0,7.0;"/><polygon fill="#181818" points="471.37,77.5,462.37,73.5,466.37,77.5,462.37,81.5,471.37,77.5" style="stroke:#181818;stroke-width:1.0;"/><text fill="#000000" font-family="sans-serif" font-size="13" lengthAdjust="spacing" textLength="7" x="456.3278" y="74.1736">1</text></g><!--link Repositories to Repositories--><g id="link_Repositories_Repositories"><path codeLine="67" d="M845.56,61.61 C866.76,64.59 880.5,69.88 880.5,77.5 C880.5,85.12 872.7016,89.5748 851.5016,92.5548 " fill="none" id="Repositories-to-Repositories" style="stroke:#181818;stroke-width:1.0;"/><polygon fill="#181818" points="845.56,93.39,855.0292,96.0983,850.5113,92.694,853.9156,88.1762,845.56,93.39" style="stroke:#181818;stroke-width:1.0;"/><text fill="#000000" font-family="sans-serif" font-size="13" lengthAdjust="spacing" textLength="75" x="886.5" y="83.0283">getInstance()</text><text fill="#000000" font-family="sans-serif" font-size="13" lengthAdjust="spacing" textLength="7" x="853.5993" y="57.6133">1</text><text fill="#000000" font-family="sans-serif" font-size="13" lengthAdjust="spacing" textLength="7" x="853.5993" y="90.734">1</text></g><!--link Repositories to EmployeeRepository--><g id="link_Repositories_EmployeeRepository"><path codeLine="68" d="M555.17,148.1 C523.82,169.21 495.8363,188.0579 469.9163,205.5179 " fill="none" id="Repositories-to-EmployeeRepository" style="stroke:#181818;stroke-width:1.0;"/><polygon fill="#181818" points="464.94,208.87,474.6392,207.1594,469.0869,206.0766,470.1697,200.5243,464.94,208.87" style="stroke:#181818;stroke-width:1.0;"/><text fill="#000000" font-family="sans-serif" font-size="13" lengthAdjust="spacing" textLength="7" x="537.1532" y="170.2951">1</text><text fill="#000000" font-family="sans-serif" font-size="13" lengthAdjust="spacing" textLength="7" x="466.7876" y="197.6699">1</text></g><!--link Repositories to TasksRepository--><g id="link_Repositories_TasksRepository"><path codeLine="69" d="M667.89,148.1 C670.74,169.21 672.9363,185.4641 675.2963,202.9241 " fill="none" id="Repositories-to-TasksRepository" style="stroke:#181818;stroke-width:1.0;"/><polygon fill="#181818" points="676.1,208.87,678.8584,199.4153,675.4303,203.9151,670.9305,200.4869,676.1,208.87" style="stroke:#181818;stroke-width:1.0;"/><text fill="#000000" font-family="sans-serif" font-size="13" lengthAdjust="spacing" textLength="7" x="661.4974" y="170.2951">1</text><text fill="#000000" font-family="sans-serif" font-size="13" lengthAdjust="spacing" textLength="7" x="667.5447" y="197.6699">1</text></g><!--link Repositories to GreenSpacesRepository--><g id="link_Repositories_GreenSpacesRepository"><path codeLine="70" d="M794.71,148.1 C836.03,169.21 874.1371,188.6799 908.3071,206.1399 " fill="none" id="Repositories-to-GreenSpacesRepository" style="stroke:#181818;stroke-width:1.0;"/><polygon fill="#181818" points="913.65,208.87,907.4557,201.2129,909.1976,206.5949,903.8156,208.3368,913.65,208.87" style="stroke:#181818;stroke-width:1.0;"/><text fill="#000000" font-family="sans-serif" font-size="13" lengthAdjust="spacing" textLength="7" x="801.3957" y="170.2951">1</text><text fill="#000000" font-family="sans-serif" font-size="13" lengthAdjust="spacing" textLength="7" x="893.3905" y="197.6699">1</text></g><!--link AddEntryAgendaController to Employee--><g id="link_AddEntryAgendaController_Employee"><path codeLine="72" d="M295.13,101.54 C298.83,153.64 307.5,276 307.5,276 C307.5,276 345.2548,305.218 394.5548,343.368 " fill="none" id="AddEntryAgendaController-to-Employee" style="stroke:#181818;stroke-width:1.0;stroke-dasharray:7.0,7.0;"/><polygon fill="#181818" points="399.3,347.04,394.6302,338.3686,395.3457,343.98,389.7343,344.6955,399.3,347.04" style="stroke:#181818;stroke-width:1.0;"/></g><!--link EmployeeRepository to Employee--><g id="link_EmployeeRepository_Employee"><path codeLine="74" d="M436.26,276.29 C446.33,292.99 456.1949,309.3399 469.6949,331.7599 " fill="none" id="EmployeeRepository-to-Employee" style="stroke:#181818;stroke-width:1.0;"/><polygon fill="#181818" points="472.79,336.9,471.5741,327.1265,470.2108,332.6166,464.7207,331.2532,472.79,336.9" style="stroke:#181818;stroke-width:1.0;"/><text fill="#000000" font-family="sans-serif" font-size="13" lengthAdjust="spacing" textLength="7" x="432.0547" y="297.6445">1</text><text fill="#000000" font-family="sans-serif" font-size="13" lengthAdjust="spacing" textLength="7" x="460.9631" y="325.7096">1</text></g><!--link TasksRepository to Employee--><g id="link_TasksRepository_Employee"><path codeLine="75" d="M660.74,276.29 C650.67,292.99 640.8051,309.3399 627.3051,331.7599 " fill="none" id="TasksRepository-to-Employee" style="stroke:#181818;stroke-width:1.0;"/><polygon fill="#181818" points="624.21,336.9,632.2793,331.2532,626.7892,332.6166,625.4259,327.1265,624.21,336.9" style="stroke:#181818;stroke-width:1.0;"/><text fill="#000000" font-family="sans-serif" font-size="13" lengthAdjust="spacing" textLength="7" x="649.7422" y="297.6445">1</text><text fill="#000000" font-family="sans-serif" font-size="13" lengthAdjust="spacing" textLength="7" x="621.6103" y="325.7096">1</text></g><!--link GreenSpacesRepository to Employee--><g id="link_GreenSpacesRepository_Employee"><path codeLine="76" d="M913.74,276.05 C856.9,305.06 776.864,345.922 702.934,383.662 " fill="none" id="GreenSpacesRepository-to-Employee" style="stroke:#181818;stroke-width:1.0;"/><polygon fill="#181818" points="697.59,386.39,707.4246,385.8606,702.0433,384.1167,703.7873,378.7353,697.59,386.39" style="stroke:#181818;stroke-width:1.0;"/><text fill="#000000" font-family="sans-serif" font-size="13" lengthAdjust="spacing" textLength="7" x="894.7593" y="297.6281">1</text><text fill="#000000" font-family="sans-serif" font-size="13" lengthAdjust="spacing" textLength="7" x="705.4579" y="379.0159">1</text></g><!--link Employee to Task--><g id="link_Employee_Task"><path codeLine="78" d="M548.5,590.17 C548.5,617.62 548.5,639.46 548.5,662.93 " fill="none" id="Employee-to-Task" style="stroke:#181818;stroke-width:1.0;"/><polygon fill="#181818" points="548.5,668.93,552.5,659.93,548.5,663.93,544.5,659.93,548.5,668.93" style="stroke:#181818;stroke-width:1.0;"/><text fill="#000000" font-family="sans-serif" font-size="13" lengthAdjust="spacing" textLength="50" x="549.5" y="635.0283">registers</text></g><!--SRC=[VLHTZzCm47pthrZTIrELdE2re4eLTqAL40-q_00tsKjD7Jkojq0uyTzPjoMnyq5V6k_Cx8vteYpyMPb6Ebb3ROqjJixM2EGkA7gaaSLPLhYdLYCuB4YQIiS4VvAb_QbC1IzI-nZHoY2r3K9ZTHiEOZ41MaTMHAf2I- -tH4uTBuIxmfgz-etmLeY5nXS2ik1KTI8eLR2Zh15N2JpNZROjugi0_kL6ycNMiET6fhgLZihHgPGKwa_yTwjYBPKUC9kJDVZbKX_HCQ8CtSgoh9NtF196NKZ-QcIBhXF5xMHPEcIBQRMqnIJxkpqU5Ed8lLW1jtWsvDfjXQQKcIVfA4n_mmjvif-Lfm0hzClGPFL3QXKyPjYBbaBy4VTb7QG_lugySeXcpndZ6Zvrpo8Vz6GdeN8_YRoRVj_0p3YUTX-tJTn_jFnijKRt6bbAETzsCVOL6-iLsQkPUy19CRjU6rPG8UqC-pC5Pals7PDwohztfKFRRFaUS5IzAcwIVZsfQ0QAb67N8qrQ35TDt-8Uups8LUGvMwuxLgyB_NmiWg0vf3a6QJX-EFHfRheM_JMIHglaXZxeGv_eTU6OXk71usOkyo6vHrW43-yUqin4ads0ytnCuwIJvETLumNFSmTBdITEhkv_5ttSz16E7KqQ5WCtqwH99zFKRl0L2jtN_8MlE5zqlFU_]--></g></svg>