<?xml version="1.0" encoding="us-ascii" standalone="no"?><svg xmlns="http://www.w3.org/2000/svg" xmlns:xlink="http://www.w3.org/1999/xlink" contentStyleType="text/css" height="1059px" preserveAspectRatio="none" style="width:1492px;height:1059px;background:#FFFFFF;" version="1.1" viewBox="0 0 1492 1059" width="1492px" zoomAndPan="magnify"><defs/><g><!--class Employee--><g id="elem_Employee"><rect codeLine="10" fill="#F1F1F1" height="234.2109" id="Employee" rx="2.5" ry="2.5" style="stroke:#181818;stroke-width:0.5;" width="1227" x="258" y="449"/><ellipse cx="836.25" cy="465" fill="#ADD1B2" rx="11" ry="11" style="stroke:#181818;stroke-width:1.0;"/><path d="M839.0156,460.875 Q839.1719,460.6563 839.3594,460.5469 Q839.5469,460.4375 839.7656,460.4375 Q840.1406,460.4375 840.375,460.7031 Q840.6094,460.9531 840.6094,461.5625 L840.6094,463.0156 Q840.6094,463.625 840.375,463.8906 Q840.1406,464.1563 839.7656,464.1563 Q839.4219,464.1563 839.2188,463.9531 Q839.0156,463.7656 838.9063,463.25 Q838.8594,462.8906 838.6719,462.7031 Q838.3438,462.3281 837.7344,462.1094 Q837.125,461.8906 836.5,461.8906 Q835.7344,461.8906 835.0938,462.2188 Q834.4688,462.5469 833.9688,463.2969 Q833.4844,464.0469 833.4844,465.0781 L833.4844,466.1719 Q833.4844,467.4063 834.375,468.2344 Q835.2656,469.0469 836.8594,469.0469 Q837.7969,469.0469 838.4531,468.7969 Q838.8438,468.6406 839.2656,468.2031 Q839.5313,467.9375 839.6719,467.8594 Q839.8281,467.7813 840.0313,467.7813 Q840.3594,467.7813 840.6094,468.0469 Q840.875,468.2969 840.875,468.6406 Q840.875,468.9844 840.5313,469.3906 Q840.0313,469.9688 839.2344,470.2969 Q838.1563,470.75 836.8594,470.75 Q835.3438,470.75 834.1406,470.125 Q833.1563,469.625 832.4688,468.5625 Q831.7813,467.4844 831.7813,466.2031 L831.7813,465.0469 Q831.7813,463.7188 832.3906,462.5781 Q833.0156,461.4219 834.1094,460.8125 Q835.2031,460.1875 836.4375,460.1875 Q837.1719,460.1875 837.8125,460.3594 Q838.4688,460.5156 839.0156,460.875 Z " fill="#000000"/><text fill="#000000" font-family="sans-serif" font-size="14" lengthAdjust="spacing" textLength="62" x="856.75" y="470.7969">Employee</text><line style="stroke:#181818;stroke-width:0.5;" x1="259" x2="1484" y1="481" y2="481"/><text fill="#000000" font-family="sans-serif" font-size="14" lengthAdjust="spacing" textLength="89" x="264" y="500.1074">-name : String</text><text fill="#000000" font-family="sans-serif" font-size="14" lengthAdjust="spacing" textLength="103" x="264" y="518.7285">-birthdate : Date</text><text fill="#000000" font-family="sans-serif" font-size="14" lengthAdjust="spacing" textLength="87" x="264" y="537.3496">-email : String</text><text fill="#000000" font-family="sans-serif" font-size="14" lengthAdjust="spacing" textLength="121" x="264" y="555.9707">-phoneNumber : int</text><text fill="#000000" font-family="sans-serif" font-size="14" lengthAdjust="spacing" textLength="142" x="264" y="574.5918">-admission date : Date</text><text fill="#000000" font-family="sans-serif" font-size="14" lengthAdjust="spacing" textLength="157" x="264" y="593.2129">-taxpayerNumber : String</text><text fill="#000000" font-family="sans-serif" font-size="14" lengthAdjust="spacing" textLength="105" x="264" y="611.834">-address : String</text><text fill="#000000" font-family="sans-serif" font-size="14" lengthAdjust="spacing" textLength="126" x="264" y="630.4551">-docNumber : String</text><text fill="#000000" font-family="sans-serif" font-size="14" lengthAdjust="spacing" textLength="100" x="264" y="649.0762">-jobTitle : String</text><line style="stroke:#181818;stroke-width:0.5;" x1="259" x2="1484" y1="656.5898" y2="656.5898"/><text fill="#000000" font-family="sans-serif" font-size="14" lengthAdjust="spacing" textLength="1215" x="264" y="675.6973">+addTaskAgenda(selectedGreenSpace : GreenSpace, selectedTask : Task, selectedDate : LocalDate, startTime : LocalTime, agenda : TaskPosition, userValidation : boolean) : Optional&lt;Task&gt;</text></g><!--class Task--><g id="elem_Task"><rect codeLine="26" fill="#F1F1F1" height="290.0742" id="Task" rx="2.5" ry="2.5" style="stroke:#181818;stroke-width:0.5;" width="214" x="764.5" y="762"/><ellipse cx="851.75" cy="778" fill="#ADD1B2" rx="11" ry="11" style="stroke:#181818;stroke-width:1.0;"/><path d="M854.5156,773.875 Q854.6719,773.6563 854.8594,773.5469 Q855.0469,773.4375 855.2656,773.4375 Q855.6406,773.4375 855.875,773.7031 Q856.1094,773.9531 856.1094,774.5625 L856.1094,776.0156 Q856.1094,776.625 855.875,776.8906 Q855.6406,777.1563 855.2656,777.1563 Q854.9219,777.1563 854.7188,776.9531 Q854.5156,776.7656 854.4063,776.25 Q854.3594,775.8906 854.1719,775.7031 Q853.8438,775.3281 853.2344,775.1094 Q852.625,774.8906 852,774.8906 Q851.2344,774.8906 850.5938,775.2188 Q849.9688,775.5469 849.4688,776.2969 Q848.9844,777.0469 848.9844,778.0781 L848.9844,779.1719 Q848.9844,780.4063 849.875,781.2344 Q850.7656,782.0469 852.3594,782.0469 Q853.2969,782.0469 853.9531,781.7969 Q854.3438,781.6406 854.7656,781.2031 Q855.0313,780.9375 855.1719,780.8594 Q855.3281,780.7813 855.5313,780.7813 Q855.8594,780.7813 856.1094,781.0469 Q856.375,781.2969 856.375,781.6406 Q856.375,781.9844 856.0313,782.3906 Q855.5313,782.9688 854.7344,783.2969 Q853.6563,783.75 852.3594,783.75 Q850.8438,783.75 849.6406,783.125 Q848.6563,782.625 847.9688,781.5625 Q847.2813,780.4844 847.2813,779.2031 L847.2813,778.0469 Q847.2813,776.7188 847.8906,775.5781 Q848.5156,774.4219 849.6094,773.8125 Q850.7031,773.1875 851.9375,773.1875 Q852.6719,773.1875 853.3125,773.3594 Q853.9688,773.5156 854.5156,773.875 Z " fill="#000000"/><text fill="#000000" font-family="sans-serif" font-size="14" lengthAdjust="spacing" textLength="31" x="872.25" y="783.7969">Task</text><line style="stroke:#181818;stroke-width:0.5;" x1="765.5" x2="977.5" y1="794" y2="794"/><text fill="#000000" font-family="sans-serif" font-size="14" lengthAdjust="spacing" textLength="72" x="770.5" y="813.1074">-title: String</text><text fill="#000000" font-family="sans-serif" font-size="14" lengthAdjust="spacing" textLength="119" x="770.5" y="831.7285">-description: String</text><text fill="#000000" font-family="sans-serif" font-size="14" lengthAdjust="spacing" textLength="71" x="770.5" y="850.3496">-date: Date</text><text fill="#000000" font-family="sans-serif" font-size="14" lengthAdjust="spacing" textLength="182" x="770.5" y="868.9707">-taskStartPeriod: TaskPeriod</text><text fill="#000000" font-family="sans-serif" font-size="14" lengthAdjust="spacing" textLength="161" x="770.5" y="887.5918">taskExpectedDuration: int</text><text fill="#000000" font-family="sans-serif" font-size="14" lengthAdjust="spacing" textLength="72" x="770.5" y="906.2129">type: String</text><text fill="#000000" font-family="sans-serif" font-size="14" lengthAdjust="spacing" textLength="165" x="770.5" y="924.834">greenSpace: GreenSpace</text><text fill="#000000" font-family="sans-serif" font-size="14" lengthAdjust="spacing" textLength="142" x="770.5" y="943.4551">urgency: TaskUrgency</text><text fill="#000000" font-family="sans-serif" font-size="14" lengthAdjust="spacing" textLength="117" x="770.5" y="962.0762">status: TaskStatus</text><text fill="#000000" font-family="sans-serif" font-size="14" lengthAdjust="spacing" textLength="137" x="770.5" y="980.6973">assignedTeam: Team</text><text fill="#000000" font-family="sans-serif" font-size="14" lengthAdjust="spacing" textLength="202" x="770.5" y="999.3184">assignedVehicles: List&lt;Vehicle&gt;</text><text fill="#000000" font-family="sans-serif" font-size="14" lengthAdjust="spacing" textLength="96" x="770.5" y="1017.9395">startDate: Date</text><text fill="#000000" font-family="sans-serif" font-size="14" lengthAdjust="spacing" textLength="165" x="770.5" y="1036.5605">taskPosition: TaskPosition</text><line style="stroke:#181818;stroke-width:0.5;" x1="765.5" x2="977.5" y1="1044.0742" y2="1044.0742"/></g><!--class AddEntryAgendaController--><g id="elem_AddEntryAgendaController"><rect codeLine="43" fill="#F1F1F1" height="252.832" id="AddEntryAgendaController" rx="2.5" ry="2.5" style="stroke:#181818;stroke-width:0.5;" width="672" x="193.5" y="7"/><ellipse cx="440.75" cy="23" fill="#ADD1B2" rx="11" ry="11" style="stroke:#181818;stroke-width:1.0;"/><path d="M443.5156,18.875 Q443.6719,18.6563 443.8594,18.5469 Q444.0469,18.4375 444.2656,18.4375 Q444.6406,18.4375 444.875,18.7031 Q445.1094,18.9531 445.1094,19.5625 L445.1094,21.0156 Q445.1094,21.625 444.875,21.8906 Q444.6406,22.1563 444.2656,22.1563 Q443.9219,22.1563 443.7188,21.9531 Q443.5156,21.7656 443.4063,21.25 Q443.3594,20.8906 443.1719,20.7031 Q442.8438,20.3281 442.2344,20.1094 Q441.625,19.8906 441,19.8906 Q440.2344,19.8906 439.5938,20.2188 Q438.9688,20.5469 438.4688,21.2969 Q437.9844,22.0469 437.9844,23.0781 L437.9844,24.1719 Q437.9844,25.4063 438.875,26.2344 Q439.7656,27.0469 441.3594,27.0469 Q442.2969,27.0469 442.9531,26.7969 Q443.3438,26.6406 443.7656,26.2031 Q444.0313,25.9375 444.1719,25.8594 Q444.3281,25.7813 444.5313,25.7813 Q444.8594,25.7813 445.1094,26.0469 Q445.375,26.2969 445.375,26.6406 Q445.375,26.9844 445.0313,27.3906 Q444.5313,27.9688 443.7344,28.2969 Q442.6563,28.75 441.3594,28.75 Q439.8438,28.75 438.6406,28.125 Q437.6563,27.625 436.9688,26.5625 Q436.2813,25.4844 436.2813,24.2031 L436.2813,23.0469 Q436.2813,21.7188 436.8906,20.5781 Q437.5156,19.4219 438.6094,18.8125 Q439.7031,18.1875 440.9375,18.1875 Q441.6719,18.1875 442.3125,18.3594 Q442.9688,18.5156 443.5156,18.875 Z " fill="#000000"/><text fill="#000000" font-family="sans-serif" font-size="14" lengthAdjust="spacing" textLength="169" x="461.25" y="28.7969">AddEntryAgendaController</text><line style="stroke:#181818;stroke-width:0.5;" x1="194.5" x2="864.5" y1="39" y2="39"/><line style="stroke:#181818;stroke-width:0.5;" x1="194.5" x2="864.5" y1="47" y2="47"/><text fill="#000000" font-family="sans-serif" font-size="14" lengthAdjust="spacing" textLength="224" x="199.5" y="66.1074">+getGreenSpaceRepository() : void</text><text fill="#000000" font-family="sans-serif" font-size="14" lengthAdjust="spacing" textLength="175" x="199.5" y="84.7285">+getTaskRepository() : void</text><text fill="#000000" font-family="sans-serif" font-size="14" lengthAdjust="spacing" textLength="173" x="199.5" y="103.3496">+getAuthRepository() : void</text><text fill="#000000" font-family="sans-serif" font-size="14" lengthAdjust="spacing" textLength="150" x="199.5" y="121.9707">+getUserEmail() : String</text><text fill="#000000" font-family="sans-serif" font-size="14" lengthAdjust="spacing" textLength="255" x="199.5" y="140.5918">+getGreenSpaces() : List&lt;GreenSpace&gt;</text><text fill="#000000" font-family="sans-serif" font-size="14" lengthAdjust="spacing" textLength="412" x="199.5" y="159.2129">+getTasksByGreenSpace (greenSpace Greenspace): List&lt;Task&gt;</text><text fill="#000000" font-family="sans-serif" font-size="14" lengthAdjust="spacing" textLength="381" x="199.5" y="177.834">+getGreenSpaceList(userEmail : String) : List&lt;GreenSpace&gt;</text><text fill="#000000" font-family="sans-serif" font-size="14" lengthAdjust="spacing" textLength="571" x="199.5" y="196.4551">+filterGreenSpacesByManager (greenSpaces : List&lt;GreenSpace&gt;, managerName : String)</text><text fill="#000000" font-family="sans-serif" font-size="14" lengthAdjust="spacing" textLength="252" x="199.5" y="215.0762">+currentUserLogInValidation() : boolean</text><text fill="#000000" font-family="sans-serif" font-size="14" lengthAdjust="spacing" textLength="660" x="199.5" y="233.6973">+addTaskToAgenda (selectedTask : Task, startDate LocalDate, startTime : LocalTime) : Optional&lt;Task&gt;</text><text fill="#000000" font-family="sans-serif" font-size="14" lengthAdjust="spacing" textLength="105" x="199.5" y="252.3184">+initialize() : void</text></g><!--class AddEntryAgendaUI--><g id="elem_AddEntryAgendaUI"><rect codeLine="59" fill="#F1F1F1" height="48" id="AddEntryAgendaUI" rx="2.5" ry="2.5" style="stroke:#181818;stroke-width:0.5;" width="151" x="7" y="109.5"/><ellipse cx="22" cy="125.5" fill="#ADD1B2" rx="11" ry="11" style="stroke:#181818;stroke-width:1.0;"/><path d="M24.7656,121.375 Q24.9219,121.1563 25.1094,121.0469 Q25.2969,120.9375 25.5156,120.9375 Q25.8906,120.9375 26.125,121.2031 Q26.3594,121.4531 26.3594,122.0625 L26.3594,123.5156 Q26.3594,124.125 26.125,124.3906 Q25.8906,124.6563 25.5156,124.6563 Q25.1719,124.6563 24.9688,124.4531 Q24.7656,124.2656 24.6563,123.75 Q24.6094,123.3906 24.4219,123.2031 Q24.0938,122.8281 23.4844,122.6094 Q22.875,122.3906 22.25,122.3906 Q21.4844,122.3906 20.8438,122.7188 Q20.2188,123.0469 19.7188,123.7969 Q19.2344,124.5469 19.2344,125.5781 L19.2344,126.6719 Q19.2344,127.9063 20.125,128.7344 Q21.0156,129.5469 22.6094,129.5469 Q23.5469,129.5469 24.2031,129.2969 Q24.5938,129.1406 25.0156,128.7031 Q25.2813,128.4375 25.4219,128.3594 Q25.5781,128.2813 25.7813,128.2813 Q26.1094,128.2813 26.3594,128.5469 Q26.625,128.7969 26.625,129.1406 Q26.625,129.4844 26.2813,129.8906 Q25.7813,130.4688 24.9844,130.7969 Q23.9063,131.25 22.6094,131.25 Q21.0938,131.25 19.8906,130.625 Q18.9063,130.125 18.2188,129.0625 Q17.5313,127.9844 17.5313,126.7031 L17.5313,125.5469 Q17.5313,124.2188 18.1406,123.0781 Q18.7656,121.9219 19.8594,121.3125 Q20.9531,120.6875 22.1875,120.6875 Q22.9219,120.6875 23.5625,120.8594 Q24.2188,121.0156 24.7656,121.375 Z " fill="#000000"/><text fill="#000000" font-family="sans-serif" font-size="14" lengthAdjust="spacing" textLength="119" x="36" y="131.2969">AddEntryAgendaUI</text><line style="stroke:#181818;stroke-width:0.5;" x1="8" x2="157" y1="141.5" y2="141.5"/><line style="stroke:#181818;stroke-width:0.5;" x1="8" x2="157" y1="149.5" y2="149.5"/></g><!--class Repositories--><g id="elem_Repositories"><rect codeLine="63" fill="#F1F1F1" height="141.1055" id="Repositories" rx="2.5" ry="2.5" style="stroke:#181818;stroke-width:0.5;" width="378" x="900.5" y="63"/><ellipse cx="1045.75" cy="79" fill="#ADD1B2" rx="11" ry="11" style="stroke:#181818;stroke-width:1.0;"/><path d="M1048.5156,74.875 Q1048.6719,74.6563 1048.8594,74.5469 Q1049.0469,74.4375 1049.2656,74.4375 Q1049.6406,74.4375 1049.875,74.7031 Q1050.1094,74.9531 1050.1094,75.5625 L1050.1094,77.0156 Q1050.1094,77.625 1049.875,77.8906 Q1049.6406,78.1563 1049.2656,78.1563 Q1048.9219,78.1563 1048.7188,77.9531 Q1048.5156,77.7656 1048.4063,77.25 Q1048.3594,76.8906 1048.1719,76.7031 Q1047.8438,76.3281 1047.2344,76.1094 Q1046.625,75.8906 1046,75.8906 Q1045.2344,75.8906 1044.5938,76.2188 Q1043.9688,76.5469 1043.4688,77.2969 Q1042.9844,78.0469 1042.9844,79.0781 L1042.9844,80.1719 Q1042.9844,81.4063 1043.875,82.2344 Q1044.7656,83.0469 1046.3594,83.0469 Q1047.2969,83.0469 1047.9531,82.7969 Q1048.3438,82.6406 1048.7656,82.2031 Q1049.0313,81.9375 1049.1719,81.8594 Q1049.3281,81.7813 1049.5313,81.7813 Q1049.8594,81.7813 1050.1094,82.0469 Q1050.375,82.2969 1050.375,82.6406 Q1050.375,82.9844 1050.0313,83.3906 Q1049.5313,83.9688 1048.7344,84.2969 Q1047.6563,84.75 1046.3594,84.75 Q1044.8438,84.75 1043.6406,84.125 Q1042.6563,83.625 1041.9688,82.5625 Q1041.2813,81.4844 1041.2813,80.2031 L1041.2813,79.0469 Q1041.2813,77.7188 1041.8906,76.5781 Q1042.5156,75.4219 1043.6094,74.8125 Q1044.7031,74.1875 1045.9375,74.1875 Q1046.6719,74.1875 1047.3125,74.3594 Q1047.9688,74.5156 1048.5156,74.875 Z " fill="#000000"/><text fill="#000000" font-family="sans-serif" font-size="14" lengthAdjust="spacing" textLength="79" x="1066.25" y="84.7969">Repositories</text><line style="stroke:#181818;stroke-width:0.5;" x1="901.5" x2="1277.5" y1="95" y2="95"/><line style="stroke:#181818;stroke-width:0.5;" x1="901.5" x2="1277.5" y1="103" y2="103"/><text fill="#000000" font-family="sans-serif" font-size="14" lengthAdjust="spacing" textLength="94" x="906.5" y="122.1074">-Repositories()</text><text fill="#000000" font-family="sans-serif" font-size="14" lengthAdjust="spacing" textLength="182" x="906.5" y="140.7285">+getInstance() : Repositories</text><text fill="#000000" font-family="sans-serif" font-size="14" lengthAdjust="spacing" textLength="309" x="906.5" y="159.3496">+getEmployeeRepository() : employeeRepository</text><text fill="#000000" font-family="sans-serif" font-size="14" lengthAdjust="spacing" textLength="366" x="906.5" y="177.9707">+getGreenSpaceRepository() : getGreenSpaceRepository</text><text fill="#000000" font-family="sans-serif" font-size="14" lengthAdjust="spacing" textLength="268" x="906.5" y="196.5918">+getTaskRepository() : getTaskRepository</text></g><!--class EmployeeRepository--><g id="elem_EmployeeRepository"><rect codeLine="71" fill="#F1F1F1" height="66.6211" id="EmployeeRepository" rx="2.5" ry="2.5" style="stroke:#181818;stroke-width:0.5;" width="182" x="648.5" y="321"/><ellipse cx="672.5" cy="337" fill="#ADD1B2" rx="11" ry="11" style="stroke:#181818;stroke-width:1.0;"/><path d="M675.2656,332.875 Q675.4219,332.6563 675.6094,332.5469 Q675.7969,332.4375 676.0156,332.4375 Q676.3906,332.4375 676.625,332.7031 Q676.8594,332.9531 676.8594,333.5625 L676.8594,335.0156 Q676.8594,335.625 676.625,335.8906 Q676.3906,336.1563 676.0156,336.1563 Q675.6719,336.1563 675.4688,335.9531 Q675.2656,335.7656 675.1563,335.25 Q675.1094,334.8906 674.9219,334.7031 Q674.5938,334.3281 673.9844,334.1094 Q673.375,333.8906 672.75,333.8906 Q671.9844,333.8906 671.3438,334.2188 Q670.7188,334.5469 670.2188,335.2969 Q669.7344,336.0469 669.7344,337.0781 L669.7344,338.1719 Q669.7344,339.4063 670.625,340.2344 Q671.5156,341.0469 673.1094,341.0469 Q674.0469,341.0469 674.7031,340.7969 Q675.0938,340.6406 675.5156,340.2031 Q675.7813,339.9375 675.9219,339.8594 Q676.0781,339.7813 676.2813,339.7813 Q676.6094,339.7813 676.8594,340.0469 Q677.125,340.2969 677.125,340.6406 Q677.125,340.9844 676.7813,341.3906 Q676.2813,341.9688 675.4844,342.2969 Q674.4063,342.75 673.1094,342.75 Q671.5938,342.75 670.3906,342.125 Q669.4063,341.625 668.7188,340.5625 Q668.0313,339.4844 668.0313,338.2031 L668.0313,337.0469 Q668.0313,335.7188 668.6406,334.5781 Q669.2656,333.4219 670.3594,332.8125 Q671.4531,332.1875 672.6875,332.1875 Q673.4219,332.1875 674.0625,332.3594 Q674.7188,332.5156 675.2656,332.875 Z " fill="#000000"/><text fill="#000000" font-family="sans-serif" font-size="14" lengthAdjust="spacing" textLength="130" x="688.5" y="342.7969">EmployeeRepository</text><line style="stroke:#181818;stroke-width:0.5;" x1="649.5" x2="829.5" y1="353" y2="353"/><line style="stroke:#181818;stroke-width:0.5;" x1="649.5" x2="829.5" y1="361" y2="361"/><text fill="#000000" font-family="sans-serif" font-size="14" lengthAdjust="spacing" textLength="170" x="654.5" y="380.1074">+getEmployee(): Employee</text></g><!--class TasksRepository--><g id="elem_TasksRepository"><rect codeLine="77" fill="#F1F1F1" height="66.6211" id="TasksRepository" rx="2.5" ry="2.5" style="stroke:#181818;stroke-width:0.5;" width="276" x="865.5" y="321"/><ellipse cx="946.25" cy="337" fill="#ADD1B2" rx="11" ry="11" style="stroke:#181818;stroke-width:1.0;"/><path d="M949.0156,332.875 Q949.1719,332.6563 949.3594,332.5469 Q949.5469,332.4375 949.7656,332.4375 Q950.1406,332.4375 950.375,332.7031 Q950.6094,332.9531 950.6094,333.5625 L950.6094,335.0156 Q950.6094,335.625 950.375,335.8906 Q950.1406,336.1563 949.7656,336.1563 Q949.4219,336.1563 949.2188,335.9531 Q949.0156,335.7656 948.9063,335.25 Q948.8594,334.8906 948.6719,334.7031 Q948.3438,334.3281 947.7344,334.1094 Q947.125,333.8906 946.5,333.8906 Q945.7344,333.8906 945.0938,334.2188 Q944.4688,334.5469 943.9688,335.2969 Q943.4844,336.0469 943.4844,337.0781 L943.4844,338.1719 Q943.4844,339.4063 944.375,340.2344 Q945.2656,341.0469 946.8594,341.0469 Q947.7969,341.0469 948.4531,340.7969 Q948.8438,340.6406 949.2656,340.2031 Q949.5313,339.9375 949.6719,339.8594 Q949.8281,339.7813 950.0313,339.7813 Q950.3594,339.7813 950.6094,340.0469 Q950.875,340.2969 950.875,340.6406 Q950.875,340.9844 950.5313,341.3906 Q950.0313,341.9688 949.2344,342.2969 Q948.1563,342.75 946.8594,342.75 Q945.3438,342.75 944.1406,342.125 Q943.1563,341.625 942.4688,340.5625 Q941.7813,339.4844 941.7813,338.2031 L941.7813,337.0469 Q941.7813,335.7188 942.3906,334.5781 Q943.0156,333.4219 944.1094,332.8125 Q945.2031,332.1875 946.4375,332.1875 Q947.1719,332.1875 947.8125,332.3594 Q948.4688,332.5156 949.0156,332.875 Z " fill="#000000"/><text fill="#000000" font-family="sans-serif" font-size="14" lengthAdjust="spacing" textLength="106" x="966.75" y="342.7969">TasksRepository</text><line style="stroke:#181818;stroke-width:0.5;" x1="866.5" x2="1140.5" y1="353" y2="353"/><line style="stroke:#181818;stroke-width:0.5;" x1="866.5" x2="1140.5" y1="361" y2="361"/><text fill="#000000" font-family="sans-serif" font-size="14" lengthAdjust="spacing" textLength="264" x="871.5" y="380.1074">+getToDoListEntries(): List&lt;ToDoEntries&gt;</text></g><!--class GreenSpacesRepository--><g id="elem_GreenSpacesRepository"><rect codeLine="80" fill="#F1F1F1" height="66.6211" id="GreenSpacesRepository" rx="2.5" ry="2.5" style="stroke:#181818;stroke-width:0.5;" width="247" x="1177" y="321"/><ellipse cx="1219" cy="337" fill="#ADD1B2" rx="11" ry="11" style="stroke:#181818;stroke-width:1.0;"/><path d="M1221.7656,332.875 Q1221.9219,332.6563 1222.1094,332.5469 Q1222.2969,332.4375 1222.5156,332.4375 Q1222.8906,332.4375 1223.125,332.7031 Q1223.3594,332.9531 1223.3594,333.5625 L1223.3594,335.0156 Q1223.3594,335.625 1223.125,335.8906 Q1222.8906,336.1563 1222.5156,336.1563 Q1222.1719,336.1563 1221.9688,335.9531 Q1221.7656,335.7656 1221.6563,335.25 Q1221.6094,334.8906 1221.4219,334.7031 Q1221.0938,334.3281 1220.4844,334.1094 Q1219.875,333.8906 1219.25,333.8906 Q1218.4844,333.8906 1217.8438,334.2188 Q1217.2188,334.5469 1216.7188,335.2969 Q1216.2344,336.0469 1216.2344,337.0781 L1216.2344,338.1719 Q1216.2344,339.4063 1217.125,340.2344 Q1218.0156,341.0469 1219.6094,341.0469 Q1220.5469,341.0469 1221.2031,340.7969 Q1221.5938,340.6406 1222.0156,340.2031 Q1222.2813,339.9375 1222.4219,339.8594 Q1222.5781,339.7813 1222.7813,339.7813 Q1223.1094,339.7813 1223.3594,340.0469 Q1223.625,340.2969 1223.625,340.6406 Q1223.625,340.9844 1223.2813,341.3906 Q1222.7813,341.9688 1221.9844,342.2969 Q1220.9063,342.75 1219.6094,342.75 Q1218.0938,342.75 1216.8906,342.125 Q1215.9063,341.625 1215.2188,340.5625 Q1214.5313,339.4844 1214.5313,338.2031 L1214.5313,337.0469 Q1214.5313,335.7188 1215.1406,334.5781 Q1215.7656,333.4219 1216.8594,332.8125 Q1217.9531,332.1875 1219.1875,332.1875 Q1219.9219,332.1875 1220.5625,332.3594 Q1221.2188,332.5156 1221.7656,332.875 Z " fill="#000000"/><text fill="#000000" font-family="sans-serif" font-size="14" lengthAdjust="spacing" textLength="155" x="1239" y="342.7969">GreenSpacesRepository</text><line style="stroke:#181818;stroke-width:0.5;" x1="1178" x2="1423" y1="353" y2="353"/><line style="stroke:#181818;stroke-width:0.5;" x1="1178" x2="1423" y1="361" y2="361"/><text fill="#000000" font-family="sans-serif" font-size="14" lengthAdjust="spacing" textLength="235" x="1183" y="380.1074">+getGreenSpacesList(): GreenSpace</text></g><!--link AddEntryAgendaUI to AddEntryAgendaController--><g id="link_AddEntryAgendaUI_AddEntryAgendaController"><path codeLine="84" d="M158.31,133.5 C170.39,133.5 176.42,133.5 187.13,133.5 " fill="none" id="AddEntryAgendaUI-to-AddEntryAgendaController" style="stroke:#181818;stroke-width:1.0;stroke-dasharray:7.0,7.0;"/><polygon fill="#181818" points="193.13,133.5,184.13,129.5,188.13,133.5,184.13,137.5,193.13,133.5" style="stroke:#181818;stroke-width:1.0;"/></g><!--link AddEntryAgendaController to Repositories--><g id="link_AddEntryAgendaController_Repositories"><path codeLine="86" d="M865.51,133.5 C882.3,133.5 889.26,133.5 894.41,133.5 " fill="none" id="AddEntryAgendaController-to-Repositories" style="stroke:#181818;stroke-width:1.0;stroke-dasharray:7.0,7.0;"/><polygon fill="#181818" points="900.41,133.5,891.41,129.5,895.41,133.5,891.41,137.5,900.41,133.5" style="stroke:#181818;stroke-width:1.0;"/><text fill="#000000" font-family="sans-serif" font-size="13" lengthAdjust="spacing" textLength="7" x="885.2851" y="130.1736">1</text></g><!--link Repositories to Repositories--><g id="link_Repositories_Repositories"><path codeLine="88" d="M1278.66,108.8 C1299.81,113.46 1313.5,121.69 1313.5,133.5 C1313.5,145.31 1305.6695,152.249 1284.5195,156.909 " fill="none" id="Repositories-to-Repositories" style="stroke:#181818;stroke-width:1.0;"/><polygon fill="#181818" points="1278.66,158.2,1288.3099,160.1698,1283.5429,157.1241,1286.5885,152.3572,1278.66,158.2" style="stroke:#181818;stroke-width:1.0;"/><text fill="#000000" font-family="sans-serif" font-size="13" lengthAdjust="spacing" textLength="75" x="1319.5" y="139.0283">getInstance()</text><text fill="#000000" font-family="sans-serif" font-size="13" lengthAdjust="spacing" textLength="7" x="1286.7878" y="104.4316">1</text><text fill="#000000" font-family="sans-serif" font-size="13" lengthAdjust="spacing" textLength="7" x="1286.7878" y="155.9157">1</text></g><!--link Repositories to EmployeeRepository--><g id="link_Repositories_EmployeeRepository"><path codeLine="89" d="M978.28,204.09 C915.83,243.17 845.9061,286.9169 796.8361,317.6269 " fill="none" id="Repositories-to-EmployeeRepository" style="stroke:#181818;stroke-width:1.0;"/><polygon fill="#181818" points="791.75,320.81,801.5011,319.4261,795.9884,318.1574,797.2571,312.6447,791.75,320.81" style="stroke:#181818;stroke-width:1.0;"/><text fill="#000000" font-family="sans-serif" font-size="13" lengthAdjust="spacing" textLength="7" x="959.4495" y="226.284">1</text><text fill="#000000" font-family="sans-serif" font-size="13" lengthAdjust="spacing" textLength="7" x="794.043" y="309.8597">1</text></g><!--link Repositories to TasksRepository--><g id="link_Repositories_TasksRepository"><path codeLine="90" d="M1062.17,204.09 C1046.83,243.17 1030.5932,284.5152 1018.5332,315.2252 " fill="none" id="Repositories-to-TasksRepository" style="stroke:#181818;stroke-width:1.0;"/><polygon fill="#181818" points="1016.34,320.81,1023.353,313.8949,1018.1677,316.156,1015.9066,310.9707,1016.34,320.81" style="stroke:#181818;stroke-width:1.0;"/><text fill="#000000" font-family="sans-serif" font-size="13" lengthAdjust="spacing" textLength="7" x="1051.9907" y="226.284">1</text><text fill="#000000" font-family="sans-serif" font-size="13" lengthAdjust="spacing" textLength="7" x="1011.1204" y="309.8597">1</text></g><!--link Repositories to GreenSpacesRepository--><g id="link_Repositories_GreenSpacesRepository"><path codeLine="91" d="M1156.55,204.09 C1194.2,243.17 1235.2576,285.7786 1264.8376,316.4886 " fill="none" id="Repositories-to-GreenSpacesRepository" style="stroke:#181818;stroke-width:1.0;"/><polygon fill="#181818" points="1269,320.81,1265.6373,311.553,1265.5313,317.2088,1259.8755,317.1028,1269,320.81" style="stroke:#181818;stroke-width:1.0;"/><text fill="#000000" font-family="sans-serif" font-size="13" lengthAdjust="spacing" textLength="7" x="1156.1036" y="226.284">1</text><text fill="#000000" font-family="sans-serif" font-size="13" lengthAdjust="spacing" textLength="7" x="1255.3281" y="309.8597">1</text></g><!--link AddEntryAgendaController to Employee--><g id="link_AddEntryAgendaController_Employee"><path codeLine="93" d="M579.56,260.14 C604.95,323.88 630.5,388 630.5,388 C630.5,388 663.1738,411.9987 708.6038,445.3587 " fill="none" id="AddEntryAgendaController-to-Employee" style="stroke:#181818;stroke-width:1.0;stroke-dasharray:7.0,7.0;"/><polygon fill="#181818" points="713.44,448.91,708.5533,440.359,709.4099,445.9506,703.8182,446.8072,713.44,448.91" style="stroke:#181818;stroke-width:1.0;"/></g><!--link EmployeeRepository to Employee--><g id="link_EmployeeRepository_Employee"><path codeLine="95" d="M760.12,388.23 C770.71,405.04 781.1222,421.5532 795.1622,443.8432 " fill="none" id="EmployeeRepository-to-Employee" style="stroke:#181818;stroke-width:1.0;"/><polygon fill="#181818" points="798.36,448.92,796.9479,439.1729,795.6952,444.6893,790.1788,443.4366,798.36,448.92" style="stroke:#181818;stroke-width:1.0;"/><text fill="#000000" font-family="sans-serif" font-size="13" lengthAdjust="spacing" textLength="7" x="756.0625" y="409.5742">1</text><text fill="#000000" font-family="sans-serif" font-size="13" lengthAdjust="spacing" textLength="7" x="786.4503" y="437.9059">1</text></g><!--link TasksRepository to Employee--><g id="link_TasksRepository_Employee"><path codeLine="96" d="M982.88,388.23 C972.29,405.04 961.8778,421.5532 947.8378,443.8432 " fill="none" id="TasksRepository-to-Employee" style="stroke:#181818;stroke-width:1.0;"/><polygon fill="#181818" points="944.64,448.92,952.8212,443.4366,947.3048,444.6893,946.0521,439.1729,944.64,448.92" style="stroke:#181818;stroke-width:1.0;"/><text fill="#000000" font-family="sans-serif" font-size="13" lengthAdjust="spacing" textLength="7" x="971.7344" y="409.5742">1</text><text fill="#000000" font-family="sans-serif" font-size="13" lengthAdjust="spacing" textLength="7" x="942.1013" y="437.9059">1</text></g><!--link GreenSpacesRepository to Employee--><g id="link_GreenSpacesRepository_Employee"><path codeLine="97" d="M1233.94,388 C1199.46,404.84 1160.431,423.8962 1114.581,446.2962 " fill="none" id="GreenSpacesRepository-to-Employee" style="stroke:#181818;stroke-width:1.0;"/><polygon fill="#181818" points="1109.19,448.93,1119.0324,448.5733,1113.6825,446.7352,1115.5207,441.3853,1109.19,448.93" style="stroke:#181818;stroke-width:1.0;"/><text fill="#000000" font-family="sans-serif" font-size="13" lengthAdjust="spacing" textLength="7" x="1214.4606" y="409.5692">1</text><text fill="#000000" font-family="sans-serif" font-size="13" lengthAdjust="spacing" textLength="7" x="1117.1928" y="437.9166">1</text></g><!--link Employee to Task--><g id="link_Employee_Task"><path codeLine="99" d="M871.5,683.19 C871.5,708.49 871.5,729.55 871.5,755.79 " fill="none" id="Employee-to-Task" style="stroke:#181818;stroke-width:1.0;"/><polygon fill="#181818" points="871.5,761.79,875.5,752.79,871.5,756.79,867.5,752.79,871.5,761.79" style="stroke:#181818;stroke-width:1.0;"/><text fill="#000000" font-family="sans-serif" font-size="13" lengthAdjust="spacing" textLength="50" x="872.5" y="728.0283">registers</text></g><!--SRC=[XLR1Rjim3BtxAuHUcY1fiLsB8a3Q14E0hYkMj7V5PXqjicH8ybQtsB-Fakn8TkmkXqH-ZwJ8HzBjfJuoKL952r988TE3aWKGeof80bFIz4Xps9gQ0r6G6Yfo7Xle0yta7oPoyagvZXdE19Yw159ANjk7v7A0bCh89F9AETLwQOnY-yh09fLYozw1V4cIImwlXXX95CiFXcJCfiEaI9mBMHSbbpN0HqBmSoKe5dD3jXX8v1xQCsKE6JKMN-6FHw6WZFSiouCKy5WLUr38C64yJBE2QOrNahCeXhwLj0PrSeh3qInJW2bsqKocWzQ_v7x738-oJsO4G-oeFYvp41cTQE1OEsJV583OOe-iSNYOazR0-Y1bVmAuyia_o9HoUqR6K6Lsh3Z1zZmdrDtM-3z9pQpSSr9fK2-KCnJ1Qd53zb9oe6AAnn-bnIY_jIwB94d-9ar_BD3qnjZoUcA0JXLppZq24-mAhOzRc-uJA2Qp9ZTtTWQMNx-Llj1AKH-nRQ4TkKxy_2HQBA2ZAeNbfxM_uTa_E0BLCfNs-DQT7On5iboWva0B9F6x0x_0WQKSqE-1QNFRF2xQYCgikfMQIFDk1wocZQZBB5iBese_5_SIpv9pK1yuCZcOKD5FAAstLFN4jkctP9atiO57oMLb3gFaCux1sYwFmnjDUzTgnxc20xW8D-kxEfhXIUY6RuQsnsaJm4zKxmBBJAesarCU8xU-Ccv0HUdTrT-fm35NyTrwm7bE2c_u6BzNfXWphPG2uTHuaFb6XCrmjJUx4LPu9tspo6HuITjH-Ez-3gpR30STHmGpU8VGhMW9k_FolFc8k5EZ6IhGR6e7d4mTw3gm4PYJIFqjiL4mQL_8lG62CzYvaCy7TeIBN0S6-GorrNR_MWGEfKXcKTeJdBls7FpSqCPEnFhiv4hQYR7QEg7QaKMymHQd4D7unO5ctSLnWptjl9ImK_t-aUl5s2kWRnmOT28NNo-wRKiwxRVqrTMvcHSrD7_SwrpWSTkUgEE6Wz9zLkZr8hJmFAF1X9DUDiD6WvaCcvukTfIDVeF_IUNONr2e-py0]--></g></svg>