<?xml version="1.0" encoding="us-ascii" standalone="no"?><svg xmlns="http://www.w3.org/2000/svg" xmlns:xlink="http://www.w3.org/1999/xlink" contentStyleType="text/css" height="1293px" preserveAspectRatio="none" style="width:1615px;height:1293px;background:#FFFFFF;" version="1.1" viewBox="0 0 1615 1293" width="1615px" zoomAndPan="magnify"><defs/><g><rect fill="#FFFFFF" height="1098.8555" style="stroke:#181818;stroke-width:1.0;" width="10" x="18.5" y="93.6211"/><rect fill="#FFFFFF" height="281.6191" style="stroke:#181818;stroke-width:1.0;" width="10" x="306.5" y="165.1641"/><rect fill="#FFFFFF" height="281.6191" style="stroke:#181818;stroke-width:1.0;" width="10" x="306.5" y="478.0742"/><rect fill="#FFFFFF" height="31.291" style="stroke:#181818;stroke-width:1.0;" width="10" x="306.5" y="790.9844"/><rect fill="#FFFFFF" height="31.291" style="stroke:#181818;stroke-width:1.0;" width="10" x="306.5" y="853.5664"/><rect fill="#FFFFFF" height="276.3281" style="stroke:#181818;stroke-width:1.0;" width="10" x="306.5" y="916.1484"/><rect fill="#FFFFFF" height="219.0371" style="stroke:#181818;stroke-width:1.0;" width="10" x="607.5" y="196.4551"/><rect fill="#FFFFFF" height="219.0371" style="stroke:#181818;stroke-width:1.0;" width="10" x="607.5" y="509.3652"/><rect fill="#FFFFFF" height="213.7461" style="stroke:#181818;stroke-width:1.0;" width="10" x="607.5" y="947.4395"/><rect fill="#FFFFFF" height="31.291" style="stroke:#181818;stroke-width:1.0;" width="10" x="759.5" y="227.7461"/><rect fill="#FFFFFF" height="31.291" style="stroke:#181818;stroke-width:1.0;" width="10" x="759.5" y="540.6563"/><rect fill="#FFFFFF" height="31.291" style="stroke:#181818;stroke-width:1.0;" width="10" x="866.5" y="290.3281"/><rect fill="#FFFFFF" height="31.291" style="stroke:#181818;stroke-width:1.0;" width="10" x="866.5" y="603.2383"/><rect fill="#FFFFFF" height="31.291" style="stroke:#181818;stroke-width:1.0;" width="10" x="1006.5" y="352.9102"/><rect fill="#FFFFFF" height="31.291" style="stroke:#181818;stroke-width:1.0;" width="10" x="1311.5" y="665.8203"/><rect fill="#FFFFFF" height="75.582" style="stroke:#181818;stroke-width:1.0;" width="10" x="1311.5" y="1054.3125"/><rect fill="#FFFFFF" height="75.582" style="stroke:#181818;stroke-width:1.0;" width="10" x="1477.5" y="978.7305"/><line style="stroke:#181818;stroke-width:0.5;stroke-dasharray:5.0,5.0;" x1="23" x2="23" y1="83.6211" y2="1210.4766"/><line style="stroke:#181818;stroke-width:0.5;stroke-dasharray:5.0,5.0;" x1="311" x2="311" y1="83.6211" y2="1210.4766"/><line style="stroke:#181818;stroke-width:0.5;stroke-dasharray:5.0,5.0;" x1="612" x2="612" y1="83.6211" y2="1210.4766"/><line style="stroke:#181818;stroke-width:0.5;stroke-dasharray:5.0,5.0;" x1="764" x2="764" y1="83.6211" y2="1210.4766"/><line style="stroke:#181818;stroke-width:0.5;stroke-dasharray:5.0,5.0;" x1="871" x2="871" y1="83.6211" y2="1210.4766"/><line style="stroke:#181818;stroke-width:0.5;stroke-dasharray:5.0,5.0;" x1="1011" x2="1011" y1="83.6211" y2="1210.4766"/><line style="stroke:#181818;stroke-width:0.5;stroke-dasharray:5.0,5.0;" x1="1176" x2="1176" y1="83.6211" y2="1210.4766"/><line style="stroke:#181818;stroke-width:0.5;stroke-dasharray:5.0,5.0;" x1="1316" x2="1316" y1="83.6211" y2="1210.4766"/><line style="stroke:#181818;stroke-width:0.5;stroke-dasharray:5.0,5.0;" x1="1482" x2="1482" y1="83.6211" y2="1210.4766"/><text fill="#000000" font-family="sans-serif" font-size="14" lengthAdjust="spacing" textLength="31" x="5" y="80.1074">GSM</text><ellipse cx="23.5" cy="13.5" fill="#E3E3E3" rx="8" ry="8" style="stroke:#181818;stroke-width:0.5;"/><path d="M23.5,21.5 L23.5,48.5 M10.5,29.5 L36.5,29.5 M23.5,48.5 L10.5,63.5 M23.5,48.5 L36.5,63.5 " fill="none" style="stroke:#181818;stroke-width:0.5;"/><text fill="#000000" font-family="sans-serif" font-size="14" lengthAdjust="spacing" textLength="31" x="5" y="1224.584">GSM</text><ellipse cx="23.5" cy="1236.5977" fill="#E3E3E3" rx="8" ry="8" style="stroke:#181818;stroke-width:0.5;"/><path d="M23.5,1244.5977 L23.5,1271.5977 M10.5,1252.5977 L36.5,1252.5977 M23.5,1271.5977 L10.5,1286.5977 M23.5,1271.5977 L36.5,1286.5977 " fill="none" style="stroke:#181818;stroke-width:0.5;"/><rect fill="#E3E3E3" height="32.6211" rx="2.5" ry="2.5" style="stroke:#181818;stroke-width:0.5;" width="137" x="243" y="50"/><text fill="#000000" font-family="sans-serif" font-size="14" lengthAdjust="spacing" textLength="123" x="250" y="72.1074">:AddEntryAgendaUI</text><rect fill="#E3E3E3" height="32.6211" rx="2.5" ry="2.5" style="stroke:#181818;stroke-width:0.5;" width="137" x="243" y="1209.4766"/><text fill="#000000" font-family="sans-serif" font-size="14" lengthAdjust="spacing" textLength="123" x="250" y="1231.584">:AddEntryAgendaUI</text><rect fill="#E3E3E3" height="32.6211" rx="2.5" ry="2.5" style="stroke:#181818;stroke-width:0.5;" width="187" x="519" y="50"/><text fill="#000000" font-family="sans-serif" font-size="14" lengthAdjust="spacing" textLength="173" x="526" y="72.1074">:AddEntryAgendaController</text><rect fill="#E3E3E3" height="32.6211" rx="2.5" ry="2.5" style="stroke:#181818;stroke-width:0.5;" width="187" x="519" y="1209.4766"/><text fill="#000000" font-family="sans-serif" font-size="14" lengthAdjust="spacing" textLength="173" x="526" y="1231.584">:AddEntryAgendaController</text><rect fill="#E3E3E3" height="32.6211" rx="2.5" ry="2.5" style="stroke:#181818;stroke-width:0.5;" width="97" x="716" y="50"/><text fill="#000000" font-family="sans-serif" font-size="14" lengthAdjust="spacing" textLength="83" x="723" y="72.1074">:Repositories</text><rect fill="#E3E3E3" height="32.6211" rx="2.5" ry="2.5" style="stroke:#181818;stroke-width:0.5;" width="97" x="716" y="1209.4766"/><text fill="#000000" font-family="sans-serif" font-size="14" lengthAdjust="spacing" textLength="83" x="723" y="1231.584">:Repositories</text><rect fill="#E3E3E3" height="51.2422" rx="2.5" ry="2.5" style="stroke:#181818;stroke-width:0.5;" width="97" x="823" y="31.3789"/><text fill="#000000" font-family="sans-serif" font-size="14" lengthAdjust="spacing" textLength="74" x="834.5" y="53.4863">repositories</text><text fill="#000000" font-family="sans-serif" font-size="14" lengthAdjust="spacing" textLength="83" x="830" y="72.1074">:Repositories</text><rect fill="#E3E3E3" height="51.2422" rx="2.5" ry="2.5" style="stroke:#181818;stroke-width:0.5;" width="97" x="823" y="1209.4766"/><text fill="#000000" font-family="sans-serif" font-size="14" lengthAdjust="spacing" textLength="74" x="834.5" y="1231.584">repositories</text><text fill="#000000" font-family="sans-serif" font-size="14" lengthAdjust="spacing" textLength="83" x="830" y="1250.2051">:Repositories</text><rect fill="#E3E3E3" height="51.2422" rx="2.5" ry="2.5" style="stroke:#181818;stroke-width:0.5;" width="163" x="930" y="31.3789"/><text fill="#000000" font-family="sans-serif" font-size="14" lengthAdjust="spacing" textLength="149" x="937" y="53.4863">greenSpaceRepository:</text><text fill="#000000" font-family="sans-serif" font-size="14" lengthAdjust="spacing" textLength="148" x="937.5" y="72.1074">GreenSpaceRepository</text><rect fill="#E3E3E3" height="51.2422" rx="2.5" ry="2.5" style="stroke:#181818;stroke-width:0.5;" width="163" x="930" y="1209.4766"/><text fill="#000000" font-family="sans-serif" font-size="14" lengthAdjust="spacing" textLength="149" x="937" y="1231.584">greenSpaceRepository:</text><text fill="#000000" font-family="sans-serif" font-size="14" lengthAdjust="spacing" textLength="148" x="937.5" y="1250.2051">GreenSpaceRepository</text><rect fill="#E3E3E3" height="51.2422" rx="2.5" ry="2.5" style="stroke:#181818;stroke-width:0.5;" width="147" x="1103" y="31.3789"/><text fill="#000000" font-family="sans-serif" font-size="14" lengthAdjust="spacing" textLength="133" x="1110" y="53.4863">employeeRepository:</text><text fill="#000000" font-family="sans-serif" font-size="14" lengthAdjust="spacing" textLength="130" x="1111.5" y="72.1074">EmployeeRepository</text><rect fill="#E3E3E3" height="51.2422" rx="2.5" ry="2.5" style="stroke:#181818;stroke-width:0.5;" width="147" x="1103" y="1209.4766"/><text fill="#000000" font-family="sans-serif" font-size="14" lengthAdjust="spacing" textLength="133" x="1110" y="1231.584">employeeRepository:</text><text fill="#000000" font-family="sans-serif" font-size="14" lengthAdjust="spacing" textLength="130" x="1111.5" y="1250.2051">EmployeeRepository</text><rect fill="#E3E3E3" height="51.2422" rx="2.5" ry="2.5" style="stroke:#181818;stroke-width:0.5;" width="113" x="1260" y="31.3789"/><text fill="#000000" font-family="sans-serif" font-size="14" lengthAdjust="spacing" textLength="98" x="1267.5" y="53.4863">taskRepository:</text><text fill="#000000" font-family="sans-serif" font-size="14" lengthAdjust="spacing" textLength="99" x="1267" y="72.1074">TaskRepository</text><rect fill="#E3E3E3" height="51.2422" rx="2.5" ry="2.5" style="stroke:#181818;stroke-width:0.5;" width="113" x="1260" y="1209.4766"/><text fill="#000000" font-family="sans-serif" font-size="14" lengthAdjust="spacing" textLength="98" x="1267.5" y="1231.584">taskRepository:</text><text fill="#000000" font-family="sans-serif" font-size="14" lengthAdjust="spacing" textLength="99" x="1267" y="1250.2051">TaskRepository</text><rect fill="#E3E3E3" height="51.2422" rx="2.5" ry="2.5" style="stroke:#181818;stroke-width:0.5;" width="49" x="1458" y="31.3789"/><text fill="#000000" font-family="sans-serif" font-size="14" lengthAdjust="spacing" textLength="26" x="1469.5" y="53.4863">task</text><text fill="#000000" font-family="sans-serif" font-size="14" lengthAdjust="spacing" textLength="35" x="1465" y="72.1074">:Task</text><rect fill="#E3E3E3" height="51.2422" rx="2.5" ry="2.5" style="stroke:#181818;stroke-width:0.5;" width="49" x="1458" y="1209.4766"/><text fill="#000000" font-family="sans-serif" font-size="14" lengthAdjust="spacing" textLength="26" x="1469.5" y="1231.584">task</text><text fill="#000000" font-family="sans-serif" font-size="14" lengthAdjust="spacing" textLength="35" x="1465" y="1250.2051">:Task</text><rect fill="#FFFFFF" height="1098.8555" style="stroke:#181818;stroke-width:1.0;" width="10" x="18.5" y="93.6211"/><rect fill="#FFFFFF" height="281.6191" style="stroke:#181818;stroke-width:1.0;" width="10" x="306.5" y="165.1641"/><rect fill="#FFFFFF" height="281.6191" style="stroke:#181818;stroke-width:1.0;" width="10" x="306.5" y="478.0742"/><rect fill="#FFFFFF" height="31.291" style="stroke:#181818;stroke-width:1.0;" width="10" x="306.5" y="790.9844"/><rect fill="#FFFFFF" height="31.291" style="stroke:#181818;stroke-width:1.0;" width="10" x="306.5" y="853.5664"/><rect fill="#FFFFFF" height="276.3281" style="stroke:#181818;stroke-width:1.0;" width="10" x="306.5" y="916.1484"/><rect fill="#FFFFFF" height="219.0371" style="stroke:#181818;stroke-width:1.0;" width="10" x="607.5" y="196.4551"/><rect fill="#FFFFFF" height="219.0371" style="stroke:#181818;stroke-width:1.0;" width="10" x="607.5" y="509.3652"/><rect fill="#FFFFFF" height="213.7461" style="stroke:#181818;stroke-width:1.0;" width="10" x="607.5" y="947.4395"/><rect fill="#FFFFFF" height="31.291" style="stroke:#181818;stroke-width:1.0;" width="10" x="759.5" y="227.7461"/><rect fill="#FFFFFF" height="31.291" style="stroke:#181818;stroke-width:1.0;" width="10" x="759.5" y="540.6563"/><rect fill="#FFFFFF" height="31.291" style="stroke:#181818;stroke-width:1.0;" width="10" x="866.5" y="290.3281"/><rect fill="#FFFFFF" height="31.291" style="stroke:#181818;stroke-width:1.0;" width="10" x="866.5" y="603.2383"/><rect fill="#FFFFFF" height="31.291" style="stroke:#181818;stroke-width:1.0;" width="10" x="1006.5" y="352.9102"/><rect fill="#FFFFFF" height="31.291" style="stroke:#181818;stroke-width:1.0;" width="10" x="1311.5" y="665.8203"/><rect fill="#FFFFFF" height="75.582" style="stroke:#181818;stroke-width:1.0;" width="10" x="1311.5" y="1054.3125"/><rect fill="#FFFFFF" height="75.582" style="stroke:#181818;stroke-width:1.0;" width="10" x="1477.5" y="978.7305"/><rect fill="none" height="43.252" style="stroke:#000000;stroke-width:1.5;" width="381" x="2" y="93.6211"/><path d="M2,93.6211 L64,93.6211 L64,102.6211 L54,112.6211 L2,112.6211 L2,93.6211 " fill="#EEEEEE" style="stroke:#000000;stroke-width:2.0;"/><text fill="#000000" font-family="sans-serif" font-size="13" font-weight="bold" lengthAdjust="spacing" textLength="17" x="15" y="109.6494">ref</text><text fill="#000000" font-family="sans-serif" font-size="12" lengthAdjust="spacing" textLength="308" x="38.5" y="129.5703">This action assumes that the user has already logged in</text><polygon fill="#181818" points="294.5,161.1641,304.5,165.1641,294.5,169.1641,298.5,165.1641" style="stroke:#181818;stroke-width:1.0;"/><line style="stroke:#181818;stroke-width:1.0;" x1="28.5" x2="300.5" y1="165.1641" y2="165.1641"/><text fill="#000000" font-family="sans-serif" font-size="13" font-weight="bold" lengthAdjust="spacing" textLength="7" x="35.5" y="159.9014">1</text><text fill="#000000" font-family="sans-serif" font-size="13" lengthAdjust="spacing" textLength="223" x="46.5" y="159.9014">asks to add a new entry in the Agenda</text><polygon fill="#181818" points="595.5,192.4551,605.5,196.4551,595.5,200.4551,599.5,196.4551" style="stroke:#181818;stroke-width:1.0;"/><line style="stroke:#181818;stroke-width:1.0;" x1="316.5" x2="601.5" y1="196.4551" y2="196.4551"/><text fill="#000000" font-family="sans-serif" font-size="13" font-weight="bold" lengthAdjust="spacing" textLength="7" x="323.5" y="191.1924">2</text><text fill="#000000" font-family="sans-serif" font-size="13" lengthAdjust="spacing" textLength="119" x="334.5" y="191.1924">getGreenSpaceList()</text><polygon fill="#181818" points="747.5,223.7461,757.5,227.7461,747.5,231.7461,751.5,227.7461" style="stroke:#181818;stroke-width:1.0;"/><line style="stroke:#181818;stroke-width:1.0;" x1="617.5" x2="753.5" y1="227.7461" y2="227.7461"/><text fill="#000000" font-family="sans-serif" font-size="13" font-weight="bold" lengthAdjust="spacing" textLength="7" x="624.5" y="222.4834">3</text><text fill="#000000" font-family="sans-serif" font-size="13" lengthAdjust="spacing" textLength="75" x="635.5" y="222.4834">getInstance()</text><polygon fill="#181818" points="628.5,255.0371,618.5,259.0371,628.5,263.0371,624.5,259.0371" style="stroke:#181818;stroke-width:1.0;"/><line style="stroke:#181818;stroke-width:1.0;stroke-dasharray:2.0,2.0;" x1="622.5" x2="763.5" y1="259.0371" y2="259.0371"/><text fill="#000000" font-family="sans-serif" font-size="13" font-weight="bold" lengthAdjust="spacing" textLength="7" x="634.5" y="253.7744">4</text><text fill="#000000" font-family="sans-serif" font-size="13" lengthAdjust="spacing" textLength="67" x="645.5" y="253.7744">repositories</text><polygon fill="#181818" points="854.5,286.3281,864.5,290.3281,854.5,294.3281,858.5,290.3281" style="stroke:#181818;stroke-width:1.0;"/><line style="stroke:#181818;stroke-width:1.0;" x1="617.5" x2="860.5" y1="290.3281" y2="290.3281"/><text fill="#000000" font-family="sans-serif" font-size="13" font-weight="bold" lengthAdjust="spacing" textLength="7" x="624.5" y="285.0654">5</text><text fill="#000000" font-family="sans-serif" font-size="13" lengthAdjust="spacing" textLength="160" x="635.5" y="285.0654">getGreenSpaceRepository()</text><polygon fill="#181818" points="628.5,317.6191,618.5,321.6191,628.5,325.6191,624.5,321.6191" style="stroke:#181818;stroke-width:1.0;"/><line style="stroke:#181818;stroke-width:1.0;stroke-dasharray:2.0,2.0;" x1="622.5" x2="870.5" y1="321.6191" y2="321.6191"/><text fill="#000000" font-family="sans-serif" font-size="13" font-weight="bold" lengthAdjust="spacing" textLength="7" x="634.5" y="316.3564">6</text><text fill="#000000" font-family="sans-serif" font-size="13" lengthAdjust="spacing" textLength="131" x="645.5" y="316.3564">greenSpaceRepository</text><polygon fill="#181818" points="994.5,348.9102,1004.5,352.9102,994.5,356.9102,998.5,352.9102" style="stroke:#181818;stroke-width:1.0;"/><line style="stroke:#181818;stroke-width:1.0;" x1="617.5" x2="1000.5" y1="352.9102" y2="352.9102"/><text fill="#000000" font-family="sans-serif" font-size="13" font-weight="bold" lengthAdjust="spacing" textLength="7" x="624.5" y="347.6475">7</text><text fill="#000000" font-family="sans-serif" font-size="13" lengthAdjust="spacing" textLength="119" x="635.5" y="347.6475">getGreenSpaceList()</text><polygon fill="#181818" points="628.5,380.2012,618.5,384.2012,628.5,388.2012,624.5,384.2012" style="stroke:#181818;stroke-width:1.0;"/><line style="stroke:#181818;stroke-width:1.0;stroke-dasharray:2.0,2.0;" x1="622.5" x2="1010.5" y1="384.2012" y2="384.2012"/><text fill="#000000" font-family="sans-serif" font-size="13" font-weight="bold" lengthAdjust="spacing" textLength="7" x="634.5" y="378.9385">8</text><text fill="#000000" font-family="sans-serif" font-size="13" lengthAdjust="spacing" textLength="90" x="645.5" y="378.9385">greenSpaceList</text><polygon fill="#181818" points="327.5,411.4922,317.5,415.4922,327.5,419.4922,323.5,415.4922" style="stroke:#181818;stroke-width:1.0;"/><line style="stroke:#181818;stroke-width:1.0;stroke-dasharray:2.0,2.0;" x1="321.5" x2="611.5" y1="415.4922" y2="415.4922"/><text fill="#000000" font-family="sans-serif" font-size="13" font-weight="bold" lengthAdjust="spacing" textLength="7" x="333.5" y="410.2295">9</text><text fill="#000000" font-family="sans-serif" font-size="13" lengthAdjust="spacing" textLength="90" x="344.5" y="410.2295">greenSpaceList</text><polygon fill="#181818" points="39.5,442.7832,29.5,446.7832,39.5,450.7832,35.5,446.7832" style="stroke:#181818;stroke-width:1.0;"/><line style="stroke:#181818;stroke-width:1.0;stroke-dasharray:2.0,2.0;" x1="33.5" x2="310.5" y1="446.7832" y2="446.7832"/><text fill="#000000" font-family="sans-serif" font-size="13" font-weight="bold" lengthAdjust="spacing" textLength="14" x="45.5" y="441.5205">10</text><text fill="#000000" font-family="sans-serif" font-size="13" lengthAdjust="spacing" textLength="205" x="63.5" y="441.5205">shows green spaces to be selected</text><polygon fill="#181818" points="294.5,474.0742,304.5,478.0742,294.5,482.0742,298.5,478.0742" style="stroke:#181818;stroke-width:1.0;"/><line style="stroke:#181818;stroke-width:1.0;" x1="28.5" x2="300.5" y1="478.0742" y2="478.0742"/><text fill="#000000" font-family="sans-serif" font-size="13" font-weight="bold" lengthAdjust="spacing" textLength="14" x="35.5" y="472.8115">11</text><text fill="#000000" font-family="sans-serif" font-size="13" lengthAdjust="spacing" textLength="117" x="53.5" y="472.8115">selects green space</text><polygon fill="#181818" points="595.5,505.3652,605.5,509.3652,595.5,513.3652,599.5,509.3652" style="stroke:#181818;stroke-width:1.0;"/><line style="stroke:#181818;stroke-width:1.0;" x1="316.5" x2="601.5" y1="509.3652" y2="509.3652"/><text fill="#000000" font-family="sans-serif" font-size="13" font-weight="bold" lengthAdjust="spacing" textLength="14" x="323.5" y="504.1025">12</text><text fill="#000000" font-family="sans-serif" font-size="13" lengthAdjust="spacing" textLength="118" x="341.5" y="504.1025">getToDoListEntries()</text><polygon fill="#181818" points="747.5,536.6563,757.5,540.6563,747.5,544.6563,751.5,540.6563" style="stroke:#181818;stroke-width:1.0;"/><line style="stroke:#181818;stroke-width:1.0;" x1="617.5" x2="753.5" y1="540.6563" y2="540.6563"/><text fill="#000000" font-family="sans-serif" font-size="13" font-weight="bold" lengthAdjust="spacing" textLength="14" x="624.5" y="535.3936">13</text><text fill="#000000" font-family="sans-serif" font-size="13" lengthAdjust="spacing" textLength="75" x="642.5" y="535.3936">getInstance()</text><polygon fill="#181818" points="628.5,567.9473,618.5,571.9473,628.5,575.9473,624.5,571.9473" style="stroke:#181818;stroke-width:1.0;"/><line style="stroke:#181818;stroke-width:1.0;stroke-dasharray:2.0,2.0;" x1="622.5" x2="763.5" y1="571.9473" y2="571.9473"/><text fill="#000000" font-family="sans-serif" font-size="13" font-weight="bold" lengthAdjust="spacing" textLength="14" x="634.5" y="566.6846">14</text><text fill="#000000" font-family="sans-serif" font-size="13" lengthAdjust="spacing" textLength="67" x="652.5" y="566.6846">repositories</text><polygon fill="#181818" points="854.5,599.2383,864.5,603.2383,854.5,607.2383,858.5,603.2383" style="stroke:#181818;stroke-width:1.0;"/><line style="stroke:#181818;stroke-width:1.0;" x1="617.5" x2="860.5" y1="603.2383" y2="603.2383"/><text fill="#000000" font-family="sans-serif" font-size="13" font-weight="bold" lengthAdjust="spacing" textLength="14" x="624.5" y="597.9756">15</text><text fill="#000000" font-family="sans-serif" font-size="13" lengthAdjust="spacing" textLength="139" x="642.5" y="597.9756">getToDoListRepository()</text><polygon fill="#181818" points="628.5,630.5293,618.5,634.5293,628.5,638.5293,624.5,634.5293" style="stroke:#181818;stroke-width:1.0;"/><line style="stroke:#181818;stroke-width:1.0;stroke-dasharray:2.0,2.0;" x1="622.5" x2="870.5" y1="634.5293" y2="634.5293"/><text fill="#000000" font-family="sans-serif" font-size="13" font-weight="bold" lengthAdjust="spacing" textLength="14" x="634.5" y="629.2666">16</text><text fill="#000000" font-family="sans-serif" font-size="13" lengthAdjust="spacing" textLength="110" x="652.5" y="629.2666">toDoListRepository</text><polygon fill="#181818" points="1299.5,661.8203,1309.5,665.8203,1299.5,669.8203,1303.5,665.8203" style="stroke:#181818;stroke-width:1.0;"/><line style="stroke:#181818;stroke-width:1.0;" x1="617.5" x2="1305.5" y1="665.8203" y2="665.8203"/><text fill="#000000" font-family="sans-serif" font-size="13" font-weight="bold" lengthAdjust="spacing" textLength="14" x="624.5" y="660.5576">17</text><text fill="#000000" font-family="sans-serif" font-size="13" lengthAdjust="spacing" textLength="118" x="642.5" y="660.5576">getToDoListEntries()</text><polygon fill="#181818" points="628.5,693.1113,618.5,697.1113,628.5,701.1113,624.5,697.1113" style="stroke:#181818;stroke-width:1.0;"/><line style="stroke:#181818;stroke-width:1.0;stroke-dasharray:2.0,2.0;" x1="622.5" x2="1315.5" y1="697.1113" y2="697.1113"/><text fill="#000000" font-family="sans-serif" font-size="13" font-weight="bold" lengthAdjust="spacing" textLength="14" x="634.5" y="691.8486">18</text><text fill="#000000" font-family="sans-serif" font-size="13" lengthAdjust="spacing" textLength="89" x="652.5" y="691.8486">toDoListEntries</text><polygon fill="#181818" points="327.5,724.4023,317.5,728.4023,327.5,732.4023,323.5,728.4023" style="stroke:#181818;stroke-width:1.0;"/><line style="stroke:#181818;stroke-width:1.0;stroke-dasharray:2.0,2.0;" x1="321.5" x2="611.5" y1="728.4023" y2="728.4023"/><text fill="#000000" font-family="sans-serif" font-size="13" font-weight="bold" lengthAdjust="spacing" textLength="14" x="333.5" y="723.1396">19</text><text fill="#000000" font-family="sans-serif" font-size="13" lengthAdjust="spacing" textLength="89" x="351.5" y="723.1396">toDoListEntries</text><polygon fill="#181818" points="39.5,755.6934,29.5,759.6934,39.5,763.6934,35.5,759.6934" style="stroke:#181818;stroke-width:1.0;"/><line style="stroke:#181818;stroke-width:1.0;stroke-dasharray:2.0,2.0;" x1="33.5" x2="310.5" y1="759.6934" y2="759.6934"/><text fill="#000000" font-family="sans-serif" font-size="13" font-weight="bold" lengthAdjust="spacing" textLength="14" x="45.5" y="754.4307">20</text><text fill="#000000" font-family="sans-serif" font-size="13" lengthAdjust="spacing" textLength="233" x="63.5" y="754.4307">shows To-Do List entries (selected data)</text><polygon fill="#181818" points="294.5,786.9844,304.5,790.9844,294.5,794.9844,298.5,790.9844" style="stroke:#181818;stroke-width:1.0;"/><line style="stroke:#181818;stroke-width:1.0;" x1="28.5" x2="300.5" y1="790.9844" y2="790.9844"/><text fill="#000000" font-family="sans-serif" font-size="13" font-weight="bold" lengthAdjust="spacing" textLength="14" x="35.5" y="785.7217">21</text><text fill="#000000" font-family="sans-serif" font-size="13" lengthAdjust="spacing" textLength="192" x="53.5" y="785.7217">selects one entry from To-Do List</text><polygon fill="#181818" points="39.5,818.2754,29.5,822.2754,39.5,826.2754,35.5,822.2754" style="stroke:#181818;stroke-width:1.0;"/><line style="stroke:#181818;stroke-width:1.0;stroke-dasharray:2.0,2.0;" x1="33.5" x2="310.5" y1="822.2754" y2="822.2754"/><text fill="#000000" font-family="sans-serif" font-size="13" font-weight="bold" lengthAdjust="spacing" textLength="14" x="45.5" y="817.0127">22</text><text fill="#000000" font-family="sans-serif" font-size="13" lengthAdjust="spacing" textLength="115" x="63.5" y="817.0127">requests typed data</text><polygon fill="#181818" points="294.5,849.5664,304.5,853.5664,294.5,857.5664,298.5,853.5664" style="stroke:#181818;stroke-width:1.0;"/><line style="stroke:#181818;stroke-width:1.0;" x1="28.5" x2="300.5" y1="853.5664" y2="853.5664"/><text fill="#000000" font-family="sans-serif" font-size="13" font-weight="bold" lengthAdjust="spacing" textLength="14" x="35.5" y="848.3037">23</text><text fill="#000000" font-family="sans-serif" font-size="13" lengthAdjust="spacing" textLength="187" x="53.5" y="848.3037">types requested data (startDate)</text><polygon fill="#181818" points="39.5,880.8574,29.5,884.8574,39.5,888.8574,35.5,884.8574" style="stroke:#181818;stroke-width:1.0;"/><line style="stroke:#181818;stroke-width:1.0;stroke-dasharray:2.0,2.0;" x1="33.5" x2="310.5" y1="884.8574" y2="884.8574"/><text fill="#000000" font-family="sans-serif" font-size="13" font-weight="bold" lengthAdjust="spacing" textLength="14" x="45.5" y="879.5947">24</text><text fill="#000000" font-family="sans-serif" font-size="13" lengthAdjust="spacing" textLength="236" x="63.5" y="879.5947">shows all data and requests confirmation</text><polygon fill="#181818" points="294.5,912.1484,304.5,916.1484,294.5,920.1484,298.5,916.1484" style="stroke:#181818;stroke-width:1.0;"/><line style="stroke:#181818;stroke-width:1.0;" x1="28.5" x2="300.5" y1="916.1484" y2="916.1484"/><text fill="#000000" font-family="sans-serif" font-size="13" font-weight="bold" lengthAdjust="spacing" textLength="14" x="35.5" y="910.8857">25</text><text fill="#000000" font-family="sans-serif" font-size="13" lengthAdjust="spacing" textLength="78" x="53.5" y="910.8857">confirms data</text><polygon fill="#181818" points="595.5,943.4395,605.5,947.4395,595.5,951.4395,599.5,947.4395" style="stroke:#181818;stroke-width:1.0;"/><line style="stroke:#181818;stroke-width:1.0;" x1="316.5" x2="601.5" y1="947.4395" y2="947.4395"/><text fill="#000000" font-family="sans-serif" font-size="13" font-weight="bold" lengthAdjust="spacing" textLength="14" x="323.5" y="942.1768">26</text><text fill="#000000" font-family="sans-serif" font-size="13" lengthAdjust="spacing" textLength="254" x="341.5" y="942.1768">addEntryAgenda(startDate, toDoListEntries)</text><polygon fill="#181818" points="1465.5,974.7305,1475.5,978.7305,1465.5,982.7305,1469.5,978.7305" style="stroke:#181818;stroke-width:1.0;"/><line style="stroke:#181818;stroke-width:1.0;" x1="617.5" x2="1471.5" y1="978.7305" y2="978.7305"/><text fill="#000000" font-family="sans-serif" font-size="13" font-weight="bold" lengthAdjust="spacing" textLength="14" x="624.5" y="973.4678">27</text><text fill="#000000" font-family="sans-serif" font-size="13" lengthAdjust="spacing" textLength="254" x="642.5" y="973.4678">addEntryAgenda(startDate, toDoListEntries)</text><line style="stroke:#181818;stroke-width:1.0;" x1="1487.5" x2="1529.5" y1="1010.0215" y2="1010.0215"/><line style="stroke:#181818;stroke-width:1.0;" x1="1529.5" x2="1529.5" y1="1010.0215" y2="1023.0215"/><line style="stroke:#181818;stroke-width:1.0;" x1="1488.5" x2="1529.5" y1="1023.0215" y2="1023.0215"/><polygon fill="#181818" points="1498.5,1019.0215,1488.5,1023.0215,1498.5,1027.0215,1494.5,1023.0215" style="stroke:#181818;stroke-width:1.0;"/><text fill="#000000" font-family="sans-serif" font-size="13" font-weight="bold" lengthAdjust="spacing" textLength="14" x="1494.5" y="1004.7588">28</text><text fill="#000000" font-family="sans-serif" font-size="13" lengthAdjust="spacing" textLength="96" x="1512.5" y="1004.7588">addEntryAgenda</text><polygon fill="#181818" points="1332.5,1050.3125,1322.5,1054.3125,1332.5,1058.3125,1328.5,1054.3125" style="stroke:#181818;stroke-width:1.0;"/><line style="stroke:#181818;stroke-width:1.0;" x1="1326.5" x2="1481.5" y1="1054.3125" y2="1054.3125"/><text fill="#000000" font-family="sans-serif" font-size="13" font-weight="bold" lengthAdjust="spacing" textLength="14" x="1338.5" y="1049.0498">29</text><text fill="#000000" font-family="sans-serif" font-size="13" lengthAdjust="spacing" textLength="73" x="1356.5" y="1049.0498">entryAgenda</text><line style="stroke:#181818;stroke-width:1.0;" x1="1321.5" x2="1363.5" y1="1085.6035" y2="1085.6035"/><line style="stroke:#181818;stroke-width:1.0;" x1="1363.5" x2="1363.5" y1="1085.6035" y2="1098.6035"/><line style="stroke:#181818;stroke-width:1.0;" x1="1322.5" x2="1363.5" y1="1098.6035" y2="1098.6035"/><polygon fill="#181818" points="1332.5,1094.6035,1322.5,1098.6035,1332.5,1102.6035,1328.5,1098.6035" style="stroke:#181818;stroke-width:1.0;"/><text fill="#000000" font-family="sans-serif" font-size="13" font-weight="bold" lengthAdjust="spacing" textLength="14" x="1328.5" y="1080.3408">30</text><text fill="#000000" font-family="sans-serif" font-size="13" lengthAdjust="spacing" textLength="124" x="1346.5" y="1080.3408">validate(entryAgenda)</text><polygon fill="#181818" points="628.5,1125.8945,618.5,1129.8945,628.5,1133.8945,624.5,1129.8945" style="stroke:#181818;stroke-width:1.0;"/><line style="stroke:#181818;stroke-width:1.0;" x1="622.5" x2="1315.5" y1="1129.8945" y2="1129.8945"/><text fill="#000000" font-family="sans-serif" font-size="13" font-weight="bold" lengthAdjust="spacing" textLength="14" x="634.5" y="1124.6318">31</text><text fill="#000000" font-family="sans-serif" font-size="13" lengthAdjust="spacing" textLength="73" x="652.5" y="1124.6318">entryAgenda</text><polygon fill="#181818" points="327.5,1157.1855,317.5,1161.1855,327.5,1165.1855,323.5,1161.1855" style="stroke:#181818;stroke-width:1.0;"/><line style="stroke:#181818;stroke-width:1.0;" x1="321.5" x2="611.5" y1="1161.1855" y2="1161.1855"/><text fill="#000000" font-family="sans-serif" font-size="13" font-weight="bold" lengthAdjust="spacing" textLength="14" x="333.5" y="1155.9229">32</text><text fill="#000000" font-family="sans-serif" font-size="13" lengthAdjust="spacing" textLength="73" x="351.5" y="1155.9229">entryAgenda</text><polygon fill="#181818" points="34.5,1188.4766,24.5,1192.4766,34.5,1196.4766,30.5,1192.4766" style="stroke:#181818;stroke-width:1.0;"/><line style="stroke:#181818;stroke-width:1.0;stroke-dasharray:2.0,2.0;" x1="28.5" x2="310.5" y1="1192.4766" y2="1192.4766"/><text fill="#000000" font-family="sans-serif" font-size="13" font-weight="bold" lengthAdjust="spacing" textLength="14" x="40.5" y="1187.2139">33</text><text fill="#000000" font-family="sans-serif" font-size="13" lengthAdjust="spacing" textLength="158" x="58.5" y="1187.2139">displays operation success</text><!--SRC=[xPR1Rjim38RlUWgYbpN0yW8v30YQhYZG0aEJtdfHRSOHOakU9BVBsu-IxTYo5TSjTfmFHIEJ7qcHloLp5BBacXTGAAcIWrO5WjKLCdD-K_Bao3FSsbEEe36nN6Pvty0SUAhUXSnWptE3ZF7AAbaLhwWP-tOGAS9UAVkg_Z2UMANXwcxxU0NSm7hpo8XXHI9ABYrShTPfUYkjFgqpb2b_llTcp_UJLZUA_bTvZjfRt-oU7WRsJrWg8oYqGEDjpWkdhN3LKBwXY-vvlCWnuDV3UXTwP1fHRccpi8ElNkHTPDaJOYz28XPbhauOycv7YvusNWvPbfjZmDa52vuHBetzQH-SIMsxVhhzkMQkeUADM_IjrBW7zORQ_VXENOCLx0x2W3DIajnCLQ01U-2M_Y1KXcmFHEEvHfwU85TPXYa8oHWq3w5W-QE64U58xWfucW87YU-0RWp8mVFgSUXypydH09qNtKCqOhf18Mg6jkl5Wp3sUX4Odob-i89Nxl4KeaL6geRVIqEIIN203T2nUHnPkoSMPTdKieB-r8xSK_nSkBOmD-h3RUe0KrLvaKJByCmkxvXsflAFWzk4OsdEw7EGUbITqLAYqPQzyGfYJbKrBsPTPIk92NgFF9vSfm1YE7Mjw0EktasD0kDONcIl20Pp-jvZoYBCLbDzWTRs0OgDX3WKtqvjb4lUVT5fRl-hxuBwsdtwnzgp8-pNbHUU87FQ6-GyE82YsGz2z8Hcmq1JLNmKADJO5FYp8jkfvKQ1e_cZYt1mtQeCKcxvuhDQKnARKt1FjxTU07Rn20poqlYxGaCWUogR7DYCyCxQjCwD7vLYwTAm8P_5pEZrhl0yhm5Sfbr2YP9xeGlkBWzpKchiJLV3nVZdeU71JRBB__kmwmjsuOl4eaBmrwCluKD5DDUiqOJMBxfGer8cNOOonPxVb6pgRERgzoFfHX9vuxcWxk5rBwF5353JpRbrJEVPDj4FrKoaduMuzbUG2bFc_4HQBL7xSGPJ9NJCcjXOztwwI_LV]--></g></svg>