<?xml version="1.0" encoding="us-ascii" standalone="no"?><svg xmlns="http://www.w3.org/2000/svg" xmlns:xlink="http://www.w3.org/1999/xlink" contentStyleType="text/css" height="1059px" preserveAspectRatio="none" style="width:1491px;height:1059px;background:#FFFFFF;" version="1.1" viewBox="0 0 1491 1059" width="1491px" zoomAndPan="magnify"><defs/><g><!--class Employee--><g id="elem_Employee"><rect codeLine="10" fill="#F1F1F1" height="234.2109" id="Employee" rx="2.5" ry="2.5" style="stroke:#181818;stroke-width:0.5;" width="1227" x="257" y="449"/><ellipse cx="835.25" cy="465" fill="#ADD1B2" rx="11" ry="11" style="stroke:#181818;stroke-width:1.0;"/><path d="M838.0156,460.875 Q838.1719,460.6563 838.3594,460.5469 Q838.5469,460.4375 838.7656,460.4375 Q839.1406,460.4375 839.375,460.7031 Q839.6094,460.9531 839.6094,461.5625 L839.6094,463.0156 Q839.6094,463.625 839.375,463.8906 Q839.1406,464.1563 838.7656,464.1563 Q838.4219,464.1563 838.2188,463.9531 Q838.0156,463.7656 837.9063,463.25 Q837.8594,462.8906 837.6719,462.7031 Q837.3438,462.3281 836.7344,462.1094 Q836.125,461.8906 835.5,461.8906 Q834.7344,461.8906 834.0938,462.2188 Q833.4688,462.5469 832.9688,463.2969 Q832.4844,464.0469 832.4844,465.0781 L832.4844,466.1719 Q832.4844,467.4063 833.375,468.2344 Q834.2656,469.0469 835.8594,469.0469 Q836.7969,469.0469 837.4531,468.7969 Q837.8438,468.6406 838.2656,468.2031 Q838.5313,467.9375 838.6719,467.8594 Q838.8281,467.7813 839.0313,467.7813 Q839.3594,467.7813 839.6094,468.0469 Q839.875,468.2969 839.875,468.6406 Q839.875,468.9844 839.5313,469.3906 Q839.0313,469.9688 838.2344,470.2969 Q837.1563,470.75 835.8594,470.75 Q834.3438,470.75 833.1406,470.125 Q832.1563,469.625 831.4688,468.5625 Q830.7813,467.4844 830.7813,466.2031 L830.7813,465.0469 Q830.7813,463.7188 831.3906,462.5781 Q832.0156,461.4219 833.1094,460.8125 Q834.2031,460.1875 835.4375,460.1875 Q836.1719,460.1875 836.8125,460.3594 Q837.4688,460.5156 838.0156,460.875 Z " fill="#000000"/><text fill="#000000" font-family="sans-serif" font-size="14" lengthAdjust="spacing" textLength="62" x="855.75" y="470.7969">Employee</text><line style="stroke:#181818;stroke-width:0.5;" x1="258" x2="1483" y1="481" y2="481"/><text fill="#000000" font-family="sans-serif" font-size="14" lengthAdjust="spacing" textLength="89" x="263" y="500.1074">-name : String</text><text fill="#000000" font-family="sans-serif" font-size="14" lengthAdjust="spacing" textLength="103" x="263" y="518.7285">-birthdate : Date</text><text fill="#000000" font-family="sans-serif" font-size="14" lengthAdjust="spacing" textLength="87" x="263" y="537.3496">-email : String</text><text fill="#000000" font-family="sans-serif" font-size="14" lengthAdjust="spacing" textLength="121" x="263" y="555.9707">-phoneNumber : int</text><text fill="#000000" font-family="sans-serif" font-size="14" lengthAdjust="spacing" textLength="142" x="263" y="574.5918">-admission date : Date</text><text fill="#000000" font-family="sans-serif" font-size="14" lengthAdjust="spacing" textLength="157" x="263" y="593.2129">-taxpayerNumber : String</text><text fill="#000000" font-family="sans-serif" font-size="14" lengthAdjust="spacing" textLength="105" x="263" y="611.834">-address : String</text><text fill="#000000" font-family="sans-serif" font-size="14" lengthAdjust="spacing" textLength="126" x="263" y="630.4551">-docNumber : String</text><text fill="#000000" font-family="sans-serif" font-size="14" lengthAdjust="spacing" textLength="100" x="263" y="649.0762">-jobTitle : String</text><line style="stroke:#181818;stroke-width:0.5;" x1="258" x2="1483" y1="656.5898" y2="656.5898"/><text fill="#000000" font-family="sans-serif" font-size="14" lengthAdjust="spacing" textLength="1215" x="263" y="675.6973">+addTaskAgenda(selectedGreenSpace : GreenSpace, selectedTask : Task, selectedDate : LocalDate, startTime : LocalTime, agenda : TaskPosition, userValidation : boolean) : Optional&lt;Task&gt;</text></g><!--class Task--><g id="elem_Task"><rect codeLine="26" fill="#F1F1F1" height="290.0742" id="Task" rx="2.5" ry="2.5" style="stroke:#181818;stroke-width:0.5;" width="214" x="763.5" y="762"/><ellipse cx="850.75" cy="778" fill="#ADD1B2" rx="11" ry="11" style="stroke:#181818;stroke-width:1.0;"/><path d="M853.5156,773.875 Q853.6719,773.6563 853.8594,773.5469 Q854.0469,773.4375 854.2656,773.4375 Q854.6406,773.4375 854.875,773.7031 Q855.1094,773.9531 855.1094,774.5625 L855.1094,776.0156 Q855.1094,776.625 854.875,776.8906 Q854.6406,777.1563 854.2656,777.1563 Q853.9219,777.1563 853.7188,776.9531 Q853.5156,776.7656 853.4063,776.25 Q853.3594,775.8906 853.1719,775.7031 Q852.8438,775.3281 852.2344,775.1094 Q851.625,774.8906 851,774.8906 Q850.2344,774.8906 849.5938,775.2188 Q848.9688,775.5469 848.4688,776.2969 Q847.9844,777.0469 847.9844,778.0781 L847.9844,779.1719 Q847.9844,780.4063 848.875,781.2344 Q849.7656,782.0469 851.3594,782.0469 Q852.2969,782.0469 852.9531,781.7969 Q853.3438,781.6406 853.7656,781.2031 Q854.0313,780.9375 854.1719,780.8594 Q854.3281,780.7813 854.5313,780.7813 Q854.8594,780.7813 855.1094,781.0469 Q855.375,781.2969 855.375,781.6406 Q855.375,781.9844 855.0313,782.3906 Q854.5313,782.9688 853.7344,783.2969 Q852.6563,783.75 851.3594,783.75 Q849.8438,783.75 848.6406,783.125 Q847.6563,782.625 846.9688,781.5625 Q846.2813,780.4844 846.2813,779.2031 L846.2813,778.0469 Q846.2813,776.7188 846.8906,775.5781 Q847.5156,774.4219 848.6094,773.8125 Q849.7031,773.1875 850.9375,773.1875 Q851.6719,773.1875 852.3125,773.3594 Q852.9688,773.5156 853.5156,773.875 Z " fill="#000000"/><text fill="#000000" font-family="sans-serif" font-size="14" lengthAdjust="spacing" textLength="31" x="871.25" y="783.7969">Task</text><line style="stroke:#181818;stroke-width:0.5;" x1="764.5" x2="976.5" y1="794" y2="794"/><text fill="#000000" font-family="sans-serif" font-size="14" lengthAdjust="spacing" textLength="72" x="769.5" y="813.1074">-title: String</text><text fill="#000000" font-family="sans-serif" font-size="14" lengthAdjust="spacing" textLength="119" x="769.5" y="831.7285">-description: String</text><text fill="#000000" font-family="sans-serif" font-size="14" lengthAdjust="spacing" textLength="71" x="769.5" y="850.3496">-date: Date</text><text fill="#000000" font-family="sans-serif" font-size="14" lengthAdjust="spacing" textLength="182" x="769.5" y="868.9707">-taskStartPeriod: TaskPeriod</text><text fill="#000000" font-family="sans-serif" font-size="14" lengthAdjust="spacing" textLength="161" x="769.5" y="887.5918">taskExpectedDuration: int</text><text fill="#000000" font-family="sans-serif" font-size="14" lengthAdjust="spacing" textLength="72" x="769.5" y="906.2129">type: String</text><text fill="#000000" font-family="sans-serif" font-size="14" lengthAdjust="spacing" textLength="165" x="769.5" y="924.834">greenSpace: GreenSpace</text><text fill="#000000" font-family="sans-serif" font-size="14" lengthAdjust="spacing" textLength="142" x="769.5" y="943.4551">urgency: TaskUrgency</text><text fill="#000000" font-family="sans-serif" font-size="14" lengthAdjust="spacing" textLength="117" x="769.5" y="962.0762">status: TaskStatus</text><text fill="#000000" font-family="sans-serif" font-size="14" lengthAdjust="spacing" textLength="137" x="769.5" y="980.6973">assignedTeam: Team</text><text fill="#000000" font-family="sans-serif" font-size="14" lengthAdjust="spacing" textLength="202" x="769.5" y="999.3184">assignedVehicles: List&lt;Vehicle&gt;</text><text fill="#000000" font-family="sans-serif" font-size="14" lengthAdjust="spacing" textLength="96" x="769.5" y="1017.9395">startDate: Date</text><text fill="#000000" font-family="sans-serif" font-size="14" lengthAdjust="spacing" textLength="165" x="769.5" y="1036.5605">taskPosition: TaskPosition</text><line style="stroke:#181818;stroke-width:0.5;" x1="764.5" x2="976.5" y1="1044.0742" y2="1044.0742"/></g><!--class AddEntryAgendaController--><g id="elem_AddEntryAgendaController"><rect codeLine="43" fill="#F1F1F1" height="252.832" id="AddEntryAgendaController" rx="2.5" ry="2.5" style="stroke:#181818;stroke-width:0.5;" width="672" x="193.5" y="7"/><ellipse cx="440.75" cy="23" fill="#ADD1B2" rx="11" ry="11" style="stroke:#181818;stroke-width:1.0;"/><path d="M443.5156,18.875 Q443.6719,18.6563 443.8594,18.5469 Q444.0469,18.4375 444.2656,18.4375 Q444.6406,18.4375 444.875,18.7031 Q445.1094,18.9531 445.1094,19.5625 L445.1094,21.0156 Q445.1094,21.625 444.875,21.8906 Q444.6406,22.1563 444.2656,22.1563 Q443.9219,22.1563 443.7188,21.9531 Q443.5156,21.7656 443.4063,21.25 Q443.3594,20.8906 443.1719,20.7031 Q442.8438,20.3281 442.2344,20.1094 Q441.625,19.8906 441,19.8906 Q440.2344,19.8906 439.5938,20.2188 Q438.9688,20.5469 438.4688,21.2969 Q437.9844,22.0469 437.9844,23.0781 L437.9844,24.1719 Q437.9844,25.4063 438.875,26.2344 Q439.7656,27.0469 441.3594,27.0469 Q442.2969,27.0469 442.9531,26.7969 Q443.3438,26.6406 443.7656,26.2031 Q444.0313,25.9375 444.1719,25.8594 Q444.3281,25.7813 444.5313,25.7813 Q444.8594,25.7813 445.1094,26.0469 Q445.375,26.2969 445.375,26.6406 Q445.375,26.9844 445.0313,27.3906 Q444.5313,27.9688 443.7344,28.2969 Q442.6563,28.75 441.3594,28.75 Q439.8438,28.75 438.6406,28.125 Q437.6563,27.625 436.9688,26.5625 Q436.2813,25.4844 436.2813,24.2031 L436.2813,23.0469 Q436.2813,21.7188 436.8906,20.5781 Q437.5156,19.4219 438.6094,18.8125 Q439.7031,18.1875 440.9375,18.1875 Q441.6719,18.1875 442.3125,18.3594 Q442.9688,18.5156 443.5156,18.875 Z " fill="#000000"/><text fill="#000000" font-family="sans-serif" font-size="14" lengthAdjust="spacing" textLength="169" x="461.25" y="28.7969">AddEntryAgendaController</text><line style="stroke:#181818;stroke-width:0.5;" x1="194.5" x2="864.5" y1="39" y2="39"/><line style="stroke:#181818;stroke-width:0.5;" x1="194.5" x2="864.5" y1="47" y2="47"/><text fill="#000000" font-family="sans-serif" font-size="14" lengthAdjust="spacing" textLength="224" x="199.5" y="66.1074">+getGreenSpaceRepository() : void</text><text fill="#000000" font-family="sans-serif" font-size="14" lengthAdjust="spacing" textLength="175" x="199.5" y="84.7285">+getTaskRepository() : void</text><text fill="#000000" font-family="sans-serif" font-size="14" lengthAdjust="spacing" textLength="173" x="199.5" y="103.3496">+getAuthRepository() : void</text><text fill="#000000" font-family="sans-serif" font-size="14" lengthAdjust="spacing" textLength="150" x="199.5" y="121.9707">+getUserEmail() : String</text><text fill="#000000" font-family="sans-serif" font-size="14" lengthAdjust="spacing" textLength="255" x="199.5" y="140.5918">+getGreenSpaces() : List&lt;GreenSpace&gt;</text><text fill="#000000" font-family="sans-serif" font-size="14" lengthAdjust="spacing" textLength="412" x="199.5" y="159.2129">+getTasksByGreenSpace (greenSpace Greenspace): List&lt;Task&gt;</text><text fill="#000000" font-family="sans-serif" font-size="14" lengthAdjust="spacing" textLength="381" x="199.5" y="177.834">+getGreenSpaceList(userEmail : String) : List&lt;GreenSpace&gt;</text><text fill="#000000" font-family="sans-serif" font-size="14" lengthAdjust="spacing" textLength="571" x="199.5" y="196.4551">+filterGreenSpacesByManager (greenSpaces : List&lt;GreenSpace&gt;, managerName : String)</text><text fill="#000000" font-family="sans-serif" font-size="14" lengthAdjust="spacing" textLength="252" x="199.5" y="215.0762">+currentUserLogInValidation() : boolean</text><text fill="#000000" font-family="sans-serif" font-size="14" lengthAdjust="spacing" textLength="660" x="199.5" y="233.6973">+addTaskToAgenda (selectedTask : Task, startDate LocalDate, startTime : LocalTime) : Optional&lt;Task&gt;</text><text fill="#000000" font-family="sans-serif" font-size="14" lengthAdjust="spacing" textLength="105" x="199.5" y="252.3184">+initialize() : void</text></g><!--class AddEntryAgendaUI--><g id="elem_AddEntryAgendaUI"><rect codeLine="59" fill="#F1F1F1" height="48" id="AddEntryAgendaUI" rx="2.5" ry="2.5" style="stroke:#181818;stroke-width:0.5;" width="151" x="7" y="109.5"/><ellipse cx="22" cy="125.5" fill="#ADD1B2" rx="11" ry="11" style="stroke:#181818;stroke-width:1.0;"/><path d="M24.7656,121.375 Q24.9219,121.1563 25.1094,121.0469 Q25.2969,120.9375 25.5156,120.9375 Q25.8906,120.9375 26.125,121.2031 Q26.3594,121.4531 26.3594,122.0625 L26.3594,123.5156 Q26.3594,124.125 26.125,124.3906 Q25.8906,124.6563 25.5156,124.6563 Q25.1719,124.6563 24.9688,124.4531 Q24.7656,124.2656 24.6563,123.75 Q24.6094,123.3906 24.4219,123.2031 Q24.0938,122.8281 23.4844,122.6094 Q22.875,122.3906 22.25,122.3906 Q21.4844,122.3906 20.8438,122.7188 Q20.2188,123.0469 19.7188,123.7969 Q19.2344,124.5469 19.2344,125.5781 L19.2344,126.6719 Q19.2344,127.9063 20.125,128.7344 Q21.0156,129.5469 22.6094,129.5469 Q23.5469,129.5469 24.2031,129.2969 Q24.5938,129.1406 25.0156,128.7031 Q25.2813,128.4375 25.4219,128.3594 Q25.5781,128.2813 25.7813,128.2813 Q26.1094,128.2813 26.3594,128.5469 Q26.625,128.7969 26.625,129.1406 Q26.625,129.4844 26.2813,129.8906 Q25.7813,130.4688 24.9844,130.7969 Q23.9063,131.25 22.6094,131.25 Q21.0938,131.25 19.8906,130.625 Q18.9063,130.125 18.2188,129.0625 Q17.5313,127.9844 17.5313,126.7031 L17.5313,125.5469 Q17.5313,124.2188 18.1406,123.0781 Q18.7656,121.9219 19.8594,121.3125 Q20.9531,120.6875 22.1875,120.6875 Q22.9219,120.6875 23.5625,120.8594 Q24.2188,121.0156 24.7656,121.375 Z " fill="#000000"/><text fill="#000000" font-family="sans-serif" font-size="14" lengthAdjust="spacing" textLength="119" x="36" y="131.2969">AddEntryAgendaUI</text><line style="stroke:#181818;stroke-width:0.5;" x1="8" x2="157" y1="141.5" y2="141.5"/><line style="stroke:#181818;stroke-width:0.5;" x1="8" x2="157" y1="149.5" y2="149.5"/></g><!--class Repositories--><g id="elem_Repositories"><rect codeLine="63" fill="#F1F1F1" height="141.1055" id="Repositories" rx="2.5" ry="2.5" style="stroke:#181818;stroke-width:0.5;" width="374" x="900.5" y="63"/><ellipse cx="1043.75" cy="79" fill="#ADD1B2" rx="11" ry="11" style="stroke:#181818;stroke-width:1.0;"/><path d="M1046.5156,74.875 Q1046.6719,74.6563 1046.8594,74.5469 Q1047.0469,74.4375 1047.2656,74.4375 Q1047.6406,74.4375 1047.875,74.7031 Q1048.1094,74.9531 1048.1094,75.5625 L1048.1094,77.0156 Q1048.1094,77.625 1047.875,77.8906 Q1047.6406,78.1563 1047.2656,78.1563 Q1046.9219,78.1563 1046.7188,77.9531 Q1046.5156,77.7656 1046.4063,77.25 Q1046.3594,76.8906 1046.1719,76.7031 Q1045.8438,76.3281 1045.2344,76.1094 Q1044.625,75.8906 1044,75.8906 Q1043.2344,75.8906 1042.5938,76.2188 Q1041.9688,76.5469 1041.4688,77.2969 Q1040.9844,78.0469 1040.9844,79.0781 L1040.9844,80.1719 Q1040.9844,81.4063 1041.875,82.2344 Q1042.7656,83.0469 1044.3594,83.0469 Q1045.2969,83.0469 1045.9531,82.7969 Q1046.3438,82.6406 1046.7656,82.2031 Q1047.0313,81.9375 1047.1719,81.8594 Q1047.3281,81.7813 1047.5313,81.7813 Q1047.8594,81.7813 1048.1094,82.0469 Q1048.375,82.2969 1048.375,82.6406 Q1048.375,82.9844 1048.0313,83.3906 Q1047.5313,83.9688 1046.7344,84.2969 Q1045.6563,84.75 1044.3594,84.75 Q1042.8438,84.75 1041.6406,84.125 Q1040.6563,83.625 1039.9688,82.5625 Q1039.2813,81.4844 1039.2813,80.2031 L1039.2813,79.0469 Q1039.2813,77.7188 1039.8906,76.5781 Q1040.5156,75.4219 1041.6094,74.8125 Q1042.7031,74.1875 1043.9375,74.1875 Q1044.6719,74.1875 1045.3125,74.3594 Q1045.9688,74.5156 1046.5156,74.875 Z " fill="#000000"/><text fill="#000000" font-family="sans-serif" font-size="14" lengthAdjust="spacing" textLength="79" x="1064.25" y="84.7969">Repositories</text><line style="stroke:#181818;stroke-width:0.5;" x1="901.5" x2="1273.5" y1="95" y2="95"/><line style="stroke:#181818;stroke-width:0.5;" x1="901.5" x2="1273.5" y1="103" y2="103"/><text fill="#000000" font-family="sans-serif" font-size="14" lengthAdjust="spacing" textLength="94" x="906.5" y="122.1074">-Repositories()</text><text fill="#000000" font-family="sans-serif" font-size="14" lengthAdjust="spacing" textLength="182" x="906.5" y="140.7285">+getInstance() : Repositories</text><text fill="#000000" font-family="sans-serif" font-size="14" lengthAdjust="spacing" textLength="305" x="906.5" y="159.3496">+getEmployeeRepository(); employeeRepository</text><text fill="#000000" font-family="sans-serif" font-size="14" lengthAdjust="spacing" textLength="362" x="906.5" y="177.9707">+getGreenSpaceRepository(); getGreenSpaceRepository</text><text fill="#000000" font-family="sans-serif" font-size="14" lengthAdjust="spacing" textLength="264" x="906.5" y="196.5918">+getTaskRepository(); getTaskRepository</text></g><!--class EmployeeRepository--><g id="elem_EmployeeRepository"><rect codeLine="71" fill="#F1F1F1" height="66.6211" id="EmployeeRepository" rx="2.5" ry="2.5" style="stroke:#181818;stroke-width:0.5;" width="182" x="647.5" y="321"/><ellipse cx="671.5" cy="337" fill="#ADD1B2" rx="11" ry="11" style="stroke:#181818;stroke-width:1.0;"/><path d="M674.2656,332.875 Q674.4219,332.6563 674.6094,332.5469 Q674.7969,332.4375 675.0156,332.4375 Q675.3906,332.4375 675.625,332.7031 Q675.8594,332.9531 675.8594,333.5625 L675.8594,335.0156 Q675.8594,335.625 675.625,335.8906 Q675.3906,336.1563 675.0156,336.1563 Q674.6719,336.1563 674.4688,335.9531 Q674.2656,335.7656 674.1563,335.25 Q674.1094,334.8906 673.9219,334.7031 Q673.5938,334.3281 672.9844,334.1094 Q672.375,333.8906 671.75,333.8906 Q670.9844,333.8906 670.3438,334.2188 Q669.7188,334.5469 669.2188,335.2969 Q668.7344,336.0469 668.7344,337.0781 L668.7344,338.1719 Q668.7344,339.4063 669.625,340.2344 Q670.5156,341.0469 672.1094,341.0469 Q673.0469,341.0469 673.7031,340.7969 Q674.0938,340.6406 674.5156,340.2031 Q674.7813,339.9375 674.9219,339.8594 Q675.0781,339.7813 675.2813,339.7813 Q675.6094,339.7813 675.8594,340.0469 Q676.125,340.2969 676.125,340.6406 Q676.125,340.9844 675.7813,341.3906 Q675.2813,341.9688 674.4844,342.2969 Q673.4063,342.75 672.1094,342.75 Q670.5938,342.75 669.3906,342.125 Q668.4063,341.625 667.7188,340.5625 Q667.0313,339.4844 667.0313,338.2031 L667.0313,337.0469 Q667.0313,335.7188 667.6406,334.5781 Q668.2656,333.4219 669.3594,332.8125 Q670.4531,332.1875 671.6875,332.1875 Q672.4219,332.1875 673.0625,332.3594 Q673.7188,332.5156 674.2656,332.875 Z " fill="#000000"/><text fill="#000000" font-family="sans-serif" font-size="14" lengthAdjust="spacing" textLength="130" x="687.5" y="342.7969">EmployeeRepository</text><line style="stroke:#181818;stroke-width:0.5;" x1="648.5" x2="828.5" y1="353" y2="353"/><line style="stroke:#181818;stroke-width:0.5;" x1="648.5" x2="828.5" y1="361" y2="361"/><text fill="#000000" font-family="sans-serif" font-size="14" lengthAdjust="spacing" textLength="170" x="653.5" y="380.1074">+getEmployee(): Employee</text></g><!--class TasksRepository--><g id="elem_TasksRepository"><rect codeLine="77" fill="#F1F1F1" height="66.6211" id="TasksRepository" rx="2.5" ry="2.5" style="stroke:#181818;stroke-width:0.5;" width="276" x="864.5" y="321"/><ellipse cx="945.25" cy="337" fill="#ADD1B2" rx="11" ry="11" style="stroke:#181818;stroke-width:1.0;"/><path d="M948.0156,332.875 Q948.1719,332.6563 948.3594,332.5469 Q948.5469,332.4375 948.7656,332.4375 Q949.1406,332.4375 949.375,332.7031 Q949.6094,332.9531 949.6094,333.5625 L949.6094,335.0156 Q949.6094,335.625 949.375,335.8906 Q949.1406,336.1563 948.7656,336.1563 Q948.4219,336.1563 948.2188,335.9531 Q948.0156,335.7656 947.9063,335.25 Q947.8594,334.8906 947.6719,334.7031 Q947.3438,334.3281 946.7344,334.1094 Q946.125,333.8906 945.5,333.8906 Q944.7344,333.8906 944.0938,334.2188 Q943.4688,334.5469 942.9688,335.2969 Q942.4844,336.0469 942.4844,337.0781 L942.4844,338.1719 Q942.4844,339.4063 943.375,340.2344 Q944.2656,341.0469 945.8594,341.0469 Q946.7969,341.0469 947.4531,340.7969 Q947.8438,340.6406 948.2656,340.2031 Q948.5313,339.9375 948.6719,339.8594 Q948.8281,339.7813 949.0313,339.7813 Q949.3594,339.7813 949.6094,340.0469 Q949.875,340.2969 949.875,340.6406 Q949.875,340.9844 949.5313,341.3906 Q949.0313,341.9688 948.2344,342.2969 Q947.1563,342.75 945.8594,342.75 Q944.3438,342.75 943.1406,342.125 Q942.1563,341.625 941.4688,340.5625 Q940.7813,339.4844 940.7813,338.2031 L940.7813,337.0469 Q940.7813,335.7188 941.3906,334.5781 Q942.0156,333.4219 943.1094,332.8125 Q944.2031,332.1875 945.4375,332.1875 Q946.1719,332.1875 946.8125,332.3594 Q947.4688,332.5156 948.0156,332.875 Z " fill="#000000"/><text fill="#000000" font-family="sans-serif" font-size="14" lengthAdjust="spacing" textLength="106" x="965.75" y="342.7969">TasksRepository</text><line style="stroke:#181818;stroke-width:0.5;" x1="865.5" x2="1139.5" y1="353" y2="353"/><line style="stroke:#181818;stroke-width:0.5;" x1="865.5" x2="1139.5" y1="361" y2="361"/><text fill="#000000" font-family="sans-serif" font-size="14" lengthAdjust="spacing" textLength="264" x="870.5" y="380.1074">+getToDoListEntries(): List&lt;ToDoEntries&gt;</text></g><!--class GreenSpacesRepository--><g id="elem_GreenSpacesRepository"><rect codeLine="80" fill="#F1F1F1" height="66.6211" id="GreenSpacesRepository" rx="2.5" ry="2.5" style="stroke:#181818;stroke-width:0.5;" width="247" x="1176" y="321"/><ellipse cx="1218" cy="337" fill="#ADD1B2" rx="11" ry="11" style="stroke:#181818;stroke-width:1.0;"/><path d="M1220.7656,332.875 Q1220.9219,332.6563 1221.1094,332.5469 Q1221.2969,332.4375 1221.5156,332.4375 Q1221.8906,332.4375 1222.125,332.7031 Q1222.3594,332.9531 1222.3594,333.5625 L1222.3594,335.0156 Q1222.3594,335.625 1222.125,335.8906 Q1221.8906,336.1563 1221.5156,336.1563 Q1221.1719,336.1563 1220.9688,335.9531 Q1220.7656,335.7656 1220.6563,335.25 Q1220.6094,334.8906 1220.4219,334.7031 Q1220.0938,334.3281 1219.4844,334.1094 Q1218.875,333.8906 1218.25,333.8906 Q1217.4844,333.8906 1216.8438,334.2188 Q1216.2188,334.5469 1215.7188,335.2969 Q1215.2344,336.0469 1215.2344,337.0781 L1215.2344,338.1719 Q1215.2344,339.4063 1216.125,340.2344 Q1217.0156,341.0469 1218.6094,341.0469 Q1219.5469,341.0469 1220.2031,340.7969 Q1220.5938,340.6406 1221.0156,340.2031 Q1221.2813,339.9375 1221.4219,339.8594 Q1221.5781,339.7813 1221.7813,339.7813 Q1222.1094,339.7813 1222.3594,340.0469 Q1222.625,340.2969 1222.625,340.6406 Q1222.625,340.9844 1222.2813,341.3906 Q1221.7813,341.9688 1220.9844,342.2969 Q1219.9063,342.75 1218.6094,342.75 Q1217.0938,342.75 1215.8906,342.125 Q1214.9063,341.625 1214.2188,340.5625 Q1213.5313,339.4844 1213.5313,338.2031 L1213.5313,337.0469 Q1213.5313,335.7188 1214.1406,334.5781 Q1214.7656,333.4219 1215.8594,332.8125 Q1216.9531,332.1875 1218.1875,332.1875 Q1218.9219,332.1875 1219.5625,332.3594 Q1220.2188,332.5156 1220.7656,332.875 Z " fill="#000000"/><text fill="#000000" font-family="sans-serif" font-size="14" lengthAdjust="spacing" textLength="155" x="1238" y="342.7969">GreenSpacesRepository</text><line style="stroke:#181818;stroke-width:0.5;" x1="1177" x2="1422" y1="353" y2="353"/><line style="stroke:#181818;stroke-width:0.5;" x1="1177" x2="1422" y1="361" y2="361"/><text fill="#000000" font-family="sans-serif" font-size="14" lengthAdjust="spacing" textLength="235" x="1182" y="380.1074">+getGreenSpacesList(): GreenSpace</text></g><!--link AddEntryAgendaUI to AddEntryAgendaController--><g id="link_AddEntryAgendaUI_AddEntryAgendaController"><path codeLine="84" d="M158.31,133.5 C170.39,133.5 176.42,133.5 187.13,133.5 " fill="none" id="AddEntryAgendaUI-to-AddEntryAgendaController" style="stroke:#181818;stroke-width:1.0;stroke-dasharray:7.0,7.0;"/><polygon fill="#181818" points="193.13,133.5,184.13,129.5,188.13,133.5,184.13,137.5,193.13,133.5" style="stroke:#181818;stroke-width:1.0;"/></g><!--link AddEntryAgendaController to Repositories--><g id="link_AddEntryAgendaController_Repositories"><path codeLine="86" d="M865.64,133.5 C883.48,133.5 890.75,133.5 894.45,133.5 " fill="none" id="AddEntryAgendaController-to-Repositories" style="stroke:#181818;stroke-width:1.0;stroke-dasharray:7.0,7.0;"/><polygon fill="#181818" points="900.45,133.5,891.45,129.5,895.45,133.5,891.45,137.5,900.45,133.5" style="stroke:#181818;stroke-width:1.0;"/><text fill="#000000" font-family="sans-serif" font-size="13" lengthAdjust="spacing" textLength="7" x="885.4112" y="130.1736">1</text></g><!--link Repositories to Repositories--><g id="link_Repositories_Repositories"><path codeLine="88" d="M1274.56,108.71 C1295.76,113.35 1309.5,121.62 1309.5,133.5 C1309.5,145.38 1301.6213,152.3672 1280.4213,157.0072 " fill="none" id="Repositories-to-Repositories" style="stroke:#181818;stroke-width:1.0;"/><polygon fill="#181818" points="1274.56,158.29,1284.2071,160.2732,1279.4444,157.221,1282.4967,152.4582,1274.56,158.29" style="stroke:#181818;stroke-width:1.0;"/><text fill="#000000" font-family="sans-serif" font-size="13" lengthAdjust="spacing" textLength="75" x="1315.5" y="139.0283">getInstance()</text><text fill="#000000" font-family="sans-serif" font-size="13" lengthAdjust="spacing" textLength="7" x="1282.5993" y="104.3378">1</text><text fill="#000000" font-family="sans-serif" font-size="13" lengthAdjust="spacing" textLength="7" x="1282.5993" y="156.0095">1</text></g><!--link Repositories to EmployeeRepository--><g id="link_Repositories_EmployeeRepository"><path codeLine="89" d="M976.59,204.09 C914.32,243.17 844.612,286.9104 795.682,317.6204 " fill="none" id="Repositories-to-EmployeeRepository" style="stroke:#181818;stroke-width:1.0;"/><polygon fill="#181818" points="790.6,320.81,800.3494,319.4136,794.835,318.152,796.0966,312.6376,790.6,320.81" style="stroke:#181818;stroke-width:1.0;"/><text fill="#000000" font-family="sans-serif" font-size="13" lengthAdjust="spacing" textLength="7" x="957.7915" y="226.284">1</text><text fill="#000000" font-family="sans-serif" font-size="13" lengthAdjust="spacing" textLength="7" x="792.8644" y="309.8597">1</text></g><!--link Repositories to TasksRepository--><g id="link_Repositories_TasksRepository"><path codeLine="90" d="M1060.49,204.09 C1045.32,243.17 1029.2811,284.5066 1017.3611,315.2166 " fill="none" id="Repositories-to-TasksRepository" style="stroke:#181818;stroke-width:1.0;"/><polygon fill="#181818" points="1015.19,320.81,1022.1756,313.8672,1016.9992,316.1488,1014.7177,310.9725,1015.19,320.81" style="stroke:#181818;stroke-width:1.0;"/><text fill="#000000" font-family="sans-serif" font-size="13" lengthAdjust="spacing" textLength="7" x="1050.3437" y="226.284">1</text><text fill="#000000" font-family="sans-serif" font-size="13" lengthAdjust="spacing" textLength="7" x="1009.9418" y="309.8597">1</text></g><!--link Repositories to GreenSpacesRepository--><g id="link_Repositories_GreenSpacesRepository"><path codeLine="91" d="M1154.87,204.09 C1192.7,243.17 1233.9574,285.7884 1263.6774,316.4984 " fill="none" id="Repositories-to-GreenSpacesRepository" style="stroke:#181818;stroke-width:1.0;"/><polygon fill="#181818" points="1267.85,320.81,1264.4655,311.5609,1264.3729,317.217,1258.7168,317.1244,1267.85,320.81" style="stroke:#181818;stroke-width:1.0;"/><text fill="#000000" font-family="sans-serif" font-size="13" lengthAdjust="spacing" textLength="7" x="1154.4566" y="226.284">1</text><text fill="#000000" font-family="sans-serif" font-size="13" lengthAdjust="spacing" textLength="7" x="1254.1495" y="309.8597">1</text></g><!--link AddEntryAgendaController to Employee--><g id="link_AddEntryAgendaController_Employee"><path codeLine="93" d="M579.06,260.14 C604.21,323.88 629.5,388 629.5,388 C629.5,388 662.1738,411.9987 707.6038,445.3587 " fill="none" id="AddEntryAgendaController-to-Employee" style="stroke:#181818;stroke-width:1.0;stroke-dasharray:7.0,7.0;"/><polygon fill="#181818" points="712.44,448.91,707.5533,440.359,708.4099,445.9506,702.8182,446.8072,712.44,448.91" style="stroke:#181818;stroke-width:1.0;"/></g><!--link EmployeeRepository to Employee--><g id="link_EmployeeRepository_Employee"><path codeLine="95" d="M759.12,388.23 C769.71,405.04 780.1222,421.5532 794.1622,443.8432 " fill="none" id="EmployeeRepository-to-Employee" style="stroke:#181818;stroke-width:1.0;"/><polygon fill="#181818" points="797.36,448.92,795.9479,439.1729,794.6952,444.6893,789.1788,443.4366,797.36,448.92" style="stroke:#181818;stroke-width:1.0;"/><text fill="#000000" font-family="sans-serif" font-size="13" lengthAdjust="spacing" textLength="7" x="755.0625" y="409.5742">1</text><text fill="#000000" font-family="sans-serif" font-size="13" lengthAdjust="spacing" textLength="7" x="785.4503" y="437.9059">1</text></g><!--link TasksRepository to Employee--><g id="link_TasksRepository_Employee"><path codeLine="96" d="M981.88,388.23 C971.29,405.04 960.8778,421.5532 946.8378,443.8432 " fill="none" id="TasksRepository-to-Employee" style="stroke:#181818;stroke-width:1.0;"/><polygon fill="#181818" points="943.64,448.92,951.8212,443.4366,946.3048,444.6893,945.0521,439.1729,943.64,448.92" style="stroke:#181818;stroke-width:1.0;"/><text fill="#000000" font-family="sans-serif" font-size="13" lengthAdjust="spacing" textLength="7" x="970.7344" y="409.5742">1</text><text fill="#000000" font-family="sans-serif" font-size="13" lengthAdjust="spacing" textLength="7" x="941.1013" y="437.9059">1</text></g><!--link GreenSpacesRepository to Employee--><g id="link_GreenSpacesRepository_Employee"><path codeLine="97" d="M1232.94,388 C1198.46,404.84 1159.431,423.8962 1113.581,446.2962 " fill="none" id="GreenSpacesRepository-to-Employee" style="stroke:#181818;stroke-width:1.0;"/><polygon fill="#181818" points="1108.19,448.93,1118.0324,448.5733,1112.6825,446.7352,1114.5207,441.3853,1108.19,448.93" style="stroke:#181818;stroke-width:1.0;"/><text fill="#000000" font-family="sans-serif" font-size="13" lengthAdjust="spacing" textLength="7" x="1213.4606" y="409.5692">1</text><text fill="#000000" font-family="sans-serif" font-size="13" lengthAdjust="spacing" textLength="7" x="1116.1928" y="437.9166">1</text></g><!--link Employee to Task--><g id="link_Employee_Task"><path codeLine="99" d="M870.5,683.19 C870.5,708.49 870.5,729.55 870.5,755.79 " fill="none" id="Employee-to-Task" style="stroke:#181818;stroke-width:1.0;"/><polygon fill="#181818" points="870.5,761.79,874.5,752.79,870.5,756.79,866.5,752.79,870.5,761.79" style="stroke:#181818;stroke-width:1.0;"/><text fill="#000000" font-family="sans-serif" font-size="13" lengthAdjust="spacing" textLength="50" x="871.5" y="728.0283">registers</text></g><!--SRC=[XLR1Rjim3BtxAuHTcY1fiLtR8a2w14E0hYkMj7V5PXqjicH8ybQtsB-Fakn8TkmkXqJc8odoyT7jXJuoKL952r988TE3aWKGeof80bBIz4Xps9gQ0r6G6Yfo7Zle0yta7oPoyaAvZX7E19Yw159ANjk7v680bCh898fAETLwQOnY-yh09fLYozw0V4wI2mulXXX95CiFXcJCbiEaI5m8MHSbbpN0UqBmSoaeDdDDjfX8vDwqPyeSCcgiVOK_tWe5PRpdMHwaW8Ugs8D2X0dZpJGhcDPu9JdBOkXhIMjGfw0u7Sqo1LXYrvh9TD3xbzplcE5HzScCO8eTrSTb3YAZ4mqSUuVicm8GMvoHTGuFSz8ws1Y4x4ymhdpnzpAbt9uHCLIP7IjEPdkU4-fkQ-8VfMQMxZcfDAXdoXcIOBcu9difEL0nnUEFqjeelxKXYoH9_YRDVAoXcOsnxVN809qgve9x01RO9LeVjxRSHr1CParjxkmSBBv-BNsZbQ8-Opj2AxbE_ln4MaoWWog5xQUrl-79FpW0sJALzlQjEpipDiboWPm3BH34xuxv6GuivO1nzqoRs-PnqMPKPjNjr4ISToTWEMr8NMRPMXXLUrrybNYMd8DwHydaO497Fw6qqLBL4pkctv9btiKc7WMNbJcCWayeWxLT7cTlEErTgntc6Wx6HRXPtzMHXYTX6duOsXwdJGAlgDu55fbKRIMdEaPkVM7SW8hAkwk_Ku4oL_7TUY1uJWhl-12_LwQOCwsK0k7Ok9VvHeJDSBqtkn5MU2VziCXaU4bRAVntFmVMROP2HubW1MyGfXKjOLSlJvlt23iDcY43pQPsZ9EfCxe9R0JM959_I-mKNDeNSYoW6m9dLXT1Fj3hpHWKHVPbV7DkjArs_rG437b8Pb7D4nHTUmvnJh5n4B4nExcILYwMMCTIgrUqDxR5AKMalJZHhBirJjNJpXi9nzGV7hbQZEr_tpaW64G-VVdKdLdIcRs5Bo_FtN3IdScFHvqJFExR8tNSSP2wZngzMeGHdbSqM73IgsROQR2IOTVJnGwosQ_ntwWSvmiAUVy7]--></g></svg>