<?xml version="1.0" encoding="us-ascii" standalone="no"?><svg xmlns="http://www.w3.org/2000/svg" xmlns:xlink="http://www.w3.org/1999/xlink" contentStyleType="text/css" height="891px" preserveAspectRatio="none" style="width:1606px;height:891px;background:#FFFFFF;" version="1.1" viewBox="0 0 1606 891" width="1606px" zoomAndPan="magnify"><defs/><g><!--class Employee--><g id="elem_Employee"><rect codeLine="10" fill="#F1F1F1" height="234.2109" id="Employee" rx="2.5" ry="2.5" style="stroke:#181818;stroke-width:0.5;" width="1177" x="422" y="449"/><ellipse cx="975.25" cy="465" fill="#ADD1B2" rx="11" ry="11" style="stroke:#181818;stroke-width:1.0;"/><path d="M978.0156,460.875 Q978.1719,460.6563 978.3594,460.5469 Q978.5469,460.4375 978.7656,460.4375 Q979.1406,460.4375 979.375,460.7031 Q979.6094,460.9531 979.6094,461.5625 L979.6094,463.0156 Q979.6094,463.625 979.375,463.8906 Q979.1406,464.1563 978.7656,464.1563 Q978.4219,464.1563 978.2188,463.9531 Q978.0156,463.7656 977.9063,463.25 Q977.8594,462.8906 977.6719,462.7031 Q977.3438,462.3281 976.7344,462.1094 Q976.125,461.8906 975.5,461.8906 Q974.7344,461.8906 974.0938,462.2188 Q973.4688,462.5469 972.9688,463.2969 Q972.4844,464.0469 972.4844,465.0781 L972.4844,466.1719 Q972.4844,467.4063 973.375,468.2344 Q974.2656,469.0469 975.8594,469.0469 Q976.7969,469.0469 977.4531,468.7969 Q977.8438,468.6406 978.2656,468.2031 Q978.5313,467.9375 978.6719,467.8594 Q978.8281,467.7813 979.0313,467.7813 Q979.3594,467.7813 979.6094,468.0469 Q979.875,468.2969 979.875,468.6406 Q979.875,468.9844 979.5313,469.3906 Q979.0313,469.9688 978.2344,470.2969 Q977.1563,470.75 975.8594,470.75 Q974.3438,470.75 973.1406,470.125 Q972.1563,469.625 971.4688,468.5625 Q970.7813,467.4844 970.7813,466.2031 L970.7813,465.0469 Q970.7813,463.7188 971.3906,462.5781 Q972.0156,461.4219 973.1094,460.8125 Q974.2031,460.1875 975.4375,460.1875 Q976.1719,460.1875 976.8125,460.3594 Q977.4688,460.5156 978.0156,460.875 Z " fill="#000000"/><text fill="#000000" font-family="sans-serif" font-size="14" lengthAdjust="spacing" textLength="62" x="995.75" y="470.7969">Employee</text><line style="stroke:#181818;stroke-width:0.5;" x1="423" x2="1598" y1="481" y2="481"/><text fill="#000000" font-family="sans-serif" font-size="14" lengthAdjust="spacing" textLength="89" x="428" y="500.1074">-name : String</text><text fill="#000000" font-family="sans-serif" font-size="14" lengthAdjust="spacing" textLength="103" x="428" y="518.7285">-birthdate : Date</text><text fill="#000000" font-family="sans-serif" font-size="14" lengthAdjust="spacing" textLength="87" x="428" y="537.3496">-email : String</text><text fill="#000000" font-family="sans-serif" font-size="14" lengthAdjust="spacing" textLength="121" x="428" y="555.9707">-phoneNumber : int</text><text fill="#000000" font-family="sans-serif" font-size="14" lengthAdjust="spacing" textLength="142" x="428" y="574.5918">-admission date : Date</text><text fill="#000000" font-family="sans-serif" font-size="14" lengthAdjust="spacing" textLength="157" x="428" y="593.2129">-taxpayerNumber : String</text><text fill="#000000" font-family="sans-serif" font-size="14" lengthAdjust="spacing" textLength="105" x="428" y="611.834">-address : String</text><text fill="#000000" font-family="sans-serif" font-size="14" lengthAdjust="spacing" textLength="126" x="428" y="630.4551">-docNumber : String</text><text fill="#000000" font-family="sans-serif" font-size="14" lengthAdjust="spacing" textLength="100" x="428" y="649.0762">-jobTitle : String</text><line style="stroke:#181818;stroke-width:0.5;" x1="423" x2="1598" y1="656.5898" y2="656.5898"/><text fill="#000000" font-family="sans-serif" font-size="14" lengthAdjust="spacing" textLength="1165" x="428" y="675.6973">+addTaskAgenda(selectedGreenSpace : GreenSpace, selectedTask : Task, selectedDate : LocalDate, startTime : int, agenda : TaskPosition, userValidation : boolean) : Optional&lt;Task&gt;</text></g><!--class Task--><g id="elem_Task"><rect codeLine="26" fill="#F1F1F1" height="122.4844" id="Task" rx="2.5" ry="2.5" style="stroke:#181818;stroke-width:0.5;" width="182" x="919.5" y="762"/><ellipse cx="990.75" cy="778" fill="#ADD1B2" rx="11" ry="11" style="stroke:#181818;stroke-width:1.0;"/><path d="M993.5156,773.875 Q993.6719,773.6563 993.8594,773.5469 Q994.0469,773.4375 994.2656,773.4375 Q994.6406,773.4375 994.875,773.7031 Q995.1094,773.9531 995.1094,774.5625 L995.1094,776.0156 Q995.1094,776.625 994.875,776.8906 Q994.6406,777.1563 994.2656,777.1563 Q993.9219,777.1563 993.7188,776.9531 Q993.5156,776.7656 993.4063,776.25 Q993.3594,775.8906 993.1719,775.7031 Q992.8438,775.3281 992.2344,775.1094 Q991.625,774.8906 991,774.8906 Q990.2344,774.8906 989.5938,775.2188 Q988.9688,775.5469 988.4688,776.2969 Q987.9844,777.0469 987.9844,778.0781 L987.9844,779.1719 Q987.9844,780.4063 988.875,781.2344 Q989.7656,782.0469 991.3594,782.0469 Q992.2969,782.0469 992.9531,781.7969 Q993.3438,781.6406 993.7656,781.2031 Q994.0313,780.9375 994.1719,780.8594 Q994.3281,780.7813 994.5313,780.7813 Q994.8594,780.7813 995.1094,781.0469 Q995.375,781.2969 995.375,781.6406 Q995.375,781.9844 995.0313,782.3906 Q994.5313,782.9688 993.7344,783.2969 Q992.6563,783.75 991.3594,783.75 Q989.8438,783.75 988.6406,783.125 Q987.6563,782.625 986.9688,781.5625 Q986.2813,780.4844 986.2813,779.2031 L986.2813,778.0469 Q986.2813,776.7188 986.8906,775.5781 Q987.5156,774.4219 988.6094,773.8125 Q989.7031,773.1875 990.9375,773.1875 Q991.6719,773.1875 992.3125,773.3594 Q992.9688,773.5156 993.5156,773.875 Z " fill="#000000"/><text fill="#000000" font-family="sans-serif" font-size="14" lengthAdjust="spacing" textLength="31" x="1011.25" y="783.7969">Task</text><line style="stroke:#181818;stroke-width:0.5;" x1="920.5" x2="1100.5" y1="794" y2="794"/><text fill="#000000" font-family="sans-serif" font-size="14" lengthAdjust="spacing" textLength="170" x="925.5" y="813.1074">-greenSpace: GreenSpace</text><text fill="#000000" font-family="sans-serif" font-size="14" lengthAdjust="spacing" textLength="132" x="925.5" y="831.7285">-selectedTask : Task</text><text fill="#000000" font-family="sans-serif" font-size="14" lengthAdjust="spacing" textLength="164" x="925.5" y="850.3496">-selectedDate : LocalDate</text><text fill="#000000" font-family="sans-serif" font-size="14" lengthAdjust="spacing" textLength="146" x="925.5" y="868.9707">-agenda : TaskPosition</text><line style="stroke:#181818;stroke-width:0.5;" x1="920.5" x2="1100.5" y1="876.4844" y2="876.4844"/></g><!--class AddEntryAgendaController--><g id="elem_AddEntryAgendaController"><rect codeLine="35" fill="#F1F1F1" height="252.832" id="AddEntryAgendaController" rx="2.5" ry="2.5" style="stroke:#181818;stroke-width:0.5;" width="859" x="193" y="7"/><ellipse cx="533.75" cy="23" fill="#ADD1B2" rx="11" ry="11" style="stroke:#181818;stroke-width:1.0;"/><path d="M536.5156,18.875 Q536.6719,18.6563 536.8594,18.5469 Q537.0469,18.4375 537.2656,18.4375 Q537.6406,18.4375 537.875,18.7031 Q538.1094,18.9531 538.1094,19.5625 L538.1094,21.0156 Q538.1094,21.625 537.875,21.8906 Q537.6406,22.1563 537.2656,22.1563 Q536.9219,22.1563 536.7188,21.9531 Q536.5156,21.7656 536.4063,21.25 Q536.3594,20.8906 536.1719,20.7031 Q535.8438,20.3281 535.2344,20.1094 Q534.625,19.8906 534,19.8906 Q533.2344,19.8906 532.5938,20.2188 Q531.9688,20.5469 531.4688,21.2969 Q530.9844,22.0469 530.9844,23.0781 L530.9844,24.1719 Q530.9844,25.4063 531.875,26.2344 Q532.7656,27.0469 534.3594,27.0469 Q535.2969,27.0469 535.9531,26.7969 Q536.3438,26.6406 536.7656,26.2031 Q537.0313,25.9375 537.1719,25.8594 Q537.3281,25.7813 537.5313,25.7813 Q537.8594,25.7813 538.1094,26.0469 Q538.375,26.2969 538.375,26.6406 Q538.375,26.9844 538.0313,27.3906 Q537.5313,27.9688 536.7344,28.2969 Q535.6563,28.75 534.3594,28.75 Q532.8438,28.75 531.6406,28.125 Q530.6563,27.625 529.9688,26.5625 Q529.2813,25.4844 529.2813,24.2031 L529.2813,23.0469 Q529.2813,21.7188 529.8906,20.5781 Q530.5156,19.4219 531.6094,18.8125 Q532.7031,18.1875 533.9375,18.1875 Q534.6719,18.1875 535.3125,18.3594 Q535.9688,18.5156 536.5156,18.875 Z " fill="#000000"/><text fill="#000000" font-family="sans-serif" font-size="14" lengthAdjust="spacing" textLength="169" x="554.25" y="28.7969">AddEntryAgendaController</text><line style="stroke:#181818;stroke-width:0.5;" x1="194" x2="1051" y1="39" y2="39"/><line style="stroke:#181818;stroke-width:0.5;" x1="194" x2="1051" y1="47" y2="47"/><text fill="#000000" font-family="sans-serif" font-size="14" lengthAdjust="spacing" textLength="224" x="199" y="66.1074">+getGreenSpaceRepository() : void</text><text fill="#000000" font-family="sans-serif" font-size="14" lengthAdjust="spacing" textLength="175" x="199" y="84.7285">+getTaskRepository() : void</text><text fill="#000000" font-family="sans-serif" font-size="14" lengthAdjust="spacing" textLength="173" x="199" y="103.3496">+getAuthRepository() : void</text><text fill="#000000" font-family="sans-serif" font-size="14" lengthAdjust="spacing" textLength="101" x="199" y="121.9707">+getUserEmail()</text><text fill="#000000" font-family="sans-serif" font-size="14" lengthAdjust="spacing" textLength="105" x="199" y="140.5918">+initialize() : void</text><text fill="#000000" font-family="sans-serif" font-size="14" lengthAdjust="spacing" textLength="255" x="199" y="159.2129">+getGreenSpaces() : List&lt;GreenSpace&gt;</text><text fill="#000000" font-family="sans-serif" font-size="14" lengthAdjust="spacing" textLength="412" x="199" y="177.834">+getTasksByGreenSpace (greenSpace Greenspace): List&lt;Task&gt;</text><text fill="#000000" font-family="sans-serif" font-size="14" lengthAdjust="spacing" textLength="381" x="199" y="196.4551">+getGreenSpaceList(userEmail : String) : List&lt;GreenSpace&gt;</text><text fill="#000000" font-family="sans-serif" font-size="14" lengthAdjust="spacing" textLength="252" x="199" y="215.0762">+currentUserLogInValidation() : boolean</text><text fill="#000000" font-family="sans-serif" font-size="14" lengthAdjust="spacing" textLength="563" x="199" y="233.6973">+filterGreenSpacesByManager (greenSpaces : List&lt;GreenSpace&gt;, managerName String)</text><text fill="#000000" font-family="sans-serif" font-size="14" lengthAdjust="spacing" textLength="847" x="199" y="252.3184">+addTaskToAgenda (selectedGreenSpace : GreenSpace,  selectedTask : Task, startDate LocalDate, startTime : int) : Optional&lt;Task&gt;</text></g><!--class AddEntryAgendaUI--><g id="elem_AddEntryAgendaUI"><rect codeLine="51" fill="#F1F1F1" height="48" id="AddEntryAgendaUI" rx="2.5" ry="2.5" style="stroke:#181818;stroke-width:0.5;" width="151" x="7" y="109.5"/><ellipse cx="22" cy="125.5" fill="#ADD1B2" rx="11" ry="11" style="stroke:#181818;stroke-width:1.0;"/><path d="M24.7656,121.375 Q24.9219,121.1563 25.1094,121.0469 Q25.2969,120.9375 25.5156,120.9375 Q25.8906,120.9375 26.125,121.2031 Q26.3594,121.4531 26.3594,122.0625 L26.3594,123.5156 Q26.3594,124.125 26.125,124.3906 Q25.8906,124.6563 25.5156,124.6563 Q25.1719,124.6563 24.9688,124.4531 Q24.7656,124.2656 24.6563,123.75 Q24.6094,123.3906 24.4219,123.2031 Q24.0938,122.8281 23.4844,122.6094 Q22.875,122.3906 22.25,122.3906 Q21.4844,122.3906 20.8438,122.7188 Q20.2188,123.0469 19.7188,123.7969 Q19.2344,124.5469 19.2344,125.5781 L19.2344,126.6719 Q19.2344,127.9063 20.125,128.7344 Q21.0156,129.5469 22.6094,129.5469 Q23.5469,129.5469 24.2031,129.2969 Q24.5938,129.1406 25.0156,128.7031 Q25.2813,128.4375 25.4219,128.3594 Q25.5781,128.2813 25.7813,128.2813 Q26.1094,128.2813 26.3594,128.5469 Q26.625,128.7969 26.625,129.1406 Q26.625,129.4844 26.2813,129.8906 Q25.7813,130.4688 24.9844,130.7969 Q23.9063,131.25 22.6094,131.25 Q21.0938,131.25 19.8906,130.625 Q18.9063,130.125 18.2188,129.0625 Q17.5313,127.9844 17.5313,126.7031 L17.5313,125.5469 Q17.5313,124.2188 18.1406,123.0781 Q18.7656,121.9219 19.8594,121.3125 Q20.9531,120.6875 22.1875,120.6875 Q22.9219,120.6875 23.5625,120.8594 Q24.2188,121.0156 24.7656,121.375 Z " fill="#000000"/><text fill="#000000" font-family="sans-serif" font-size="14" lengthAdjust="spacing" textLength="119" x="36" y="131.2969">AddEntryAgendaUI</text><line style="stroke:#181818;stroke-width:0.5;" x1="8" x2="157" y1="141.5" y2="141.5"/><line style="stroke:#181818;stroke-width:0.5;" x1="8" x2="157" y1="149.5" y2="149.5"/></g><!--class Repositories--><g id="elem_Repositories"><rect codeLine="55" fill="#F1F1F1" height="141.1055" id="Repositories" rx="2.5" ry="2.5" style="stroke:#181818;stroke-width:0.5;" width="374" x="1087.5" y="63"/><ellipse cx="1230.75" cy="79" fill="#ADD1B2" rx="11" ry="11" style="stroke:#181818;stroke-width:1.0;"/><path d="M1233.5156,74.875 Q1233.6719,74.6563 1233.8594,74.5469 Q1234.0469,74.4375 1234.2656,74.4375 Q1234.6406,74.4375 1234.875,74.7031 Q1235.1094,74.9531 1235.1094,75.5625 L1235.1094,77.0156 Q1235.1094,77.625 1234.875,77.8906 Q1234.6406,78.1563 1234.2656,78.1563 Q1233.9219,78.1563 1233.7188,77.9531 Q1233.5156,77.7656 1233.4063,77.25 Q1233.3594,76.8906 1233.1719,76.7031 Q1232.8438,76.3281 1232.2344,76.1094 Q1231.625,75.8906 1231,75.8906 Q1230.2344,75.8906 1229.5938,76.2188 Q1228.9688,76.5469 1228.4688,77.2969 Q1227.9844,78.0469 1227.9844,79.0781 L1227.9844,80.1719 Q1227.9844,81.4063 1228.875,82.2344 Q1229.7656,83.0469 1231.3594,83.0469 Q1232.2969,83.0469 1232.9531,82.7969 Q1233.3438,82.6406 1233.7656,82.2031 Q1234.0313,81.9375 1234.1719,81.8594 Q1234.3281,81.7813 1234.5313,81.7813 Q1234.8594,81.7813 1235.1094,82.0469 Q1235.375,82.2969 1235.375,82.6406 Q1235.375,82.9844 1235.0313,83.3906 Q1234.5313,83.9688 1233.7344,84.2969 Q1232.6563,84.75 1231.3594,84.75 Q1229.8438,84.75 1228.6406,84.125 Q1227.6563,83.625 1226.9688,82.5625 Q1226.2813,81.4844 1226.2813,80.2031 L1226.2813,79.0469 Q1226.2813,77.7188 1226.8906,76.5781 Q1227.5156,75.4219 1228.6094,74.8125 Q1229.7031,74.1875 1230.9375,74.1875 Q1231.6719,74.1875 1232.3125,74.3594 Q1232.9688,74.5156 1233.5156,74.875 Z " fill="#000000"/><text fill="#000000" font-family="sans-serif" font-size="14" lengthAdjust="spacing" textLength="79" x="1251.25" y="84.7969">Repositories</text><line style="stroke:#181818;stroke-width:0.5;" x1="1088.5" x2="1460.5" y1="95" y2="95"/><line style="stroke:#181818;stroke-width:0.5;" x1="1088.5" x2="1460.5" y1="103" y2="103"/><text fill="#000000" font-family="sans-serif" font-size="14" lengthAdjust="spacing" textLength="94" x="1093.5" y="122.1074">-Repositories()</text><text fill="#000000" font-family="sans-serif" font-size="14" lengthAdjust="spacing" textLength="182" x="1093.5" y="140.7285">+getInstance() : Repositories</text><text fill="#000000" font-family="sans-serif" font-size="14" lengthAdjust="spacing" textLength="305" x="1093.5" y="159.3496">+getEmployeeRepository(); employeeRepository</text><text fill="#000000" font-family="sans-serif" font-size="14" lengthAdjust="spacing" textLength="362" x="1093.5" y="177.9707">+getGreenSpaceRepository(); getGreenSpaceRepository</text><text fill="#000000" font-family="sans-serif" font-size="14" lengthAdjust="spacing" textLength="264" x="1093.5" y="196.5918">+getTaskRepository(); getTaskRepository</text></g><!--class EmployeeRepository--><g id="elem_EmployeeRepository"><rect codeLine="63" fill="#F1F1F1" height="66.6211" id="EmployeeRepository" rx="2.5" ry="2.5" style="stroke:#181818;stroke-width:0.5;" width="182" x="787.5" y="321"/><ellipse cx="811.5" cy="337" fill="#ADD1B2" rx="11" ry="11" style="stroke:#181818;stroke-width:1.0;"/><path d="M814.2656,332.875 Q814.4219,332.6563 814.6094,332.5469 Q814.7969,332.4375 815.0156,332.4375 Q815.3906,332.4375 815.625,332.7031 Q815.8594,332.9531 815.8594,333.5625 L815.8594,335.0156 Q815.8594,335.625 815.625,335.8906 Q815.3906,336.1563 815.0156,336.1563 Q814.6719,336.1563 814.4688,335.9531 Q814.2656,335.7656 814.1563,335.25 Q814.1094,334.8906 813.9219,334.7031 Q813.5938,334.3281 812.9844,334.1094 Q812.375,333.8906 811.75,333.8906 Q810.9844,333.8906 810.3438,334.2188 Q809.7188,334.5469 809.2188,335.2969 Q808.7344,336.0469 808.7344,337.0781 L808.7344,338.1719 Q808.7344,339.4063 809.625,340.2344 Q810.5156,341.0469 812.1094,341.0469 Q813.0469,341.0469 813.7031,340.7969 Q814.0938,340.6406 814.5156,340.2031 Q814.7813,339.9375 814.9219,339.8594 Q815.0781,339.7813 815.2813,339.7813 Q815.6094,339.7813 815.8594,340.0469 Q816.125,340.2969 816.125,340.6406 Q816.125,340.9844 815.7813,341.3906 Q815.2813,341.9688 814.4844,342.2969 Q813.4063,342.75 812.1094,342.75 Q810.5938,342.75 809.3906,342.125 Q808.4063,341.625 807.7188,340.5625 Q807.0313,339.4844 807.0313,338.2031 L807.0313,337.0469 Q807.0313,335.7188 807.6406,334.5781 Q808.2656,333.4219 809.3594,332.8125 Q810.4531,332.1875 811.6875,332.1875 Q812.4219,332.1875 813.0625,332.3594 Q813.7188,332.5156 814.2656,332.875 Z " fill="#000000"/><text fill="#000000" font-family="sans-serif" font-size="14" lengthAdjust="spacing" textLength="130" x="827.5" y="342.7969">EmployeeRepository</text><line style="stroke:#181818;stroke-width:0.5;" x1="788.5" x2="968.5" y1="353" y2="353"/><line style="stroke:#181818;stroke-width:0.5;" x1="788.5" x2="968.5" y1="361" y2="361"/><text fill="#000000" font-family="sans-serif" font-size="14" lengthAdjust="spacing" textLength="170" x="793.5" y="380.1074">+getEmployee(): Employee</text></g><!--class TasksRepository--><g id="elem_TasksRepository"><rect codeLine="69" fill="#F1F1F1" height="66.6211" id="TasksRepository" rx="2.5" ry="2.5" style="stroke:#181818;stroke-width:0.5;" width="276" x="1004.5" y="321"/><ellipse cx="1085.25" cy="337" fill="#ADD1B2" rx="11" ry="11" style="stroke:#181818;stroke-width:1.0;"/><path d="M1088.0156,332.875 Q1088.1719,332.6563 1088.3594,332.5469 Q1088.5469,332.4375 1088.7656,332.4375 Q1089.1406,332.4375 1089.375,332.7031 Q1089.6094,332.9531 1089.6094,333.5625 L1089.6094,335.0156 Q1089.6094,335.625 1089.375,335.8906 Q1089.1406,336.1563 1088.7656,336.1563 Q1088.4219,336.1563 1088.2188,335.9531 Q1088.0156,335.7656 1087.9063,335.25 Q1087.8594,334.8906 1087.6719,334.7031 Q1087.3438,334.3281 1086.7344,334.1094 Q1086.125,333.8906 1085.5,333.8906 Q1084.7344,333.8906 1084.0938,334.2188 Q1083.4688,334.5469 1082.9688,335.2969 Q1082.4844,336.0469 1082.4844,337.0781 L1082.4844,338.1719 Q1082.4844,339.4063 1083.375,340.2344 Q1084.2656,341.0469 1085.8594,341.0469 Q1086.7969,341.0469 1087.4531,340.7969 Q1087.8438,340.6406 1088.2656,340.2031 Q1088.5313,339.9375 1088.6719,339.8594 Q1088.8281,339.7813 1089.0313,339.7813 Q1089.3594,339.7813 1089.6094,340.0469 Q1089.875,340.2969 1089.875,340.6406 Q1089.875,340.9844 1089.5313,341.3906 Q1089.0313,341.9688 1088.2344,342.2969 Q1087.1563,342.75 1085.8594,342.75 Q1084.3438,342.75 1083.1406,342.125 Q1082.1563,341.625 1081.4688,340.5625 Q1080.7813,339.4844 1080.7813,338.2031 L1080.7813,337.0469 Q1080.7813,335.7188 1081.3906,334.5781 Q1082.0156,333.4219 1083.1094,332.8125 Q1084.2031,332.1875 1085.4375,332.1875 Q1086.1719,332.1875 1086.8125,332.3594 Q1087.4688,332.5156 1088.0156,332.875 Z " fill="#000000"/><text fill="#000000" font-family="sans-serif" font-size="14" lengthAdjust="spacing" textLength="106" x="1105.75" y="342.7969">TasksRepository</text><line style="stroke:#181818;stroke-width:0.5;" x1="1005.5" x2="1279.5" y1="353" y2="353"/><line style="stroke:#181818;stroke-width:0.5;" x1="1005.5" x2="1279.5" y1="361" y2="361"/><text fill="#000000" font-family="sans-serif" font-size="14" lengthAdjust="spacing" textLength="264" x="1010.5" y="380.1074">+getToDoListEntries(): List&lt;ToDoEntries&gt;</text></g><!--class GreenSpacesRepository--><g id="elem_GreenSpacesRepository"><rect codeLine="72" fill="#F1F1F1" height="66.6211" id="GreenSpacesRepository" rx="2.5" ry="2.5" style="stroke:#181818;stroke-width:0.5;" width="247" x="1316" y="321"/><ellipse cx="1358" cy="337" fill="#ADD1B2" rx="11" ry="11" style="stroke:#181818;stroke-width:1.0;"/><path d="M1360.7656,332.875 Q1360.9219,332.6563 1361.1094,332.5469 Q1361.2969,332.4375 1361.5156,332.4375 Q1361.8906,332.4375 1362.125,332.7031 Q1362.3594,332.9531 1362.3594,333.5625 L1362.3594,335.0156 Q1362.3594,335.625 1362.125,335.8906 Q1361.8906,336.1563 1361.5156,336.1563 Q1361.1719,336.1563 1360.9688,335.9531 Q1360.7656,335.7656 1360.6563,335.25 Q1360.6094,334.8906 1360.4219,334.7031 Q1360.0938,334.3281 1359.4844,334.1094 Q1358.875,333.8906 1358.25,333.8906 Q1357.4844,333.8906 1356.8438,334.2188 Q1356.2188,334.5469 1355.7188,335.2969 Q1355.2344,336.0469 1355.2344,337.0781 L1355.2344,338.1719 Q1355.2344,339.4063 1356.125,340.2344 Q1357.0156,341.0469 1358.6094,341.0469 Q1359.5469,341.0469 1360.2031,340.7969 Q1360.5938,340.6406 1361.0156,340.2031 Q1361.2813,339.9375 1361.4219,339.8594 Q1361.5781,339.7813 1361.7813,339.7813 Q1362.1094,339.7813 1362.3594,340.0469 Q1362.625,340.2969 1362.625,340.6406 Q1362.625,340.9844 1362.2813,341.3906 Q1361.7813,341.9688 1360.9844,342.2969 Q1359.9063,342.75 1358.6094,342.75 Q1357.0938,342.75 1355.8906,342.125 Q1354.9063,341.625 1354.2188,340.5625 Q1353.5313,339.4844 1353.5313,338.2031 L1353.5313,337.0469 Q1353.5313,335.7188 1354.1406,334.5781 Q1354.7656,333.4219 1355.8594,332.8125 Q1356.9531,332.1875 1358.1875,332.1875 Q1358.9219,332.1875 1359.5625,332.3594 Q1360.2188,332.5156 1360.7656,332.875 Z " fill="#000000"/><text fill="#000000" font-family="sans-serif" font-size="14" lengthAdjust="spacing" textLength="155" x="1378" y="342.7969">GreenSpacesRepository</text><line style="stroke:#181818;stroke-width:0.5;" x1="1317" x2="1562" y1="353" y2="353"/><line style="stroke:#181818;stroke-width:0.5;" x1="1317" x2="1562" y1="361" y2="361"/><text fill="#000000" font-family="sans-serif" font-size="14" lengthAdjust="spacing" textLength="235" x="1322" y="380.1074">+getGreenSpacesList(): GreenSpace</text></g><!--link AddEntryAgendaUI to AddEntryAgendaController--><g id="link_AddEntryAgendaUI_AddEntryAgendaController"><path codeLine="76" d="M158.05,133.5 C169.6,133.5 175.47,133.5 186.88,133.5 " fill="none" id="AddEntryAgendaUI-to-AddEntryAgendaController" style="stroke:#181818;stroke-width:1.0;stroke-dasharray:7.0,7.0;"/><polygon fill="#181818" points="192.88,133.5,183.88,129.5,187.88,133.5,183.88,137.5,192.88,133.5" style="stroke:#181818;stroke-width:1.0;"/></g><!--link AddEntryAgendaController to Repositories--><g id="link_AddEntryAgendaController_Repositories"><path codeLine="78" d="M1052.22,133.5 C1055.41,133.5 1057.17,133.5 1057.17,133.5 C1057.17,133.5 1063.11,133.5 1081.39,133.5 " fill="none" id="AddEntryAgendaController-to-Repositories" style="stroke:#181818;stroke-width:1.0;stroke-dasharray:7.0,7.0;"/><polygon fill="#181818" points="1087.39,133.5,1078.39,129.5,1082.39,133.5,1078.39,137.5,1087.39,133.5" style="stroke:#181818;stroke-width:1.0;"/><text fill="#000000" font-family="sans-serif" font-size="13" lengthAdjust="spacing" textLength="7" x="1072.3486" y="130.1736">1</text></g><!--link Repositories to Repositories--><g id="link_Repositories_Repositories"><path codeLine="80" d="M1461.56,108.71 C1482.76,113.35 1496.5,121.62 1496.5,133.5 C1496.5,145.38 1488.6213,152.3672 1467.4213,157.0072 " fill="none" id="Repositories-to-Repositories" style="stroke:#181818;stroke-width:1.0;"/><polygon fill="#181818" points="1461.56,158.29,1471.2071,160.2732,1466.4444,157.221,1469.4967,152.4582,1461.56,158.29" style="stroke:#181818;stroke-width:1.0;"/><text fill="#000000" font-family="sans-serif" font-size="13" lengthAdjust="spacing" textLength="75" x="1502.5" y="139.0283">getInstance()</text><text fill="#000000" font-family="sans-serif" font-size="13" lengthAdjust="spacing" textLength="7" x="1469.5993" y="104.3378">1</text><text fill="#000000" font-family="sans-serif" font-size="13" lengthAdjust="spacing" textLength="7" x="1469.5993" y="156.0095">1</text></g><!--link Repositories to EmployeeRepository--><g id="link_Repositories_EmployeeRepository"><path codeLine="81" d="M1160.91,204.04 C1113.61,233 1069.5,260 1069.5,260 C1069.5,260 1005.5492,291.3126 950.4192,318.2926 " fill="none" id="Repositories-to-EmployeeRepository" style="stroke:#181818;stroke-width:1.0;"/><polygon fill="#181818" points="945.03,320.93,954.8722,320.5667,949.521,318.7321,951.3556,313.381,945.03,320.93" style="stroke:#181818;stroke-width:1.0;"/><text fill="#000000" font-family="sans-serif" font-size="13" lengthAdjust="spacing" textLength="7" x="1141.8351" y="226.2289">1</text><text fill="#000000" font-family="sans-serif" font-size="13" lengthAdjust="spacing" textLength="7" x="950.439" y="309.7417">1</text></g><!--link Repositories to TasksRepository--><g id="link_Repositories_TasksRepository"><path codeLine="82" d="M1232.55,204.09 C1209,243.17 1183.8061,284.9605 1165.3061,315.6705 " fill="none" id="Repositories-to-TasksRepository" style="stroke:#181818;stroke-width:1.0;"/><polygon fill="#181818" points="1162.21,320.81,1170.2804,315.1648,1164.7901,316.5271,1163.4278,311.0367,1162.21,320.81" style="stroke:#181818;stroke-width:1.0;"/><text fill="#000000" font-family="sans-serif" font-size="13" lengthAdjust="spacing" textLength="7" x="1220.863" y="226.284">1</text><text fill="#000000" font-family="sans-serif" font-size="13" lengthAdjust="spacing" textLength="7" x="1158.3" y="309.8597">1</text></g><!--link Repositories to GreenSpacesRepository--><g id="link_Repositories_GreenSpacesRepository"><path codeLine="83" d="M1326.93,204.09 C1356.38,243.17 1388.1303,285.3073 1411.2603,316.0173 " fill="none" id="Repositories-to-GreenSpacesRepository" style="stroke:#181818;stroke-width:1.0;"/><polygon fill="#181818" points="1414.87,320.81,1412.6505,311.2145,1411.8619,316.8161,1406.2603,316.0275,1414.87,320.81" style="stroke:#181818;stroke-width:1.0;"/><text fill="#000000" font-family="sans-serif" font-size="13" lengthAdjust="spacing" textLength="7" x="1324.9759" y="226.284">1</text><text fill="#000000" font-family="sans-serif" font-size="13" lengthAdjust="spacing" textLength="7" x="1402.5077" y="309.8597">1</text></g><!--link AddEntryAgendaController to Employee--><g id="link_AddEntryAgendaController_Employee"><path codeLine="85" d="M695.35,260.14 C732.32,323.88 769.5,388 769.5,388 C769.5,388 802.1738,411.9987 847.6038,445.3587 " fill="none" id="AddEntryAgendaController-to-Employee" style="stroke:#181818;stroke-width:1.0;stroke-dasharray:7.0,7.0;"/><polygon fill="#181818" points="852.44,448.91,847.5533,440.359,848.4099,445.9506,842.8182,446.8072,852.44,448.91" style="stroke:#181818;stroke-width:1.0;"/></g><!--link EmployeeRepository to Employee--><g id="link_EmployeeRepository_Employee"><path codeLine="87" d="M899.12,388.23 C909.71,405.04 920.1222,421.5532 934.1622,443.8432 " fill="none" id="EmployeeRepository-to-Employee" style="stroke:#181818;stroke-width:1.0;"/><polygon fill="#181818" points="937.36,448.92,935.9479,439.1729,934.6952,444.6893,929.1788,443.4366,937.36,448.92" style="stroke:#181818;stroke-width:1.0;"/><text fill="#000000" font-family="sans-serif" font-size="13" lengthAdjust="spacing" textLength="7" x="895.0625" y="409.5742">1</text><text fill="#000000" font-family="sans-serif" font-size="13" lengthAdjust="spacing" textLength="7" x="925.4503" y="437.9059">1</text></g><!--link TasksRepository to Employee--><g id="link_TasksRepository_Employee"><path codeLine="88" d="M1121.88,388.23 C1111.29,405.04 1100.8778,421.5532 1086.8378,443.8432 " fill="none" id="TasksRepository-to-Employee" style="stroke:#181818;stroke-width:1.0;"/><polygon fill="#181818" points="1083.64,448.92,1091.8212,443.4366,1086.3048,444.6893,1085.0521,439.1729,1083.64,448.92" style="stroke:#181818;stroke-width:1.0;"/><text fill="#000000" font-family="sans-serif" font-size="13" lengthAdjust="spacing" textLength="7" x="1110.7344" y="409.5742">1</text><text fill="#000000" font-family="sans-serif" font-size="13" lengthAdjust="spacing" textLength="7" x="1081.1013" y="437.9059">1</text></g><!--link GreenSpacesRepository to Employee--><g id="link_GreenSpacesRepository_Employee"><path codeLine="89" d="M1372.94,388 C1338.46,404.84 1299.431,423.8962 1253.581,446.2962 " fill="none" id="GreenSpacesRepository-to-Employee" style="stroke:#181818;stroke-width:1.0;"/><polygon fill="#181818" points="1248.19,448.93,1258.0324,448.5733,1252.6825,446.7352,1254.5207,441.3853,1248.19,448.93" style="stroke:#181818;stroke-width:1.0;"/><text fill="#000000" font-family="sans-serif" font-size="13" lengthAdjust="spacing" textLength="7" x="1353.4606" y="409.5692">1</text><text fill="#000000" font-family="sans-serif" font-size="13" lengthAdjust="spacing" textLength="7" x="1256.1928" y="437.9166">1</text></g><!--link Employee to Task--><g id="link_Employee_Task"><path codeLine="91" d="M1010.5,683.31 C1010.5,710.5 1010.5,732.37 1010.5,755.93 " fill="none" id="Employee-to-Task" style="stroke:#181818;stroke-width:1.0;"/><polygon fill="#181818" points="1010.5,761.93,1014.5,752.93,1010.5,756.93,1006.5,752.93,1010.5,761.93" style="stroke:#181818;stroke-width:1.0;"/><text fill="#000000" font-family="sans-serif" font-size="13" lengthAdjust="spacing" textLength="50" x="1011.5" y="728.0283">registers</text></g><!--SRC=[XLPTRzem57tthx3wKb2XsbxR2eckrOJKTTEWUpV9RV3gs97jR4lH_llkJG9sGi9uYNC_pxtdnEBIlKbT22jodXjjafqrEN1lIs31KuZaJMImzfK2RY7nGcSg3d0xaPhVKcVyLIWNUvJKuAi2U65KHI_iSi1fh3SioagKS6xflPNRqiCgCNejtu5_OEnImQldtd0hivtdgIGuqcXMf_37l52c0jWpZh-v5ZZC3LzZ8PqrfgsqVfSAJ_O7V3HMo8LKlSXYPpGyb_aMB7gazerPfBbq3bloaofU_2b41VQO59SJQMe18NQjgKa6et-QxKPw5Q5dLnnBR8HxMsQWKp5ne71sI3zR0Br6ZYWulCpu8O1oq4MFO7nem3-PH2WweySBwpUotXXEE-EYxjDcVZDEqg9dl7HWVmWbSNpQmWtV6gD0w2aUlnPa4-gEKXQCiR-iPOOCUpRFZlXYh6m-W3KO-rZPV11QtQrjjqpJH-rjrUpgay6pKGhi7jUOWG-jlqD1wSPM4nhWbv5f4qALHvtBqkz6dI-ue4SIr6IA1gaH7Axh7NfX0OEhFK_I-RjWN0GOxhwAI9w47JOhT7ISjWMQnVSQa6TI7c0TDJNIDIcj1LsFyMIobGvarpXRkZ7mLIeFDfhZlleYD79ZOv1keCkCvqtWCtsXBPgWy8rfUEF_5_c8oadBjMp61NvUhrq1lQpsaU_8lCJXsgkcOqJYoLYpiDBOLoSD-t5G23dSMh6YRZcSMEiCVaR0jsEkABElwzjJ8utQlK-33_V0hYBC4nJUuHpoQjN6IPnoDkR1a19eiVMM3ff5UsjR74j4ieeBNNM_d5hPqyvTWZJroUFNYx4BeHySF9Z4BpvUT3bZ7Ux9FP-VXY7J7UR7iquNF1xRM-fuuE3gpWrwlGWKdY8Q1CnwQ8Q31f4CXnuRrowgVeF_DJBa5opk_Hy0]--></g></svg>