<?xml version="1.0" encoding="us-ascii" standalone="no"?><svg xmlns="http://www.w3.org/2000/svg" xmlns:xlink="http://www.w3.org/1999/xlink" contentStyleType="text/css" height="798px" preserveAspectRatio="none" style="width:970px;height:798px;background:#FFFFFF;" version="1.1" viewBox="0 0 970 798" width="970px" zoomAndPan="magnify"><defs/><g><!--class Employee--><g id="elem_Employee"><rect codeLine="10" fill="#F1F1F1" height="234.2109" id="Employee" rx="2.5" ry="2.5" style="stroke:#181818;stroke-width:0.5;" width="224" x="354" y="337"/><ellipse cx="430.75" cy="353" fill="#ADD1B2" rx="11" ry="11" style="stroke:#181818;stroke-width:1.0;"/><path d="M433.5156,348.875 Q433.6719,348.6563 433.8594,348.5469 Q434.0469,348.4375 434.2656,348.4375 Q434.6406,348.4375 434.875,348.7031 Q435.1094,348.9531 435.1094,349.5625 L435.1094,351.0156 Q435.1094,351.625 434.875,351.8906 Q434.6406,352.1563 434.2656,352.1563 Q433.9219,352.1563 433.7188,351.9531 Q433.5156,351.7656 433.4063,351.25 Q433.3594,350.8906 433.1719,350.7031 Q432.8438,350.3281 432.2344,350.1094 Q431.625,349.8906 431,349.8906 Q430.2344,349.8906 429.5938,350.2188 Q428.9688,350.5469 428.4688,351.2969 Q427.9844,352.0469 427.9844,353.0781 L427.9844,354.1719 Q427.9844,355.4063 428.875,356.2344 Q429.7656,357.0469 431.3594,357.0469 Q432.2969,357.0469 432.9531,356.7969 Q433.3438,356.6406 433.7656,356.2031 Q434.0313,355.9375 434.1719,355.8594 Q434.3281,355.7813 434.5313,355.7813 Q434.8594,355.7813 435.1094,356.0469 Q435.375,356.2969 435.375,356.6406 Q435.375,356.9844 435.0313,357.3906 Q434.5313,357.9688 433.7344,358.2969 Q432.6563,358.75 431.3594,358.75 Q429.8438,358.75 428.6406,358.125 Q427.6563,357.625 426.9688,356.5625 Q426.2813,355.4844 426.2813,354.2031 L426.2813,353.0469 Q426.2813,351.7188 426.8906,350.5781 Q427.5156,349.4219 428.6094,348.8125 Q429.7031,348.1875 430.9375,348.1875 Q431.6719,348.1875 432.3125,348.3594 Q432.9688,348.5156 433.5156,348.875 Z " fill="#000000"/><text fill="#000000" font-family="sans-serif" font-size="14" lengthAdjust="spacing" textLength="62" x="451.25" y="358.7969">Employee</text><line style="stroke:#181818;stroke-width:0.5;" x1="355" x2="577" y1="369" y2="369"/><text fill="#000000" font-family="sans-serif" font-size="14" lengthAdjust="spacing" textLength="89" x="360" y="388.1074">-name : String</text><text fill="#000000" font-family="sans-serif" font-size="14" lengthAdjust="spacing" textLength="103" x="360" y="406.7285">-birthdate : Date</text><text fill="#000000" font-family="sans-serif" font-size="14" lengthAdjust="spacing" textLength="87" x="360" y="425.3496">-email : String</text><text fill="#000000" font-family="sans-serif" font-size="14" lengthAdjust="spacing" textLength="121" x="360" y="443.9707">-phoneNumber : int</text><text fill="#000000" font-family="sans-serif" font-size="14" lengthAdjust="spacing" textLength="142" x="360" y="462.5918">-admission date : Date</text><text fill="#000000" font-family="sans-serif" font-size="14" lengthAdjust="spacing" textLength="157" x="360" y="481.2129">-taxpayerNumber : String</text><text fill="#000000" font-family="sans-serif" font-size="14" lengthAdjust="spacing" textLength="105" x="360" y="499.834">-address : String</text><text fill="#000000" font-family="sans-serif" font-size="14" lengthAdjust="spacing" textLength="126" x="360" y="518.4551">-docNumber : String</text><text fill="#000000" font-family="sans-serif" font-size="14" lengthAdjust="spacing" textLength="100" x="360" y="537.0762">-jobTitle : String</text><line style="stroke:#181818;stroke-width:0.5;" x1="355" x2="577" y1="544.5898" y2="544.5898"/><text fill="#000000" font-family="sans-serif" font-size="14" lengthAdjust="spacing" textLength="212" x="360" y="563.6973">+cancelTask(Task taskToCancel)</text></g><!--class Task--><g id="elem_Task"><rect codeLine="26" fill="#F1F1F1" height="122.4844" id="Task" rx="2.5" ry="2.5" style="stroke:#181818;stroke-width:0.5;" width="182" x="375" y="659.5"/><ellipse cx="446.25" cy="675.5" fill="#ADD1B2" rx="11" ry="11" style="stroke:#181818;stroke-width:1.0;"/><path d="M449.0156,671.375 Q449.1719,671.1563 449.3594,671.0469 Q449.5469,670.9375 449.7656,670.9375 Q450.1406,670.9375 450.375,671.2031 Q450.6094,671.4531 450.6094,672.0625 L450.6094,673.5156 Q450.6094,674.125 450.375,674.3906 Q450.1406,674.6563 449.7656,674.6563 Q449.4219,674.6563 449.2188,674.4531 Q449.0156,674.2656 448.9063,673.75 Q448.8594,673.3906 448.6719,673.2031 Q448.3438,672.8281 447.7344,672.6094 Q447.125,672.3906 446.5,672.3906 Q445.7344,672.3906 445.0938,672.7188 Q444.4688,673.0469 443.9688,673.7969 Q443.4844,674.5469 443.4844,675.5781 L443.4844,676.6719 Q443.4844,677.9063 444.375,678.7344 Q445.2656,679.5469 446.8594,679.5469 Q447.7969,679.5469 448.4531,679.2969 Q448.8438,679.1406 449.2656,678.7031 Q449.5313,678.4375 449.6719,678.3594 Q449.8281,678.2813 450.0313,678.2813 Q450.3594,678.2813 450.6094,678.5469 Q450.875,678.7969 450.875,679.1406 Q450.875,679.4844 450.5313,679.8906 Q450.0313,680.4688 449.2344,680.7969 Q448.1563,681.25 446.8594,681.25 Q445.3438,681.25 444.1406,680.625 Q443.1563,680.125 442.4688,679.0625 Q441.7813,677.9844 441.7813,676.7031 L441.7813,675.5469 Q441.7813,674.2188 442.3906,673.0781 Q443.0156,671.9219 444.1094,671.3125 Q445.2031,670.6875 446.4375,670.6875 Q447.1719,670.6875 447.8125,670.8594 Q448.4688,671.0156 449.0156,671.375 Z " fill="#000000"/><text fill="#000000" font-family="sans-serif" font-size="14" lengthAdjust="spacing" textLength="31" x="466.75" y="681.2969">Task</text><line style="stroke:#181818;stroke-width:0.5;" x1="376" x2="556" y1="691.5" y2="691.5"/><text fill="#000000" font-family="sans-serif" font-size="14" lengthAdjust="spacing" textLength="170" x="381" y="710.6074">-greenSpace: GreenSpace</text><text fill="#000000" font-family="sans-serif" font-size="14" lengthAdjust="spacing" textLength="132" x="381" y="729.2285">-selectedTask : Task</text><text fill="#000000" font-family="sans-serif" font-size="14" lengthAdjust="spacing" textLength="164" x="381" y="747.8496">-selectedDate : LocalDate</text><text fill="#000000" font-family="sans-serif" font-size="14" lengthAdjust="spacing" textLength="146" x="381" y="766.4707">-agenda : TaskPosition</text><line style="stroke:#181818;stroke-width:0.5;" x1="376" x2="556" y1="773.9844" y2="773.9844"/></g><!--class CancelEntryAgendaController--><g id="elem_CancelEntryAgendaController"><rect codeLine="35" fill="#F1F1F1" height="48" id="CancelEntryAgendaController" rx="2.5" ry="2.5" style="stroke:#181818;stroke-width:0.5;" width="220" x="212" y="53.5"/><ellipse cx="227" cy="69.5" fill="#ADD1B2" rx="11" ry="11" style="stroke:#181818;stroke-width:1.0;"/><path d="M229.7656,65.375 Q229.9219,65.1563 230.1094,65.0469 Q230.2969,64.9375 230.5156,64.9375 Q230.8906,64.9375 231.125,65.2031 Q231.3594,65.4531 231.3594,66.0625 L231.3594,67.5156 Q231.3594,68.125 231.125,68.3906 Q230.8906,68.6563 230.5156,68.6563 Q230.1719,68.6563 229.9688,68.4531 Q229.7656,68.2656 229.6563,67.75 Q229.6094,67.3906 229.4219,67.2031 Q229.0938,66.8281 228.4844,66.6094 Q227.875,66.3906 227.25,66.3906 Q226.4844,66.3906 225.8438,66.7188 Q225.2188,67.0469 224.7188,67.7969 Q224.2344,68.5469 224.2344,69.5781 L224.2344,70.6719 Q224.2344,71.9063 225.125,72.7344 Q226.0156,73.5469 227.6094,73.5469 Q228.5469,73.5469 229.2031,73.2969 Q229.5938,73.1406 230.0156,72.7031 Q230.2813,72.4375 230.4219,72.3594 Q230.5781,72.2813 230.7813,72.2813 Q231.1094,72.2813 231.3594,72.5469 Q231.625,72.7969 231.625,73.1406 Q231.625,73.4844 231.2813,73.8906 Q230.7813,74.4688 229.9844,74.7969 Q228.9063,75.25 227.6094,75.25 Q226.0938,75.25 224.8906,74.625 Q223.9063,74.125 223.2188,73.0625 Q222.5313,71.9844 222.5313,70.7031 L222.5313,69.5469 Q222.5313,68.2188 223.1406,67.0781 Q223.7656,65.9219 224.8594,65.3125 Q225.9531,64.6875 227.1875,64.6875 Q227.9219,64.6875 228.5625,64.8594 Q229.2188,65.0156 229.7656,65.375 Z " fill="#000000"/><text fill="#000000" font-family="sans-serif" font-size="14" lengthAdjust="spacing" textLength="188" x="241" y="75.2969">CancelEntryAgendaController</text><line style="stroke:#181818;stroke-width:0.5;" x1="213" x2="431" y1="85.5" y2="85.5"/><line style="stroke:#181818;stroke-width:0.5;" x1="213" x2="431" y1="93.5" y2="93.5"/></g><!--class CancelEntryAgendaUI--><g id="elem_CancelEntryAgendaUI"><rect codeLine="39" fill="#F1F1F1" height="48" id="CancelEntryAgendaUI" rx="2.5" ry="2.5" style="stroke:#181818;stroke-width:0.5;" width="170" x="7" y="53.5"/><ellipse cx="22" cy="69.5" fill="#ADD1B2" rx="11" ry="11" style="stroke:#181818;stroke-width:1.0;"/><path d="M24.7656,65.375 Q24.9219,65.1563 25.1094,65.0469 Q25.2969,64.9375 25.5156,64.9375 Q25.8906,64.9375 26.125,65.2031 Q26.3594,65.4531 26.3594,66.0625 L26.3594,67.5156 Q26.3594,68.125 26.125,68.3906 Q25.8906,68.6563 25.5156,68.6563 Q25.1719,68.6563 24.9688,68.4531 Q24.7656,68.2656 24.6563,67.75 Q24.6094,67.3906 24.4219,67.2031 Q24.0938,66.8281 23.4844,66.6094 Q22.875,66.3906 22.25,66.3906 Q21.4844,66.3906 20.8438,66.7188 Q20.2188,67.0469 19.7188,67.7969 Q19.2344,68.5469 19.2344,69.5781 L19.2344,70.6719 Q19.2344,71.9063 20.125,72.7344 Q21.0156,73.5469 22.6094,73.5469 Q23.5469,73.5469 24.2031,73.2969 Q24.5938,73.1406 25.0156,72.7031 Q25.2813,72.4375 25.4219,72.3594 Q25.5781,72.2813 25.7813,72.2813 Q26.1094,72.2813 26.3594,72.5469 Q26.625,72.7969 26.625,73.1406 Q26.625,73.4844 26.2813,73.8906 Q25.7813,74.4688 24.9844,74.7969 Q23.9063,75.25 22.6094,75.25 Q21.0938,75.25 19.8906,74.625 Q18.9063,74.125 18.2188,73.0625 Q17.5313,71.9844 17.5313,70.7031 L17.5313,69.5469 Q17.5313,68.2188 18.1406,67.0781 Q18.7656,65.9219 19.8594,65.3125 Q20.9531,64.6875 22.1875,64.6875 Q22.9219,64.6875 23.5625,64.8594 Q24.2188,65.0156 24.7656,65.375 Z " fill="#000000"/><text fill="#000000" font-family="sans-serif" font-size="14" lengthAdjust="spacing" textLength="138" x="36" y="75.2969">CancelEntryAgendaUI</text><line style="stroke:#181818;stroke-width:0.5;" x1="8" x2="176" y1="85.5" y2="85.5"/><line style="stroke:#181818;stroke-width:0.5;" x1="8" x2="176" y1="93.5" y2="93.5"/></g><!--class Repositories--><g id="elem_Repositories"><rect codeLine="43" fill="#F1F1F1" height="141.1055" id="Repositories" rx="2.5" ry="2.5" style="stroke:#181818;stroke-width:0.5;" width="374" x="467" y="7"/><ellipse cx="610.25" cy="23" fill="#ADD1B2" rx="11" ry="11" style="stroke:#181818;stroke-width:1.0;"/><path d="M613.0156,18.875 Q613.1719,18.6563 613.3594,18.5469 Q613.5469,18.4375 613.7656,18.4375 Q614.1406,18.4375 614.375,18.7031 Q614.6094,18.9531 614.6094,19.5625 L614.6094,21.0156 Q614.6094,21.625 614.375,21.8906 Q614.1406,22.1563 613.7656,22.1563 Q613.4219,22.1563 613.2188,21.9531 Q613.0156,21.7656 612.9063,21.25 Q612.8594,20.8906 612.6719,20.7031 Q612.3438,20.3281 611.7344,20.1094 Q611.125,19.8906 610.5,19.8906 Q609.7344,19.8906 609.0938,20.2188 Q608.4688,20.5469 607.9688,21.2969 Q607.4844,22.0469 607.4844,23.0781 L607.4844,24.1719 Q607.4844,25.4063 608.375,26.2344 Q609.2656,27.0469 610.8594,27.0469 Q611.7969,27.0469 612.4531,26.7969 Q612.8438,26.6406 613.2656,26.2031 Q613.5313,25.9375 613.6719,25.8594 Q613.8281,25.7813 614.0313,25.7813 Q614.3594,25.7813 614.6094,26.0469 Q614.875,26.2969 614.875,26.6406 Q614.875,26.9844 614.5313,27.3906 Q614.0313,27.9688 613.2344,28.2969 Q612.1563,28.75 610.8594,28.75 Q609.3438,28.75 608.1406,28.125 Q607.1563,27.625 606.4688,26.5625 Q605.7813,25.4844 605.7813,24.2031 L605.7813,23.0469 Q605.7813,21.7188 606.3906,20.5781 Q607.0156,19.4219 608.1094,18.8125 Q609.2031,18.1875 610.4375,18.1875 Q611.1719,18.1875 611.8125,18.3594 Q612.4688,18.5156 613.0156,18.875 Z " fill="#000000"/><text fill="#000000" font-family="sans-serif" font-size="14" lengthAdjust="spacing" textLength="79" x="630.75" y="28.7969">Repositories</text><line style="stroke:#181818;stroke-width:0.5;" x1="468" x2="840" y1="39" y2="39"/><line style="stroke:#181818;stroke-width:0.5;" x1="468" x2="840" y1="47" y2="47"/><text fill="#000000" font-family="sans-serif" font-size="14" lengthAdjust="spacing" textLength="94" x="473" y="66.1074">-Repositories()</text><text fill="#000000" font-family="sans-serif" font-size="14" lengthAdjust="spacing" textLength="182" x="473" y="84.7285">+getInstance() : Repositories</text><text fill="#000000" font-family="sans-serif" font-size="14" lengthAdjust="spacing" textLength="305" x="473" y="103.3496">+getEmployeeRepository(); employeeRepository</text><text fill="#000000" font-family="sans-serif" font-size="14" lengthAdjust="spacing" textLength="362" x="473" y="121.9707">+getGreenSpaceRepository(); getGreenSpaceRepository</text><text fill="#000000" font-family="sans-serif" font-size="14" lengthAdjust="spacing" textLength="264" x="473" y="140.5918">+getTaskRepository(); getTaskRepository</text></g><!--class EmployeeRepository--><g id="elem_EmployeeRepository"><rect codeLine="51" fill="#F1F1F1" height="66.6211" id="EmployeeRepository" rx="2.5" ry="2.5" style="stroke:#181818;stroke-width:0.5;" width="182" x="375" y="209"/><ellipse cx="399" cy="225" fill="#ADD1B2" rx="11" ry="11" style="stroke:#181818;stroke-width:1.0;"/><path d="M401.7656,220.875 Q401.9219,220.6563 402.1094,220.5469 Q402.2969,220.4375 402.5156,220.4375 Q402.8906,220.4375 403.125,220.7031 Q403.3594,220.9531 403.3594,221.5625 L403.3594,223.0156 Q403.3594,223.625 403.125,223.8906 Q402.8906,224.1563 402.5156,224.1563 Q402.1719,224.1563 401.9688,223.9531 Q401.7656,223.7656 401.6563,223.25 Q401.6094,222.8906 401.4219,222.7031 Q401.0938,222.3281 400.4844,222.1094 Q399.875,221.8906 399.25,221.8906 Q398.4844,221.8906 397.8438,222.2188 Q397.2188,222.5469 396.7188,223.2969 Q396.2344,224.0469 396.2344,225.0781 L396.2344,226.1719 Q396.2344,227.4063 397.125,228.2344 Q398.0156,229.0469 399.6094,229.0469 Q400.5469,229.0469 401.2031,228.7969 Q401.5938,228.6406 402.0156,228.2031 Q402.2813,227.9375 402.4219,227.8594 Q402.5781,227.7813 402.7813,227.7813 Q403.1094,227.7813 403.3594,228.0469 Q403.625,228.2969 403.625,228.6406 Q403.625,228.9844 403.2813,229.3906 Q402.7813,229.9688 401.9844,230.2969 Q400.9063,230.75 399.6094,230.75 Q398.0938,230.75 396.8906,230.125 Q395.9063,229.625 395.2188,228.5625 Q394.5313,227.4844 394.5313,226.2031 L394.5313,225.0469 Q394.5313,223.7188 395.1406,222.5781 Q395.7656,221.4219 396.8594,220.8125 Q397.9531,220.1875 399.1875,220.1875 Q399.9219,220.1875 400.5625,220.3594 Q401.2188,220.5156 401.7656,220.875 Z " fill="#000000"/><text fill="#000000" font-family="sans-serif" font-size="14" lengthAdjust="spacing" textLength="130" x="415" y="230.7969">EmployeeRepository</text><line style="stroke:#181818;stroke-width:0.5;" x1="376" x2="556" y1="241" y2="241"/><line style="stroke:#181818;stroke-width:0.5;" x1="376" x2="556" y1="249" y2="249"/><text fill="#000000" font-family="sans-serif" font-size="14" lengthAdjust="spacing" textLength="170" x="381" y="268.1074">+getEmployee(): Employee</text></g><!--class TasksRepository--><g id="elem_TasksRepository"><rect codeLine="57" fill="#F1F1F1" height="66.6211" id="TasksRepository" rx="2.5" ry="2.5" style="stroke:#181818;stroke-width:0.5;" width="271" x="592.5" y="209"/><ellipse cx="670.75" cy="225" fill="#ADD1B2" rx="11" ry="11" style="stroke:#181818;stroke-width:1.0;"/><path d="M673.5156,220.875 Q673.6719,220.6563 673.8594,220.5469 Q674.0469,220.4375 674.2656,220.4375 Q674.6406,220.4375 674.875,220.7031 Q675.1094,220.9531 675.1094,221.5625 L675.1094,223.0156 Q675.1094,223.625 674.875,223.8906 Q674.6406,224.1563 674.2656,224.1563 Q673.9219,224.1563 673.7188,223.9531 Q673.5156,223.7656 673.4063,223.25 Q673.3594,222.8906 673.1719,222.7031 Q672.8438,222.3281 672.2344,222.1094 Q671.625,221.8906 671,221.8906 Q670.2344,221.8906 669.5938,222.2188 Q668.9688,222.5469 668.4688,223.2969 Q667.9844,224.0469 667.9844,225.0781 L667.9844,226.1719 Q667.9844,227.4063 668.875,228.2344 Q669.7656,229.0469 671.3594,229.0469 Q672.2969,229.0469 672.9531,228.7969 Q673.3438,228.6406 673.7656,228.2031 Q674.0313,227.9375 674.1719,227.8594 Q674.3281,227.7813 674.5313,227.7813 Q674.8594,227.7813 675.1094,228.0469 Q675.375,228.2969 675.375,228.6406 Q675.375,228.9844 675.0313,229.3906 Q674.5313,229.9688 673.7344,230.2969 Q672.6563,230.75 671.3594,230.75 Q669.8438,230.75 668.6406,230.125 Q667.6563,229.625 666.9688,228.5625 Q666.2813,227.4844 666.2813,226.2031 L666.2813,225.0469 Q666.2813,223.7188 666.8906,222.5781 Q667.5156,221.4219 668.6094,220.8125 Q669.7031,220.1875 670.9375,220.1875 Q671.6719,220.1875 672.3125,220.3594 Q672.9688,220.5156 673.5156,220.875 Z " fill="#000000"/><text fill="#000000" font-family="sans-serif" font-size="14" lengthAdjust="spacing" textLength="106" x="691.25" y="230.7969">TasksRepository</text><line style="stroke:#181818;stroke-width:0.5;" x1="593.5" x2="862.5" y1="241" y2="241"/><line style="stroke:#181818;stroke-width:0.5;" x1="593.5" x2="862.5" y1="249" y2="249"/><text fill="#000000" font-family="sans-serif" font-size="14" lengthAdjust="spacing" textLength="259" x="598.5" y="268.1074">+getAgemdaEntries(): List&lt;ToDoEntries&gt;</text></g><!--class TaskStatus--><g id="elem_TaskStatus"><rect codeLine="61" fill="#F1F1F1" height="141.1055" id="TaskStatus" rx="2.5" ry="2.5" style="stroke:#181818;stroke-width:0.5;" width="103" x="592.5" y="650"/><ellipse cx="607.5" cy="666" fill="#EB937F" rx="11" ry="11" style="stroke:#181818;stroke-width:1.0;"/><path d="M606.3594,666.7969 L606.3594,669.2969 L610.6875,669.2969 L610.6875,668.375 Q610.6875,667.7656 610.9219,667.5 Q611.1719,667.2344 611.5469,667.2344 Q611.9219,667.2344 612.1563,667.5 Q612.3906,667.7656 612.3906,668.375 L612.3906,671 L604.3906,671 Q603.7656,671 603.5,670.7656 Q603.25,670.5313 603.25,670.1406 Q603.25,669.7656 603.5156,669.5313 Q603.7813,669.2969 604.3906,669.2969 L604.6563,669.2969 L604.6563,662.6406 L604.3906,662.6406 Q603.7656,662.6406 603.5,662.4063 Q603.25,662.1719 603.25,661.7813 Q603.25,661.4063 603.5,661.1719 Q603.7656,660.9375 604.3906,660.9375 L612.0156,660.9375 L612.0156,663.5313 Q612.0156,664.1406 611.7813,664.4063 Q611.5625,664.6563 611.1719,664.6563 Q610.7969,664.6563 610.5625,664.4063 Q610.3281,664.1406 610.3281,663.5313 L610.3281,662.6406 L606.3594,662.6406 L606.3594,665.0938 L607.8438,665.0938 Q607.8438,664.4375 607.9688,664.25 Q608.2344,663.8438 608.7031,663.8438 Q609.0781,663.8438 609.3125,664.1094 Q609.5469,664.3594 609.5469,664.9688 L609.5469,666.9375 Q609.5469,667.4844 609.4219,667.6719 Q609.1563,668.0625 608.7031,668.0625 Q608.2344,668.0625 607.9688,667.6563 Q607.8438,667.4688 607.8438,666.7969 L606.3594,666.7969 Z " fill="#000000"/><text fill="#000000" font-family="sans-serif" font-size="14" lengthAdjust="spacing" textLength="71" x="621.5" y="671.7969">TaskStatus</text><line style="stroke:#181818;stroke-width:0.5;" x1="593.5" x2="694.5" y1="682" y2="682"/><text fill="#000000" font-family="sans-serif" font-size="14" lengthAdjust="spacing" textLength="63" x="598.5" y="701.1074">PLANNED</text><text fill="#000000" font-family="sans-serif" font-size="14" lengthAdjust="spacing" textLength="86" x="598.5" y="719.7285">POSTPONED</text><text fill="#000000" font-family="sans-serif" font-size="14" lengthAdjust="spacing" textLength="74" x="598.5" y="738.3496">CANCELED</text><text fill="#000000" font-family="sans-serif" font-size="14" lengthAdjust="spacing" textLength="39" x="598.5" y="756.9707">DONE</text><text fill="#000000" font-family="sans-serif" font-size="14" lengthAdjust="spacing" textLength="60" x="598.5" y="775.5918">PENDING</text><line style="stroke:#181818;stroke-width:0.5;" x1="593.5" x2="694.5" y1="783.1055" y2="783.1055"/></g><!--link CancelEntryAgendaUI to CancelEntryAgendaController--><g id="link_CancelEntryAgendaUI_CancelEntryAgendaController"><path codeLine="70" d="M177.16,77.5 C185.59,77.5 193.03,77.5 205.77,77.5 " fill="none" id="CancelEntryAgendaUI-to-CancelEntryAgendaController" style="stroke:#181818;stroke-width:1.0;stroke-dasharray:7.0,7.0;"/><polygon fill="#181818" points="211.77,77.5,202.77,73.5,206.77,77.5,202.77,81.5,211.77,77.5" style="stroke:#181818;stroke-width:1.0;"/></g><!--link CancelEntryAgendaController to Repositories--><g id="link_CancelEntryAgendaController_Repositories"><path codeLine="72" d="M432.35,77.5 C432.56,77.5 432.67,77.5 432.67,77.5 C432.67,77.5 441.75,77.5 460.77,77.5 " fill="none" id="CancelEntryAgendaController-to-Repositories" style="stroke:#181818;stroke-width:1.0;stroke-dasharray:7.0,7.0;"/><polygon fill="#181818" points="466.77,77.5,457.77,73.5,461.77,77.5,457.77,81.5,466.77,77.5" style="stroke:#181818;stroke-width:1.0;"/><text fill="#000000" font-family="sans-serif" font-size="13" lengthAdjust="spacing" textLength="7" x="451.7236" y="74.1736">1</text></g><!--link Repositories to Repositories--><g id="link_Repositories_Repositories"><path codeLine="74" d="M841.06,61.61 C862.26,64.59 876,69.88 876,77.5 C876,85.12 868.2016,89.5748 847.0016,92.5548 " fill="none" id="Repositories-to-Repositories" style="stroke:#181818;stroke-width:1.0;"/><polygon fill="#181818" points="841.06,93.39,850.5292,96.0983,846.0113,92.694,849.4156,88.1762,841.06,93.39" style="stroke:#181818;stroke-width:1.0;"/><text fill="#000000" font-family="sans-serif" font-size="13" lengthAdjust="spacing" textLength="75" x="882" y="83.0283">getInstance()</text><text fill="#000000" font-family="sans-serif" font-size="13" lengthAdjust="spacing" textLength="7" x="849.0993" y="57.6133">1</text><text fill="#000000" font-family="sans-serif" font-size="13" lengthAdjust="spacing" textLength="7" x="849.0993" y="90.734">1</text></g><!--link Repositories to EmployeeRepository--><g id="link_Repositories_EmployeeRepository"><path codeLine="75" d="M573.73,148.1 C549.37,169.21 528.3035,187.4797 508.1635,204.9397 " fill="none" id="Repositories-to-EmployeeRepository" style="stroke:#181818;stroke-width:1.0;"/><polygon fill="#181818" points="503.63,208.87,513.0505,205.997,507.408,205.5948,507.8101,199.9522,503.63,208.87" style="stroke:#181818;stroke-width:1.0;"/><text fill="#000000" font-family="sans-serif" font-size="13" lengthAdjust="spacing" textLength="7" x="558.0912" y="170.2951">1</text><text fill="#000000" font-family="sans-serif" font-size="13" lengthAdjust="spacing" textLength="7" x="503.3493" y="197.6699">1</text></g><!--link Repositories to TasksRepository--><g id="link_Repositories_TasksRepository"><path codeLine="76" d="M685.6,148.1 C695.18,169.21 702.7788,185.9471 710.7088,203.4071 " fill="none" id="Repositories-to-TasksRepository" style="stroke:#181818;stroke-width:1.0;"/><polygon fill="#181818" points="713.19,208.87,713.1102,199.0215,711.1224,204.3175,705.8263,202.3297,713.19,208.87" style="stroke:#181818;stroke-width:1.0;"/><text fill="#000000" font-family="sans-serif" font-size="13" lengthAdjust="spacing" textLength="7" x="681.4978" y="170.2951">1</text><text fill="#000000" font-family="sans-serif" font-size="13" lengthAdjust="spacing" textLength="7" x="702.5852" y="197.6699">1</text></g><!--link CancelEntryAgendaController to Employee--><g id="link_CancelEntryAgendaController_Employee"><path codeLine="78" d="M326.08,101.54 C335.32,153.64 357,276 357,276 C357,276 370.8242,298.4408 391.3642,331.8008 " fill="none" id="CancelEntryAgendaController-to-Employee" style="stroke:#181818;stroke-width:1.0;stroke-dasharray:7.0,7.0;"/><polygon fill="#181818" points="394.51,336.91,393.1975,327.149,391.8885,332.6523,386.3852,331.3434,394.51,336.91" style="stroke:#181818;stroke-width:1.0;"/></g><!--link EmployeeRepository to Employee--><g id="link_EmployeeRepository_Employee"><path codeLine="80" d="M466,276.23 C466,293.04 466,308.63 466,330.92 " fill="none" id="EmployeeRepository-to-Employee" style="stroke:#181818;stroke-width:1.0;"/><polygon fill="#181818" points="466,336.92,470,327.92,466,331.92,462,327.92,466,336.92" style="stroke:#181818;stroke-width:1.0;"/><text fill="#000000" font-family="sans-serif" font-size="13" lengthAdjust="spacing" textLength="7" x="458.3984" y="297.5742">1</text><text fill="#000000" font-family="sans-serif" font-size="13" lengthAdjust="spacing" textLength="7" x="458.7758" y="325.9059">1</text></g><!--link TasksRepository to Employee--><g id="link_TasksRepository_Employee"><path codeLine="81" d="M687.35,276 C658.03,299.45 621.616,328.5629 582.786,359.6129 " fill="none" id="TasksRepository-to-Employee" style="stroke:#181818;stroke-width:1.0;"/><polygon fill="#181818" points="578.1,363.36,587.6271,360.8633,582.005,360.2374,582.631,354.6153,578.1,363.36" style="stroke:#181818;stroke-width:1.0;"/><text fill="#000000" font-family="sans-serif" font-size="13" lengthAdjust="spacing" textLength="7" x="672.4858" y="297.5692">1</text><text fill="#000000" font-family="sans-serif" font-size="13" lengthAdjust="spacing" textLength="7" x="585.8669" y="353.73">1</text></g><!--link Employee to Task--><g id="link_Employee_Task"><path codeLine="83" d="M466,571.01 C466,601.55 466,627.26 466,653.5 " fill="none" id="Employee-to-Task" style="stroke:#181818;stroke-width:1.0;"/><polygon fill="#181818" points="466,659.5,470,650.5,466,654.5,462,650.5,466,659.5" style="stroke:#181818;stroke-width:1.0;"/><text fill="#000000" font-family="sans-serif" font-size="13" lengthAdjust="spacing" textLength="39" x="467" y="616.0283">update</text></g><!--link Task to TaskStatus--><g id="link_Task_TaskStatus"><path codeLine="85" d="M557.08,720.5 C571.19,720.5 584.67,720.5 584.67,720.5 C584.67,720.5 581.71,720.5 586.42,720.5 " fill="none" id="Task-to-TaskStatus" style="stroke:#181818;stroke-width:1.0;stroke-dasharray:7.0,7.0;"/><polygon fill="#181818" points="592.42,720.5,583.42,716.5,587.42,720.5,583.42,724.5,592.42,720.5" style="stroke:#181818;stroke-width:1.0;"/><text fill="#000000" font-family="sans-serif" font-size="13" lengthAdjust="spacing" textLength="7" x="564.9124" y="716.8164">1</text><text fill="#000000" font-family="sans-serif" font-size="13" lengthAdjust="spacing" textLength="7" x="577.3301" y="716.2935">1</text></g><!--SRC=[XLJDZjem4BxxAQoz0491sokja111AoIKHGrz09FC1Y-E7TaJjIdgkzTs0ab8Q3a4v_iPZx-nCZ4NBWkcMKvp9LLorYe7Yhe4qZ85IouiWnWh0LH3WanceYimPvQgdrncz8C9qsK4bu1L0RHGed8lP392AesAT5o9OCQi4JK_bGYxHCcO_mRwIiX4m0TIL5Jpx8mqvQuThYJn5hhD2w4gW2kXzXT8PW-pfB4j9BCQEd6DvvIXmqFxLwEGCouUbCLPIOZA_0JQCbnY3RCqvyROBUcW2h9V1Qj0tqtTSYnDDTWM-sYgab7rfpeTEOfEzsHE4oOJ44TcBbFte6WVHxNnw8mGyeSqCJZsIe9C0yZOJW-MzEs-9e41OLE3r1TPUdKBXlMfzYfXmXyjiAENAMk41sMu3zpjrcnNTx2LgAkrrswKNIiXG5yxNGraFtPT-ZiKhhRI70nj1jW3fpCFpca6k9C6NRdfpFRL5RMIsrsuizLqzfN20FMEsjA6r3SzeJfE5yt0qmVTKVktjELi3cJUwNawMzvLhS_LCrqJTHwRPPuo5wlFo8wE6_nsLA5gi9NB66IP-m8nCYnl0H_swoZQXlNwFJuUtczlctMqsUwRbz32jMORXRlepSz-P9nqiVh7NHYnjAIrqfSlB_rPajwTS7GG36Ns1lHkn7FNCFZdseUm_zFyOjMEQxZBQ1FaOOTnqRsQfvnbISl2VNg8B-3LYxRbUhn_0G00]--></g></svg>