<?xml version="1.0" encoding="us-ascii" standalone="no"?><svg xmlns="http://www.w3.org/2000/svg" xmlns:xlink="http://www.w3.org/1999/xlink" contentStyleType="text/css" height="779px" preserveAspectRatio="none" style="width:1191px;height:779px;background:#FFFFFF;" version="1.1" viewBox="0 0 1191 779" width="1191px" zoomAndPan="magnify"><defs/><g><!--class Employee--><g id="elem_Employee"><rect codeLine="10" fill="#F1F1F1" height="234.2109" id="Employee" rx="2.5" ry="2.5" style="stroke:#181818;stroke-width:0.5;" width="1177" x="7" y="337"/><ellipse cx="560.25" cy="353" fill="#ADD1B2" rx="11" ry="11" style="stroke:#181818;stroke-width:1.0;"/><path d="M563.0156,348.875 Q563.1719,348.6563 563.3594,348.5469 Q563.5469,348.4375 563.7656,348.4375 Q564.1406,348.4375 564.375,348.7031 Q564.6094,348.9531 564.6094,349.5625 L564.6094,351.0156 Q564.6094,351.625 564.375,351.8906 Q564.1406,352.1563 563.7656,352.1563 Q563.4219,352.1563 563.2188,351.9531 Q563.0156,351.7656 562.9063,351.25 Q562.8594,350.8906 562.6719,350.7031 Q562.3438,350.3281 561.7344,350.1094 Q561.125,349.8906 560.5,349.8906 Q559.7344,349.8906 559.0938,350.2188 Q558.4688,350.5469 557.9688,351.2969 Q557.4844,352.0469 557.4844,353.0781 L557.4844,354.1719 Q557.4844,355.4063 558.375,356.2344 Q559.2656,357.0469 560.8594,357.0469 Q561.7969,357.0469 562.4531,356.7969 Q562.8438,356.6406 563.2656,356.2031 Q563.5313,355.9375 563.6719,355.8594 Q563.8281,355.7813 564.0313,355.7813 Q564.3594,355.7813 564.6094,356.0469 Q564.875,356.2969 564.875,356.6406 Q564.875,356.9844 564.5313,357.3906 Q564.0313,357.9688 563.2344,358.2969 Q562.1563,358.75 560.8594,358.75 Q559.3438,358.75 558.1406,358.125 Q557.1563,357.625 556.4688,356.5625 Q555.7813,355.4844 555.7813,354.2031 L555.7813,353.0469 Q555.7813,351.7188 556.3906,350.5781 Q557.0156,349.4219 558.1094,348.8125 Q559.2031,348.1875 560.4375,348.1875 Q561.1719,348.1875 561.8125,348.3594 Q562.4688,348.5156 563.0156,348.875 Z " fill="#000000"/><text fill="#000000" font-family="sans-serif" font-size="14" lengthAdjust="spacing" textLength="62" x="580.75" y="358.7969">Employee</text><line style="stroke:#181818;stroke-width:0.5;" x1="8" x2="1183" y1="369" y2="369"/><text fill="#000000" font-family="sans-serif" font-size="14" lengthAdjust="spacing" textLength="89" x="13" y="388.1074">-name : String</text><text fill="#000000" font-family="sans-serif" font-size="14" lengthAdjust="spacing" textLength="103" x="13" y="406.7285">-birthdate : Date</text><text fill="#000000" font-family="sans-serif" font-size="14" lengthAdjust="spacing" textLength="87" x="13" y="425.3496">-email : String</text><text fill="#000000" font-family="sans-serif" font-size="14" lengthAdjust="spacing" textLength="121" x="13" y="443.9707">-phoneNumber : int</text><text fill="#000000" font-family="sans-serif" font-size="14" lengthAdjust="spacing" textLength="142" x="13" y="462.5918">-admission date : Date</text><text fill="#000000" font-family="sans-serif" font-size="14" lengthAdjust="spacing" textLength="157" x="13" y="481.2129">-taxpayerNumber : String</text><text fill="#000000" font-family="sans-serif" font-size="14" lengthAdjust="spacing" textLength="105" x="13" y="499.834">-address : String</text><text fill="#000000" font-family="sans-serif" font-size="14" lengthAdjust="spacing" textLength="126" x="13" y="518.4551">-docNumber : String</text><text fill="#000000" font-family="sans-serif" font-size="14" lengthAdjust="spacing" textLength="100" x="13" y="537.0762">-jobTitle : String</text><line style="stroke:#181818;stroke-width:0.5;" x1="8" x2="1183" y1="544.5898" y2="544.5898"/><text fill="#000000" font-family="sans-serif" font-size="14" lengthAdjust="spacing" textLength="1165" x="13" y="563.6973">+addTaskAgenda(selectedGreenSpace : GreenSpace, selectedTask : Task, selectedDate : LocalDate, startTime : int, agenda : TaskPosition, userValidation : boolean) : Optional&lt;Task&gt;</text></g><!--class Task--><g id="elem_Task"><rect codeLine="26" fill="#F1F1F1" height="122.4844" id="Task" rx="2.5" ry="2.5" style="stroke:#181818;stroke-width:0.5;" width="182" x="504.5" y="650"/><ellipse cx="575.75" cy="666" fill="#ADD1B2" rx="11" ry="11" style="stroke:#181818;stroke-width:1.0;"/><path d="M578.5156,661.875 Q578.6719,661.6563 578.8594,661.5469 Q579.0469,661.4375 579.2656,661.4375 Q579.6406,661.4375 579.875,661.7031 Q580.1094,661.9531 580.1094,662.5625 L580.1094,664.0156 Q580.1094,664.625 579.875,664.8906 Q579.6406,665.1563 579.2656,665.1563 Q578.9219,665.1563 578.7188,664.9531 Q578.5156,664.7656 578.4063,664.25 Q578.3594,663.8906 578.1719,663.7031 Q577.8438,663.3281 577.2344,663.1094 Q576.625,662.8906 576,662.8906 Q575.2344,662.8906 574.5938,663.2188 Q573.9688,663.5469 573.4688,664.2969 Q572.9844,665.0469 572.9844,666.0781 L572.9844,667.1719 Q572.9844,668.4063 573.875,669.2344 Q574.7656,670.0469 576.3594,670.0469 Q577.2969,670.0469 577.9531,669.7969 Q578.3438,669.6406 578.7656,669.2031 Q579.0313,668.9375 579.1719,668.8594 Q579.3281,668.7813 579.5313,668.7813 Q579.8594,668.7813 580.1094,669.0469 Q580.375,669.2969 580.375,669.6406 Q580.375,669.9844 580.0313,670.3906 Q579.5313,670.9688 578.7344,671.2969 Q577.6563,671.75 576.3594,671.75 Q574.8438,671.75 573.6406,671.125 Q572.6563,670.625 571.9688,669.5625 Q571.2813,668.4844 571.2813,667.2031 L571.2813,666.0469 Q571.2813,664.7188 571.8906,663.5781 Q572.5156,662.4219 573.6094,661.8125 Q574.7031,661.1875 575.9375,661.1875 Q576.6719,661.1875 577.3125,661.3594 Q577.9688,661.5156 578.5156,661.875 Z " fill="#000000"/><text fill="#000000" font-family="sans-serif" font-size="14" lengthAdjust="spacing" textLength="31" x="596.25" y="671.7969">Task</text><line style="stroke:#181818;stroke-width:0.5;" x1="505.5" x2="685.5" y1="682" y2="682"/><text fill="#000000" font-family="sans-serif" font-size="14" lengthAdjust="spacing" textLength="170" x="510.5" y="701.1074">-greenSpace: GreenSpace</text><text fill="#000000" font-family="sans-serif" font-size="14" lengthAdjust="spacing" textLength="132" x="510.5" y="719.7285">-selectedTask : Task</text><text fill="#000000" font-family="sans-serif" font-size="14" lengthAdjust="spacing" textLength="164" x="510.5" y="738.3496">-selectedDate : LocalDate</text><text fill="#000000" font-family="sans-serif" font-size="14" lengthAdjust="spacing" textLength="146" x="510.5" y="756.9707">-agenda : TaskPosition</text><line style="stroke:#181818;stroke-width:0.5;" x1="505.5" x2="685.5" y1="764.4844" y2="764.4844"/></g><!--class CancelEntryAgendaController--><g id="elem_CancelEntryAgendaController"><rect codeLine="35" fill="#F1F1F1" height="48" id="CancelEntryAgendaController" rx="2.5" ry="2.5" style="stroke:#181818;stroke-width:0.5;" width="220" x="341.5" y="53.5"/><ellipse cx="356.5" cy="69.5" fill="#ADD1B2" rx="11" ry="11" style="stroke:#181818;stroke-width:1.0;"/><path d="M359.2656,65.375 Q359.4219,65.1563 359.6094,65.0469 Q359.7969,64.9375 360.0156,64.9375 Q360.3906,64.9375 360.625,65.2031 Q360.8594,65.4531 360.8594,66.0625 L360.8594,67.5156 Q360.8594,68.125 360.625,68.3906 Q360.3906,68.6563 360.0156,68.6563 Q359.6719,68.6563 359.4688,68.4531 Q359.2656,68.2656 359.1563,67.75 Q359.1094,67.3906 358.9219,67.2031 Q358.5938,66.8281 357.9844,66.6094 Q357.375,66.3906 356.75,66.3906 Q355.9844,66.3906 355.3438,66.7188 Q354.7188,67.0469 354.2188,67.7969 Q353.7344,68.5469 353.7344,69.5781 L353.7344,70.6719 Q353.7344,71.9063 354.625,72.7344 Q355.5156,73.5469 357.1094,73.5469 Q358.0469,73.5469 358.7031,73.2969 Q359.0938,73.1406 359.5156,72.7031 Q359.7813,72.4375 359.9219,72.3594 Q360.0781,72.2813 360.2813,72.2813 Q360.6094,72.2813 360.8594,72.5469 Q361.125,72.7969 361.125,73.1406 Q361.125,73.4844 360.7813,73.8906 Q360.2813,74.4688 359.4844,74.7969 Q358.4063,75.25 357.1094,75.25 Q355.5938,75.25 354.3906,74.625 Q353.4063,74.125 352.7188,73.0625 Q352.0313,71.9844 352.0313,70.7031 L352.0313,69.5469 Q352.0313,68.2188 352.6406,67.0781 Q353.2656,65.9219 354.3594,65.3125 Q355.4531,64.6875 356.6875,64.6875 Q357.4219,64.6875 358.0625,64.8594 Q358.7188,65.0156 359.2656,65.375 Z " fill="#000000"/><text fill="#000000" font-family="sans-serif" font-size="14" lengthAdjust="spacing" textLength="188" x="370.5" y="75.2969">CancelEntryAgendaController</text><line style="stroke:#181818;stroke-width:0.5;" x1="342.5" x2="560.5" y1="85.5" y2="85.5"/><line style="stroke:#181818;stroke-width:0.5;" x1="342.5" x2="560.5" y1="93.5" y2="93.5"/></g><!--class CancelEntryAgendaUI--><g id="elem_CancelEntryAgendaUI"><rect codeLine="39" fill="#F1F1F1" height="48" id="CancelEntryAgendaUI" rx="2.5" ry="2.5" style="stroke:#181818;stroke-width:0.5;" width="170" x="136.5" y="53.5"/><ellipse cx="151.5" cy="69.5" fill="#ADD1B2" rx="11" ry="11" style="stroke:#181818;stroke-width:1.0;"/><path d="M154.2656,65.375 Q154.4219,65.1563 154.6094,65.0469 Q154.7969,64.9375 155.0156,64.9375 Q155.3906,64.9375 155.625,65.2031 Q155.8594,65.4531 155.8594,66.0625 L155.8594,67.5156 Q155.8594,68.125 155.625,68.3906 Q155.3906,68.6563 155.0156,68.6563 Q154.6719,68.6563 154.4688,68.4531 Q154.2656,68.2656 154.1563,67.75 Q154.1094,67.3906 153.9219,67.2031 Q153.5938,66.8281 152.9844,66.6094 Q152.375,66.3906 151.75,66.3906 Q150.9844,66.3906 150.3438,66.7188 Q149.7188,67.0469 149.2188,67.7969 Q148.7344,68.5469 148.7344,69.5781 L148.7344,70.6719 Q148.7344,71.9063 149.625,72.7344 Q150.5156,73.5469 152.1094,73.5469 Q153.0469,73.5469 153.7031,73.2969 Q154.0938,73.1406 154.5156,72.7031 Q154.7813,72.4375 154.9219,72.3594 Q155.0781,72.2813 155.2813,72.2813 Q155.6094,72.2813 155.8594,72.5469 Q156.125,72.7969 156.125,73.1406 Q156.125,73.4844 155.7813,73.8906 Q155.2813,74.4688 154.4844,74.7969 Q153.4063,75.25 152.1094,75.25 Q150.5938,75.25 149.3906,74.625 Q148.4063,74.125 147.7188,73.0625 Q147.0313,71.9844 147.0313,70.7031 L147.0313,69.5469 Q147.0313,68.2188 147.6406,67.0781 Q148.2656,65.9219 149.3594,65.3125 Q150.4531,64.6875 151.6875,64.6875 Q152.4219,64.6875 153.0625,64.8594 Q153.7188,65.0156 154.2656,65.375 Z " fill="#000000"/><text fill="#000000" font-family="sans-serif" font-size="14" lengthAdjust="spacing" textLength="138" x="165.5" y="75.2969">CancelEntryAgendaUI</text><line style="stroke:#181818;stroke-width:0.5;" x1="137.5" x2="305.5" y1="85.5" y2="85.5"/><line style="stroke:#181818;stroke-width:0.5;" x1="137.5" x2="305.5" y1="93.5" y2="93.5"/></g><!--class Repositories--><g id="elem_Repositories"><rect codeLine="43" fill="#F1F1F1" height="141.1055" id="Repositories" rx="2.5" ry="2.5" style="stroke:#181818;stroke-width:0.5;" width="374" x="596.5" y="7"/><ellipse cx="739.75" cy="23" fill="#ADD1B2" rx="11" ry="11" style="stroke:#181818;stroke-width:1.0;"/><path d="M742.5156,18.875 Q742.6719,18.6563 742.8594,18.5469 Q743.0469,18.4375 743.2656,18.4375 Q743.6406,18.4375 743.875,18.7031 Q744.1094,18.9531 744.1094,19.5625 L744.1094,21.0156 Q744.1094,21.625 743.875,21.8906 Q743.6406,22.1563 743.2656,22.1563 Q742.9219,22.1563 742.7188,21.9531 Q742.5156,21.7656 742.4063,21.25 Q742.3594,20.8906 742.1719,20.7031 Q741.8438,20.3281 741.2344,20.1094 Q740.625,19.8906 740,19.8906 Q739.2344,19.8906 738.5938,20.2188 Q737.9688,20.5469 737.4688,21.2969 Q736.9844,22.0469 736.9844,23.0781 L736.9844,24.1719 Q736.9844,25.4063 737.875,26.2344 Q738.7656,27.0469 740.3594,27.0469 Q741.2969,27.0469 741.9531,26.7969 Q742.3438,26.6406 742.7656,26.2031 Q743.0313,25.9375 743.1719,25.8594 Q743.3281,25.7813 743.5313,25.7813 Q743.8594,25.7813 744.1094,26.0469 Q744.375,26.2969 744.375,26.6406 Q744.375,26.9844 744.0313,27.3906 Q743.5313,27.9688 742.7344,28.2969 Q741.6563,28.75 740.3594,28.75 Q738.8438,28.75 737.6406,28.125 Q736.6563,27.625 735.9688,26.5625 Q735.2813,25.4844 735.2813,24.2031 L735.2813,23.0469 Q735.2813,21.7188 735.8906,20.5781 Q736.5156,19.4219 737.6094,18.8125 Q738.7031,18.1875 739.9375,18.1875 Q740.6719,18.1875 741.3125,18.3594 Q741.9688,18.5156 742.5156,18.875 Z " fill="#000000"/><text fill="#000000" font-family="sans-serif" font-size="14" lengthAdjust="spacing" textLength="79" x="760.25" y="28.7969">Repositories</text><line style="stroke:#181818;stroke-width:0.5;" x1="597.5" x2="969.5" y1="39" y2="39"/><line style="stroke:#181818;stroke-width:0.5;" x1="597.5" x2="969.5" y1="47" y2="47"/><text fill="#000000" font-family="sans-serif" font-size="14" lengthAdjust="spacing" textLength="94" x="602.5" y="66.1074">-Repositories()</text><text fill="#000000" font-family="sans-serif" font-size="14" lengthAdjust="spacing" textLength="182" x="602.5" y="84.7285">+getInstance() : Repositories</text><text fill="#000000" font-family="sans-serif" font-size="14" lengthAdjust="spacing" textLength="305" x="602.5" y="103.3496">+getEmployeeRepository(); employeeRepository</text><text fill="#000000" font-family="sans-serif" font-size="14" lengthAdjust="spacing" textLength="362" x="602.5" y="121.9707">+getGreenSpaceRepository(); getGreenSpaceRepository</text><text fill="#000000" font-family="sans-serif" font-size="14" lengthAdjust="spacing" textLength="264" x="602.5" y="140.5918">+getTaskRepository(); getTaskRepository</text></g><!--class EmployeeRepository--><g id="elem_EmployeeRepository"><rect codeLine="51" fill="#F1F1F1" height="66.6211" id="EmployeeRepository" rx="2.5" ry="2.5" style="stroke:#181818;stroke-width:0.5;" width="182" x="504.5" y="209"/><ellipse cx="528.5" cy="225" fill="#ADD1B2" rx="11" ry="11" style="stroke:#181818;stroke-width:1.0;"/><path d="M531.2656,220.875 Q531.4219,220.6563 531.6094,220.5469 Q531.7969,220.4375 532.0156,220.4375 Q532.3906,220.4375 532.625,220.7031 Q532.8594,220.9531 532.8594,221.5625 L532.8594,223.0156 Q532.8594,223.625 532.625,223.8906 Q532.3906,224.1563 532.0156,224.1563 Q531.6719,224.1563 531.4688,223.9531 Q531.2656,223.7656 531.1563,223.25 Q531.1094,222.8906 530.9219,222.7031 Q530.5938,222.3281 529.9844,222.1094 Q529.375,221.8906 528.75,221.8906 Q527.9844,221.8906 527.3438,222.2188 Q526.7188,222.5469 526.2188,223.2969 Q525.7344,224.0469 525.7344,225.0781 L525.7344,226.1719 Q525.7344,227.4063 526.625,228.2344 Q527.5156,229.0469 529.1094,229.0469 Q530.0469,229.0469 530.7031,228.7969 Q531.0938,228.6406 531.5156,228.2031 Q531.7813,227.9375 531.9219,227.8594 Q532.0781,227.7813 532.2813,227.7813 Q532.6094,227.7813 532.8594,228.0469 Q533.125,228.2969 533.125,228.6406 Q533.125,228.9844 532.7813,229.3906 Q532.2813,229.9688 531.4844,230.2969 Q530.4063,230.75 529.1094,230.75 Q527.5938,230.75 526.3906,230.125 Q525.4063,229.625 524.7188,228.5625 Q524.0313,227.4844 524.0313,226.2031 L524.0313,225.0469 Q524.0313,223.7188 524.6406,222.5781 Q525.2656,221.4219 526.3594,220.8125 Q527.4531,220.1875 528.6875,220.1875 Q529.4219,220.1875 530.0625,220.3594 Q530.7188,220.5156 531.2656,220.875 Z " fill="#000000"/><text fill="#000000" font-family="sans-serif" font-size="14" lengthAdjust="spacing" textLength="130" x="544.5" y="230.7969">EmployeeRepository</text><line style="stroke:#181818;stroke-width:0.5;" x1="505.5" x2="685.5" y1="241" y2="241"/><line style="stroke:#181818;stroke-width:0.5;" x1="505.5" x2="685.5" y1="249" y2="249"/><text fill="#000000" font-family="sans-serif" font-size="14" lengthAdjust="spacing" textLength="170" x="510.5" y="268.1074">+getEmployee(): Employee</text></g><!--class TasksRepository--><g id="elem_TasksRepository"><rect codeLine="57" fill="#F1F1F1" height="66.6211" id="TasksRepository" rx="2.5" ry="2.5" style="stroke:#181818;stroke-width:0.5;" width="271" x="722" y="209"/><ellipse cx="800.25" cy="225" fill="#ADD1B2" rx="11" ry="11" style="stroke:#181818;stroke-width:1.0;"/><path d="M803.0156,220.875 Q803.1719,220.6563 803.3594,220.5469 Q803.5469,220.4375 803.7656,220.4375 Q804.1406,220.4375 804.375,220.7031 Q804.6094,220.9531 804.6094,221.5625 L804.6094,223.0156 Q804.6094,223.625 804.375,223.8906 Q804.1406,224.1563 803.7656,224.1563 Q803.4219,224.1563 803.2188,223.9531 Q803.0156,223.7656 802.9063,223.25 Q802.8594,222.8906 802.6719,222.7031 Q802.3438,222.3281 801.7344,222.1094 Q801.125,221.8906 800.5,221.8906 Q799.7344,221.8906 799.0938,222.2188 Q798.4688,222.5469 797.9688,223.2969 Q797.4844,224.0469 797.4844,225.0781 L797.4844,226.1719 Q797.4844,227.4063 798.375,228.2344 Q799.2656,229.0469 800.8594,229.0469 Q801.7969,229.0469 802.4531,228.7969 Q802.8438,228.6406 803.2656,228.2031 Q803.5313,227.9375 803.6719,227.8594 Q803.8281,227.7813 804.0313,227.7813 Q804.3594,227.7813 804.6094,228.0469 Q804.875,228.2969 804.875,228.6406 Q804.875,228.9844 804.5313,229.3906 Q804.0313,229.9688 803.2344,230.2969 Q802.1563,230.75 800.8594,230.75 Q799.3438,230.75 798.1406,230.125 Q797.1563,229.625 796.4688,228.5625 Q795.7813,227.4844 795.7813,226.2031 L795.7813,225.0469 Q795.7813,223.7188 796.3906,222.5781 Q797.0156,221.4219 798.1094,220.8125 Q799.2031,220.1875 800.4375,220.1875 Q801.1719,220.1875 801.8125,220.3594 Q802.4688,220.5156 803.0156,220.875 Z " fill="#000000"/><text fill="#000000" font-family="sans-serif" font-size="14" lengthAdjust="spacing" textLength="106" x="820.75" y="230.7969">TasksRepository</text><line style="stroke:#181818;stroke-width:0.5;" x1="723" x2="992" y1="241" y2="241"/><line style="stroke:#181818;stroke-width:0.5;" x1="723" x2="992" y1="249" y2="249"/><text fill="#000000" font-family="sans-serif" font-size="14" lengthAdjust="spacing" textLength="259" x="728" y="268.1074">+getAgemdaEntries(): List&lt;ToDoEntries&gt;</text></g><!--link CancelEntryAgendaUI to CancelEntryAgendaController--><g id="link_CancelEntryAgendaUI_CancelEntryAgendaController"><path codeLine="61" d="M306.66,77.5 C315.09,77.5 322.53,77.5 335.27,77.5 " fill="none" id="CancelEntryAgendaUI-to-CancelEntryAgendaController" style="stroke:#181818;stroke-width:1.0;stroke-dasharray:7.0,7.0;"/><polygon fill="#181818" points="341.27,77.5,332.27,73.5,336.27,77.5,332.27,81.5,341.27,77.5" style="stroke:#181818;stroke-width:1.0;"/></g><!--link CancelEntryAgendaController to Repositories--><g id="link_CancelEntryAgendaController_Repositories"><path codeLine="63" d="M561.85,77.5 C562.06,77.5 562.17,77.5 562.17,77.5 C562.17,77.5 571.25,77.5 590.27,77.5 " fill="none" id="CancelEntryAgendaController-to-Repositories" style="stroke:#181818;stroke-width:1.0;stroke-dasharray:7.0,7.0;"/><polygon fill="#181818" points="596.27,77.5,587.27,73.5,591.27,77.5,587.27,81.5,596.27,77.5" style="stroke:#181818;stroke-width:1.0;"/><text fill="#000000" font-family="sans-serif" font-size="13" lengthAdjust="spacing" textLength="7" x="581.2236" y="74.1736">1</text></g><!--link Repositories to Repositories--><g id="link_Repositories_Repositories"><path codeLine="65" d="M970.56,61.61 C991.76,64.59 1005.5,69.88 1005.5,77.5 C1005.5,85.12 997.7016,89.5748 976.5016,92.5548 " fill="none" id="Repositories-to-Repositories" style="stroke:#181818;stroke-width:1.0;"/><polygon fill="#181818" points="970.56,93.39,980.0292,96.0983,975.5113,92.694,978.9156,88.1762,970.56,93.39" style="stroke:#181818;stroke-width:1.0;"/><text fill="#000000" font-family="sans-serif" font-size="13" lengthAdjust="spacing" textLength="75" x="1011.5" y="83.0283">getInstance()</text><text fill="#000000" font-family="sans-serif" font-size="13" lengthAdjust="spacing" textLength="7" x="978.5993" y="57.6133">1</text><text fill="#000000" font-family="sans-serif" font-size="13" lengthAdjust="spacing" textLength="7" x="978.5993" y="90.734">1</text></g><!--link Repositories to EmployeeRepository--><g id="link_Repositories_EmployeeRepository"><path codeLine="66" d="M703.23,148.1 C678.87,169.21 657.8035,187.4797 637.6635,204.9397 " fill="none" id="Repositories-to-EmployeeRepository" style="stroke:#181818;stroke-width:1.0;"/><polygon fill="#181818" points="633.13,208.87,642.5505,205.997,636.908,205.5948,637.3101,199.9522,633.13,208.87" style="stroke:#181818;stroke-width:1.0;"/><text fill="#000000" font-family="sans-serif" font-size="13" lengthAdjust="spacing" textLength="7" x="687.5912" y="170.2951">1</text><text fill="#000000" font-family="sans-serif" font-size="13" lengthAdjust="spacing" textLength="7" x="632.8493" y="197.6699">1</text></g><!--link Repositories to TasksRepository--><g id="link_Repositories_TasksRepository"><path codeLine="67" d="M815.1,148.1 C824.68,169.21 832.2788,185.9471 840.2088,203.4071 " fill="none" id="Repositories-to-TasksRepository" style="stroke:#181818;stroke-width:1.0;"/><polygon fill="#181818" points="842.69,208.87,842.6102,199.0215,840.6224,204.3175,835.3263,202.3297,842.69,208.87" style="stroke:#181818;stroke-width:1.0;"/><text fill="#000000" font-family="sans-serif" font-size="13" lengthAdjust="spacing" textLength="7" x="810.9978" y="170.2951">1</text><text fill="#000000" font-family="sans-serif" font-size="13" lengthAdjust="spacing" textLength="7" x="832.0852" y="197.6699">1</text></g><!--link CancelEntryAgendaController to Employee--><g id="link_CancelEntryAgendaController_Employee"><path codeLine="69" d="M455.58,101.54 C464.82,153.64 486.5,276 486.5,276 C486.5,276 500.3242,298.4408 520.8642,331.8008 " fill="none" id="CancelEntryAgendaController-to-Employee" style="stroke:#181818;stroke-width:1.0;stroke-dasharray:7.0,7.0;"/><polygon fill="#181818" points="524.01,336.91,522.6975,327.149,521.3885,332.6523,515.8852,331.3434,524.01,336.91" style="stroke:#181818;stroke-width:1.0;"/></g><!--link EmployeeRepository to Employee--><g id="link_EmployeeRepository_Employee"><path codeLine="71" d="M595.5,276.23 C595.5,293.04 595.5,308.63 595.5,330.92 " fill="none" id="EmployeeRepository-to-Employee" style="stroke:#181818;stroke-width:1.0;"/><polygon fill="#181818" points="595.5,336.92,599.5,327.92,595.5,331.92,591.5,327.92,595.5,336.92" style="stroke:#181818;stroke-width:1.0;"/><text fill="#000000" font-family="sans-serif" font-size="13" lengthAdjust="spacing" textLength="7" x="587.8984" y="297.5742">1</text><text fill="#000000" font-family="sans-serif" font-size="13" lengthAdjust="spacing" textLength="7" x="588.2758" y="325.9059">1</text></g><!--link TasksRepository to Employee--><g id="link_TasksRepository_Employee"><path codeLine="72" d="M816.85,276 C795.79,292.84 773.3452,310.7818 745.3452,333.1818 " fill="none" id="TasksRepository-to-Employee" style="stroke:#181818;stroke-width:1.0;"/><polygon fill="#181818" points="740.66,336.93,750.1866,334.4312,744.5643,333.8065,745.189,328.1843,740.66,336.93" style="stroke:#181818;stroke-width:1.0;"/><text fill="#000000" font-family="sans-serif" font-size="13" lengthAdjust="spacing" textLength="7" x="801.9858" y="297.5692">1</text><text fill="#000000" font-family="sans-serif" font-size="13" lengthAdjust="spacing" textLength="7" x="742.7351" y="325.9166">1</text></g><!--link Employee to Task--><g id="link_Employee_Task"><path codeLine="74" d="M595.5,571.31 C595.5,598.5 595.5,620.37 595.5,643.93 " fill="none" id="Employee-to-Task" style="stroke:#181818;stroke-width:1.0;"/><polygon fill="#181818" points="595.5,649.93,599.5,640.93,595.5,644.93,591.5,640.93,595.5,649.93" style="stroke:#181818;stroke-width:1.0;"/><text fill="#000000" font-family="sans-serif" font-size="13" lengthAdjust="spacing" textLength="39" x="596.5" y="616.0283">update</text></g><!--SRC=[XLJ1Zjem4BtxAqPx0GHPjLUwGbejgmgfQgj2Uvyaiy75iIFRg4rH_xtZX2KE2LikITwRD_Fy9c7Y3b9NQB64qcYJxQqf2RmzakYO2hC35hJrjIAmb7dKXOeBt1vpyqlg0bvGkPXHKfElAuBAg3eyYCa8QQmt8b9b2frxzDxAzEXfanczbNy8tWanKVJYmHkmijXxo6Mm8uqMZGIUoqgPckWaW7-9HZxC4hRSI1Sjb4hhzpdwWA_vqg9KebHNbTNUQFfyB5Eop4ZjMnZpKZh78s7GnUFl2cko5r7S3lFS4bliexd9Hgj_cdGdlOhSYpbmYnswmsD1EiUf8yLdf_oZ9T9Rtb4exXuMy5eGD4o5ImUkM_EVJ8Ogt3FZqVgTR1BZqou0cpbdvLVZP0Xw0KT7zWSgoSSFAImXDKOHwXdVVga2XkeXI5P2YB_Yl9a0d4HINFp5NaKouhK3hxsAPDHQC-qyxWbrHkfPUrktSJqPlZTAaJr5hWPbtpSn_OsgqDjOIGxExrGFdCuQS0u5-Otc1BdTD0GH5tKbhw_dXQsdimz00xHHj98kfBxe1XKfGpG3JHyCH-r_E1t7EOXvv7awMrwgEbtevs8H10rdMUOOOcqoujL9vnzsPctEs2faF18-tA_UsDo8f2DP2dVlx_h9Yzu60vqampBULsz_jrN3c6xNNaNp7_FtgoxSuPHH4-9gmdZHfLj31SaIZbNuxnBY7m00]--></g></svg>