<?xml version="1.0" encoding="us-ascii" standalone="no"?><svg xmlns="http://www.w3.org/2000/svg" xmlns:xlink="http://www.w3.org/1999/xlink" contentStyleType="text/css" height="489px" preserveAspectRatio="none" style="width:372px;height:489px;background:#FFFFFF;" version="1.1" viewBox="0 0 372 489" width="372px" zoomAndPan="magnify"><defs/><g><text fill="#000000" font-family="sans-serif" font-size="14" font-weight="bold" lengthAdjust="spacing" textLength="204" x="77" y="25.1074">User story 005 Domain Model</text><!--class Employee--><g id="elem_Employee"><rect codeLine="13" fill="#F1F1F1" height="166.9688" id="Employee" rx="2.5" ry="2.5" style="stroke:#181818;stroke-width:0.5;" width="104" x="156" y="46.6211"/><text fill="#000000" font-family="sans-serif" font-size="14" lengthAdjust="spacing" textLength="62" x="177" y="66.7285">Employee</text><line style="stroke:#181818;stroke-width:0.5;" x1="157" x2="259" y1="75.2422" y2="75.2422"/><text fill="#000000" font-family="sans-serif" font-size="14" lengthAdjust="spacing" textLength="35" x="162" y="94.3496">name</text><text fill="#000000" font-family="sans-serif" font-size="14" lengthAdjust="spacing" textLength="56" x="162" y="112.9707">birthdate</text><text fill="#000000" font-family="sans-serif" font-size="14" lengthAdjust="spacing" textLength="77" x="162" y="131.5918">email/phone</text><text fill="#000000" font-family="sans-serif" font-size="14" lengthAdjust="spacing" textLength="92" x="162" y="150.2129">admisson date</text><text fill="#000000" font-family="sans-serif" font-size="14" lengthAdjust="spacing" textLength="79" x="162" y="168.834">VAT number</text><text fill="#000000" font-family="sans-serif" font-size="14" lengthAdjust="spacing" textLength="51" x="162" y="187.4551">address</text><text fill="#000000" font-family="sans-serif" font-size="14" lengthAdjust="spacing" textLength="24" x="162" y="206.0762">role</text></g><!--class Collaborator--><g id="elem_Collaborator"><rect codeLine="23" fill="#F1F1F1" height="36.6211" id="Collaborator" rx="2.5" ry="2.5" style="stroke:#181818;stroke-width:0.5;" width="84" x="281" y="292.6211"/><text fill="#000000" font-family="sans-serif" font-size="14" lengthAdjust="spacing" textLength="78" x="284" y="312.7285">Collaborator</text><line style="stroke:#181818;stroke-width:0.5;" x1="282" x2="364" y1="321.2422" y2="321.2422"/></g><!--class HumanResourcesManager--><g id="elem_HumanResourcesManager"><rect codeLine="26" fill="#F1F1F1" height="36.6211" id="HumanResourcesManager" rx="2.5" ry="2.5" style="stroke:#181818;stroke-width:0.5;" width="174" x="7" y="292.6211"/><text fill="#000000" font-family="sans-serif" font-size="14" lengthAdjust="spacing" textLength="168" x="10" y="312.7285">HumanResourcesManager</text><line style="stroke:#181818;stroke-width:0.5;" x1="8" x2="180" y1="321.2422" y2="321.2422"/></g><!--class Skill--><g id="elem_Skill"><rect codeLine="29" fill="#F1F1F1" height="73.8633" id="Skill" rx="2.5" ry="2.5" style="stroke:#181818;stroke-width:0.5;" width="81" x="119.5" y="408.6211"/><text fill="#000000" font-family="sans-serif" font-size="14" lengthAdjust="spacing" textLength="25" x="147.5" y="428.7285">Skill</text><line style="stroke:#181818;stroke-width:0.5;" x1="120.5" x2="199.5" y1="437.2422" y2="437.2422"/><text fill="#000000" font-family="sans-serif" font-size="14" lengthAdjust="spacing" textLength="35" x="125.5" y="456.3496">name</text><text fill="#000000" font-family="sans-serif" font-size="14" lengthAdjust="spacing" textLength="69" x="125.5" y="474.9707">description</text></g><!--class Team--><g id="elem_Team"><rect codeLine="34" fill="#F1F1F1" height="36.6211" id="Team" rx="2.5" ry="2.5" style="stroke:#181818;stroke-width:0.5;" width="42" x="240" y="427.1211"/><text fill="#000000" font-family="sans-serif" font-size="14" lengthAdjust="spacing" textLength="36" x="243" y="447.2285">Team</text><line style="stroke:#181818;stroke-width:0.5;" x1="241" x2="281" y1="455.7422" y2="455.7422"/></g><!--link Employee to HumanResourcesManager--><g id="link_Employee_HumanResourcesManager"><path codeLine="38" d="M155.84,213.0211 C136.84,242.8511 117.12,273.8111 105.21,292.5211 " fill="none" id="Employee-HumanResourcesManager" style="stroke:#181818;stroke-width:1.0;"/><polygon fill="#000000" points="137.3141,257.484,144.6518,251.4334,139.694,248.276,137.3141,257.484" style="stroke:#000000;stroke-width:1.0;"/><text fill="#000000" font-family="sans-serif" font-size="13" lengthAdjust="spacing" textLength="10" x="149" y="258.6494">is</text><text fill="#000000" font-family="sans-serif" font-size="13" lengthAdjust="spacing" textLength="7" x="141.0128" y="220.5346">1</text><text fill="#000000" font-family="sans-serif" font-size="13" lengthAdjust="spacing" textLength="20" x="85.5806" y="281.3526">1..*</text></g><!--link Employee to Collaborator--><g id="link_Employee_Collaborator"><path codeLine="39" d="M260.12,212.2411 C279.37,242.2111 299.44,273.4511 311.58,292.3411 " fill="none" id="Employee-Collaborator" style="stroke:#181818;stroke-width:1.0;"/><polygon fill="#000000" points="299.7026,257.4733,297.2862,248.2748,292.341,251.4519,299.7026,257.4733" style="stroke:#000000;stroke-width:1.0;"/><text fill="#000000" font-family="sans-serif" font-size="13" lengthAdjust="spacing" textLength="10" x="306" y="258.6494">is</text><text fill="#000000" font-family="sans-serif" font-size="13" lengthAdjust="spacing" textLength="7" x="267.9416" y="219.6449">1</text><text fill="#000000" font-family="sans-serif" font-size="13" lengthAdjust="spacing" textLength="20" x="285.2879" y="281.4543">1..*</text></g><!--link HumanResourcesManager to Team--><g id="link_HumanResourcesManager_Team"><path codeLine="40" d="M111.72,329.8211 C126.21,343.8511 147.58,363.5311 168,378.6211 C188.84,394.0211 196.89,393.5911 218,408.6211 C225.93,414.2711 234.23,421.0011 241.39,427.1011 " fill="none" id="HumanResourcesManager-Team" style="stroke:#181818;stroke-width:1.0;"/><polygon fill="#000000" points="176.9996,372.2671,171.5279,364.4882,168.0006,369.19,176.9996,372.2671" style="stroke:#000000;stroke-width:1.0;"/><text fill="#000000" font-family="sans-serif" font-size="13" lengthAdjust="spacing" textLength="50" x="182" y="374.6494">registers</text><text fill="#000000" font-family="sans-serif" font-size="13" lengthAdjust="spacing" textLength="7" x="108.5416" y="351.2494">1</text><text fill="#000000" font-family="sans-serif" font-size="13" lengthAdjust="spacing" textLength="20" x="212.3219" y="415.9571">1..*</text></g><!--link HumanResourcesManager to Collaborator--><g id="link_HumanResourcesManager_Collaborator"><path codeLine="41" d="M181.23,311.1211 C215.36,311.1211 252.91,311.1211 280.8,311.1211 " fill="none" id="HumanResourcesManager-Collaborator" style="stroke:#181818;stroke-width:1.0;"/><polygon fill="#000000" points="208.5,298.7666,199.4549,295.8277,199.4549,301.7055,208.5,298.7666" style="stroke:#000000;stroke-width:1.0;"/><text fill="#000000" font-family="sans-serif" font-size="13" lengthAdjust="spacing" textLength="50" x="212.5" y="304.1494">registers</text><text fill="#000000" font-family="sans-serif" font-size="13" lengthAdjust="spacing" textLength="7" x="189.0271" y="307.4477">1</text><text fill="#000000" font-family="sans-serif" font-size="13" lengthAdjust="spacing" textLength="20" x="253.1331" y="326.447">1..*</text></g><!--link HumanResourcesManager to Skill--><g id="link_HumanResourcesManager_Skill"><path codeLine="42" d="M76.47,329.8611 C65.3,343.3911 54.42,362.4111 63,378.6211 C74.91,401.1211 98.31,417.3911 119.15,428.1411 " fill="none" id="HumanResourcesManager-Skill" style="stroke:#181818;stroke-width:1.0;"/><polygon fill="#000000" points="69.9917,373.8528,69.0844,364.3856,63.693,366.7269,69.9917,373.8528" style="stroke:#000000;stroke-width:1.0;"/><text fill="#000000" font-family="sans-serif" font-size="13" lengthAdjust="spacing" textLength="50" x="77" y="374.6494">registers</text><text fill="#000000" font-family="sans-serif" font-size="13" lengthAdjust="spacing" textLength="7" x="63.8182" y="351.3002">1</text><text fill="#000000" font-family="sans-serif" font-size="13" lengthAdjust="spacing" textLength="20" x="91.3636" y="421.224">1..*</text></g><!--link Collaborator to Skill--><g id="link_Collaborator_Skill"><path codeLine="43" d="M301.35,329.7111 C275.72,350.5511 232.48,385.7011 200.56,411.6511 " fill="none" id="Collaborator-Skill" style="stroke:#181818;stroke-width:1.0;"/><polygon fill="#000000" points="261.1203,372.4207,269.9926,368.9953,266.2848,364.4345,261.1203,372.4207" style="stroke:#000000;stroke-width:1.0;"/><text fill="#000000" font-family="sans-serif" font-size="13" lengthAdjust="spacing" textLength="21" x="274" y="374.6494">has</text><text fill="#000000" font-family="sans-serif" font-size="13" lengthAdjust="spacing" textLength="7" x="287.5909" y="351.1099">1</text><text fill="#000000" font-family="sans-serif" font-size="13" lengthAdjust="spacing" textLength="20" x="208.618" y="401.9448">0..*</text></g><!--link Collaborator to Team--><g id="link_Collaborator_Team"><path codeLine="44" d="M322.8,329.7411 C322.07,343.5511 319.77,362.9811 313,378.6211 C305.07,396.9611 290.73,414.5711 279.12,426.9811 " fill="none" id="Collaborator-Team" style="stroke:#181818;stroke-width:1.0;"/><polygon fill="#000000" points="320.9512,373.8276,327.3384,366.7809,321.9766,364.3725,320.9512,373.8276" style="stroke:#000000;stroke-width:1.0;"/><text fill="#000000" font-family="sans-serif" font-size="13" lengthAdjust="spacing" textLength="21" x="332" y="374.6494">has</text><text fill="#000000" font-family="sans-serif" font-size="13" lengthAdjust="spacing" textLength="20" x="300.0588" y="351.1479">1..*</text><text fill="#000000" font-family="sans-serif" font-size="13" lengthAdjust="spacing" textLength="7" x="276.5974" y="415.8004">1</text></g><!--SRC=[ZP11JoCn38Nl-HLMBqX8G3bmuR0IMf3Wm8MotDt4p5XDuf6T4Ig8_xuXqA55HJ2NSUBl-RtOLfm7L4oG98llLH91qP6SJPq1_GexMfHr953o1NCNjm7hCSWJvmuUCTfsnqSqkoX5UJaMkl6I5_nCC7S7dqpaJ6Kz48YMNjn1fCS2HK2vwmi4VdDaoQxdGE1PVVLkTQBA1tEkSAd9_XafM15Tmtn-1fUIa3FSIg3ed6j9u2eDKTP4yEAWVXaJjMB9rJjWUJzHLSQJePVyViQGs4moJCJ3nJtaCIr9Fu2WPDPgbPhlTMFuLsB4fIZMN2-VrzTZmdn79gDwiblCTR_R_SMAO_oICP1vvQ7jOWBl2LFJkUbfizCP71tLt_7nuMo_4vm36_pvJhCTUeFkdxEhUmjJUQMEhP3-8Fl6xPVgITvMzKMtCtA3ptVm7lU0ZMYZfySqxZy0]--></g></svg>