<?xml version="1.0" encoding="us-ascii" standalone="no"?><svg xmlns="http://www.w3.org/2000/svg" xmlns:xlink="http://www.w3.org/1999/xlink" contentStyleType="text/css" height="1364px" preserveAspectRatio="none" style="width:1293px;height:1364px;background:#FFFFFF;" version="1.1" viewBox="0 0 1293 1364" width="1293px" zoomAndPan="magnify"><defs/><g><text fill="#000000" font-family="sans-serif" font-size="14" font-weight="bold" lengthAdjust="spacing" textLength="100" x="589.75" y="25.1074">Domain Model</text><!--class Organization--><g id="elem_Organization"><rect codeLine="12" fill="#F1F1F1" height="129.7266" id="Organization" rx="2.5" ry="2.5" style="stroke:#181818;stroke-width:0.5;" width="101" x="777" y="46.6211"/><text fill="#000000" font-family="sans-serif" font-size="14" lengthAdjust="spacing" textLength="80" x="787.5" y="66.7285">Organization</text><line style="stroke:#181818;stroke-width:0.5;" x1="778" x2="877" y1="75.2422" y2="75.2422"/><text fill="#000000" font-family="sans-serif" font-size="14" lengthAdjust="spacing" textLength="35" x="783" y="94.3496">name</text><text fill="#000000" font-family="sans-serif" font-size="14" lengthAdjust="spacing" textLength="68" x="783" y="112.9707">vatNumber</text><text fill="#000000" font-family="sans-serif" font-size="14" lengthAdjust="spacing" textLength="47" x="783" y="131.5918">website</text><text fill="#000000" font-family="sans-serif" font-size="14" lengthAdjust="spacing" textLength="89" x="783" y="150.2129">phoneNumber</text><text fill="#000000" font-family="sans-serif" font-size="14" lengthAdjust="spacing" textLength="33" x="783" y="168.834">email</text></g><!--class Employee--><g id="elem_Employee"><rect codeLine="19" fill="#F1F1F1" height="166.9688" id="Employee" rx="2.5" ry="2.5" style="stroke:#181818;stroke-width:0.5;" width="104" x="703.5" y="255.6211"/><text fill="#000000" font-family="sans-serif" font-size="14" lengthAdjust="spacing" textLength="62" x="724.5" y="275.7285">Employee</text><line style="stroke:#181818;stroke-width:0.5;" x1="704.5" x2="806.5" y1="284.2422" y2="284.2422"/><text fill="#000000" font-family="sans-serif" font-size="14" lengthAdjust="spacing" textLength="35" x="709.5" y="303.3496">name</text><text fill="#000000" font-family="sans-serif" font-size="14" lengthAdjust="spacing" textLength="56" x="709.5" y="321.9707">birthdate</text><text fill="#000000" font-family="sans-serif" font-size="14" lengthAdjust="spacing" textLength="77" x="709.5" y="340.5918">email/phone</text><text fill="#000000" font-family="sans-serif" font-size="14" lengthAdjust="spacing" textLength="92" x="709.5" y="359.2129">admisson date</text><text fill="#000000" font-family="sans-serif" font-size="14" lengthAdjust="spacing" textLength="79" x="709.5" y="377.834">VAT number</text><text fill="#000000" font-family="sans-serif" font-size="14" lengthAdjust="spacing" textLength="51" x="709.5" y="396.4551">address</text><text fill="#000000" font-family="sans-serif" font-size="14" lengthAdjust="spacing" textLength="24" x="709.5" y="415.0762">role</text></g><!--class Agenda--><g id="elem_Agenda"><rect codeLine="28" fill="#F1F1F1" height="92.4844" id="Agenda" rx="2.5" ry="2.5" style="stroke:#181818;stroke-width:0.5;" width="97" x="949" y="452.6211"/><text fill="#000000" font-family="sans-serif" font-size="14" lengthAdjust="spacing" textLength="49" x="973" y="472.7285">Agenda</text><line style="stroke:#181818;stroke-width:0.5;" x1="950" x2="1045" y1="481.2422" y2="481.2422"/><text fill="#000000" font-family="sans-serif" font-size="14" lengthAdjust="spacing" textLength="85" x="955" y="500.3496">appointments</text><text fill="#000000" font-family="sans-serif" font-size="14" lengthAdjust="spacing" textLength="35" x="955" y="518.9707">alerts</text><text fill="#000000" font-family="sans-serif" font-size="14" lengthAdjust="spacing" textLength="55" x="955" y="537.5918">to-doList</text></g><!--class Task--><g id="elem_Task"><rect codeLine="33" fill="#F1F1F1" height="111.1055" id="Task" rx="2.5" ry="2.5" style="stroke:#181818;stroke-width:0.5;" width="81" x="472" y="861.6211"/><text fill="#000000" font-family="sans-serif" font-size="14" lengthAdjust="spacing" textLength="31" x="497" y="881.7285">Task</text><line style="stroke:#181818;stroke-width:0.5;" x1="473" x2="552" y1="890.2422" y2="890.2422"/><text fill="#000000" font-family="sans-serif" font-size="14" lengthAdjust="spacing" textLength="61" x="478" y="909.3496">reference</text><text fill="#000000" font-family="sans-serif" font-size="14" lengthAdjust="spacing" textLength="69" x="478" y="927.9707">description</text><text fill="#000000" font-family="sans-serif" font-size="14" lengthAdjust="spacing" textLength="52" x="478" y="946.5918">duration</text><text fill="#000000" font-family="sans-serif" font-size="14" lengthAdjust="spacing" textLength="26" x="478" y="965.2129">cost</text></g><!--class GreenSpace--><g id="elem_GreenSpace"><rect codeLine="39" fill="#F1F1F1" height="92.4844" id="GreenSpace" rx="2.5" ry="2.5" style="stroke:#181818;stroke-width:0.5;" width="149" x="642" y="871.1211"/><text fill="#000000" font-family="sans-serif" font-size="14" lengthAdjust="spacing" textLength="80" x="676.5" y="891.2285">GreenSpace</text><line style="stroke:#181818;stroke-width:0.5;" x1="643" x2="790" y1="899.7422" y2="899.7422"/><text fill="#000000" font-family="sans-serif" font-size="14" lengthAdjust="spacing" textLength="53" x="648" y="918.8496">typology</text><text fill="#000000" font-family="sans-serif" font-size="14" lengthAdjust="spacing" textLength="24" x="648" y="937.4707">size</text><text fill="#000000" font-family="sans-serif" font-size="14" lengthAdjust="spacing" textLength="137" x="648" y="956.0918">numberOfEquipments</text></g><!--class GreenSpaceUser--><g id="elem_GreenSpaceUser"><rect codeLine="44" fill="#F1F1F1" height="92.4844" id="GreenSpaceUser" rx="2.5" ry="2.5" style="stroke:#181818;stroke-width:0.5;" width="128" x="875.5" y="1051.6211"/><text fill="#000000" font-family="sans-serif" font-size="14" lengthAdjust="spacing" textLength="109" x="885" y="1071.7285">GreenSpaceUser</text><line style="stroke:#181818;stroke-width:0.5;" x1="876.5" x2="1002.5" y1="1080.2422" y2="1080.2422"/><text fill="#000000" font-family="sans-serif" font-size="14" lengthAdjust="spacing" textLength="63" x="881.5" y="1099.3496">username</text><text fill="#000000" font-family="sans-serif" font-size="14" lengthAdjust="spacing" textLength="60" x="881.5" y="1117.9707">password</text><text fill="#000000" font-family="sans-serif" font-size="14" lengthAdjust="spacing" textLength="116" x="881.5" y="1136.5918">contactInformation</text></g><!--class HumanResourcesManager--><g id="elem_HumanResourcesManager"><rect codeLine="49" fill="#F1F1F1" height="36.6211" id="HumanResourcesManager" rx="2.5" ry="2.5" style="stroke:#181818;stroke-width:0.5;" width="174" x="439.5" y="574.6211"/><text fill="#000000" font-family="sans-serif" font-size="14" lengthAdjust="spacing" textLength="168" x="442.5" y="594.7285">HumanResourcesManager</text><line style="stroke:#181818;stroke-width:0.5;" x1="440.5" x2="612.5" y1="603.2422" y2="603.2422"/></g><!--class VehicleEquipmentFleetManager--><g id="elem_VehicleEquipmentFleetManager"><rect codeLine="51" fill="#F1F1F1" height="36.6211" id="VehicleEquipmentFleetManager" rx="2.5" ry="2.5" style="stroke:#181818;stroke-width:0.5;" width="207" x="99" y="574.6211"/><text fill="#000000" font-family="sans-serif" font-size="14" lengthAdjust="spacing" textLength="201" x="102" y="594.7285">VehicleEquipmentFleetManager</text><line style="stroke:#181818;stroke-width:0.5;" x1="100" x2="305" y1="603.2422" y2="603.2422"/></g><!--class GreenSpacesManager--><g id="elem_GreenSpacesManager"><rect codeLine="53" fill="#F1F1F1" height="36.6211" id="GreenSpacesManager" rx="2.5" ry="2.5" style="stroke:#181818;stroke-width:0.5;" width="149" x="841" y="574.6211"/><text fill="#000000" font-family="sans-serif" font-size="14" lengthAdjust="spacing" textLength="143" x="844" y="594.7285">GreenSpacesManager</text><line style="stroke:#181818;stroke-width:0.5;" x1="842" x2="989" y1="603.2422" y2="603.2422"/></g><!--class Collaborator--><g id="elem_Collaborator"><rect codeLine="56" fill="#F1F1F1" height="36.6211" id="Collaborator" rx="2.5" ry="2.5" style="stroke:#181818;stroke-width:0.5;" width="84" x="713.5" y="574.6211"/><text fill="#000000" font-family="sans-serif" font-size="14" lengthAdjust="spacing" textLength="78" x="716.5" y="594.7285">Collaborator</text><line style="stroke:#181818;stroke-width:0.5;" x1="714.5" x2="796.5" y1="603.2422" y2="603.2422"/></g><!--class Team--><g id="elem_Team"><rect codeLine="58" fill="#F1F1F1" height="36.6211" id="Team" rx="2.5" ry="2.5" style="stroke:#181818;stroke-width:0.5;" width="42" x="491.5" y="718.1211"/><text fill="#000000" font-family="sans-serif" font-size="14" lengthAdjust="spacing" textLength="36" x="494.5" y="738.2285">Team</text><line style="stroke:#181818;stroke-width:0.5;" x1="492.5" x2="532.5" y1="746.7422" y2="746.7422"/></g><!--class Job--><g id="elem_Job"><rect codeLine="60" fill="#F1F1F1" height="73.8633" id="Job" rx="2.5" ry="2.5" style="stroke:#181818;stroke-width:0.5;" width="81" x="374" y="699.6211"/><text fill="#000000" font-family="sans-serif" font-size="14" lengthAdjust="spacing" textLength="22" x="403.5" y="719.7285">Job</text><line style="stroke:#181818;stroke-width:0.5;" x1="375" x2="454" y1="728.2422" y2="728.2422"/><text fill="#000000" font-family="sans-serif" font-size="14" lengthAdjust="spacing" textLength="35" x="380" y="747.3496">name</text><text fill="#000000" font-family="sans-serif" font-size="14" lengthAdjust="spacing" textLength="69" x="380" y="765.9707">description</text></g><!--class Skill--><g id="elem_Skill"><rect codeLine="64" fill="#F1F1F1" height="73.8633" id="Skill" rx="2.5" ry="2.5" style="stroke:#181818;stroke-width:0.5;" width="81" x="610" y="699.6211"/><text fill="#000000" font-family="sans-serif" font-size="14" lengthAdjust="spacing" textLength="25" x="638" y="719.7285">Skill</text><line style="stroke:#181818;stroke-width:0.5;" x1="611" x2="690" y1="728.2422" y2="728.2422"/><text fill="#000000" font-family="sans-serif" font-size="14" lengthAdjust="spacing" textLength="35" x="616" y="747.3496">name</text><text fill="#000000" font-family="sans-serif" font-size="14" lengthAdjust="spacing" textLength="69" x="616" y="765.9707">description</text></g><!--class Vehicle--><g id="elem_Vehicle"><rect codeLine="68" fill="#F1F1F1" height="92.4844" id="Vehicle" rx="2.5" ry="2.5" style="stroke:#181818;stroke-width:0.5;" width="115" x="7" y="690.6211"/><text fill="#000000" font-family="sans-serif" font-size="14" lengthAdjust="spacing" textLength="46" x="41.5" y="710.7285">Vehicle</text><line style="stroke:#181818;stroke-width:0.5;" x1="8" x2="121" y1="719.2422" y2="719.2422"/><text fill="#000000" font-family="sans-serif" font-size="14" lengthAdjust="spacing" textLength="37" x="13" y="738.3496">brand</text><text fill="#000000" font-family="sans-serif" font-size="14" lengthAdjust="spacing" textLength="38" x="13" y="756.9707">model</text><text fill="#000000" font-family="sans-serif" font-size="14" lengthAdjust="spacing" textLength="103" x="13" y="775.5918">registrationPlate</text></g><!--class Equipment--><g id="elem_Equipment"><rect codeLine="73" fill="#F1F1F1" height="73.8633" id="Equipment" rx="2.5" ry="2.5" style="stroke:#181818;stroke-width:0.5;" width="73" x="166" y="699.6211"/><text fill="#000000" font-family="sans-serif" font-size="14" lengthAdjust="spacing" textLength="67" x="169" y="719.7285">Equipment</text><line style="stroke:#181818;stroke-width:0.5;" x1="167" x2="238" y1="728.2422" y2="728.2422"/><text fill="#000000" font-family="sans-serif" font-size="14" lengthAdjust="spacing" textLength="37" x="172" y="747.3496">brand</text><text fill="#000000" font-family="sans-serif" font-size="14" lengthAdjust="spacing" textLength="38" x="172" y="765.9707">model</text></g><!--class Machine--><g id="elem_Machine"><rect codeLine="78" fill="#F1F1F1" height="73.8633" id="Machine" rx="2.5" ry="2.5" style="stroke:#181818;stroke-width:0.5;" width="59" x="278" y="699.6211"/><text fill="#000000" font-family="sans-serif" font-size="14" lengthAdjust="spacing" textLength="53" x="281" y="719.7285">Machine</text><line style="stroke:#181818;stroke-width:0.5;" x1="279" x2="336" y1="728.2422" y2="728.2422"/><text fill="#000000" font-family="sans-serif" font-size="14" lengthAdjust="spacing" textLength="37" x="284" y="747.3496">brand</text><text fill="#000000" font-family="sans-serif" font-size="14" lengthAdjust="spacing" textLength="38" x="284" y="765.9707">model</text></g><!--class GreenSpacesUserPortal--><g id="elem_GreenSpacesUserPortal"><rect codeLine="82" fill="#F1F1F1" height="36.6211" id="GreenSpacesUserPortal" rx="2.5" ry="2.5" style="stroke:#181818;stroke-width:0.5;" width="159" x="1064" y="898.6211"/><text fill="#000000" font-family="sans-serif" font-size="14" lengthAdjust="spacing" textLength="153" x="1067" y="918.7285">GreenSpacesUserPortal</text><line style="stroke:#181818;stroke-width:0.5;" x1="1065" x2="1222" y1="927.2422" y2="927.2422"/></g><!--class Comment--><g id="elem_Comment"><rect codeLine="84" fill="#F1F1F1" height="36.6211" id="Comment" rx="2.5" ry="2.5" style="stroke:#181818;stroke-width:0.5;" width="66" x="1093.5" y="1222.6211"/><text fill="#000000" font-family="sans-serif" font-size="14" lengthAdjust="spacing" textLength="60" x="1096.5" y="1242.7285">Comment</text><line style="stroke:#181818;stroke-width:0.5;" x1="1094.5" x2="1158.5" y1="1251.2422" y2="1251.2422"/></g><!--class Fault--><g id="elem_Fault"><rect codeLine="86" fill="#F1F1F1" height="36.6211" id="Fault" rx="2.5" ry="2.5" style="stroke:#181818;stroke-width:0.5;" width="38" x="784.5" y="1222.6211"/><text fill="#000000" font-family="sans-serif" font-size="14" lengthAdjust="spacing" textLength="32" x="787.5" y="1242.7285">Fault</text><line style="stroke:#181818;stroke-width:0.5;" x1="785.5" x2="821.5" y1="1251.2422" y2="1251.2422"/></g><!--class Malfunction--><g id="elem_Malfunction"><rect codeLine="88" fill="#F1F1F1" height="36.6211" id="Malfunction" rx="2.5" ry="2.5" style="stroke:#181818;stroke-width:0.5;" width="78" x="964.5" y="1320.6211"/><text fill="#000000" font-family="sans-serif" font-size="14" lengthAdjust="spacing" textLength="72" x="967.5" y="1340.7285">Malfunction</text><line style="stroke:#181818;stroke-width:0.5;" x1="965.5" x2="1041.5" y1="1349.2422" y2="1349.2422"/></g><!--link Organization to Agenda--><g id="link_Organization_Agenda"><path codeLine="91" d="M855.76,176.6311 C890.18,254.5611 947.43,384.2211 977.56,452.4511 " fill="none" id="Organization-Agenda" style="stroke:#181818;stroke-width:1.0;"/><polygon fill="#000000" points="883.5198,220.8405,882.5544,211.379,877.1775,213.7535,883.5198,220.8405" style="stroke:#000000;stroke-width:1.0;"/><text fill="#000000" font-family="sans-serif" font-size="13" lengthAdjust="spacing" textLength="30" x="890.5" y="221.6494">owns</text><text fill="#000000" font-family="sans-serif" font-size="13" lengthAdjust="spacing" textLength="7" x="851.3134" y="198.2692">1</text><text fill="#000000" font-family="sans-serif" font-size="13" lengthAdjust="spacing" textLength="7" x="967.1172" y="441.4356">1</text></g><!--link Organization to Employee--><g id="link_Organization_Employee"><path codeLine="92" d="M807.06,176.6411 C799.24,201.1211 790.22,229.3911 781.92,255.3711 " fill="none" id="Organization-Employee" style="stroke:#181818;stroke-width:1.0;"/><polygon fill="#000000" points="798.9791,221.0297,804.5301,213.3072,798.9308,211.5192,798.9791,221.0297" style="stroke:#000000;stroke-width:1.0;"/><text fill="#000000" font-family="sans-serif" font-size="13" lengthAdjust="spacing" textLength="21" x="809.5" y="221.6494">has</text><text fill="#000000" font-family="sans-serif" font-size="13" lengthAdjust="spacing" textLength="7" x="797.5912" y="198.2803">1</text><text fill="#000000" font-family="sans-serif" font-size="13" lengthAdjust="spacing" textLength="20" x="763.3311" y="244.4855">1..*</text></g><!--link Employee to HumanResourcesManager--><g id="link_Employee_HumanResourcesManager"><path codeLine="93" d="M703.25,397.6211 C651.5,454.5611 575.39,538.3211 542.55,574.4611 " fill="none" id="Employee-HumanResourcesManager" style="stroke:#181818;stroke-width:1.0;"/><polygon fill="#000000" points="649.1374,502.467,657.3954,497.7495,653.0454,493.7964,649.1374,502.467" style="stroke:#000000;stroke-width:1.0;"/><text fill="#000000" font-family="sans-serif" font-size="13" lengthAdjust="spacing" textLength="10" x="661.5" y="504.1494">is</text><text fill="#000000" font-family="sans-serif" font-size="13" lengthAdjust="spacing" textLength="7" x="688.4102" y="401.7033">1</text><text fill="#000000" font-family="sans-serif" font-size="13" lengthAdjust="spacing" textLength="20" x="524.4028" y="563.2742">1..*</text></g><!--link Employee to VehicleEquipmentFleetManager--><g id="link_Employee_VehicleEquipmentFleetManager"><path codeLine="94" d="M703.48,363.8311 C593.24,414.0611 338.3,530.2411 241.1,574.5311 " fill="none" id="Employee-VehicleEquipmentFleetManager" style="stroke:#181818;stroke-width:1.0;"/><polygon fill="#000000" points="496.9501,500.8399,506.3996,499.7636,503.9623,494.4149,496.9501,500.8399" style="stroke:#000000;stroke-width:1.0;"/><text fill="#000000" font-family="sans-serif" font-size="13" lengthAdjust="spacing" textLength="10" x="510.5" y="504.1494">is</text><text fill="#000000" font-family="sans-serif" font-size="13" lengthAdjust="spacing" textLength="7" x="688.6725" y="363.1616">1</text><text fill="#000000" font-family="sans-serif" font-size="13" lengthAdjust="spacing" textLength="20" x="229.8588" y="563.3657">1..*</text></g><!--link Employee to GreenSpacesManager--><g id="link_Employee_GreenSpacesManager"><path codeLine="95" d="M807.67,422.2911 C842.14,476.5811 884.49,543.2711 904.29,574.4711 " fill="none" id="Employee-GreenSpacesManager" style="stroke:#181818;stroke-width:1.0;"/><polygon fill="#000000" points="892.18,502.9877,889.8129,493.7764,884.8507,496.9269,892.18,502.9877" style="stroke:#000000;stroke-width:1.0;"/><text fill="#000000" font-family="sans-serif" font-size="13" lengthAdjust="spacing" textLength="10" x="898.5" y="504.1494">is</text><text fill="#000000" font-family="sans-serif" font-size="13" lengthAdjust="spacing" textLength="7" x="805.0047" y="444.4981">1</text><text fill="#000000" font-family="sans-serif" font-size="13" lengthAdjust="spacing" textLength="20" x="877.7944" y="563.2873">1..*</text></g><!--link Employee to Collaborator--><g id="link_Employee_Collaborator"><path codeLine="96" d="M755.5,422.6311 C755.5,476.8911 755.5,543.4211 755.5,574.5211 " fill="none" id="Employee-Collaborator" style="stroke:#181818;stroke-width:1.0;"/><polygon fill="#000000" points="760.5,503.7666,763.4389,494.7215,757.5611,494.7215,760.5,503.7666" style="stroke:#000000;stroke-width:1.0;"/><text fill="#000000" font-family="sans-serif" font-size="13" lengthAdjust="spacing" textLength="10" x="769.5" y="504.1494">is</text><text fill="#000000" font-family="sans-serif" font-size="13" lengthAdjust="spacing" textLength="7" x="748.1992" y="444.5804">1</text><text fill="#000000" font-family="sans-serif" font-size="13" lengthAdjust="spacing" textLength="20" x="732.4375" y="563.3526">1..*</text></g><!--link Task to GreenSpace--><g id="link_Task_GreenSpace"><path codeLine="97" d="M553.29,917.1211 C578.64,917.1211 611.99,917.1211 641.93,917.1211 " fill="none" id="Task-GreenSpace" style="stroke:#181818;stroke-width:1.0;"/><polygon fill="#000000" points="580.5,904.7666,571.4549,901.8277,571.4549,907.7055,580.5,904.7666" style="stroke:#000000;stroke-width:1.0;"/><text fill="#000000" font-family="sans-serif" font-size="13" lengthAdjust="spacing" textLength="39" x="584.5" y="910.1494">occurs</text><text fill="#000000" font-family="sans-serif" font-size="13" lengthAdjust="spacing" textLength="20" x="561.0672" y="932.4652">1..*</text><text fill="#000000" font-family="sans-serif" font-size="13" lengthAdjust="spacing" textLength="20" x="613.8694" y="931.9504">1..*</text></g><!--link GreenSpace to Task--><!--link HumanResourcesManager to Team--><g id="link_HumanResourcesManager_Team"><path codeLine="99" d="M493.89,611.7611 C483.13,619.4011 472.4,629.4211 466.5,641.6211 C453.6,668.2811 475.78,699.1011 493.59,717.9711 " fill="none" id="HumanResourcesManager-Team" style="stroke:#181818;stroke-width:1.0;"/><polygon fill="#000000" points="471.4859,656.2666,474.4503,647.2298,468.5725,647.2132,471.4859,656.2666" style="stroke:#000000;stroke-width:1.0;"/><text fill="#000000" font-family="sans-serif" font-size="13" lengthAdjust="spacing" textLength="50" x="480.5" y="656.6494">registers</text><text fill="#000000" font-family="sans-serif" font-size="13" lengthAdjust="spacing" textLength="7" x="477.1854" y="633.1733">1</text><text fill="#000000" font-family="sans-serif" font-size="13" lengthAdjust="spacing" textLength="20" x="464.7363" y="706.7873">1..*</text></g><!--link HumanResourcesManager to Collaborator--><g id="link_HumanResourcesManager_Collaborator"><path codeLine="100" d="M613.73,593.1211 C647.86,593.1211 685.41,593.1211 713.3,593.1211 " fill="none" id="HumanResourcesManager-Collaborator" style="stroke:#181818;stroke-width:1.0;"/><polygon fill="#000000" points="641,580.7666,631.9549,577.8277,631.9549,583.7055,641,580.7666" style="stroke:#000000;stroke-width:1.0;"/><text fill="#000000" font-family="sans-serif" font-size="13" lengthAdjust="spacing" textLength="50" x="645" y="586.1494">registers</text><text fill="#000000" font-family="sans-serif" font-size="13" lengthAdjust="spacing" textLength="7" x="621.5271" y="589.4477">1</text><text fill="#000000" font-family="sans-serif" font-size="13" lengthAdjust="spacing" textLength="20" x="685.6331" y="608.447">1..*</text></g><!--link HumanResourcesManager to Job--><g id="link_HumanResourcesManager_Job"><path codeLine="101" d="M439.17,607.2111 C420.15,614.2811 402.23,625.1011 390.5,641.6211 C378.51,658.5111 383.58,680.8711 392.09,699.5511 " fill="none" id="HumanResourcesManager-Job" style="stroke:#181818;stroke-width:1.0;"/><polygon fill="#000000" points="393.2289,655.721,399.9556,648.9978,394.7191,646.328,393.2289,655.721" style="stroke:#000000;stroke-width:1.0;"/><text fill="#000000" font-family="sans-serif" font-size="13" lengthAdjust="spacing" textLength="50" x="404.5" y="656.6494">registers</text><text fill="#000000" font-family="sans-serif" font-size="13" lengthAdjust="spacing" textLength="7" x="424.3643" y="604.7486">1</text><text fill="#000000" font-family="sans-serif" font-size="13" lengthAdjust="spacing" textLength="20" x="366.1144" y="688.2169">1..*</text></g><!--link HumanResourcesManager to Skill--><g id="link_HumanResourcesManager_Skill"><path codeLine="102" d="M570.64,611.7011 C585.14,619.1811 600.37,629.1211 611.5,641.6211 C626.07,657.9911 635.67,680.5511 641.7,699.4711 " fill="none" id="HumanResourcesManager-Skill" style="stroke:#181818;stroke-width:1.0;"/><polygon fill="#000000" points="632.6462,655.1527,629.2388,646.2734,624.6705,649.972,632.6462,655.1527" style="stroke:#000000;stroke-width:1.0;"/><text fill="#000000" font-family="sans-serif" font-size="13" lengthAdjust="spacing" textLength="50" x="638.5" y="656.6494">registers</text><text fill="#000000" font-family="sans-serif" font-size="13" lengthAdjust="spacing" textLength="7" x="575.07" y="633.4399">1</text><text fill="#000000" font-family="sans-serif" font-size="13" lengthAdjust="spacing" textLength="20" x="618.3513" y="688.4061">1..*</text></g><!--link VehicleEquipmentFleetManager to Vehicle--><g id="link_VehicleEquipmentFleetManager_Vehicle"><path codeLine="103" d="M106.15,611.7611 C91.06,618.6811 77.26,628.2911 67.5,641.6211 C57.37,655.4511 55.04,673.7511 55.83,690.5211 " fill="none" id="VehicleEquipmentFleetManager-Vehicle" style="stroke:#181818;stroke-width:1.0;"/><polygon fill="#000000" points="69.808,655.4801,77.1545,649.4402,72.2013,646.2755,69.808,655.4801" style="stroke:#000000;stroke-width:1.0;"/><text fill="#000000" font-family="sans-serif" font-size="13" lengthAdjust="spacing" textLength="53" x="81.5" y="656.6494">manages</text><text fill="#000000" font-family="sans-serif" font-size="13" lengthAdjust="spacing" textLength="7" x="83.8605" y="629.9965">1</text><text fill="#000000" font-family="sans-serif" font-size="13" lengthAdjust="spacing" textLength="20" x="33.0878" y="679.5158">1..*</text></g><!--link VehicleEquipmentFleetManager to Equipment--><g id="link_VehicleEquipmentFleetManager_Equipment"><path codeLine="104" d="M172.09,611.6411 C161.65,619.3711 151.18,629.4911 145.5,641.6211 C141.92,649.2711 142.8,652.6211 145.5,660.6211 C150.2,674.5711 158.64,687.9811 167.61,699.5111 " fill="none" id="VehicleEquipmentFleetManager-Equipment" style="stroke:#181818;stroke-width:1.0;"/><polygon fill="#000000" points="150.2454,656.2601,153.6411,647.3764,147.7709,647.0771,150.2454,656.2601" style="stroke:#000000;stroke-width:1.0;"/><text fill="#000000" font-family="sans-serif" font-size="13" lengthAdjust="spacing" textLength="53" x="159.5" y="656.6494">manages</text><text fill="#000000" font-family="sans-serif" font-size="13" lengthAdjust="spacing" textLength="7" x="155.5528" y="633.363">1</text><text fill="#000000" font-family="sans-serif" font-size="13" lengthAdjust="spacing" textLength="20" x="139.614" y="688.4532">1..*</text></g><!--link VehicleEquipmentFleetManager to Machine--><g id="link_VehicleEquipmentFleetManager_Machine"><path codeLine="105" d="M215.59,611.7511 C231.8,633.6111 259.85,671.4011 280.7,699.5111 " fill="none" id="VehicleEquipmentFleetManager-Machine" style="stroke:#181818;stroke-width:1.0;"/><polygon fill="#000000" points="257.4792,655.2821,254.4501,646.2669,249.7295,649.7691,257.4792,655.2821" style="stroke:#000000;stroke-width:1.0;"/><text fill="#000000" font-family="sans-serif" font-size="13" lengthAdjust="spacing" textLength="53" x="263.5" y="656.6494">manages</text><text fill="#000000" font-family="sans-serif" font-size="13" lengthAdjust="spacing" textLength="7" x="211.1673" y="633.1606">1</text><text fill="#000000" font-family="sans-serif" font-size="13" lengthAdjust="spacing" textLength="20" x="254.145" y="688.4532">1..*</text></g><!--link GreenSpacesManager to GreenSpace--><g id="link_GreenSpacesManager_GreenSpace"><path codeLine="106" d="M915,611.7811 C914.35,625.2711 912.87,644.2711 909.5,660.6211 C897.97,716.5111 896.89,732.5611 869.5,782.6211 C850.21,817.8711 817.76,848.2011 787.69,871.0011 " fill="none" id="GreenSpacesManager-GreenSpace" style="stroke:#181818;stroke-width:1.0;"/><polygon fill="#000000" points="905.2958,741.2546,911.9211,734.4313,906.6452,731.8402,905.2958,741.2546" style="stroke:#000000;stroke-width:1.0;"/><text fill="#000000" font-family="sans-serif" font-size="13" lengthAdjust="spacing" textLength="53" x="916.5" y="742.1494">manages</text><text fill="#000000" font-family="sans-serif" font-size="13" lengthAdjust="spacing" textLength="7" x="906.925" y="633.1987">1</text><text fill="#000000" font-family="sans-serif" font-size="13" lengthAdjust="spacing" textLength="20" x="776.6773" y="859.9929">1..*</text></g><!--link GreenSpacesManager to Task--><g id="link_GreenSpacesManager_Task"><path codeLine="107" d="M895.61,611.7511 C880.35,625.2311 858.7,644.2311 839.5,660.6211 C823.66,674.1511 818.99,676.7011 803.5,690.6211 C736.4,750.9211 729.5,777.2811 657.5,831.6211 C624.36,856.6311 583.19,879.9811 553.19,895.7711 " fill="none" id="GreenSpacesManager-Task" style="stroke:#181818;stroke-width:1.0;"/><polygon fill="#000000" points="804.6516,739.9587,813.4897,736.4462,809.7372,731.9221,804.6516,739.9587" style="stroke:#000000;stroke-width:1.0;"/><text fill="#000000" font-family="sans-serif" font-size="13" lengthAdjust="spacing" textLength="43" x="817.5" y="742.1494">creates</text><text fill="#000000" font-family="sans-serif" font-size="13" lengthAdjust="spacing" textLength="7" x="882.3239" y="633.1606">1</text><text fill="#000000" font-family="sans-serif" font-size="13" lengthAdjust="spacing" textLength="7" x="561.0613" y="907.527">1</text></g><!--link GreenSpacesManager to GreenSpacesUserPortal--><g id="link_GreenSpacesManager_GreenSpacesUserPortal"><path codeLine="108" d="M928.08,611.8911 C967.95,668.1911 1091.15,842.1811 1130.96,898.4011 " fill="none" id="GreenSpacesManager-GreenSpacesUserPortal" style="stroke:#181818;stroke-width:1.0;"/><polygon fill="#000000" points="1055.3895,740.8472,1052.5609,731.767,1047.7639,735.1638,1055.3895,740.8472" style="stroke:#000000;stroke-width:1.0;"/><text fill="#000000" font-family="sans-serif" font-size="13" lengthAdjust="spacing" textLength="53" x="1061.5" y="742.1494">manages</text><text fill="#000000" font-family="sans-serif" font-size="13" lengthAdjust="spacing" textLength="7" x="923.5203" y="633.3382">1</text><text fill="#000000" font-family="sans-serif" font-size="13" lengthAdjust="spacing" textLength="7" x="1119.0478" y="887.1959">1</text></g><!--link Collaborator to Job--><g id="link_Collaborator_Job"><path codeLine="109" d="M713.32,601.1711 C674.48,608.4911 615.73,621.7011 567.5,641.6211 C552.21,647.9311 550.07,652.7911 535.5,660.6211 C508.54,675.1111 499.58,674.5911 473.5,690.6211 C467.35,694.4011 461.07,698.6811 455.01,703.0511 " fill="none" id="Collaborator-Job" style="stroke:#181818;stroke-width:1.0;"/><polygon fill="#000000" points="567.8487,653.1011,577.3413,652.5164,575.1847,647.0485,567.8487,653.1011" style="stroke:#000000;stroke-width:1.0;"/><text fill="#000000" font-family="sans-serif" font-size="13" lengthAdjust="spacing" textLength="21" x="581.5" y="656.6494">has</text><text fill="#000000" font-family="sans-serif" font-size="13" lengthAdjust="spacing" textLength="7" x="698.4688" y="598.1796">1</text><text fill="#000000" font-family="sans-serif" font-size="13" lengthAdjust="spacing" textLength="7" x="463.1243" y="692.3622">1</text></g><!--link Collaborator to Skill--><g id="link_Collaborator_Skill"><path codeLine="110" d="M776.19,611.8111 C789.39,625.3211 802.32,644.3311 792.5,660.6211 C781.06,679.6011 729.05,703.9411 691.28,719.6511 " fill="none" id="Collaborator-Skill" style="stroke:#181818;stroke-width:1.0;"/><polygon fill="#000000" points="797.4069,655.195,805.3115,649.9065,800.6933,646.2703,797.4069,655.195" style="stroke:#000000;stroke-width:1.0;"/><text fill="#000000" font-family="sans-serif" font-size="13" lengthAdjust="spacing" textLength="21" x="809.5" y="656.6494">has</text><text fill="#000000" font-family="sans-serif" font-size="13" lengthAdjust="spacing" textLength="7" x="773.8098" y="633.2367">1</text><text fill="#000000" font-family="sans-serif" font-size="13" lengthAdjust="spacing" textLength="20" x="699.0557" y="712.8121">0..*</text></g><!--link Collaborator to Team--><g id="link_Collaborator_Team"><path codeLine="111" d="M744.5,611.6511 C734.14,626.7511 717.28,648.0511 697.5,660.6211 C656.53,686.6411 637.29,671.9311 592.5,690.6211 C571.62,699.3311 549.29,712.2311 533.54,721.9811 " fill="none" id="Collaborator-Team" style="stroke:#181818;stroke-width:1.0;"/><polygon fill="#000000" points="720.0694,653.5838,729.4465,651.9962,726.7225,646.7877,720.0694,653.5838" style="stroke:#000000;stroke-width:1.0;"/><text fill="#000000" font-family="sans-serif" font-size="13" lengthAdjust="spacing" textLength="21" x="733.5" y="656.6494">has</text><text fill="#000000" font-family="sans-serif" font-size="13" lengthAdjust="spacing" textLength="20" x="718.5938" y="633.3758">1..*</text><text fill="#000000" font-family="sans-serif" font-size="13" lengthAdjust="spacing" textLength="7" x="541.3621" y="711.7403">1</text></g><!--link Skill to Task--><g id="link_Skill_Task"><path codeLine="112" d="M626.69,773.9811 C614.76,791.6911 599.83,813.1111 585.5,831.6211 C575.41,844.6511 563.98,858.3411 553.2,870.8211 " fill="none" id="Skill-Task" style="stroke:#181818;stroke-width:1.0;"/><polygon fill="#000000" points="607.5226,818.2836,599.7135,823.7122,604.3958,827.2655,607.5226,818.2836" style="stroke:#000000;stroke-width:1.0;"/><text fill="#000000" font-family="sans-serif" font-size="13" lengthAdjust="spacing" textLength="35" x="613.5" y="827.6494">needs</text><text fill="#000000" font-family="sans-serif" font-size="13" lengthAdjust="spacing" textLength="20" x="601.0902" y="795.6404">1..*</text><text fill="#000000" font-family="sans-serif" font-size="13" lengthAdjust="spacing" textLength="7" x="561.0731" y="858.1047">1</text></g><!--link GreenSpacesUserPortal to Comment--><g id="link_GreenSpacesUserPortal_Comment"><path codeLine="113" d="M1142.56,935.8911 C1139.59,992.1911 1130.4,1166.1811 1127.44,1222.4011 " fill="none" id="GreenSpacesUserPortal-Comment" style="stroke:#181818;stroke-width:1.0;"/><polygon fill="#000000" points="1140.7635,1092.7735,1137.352,1101.6512,1143.2217,1101.9609,1140.7635,1092.7735" style="stroke:#000000;stroke-width:1.0;"/><text fill="#000000" font-family="sans-serif" font-size="13" lengthAdjust="spacing" textLength="50" x="1149.5" y="1103.1494">registers</text><text fill="#000000" font-family="sans-serif" font-size="13" lengthAdjust="spacing" textLength="7" x="1134.3668" y="957.3382">1</text><text fill="#000000" font-family="sans-serif" font-size="13" lengthAdjust="spacing" textLength="20" x="1104.6654" y="1211.1959">0..*</text></g><!--link GreenSpacesUserPortal to Fault--><g id="link_GreenSpacesUserPortal_Fault"><path codeLine="114" d="M1063.82,923.4211 C980.63,933.7011 854,963.7911 793.5,1051.6211 C757.16,1104.3811 782.15,1186.4911 796,1222.3511 " fill="none" id="GreenSpacesUserPortal-Fault" style="stroke:#181818;stroke-width:1.0;"/><polygon fill="#000000" points="801.8364,1094.0426,793.6119,1098.8183,797.9897,1102.7405,801.8364,1094.0426" style="stroke:#000000;stroke-width:1.0;"/><text fill="#000000" font-family="sans-serif" font-size="13" lengthAdjust="spacing" textLength="50" x="807.5" y="1103.1494">registers</text><text fill="#000000" font-family="sans-serif" font-size="13" lengthAdjust="spacing" textLength="7" x="1048.8919" y="920.2717">1</text><text fill="#000000" font-family="sans-serif" font-size="13" lengthAdjust="spacing" textLength="20" x="770.8594" y="1211.4672">0..*</text></g><!--link GreenSpacesUserPortal to Malfunction--><g id="link_GreenSpacesUserPortal_Malfunction"><path codeLine="115" d="M1155.32,935.7111 C1171.1,960.3611 1198.25,1007.1611 1208.5,1051.6211 C1229.49,1142.7011 1238,1188.3811 1177.5,1259.6211 C1142.75,1300.5411 1082.3,1321.1111 1042.59,1330.6911 " fill="none" id="GreenSpacesUserPortal-Malfunction" style="stroke:#181818;stroke-width:1.0;"/><polygon fill="#000000" points="1227.8722,1178.4586,1222.5638,1186.3498,1228.2159,1187.9629,1227.8722,1178.4586" style="stroke:#000000;stroke-width:1.0;"/><text fill="#000000" font-family="sans-serif" font-size="13" lengthAdjust="spacing" textLength="50" x="1235.5" y="1188.6494">registers</text><text fill="#000000" font-family="sans-serif" font-size="13" lengthAdjust="spacing" textLength="7" x="1150.556" y="957.1099">1</text><text fill="#000000" font-family="sans-serif" font-size="13" lengthAdjust="spacing" textLength="20" x="1050.4137" y="1325.0746">0..*</text></g><!--link GreenSpaceUser to Comment--><g id="link_GreenSpaceUser_Comment"><path codeLine="116" d="M1000.53,1143.6411 C1013.75,1153.4711 1027.62,1163.8611 1040.5,1173.6211 C1062.16,1190.0311 1086.66,1209.0211 1103.96,1222.5011 " fill="none" id="GreenSpaceUser-Comment" style="stroke:#181818;stroke-width:1.0;"/><polygon fill="#000000" points="1072.4761,1186.2982,1067.0652,1178.4769,1063.5013,1183.1511,1072.4761,1186.2982" style="stroke:#000000;stroke-width:1.0;"/><text fill="#000000" font-family="sans-serif" font-size="13" lengthAdjust="spacing" textLength="32" x="1077.5" y="1188.6494">posts</text><text fill="#000000" font-family="sans-serif" font-size="13" lengthAdjust="spacing" textLength="7" x="1002.3393" y="1166.003">1</text><text fill="#000000" font-family="sans-serif" font-size="13" lengthAdjust="spacing" textLength="22" x="1071.6884" y="1211.3265">0..1</text></g><!--link Comment to GreenSpaceUser--><!--link GreenSpaceUser to Fault--><g id="link_GreenSpaceUser_Fault"><path codeLine="118" d="M888.81,1143.6211 C878.54,1153.2711 867.98,1163.5911 858.5,1173.6211 C843.57,1189.4011 827.91,1208.6411 817.14,1222.3611 " fill="none" id="GreenSpaceUser-Fault" style="stroke:#181818;stroke-width:1.0;"/><polygon fill="#000000" points="860.1344,1186.9642,868.3963,1182.2534,864.0494,1178.2969,860.1344,1186.9642" style="stroke:#000000;stroke-width:1.0;"/><text fill="#000000" font-family="sans-serif" font-size="13" lengthAdjust="spacing" textLength="40" x="872.5" y="1188.6494">reports</text><text fill="#000000" font-family="sans-serif" font-size="13" lengthAdjust="spacing" textLength="7" x="873.5122" y="1165.9799">1</text><text fill="#000000" font-family="sans-serif" font-size="13" lengthAdjust="spacing" textLength="22" x="824.378" y="1211.4802">0..1</text></g><!--link Fault to GreenSpaceUser--><!--link GreenSpaceUser to Malfunction--><g id="link_GreenSpaceUser_Malfunction"><path codeLine="120" d="M951.54,1143.6711 C965.8,1197.0611 988.88,1283.4311 998.77,1320.4011 " fill="none" id="GreenSpaceUser-Malfunction" style="stroke:#181818;stroke-width:1.0;"/><polygon fill="#000000" points="987.7909,1246.0971,988.2949,1236.5999,982.6163,1238.1174,987.7909,1246.0971" style="stroke:#000000;stroke-width:1.0;"/><text fill="#000000" font-family="sans-serif" font-size="13" lengthAdjust="spacing" textLength="40" x="995.5" y="1246.6494">reports</text><text fill="#000000" font-family="sans-serif" font-size="13" lengthAdjust="spacing" textLength="7" x="945.8477" y="1166.0376">1</text><text fill="#000000" font-family="sans-serif" font-size="13" lengthAdjust="spacing" textLength="22" x="971.9527" y="1309.1959">0..1</text></g><!--link Malfunction to GreenSpaceUser--><!--link Agenda to Task--><g id="link_Agenda_Task"><path codeLine="122" d="M1010.09,544.7311 C1024.47,607.0711 1038.86,719.0611 978.5,782.6211 C867.49,899.5111 776.68,808.4411 624.5,861.6211 C600,870.1811 573.86,882.6911 553,893.5711 " fill="none" id="Agenda-Task" style="stroke:#181818;stroke-width:1.0;"/><polygon fill="#000000" points="1023.5253,654.3,1032.4986,651.1488,1028.9326,646.4762,1023.5253,654.3" style="stroke:#000000;stroke-width:1.0;"/><text fill="#000000" font-family="sans-serif" font-size="13" lengthAdjust="spacing" textLength="21" x="1036.5" y="656.6494">has</text><text fill="#000000" font-family="sans-serif" font-size="13" lengthAdjust="spacing" textLength="7" x="1004.4819" y="567.1068">1</text><text fill="#000000" font-family="sans-serif" font-size="13" lengthAdjust="spacing" textLength="20" x="561.0484" y="885.5062">0..*</text></g><!--link Team to Task--><g id="link_Team_Task"><path codeLine="123" d="M512.5,755.3911 C512.5,779.9011 512.5,825.1811 512.5,861.4511 " fill="none" id="Team-Task" style="stroke:#181818;stroke-width:1.0;"/><polygon fill="#000000" points="517.5,827.2666,520.4389,818.2215,514.5611,818.2215,517.5,827.2666" style="stroke:#000000;stroke-width:1.0;"/><text fill="#000000" font-family="sans-serif" font-size="13" lengthAdjust="spacing" textLength="53" x="526.5" y="827.6494">executes</text><text fill="#000000" font-family="sans-serif" font-size="13" lengthAdjust="spacing" textLength="7" x="504.5594" y="776.8382">1</text><text fill="#000000" font-family="sans-serif" font-size="13" lengthAdjust="spacing" textLength="7" x="505.0516" y="850.2695">1</text></g><!--link GreenSpace to GreenSpaceUser--><g id="link_GreenSpace_GreenSpaceUser"><path codeLine="124" d="M772.77,963.1611 C806.58,990.2211 849.44,1024.5311 883.25,1051.5911 " fill="none" id="GreenSpace-GreenSpaceUser" style="stroke:#181818;stroke-width:1.0;"/><polygon fill="#000000" points="849.4036,1015.3911,844.1785,1007.4444,840.5054,1012.0333,849.4036,1015.3911" style="stroke:#000000;stroke-width:1.0;"/><text fill="#000000" font-family="sans-serif" font-size="13" lengthAdjust="spacing" textLength="21" x="854.5" y="1017.6494">has</text><text fill="#000000" font-family="sans-serif" font-size="13" lengthAdjust="spacing" textLength="7" x="773.8504" y="985.526">1</text><text fill="#000000" font-family="sans-serif" font-size="13" lengthAdjust="spacing" textLength="20" x="853.1055" y="1040.2547">0..*</text></g><!--link Vehicle to Task--><g id="link_Vehicle_Task"><path codeLine="125" d="M122.19,768.8811 C130.98,773.5411 139.96,778.2411 148.5,782.6211 C192.54,805.2011 202.59,813.1411 248.5,831.6211 C325.73,862.7111 419.14,890.3711 471.6,905.0411 " fill="none" id="Vehicle-Task" style="stroke:#181818;stroke-width:1.0;"/><polygon fill="#000000" points="248.8412,820.4511,256.2019,826.4737,258.3361,820.997,248.8412,820.4511" style="stroke:#000000;stroke-width:1.0;"/><text fill="#000000" font-family="sans-serif" font-size="13" lengthAdjust="spacing" textLength="35" x="262.5" y="827.6494">needs</text><text fill="#000000" font-family="sans-serif" font-size="13" lengthAdjust="spacing" textLength="20" x="130.0167" y="768.6455">0..*</text><text fill="#000000" font-family="sans-serif" font-size="13" lengthAdjust="spacing" textLength="7" x="456.9688" y="898.5482">1</text></g><!--link Machine to Task--><g id="link_Machine_Task"><path codeLine="126" d="M337.15,765.1511 C343.5,770.9611 350.19,777.0311 356.5,782.6211 C395.18,816.9111 440.09,855.1811 471.76,881.9311 " fill="none" id="Machine-Task" style="stroke:#181818;stroke-width:1.0;"/><polygon fill="#000000" points="413.7232,818.9901,418.6296,827.1373,422.4814,822.6974,413.7232,818.9901" style="stroke:#000000;stroke-width:1.0;"/><text fill="#000000" font-family="sans-serif" font-size="13" lengthAdjust="spacing" textLength="35" x="426.5" y="827.6494">needs</text><text fill="#000000" font-family="sans-serif" font-size="13" lengthAdjust="spacing" textLength="20" x="344.9561" y="766.1649">0..*</text><text fill="#000000" font-family="sans-serif" font-size="13" lengthAdjust="spacing" textLength="7" x="456.8798" y="871.1937">1</text></g><!--link Equipment to Task--><g id="link_Equipment_Task"><path codeLine="127" d="M239.24,766.9511 C246.22,772.2811 253.52,777.7111 260.5,782.6211 C293.67,805.9711 302.06,811.8811 337.5,831.6211 C382.45,856.6611 435.94,881.8511 471.86,898.1311 " fill="none" id="Equipment-Task" style="stroke:#181818;stroke-width:1.0;"/><polygon fill="#000000" points="338.1448,819.8106,344.5798,826.8135,347.4671,821.6936,338.1448,819.8106" style="stroke:#000000;stroke-width:1.0;"/><text fill="#000000" font-family="sans-serif" font-size="13" lengthAdjust="spacing" textLength="35" x="351.5" y="827.6494">needs</text><text fill="#000000" font-family="sans-serif" font-size="13" lengthAdjust="spacing" textLength="20" x="246.9813" y="767.6304">0..*</text><text fill="#000000" font-family="sans-serif" font-size="13" lengthAdjust="spacing" textLength="7" x="456.9976" y="910.3074">1</text></g><!--SRC=[dLLDJzmm4BtdLrXSa2fj2rTK8Q4MMgfkGOLogNgOTMOJQ_sHsawt2-f_hsCxYPFDBWjSYEtttendtdZDYiaAD0WYb5Iqr4eWiRh6p7Gd5T0L57XdDno9Hcf15Zm5c19ojMQo84lW9ZsX78ovi5QpHMtncYfvnnwHd6J7FOOpYNPJ8L7QbYexvhYqn2gYML5QahCc8bCoArcEX39DNMp_BT3XSvDbbbcNsKSbW4aoLpdoBFEHoOqkGB97Q0J8KqRSdmI1_kCFs6-rMA3sgpKk3BFXf2gLnEGCdJ3F_aNDIr5njK4SwosOop-7gE4vxxoINqCkc34kYmxnS75FP1y4yboZCVvRAtV7Djv5WJA760sgIZ5f1KeReC1Hnq-hPhdwoepjgFTWLf6eSOaQ9GsnSpHKiyhNrQzh3Ts2gaJYaqQKTyu2xNrTgnHNnSOlZEjcg8A_oCtoydVDgf3Tji8FWpggrEwpgrpbO6kbynXTMg3sMYwL5Y6fLkbpBK1-HwDgJT7CGJfNwgVk-05BvipHfN354UqMga-dL-WEFoZEOQ5SCLH2kKSG_UgBMemwdrQpHTsj6ES7u6BI0RdG84CLX7TnQ5pXMXhQSyiRytH6R2ywJUvmSw2bcx5fr4HPcZRTkc44_fGKHeH8xSOLr3nPpe4lQ-a7jTdC1eDtT7f4PZF_BvhvZAYrDEHy1-xjspT7_PoTaH8QRBSnn4swmf7O7iu-gpn3tVRFCuJKKotK3sOydr1svQ6qrWqocR_PJ_VivIX_pSxzP6VJDnz6RxpheWONePVSGzkHyu7iZkv6v1KiFp8Ztjv6JVRK2GX__a9wXtcjG1op0Nt2BBlST1WlJ96tpncX6jrxS01-ShW70GSDJ-OrT3BCtoJcPD2wIM1mUSmys37W0ci425UJYBaXxxFfpBkxdKItYjYutZe7KlqpzX9YnqnUl9ry_uENLEeqpRLoFxEXMc4d7U-Xn7x5_WgLoxHH33klrHjVh5LDzpljBUdum0_j4PiQkkuja5Wi7k9VfFNOpIETKTwjOZlv4JNjf7OyzuBwHs0lx3y0]--></g></svg>